<?xml version="1.0" encoding="utf-8"?>
<!-- Generator: Adobe Illustrator 27.9.0, SVG Export Plug-In . SVG Version: 6.00 Build 0)  -->
<svg version="1.1" xmlns="http://www.w3.org/2000/svg" xmlns:xlink="http://www.w3.org/1999/xlink" x="0px" y="0px"
	 viewBox="0 0 126.08 75.06" style="enable-background:new 0 0 126.08 75.06;" xml:space="preserve">
<style type="text/css">
	.st0{fill:#F0F0F0;}
	.st1{display:none;}
	.st2{display:inline;fill:#1C1824;}
	.st3{fill:none;stroke:#D4D4D4;stroke-width:2.3506;stroke-miterlimit:10;}
	.st4{fill:none;stroke:#E3E3E3;stroke-width:0.5;stroke-miterlimit:10;}
	.st5{fill:none;stroke:#FFFFFE;stroke-width:0.8855;stroke-miterlimit:10;}
	.st6{fill:#FFFFFE;}
	.st7{fill:#16C0FE;}
	.st8{fill:#0000D7;}
	.st9{fill:#FFDE00;}
	.st10{fill:#6B6B6B;}
	.st11{fill:#696969;}
	.st12{fill:none;stroke:#474747;stroke-width:0.348;stroke-miterlimit:10;}
	.st13{fill:none;stroke:#474747;stroke-width:0.4442;stroke-miterlimit:10;}
	.st14{fill:none;stroke:#D2B356;stroke-width:5.9189;stroke-miterlimit:10;}
	.st15{fill:#D2B356;}
	.st16{fill:#FFFFFF;}
	.st17{fill:none;stroke:#000000;stroke-width:0.4956;stroke-miterlimit:10;}
	.st18{fill:none;stroke:#000000;stroke-width:1.6303;stroke-miterlimit:10;}
	.st19{fill:none;stroke:#A8A8A8;stroke-width:0.5;stroke-miterlimit:10;}
	.st20{display:inline;fill:none;stroke:#DBDBDB;stroke-width:0.4653;stroke-miterlimit:10;}
	.st21{fill:#303334;}
	.st22{clip-path:url(#SVGID_00000094598172286422081300000002690547911637632153_);fill:#B6B6B6;}
	.st23{fill-rule:evenodd;clip-rule:evenodd;fill:#303334;}
	.st24{fill:#262626;}
	.st25{fill:#424242;}
	.st26{fill:#595959;}
	.st27{fill:#A3A3A3;}
	.st28{fill:#606060;}
	.st29{fill:#848484;}
	.st30{fill:#040505;}
	.st31{fill-rule:evenodd;clip-rule:evenodd;fill:#2D2D2D;}
	.st32{fill-rule:evenodd;clip-rule:evenodd;fill:#989898;}
	.st33{fill:#4B4B4B;}
	.st34{fill:#373737;}
	.st35{fill:#1E1E1E;}
	.st36{clip-path:url(#SVGID_00000000943988002711769100000002069267884712533665_);}
	.st37{fill:#B29020;}
	.st38{clip-path:url(#SVGID_00000047055010973538920330000000105864643004447920_);}
	.st39{fill-rule:evenodd;clip-rule:evenodd;fill:#333333;}
	.st40{fill-rule:evenodd;clip-rule:evenodd;fill:#FFFFFF;}
	.st41{fill:#333333;}
	.st42{fill:#E3E3E3;}
	.st43{fill:#C7C7C7;}
	.st44{fill:#828282;}
	.st45{fill:#5D5D5D;}
	.st46{fill:#B7B7B7;}
	.st47{fill:#C1C1C1;}
	.st48{fill:#D9D9D9;}
	.st49{fill:#B2B2B2;}
	.st50{fill:#1D1D1D;}
	.st51{fill-rule:evenodd;clip-rule:evenodd;fill:#A8A8A8;}
	.st52{fill:#5C5C5C;}
	.st53{fill:#202020;}
	.st54{fill:#221F1F;}
	.st55{fill:#231F20;}
	.st56{fill:none;stroke:#221F1F;stroke-width:0.1371;}
	.st57{fill:#1D1D1B;}
	.st58{fill:#7A7A7A;}
	.st59{fill:none;stroke:#DBDBDB;stroke-width:0.4653;stroke-miterlimit:10;}
	.st60{clip-path:url(#SVGID_00000048480379760565368570000004170104201447470258_);fill:#B6B6B6;}
	.st61{clip-path:url(#SVGID_00000058552549710635324640000017445251391161405071_);}
	.st62{clip-path:url(#SVGID_00000060023721100627503760000015743146352499040189_);}
	.st63{fill:#A0A0A0;}
	.st64{fill-rule:evenodd;clip-rule:evenodd;fill:#D2B356;}
	.st65{fill:#9E9E9E;}
	.st66{clip-path:url(#SVGID_00000148632583875522569150000013932562316153974417_);}
	.st67{clip-path:url(#SVGID_00000172424296831969474210000013250286817483761340_);}
	.st68{clip-path:url(#SVGID_00000079487030245924053900000013900840942063293370_);}
	.st69{fill:#212121;}
</style>
<g id="Capa_2">
</g>
<g id="Capa_7" class="st1">
</g>
<g id="Capa_1">
</g>
<g id="lineas-logos">
</g>
<g id="marco-logos" class="st1">
</g>
<g id="logos">
	<rect x="-0.17" class="st59" width="126.08" height="75.06"/>
	<g>
		<path class="st21" d="M63.02,34.97v-3.64h4.07c1.19,0,2.6,0.3,2.6,1.76v0.06c0,1.21-0.97,1.82-2.89,1.82H63.02z M67.99,43.11
			h-4.97V39.3h4.82c1.98,0,2.98,0.63,2.98,1.88v0.06C70.82,42.48,69.87,43.11,67.99,43.11 M72.47,36.7
			c1.53-1.04,2.28-2.45,2.28-4.31v-0.06c0-1.47-0.48-2.67-1.48-3.66c-1.23-1.23-3.14-1.88-5.51-1.88h-9.71l0,20.86h9.94
			c5.01,0,7.89-2.14,7.89-5.87v-0.06C75.88,39.33,74.82,37.76,72.47,36.7"/>
		<path class="st21" d="M98.37,37.22v0.06c0,3.42-2.32,5.72-5.78,5.72h-3.12V31.44h3.12C96.05,31.44,98.37,33.76,98.37,37.22
			 M92.59,26.79h-8.21l0,20.86l8.2,0c3.12,0,5.95-1.07,7.98-3.01c1.99-1.91,3.09-4.55,3.09-7.42v-0.06
			C103.66,31.15,99,26.79,92.59,26.79"/>
		<path class="st21" d="M79.83,26.76c1.4,0,2.54,1.14,2.54,2.54v18.36h-5.08v-20.9H79.83z"/>
		<path class="st21" d="M43.75,34.33c-0.73-0.03-0.86,0.41,0.24,0.64C45.52,35.29,44.47,34.36,43.75,34.33 M41.46,32.61
			c-2.19-0.71-0.75,1.04,0.29,1.16C42.8,33.89,43.01,33.12,41.46,32.61 M35.02,31.03c-0.64,0.33,0.5,1.82,3.42,1.9
			C41.36,33.01,37.6,29.68,35.02,31.03 M40.63,52.48c0.92-1.71,2.92-4.2,7.19-9.22c6.39-7.51-12.55-4.99-15.8-10.67
			c-2.67-4.68,7.28-8.05,13.29-10.66c3.91,2.58,6.74,6.74,7.47,11.74C54.04,42.2,48.71,50.18,40.63,52.48 M36.83,40.37
			c-2.68,4.34,5.94,4.41,1.95,12.52c-0.12,0.02-0.23,0.04-0.35,0.06c-9.29,1.36-17.93-5.07-19.29-14.36
			c-0.64-4.41,0.46-8.67,2.8-12.07C21.5,36.33,39.33,36.32,36.83,40.37"/>
	</g>
</g>
<g id="Capa_6">
</g>
</svg>
