<?xml version="1.0" encoding="utf-8"?>
<!-- Generator: Adobe Illustrator 27.9.0, SVG Export Plug-In . SVG Version: 6.00 Build 0)  -->
<svg version="1.1" xmlns="http://www.w3.org/2000/svg" xmlns:xlink="http://www.w3.org/1999/xlink" x="0px" y="0px"
	 viewBox="0 0 93.09 42.6" style="enable-background:new 0 0 93.09 42.6;" xml:space="preserve">
<style type="text/css">
	.st0{fill:#F0F0F0;}
	.st1{display:none;}
	.st2{display:inline;fill:#1C1824;}
	.st3{fill:none;stroke:#D4D4D4;stroke-width:2.3506;stroke-miterlimit:10;}
	.st4{fill:none;stroke:#E3E3E3;stroke-width:0.5;stroke-miterlimit:10;}
	.st5{fill:none;stroke:#FFFFFE;stroke-width:0.8855;stroke-miterlimit:10;}
	.st6{fill:#FFFFFE;}
	.st7{fill:#16C0FE;}
	.st8{fill:#0000D7;}
	.st9{fill:#FFDE00;}
	.st10{fill:#6B6B6B;}
	.st11{fill:#696969;}
	.st12{fill:none;stroke:#474747;stroke-width:0.348;stroke-miterlimit:10;}
	.st13{fill:none;stroke:#474747;stroke-width:0.4442;stroke-miterlimit:10;}
	.st14{fill:none;stroke:#D2B356;stroke-width:5.9189;stroke-miterlimit:10;}
	.st15{fill:#D2B356;}
	.st16{fill:#FFFFFF;}
	.st17{fill:none;stroke:#000000;stroke-width:0.4956;stroke-miterlimit:10;}
	.st18{fill:none;stroke:#000000;stroke-width:1.6303;stroke-miterlimit:10;}
	.st19{fill:none;stroke:#A8A8A8;stroke-width:0.5;stroke-miterlimit:10;}
	.st20{display:inline;fill:none;stroke:#DBDBDB;stroke-width:0.4653;stroke-miterlimit:10;}
	.st21{fill:#303334;}
	.st22{clip-path:url(#SVGID_00000179613959457310330490000014937528574157055422_);fill:#B6B6B6;}
	.st23{fill-rule:evenodd;clip-rule:evenodd;fill:#303334;}
	.st24{fill:#262626;}
	.st25{fill:#424242;}
	.st26{fill:#595959;}
	.st27{fill:#A3A3A3;}
	.st28{fill:#606060;}
	.st29{fill:#848484;}
	.st30{fill:#040505;}
	.st31{fill-rule:evenodd;clip-rule:evenodd;fill:#2D2D2D;}
	.st32{fill-rule:evenodd;clip-rule:evenodd;fill:#989898;}
	.st33{fill:#4B4B4B;}
	.st34{fill:#373737;}
	.st35{fill:#1E1E1E;}
	.st36{clip-path:url(#SVGID_00000167390021011095133290000000305517838964903069_);}
	.st37{fill:#B29020;}
	.st38{clip-path:url(#SVGID_00000108267032618346812680000017808831127611188110_);}
	.st39{fill-rule:evenodd;clip-rule:evenodd;fill:#333333;}
	.st40{fill-rule:evenodd;clip-rule:evenodd;fill:#FFFFFF;}
	.st41{fill:#333333;}
	.st42{fill:#E3E3E3;}
	.st43{fill:#C7C7C7;}
	.st44{fill:#828282;}
	.st45{fill:#5D5D5D;}
	.st46{fill:#B7B7B7;}
	.st47{fill:#C1C1C1;}
	.st48{fill:#D9D9D9;}
	.st49{fill:#B2B2B2;}
	.st50{fill:#1D1D1D;}
	.st51{fill-rule:evenodd;clip-rule:evenodd;fill:#A8A8A8;}
	.st52{fill:#5C5C5C;}
	.st53{fill:#202020;}
	.st54{fill:#221F1F;}
	.st55{fill:#231F20;}
	.st56{fill:none;stroke:#221F1F;stroke-width:0.1371;}
	.st57{fill:#1D1D1B;}
	.st58{fill:#7A7A7A;}
	.st59{fill:none;stroke:#DBDBDB;stroke-width:0.4653;stroke-miterlimit:10;}
	.st60{clip-path:url(#SVGID_00000133516667525389571700000015458953287698359449_);fill:#B6B6B6;}
	.st61{clip-path:url(#SVGID_00000177445094975837250590000016287257540469757618_);}
	.st62{clip-path:url(#SVGID_00000020368990700471253070000013371325909497755053_);}
	.st63{fill:#A0A0A0;}
	.st64{fill-rule:evenodd;clip-rule:evenodd;fill:#D2B356;}
	.st65{fill:#9E9E9E;}
	.st66{clip-path:url(#SVGID_00000052087655195129876890000017331551526249918393_);}
	.st67{clip-path:url(#SVGID_00000169526609379280171240000000425163775501472160_);}
	.st68{clip-path:url(#SVGID_00000139985427073808909020000008025518585148678571_);}
	.st69{fill:#212121;}
</style>
<g id="Capa_2">
</g>
<g id="Capa_7" class="st1">
	<rect x="-9.59" y="-10.67" class="st2" width="884.26" height="136.12"/>
</g>
<g id="Capa_1">
</g>
<g id="lineas-logos">
</g>
<g id="marco-logos" class="st1">
</g>
<g id="logos">
	<g>
		<path class="st63" d="M28.54,7.7L17.83,21.66c-0.01,0.01-0.04,0.05-0.08,0.11C17.64,21.92,17.53,22,17.4,22
			c-0.08,0-0.14-0.02-0.21-0.06c-0.06-0.04-0.13-0.13-0.2-0.26L6.31,7.7v28.18c0,0.1-0.03,0.17-0.09,0.24
			c-0.06,0.06-0.14,0.1-0.26,0.1c-0.09,0-0.15-0.03-0.2-0.08C5.72,36.09,5.7,36,5.7,35.88V6.95c0-0.16,0.02-0.27,0.07-0.32
			c0.05-0.05,0.11-0.08,0.2-0.08c0.12,0,0.24,0.08,0.37,0.23c0.03,0.04,0.06,0.08,0.08,0.11L17.4,21.28L28.4,6.89
			c0.02-0.02,0.04-0.05,0.08-0.1c0.12-0.16,0.25-0.24,0.38-0.24c0.08,0,0.15,0.04,0.19,0.11c0.04,0.07,0.06,0.17,0.06,0.29v28.93
			c0,0.1-0.03,0.17-0.09,0.24c-0.06,0.06-0.13,0.1-0.23,0.1c-0.1,0-0.16-0.03-0.2-0.08c-0.04-0.05-0.05-0.14-0.05-0.26V7.7z"/>
		<path class="st63" d="M64.61,7.7v28.18c0,0.1-0.03,0.17-0.09,0.24c-0.06,0.06-0.15,0.1-0.26,0.1c-0.09,0-0.15-0.03-0.21-0.08
			C64.02,36.09,64,36,64,35.88V6.95c0-0.16,0.02-0.27,0.06-0.32c0.05-0.05,0.12-0.08,0.21-0.08c0.1,0,0.18,0.03,0.25,0.07
			c0,0.02,0.03,0.07,0.1,0.15c0.05,0.05,0.07,0.1,0.1,0.13l22.28,28.18V6.92c0-0.1,0.02-0.18,0.08-0.26
			c0.05-0.07,0.11-0.12,0.18-0.12c0.12,0,0.21,0.04,0.26,0.09c0.05,0.05,0.08,0.15,0.08,0.28v28.9c0,0.14-0.03,0.24-0.07,0.3
			c-0.05,0.06-0.12,0.1-0.22,0.1c-0.13,0-0.26-0.09-0.39-0.26c-0.04-0.03-0.06-0.06-0.07-0.08L64.61,7.7z"/>
		<g>
			<path class="st63" d="M48.4,21.01c0,1.03-0.83,1.86-1.86,1.86c-1.03,0-1.86-0.83-1.86-1.86c0-1.03,0.83-1.86,1.86-1.86
				C47.57,19.15,48.4,19.98,48.4,21.01z"/>
			<path class="st63" d="M31.58,21.17c0-1.97,0.38-3.87,1.15-5.72c0.76-1.85,1.84-3.47,3.24-4.86c1.39-1.39,2.99-2.46,4.8-3.2
				c1.81-0.74,3.71-1.11,5.71-1.11c2.02,0,3.94,0.37,5.74,1.11c1.81,0.74,3.41,1.81,4.81,3.2c1.39,1.4,2.46,3.02,3.21,4.84
				c0.75,1.82,1.12,3.74,1.12,5.75c0,1.74-0.29,3.42-0.86,5.03c-0.57,1.61-1.41,3.08-2.5,4.41c-1.39,1.7-3.11,3.03-5.15,4
				c-2.04,0.97-4.16,1.45-6.37,1.45c-1.95,0-3.83-0.38-5.67-1.15c-1.83-0.76-3.45-1.84-4.84-3.23c-1.38-1.38-2.46-3-3.23-4.84
				C31.97,24.99,31.58,23.11,31.58,21.17z M32.2,21.19c0,1.85,0.37,3.66,1.1,5.41c0.74,1.76,1.77,3.31,3.1,4.64
				c1.34,1.33,2.89,2.36,4.65,3.1c1.76,0.74,3.57,1.11,5.43,1.11c1.87,0,3.68-0.37,5.44-1.1c1.76-0.73,3.32-1.76,4.68-3.1
				c1.34-1.32,2.36-2.85,3.07-4.58c0.71-1.73,1.07-3.55,1.07-5.47c0-1.95-0.36-3.79-1.07-5.54c-0.71-1.74-1.73-3.29-3.07-4.63
				c-1.35-1.35-2.89-2.37-4.62-3.08c-1.72-0.7-3.56-1.05-5.5-1.05c-1.67,0-3.27,0.28-4.81,0.82c-1.54,0.54-2.94,1.34-4.23,2.39
				c-1.65,1.37-2.93,3.03-3.86,5C32.66,17.06,32.2,19.09,32.2,21.19z"/>
		</g>
	</g>
</g>
<g id="Capa_6">
</g>
</svg>
