<?xml version="1.0" encoding="utf-8"?>
<!-- Generator: Adobe Illustrator 27.9.0, SVG Export Plug-In . SVG Version: 6.00 Build 0)  -->
<svg version="1.1" xmlns="http://www.w3.org/2000/svg" xmlns:xlink="http://www.w3.org/1999/xlink" x="0px" y="0px"
	 viewBox="0 0 126.08 75.06" style="enable-background:new 0 0 126.08 75.06;" xml:space="preserve">
<style type="text/css">
	.st0{fill:#F0F0F0;}
	.st1{display:none;}
	.st2{display:inline;fill:#1C1824;}
	.st3{fill:none;stroke:#D4D4D4;stroke-width:2.3506;stroke-miterlimit:10;}
	.st4{fill:none;stroke:#E3E3E3;stroke-width:0.5;stroke-miterlimit:10;}
	.st5{fill:none;stroke:#FFFFFE;stroke-width:0.8855;stroke-miterlimit:10;}
	.st6{fill:#FFFFFE;}
	.st7{fill:#16C0FE;}
	.st8{fill:#0000D7;}
	.st9{fill:#FFDE00;}
	.st10{fill:#6B6B6B;}
	.st11{fill:#696969;}
	.st12{fill:none;stroke:#474747;stroke-width:0.348;stroke-miterlimit:10;}
	.st13{fill:none;stroke:#474747;stroke-width:0.4442;stroke-miterlimit:10;}
	.st14{fill:none;stroke:#D2B356;stroke-width:5.9189;stroke-miterlimit:10;}
	.st15{fill:#D2B356;}
	.st16{fill:#FFFFFF;}
	.st17{fill:none;stroke:#000000;stroke-width:0.4956;stroke-miterlimit:10;}
	.st18{fill:none;stroke:#000000;stroke-width:1.6303;stroke-miterlimit:10;}
	.st19{fill:none;stroke:#A8A8A8;stroke-width:0.5;stroke-miterlimit:10;}
	.st20{display:inline;fill:none;stroke:#DBDBDB;stroke-width:0.4653;stroke-miterlimit:10;}
	.st21{fill:#303334;}
	.st22{clip-path:url(#SVGID_00000012454911528993090520000008872233553523889060_);fill:#B6B6B6;}
	.st23{fill-rule:evenodd;clip-rule:evenodd;fill:#303334;}
	.st24{fill:#262626;}
	.st25{fill:#424242;}
	.st26{fill:#595959;}
	.st27{fill:#A3A3A3;}
	.st28{fill:#606060;}
	.st29{fill:#848484;}
	.st30{fill:#040505;}
	.st31{fill-rule:evenodd;clip-rule:evenodd;fill:#2D2D2D;}
	.st32{fill-rule:evenodd;clip-rule:evenodd;fill:#989898;}
	.st33{fill:#4B4B4B;}
	.st34{fill:#373737;}
	.st35{fill:#1E1E1E;}
	.st36{clip-path:url(#SVGID_00000026159989058125264340000012973742842454962580_);}
	.st37{fill:#B29020;}
	.st38{clip-path:url(#SVGID_00000055706694788730183140000005163293077232608139_);}
	.st39{fill-rule:evenodd;clip-rule:evenodd;fill:#333333;}
	.st40{fill-rule:evenodd;clip-rule:evenodd;fill:#FFFFFF;}
	.st41{fill:#333333;}
	.st42{fill:#E3E3E3;}
	.st43{fill:#C7C7C7;}
	.st44{fill:#828282;}
	.st45{fill:#5D5D5D;}
	.st46{fill:#B7B7B7;}
	.st47{fill:#C1C1C1;}
	.st48{fill:#D9D9D9;}
	.st49{fill:#B2B2B2;}
	.st50{fill:#1D1D1D;}
	.st51{fill-rule:evenodd;clip-rule:evenodd;fill:#A8A8A8;}
	.st52{fill:#5C5C5C;}
	.st53{fill:#202020;}
	.st54{fill:#221F1F;}
	.st55{fill:#231F20;}
	.st56{fill:none;stroke:#221F1F;stroke-width:0.1371;}
	.st57{fill:#1D1D1B;}
	.st58{fill:#7A7A7A;}
	.st59{fill:none;stroke:#DBDBDB;stroke-width:0.4653;stroke-miterlimit:10;}
	.st60{clip-path:url(#SVGID_00000139284622265625286190000008823513297127198121_);fill:#B6B6B6;}
	.st61{clip-path:url(#SVGID_00000180348229125347618240000013907814075620349340_);}
	.st62{clip-path:url(#SVGID_00000090975167426526963310000011024232788125254801_);}
	.st63{fill:#A0A0A0;}
	.st64{fill-rule:evenodd;clip-rule:evenodd;fill:#D2B356;}
	.st65{fill:#9E9E9E;}
	.st66{clip-path:url(#SVGID_00000082368548985451671510000017284136092309012881_);}
	.st67{clip-path:url(#SVGID_00000137810793081939918180000009555544622065747132_);}
	.st68{clip-path:url(#SVGID_00000111184115833462751480000015040208033844152482_);}
	.st69{fill:#212121;}
</style>
<g id="Capa_2">
</g>
<g id="Capa_7" class="st1">
</g>
<g id="Capa_1">
</g>
<g id="lineas-logos">
</g>
<g id="marco-logos" class="st1">
</g>
<g id="logos">
	<rect x="0.08" y="-0.25" class="st59" width="126.08" height="75.06"/>
	<g>
		<path class="st25" d="M35.95,33.56h-7.2c-0.21,0-0.41,0.08-0.56,0.23l-5.37,5.37c-0.12,0.12-0.34,0.04-0.34-0.14v-7.05
			c0-0.22-0.18-0.4-0.4-0.4h-7.05c-0.18,0-0.26-0.21-0.14-0.34l5.37-5.37c0.15-0.15,0.35-0.23,0.56-0.23h7.2
			c0.22,0,0.4,0.18,0.4,0.4v6.57c0,0.35,0.43,0.53,0.68,0.28l5.03-5.03c0.15-0.15,0.35-0.23,0.56-0.23h7.2c0.22,0,0.4,0.18,0.4,0.4
			v7.2c0,0.21-0.08,0.41-0.23,0.56l-5.25,5.25c-0.3,0.3-0.46,0.7-0.46,1.12v6.94c0,0.21-0.08,0.41-0.23,0.56L30.74,55
			c-0.12,0.12-0.34,0.04-0.34-0.14v-7.05c0-0.22-0.18-0.4-0.4-0.4h-7.05c-0.18,0-0.26-0.21-0.14-0.34l5.37-5.37
			c0.15-0.15,0.35-0.23,0.56-0.23h6.8c0.44,0,0.79-0.35,0.79-0.79v-6.73C36.34,33.73,36.17,33.56,35.95,33.56"/>
		<path class="st25" d="M59.03,47.02h-4.48c-0.21,0-0.39-0.17-0.39-0.39V28c0-0.22,0.17-0.39,0.39-0.39h4.48
			c0.21,0,0.39,0.17,0.39,0.39v18.63C59.42,46.85,59.25,47.02,59.03,47.02"/>
		<path class="st25" d="M69.38,28v14.21c0,0.22,0.17,0.39,0.39,0.39h6.82c0.21,0,0.39,0.17,0.39,0.39v3.65
			c0,0.21-0.17,0.39-0.39,0.39h-12.1c-0.21,0-0.39-0.17-0.39-0.39V28c0-0.22,0.17-0.39,0.39-0.39h4.5
			C69.21,27.61,69.38,27.79,69.38,28"/>
		<path class="st25" d="M83.31,47.02h-4.92c-0.13,0-0.23-0.13-0.18-0.26l6.33-18.89c0.05-0.16,0.2-0.26,0.37-0.26h5.61
			c0.17,0,0.32,0.11,0.37,0.27l6.28,18.89c0.04,0.13-0.05,0.26-0.18,0.26h-4.98c-0.17,0-0.32-0.11-0.37-0.28l-0.84-2.84
			c-0.05-0.17-0.2-0.28-0.37-0.28h-5.53c-0.17,0-0.32,0.11-0.37,0.28l-0.84,2.84C83.63,46.91,83.48,47.02,83.31,47.02 M88.19,34.89
			c-0.17-0.63-0.43-1.71-0.51-2.11h-0.03c-0.11,0.43-0.31,1.28-0.54,2.11l-1.28,4.54h3.63L88.19,34.89z"/>
		<path class="st25" d="M97.87,27.62h15.11c0.22,0,0.4,0.18,0.4,0.4v3.72c0,0.22-0.18,0.4-0.4,0.4h-4.45c-0.22,0-0.4,0.18-0.4,0.4
			v14.5c0,0.22-0.18,0.4-0.4,0.4h-4.57c-0.22,0-0.4-0.18-0.4-0.4v-14.5c0-0.22-0.18-0.4-0.4-0.4h-4.51c-0.22,0-0.4-0.18-0.4-0.4
			v-3.72C97.48,27.79,97.65,27.62,97.87,27.62"/>
	</g>
</g>
<g id="Capa_6">
</g>
</svg>
