<?xml version="1.0" encoding="utf-8"?>
<!-- Generator: Adobe Illustrator 27.9.0, SVG Export Plug-In . SVG Version: 6.00 Build 0)  -->
<svg version="1.1" xmlns="http://www.w3.org/2000/svg" xmlns:xlink="http://www.w3.org/1999/xlink" x="0px" y="0px"
	 viewBox="0 0 126.08 75.06" style="enable-background:new 0 0 126.08 75.06;" xml:space="preserve">
<style type="text/css">
	.st0{fill:#F0F0F0;}
	.st1{display:none;}
	.st2{display:inline;fill:#1C1824;}
	.st3{fill:none;stroke:#D4D4D4;stroke-width:2.3506;stroke-miterlimit:10;}
	.st4{fill:none;stroke:#E3E3E3;stroke-width:0.5;stroke-miterlimit:10;}
	.st5{fill:none;stroke:#FFFFFE;stroke-width:0.8855;stroke-miterlimit:10;}
	.st6{fill:#FFFFFE;}
	.st7{fill:#16C0FE;}
	.st8{fill:#0000D7;}
	.st9{fill:#FFDE00;}
	.st10{fill:#6B6B6B;}
	.st11{fill:#696969;}
	.st12{fill:none;stroke:#474747;stroke-width:0.348;stroke-miterlimit:10;}
	.st13{fill:none;stroke:#474747;stroke-width:0.4442;stroke-miterlimit:10;}
	.st14{fill:none;stroke:#D2B356;stroke-width:5.9189;stroke-miterlimit:10;}
	.st15{fill:#D2B356;}
	.st16{fill:#FFFFFF;}
	.st17{fill:none;stroke:#000000;stroke-width:0.4956;stroke-miterlimit:10;}
	.st18{fill:none;stroke:#000000;stroke-width:1.6303;stroke-miterlimit:10;}
	.st19{fill:none;stroke:#A8A8A8;stroke-width:0.5;stroke-miterlimit:10;}
	.st20{display:inline;fill:none;stroke:#DBDBDB;stroke-width:0.4653;stroke-miterlimit:10;}
	.st21{fill:#303334;}
	.st22{clip-path:url(#SVGID_00000088111975889850963080000001502363012461341354_);fill:#B6B6B6;}
	.st23{fill-rule:evenodd;clip-rule:evenodd;fill:#303334;}
	.st24{fill:#262626;}
	.st25{fill:#424242;}
	.st26{fill:#595959;}
	.st27{fill:#A3A3A3;}
	.st28{fill:#606060;}
	.st29{fill:#848484;}
	.st30{fill:#040505;}
	.st31{fill-rule:evenodd;clip-rule:evenodd;fill:#2D2D2D;}
	.st32{fill-rule:evenodd;clip-rule:evenodd;fill:#989898;}
	.st33{fill:#4B4B4B;}
	.st34{fill:#373737;}
	.st35{fill:#1E1E1E;}
	.st36{clip-path:url(#SVGID_00000072279735939563821100000013013740406164414390_);}
	.st37{fill:#B29020;}
	.st38{clip-path:url(#SVGID_00000052812918247757054580000006850708936921514934_);}
	.st39{fill-rule:evenodd;clip-rule:evenodd;fill:#333333;}
	.st40{fill-rule:evenodd;clip-rule:evenodd;fill:#FFFFFF;}
	.st41{fill:#333333;}
	.st42{fill:#E3E3E3;}
	.st43{fill:#C7C7C7;}
	.st44{fill:#828282;}
	.st45{fill:#5D5D5D;}
	.st46{fill:#B7B7B7;}
	.st47{fill:#C1C1C1;}
	.st48{fill:#D9D9D9;}
	.st49{fill:#B2B2B2;}
	.st50{fill:#1D1D1D;}
	.st51{fill-rule:evenodd;clip-rule:evenodd;fill:#A8A8A8;}
	.st52{fill:#5C5C5C;}
	.st53{fill:#202020;}
	.st54{fill:#221F1F;}
	.st55{fill:#231F20;}
	.st56{fill:none;stroke:#221F1F;stroke-width:0.1371;}
	.st57{fill:#1D1D1B;}
	.st58{fill:#7A7A7A;}
	.st59{fill:none;stroke:#DBDBDB;stroke-width:0.4653;stroke-miterlimit:10;}
	.st60{clip-path:url(#SVGID_00000000921967756066830890000006222630747614488192_);fill:#B6B6B6;}
	.st61{clip-path:url(#SVGID_00000119106702940825645620000002351933723757993371_);}
	.st62{clip-path:url(#SVGID_00000025424414708057384700000001720517029712423581_);}
	.st63{fill:#A0A0A0;}
	.st64{fill-rule:evenodd;clip-rule:evenodd;fill:#D2B356;}
	.st65{fill:#9E9E9E;}
	.st66{clip-path:url(#SVGID_00000153663275316694108220000018324355836679752079_);}
	.st67{clip-path:url(#SVGID_00000018935969477520412560000008161600338730834309_);}
	.st68{clip-path:url(#SVGID_00000172416117198225481910000009309532803230322834_);}
	.st69{fill:#212121;}
</style>
<g id="Capa_2">
</g>
<g id="Capa_7" class="st1">
</g>
<g id="Capa_1">
</g>
<g id="lineas-logos">
</g>
<g id="marco-logos" class="st1">
</g>
<g id="logos">
	<rect x="-0.08" y="-0.13" class="st59" width="126.08" height="75.06"/>
	<g>
		<path class="st54" d="M16.88,31.23c0-1.15,0.17-2.24,0.51-3.25c0.34-1.01,0.83-1.89,1.48-2.64c0.64-0.75,1.44-1.34,2.37-1.76
			c0.94-0.43,2-0.64,3.19-0.64c0.93,0,1.74,0.12,2.42,0.37c0.68,0.24,1.25,0.55,1.72,0.91c0.47,0.36,0.85,0.76,1.14,1.19
			c0.3,0.43,0.52,0.83,0.68,1.21c0.16,0.38,0.26,0.7,0.32,0.98c0.06,0.27,0.09,0.43,0.09,0.46h-0.98c-0.1-0.67-0.32-1.26-0.64-1.79
			c-0.33-0.53-0.73-0.97-1.22-1.34c-0.49-0.37-1.03-0.65-1.63-0.84c-0.6-0.19-1.23-0.29-1.9-0.29c-1.04,0-1.96,0.2-2.77,0.6
			c-0.81,0.4-1.5,0.94-2.06,1.61c-0.56,0.67-0.99,1.46-1.29,2.36c-0.3,0.9-0.44,1.86-0.44,2.89c0,1.02,0.15,1.98,0.44,2.89
			c0.3,0.9,0.72,1.69,1.29,2.36c0.56,0.67,1.25,1.21,2.06,1.61c0.81,0.4,1.74,0.6,2.77,0.6c0.77,0,1.49-0.16,2.16-0.48
			c0.67-0.32,1.26-0.74,1.76-1.27c0.5-0.53,0.91-1.13,1.21-1.82c0.3-0.69,0.48-1.4,0.52-2.14h0.98c-0.09,0.95-0.32,1.82-0.7,2.62
			c-0.38,0.8-0.86,1.49-1.44,2.08c-0.58,0.58-1.26,1.04-2.03,1.36c-0.77,0.33-1.59,0.49-2.46,0.49c-1.18,0-2.25-0.21-3.19-0.64
			c-0.94-0.43-1.73-1.02-2.37-1.76c-0.64-0.75-1.14-1.63-1.48-2.64C17.05,33.47,16.88,32.38,16.88,31.23z"/>
		<path class="st54" d="M32.75,33.45c0-0.81,0.11-1.58,0.34-2.3c0.23-0.72,0.57-1.35,1.01-1.9c0.44-0.55,0.99-0.98,1.64-1.3
			c0.65-0.32,1.4-0.48,2.24-0.48c0.84,0,1.59,0.16,2.24,0.48c0.65,0.32,1.2,0.75,1.64,1.3c0.44,0.55,0.78,1.18,1.01,1.9
			c0.23,0.72,0.34,1.48,0.34,2.3c0,0.81-0.11,1.58-0.34,2.31c-0.23,0.73-0.57,1.36-1.01,1.9c-0.44,0.54-0.99,0.97-1.64,1.29
			c-0.65,0.32-1.4,0.48-2.24,0.48c-0.84,0-1.59-0.16-2.24-0.48c-0.65-0.32-1.2-0.75-1.64-1.29c-0.44-0.54-0.78-1.17-1.01-1.9
			C32.86,35.03,32.75,34.26,32.75,33.45z M33.59,33.45c0,0.68,0.1,1.34,0.29,1.96c0.19,0.63,0.47,1.19,0.84,1.68
			c0.37,0.49,0.83,0.88,1.38,1.17c0.55,0.29,1.18,0.43,1.89,0.43c0.71,0,1.34-0.14,1.89-0.43c0.55-0.29,1.01-0.68,1.38-1.17
			c0.37-0.49,0.65-1.05,0.84-1.68c0.19-0.63,0.29-1.28,0.29-1.96c0-0.68-0.1-1.34-0.29-1.96c-0.19-0.63-0.47-1.19-0.84-1.68
			c-0.37-0.49-0.83-0.88-1.38-1.17c-0.55-0.29-1.18-0.43-1.89-0.43c-0.71,0-1.34,0.14-1.89,0.43c-0.55,0.29-1.01,0.68-1.38,1.17
			c-0.37,0.49-0.65,1.05-0.84,1.68C33.69,32.11,33.59,32.77,33.59,33.45z M39.74,22.95h1.13l-2.97,3.11h-0.82L39.74,22.95z"/>
		<path class="st54" d="M54.35,36.71H54.3c-0.47,0.9-1.07,1.58-1.78,2.03c-0.71,0.45-1.58,0.68-2.6,0.68c-0.86,0-1.6-0.16-2.22-0.49
			c-0.62-0.33-1.13-0.76-1.53-1.31c-0.4-0.55-0.7-1.18-0.89-1.9C45.1,35,45,34.25,45,33.47c0-0.84,0.1-1.63,0.31-2.36
			c0.21-0.73,0.52-1.37,0.94-1.9c0.42-0.53,0.95-0.95,1.59-1.27c0.64-0.31,1.38-0.47,2.24-0.47c0.46,0,0.91,0.06,1.35,0.19
			c0.44,0.13,0.85,0.31,1.23,0.54c0.38,0.24,0.71,0.53,0.99,0.89c0.28,0.36,0.5,0.75,0.64,1.2h0.04V23.3h0.84v15.85h-0.84V36.71z
			 M50.11,38.69c0.72,0,1.35-0.15,1.88-0.44c0.53-0.3,0.96-0.69,1.31-1.18c0.35-0.49,0.61-1.05,0.78-1.68
			c0.17-0.63,0.26-1.27,0.26-1.92c0-0.67-0.09-1.31-0.26-1.94c-0.17-0.63-0.43-1.19-0.77-1.69c-0.34-0.5-0.78-0.89-1.32-1.19
			c-0.54-0.3-1.17-0.44-1.9-0.44c-0.75,0-1.4,0.14-1.93,0.43c-0.53,0.29-0.97,0.68-1.32,1.17c-0.35,0.49-0.6,1.05-0.75,1.69
			c-0.16,0.64-0.23,1.3-0.23,1.98c0,0.67,0.08,1.31,0.26,1.94c0.17,0.63,0.43,1.19,0.78,1.68c0.35,0.49,0.79,0.88,1.32,1.17
			C48.73,38.54,49.37,38.69,50.11,38.69z"/>
		<path class="st54" d="M58.41,25.59V23.3h0.84v2.29H58.41z M58.41,39.15V27.74h0.84v11.41H58.41z"/>
		<path class="st54" d="M71.68,27.74v10.81c0,0.64-0.07,1.25-0.22,1.85c-0.15,0.6-0.4,1.13-0.76,1.59c-0.36,0.46-0.86,0.82-1.49,1.1
			c-0.63,0.27-1.44,0.41-2.41,0.41c-0.61,0-1.17-0.06-1.7-0.19c-0.53-0.13-1-0.33-1.4-0.6c-0.4-0.27-0.72-0.64-0.96-1.09
			c-0.24-0.45-0.38-1.01-0.41-1.68h0.84c0.04,0.5,0.17,0.93,0.38,1.29c0.21,0.36,0.48,0.65,0.81,0.88c0.33,0.23,0.71,0.4,1.12,0.5
			c0.41,0.1,0.86,0.16,1.33,0.16c0.78,0,1.44-0.12,1.96-0.36c0.52-0.24,0.94-0.54,1.25-0.92s0.53-0.81,0.65-1.29
			c0.13-0.48,0.19-0.97,0.19-1.45v-2.62h-0.04c-0.4,0.84-0.94,1.49-1.63,1.93s-1.52,0.67-2.5,0.67c-0.84,0-1.57-0.14-2.19-0.43
			c-0.61-0.29-1.12-0.69-1.53-1.2c-0.41-0.51-0.71-1.11-0.91-1.79c-0.2-0.68-0.3-1.42-0.3-2.22c0-0.75,0.11-1.47,0.32-2.15
			c0.21-0.68,0.53-1.28,0.94-1.79c0.41-0.51,0.93-0.92,1.54-1.22c0.61-0.3,1.32-0.46,2.12-0.46c0.9,0,1.73,0.23,2.5,0.69
			c0.76,0.46,1.31,1.11,1.63,1.95h0.04v-2.37H71.68z M66.69,28.21c-0.7,0-1.3,0.14-1.81,0.42c-0.51,0.28-0.93,0.65-1.27,1.11
			c-0.33,0.46-0.58,0.98-0.75,1.56c-0.17,0.58-0.26,1.18-0.26,1.79c0,0.67,0.09,1.3,0.26,1.9c0.17,0.6,0.43,1.12,0.78,1.56
			c0.35,0.44,0.78,0.8,1.29,1.05c0.51,0.26,1.1,0.39,1.76,0.39c0.7,0,1.3-0.13,1.82-0.4c0.52-0.27,0.95-0.63,1.3-1.09
			c0.35-0.46,0.61-0.98,0.78-1.56c0.17-0.58,0.26-1.2,0.26-1.85c0-0.64-0.09-1.25-0.26-1.84c-0.17-0.59-0.43-1.11-0.78-1.56
			c-0.35-0.45-0.78-0.81-1.3-1.08C67.99,28.34,67.38,28.21,66.69,28.21z"/>
		<path class="st54" d="M73.99,33.45c0-0.81,0.11-1.58,0.34-2.3c0.23-0.72,0.57-1.35,1.01-1.9c0.44-0.55,0.99-0.98,1.64-1.3
			c0.65-0.32,1.4-0.48,2.24-0.48c0.84,0,1.59,0.16,2.24,0.48c0.65,0.32,1.2,0.75,1.64,1.3c0.44,0.55,0.78,1.18,1.01,1.9
			c0.23,0.72,0.34,1.48,0.34,2.3c0,0.81-0.11,1.58-0.34,2.31c-0.23,0.73-0.57,1.36-1.01,1.9c-0.44,0.54-0.99,0.97-1.64,1.29
			c-0.65,0.32-1.4,0.48-2.24,0.48c-0.84,0-1.59-0.16-2.24-0.48c-0.65-0.32-1.2-0.75-1.64-1.29c-0.44-0.54-0.78-1.17-1.01-1.9
			C74.1,35.03,73.99,34.26,73.99,33.45z M74.83,33.45c0,0.68,0.1,1.34,0.29,1.96c0.19,0.63,0.47,1.19,0.84,1.68
			c0.37,0.49,0.83,0.88,1.38,1.17c0.55,0.29,1.18,0.43,1.89,0.43c0.71,0,1.34-0.14,1.89-0.43c0.55-0.29,1.01-0.68,1.38-1.17
			c0.37-0.49,0.65-1.05,0.84-1.68c0.19-0.63,0.29-1.28,0.29-1.96c0-0.68-0.1-1.34-0.29-1.96c-0.19-0.63-0.47-1.19-0.84-1.68
			c-0.37-0.49-0.83-0.88-1.38-1.17s-1.18-0.43-1.89-0.43c-0.71,0-1.34,0.14-1.89,0.43c-0.55,0.29-1.01,0.68-1.38,1.17
			c-0.37,0.49-0.65,1.05-0.84,1.68C74.93,32.11,74.83,32.77,74.83,33.45z"/>
		<path class="st54" d="M90.91,23.3v15.85h-3.48V23.3H90.91z"/>
		<path class="st54" d="M97.77,23.3l6.61,10.63h0.04V23.3h3.26v15.85h-3.48l-6.59-10.61h-0.04v10.61H94.3V23.3H97.77z"/>
		<g>
			<path class="st55" d="M18.99,52.29c-0.05-0.09-0.12-0.17-0.2-0.23c-0.08-0.06-0.16-0.11-0.26-0.14c-0.09-0.03-0.19-0.05-0.3-0.05
				c-0.19,0-0.35,0.04-0.49,0.11c-0.14,0.08-0.25,0.18-0.33,0.3c-0.09,0.13-0.15,0.27-0.19,0.42c-0.04,0.16-0.06,0.32-0.06,0.49
				c0,0.16,0.02,0.32,0.06,0.48c0.04,0.16,0.11,0.3,0.19,0.43c0.09,0.13,0.2,0.23,0.33,0.3c0.14,0.08,0.3,0.11,0.49,0.11
				c0.13,0,0.25-0.03,0.36-0.08c0.11-0.05,0.2-0.12,0.28-0.21c0.08-0.09,0.14-0.19,0.19-0.31c0.05-0.12,0.08-0.24,0.09-0.38h0.27
				c-0.02,0.19-0.06,0.35-0.12,0.5c-0.06,0.15-0.15,0.28-0.25,0.38c-0.1,0.1-0.22,0.18-0.36,0.24c-0.14,0.06-0.29,0.08-0.46,0.08
				c-0.22,0-0.42-0.04-0.59-0.13c-0.17-0.09-0.31-0.2-0.42-0.34c-0.11-0.14-0.2-0.31-0.25-0.5c-0.06-0.19-0.08-0.39-0.08-0.59
				c0-0.21,0.03-0.41,0.08-0.6c0.06-0.19,0.14-0.36,0.25-0.5c0.11-0.14,0.25-0.26,0.42-0.35c0.17-0.09,0.36-0.13,0.59-0.13
				c0.14,0,0.27,0.02,0.4,0.06c0.13,0.04,0.25,0.1,0.35,0.19c0.1,0.08,0.19,0.19,0.26,0.31c0.07,0.12,0.11,0.26,0.13,0.42h-0.27
				C19.09,52.48,19.05,52.38,18.99,52.29z"/>
			<path class="st55" d="M21.11,52.6c0.06-0.19,0.14-0.36,0.25-0.5c0.11-0.14,0.25-0.26,0.42-0.35c0.17-0.09,0.36-0.13,0.59-0.13
				c0.22,0,0.42,0.04,0.59,0.13c0.17,0.09,0.31,0.2,0.42,0.35c0.11,0.15,0.2,0.31,0.25,0.5c0.06,0.19,0.08,0.39,0.08,0.6
				c0,0.21-0.03,0.41-0.08,0.59c-0.06,0.19-0.14,0.35-0.25,0.5c-0.11,0.14-0.25,0.26-0.42,0.34c-0.17,0.09-0.36,0.13-0.59,0.13
				c-0.22,0-0.42-0.04-0.59-0.13c-0.17-0.09-0.31-0.2-0.42-0.34c-0.11-0.14-0.2-0.31-0.25-0.5c-0.06-0.19-0.08-0.39-0.08-0.59
				C21.02,52.99,21.05,52.79,21.11,52.6z M21.36,53.68c0.04,0.16,0.11,0.3,0.19,0.43c0.09,0.13,0.2,0.23,0.33,0.3
				c0.14,0.08,0.3,0.11,0.49,0.11c0.19,0,0.35-0.04,0.48-0.11c0.13-0.08,0.24-0.18,0.33-0.3c0.09-0.13,0.15-0.27,0.19-0.43
				c0.04-0.16,0.06-0.32,0.06-0.48c0-0.17-0.02-0.33-0.06-0.49s-0.11-0.3-0.19-0.42c-0.09-0.13-0.2-0.23-0.33-0.3
				c-0.13-0.08-0.3-0.11-0.48-0.11c-0.19,0-0.35,0.04-0.49,0.11c-0.14,0.08-0.25,0.18-0.33,0.3c-0.09,0.13-0.15,0.27-0.19,0.42
				s-0.06,0.32-0.06,0.49C21.29,53.36,21.31,53.52,21.36,53.68z M22.13,51.45l0.42-0.6h0.31l-0.53,0.6H22.13z"/>
			<path class="st55" d="M26.45,51.69c0.43,0.01,0.76,0.14,0.98,0.39c0.22,0.25,0.33,0.62,0.33,1.12c0,0.5-0.11,0.87-0.33,1.12
				c-0.22,0.25-0.55,0.38-0.98,0.39h-0.98v-3.01H26.45z M26.32,54.46c0.2,0,0.38-0.02,0.53-0.07c0.15-0.05,0.27-0.12,0.36-0.22
				c0.1-0.1,0.17-0.23,0.21-0.39c0.05-0.16,0.07-0.35,0.07-0.58c0-0.23-0.02-0.42-0.07-0.58c-0.05-0.16-0.12-0.29-0.21-0.39
				c-0.1-0.1-0.22-0.18-0.36-0.22c-0.15-0.05-0.32-0.07-0.53-0.07h-0.58v2.52H26.32z"/>
			<path class="st55" d="M29.83,51.69v3.01h-0.27v-3.01H29.83z"/>
			<path class="st55" d="M34,54.7l-0.04-0.55h-0.01c-0.05,0.11-0.11,0.2-0.18,0.28c-0.07,0.08-0.15,0.14-0.23,0.19
				c-0.08,0.05-0.18,0.09-0.27,0.11c-0.1,0.02-0.2,0.03-0.3,0.03c-0.22,0-0.42-0.04-0.59-0.13c-0.17-0.09-0.31-0.2-0.42-0.34
				c-0.11-0.14-0.2-0.31-0.25-0.5c-0.06-0.19-0.08-0.39-0.08-0.59c0-0.21,0.03-0.41,0.08-0.6c0.06-0.19,0.14-0.36,0.25-0.5
				c0.11-0.14,0.25-0.26,0.42-0.35c0.17-0.09,0.36-0.13,0.59-0.13c0.15,0,0.29,0.02,0.42,0.06c0.13,0.04,0.25,0.11,0.35,0.19
				c0.1,0.08,0.19,0.19,0.26,0.31c0.07,0.12,0.12,0.27,0.15,0.43h-0.27c-0.01-0.09-0.04-0.17-0.08-0.26
				c-0.05-0.09-0.11-0.17-0.19-0.24c-0.08-0.07-0.17-0.13-0.28-0.18c-0.11-0.05-0.23-0.07-0.37-0.07c-0.19,0-0.35,0.04-0.49,0.11
				c-0.14,0.08-0.25,0.18-0.33,0.3c-0.09,0.13-0.15,0.27-0.19,0.42c-0.04,0.16-0.06,0.32-0.06,0.49c0,0.16,0.02,0.32,0.06,0.48
				c0.04,0.16,0.11,0.3,0.19,0.43c0.09,0.13,0.2,0.23,0.33,0.3c0.14,0.08,0.3,0.11,0.49,0.11c0.16,0,0.3-0.03,0.42-0.08
				c0.12-0.06,0.23-0.13,0.31-0.23c0.08-0.1,0.15-0.22,0.19-0.35c0.04-0.13,0.06-0.28,0.06-0.44h-0.97v-0.24h1.21v1.53H34z"/>
			<path class="st55" d="M35.99,52.6c0.06-0.19,0.14-0.36,0.25-0.5c0.11-0.14,0.25-0.26,0.42-0.35c0.17-0.09,0.36-0.13,0.59-0.13
				c0.22,0,0.42,0.04,0.59,0.13c0.17,0.09,0.31,0.2,0.42,0.35c0.11,0.15,0.2,0.31,0.25,0.5c0.06,0.19,0.08,0.39,0.08,0.6
				c0,0.21-0.03,0.41-0.08,0.59s-0.14,0.35-0.25,0.5c-0.11,0.14-0.25,0.26-0.42,0.34c-0.17,0.09-0.36,0.13-0.59,0.13
				c-0.22,0-0.42-0.04-0.59-0.13c-0.17-0.09-0.31-0.2-0.42-0.34c-0.11-0.14-0.2-0.31-0.25-0.5c-0.06-0.19-0.08-0.39-0.08-0.59
				C35.9,52.99,35.93,52.79,35.99,52.6z M36.24,53.68c0.04,0.16,0.11,0.3,0.19,0.43c0.09,0.13,0.2,0.23,0.33,0.3
				c0.14,0.08,0.3,0.11,0.49,0.11c0.19,0,0.35-0.04,0.48-0.11c0.13-0.08,0.24-0.18,0.33-0.3c0.09-0.13,0.15-0.27,0.19-0.43
				c0.04-0.16,0.06-0.32,0.06-0.48c0-0.17-0.02-0.33-0.06-0.49c-0.04-0.16-0.11-0.3-0.19-0.42c-0.09-0.13-0.2-0.23-0.33-0.3
				c-0.13-0.08-0.3-0.11-0.48-0.11c-0.19,0-0.35,0.04-0.49,0.11c-0.14,0.08-0.25,0.18-0.33,0.3c-0.09,0.13-0.15,0.27-0.19,0.42
				s-0.06,0.32-0.06,0.49C36.17,53.36,36.19,53.52,36.24,53.68z"/>
			<path class="st55" d="M43.09,51.69v3.01h-0.27v-3.01H43.09z"/>
			<path class="st55" d="M45.32,51.69l1.66,2.55h0.01v-2.55h0.27v3.01h-0.3l-1.66-2.55h-0.01v2.55h-0.27v-3.01H45.32z"/>
			<path class="st55" d="M49.56,51.69l0.94,2.64l0.98-2.64h0.4v3.01h-0.27v-2.6H51.6l-0.97,2.6h-0.26l-0.94-2.6h-0.01v2.6h-0.27
				v-3.01H49.56z"/>
			<path class="st55" d="M53.71,52.6c0.06-0.19,0.14-0.36,0.25-0.5c0.11-0.14,0.25-0.26,0.42-0.35c0.17-0.09,0.36-0.13,0.59-0.13
				c0.22,0,0.42,0.04,0.59,0.13c0.17,0.09,0.31,0.2,0.42,0.35c0.11,0.15,0.2,0.31,0.25,0.5c0.06,0.19,0.08,0.39,0.08,0.6
				c0,0.21-0.03,0.41-0.08,0.59s-0.14,0.35-0.25,0.5c-0.11,0.14-0.25,0.26-0.42,0.34c-0.17,0.09-0.36,0.13-0.59,0.13
				c-0.22,0-0.42-0.04-0.59-0.13c-0.17-0.09-0.31-0.2-0.42-0.34c-0.11-0.14-0.2-0.31-0.25-0.5c-0.06-0.19-0.08-0.39-0.08-0.59
				C53.63,52.99,53.65,52.79,53.71,52.6z M53.96,53.68c0.04,0.16,0.11,0.3,0.19,0.43c0.09,0.13,0.2,0.23,0.33,0.3
				c0.14,0.08,0.3,0.11,0.49,0.11c0.19,0,0.35-0.04,0.48-0.11c0.13-0.08,0.24-0.18,0.33-0.3c0.09-0.13,0.15-0.27,0.19-0.43
				c0.04-0.16,0.06-0.32,0.06-0.48c0-0.17-0.02-0.33-0.06-0.49s-0.11-0.3-0.19-0.42c-0.09-0.13-0.2-0.23-0.33-0.3
				c-0.13-0.08-0.3-0.11-0.48-0.11c-0.19,0-0.35,0.04-0.49,0.11c-0.14,0.08-0.25,0.18-0.33,0.3c-0.09,0.13-0.15,0.27-0.19,0.42
				s-0.06,0.32-0.06,0.49C53.9,53.36,53.92,53.52,53.96,53.68z"/>
			<path class="st55" d="M59.27,51.69c0.12,0,0.23,0.01,0.34,0.04c0.11,0.02,0.21,0.06,0.29,0.12c0.08,0.06,0.15,0.13,0.2,0.23
				c0.05,0.09,0.08,0.21,0.08,0.35c0,0.08-0.01,0.16-0.04,0.23c-0.02,0.07-0.06,0.14-0.1,0.2c-0.04,0.06-0.1,0.11-0.16,0.15
				c-0.06,0.04-0.13,0.07-0.2,0.09v0.01c0.18,0.03,0.33,0.11,0.44,0.24c0.11,0.13,0.16,0.3,0.16,0.5c0,0.05,0,0.1-0.01,0.16
				c-0.01,0.06-0.02,0.12-0.05,0.19c-0.02,0.06-0.06,0.13-0.1,0.19c-0.05,0.06-0.11,0.12-0.18,0.16c-0.08,0.05-0.17,0.08-0.28,0.11
				c-0.11,0.03-0.24,0.04-0.4,0.04h-1.2v-3.01H59.27z M59.27,53.01c0.11,0,0.2-0.01,0.28-0.04c0.08-0.03,0.15-0.06,0.2-0.11
				c0.05-0.05,0.09-0.1,0.12-0.16s0.04-0.13,0.04-0.2c0-0.38-0.21-0.57-0.64-0.57h-0.93v1.08H59.27z M59.27,54.46
				c0.1,0,0.2-0.01,0.29-0.03c0.09-0.02,0.17-0.05,0.24-0.1c0.07-0.05,0.12-0.11,0.16-0.19c0.04-0.08,0.06-0.18,0.06-0.3
				c0-0.19-0.06-0.34-0.19-0.44c-0.13-0.1-0.31-0.15-0.56-0.15h-0.93v1.2H59.27z"/>
			<path class="st55" d="M62.36,51.69v3.01h-0.27v-3.01H62.36z"/>
			<path class="st55" d="M64.56,51.69v2.77h1.59v0.24h-1.87v-3.01H64.56z"/>
			<path class="st55" d="M68.06,51.69v3.01h-0.27v-3.01H68.06z"/>
			<path class="st55" d="M71.13,51.69l1.12,3.01h-0.29l-0.35-0.94h-1.3l-0.34,0.94h-0.29l1.14-3.01H71.13z M71.52,53.52l-0.55-1.54
				l-0.57,1.54H71.52z"/>
			<path class="st55" d="M75.15,51.69c0.12,0,0.23,0.02,0.33,0.05c0.1,0.03,0.2,0.08,0.28,0.14c0.08,0.06,0.14,0.15,0.19,0.24
				c0.05,0.1,0.07,0.22,0.07,0.35c0,0.19-0.05,0.36-0.14,0.5c-0.09,0.14-0.23,0.23-0.41,0.27v0.01c0.09,0.01,0.17,0.04,0.23,0.08
				s0.11,0.09,0.15,0.15c0.04,0.06,0.07,0.13,0.08,0.2c0.02,0.08,0.03,0.16,0.03,0.25c0,0.05,0.01,0.11,0.01,0.19
				c0,0.07,0.01,0.15,0.02,0.22c0.01,0.07,0.02,0.15,0.04,0.21c0.02,0.07,0.04,0.12,0.07,0.15h-0.3c-0.02-0.03-0.03-0.06-0.04-0.1
				c-0.01-0.04-0.02-0.08-0.02-0.13c0-0.04-0.01-0.09-0.01-0.13c0-0.04-0.01-0.08-0.01-0.11c-0.01-0.11-0.01-0.21-0.03-0.32
				c-0.01-0.11-0.04-0.2-0.08-0.28c-0.04-0.08-0.09-0.15-0.17-0.2c-0.07-0.05-0.17-0.07-0.3-0.07h-1.03v1.34h-0.27v-3.01H75.15z
				 M75.13,53.12c0.08,0,0.16-0.01,0.24-0.04c0.07-0.03,0.14-0.07,0.2-0.12c0.06-0.05,0.1-0.11,0.13-0.18
				c0.03-0.07,0.05-0.15,0.05-0.25c0-0.19-0.05-0.33-0.15-0.44c-0.1-0.11-0.26-0.16-0.46-0.16h-1.01v1.19H75.13z"/>
			<path class="st55" d="M78.14,51.69v3.01h-0.27v-3.01H78.14z"/>
			<path class="st55" d="M80,52.6c0.06-0.19,0.14-0.36,0.25-0.5c0.11-0.14,0.25-0.26,0.42-0.35c0.17-0.09,0.36-0.13,0.59-0.13
				c0.22,0,0.42,0.04,0.59,0.13c0.17,0.09,0.31,0.2,0.42,0.35c0.11,0.15,0.2,0.31,0.25,0.5c0.06,0.19,0.08,0.39,0.08,0.6
				c0,0.21-0.03,0.41-0.08,0.59c-0.06,0.19-0.14,0.35-0.25,0.5c-0.11,0.14-0.25,0.26-0.42,0.34c-0.17,0.09-0.36,0.13-0.59,0.13
				c-0.22,0-0.42-0.04-0.59-0.13c-0.17-0.09-0.31-0.2-0.42-0.34c-0.11-0.14-0.2-0.31-0.25-0.5c-0.06-0.19-0.08-0.39-0.08-0.59
				C79.92,52.99,79.95,52.79,80,52.6z M80.25,53.68c0.04,0.16,0.11,0.3,0.19,0.43c0.09,0.13,0.2,0.23,0.33,0.3
				c0.14,0.08,0.3,0.11,0.49,0.11c0.19,0,0.35-0.04,0.48-0.11c0.13-0.08,0.24-0.18,0.33-0.3c0.09-0.13,0.15-0.27,0.19-0.43
				c0.04-0.16,0.06-0.32,0.06-0.48c0-0.17-0.02-0.33-0.06-0.49s-0.11-0.3-0.19-0.42c-0.09-0.13-0.2-0.23-0.33-0.3
				c-0.13-0.08-0.3-0.11-0.48-0.11c-0.19,0-0.35,0.04-0.49,0.11s-0.25,0.18-0.33,0.3c-0.09,0.13-0.15,0.27-0.19,0.42
				s-0.06,0.32-0.06,0.49C80.19,53.36,80.21,53.52,80.25,53.68z"/>
		</g>
		<line class="st56" x1="87.46" y1="43.04" x2="87.46" y2="54.9"/>
		<line class="st56" x1="90.86" y1="43.04" x2="90.86" y2="54.9"/>
		<line class="st56" x1="96.59" y1="43.04" x2="96.59" y2="54.9"/>
		<line class="st56" x1="98.8" y1="43.04" x2="98.8" y2="54.9"/>
		<line class="st56" x1="107.62" y1="43.04" x2="107.62" y2="54.9"/>
		<line class="st56" x1="105.42" y1="43.04" x2="105.42" y2="54.9"/>
		<line class="st56" x1="103.21" y1="43.04" x2="103.21" y2="54.9"/>
		<line class="st56" x1="101" y1="43.04" x2="101" y2="54.9"/>
		<line class="st56" x1="94.38" y1="43.04" x2="94.38" y2="54.9"/>
	</g>
</g>
<g id="Capa_6">
</g>
</svg>
