<?xml version="1.0" encoding="utf-8"?>
<!-- Generator: Adobe Illustrator 27.9.0, SVG Export Plug-In . SVG Version: 6.00 Build 0)  -->
<svg version="1.1" xmlns="http://www.w3.org/2000/svg" xmlns:xlink="http://www.w3.org/1999/xlink" x="0px" y="0px"
	 viewBox="0 0 126.08 75.06" style="enable-background:new 0 0 126.08 75.06;" xml:space="preserve">
<style type="text/css">
	.st0{fill:#F0F0F0;}
	.st1{display:none;}
	.st2{display:inline;fill:#1C1824;}
	.st3{fill:none;stroke:#D4D4D4;stroke-width:2.3506;stroke-miterlimit:10;}
	.st4{fill:none;stroke:#E3E3E3;stroke-width:0.5;stroke-miterlimit:10;}
	.st5{fill:none;stroke:#FFFFFE;stroke-width:0.8855;stroke-miterlimit:10;}
	.st6{fill:#FFFFFE;}
	.st7{fill:#16C0FE;}
	.st8{fill:#0000D7;}
	.st9{fill:#FFDE00;}
	.st10{fill:#6B6B6B;}
	.st11{fill:#696969;}
	.st12{fill:none;stroke:#474747;stroke-width:0.348;stroke-miterlimit:10;}
	.st13{fill:none;stroke:#474747;stroke-width:0.4442;stroke-miterlimit:10;}
	.st14{fill:none;stroke:#D2B356;stroke-width:5.9189;stroke-miterlimit:10;}
	.st15{fill:#D2B356;}
	.st16{fill:#FFFFFF;}
	.st17{fill:none;stroke:#000000;stroke-width:0.4956;stroke-miterlimit:10;}
	.st18{fill:none;stroke:#000000;stroke-width:1.6303;stroke-miterlimit:10;}
	.st19{fill:none;stroke:#A8A8A8;stroke-width:0.5;stroke-miterlimit:10;}
	.st20{display:inline;fill:none;stroke:#DBDBDB;stroke-width:0.4653;stroke-miterlimit:10;}
	.st21{fill:#303334;}
	.st22{clip-path:url(#SVGID_00000009585192297319636860000010747240249539939760_);fill:#B6B6B6;}
	.st23{fill-rule:evenodd;clip-rule:evenodd;fill:#303334;}
	.st24{fill:#262626;}
	.st25{fill:#424242;}
	.st26{fill:#595959;}
	.st27{fill:#A3A3A3;}
	.st28{fill:#606060;}
	.st29{fill:#848484;}
	.st30{fill:#040505;}
	.st31{fill-rule:evenodd;clip-rule:evenodd;fill:#2D2D2D;}
	.st32{fill-rule:evenodd;clip-rule:evenodd;fill:#989898;}
	.st33{fill:#4B4B4B;}
	.st34{fill:#373737;}
	.st35{fill:#1E1E1E;}
	.st36{clip-path:url(#SVGID_00000180330640413684724820000000602252687270849425_);}
	.st37{fill:#B29020;}
	.st38{clip-path:url(#SVGID_00000038410894333969602850000005307784643578198948_);}
	.st39{fill-rule:evenodd;clip-rule:evenodd;fill:#333333;}
	.st40{fill-rule:evenodd;clip-rule:evenodd;fill:#FFFFFF;}
	.st41{fill:#333333;}
	.st42{fill:#E3E3E3;}
	.st43{fill:#C7C7C7;}
	.st44{fill:#828282;}
	.st45{fill:#5D5D5D;}
	.st46{fill:#B7B7B7;}
	.st47{fill:#C1C1C1;}
	.st48{fill:#D9D9D9;}
	.st49{fill:#B2B2B2;}
	.st50{fill:#1D1D1D;}
	.st51{fill-rule:evenodd;clip-rule:evenodd;fill:#A8A8A8;}
	.st52{fill:#5C5C5C;}
	.st53{fill:#202020;}
	.st54{fill:#221F1F;}
	.st55{fill:#231F20;}
	.st56{fill:none;stroke:#221F1F;stroke-width:0.1371;}
	.st57{fill:#1D1D1B;}
	.st58{fill:#7A7A7A;}
	.st59{fill:none;stroke:#DBDBDB;stroke-width:0.4653;stroke-miterlimit:10;}
	.st60{clip-path:url(#SVGID_00000114766547362976503100000013225693813719862666_);fill:#B6B6B6;}
	.st61{clip-path:url(#SVGID_00000129200679046651598910000006361306668456673183_);}
	.st62{clip-path:url(#SVGID_00000009566005413569246070000011389085875485804183_);}
	.st63{fill:#A0A0A0;}
	.st64{fill-rule:evenodd;clip-rule:evenodd;fill:#D2B356;}
	.st65{fill:#9E9E9E;}
	.st66{clip-path:url(#SVGID_00000042727949461131337440000005766845535401082269_);}
	.st67{clip-path:url(#SVGID_00000100384635818300847680000015299284562462153360_);}
	.st68{clip-path:url(#SVGID_00000180349863438109667840000017458140630340343213_);}
	.st69{fill:#212121;}
</style>
<g id="Capa_2">
</g>
<g id="Capa_7" class="st1">
</g>
<g id="Capa_1">
</g>
<g id="lineas-logos">
</g>
<g id="marco-logos" class="st1">
</g>
<g id="logos">
	<rect x="-0.29" class="st59" width="126.08" height="75.06"/>
	<g>
		<path class="st21" d="M19.66,42.6v0.66l-0.57,0.33l-0.57-0.33V42.6l0.57-0.33 M19.66,42.6L19.66,42.6l-0.57-0.33 M19.09,42.27
			l0.57,0.33 M19.09,46.24l3.43-1.98l1.14,0.66l-4.57,2.64l-4-2.31v-4.62l4-2.31l13.71,7.93l2.86-1.65v-3.3l-6.29-3.63l-2.29,1.32
			l6.29,3.63v0.66l-0.57,0.33l-0.01,0l-7.42-4.29l0-8.57l0.57-0.33l0.57,0.33v7.22l2.29-1.28v-7.25l-2.86-1.65l-2.86,1.65v8.56
			l-1.14-0.66v-8.56l4-2.31l4,2.31v7.25l2.29-1.32v-7.26l-6.29-3.63l-6.29,3.63v7.92L12.8,39.3v7.26l6.29,3.63l6.86-3.96l6.85,3.96
			l6.29-3.63V39.3l-6.29-3.63l-2.29,1.32l6.29,3.63v4.62l-4,2.31l-13.71-7.92l-2.86,1.65v3.3L19.09,46.24z"/>
		<polygon class="st21" points="46.59,30.49 49.48,30.49 49.48,40.89 54.57,40.89 54.57,43.56 46.59,43.56 		"/>
		<path class="st21" d="M63.66,42c-0.89,1.13-2.35,1.78-3.8,1.78c-2.78,0-5-1.85-5-4.72c0-2.87,2.22-4.72,5-4.72
			c2.59,0,4.22,1.85,4.22,4.72v0.87h-6.44c0.22,1.05,1.02,1.74,2.09,1.74c0.91,0,1.52-0.46,1.98-1.09L63.66,42z M61.31,38.04
			c0.02-0.93-0.7-1.7-1.7-1.7c-1.22,0-1.89,0.83-1.96,1.7H61.31z"/>
		<path class="st21" d="M74.29,43.56h-2.56v-1.19h-0.04c-0.43,0.65-1.5,1.41-2.76,1.41c-2.67,0-4.43-1.93-4.43-4.65
			c0-2.5,1.56-4.8,4.11-4.8c1.15,0,2.22,0.32,2.85,1.19h0.04v-5.03h2.78V43.56z M69.51,36.78c-1.39,0-2.22,0.93-2.22,2.28
			c0,1.35,0.83,2.28,2.22,2.28c1.39,0,2.22-0.93,2.22-2.28C71.73,37.7,70.9,36.78,69.51,36.78"/>
		<path class="st21" d="M83.61,42c-0.89,1.13-2.35,1.78-3.8,1.78c-2.78,0-5-1.85-5-4.72c0-2.87,2.22-4.72,5-4.72
			c2.59,0,4.22,1.85,4.22,4.72v0.87h-6.45c0.22,1.05,1.02,1.74,2.09,1.74c0.91,0,1.52-0.46,1.98-1.09L83.61,42z M81.26,38.04
			c0.02-0.93-0.7-1.7-1.7-1.7c-1.22,0-1.89,0.83-1.96,1.7H81.26z"/>
		<path class="st21" d="M89.89,37.2c-0.41-0.5-0.94-0.76-1.61-0.76c-0.46,0-1.02,0.2-1.02,0.74c0,1.33,4.68,0.21,4.68,3.63
			c0,2.3-2.22,2.96-4.15,2.96c-1.26,0-2.65-0.31-3.54-1.22l1.68-1.87c0.52,0.63,1.13,0.98,1.96,0.98c0.63,0,1.26-0.17,1.26-0.65
			c0-1.44-4.68-0.22-4.68-3.65c0-2.11,1.89-3.04,3.78-3.04c1.19,0,2.5,0.3,3.33,1.18L89.89,37.2z"/>
		<path class="st21" d="M92.57,34.56h2.67v1.22h0.04c0.37-0.7,1.28-1.44,2.63-1.44c1.26,0,2.3,0.52,2.78,1.61
			c0.65-1.15,1.52-1.61,2.85-1.61c2.44,0,3.19,1.72,3.19,3.91v5.32h-2.78v-5.24c0-0.83-0.31-1.54-1.22-1.54
			c-1.28,0-1.69,0.91-1.69,2.02v4.76h-2.78V38.8c0-0.67,0.04-2.02-1.24-2.02c-1.44,0-1.67,1.13-1.67,2.3v4.48h-2.78V34.56z"/>
		<path class="st21" d="M113.36,42.43h-0.04c-0.61,0.96-1.72,1.35-2.85,1.35c-1.69,0-3.21-0.96-3.21-2.78
			c0-3.11,3.78-3.17,6.09-3.17c0-0.98-0.81-1.61-1.78-1.61c-0.91,0-1.67,0.41-2.26,1.07l-1.48-1.52c1.02-0.96,2.5-1.44,3.96-1.44
			c3.24,0,4.11,1.65,4.11,4.65v4.58h-2.56V42.43z M112.67,39.61c-0.85,0-2.74,0.07-2.74,1.3c0,0.67,0.7,0.98,1.32,0.98
			c1.09,0,2.11-0.57,2.11-1.69v-0.59H112.67z"/>
	</g>
</g>
<g id="Capa_6">
</g>
</svg>
