<?xml version="1.0" encoding="utf-8"?>
<!-- Generator: Adobe Illustrator 27.9.0, SVG Export Plug-In . SVG Version: 6.00 Build 0)  -->
<svg version="1.1" xmlns="http://www.w3.org/2000/svg" xmlns:xlink="http://www.w3.org/1999/xlink" x="0px" y="0px"
	 viewBox="0 0 126.08 75.06" style="enable-background:new 0 0 126.08 75.06;" xml:space="preserve">
<style type="text/css">
	.st0{fill:#F0F0F0;}
	.st1{display:none;}
	.st2{display:inline;fill:#1C1824;}
	.st3{fill:none;stroke:#D4D4D4;stroke-width:2.3506;stroke-miterlimit:10;}
	.st4{fill:none;stroke:#E3E3E3;stroke-width:0.5;stroke-miterlimit:10;}
	.st5{fill:none;stroke:#FFFFFE;stroke-width:0.8855;stroke-miterlimit:10;}
	.st6{fill:#FFFFFE;}
	.st7{fill:#16C0FE;}
	.st8{fill:#0000D7;}
	.st9{fill:#FFDE00;}
	.st10{fill:#6B6B6B;}
	.st11{fill:#696969;}
	.st12{fill:none;stroke:#474747;stroke-width:0.348;stroke-miterlimit:10;}
	.st13{fill:none;stroke:#474747;stroke-width:0.4442;stroke-miterlimit:10;}
	.st14{fill:none;stroke:#D2B356;stroke-width:5.9189;stroke-miterlimit:10;}
	.st15{fill:#D2B356;}
	.st16{fill:#FFFFFF;}
	.st17{fill:none;stroke:#000000;stroke-width:0.4956;stroke-miterlimit:10;}
	.st18{fill:none;stroke:#000000;stroke-width:1.6303;stroke-miterlimit:10;}
	.st19{fill:none;stroke:#A8A8A8;stroke-width:0.5;stroke-miterlimit:10;}
	.st20{display:inline;fill:none;stroke:#DBDBDB;stroke-width:0.4653;stroke-miterlimit:10;}
	.st21{fill:#303334;}
	.st22{clip-path:url(#SVGID_00000004541910832162486800000008180254687064277390_);fill:#B6B6B6;}
	.st23{fill-rule:evenodd;clip-rule:evenodd;fill:#303334;}
	.st24{fill:#262626;}
	.st25{fill:#424242;}
	.st26{fill:#595959;}
	.st27{fill:#A3A3A3;}
	.st28{fill:#606060;}
	.st29{fill:#848484;}
	.st30{fill:#040505;}
	.st31{fill-rule:evenodd;clip-rule:evenodd;fill:#2D2D2D;}
	.st32{fill-rule:evenodd;clip-rule:evenodd;fill:#989898;}
	.st33{fill:#4B4B4B;}
	.st34{fill:#373737;}
	.st35{fill:#1E1E1E;}
	.st36{clip-path:url(#SVGID_00000145755097502036097420000013390868384166480290_);}
	.st37{fill:#B29020;}
	.st38{clip-path:url(#SVGID_00000156546953589361686680000008051911019191045511_);}
	.st39{fill-rule:evenodd;clip-rule:evenodd;fill:#333333;}
	.st40{fill-rule:evenodd;clip-rule:evenodd;fill:#FFFFFF;}
	.st41{fill:#333333;}
	.st42{fill:#E3E3E3;}
	.st43{fill:#C7C7C7;}
	.st44{fill:#828282;}
	.st45{fill:#5D5D5D;}
	.st46{fill:#B7B7B7;}
	.st47{fill:#C1C1C1;}
	.st48{fill:#D9D9D9;}
	.st49{fill:#B2B2B2;}
	.st50{fill:#1D1D1D;}
	.st51{fill-rule:evenodd;clip-rule:evenodd;fill:#A8A8A8;}
	.st52{fill:#5C5C5C;}
	.st53{fill:#202020;}
	.st54{fill:#221F1F;}
	.st55{fill:#231F20;}
	.st56{fill:none;stroke:#221F1F;stroke-width:0.1371;}
	.st57{fill:#1D1D1B;}
	.st58{fill:#7A7A7A;}
	.st59{fill:none;stroke:#DBDBDB;stroke-width:0.4653;stroke-miterlimit:10;}
	.st60{clip-path:url(#SVGID_00000174568357191477085880000012052291950495962244_);fill:#B6B6B6;}
	.st61{clip-path:url(#SVGID_00000012447665972439293780000005771076452076406458_);}
	.st62{clip-path:url(#SVGID_00000052826876325478553560000017672922814038186376_);}
	.st63{fill:#A0A0A0;}
	.st64{fill-rule:evenodd;clip-rule:evenodd;fill:#D2B356;}
	.st65{fill:#9E9E9E;}
	.st66{clip-path:url(#SVGID_00000146486738204379730120000000296270959395959740_);}
	.st67{clip-path:url(#SVGID_00000154404819179788359400000008131976313079356349_);}
	.st68{clip-path:url(#SVGID_00000004514609709487108520000010601536261785879173_);}
	.st69{fill:#212121;}
</style>
<g id="Capa_2">
</g>
<g id="Capa_7" class="st1">
</g>
<g id="Capa_1">
</g>
<g id="lineas-logos">
</g>
<g id="marco-logos" class="st1">
</g>
<g id="logos">
	<rect x="0.02" y="-0.42" class="st59" width="126.08" height="75.06"/>
	<g>
		<path class="st21" d="M60.48,36.52c-0.37,0-0.63,0.03-0.77,0.07c-0.25,0.07-0.37,0.2-0.37,0.4v1.32
			c-0.37,0.01-0.63,0.02-0.79,0.03c-0.23,0.02-0.54,0.06-0.94,0.13c-0.67,0.11-1.22,0.17-1.63,0.17c-1.23,0-2.25-0.23-3.08-0.69
			c-0.86-0.47-1.28-1.08-1.28-1.82c0-0.74,0.4-1.39,1.22-1.94c0.8-0.55,1.81-0.82,3.03-0.82c0.3,0,0.65,0.03,1.06,0.08
			c0.41,0.06,0.65,0.08,0.72,0.08c0.21,0,0.52-0.05,0.94-0.14l0.9,1.26l-0.36,0.07c-1.13-0.76-2.19-1.14-3.17-1.14
			c-0.84,0-1.54,0.22-2.11,0.65c-0.22,0.17-0.4,0.41-0.55,0.72c-0.16,0.33-0.23,0.67-0.23,1.02c0,0.82,0.24,1.42,0.73,1.8
			c0.54,0.43,1.3,0.64,2.28,0.64c0.69,0,1.23-0.1,1.62-0.29c0.31-0.16,0.47-0.42,0.47-0.79c0-0.37-0.08-0.59-0.25-0.68
			c-0.16-0.08-0.55-0.13-1.18-0.13v-0.2h3.76V36.52z"/>
		<path class="st21" d="M60.48,36.52c-0.37,0-0.63,0.03-0.77,0.07c-0.25,0.07-0.37,0.2-0.37,0.4v1.32
			c-0.37,0.01-0.63,0.02-0.79,0.03c-0.23,0.02-0.54,0.06-0.94,0.13c-0.67,0.11-1.22,0.17-1.63,0.17c-1.23,0-2.25-0.23-3.08-0.69
			c-0.86-0.47-1.28-1.08-1.28-1.82c0-0.74,0.4-1.39,1.22-1.94c0.8-0.55,1.81-0.82,3.03-0.82c0.3,0,0.65,0.03,1.06,0.08
			c0.41,0.06,0.65,0.08,0.72,0.08c0.21,0,0.52-0.05,0.94-0.14l0.9,1.26l-0.36,0.07c-1.13-0.76-2.19-1.14-3.17-1.14
			c-0.84,0-1.54,0.22-2.11,0.65c-0.22,0.17-0.4,0.41-0.55,0.72c-0.16,0.33-0.23,0.67-0.23,1.02c0,0.82,0.24,1.42,0.73,1.8
			c0.54,0.43,1.3,0.64,2.28,0.64c0.69,0,1.23-0.1,1.62-0.29c0.31-0.16,0.47-0.42,0.47-0.79c0-0.37-0.08-0.59-0.25-0.68
			c-0.16-0.08-0.55-0.13-1.18-0.13v-0.2h3.76V36.52z"/>
		<path class="st21" d="M68.48,37.23l-0.86,1.27h-6.84v-0.18c0.43,0,0.74-0.02,0.91-0.07c0.28-0.07,0.42-0.21,0.42-0.43v-3.67
			c0-0.3-0.33-0.45-0.98-0.45h-0.34v-0.19h3.91v0.19c-0.51,0-0.85,0.03-1.02,0.08c-0.23,0.07-0.34,0.22-0.34,0.44v3.63
			c0,0.17,0.09,0.3,0.28,0.36c0.18,0.07,0.47,0.1,0.86,0.1c0.84,0,1.56-0.11,2.16-0.33c0.43-0.15,0.93-0.42,1.49-0.81L68.48,37.23z"
			/>
		<path class="st21" d="M68.48,37.23l-0.86,1.27h-6.84v-0.18c0.43,0,0.74-0.02,0.91-0.07c0.28-0.07,0.42-0.21,0.42-0.43v-3.67
			c0-0.3-0.33-0.45-0.98-0.45h-0.34v-0.19h3.91v0.19c-0.51,0-0.85,0.03-1.02,0.08c-0.23,0.07-0.34,0.22-0.34,0.44v3.63
			c0,0.17,0.09,0.3,0.28,0.36c0.18,0.07,0.47,0.1,0.86,0.1c0.84,0,1.56-0.11,2.16-0.33c0.43-0.15,0.93-0.42,1.49-0.81L68.48,37.23z"
			/>
		<path class="st21" d="M77.82,33.7c-0.79,0.03-1.19,0.23-1.19,0.62v2.47c0,0.54-0.24,0.97-0.72,1.29
			c-0.57,0.37-1.45,0.56-2.64,0.56c-1.15,0-2.04-0.16-2.65-0.47c-0.54-0.27-0.82-0.7-0.82-1.3v-2.75c0-0.27-0.38-0.41-1.15-0.42
			v-0.19h3.7v0.19c-0.5,0-0.83,0.03-1,0.08c-0.23,0.07-0.35,0.23-0.35,0.46v2.75c0,0.91,0.8,1.37,2.41,1.37
			c1.81,0,2.71-0.52,2.71-1.55v-2.45c0-0.27-0.17-0.46-0.51-0.56c-0.18-0.05-0.45-0.08-0.83-0.1v-0.19h3.03V33.7z"/>
		<path class="st21" d="M77.82,33.7c-0.79,0.03-1.19,0.23-1.19,0.62v2.47c0,0.54-0.24,0.97-0.72,1.29
			c-0.57,0.37-1.45,0.56-2.64,0.56c-1.15,0-2.04-0.16-2.65-0.47c-0.54-0.27-0.82-0.7-0.82-1.3v-2.75c0-0.27-0.38-0.41-1.15-0.42
			v-0.19h3.7v0.19c-0.5,0-0.83,0.03-1,0.08c-0.23,0.07-0.35,0.23-0.35,0.46v2.75c0,0.91,0.8,1.37,2.41,1.37
			c1.81,0,2.71-0.52,2.71-1.55v-2.45c0-0.27-0.17-0.46-0.51-0.56c-0.18-0.05-0.45-0.08-0.83-0.1v-0.19h3.03V33.7z"/>
		<path class="st21" d="M85.71,37.17c-0.87,0.98-2.07,1.47-3.62,1.47c-1.13,0-2.07-0.23-2.81-0.7c-0.74-0.46-1.1-1.05-1.1-1.76
			c0-0.75,0.36-1.4,1.06-1.94c0.77-0.59,1.75-0.88,2.96-0.88c0.2,0,0.42,0.02,0.66,0.05c0.59,0.08,0.92,0.11,0.98,0.11
			c0.17,0,0.42-0.04,0.76-0.13l0.9,1.26l-0.36,0.07c-0.5-0.33-0.92-0.57-1.26-0.72c-0.62-0.27-1.23-0.41-1.84-0.41
			c-0.85,0-1.51,0.23-1.98,0.69c-0.41,0.39-0.61,0.87-0.61,1.43c0,0.64,0.23,1.18,0.69,1.62c0.56,0.54,1.38,0.82,2.46,0.82
			c0.69,0,1.29-0.13,1.81-0.38c0.3-0.15,0.63-0.38,0.97-0.69L85.71,37.17z"/>
		<path class="st21" d="M85.71,37.17c-0.87,0.98-2.07,1.47-3.62,1.47c-1.13,0-2.07-0.23-2.81-0.7c-0.74-0.46-1.1-1.05-1.1-1.76
			c0-0.75,0.36-1.4,1.06-1.94c0.77-0.59,1.75-0.88,2.96-0.88c0.2,0,0.42,0.02,0.66,0.05c0.59,0.08,0.92,0.11,0.98,0.11
			c0.17,0,0.42-0.04,0.76-0.13l0.9,1.26l-0.36,0.07c-0.5-0.33-0.92-0.57-1.26-0.72c-0.62-0.27-1.23-0.41-1.84-0.41
			c-0.85,0-1.51,0.23-1.98,0.69c-0.41,0.39-0.61,0.87-0.61,1.43c0,0.64,0.23,1.18,0.69,1.62c0.56,0.54,1.38,0.82,2.46,0.82
			c0.69,0,1.29-0.13,1.81-0.38c0.3-0.15,0.63-0.38,0.97-0.69L85.71,37.17z"/>
		<path class="st21" d="M93.44,35.91c0-0.55-0.18-1.03-0.52-1.44c-0.52-0.58-1.32-0.88-2.41-0.88c-1.21,0-2.05,0.36-2.53,1.08
			c-0.26,0.39-0.39,0.87-0.39,1.42c0,0.59,0.21,1.1,0.62,1.52c0.51,0.54,1.29,0.81,2.32,0.81c0.87,0,1.57-0.21,2.1-0.63
			C93.17,37.37,93.44,36.74,93.44,35.91 M94.87,35.99c0,0.73-0.41,1.36-1.24,1.88c-0.83,0.51-1.85,0.77-3.05,0.77
			c-1.18,0-2.2-0.24-3.07-0.73c-0.9-0.51-1.35-1.15-1.35-1.91c0-0.72,0.42-1.34,1.24-1.86c0.82-0.51,1.86-0.77,3.11-0.77
			c1.21,0,2.24,0.25,3.1,0.75C94.45,34.63,94.87,35.25,94.87,35.99"/>
		<path class="st21" d="M93.44,35.91c0-0.55-0.18-1.03-0.52-1.44c-0.52-0.58-1.32-0.88-2.41-0.88c-1.21,0-2.05,0.36-2.53,1.08
			c-0.26,0.39-0.39,0.87-0.39,1.42c0,0.59,0.21,1.1,0.62,1.52c0.51,0.54,1.29,0.81,2.32,0.81c0.87,0,1.57-0.21,2.1-0.63
			C93.17,37.37,93.44,36.74,93.44,35.91z M94.87,35.99c0,0.73-0.41,1.36-1.24,1.88c-0.83,0.51-1.85,0.77-3.05,0.77
			c-1.18,0-2.2-0.24-3.07-0.73c-0.9-0.51-1.35-1.15-1.35-1.91c0-0.72,0.42-1.34,1.24-1.86c0.82-0.51,1.86-0.77,3.11-0.77
			c1.21,0,2.24,0.25,3.1,0.75C94.45,34.63,94.87,35.25,94.87,35.99z"/>
		<path class="st21" d="M104.45,33.7c-0.4,0.01-0.69,0.05-0.87,0.13c-0.24,0.09-0.46,0.28-0.65,0.56l-2.92,4.25h-0.39l-2.86-4.33
			c-0.18-0.26-0.39-0.44-0.65-0.52c-0.18-0.06-0.45-0.09-0.83-0.09v-0.19h3.72v0.19c-0.76,0.01-1.15,0.13-1.15,0.33l0.08,0.23
			l2.24,3.38h0.03l2.18-3.22c0.07-0.11,0.11-0.21,0.11-0.31c0-0.26-0.39-0.39-1.17-0.42v-0.19h3.12V33.7z"/>
		<path class="st21" d="M104.45,33.7c-0.4,0.01-0.69,0.05-0.87,0.13c-0.24,0.09-0.46,0.28-0.65,0.56l-2.92,4.25h-0.39l-2.86-4.33
			c-0.18-0.26-0.39-0.44-0.65-0.52c-0.18-0.06-0.45-0.09-0.83-0.09v-0.19h3.72v0.19c-0.76,0.01-1.15,0.13-1.15,0.33l0.08,0.23
			l2.24,3.38h0.03l2.18-3.22c0.07-0.11,0.11-0.21,0.11-0.31c0-0.26-0.39-0.39-1.17-0.42v-0.19h3.12V33.7z"/>
		<path class="st21" d="M108.62,38.5h-3.84v-0.19h0.39c0.62,0,0.93-0.17,0.93-0.52v-3.64c0-0.2-0.15-0.33-0.44-0.39
			c-0.18-0.04-0.47-0.05-0.87-0.05v-0.19h3.84v0.19c-0.48,0-0.81,0.04-0.98,0.09c-0.22,0.07-0.33,0.22-0.33,0.45v3.62
			c0,0.2,0.14,0.33,0.43,0.4c0.17,0.04,0.46,0.05,0.88,0.05V38.5z"/>
		<path class="st21" d="M108.62,38.5h-3.84v-0.19h0.39c0.62,0,0.93-0.17,0.93-0.52v-3.64c0-0.2-0.15-0.33-0.44-0.39
			c-0.18-0.04-0.47-0.05-0.87-0.05v-0.19h3.84v0.19c-0.48,0-0.81,0.04-0.98,0.09c-0.22,0.07-0.33,0.22-0.33,0.45v3.62
			c0,0.2,0.14,0.33,0.43,0.4c0.17,0.04,0.46,0.05,0.88,0.05V38.5z"/>
		<path class="st21" d="M116.69,37.23l-0.86,1.27H109v-0.18c0.43,0,0.74-0.02,0.91-0.07c0.28-0.07,0.42-0.21,0.42-0.43v-3.67
			c0-0.3-0.33-0.45-0.98-0.45H109v-0.19h3.91v0.19c-0.51,0-0.85,0.03-1.02,0.08c-0.23,0.07-0.34,0.22-0.34,0.44v3.63
			c0,0.17,0.09,0.3,0.28,0.36c0.18,0.07,0.47,0.1,0.86,0.1c0.84,0,1.56-0.11,2.16-0.33c0.43-0.15,0.93-0.42,1.49-0.81L116.69,37.23z
			"/>
		<path class="st21" d="M116.69,37.23l-0.86,1.27H109v-0.18c0.43,0,0.74-0.02,0.91-0.07c0.28-0.07,0.42-0.21,0.42-0.43v-3.67
			c0-0.3-0.33-0.45-0.98-0.45H109v-0.19h3.91v0.19c-0.51,0-0.85,0.03-1.02,0.08c-0.23,0.07-0.34,0.22-0.34,0.44v3.63
			c0,0.17,0.09,0.3,0.28,0.36c0.18,0.07,0.47,0.1,0.86,0.1c0.84,0,1.56-0.11,2.16-0.33c0.43-0.15,0.93-0.42,1.49-0.81L116.69,37.23z
			"/>
		<g>
			<path class="st21" d="M40.1,39.65c-1.36,0.02-1.39-0.03-1.93,0.12c-0.92,0.24-1.6,0.89-1.6,1.61l0,2.5c0,0-1.8-0.01-2.38,0.03
				c-1.89,0.07-5.02,2.41-10.8,2.43c-3.25-0.05-6.7-0.54-9.77-2.2c-3.17-1.7-4.89-4.57-4.89-7.22c0-2.66,1.09-5.04,4.09-7.04
				c2.97-1.97,6.9-2.59,11.4-2.59c1.09,0,2.63,0.12,4.29,0.49c1.57,0.27,3.35,1.06,3.48,1.12c1.46,0.59,1.95-0.54,2.27-0.86
				l0.61,0.01c0,0,0.31,2.7,2.52,6.14c0.28,0.5-0.3,0.7-0.55,0.41c-3.82-5.65-8.31-6.32-12.27-6.5c-2.54,0-5.15,0.18-7.52,1.41
				c-2.52,1.31-4.72,3.75-4.72,6.64c-0.02,2.62,0.55,5.92,4.11,7.78c1.84,0.94,4.19,1.53,7.55,1.71c3.21,0.06,5.72-0.87,7.15-1.57
				c1.16-0.57,2.05-1.13,2.06-2.28c0-1.02-0.23-1.48-0.85-1.78c-0.58-0.3-0.98-0.34-2.9-0.35v-0.69l10.64-0.04V39.65z"/>
		</g>
		<g>
			<defs>
				<path id="SVGID_00000088126878505046018970000011262625610517298348_" d="M14.81,36.46c-0.34,1.31,1.54,2.81,5.94,3.73
					c4.39,0.91,6.82,0.31,7.15-1c0.34-1.31-1.54-2.81-5.94-3.73c-1.45-0.3-2.68-0.44-3.7-0.44C16.2,35.02,15.04,35.58,14.81,36.46"
					/>
			</defs>
			<clipPath id="SVGID_00000053526771288264867860000017781266991706221474_">
				<use xlink:href="#SVGID_00000088126878505046018970000011262625610517298348_"  style="overflow:visible;"/>
			</clipPath>
			<polygon style="clip-path:url(#SVGID_00000053526771288264867860000017781266991706221474_);fill:#B6B6B6;" points="15.15,35.86 
				15.03,35.67 15.17,35.13 15.37,35.01 15.94,35.13 16.06,35.32 15.92,35.86 15.72,35.98 			"/>
			<polygon style="clip-path:url(#SVGID_00000053526771288264867860000017781266991706221474_);fill:#B6B6B6;" points="14.87,36.91 
				14.75,36.72 14.89,36.18 15.1,36.07 15.67,36.19 15.79,36.38 15.64,36.91 15.44,37.03 			"/>
			<polygon style="clip-path:url(#SVGID_00000053526771288264867860000017781266991706221474_);fill:#B6B6B6;" points="14.6,37.96 
				14.47,37.77 14.61,37.24 14.82,37.12 15.39,37.24 15.51,37.43 15.37,37.97 15.17,38.08 			"/>
			<polygon style="clip-path:url(#SVGID_00000053526771288264867860000017781266991706221474_);fill:#B6B6B6;" points="14.32,39.01 
				14.2,38.82 14.34,38.29 14.54,38.17 15.11,38.29 15.23,38.48 15.09,39.02 14.89,39.13 			"/>
			<polygon style="clip-path:url(#SVGID_00000053526771288264867860000017781266991706221474_);fill:#B6B6B6;" points="16.54,35.05 
				16.41,34.86 16.56,34.32 16.76,34.2 17.33,34.32 17.45,34.51 17.31,35.05 17.11,35.17 			"/>
			<polygon style="clip-path:url(#SVGID_00000053526771288264867860000017781266991706221474_);fill:#B6B6B6;" points="16.26,36.1 
				16.14,35.91 16.28,35.37 16.48,35.25 17.05,35.37 17.18,35.56 17.03,36.1 16.83,36.22 			"/>
			<polygon style="clip-path:url(#SVGID_00000053526771288264867860000017781266991706221474_);fill:#B6B6B6;" points="15.98,37.15 
				15.86,36.96 16,36.42 16.21,36.3 16.78,36.42 16.9,36.61 16.76,37.15 16.55,37.27 			"/>
			<polygon style="clip-path:url(#SVGID_00000053526771288264867860000017781266991706221474_);fill:#B6B6B6;" points="15.71,38.2 
				15.58,38.01 15.73,37.47 15.93,37.35 16.5,37.47 16.62,37.66 16.48,38.2 16.28,38.32 			"/>
			<polygon style="clip-path:url(#SVGID_00000053526771288264867860000017781266991706221474_);fill:#B6B6B6;" points="15.43,39.25 
				15.31,39.06 15.45,38.52 15.65,38.4 16.22,38.52 16.34,38.71 16.2,39.25 16,39.37 			"/>
			<polygon style="clip-path:url(#SVGID_00000053526771288264867860000017781266991706221474_);fill:#B6B6B6;" points="17.65,35.28 
				17.53,35.09 17.67,34.55 17.87,34.44 18.44,34.56 18.56,34.74 18.42,35.28 18.22,35.4 			"/>
			<polygon style="clip-path:url(#SVGID_00000053526771288264867860000017781266991706221474_);fill:#B6B6B6;" points="17.37,36.33 
				17.25,36.14 17.39,35.61 17.59,35.49 18.16,35.61 18.29,35.8 18.15,36.34 17.94,36.45 			"/>
			<polygon style="clip-path:url(#SVGID_00000053526771288264867860000017781266991706221474_);fill:#B6B6B6;" points="17.1,37.38 
				16.97,37.2 17.12,36.66 17.32,36.54 17.89,36.66 18.01,36.85 17.87,37.39 17.67,37.51 			"/>
			<polygon style="clip-path:url(#SVGID_00000053526771288264867860000017781266991706221474_);fill:#B6B6B6;" points="16.82,38.44 
				16.7,38.25 16.84,37.71 17.04,37.59 17.61,37.71 17.73,37.9 17.59,38.44 17.39,38.56 			"/>
			<polygon style="clip-path:url(#SVGID_00000053526771288264867860000017781266991706221474_);fill:#B6B6B6;" points="16.54,39.49 
				16.42,39.3 16.56,38.76 16.77,38.64 17.34,38.76 17.46,38.95 17.32,39.49 17.11,39.61 			"/>
			<polygon style="clip-path:url(#SVGID_00000053526771288264867860000017781266991706221474_);fill:#B6B6B6;" points="18.76,35.52 
				18.64,35.33 18.78,34.79 18.98,34.67 19.55,34.79 19.67,34.98 19.53,35.52 19.33,35.64 			"/>
			<polygon style="clip-path:url(#SVGID_00000053526771288264867860000017781266991706221474_);fill:#B6B6B6;" points="18.48,36.57 
				18.36,36.38 18.5,35.84 18.71,35.72 19.28,35.84 19.4,36.03 19.26,36.57 19.05,36.69 			"/>
			<polygon style="clip-path:url(#SVGID_00000053526771288264867860000017781266991706221474_);fill:#B6B6B6;" points="18.21,37.62 
				18.09,37.43 18.23,36.89 18.43,36.77 19,36.9 19.12,37.08 18.98,37.62 18.78,37.74 			"/>
			<polygon style="clip-path:url(#SVGID_00000053526771288264867860000017781266991706221474_);fill:#B6B6B6;" points="17.93,38.67 
				17.81,38.48 17.95,37.94 18.15,37.83 18.72,37.95 18.85,38.14 18.7,38.68 18.5,38.79 			"/>
			<polygon style="clip-path:url(#SVGID_00000053526771288264867860000017781266991706221474_);fill:#B6B6B6;" points="17.65,39.72 
				17.53,39.53 17.67,39 17.88,38.88 18.45,39 18.57,39.19 18.43,39.72 18.23,39.84 			"/>
			<polygon style="clip-path:url(#SVGID_00000053526771288264867860000017781266991706221474_);fill:#B6B6B6;" points="19.87,35.76 
				19.75,35.57 19.89,35.03 20.1,34.91 20.66,35.03 20.79,35.22 20.65,35.76 20.44,35.88 			"/>
			<polygon style="clip-path:url(#SVGID_00000053526771288264867860000017781266991706221474_);fill:#B6B6B6;" points="19.6,36.81 
				19.47,36.62 19.62,36.08 19.82,35.96 20.39,36.08 20.51,36.27 20.37,36.81 20.17,36.93 			"/>
			<polygon style="clip-path:url(#SVGID_00000053526771288264867860000017781266991706221474_);fill:#B6B6B6;" points="19.32,37.86 
				19.2,37.67 19.34,37.13 19.54,37.01 20.11,37.13 20.23,37.32 20.09,37.86 19.89,37.98 			"/>
			<polygon style="clip-path:url(#SVGID_00000053526771288264867860000017781266991706221474_);fill:#B6B6B6;" points="19.04,38.91 
				18.92,38.72 19.06,38.18 19.27,38.06 19.84,38.18 19.96,38.37 19.82,38.91 19.61,39.03 			"/>
			<polygon style="clip-path:url(#SVGID_00000053526771288264867860000017781266991706221474_);fill:#B6B6B6;" points="18.77,39.96 
				18.64,39.77 18.79,39.23 18.99,39.11 19.56,39.24 19.68,39.42 19.54,39.96 19.34,40.08 			"/>
			<polygon style="clip-path:url(#SVGID_00000053526771288264867860000017781266991706221474_);fill:#B6B6B6;" points="20.98,35.99 
				20.86,35.8 21,35.27 21.21,35.15 21.78,35.27 21.9,35.46 21.76,35.99 21.56,36.11 			"/>
			<polygon style="clip-path:url(#SVGID_00000053526771288264867860000017781266991706221474_);fill:#B6B6B6;" points="20.71,37.04 
				20.58,36.85 20.73,36.32 20.93,36.2 21.5,36.32 21.62,36.51 21.48,37.05 21.28,37.17 			"/>
			<polygon style="clip-path:url(#SVGID_00000053526771288264867860000017781266991706221474_);fill:#B6B6B6;" points="20.43,38.09 
				20.31,37.91 20.45,37.37 20.66,37.25 21.23,37.37 21.34,37.56 21.2,38.1 21,38.22 			"/>
			<polygon style="clip-path:url(#SVGID_00000053526771288264867860000017781266991706221474_);fill:#B6B6B6;" points="20.15,39.15 
				20.03,38.96 20.17,38.42 20.38,38.3 20.95,38.42 21.07,38.61 20.93,39.15 20.72,39.27 			"/>
			<polygon style="clip-path:url(#SVGID_00000053526771288264867860000017781266991706221474_);fill:#B6B6B6;" points="19.88,40.2 
				19.76,40.01 19.9,39.47 20.1,39.35 20.67,39.47 20.79,39.66 20.65,40.2 20.45,40.32 			"/>
			<polygon style="clip-path:url(#SVGID_00000053526771288264867860000017781266991706221474_);fill:#B6B6B6;" points="22.1,36.23 
				21.97,36.04 22.12,35.5 22.32,35.38 22.89,35.5 23.01,35.69 22.87,36.23 22.67,36.35 			"/>
			<polygon style="clip-path:url(#SVGID_00000053526771288264867860000017781266991706221474_);fill:#B6B6B6;" points="21.82,37.28 
				21.7,37.09 21.84,36.55 22.04,36.43 22.61,36.56 22.73,36.74 22.59,37.28 22.39,37.4 			"/>
			<polygon style="clip-path:url(#SVGID_00000053526771288264867860000017781266991706221474_);fill:#B6B6B6;" points="21.54,38.33 
				21.42,38.14 21.56,37.6 21.77,37.48 22.34,37.61 22.46,37.79 22.32,38.33 22.11,38.45 			"/>
			<polygon style="clip-path:url(#SVGID_00000053526771288264867860000017781266991706221474_);fill:#B6B6B6;" points="21.27,39.38 
				21.14,39.19 21.29,38.65 21.49,38.54 22.06,38.66 22.18,38.85 22.04,39.38 21.84,39.5 			"/>
			<polygon style="clip-path:url(#SVGID_00000053526771288264867860000017781266991706221474_);fill:#B6B6B6;" points="20.99,40.43 
				20.87,40.24 21.01,39.71 21.21,39.59 21.78,39.71 21.91,39.9 21.76,40.43 21.56,40.55 			"/>
			<polygon style="clip-path:url(#SVGID_00000053526771288264867860000017781266991706221474_);fill:#B6B6B6;" points="23.21,36.47 
				23.09,36.28 23.23,35.74 23.43,35.62 24,35.74 24.12,35.93 23.98,36.47 23.78,36.59 			"/>
			<polygon style="clip-path:url(#SVGID_00000053526771288264867860000017781266991706221474_);fill:#B6B6B6;" points="22.93,37.52 
				22.81,37.33 22.95,36.79 23.16,36.67 23.72,36.79 23.85,36.98 23.7,37.52 23.5,37.64 			"/>
			<polygon style="clip-path:url(#SVGID_00000053526771288264867860000017781266991706221474_);fill:#B6B6B6;" points="22.66,38.57 
				22.53,38.38 22.68,37.84 22.88,37.72 23.45,37.84 23.57,38.03 23.43,38.57 23.23,38.69 			"/>
			<polygon style="clip-path:url(#SVGID_00000053526771288264867860000017781266991706221474_);fill:#B6B6B6;" points="22.38,39.62 
				22.26,39.43 22.4,38.89 22.6,38.77 23.17,38.89 23.29,39.08 23.15,39.62 22.95,39.74 			"/>
			<polygon style="clip-path:url(#SVGID_00000053526771288264867860000017781266991706221474_);fill:#B6B6B6;" points="22.1,40.67 
				21.98,40.48 22.12,39.94 22.33,39.82 22.89,39.94 23.02,40.13 22.88,40.67 22.67,40.79 			"/>
			<polygon style="clip-path:url(#SVGID_00000053526771288264867860000017781266991706221474_);fill:#B6B6B6;" points="24.34,36.71 
				24.22,36.52 24.36,35.98 24.57,35.86 25.14,35.98 25.26,36.17 25.12,36.71 24.91,36.83 			"/>
			<polygon style="clip-path:url(#SVGID_00000053526771288264867860000017781266991706221474_);fill:#B6B6B6;" points="24.07,37.76 
				23.94,37.57 24.09,37.03 24.29,36.91 24.86,37.03 24.98,37.22 24.84,37.76 24.64,37.88 			"/>
			<polygon style="clip-path:url(#SVGID_00000053526771288264867860000017781266991706221474_);fill:#B6B6B6;" points="23.79,38.81 
				23.67,38.62 23.81,38.08 24.01,37.96 24.58,38.08 24.71,38.27 24.56,38.81 24.36,38.93 			"/>
			<polygon style="clip-path:url(#SVGID_00000053526771288264867860000017781266991706221474_);fill:#B6B6B6;" points="23.52,39.86 
				23.39,39.67 23.53,39.13 23.74,39.01 24.31,39.14 24.43,39.32 24.29,39.86 24.08,39.98 			"/>
			<polygon style="clip-path:url(#SVGID_00000053526771288264867860000017781266991706221474_);fill:#B6B6B6;" points="23.24,40.91 
				23.11,40.72 23.26,40.18 23.46,40.06 24.03,40.19 24.15,40.38 24.01,40.91 23.81,41.03 			"/>
			<polygon style="clip-path:url(#SVGID_00000053526771288264867860000017781266991706221474_);fill:#B6B6B6;" points="25.46,36.94 
				25.33,36.75 25.48,36.22 25.68,36.1 26.25,36.22 26.37,36.41 26.23,36.94 26.03,37.06 			"/>
			<polygon style="clip-path:url(#SVGID_00000053526771288264867860000017781266991706221474_);fill:#B6B6B6;" points="25.18,37.99 
				25.06,37.81 25.2,37.27 25.4,37.15 25.97,37.27 26.09,37.46 25.95,38 25.75,38.12 			"/>
			<polygon style="clip-path:url(#SVGID_00000053526771288264867860000017781266991706221474_);fill:#B6B6B6;" points="24.9,39.05 
				24.78,38.86 24.92,38.32 25.12,38.2 25.7,38.32 25.82,38.51 25.67,39.05 25.47,39.17 			"/>
			<polygon style="clip-path:url(#SVGID_00000053526771288264867860000017781266991706221474_);fill:#B6B6B6;" points="24.63,40.1 
				24.5,39.91 24.64,39.37 24.85,39.25 25.42,39.37 25.54,39.56 25.4,40.1 25.2,40.22 			"/>
			<polygon style="clip-path:url(#SVGID_00000053526771288264867860000017781266991706221474_);fill:#B6B6B6;" points="24.35,41.15 
				24.23,40.96 24.37,40.42 24.57,40.3 25.14,40.42 25.26,40.61 25.12,41.15 24.92,41.27 			"/>
			<polygon style="clip-path:url(#SVGID_00000053526771288264867860000017781266991706221474_);fill:#B6B6B6;" points="26.57,37.18 
				26.44,36.99 26.59,36.45 26.79,36.33 27.36,36.45 27.48,36.64 27.34,37.18 27.14,37.3 			"/>
			<polygon style="clip-path:url(#SVGID_00000053526771288264867860000017781266991706221474_);fill:#B6B6B6;" points="26.29,38.23 
				26.17,38.04 26.31,37.5 26.51,37.38 27.08,37.51 27.21,37.69 27.06,38.23 26.86,38.35 			"/>
			<polygon style="clip-path:url(#SVGID_00000053526771288264867860000017781266991706221474_);fill:#B6B6B6;" points="26.01,39.28 
				25.89,39.09 26.03,38.56 26.24,38.44 26.81,38.56 26.93,38.75 26.79,39.28 26.58,39.4 			"/>
			<polygon style="clip-path:url(#SVGID_00000053526771288264867860000017781266991706221474_);fill:#B6B6B6;" points="25.74,40.33 
				25.61,40.14 25.76,39.61 25.96,39.49 26.53,39.61 26.65,39.8 26.51,40.34 26.31,40.46 			"/>
			<polygon style="clip-path:url(#SVGID_00000053526771288264867860000017781266991706221474_);fill:#B6B6B6;" points="25.46,41.38 
				25.34,41.2 25.48,40.66 25.68,40.54 26.25,40.66 26.38,40.85 26.23,41.39 26.03,41.51 			"/>
			<polygon style="clip-path:url(#SVGID_00000053526771288264867860000017781266991706221474_);fill:#B6B6B6;" points="27.68,37.42 
				27.56,37.23 27.7,36.69 27.9,36.57 28.47,36.69 28.59,36.88 28.45,37.42 28.25,37.54 			"/>
			<polygon style="clip-path:url(#SVGID_00000053526771288264867860000017781266991706221474_);fill:#B6B6B6;" points="27.4,38.47 
				27.28,38.28 27.42,37.74 27.63,37.62 28.2,37.74 28.32,37.93 28.17,38.47 27.97,38.59 			"/>
			<polygon style="clip-path:url(#SVGID_00000053526771288264867860000017781266991706221474_);fill:#B6B6B6;" points="27.13,39.52 
				27,39.33 27.14,38.79 27.35,38.67 27.92,38.79 28.04,38.98 27.9,39.52 27.7,39.64 			"/>
			<polygon style="clip-path:url(#SVGID_00000053526771288264867860000017781266991706221474_);fill:#B6B6B6;" points="26.85,40.57 
				26.73,40.38 26.87,39.84 27.07,39.72 27.64,39.84 27.76,40.03 27.62,40.57 27.42,40.69 			"/>
			<polygon style="clip-path:url(#SVGID_00000053526771288264867860000017781266991706221474_);fill:#B6B6B6;" points="26.57,41.62 
				26.45,41.43 26.59,40.89 26.8,40.77 27.37,40.9 27.49,41.09 27.35,41.62 27.14,41.74 			"/>
		</g>
		<path class="st21" d="M30.53,32.23c0,0.8-0.65,1.45-1.45,1.45c-0.8,0-1.45-0.65-1.45-1.45c0-0.8,0.65-1.45,1.45-1.45
			C29.88,30.79,30.53,31.43,30.53,32.23"/>
		<path class="st21" d="M29.38,29.79c0,0.16-0.14,0.68,0.71,1.4l-2,0c0,0,0.76-0.7,0.74-1.4c0-0.44,0.14-0.51,0.31-0.51
			C29.3,29.27,29.37,29.44,29.38,29.79"/>
		<path class="st21" d="M20.1,35.69c0,0-3.13-2.1-5.56,0.1c-0.19,0.23-0.56,0.61-1.4,0.47c0,0,0.61,0.47,0.8,0.94s1.96,4.16,6.78,5
			c4.82,0.84,8.7-0.7,8.7-0.7S16.92,42.8,14.58,37c0,0,1.87,1.54,5.7,1.87c-1.87-0.89-4.16-1.22-5.33-2.95
			C14.96,35.93,16.03,35.23,20.1,35.69"/>
		<path class="st21" d="M15.52,33.03c0,0,3.32-1.07,5.1-0.56c1.78,0.51,7.99,3.27,10.43,2.01c0,0-3.15,0.51-6.31-1.78
			C24.73,32.7,19.97,29.49,15.52,33.03"/>
		<g>
			<path class="st21" d="M32.42,34.44c0,0-2.82,1.71-6.55,0.35c-3.73-1.36-9.09-3.41-11.78,0.38c0,0,2.75-1.71,6.31-0.7
				C23.95,35.49,29.77,37.3,32.42,34.44"/>
			<path class="st21" d="M14.2,38.62c0,0,5.3,8.01,16.45,3.73c0,0-2.82,2.75-8.43,1.99C22.21,44.34,15.7,43.57,14.2,38.62"/>
		</g>
		<path class="st21" d="M54.86,43.19l-1.02-1.59h-0.02l-1.03,1.59H54.86z M57.09,44.47h-2.41v-0.12c0.24,0,0.41-0.01,0.51-0.03
			c0.17-0.03,0.26-0.08,0.26-0.16l-0.05-0.14l-0.44-0.66h-2.27l-0.35,0.54l-0.08,0.22c0,0.15,0.26,0.23,0.78,0.24v0.12h-2.08v-0.12
			c0.23,0,0.41-0.02,0.53-0.06c0.21-0.06,0.38-0.18,0.49-0.36l1.71-2.6l0.66-0.09l1.77,2.71c0.1,0.17,0.24,0.27,0.41,0.32
			c0.11,0.04,0.3,0.06,0.56,0.06V44.47z"/>
		<path class="st21" d="M54.86,43.19l-1.02-1.59h-0.02l-1.03,1.59H54.86z M57.09,44.47h-2.41v-0.12c0.24,0,0.41-0.01,0.51-0.03
			c0.17-0.03,0.26-0.08,0.26-0.16l-0.05-0.14l-0.44-0.66h-2.27l-0.35,0.54l-0.08,0.22c0,0.15,0.26,0.23,0.78,0.24v0.12h-2.08v-0.12
			c0.23,0,0.41-0.02,0.53-0.06c0.21-0.06,0.38-0.18,0.49-0.36l1.71-2.6l0.66-0.09l1.77,2.71c0.1,0.17,0.24,0.27,0.41,0.32
			c0.11,0.04,0.3,0.06,0.56,0.06V44.47z"/>
		<path class="st21" d="M61.03,42.11c0-0.43-0.49-0.65-1.46-0.65c-0.25,0-0.43,0.01-0.54,0.04c-0.16,0.04-0.24,0.12-0.24,0.25v1.07
			h0.46c0.62,0,1.06-0.05,1.33-0.14C60.88,42.56,61.03,42.37,61.03,42.11 M62.55,44.47h-1.46l-1.66-1.53h-0.63v1.14
			c0,0.12,0.09,0.19,0.28,0.23c0.09,0.02,0.25,0.04,0.49,0.04v0.12h-2.28v-0.12c0.5-0.01,0.75-0.11,0.75-0.3v-2.27
			c0-0.14-0.08-0.24-0.24-0.28c-0.09-0.02-0.26-0.04-0.52-0.04v-0.12h2.62c0.49,0,0.91,0.05,1.27,0.14
			c0.52,0.13,0.78,0.35,0.78,0.65c0,0.41-0.56,0.67-1.68,0.78l1.24,1.14c0.13,0.12,0.29,0.2,0.48,0.25
			c0.12,0.03,0.31,0.04,0.57,0.05V44.47z"/>
		<path class="st21" d="M61.03,42.11c0-0.43-0.49-0.65-1.46-0.65c-0.25,0-0.43,0.01-0.54,0.04c-0.16,0.04-0.24,0.12-0.24,0.25v1.07
			h0.46c0.62,0,1.06-0.05,1.33-0.14C60.88,42.56,61.03,42.37,61.03,42.11z M62.55,44.47h-1.46l-1.66-1.53h-0.63v1.14
			c0,0.12,0.09,0.19,0.28,0.23c0.09,0.02,0.25,0.04,0.49,0.04v0.12h-2.28v-0.12c0.5-0.01,0.75-0.11,0.75-0.3v-2.27
			c0-0.14-0.08-0.24-0.24-0.28c-0.09-0.02-0.26-0.04-0.52-0.04v-0.12h2.62c0.49,0,0.91,0.05,1.27,0.14
			c0.52,0.13,0.78,0.35,0.78,0.65c0,0.41-0.56,0.67-1.68,0.78l1.24,1.14c0.13,0.12,0.29,0.2,0.48,0.25
			c0.12,0.03,0.31,0.04,0.57,0.05V44.47z"/>
		<path class="st21" d="M68.36,43.23c-0.23,0-0.39,0.02-0.49,0.04c-0.15,0.04-0.23,0.13-0.23,0.25v0.82
			c-0.23,0.01-0.4,0.01-0.49,0.02c-0.15,0.01-0.34,0.04-0.59,0.08c-0.42,0.07-0.76,0.11-1.02,0.11c-0.77,0-1.41-0.15-1.93-0.43
			c-0.54-0.3-0.81-0.68-0.81-1.14c0-0.46,0.25-0.87,0.76-1.22c0.5-0.34,1.14-0.51,1.9-0.51c0.18,0,0.4,0.02,0.67,0.05
			c0.26,0.04,0.41,0.05,0.45,0.05c0.13,0,0.33-0.03,0.59-0.09l0.56,0.79L67.5,42.1c-0.71-0.47-1.37-0.71-1.98-0.71
			c-0.53,0-0.97,0.14-1.33,0.41c-0.14,0.11-0.25,0.26-0.35,0.45c-0.1,0.21-0.15,0.42-0.15,0.64c0,0.51,0.15,0.89,0.46,1.13
			c0.34,0.27,0.82,0.4,1.43,0.4c0.43,0,0.77-0.06,1.01-0.18c0.2-0.1,0.3-0.27,0.3-0.5c0-0.23-0.05-0.37-0.16-0.43
			c-0.1-0.05-0.35-0.08-0.74-0.08V43.1h2.36V43.23z"/>
		<path class="st21" d="M68.36,43.23c-0.23,0-0.39,0.02-0.49,0.04c-0.15,0.04-0.23,0.13-0.23,0.25v0.82
			c-0.23,0.01-0.4,0.01-0.49,0.02c-0.15,0.01-0.34,0.04-0.59,0.08c-0.42,0.07-0.76,0.11-1.02,0.11c-0.77,0-1.41-0.15-1.93-0.43
			c-0.54-0.3-0.81-0.68-0.81-1.14c0-0.46,0.25-0.87,0.76-1.22c0.5-0.34,1.14-0.51,1.9-0.51c0.18,0,0.4,0.02,0.67,0.05
			c0.26,0.04,0.41,0.05,0.45,0.05c0.13,0,0.33-0.03,0.59-0.09l0.56,0.79L67.5,42.1c-0.71-0.47-1.37-0.71-1.98-0.71
			c-0.53,0-0.97,0.14-1.33,0.41c-0.14,0.11-0.25,0.26-0.35,0.45c-0.1,0.21-0.15,0.42-0.15,0.64c0,0.51,0.15,0.89,0.46,1.13
			c0.34,0.27,0.82,0.4,1.43,0.4c0.43,0,0.77-0.06,1.01-0.18c0.2-0.1,0.3-0.27,0.3-0.5c0-0.23-0.05-0.37-0.16-0.43
			c-0.1-0.05-0.35-0.08-0.74-0.08V43.1h2.36V43.23z"/>
		<path class="st21" d="M73.74,43.67l-0.54,0.8h-4.66v-0.12c0.31,0,0.51-0.02,0.61-0.05c0.14-0.05,0.22-0.16,0.22-0.33v-2.23
			c0-0.13-0.09-0.21-0.26-0.25c-0.1-0.02-0.29-0.03-0.56-0.03v-0.13h4.56l0.54,0.75l-0.23,0.04c-0.42-0.27-0.76-0.44-1.03-0.53
			c-0.32-0.1-0.77-0.14-1.34-0.14c-0.29,0-0.49,0.01-0.61,0.03c-0.2,0.04-0.3,0.13-0.3,0.26v1.05h0.55c0.49,0,0.83-0.05,1.04-0.16
			c0.14-0.08,0.23-0.2,0.29-0.38h0.23v1.21h-0.23c-0.06-0.36-0.5-0.55-1.33-0.55h-0.55v1.17c0,0.17,0.26,0.26,0.78,0.26
			c0.6,0,1.04-0.04,1.33-0.11c0.36-0.09,0.8-0.29,1.3-0.61L73.74,43.67z"/>
		<path class="st21" d="M73.74,43.67l-0.54,0.8h-4.66v-0.12c0.31,0,0.51-0.02,0.61-0.05c0.14-0.05,0.22-0.16,0.22-0.33v-2.23
			c0-0.13-0.09-0.21-0.26-0.25c-0.1-0.02-0.29-0.03-0.56-0.03v-0.13h4.56l0.54,0.75l-0.23,0.04c-0.42-0.27-0.76-0.44-1.03-0.53
			c-0.32-0.1-0.77-0.14-1.34-0.14c-0.29,0-0.49,0.01-0.61,0.03c-0.2,0.04-0.3,0.13-0.3,0.26v1.05h0.55c0.49,0,0.83-0.05,1.04-0.16
			c0.14-0.08,0.23-0.2,0.29-0.38h0.23v1.21h-0.23c-0.06-0.36-0.5-0.55-1.33-0.55h-0.55v1.17c0,0.17,0.26,0.26,0.78,0.26
			c0.6,0,1.04-0.04,1.33-0.11c0.36-0.09,0.8-0.29,1.3-0.61L73.74,43.67z"/>
		<path class="st21" d="M79.67,41.46c-0.5,0.01-0.75,0.14-0.75,0.4v2.69h-0.16l-3.66-2.77h-0.02v2.15c0,0.27,0.29,0.41,0.88,0.42
			v0.12h-2.02v-0.12c0.55-0.01,0.83-0.15,0.83-0.42v-2.29c-0.27-0.12-0.55-0.18-0.83-0.19v-0.12h1.43l3.22,2.45h0.02v-1.92
			c0-0.26-0.25-0.39-0.75-0.4v-0.12h1.81V41.46z"/>
		<path class="st21" d="M79.67,41.46c-0.5,0.01-0.75,0.14-0.75,0.4v2.69h-0.16l-3.66-2.77h-0.02v2.15c0,0.27,0.29,0.41,0.88,0.42
			v0.12h-2.02v-0.12c0.55-0.01,0.83-0.15,0.83-0.42v-2.29c-0.27-0.12-0.55-0.18-0.83-0.19v-0.12h1.43l3.22,2.45h0.02v-1.92
			c0-0.26-0.25-0.39-0.75-0.4v-0.12h1.81V41.46z"/>
		<path class="st21" d="M85.55,42.09l-0.21,0.05c-0.42-0.25-0.73-0.41-0.95-0.5c-0.31-0.13-0.61-0.19-0.93-0.19
			c-0.27,0-0.41,0.07-0.41,0.2v2.43c0,0.12,0.1,0.2,0.3,0.24c0.11,0.02,0.33,0.03,0.64,0.03v0.12h-2.67v-0.12
			c0.31,0,0.52-0.01,0.64-0.03c0.21-0.04,0.32-0.13,0.32-0.27v-2.4c0-0.12-0.14-0.18-0.43-0.18c-0.3,0-0.61,0.06-0.93,0.19
			c-0.25,0.1-0.56,0.27-0.92,0.49l-0.22-0.05l0.53-0.76h4.69L85.55,42.09z"/>
		<path class="st21" d="M85.55,42.09l-0.21,0.05c-0.42-0.25-0.73-0.41-0.95-0.5c-0.31-0.13-0.61-0.19-0.93-0.19
			c-0.27,0-0.41,0.07-0.41,0.2v2.43c0,0.12,0.1,0.2,0.3,0.24c0.11,0.02,0.33,0.03,0.64,0.03v0.12h-2.67v-0.12
			c0.31,0,0.52-0.01,0.64-0.03c0.21-0.04,0.32-0.13,0.32-0.27v-2.4c0-0.12-0.14-0.18-0.43-0.18c-0.3,0-0.61,0.06-0.93,0.19
			c-0.25,0.1-0.56,0.27-0.92,0.49l-0.22-0.05l0.53-0.76h4.69L85.55,42.09z"/>
		<path class="st21" d="M88.17,44.47h-2.41v-0.12H86c0.39,0,0.58-0.11,0.58-0.33v-2.28c0-0.13-0.09-0.21-0.28-0.25
			c-0.11-0.02-0.29-0.03-0.55-0.03v-0.12h2.41v0.12c-0.3,0-0.51,0.02-0.62,0.06c-0.14,0.05-0.21,0.14-0.21,0.28v2.27
			c0,0.12,0.09,0.21,0.27,0.25c0.1,0.02,0.29,0.03,0.56,0.03V44.47z"/>
		<path class="st21" d="M88.17,44.47h-2.41v-0.12H86c0.39,0,0.58-0.11,0.58-0.33v-2.28c0-0.13-0.09-0.21-0.28-0.25
			c-0.11-0.02-0.29-0.03-0.55-0.03v-0.12h2.41v0.12c-0.3,0-0.51,0.02-0.62,0.06c-0.14,0.05-0.21,0.14-0.21,0.28v2.27
			c0,0.12,0.09,0.21,0.27,0.25c0.1,0.02,0.29,0.03,0.56,0.03V44.47z"/>
		<path class="st21" d="M94.11,41.46c-0.5,0.01-0.75,0.14-0.75,0.4v2.69h-0.16l-3.66-2.77h-0.02v2.15c0,0.27,0.29,0.41,0.88,0.42
			v0.12h-2.02v-0.12c0.55-0.01,0.83-0.15,0.83-0.42v-2.29c-0.27-0.12-0.55-0.18-0.83-0.19v-0.12h1.43l3.22,2.45h0.02v-1.92
			c0-0.26-0.25-0.39-0.75-0.4v-0.12h1.81V41.46z"/>
		<path class="st21" d="M94.11,41.46c-0.5,0.01-0.75,0.14-0.75,0.4v2.69h-0.16l-3.66-2.77h-0.02v2.15c0,0.27,0.29,0.41,0.88,0.42
			v0.12h-2.02v-0.12c0.55-0.01,0.83-0.15,0.83-0.42v-2.29c-0.27-0.12-0.55-0.18-0.83-0.19v-0.12h1.43l3.22,2.45h0.02v-1.92
			c0-0.26-0.25-0.39-0.75-0.4v-0.12h1.81V41.46z"/>
		<path class="st21" d="M98.17,43.19l-1.02-1.59h-0.02l-1.03,1.59H98.17z M100.4,44.47h-2.41v-0.12c0.24,0,0.41-0.01,0.51-0.03
			c0.17-0.03,0.26-0.08,0.26-0.16l-0.05-0.14l-0.44-0.66H96l-0.35,0.54l-0.08,0.22c0,0.15,0.26,0.23,0.78,0.24v0.12h-2.08v-0.12
			c0.23,0,0.4-0.02,0.53-0.06c0.21-0.06,0.38-0.18,0.49-0.36l1.71-2.6l0.66-0.09l1.77,2.71c0.1,0.17,0.24,0.27,0.41,0.32
			c0.12,0.04,0.3,0.06,0.56,0.06V44.47z"/>
		<path class="st21" d="M98.17,43.19l-1.02-1.59h-0.02l-1.03,1.59H98.17z M100.4,44.47h-2.41v-0.12c0.24,0,0.41-0.01,0.51-0.03
			c0.17-0.03,0.26-0.08,0.26-0.16l-0.05-0.14l-0.44-0.66H96l-0.35,0.54l-0.08,0.22c0,0.15,0.26,0.23,0.78,0.24v0.12h-2.08v-0.12
			c0.23,0,0.4-0.02,0.53-0.06c0.21-0.06,0.38-0.18,0.49-0.36l1.71-2.6l0.66-0.09l1.77,2.71c0.1,0.17,0.24,0.27,0.41,0.32
			c0.12,0.04,0.3,0.06,0.56,0.06V44.47z"/>
		<path class="st21" d="M107.77,43.59c0,0.27-0.18,0.5-0.54,0.69c-0.35,0.18-0.79,0.27-1.31,0.27c-0.24,0-0.51-0.03-0.81-0.1
			c-0.17-0.04-0.31-0.06-0.42-0.06c-0.1,0-0.32,0.04-0.63,0.13l-0.6-0.8l0.22-0.05c0.84,0.49,1.6,0.73,2.28,0.73
			c0.33,0,0.63-0.06,0.87-0.19c0.25-0.12,0.37-0.27,0.37-0.45c0-0.22-0.17-0.38-0.52-0.5c-0.2-0.07-0.54-0.14-1.01-0.2
			c-0.66-0.09-1.13-0.18-1.39-0.28c-0.43-0.15-0.64-0.38-0.64-0.68c0-0.26,0.19-0.48,0.57-0.65c0.32-0.14,0.67-0.21,1.04-0.21
			c0.13,0,0.33,0.01,0.58,0.04c0.25,0.03,0.44,0.04,0.56,0.04c0.17,0,0.34-0.02,0.51-0.06l0.56,0.76l-0.22,0.05
			c-0.59-0.46-1.25-0.7-1.95-0.7c-0.33,0-0.61,0.06-0.83,0.17c-0.21,0.11-0.32,0.24-0.32,0.39c0,0.19,0.16,0.34,0.48,0.45
			c0.22,0.07,0.61,0.15,1.16,0.22c0.55,0.07,0.96,0.15,1.23,0.25C107.52,43.05,107.77,43.28,107.77,43.59"/>
		<path class="st21" d="M107.77,43.59c0,0.27-0.18,0.5-0.54,0.69c-0.35,0.18-0.79,0.27-1.31,0.27c-0.24,0-0.51-0.03-0.81-0.1
			c-0.17-0.04-0.31-0.06-0.42-0.06c-0.1,0-0.32,0.04-0.63,0.13l-0.6-0.8l0.22-0.05c0.84,0.49,1.6,0.73,2.28,0.73
			c0.33,0,0.63-0.06,0.87-0.19c0.25-0.12,0.37-0.27,0.37-0.45c0-0.22-0.17-0.38-0.52-0.5c-0.2-0.07-0.54-0.14-1.01-0.2
			c-0.66-0.09-1.13-0.18-1.39-0.28c-0.43-0.15-0.64-0.38-0.64-0.68c0-0.26,0.19-0.48,0.57-0.65c0.32-0.14,0.67-0.21,1.04-0.21
			c0.13,0,0.33,0.01,0.58,0.04c0.25,0.03,0.44,0.04,0.56,0.04c0.17,0,0.34-0.02,0.51-0.06l0.56,0.76l-0.22,0.05
			c-0.59-0.46-1.25-0.7-1.95-0.7c-0.33,0-0.61,0.06-0.83,0.17c-0.21,0.11-0.32,0.24-0.32,0.39c0,0.19,0.16,0.34,0.48,0.45
			c0.22,0.07,0.61,0.15,1.16,0.22c0.55,0.07,0.96,0.15,1.23,0.25C107.52,43.05,107.77,43.28,107.77,43.59z"/>
		<path class="st21" d="M109.29,44.29l-0.15,0.17c-0.09,0.05-0.21,0.07-0.35,0.07c-0.13,0-0.25-0.03-0.34-0.07l-0.14-0.17l0.14-0.17
			c0.09-0.04,0.2-0.07,0.34-0.07c0.14,0,0.26,0.02,0.36,0.07L109.29,44.29"/>
		<path class="st21" d="M109.29,44.29l-0.15,0.17c-0.09,0.05-0.21,0.07-0.35,0.07c-0.13,0-0.25-0.03-0.34-0.07l-0.14-0.17l0.14-0.17
			c0.09-0.04,0.2-0.07,0.34-0.07c0.14,0,0.26,0.02,0.36,0.07L109.29,44.29z"/>
		<path class="st21" d="M113.7,43.19l-1.02-1.59h-0.02l-1.03,1.59H113.7z M115.92,44.47h-2.41v-0.12c0.24,0,0.41-0.01,0.51-0.03
			c0.17-0.03,0.26-0.08,0.26-0.16l-0.05-0.14l-0.44-0.66h-2.27l-0.35,0.54l-0.08,0.22c0,0.15,0.26,0.23,0.78,0.24v0.12h-2.08v-0.12
			c0.23,0,0.4-0.02,0.53-0.06c0.21-0.06,0.38-0.18,0.49-0.36l1.71-2.6l0.66-0.09l1.77,2.71c0.1,0.17,0.24,0.27,0.41,0.32
			c0.12,0.04,0.3,0.06,0.56,0.06V44.47z"/>
		<path class="st21" d="M113.7,43.19l-1.02-1.59h-0.02l-1.03,1.59H113.7z M115.92,44.47h-2.41v-0.12c0.24,0,0.41-0.01,0.51-0.03
			c0.17-0.03,0.26-0.08,0.26-0.16l-0.05-0.14l-0.44-0.66h-2.27l-0.35,0.54l-0.08,0.22c0,0.15,0.26,0.23,0.78,0.24v0.12h-2.08v-0.12
			c0.23,0,0.4-0.02,0.53-0.06c0.21-0.06,0.38-0.18,0.49-0.36l1.71-2.6l0.66-0.09l1.77,2.71c0.1,0.17,0.24,0.27,0.41,0.32
			c0.12,0.04,0.3,0.06,0.56,0.06V44.47z"/>
		<path class="st21" d="M117.4,44.29l-0.15,0.17c-0.09,0.05-0.21,0.07-0.35,0.07c-0.13,0-0.25-0.03-0.34-0.07l-0.14-0.17l0.14-0.17
			c0.09-0.04,0.2-0.07,0.34-0.07c0.14,0,0.26,0.02,0.36,0.07L117.4,44.29"/>
		<g>
			<path class="st21" d="M117.4,44.29l-0.15,0.17c-0.09,0.05-0.21,0.07-0.35,0.07c-0.13,0-0.25-0.03-0.34-0.07l-0.14-0.17l0.14-0.17
				c0.09-0.04,0.2-0.07,0.34-0.07c0.14,0,0.26,0.02,0.36,0.07L117.4,44.29z"/>
		</g>
	</g>
</g>
<g id="Capa_6">
</g>
</svg>
