<?xml version="1.0" encoding="utf-8"?>
<!-- Generator: Adobe Illustrator 27.9.0, SVG Export Plug-In . SVG Version: 6.00 Build 0)  -->
<svg version="1.1" xmlns="http://www.w3.org/2000/svg" xmlns:xlink="http://www.w3.org/1999/xlink" x="0px" y="0px"
	 viewBox="0 0 23.4 15.42" style="enable-background:new 0 0 23.4 15.42;" xml:space="preserve">
<style type="text/css">
	.st0{fill:#F0F0F0;}
	.st1{display:none;}
	.st2{display:inline;fill:#1C1824;}
	.st3{fill:none;stroke:#D4D4D4;stroke-width:2.3506;stroke-miterlimit:10;}
	.st4{fill:none;stroke:#E3E3E3;stroke-width:0.5;stroke-miterlimit:10;}
	.st5{fill:none;stroke:#FFFFFE;stroke-width:0.8855;stroke-miterlimit:10;}
	.st6{fill:#FFFFFE;}
	.st7{fill:#16C0FE;}
	.st8{fill:#0000D7;}
	.st9{fill:#FFDE00;}
	.st10{fill:#6B6B6B;}
	.st11{fill:#696969;}
	.st12{fill:none;stroke:#474747;stroke-width:0.348;stroke-miterlimit:10;}
	.st13{fill:none;stroke:#474747;stroke-width:0.4442;stroke-miterlimit:10;}
	.st14{fill:none;stroke:#D2B356;stroke-width:5.9189;stroke-miterlimit:10;}
	.st15{fill:#D2B356;}
	.st16{fill:#FFFFFF;}
	.st17{fill:none;stroke:#000000;stroke-width:0.4956;stroke-miterlimit:10;}
	.st18{fill:none;stroke:#000000;stroke-width:1.6303;stroke-miterlimit:10;}
	.st19{fill:none;stroke:#A8A8A8;stroke-width:0.5;stroke-miterlimit:10;}
	.st20{display:inline;fill:none;stroke:#DBDBDB;stroke-width:0.4653;stroke-miterlimit:10;}
	.st21{fill:#303334;}
	.st22{clip-path:url(#SVGID_00000017509788103071265360000003883827497738966947_);fill:#B6B6B6;}
	.st23{fill-rule:evenodd;clip-rule:evenodd;fill:#303334;}
	.st24{fill:#262626;}
	.st25{fill:#424242;}
	.st26{fill:#595959;}
	.st27{fill:#A3A3A3;}
	.st28{fill:#606060;}
	.st29{fill:#848484;}
	.st30{fill:#040505;}
	.st31{fill-rule:evenodd;clip-rule:evenodd;fill:#2D2D2D;}
	.st32{fill-rule:evenodd;clip-rule:evenodd;fill:#989898;}
	.st33{fill:#4B4B4B;}
	.st34{fill:#373737;}
	.st35{fill:#1E1E1E;}
	.st36{clip-path:url(#SVGID_00000156561570251402452820000001379035737662960259_);}
	.st37{fill:#B29020;}
	.st38{clip-path:url(#SVGID_00000132085774088573551100000000673307074862267833_);}
	.st39{fill-rule:evenodd;clip-rule:evenodd;fill:#333333;}
	.st40{fill-rule:evenodd;clip-rule:evenodd;fill:#FFFFFF;}
	.st41{fill:#333333;}
	.st42{fill:#E3E3E3;}
	.st43{fill:#C7C7C7;}
	.st44{fill:#828282;}
	.st45{fill:#5D5D5D;}
	.st46{fill:#B7B7B7;}
	.st47{fill:#C1C1C1;}
	.st48{fill:#D9D9D9;}
	.st49{fill:#B2B2B2;}
	.st50{fill:#1D1D1D;}
	.st51{fill-rule:evenodd;clip-rule:evenodd;fill:#A8A8A8;}
	.st52{fill:#5C5C5C;}
	.st53{fill:#202020;}
	.st54{fill:#221F1F;}
	.st55{fill:#231F20;}
	.st56{fill:none;stroke:#221F1F;stroke-width:0.1371;}
	.st57{fill:#1D1D1B;}
	.st58{fill:#7A7A7A;}
	.st59{fill:none;stroke:#DBDBDB;stroke-width:0.4653;stroke-miterlimit:10;}
	.st60{clip-path:url(#SVGID_00000084495285437137295220000015086926512500477841_);fill:#B6B6B6;}
	.st61{clip-path:url(#SVGID_00000140729203370862468540000011482148055621877923_);}
	.st62{clip-path:url(#SVGID_00000168813189455672223130000018264321152942778557_);}
	.st63{fill:#A0A0A0;}
	.st64{fill-rule:evenodd;clip-rule:evenodd;fill:#D2B356;}
	.st65{fill:#9E9E9E;}
	.st66{clip-path:url(#SVGID_00000042730607865810472510000002894694023043056006_);}
	.st67{clip-path:url(#SVGID_00000158014961080825563610000011224748060984130715_);}
	.st68{clip-path:url(#SVGID_00000030447703600897769260000016720436078920421555_);}
	.st69{fill:#212121;}
</style>
<g id="Capa_2">
</g>
<g id="Capa_7" class="st1">
	<rect x="-570.43" y="-26.98" class="st2" width="884.26" height="136.12"/>
</g>
<g id="Capa_1">
</g>
<g id="lineas-logos">
</g>
<g id="marco-logos" class="st1">
</g>
<g id="logos">
	<rect x="0.15" y="2.72" class="st6" width="23.05" height="12.52"/>
	<rect x="0.15" y="12.69" class="st8" width="23.05" height="1.35"/>
	<rect x="0.15" y="9.89" class="st8" width="23.05" height="1.35"/>
	<rect x="8.86" y="7.09" class="st8" width="14.34" height="1.35"/>
	<rect x="8.86" y="4.29" class="st8" width="14.34" height="1.35"/>
	<polygon class="st9" points="4.4,3.51 4.59,4.91 5.14,3.61 4.95,5.01 5.83,3.91 5.27,5.2 6.42,4.39 5.53,5.48 6.85,5.01 5.7,5.81 
		7.1,5.71 5.78,6.18 7.16,6.47 5.75,6.56 7,7.2 5.63,6.91 6.66,7.87 5.41,7.22 6.14,8.42 5.12,7.46 5.5,8.81 4.77,7.61 4.77,9.02 
		4.4,7.66 4.02,9.02 4.02,7.61 3.3,8.81 3.68,7.46 2.65,8.42 3.39,7.22 2.14,7.87 3.17,6.91 1.79,7.2 3.04,6.56 1.64,6.47 
		3.02,6.18 1.69,5.71 3.09,5.81 1.94,5.01 3.27,5.48 2.38,4.39 3.52,5.2 2.96,3.91 3.85,5.01 3.65,3.61 4.21,4.91 	"/>
</g>
<g id="Capa_6">
</g>
</svg>
