<?xml version="1.0" encoding="utf-8"?>
<!-- Generator: Adobe Illustrator 27.9.0, SVG Export Plug-In . SVG Version: 6.00 Build 0)  -->
<svg version="1.1" xmlns="http://www.w3.org/2000/svg" xmlns:xlink="http://www.w3.org/1999/xlink" x="0px" y="0px"
	 viewBox="0 0 19.18 15.42" style="enable-background:new 0 0 19.18 15.42;" xml:space="preserve">
<style type="text/css">
	.st0{fill:#F0F0F0;}
	.st1{display:none;}
	.st2{display:inline;fill:#1C1824;}
	.st3{fill:none;stroke:#D4D4D4;stroke-width:2.3506;stroke-miterlimit:10;}
	.st4{fill:none;stroke:#E3E3E3;stroke-width:0.5;stroke-miterlimit:10;}
	.st5{fill:none;stroke:#FFFFFE;stroke-width:0.8855;stroke-miterlimit:10;}
	.st6{fill:#FFFFFE;}
	.st7{fill:#16C0FE;}
	.st8{fill:#0000D7;}
	.st9{fill:#FFDE00;}
	.st10{fill:#6B6B6B;}
	.st11{fill:#696969;}
	.st12{fill:none;stroke:#474747;stroke-width:0.348;stroke-miterlimit:10;}
	.st13{fill:none;stroke:#474747;stroke-width:0.4442;stroke-miterlimit:10;}
	.st14{fill:none;stroke:#D2B356;stroke-width:5.9189;stroke-miterlimit:10;}
	.st15{fill:#D2B356;}
	.st16{fill:#FFFFFF;}
	.st17{fill:none;stroke:#000000;stroke-width:0.4956;stroke-miterlimit:10;}
	.st18{fill:none;stroke:#000000;stroke-width:1.6303;stroke-miterlimit:10;}
	.st19{fill:none;stroke:#A8A8A8;stroke-width:0.5;stroke-miterlimit:10;}
	.st20{display:inline;fill:none;stroke:#DBDBDB;stroke-width:0.4653;stroke-miterlimit:10;}
	.st21{fill:#303334;}
	.st22{clip-path:url(#SVGID_00000076604750752788087450000001758631849793916819_);fill:#B6B6B6;}
	.st23{fill-rule:evenodd;clip-rule:evenodd;fill:#303334;}
	.st24{fill:#262626;}
	.st25{fill:#424242;}
	.st26{fill:#595959;}
	.st27{fill:#A3A3A3;}
	.st28{fill:#606060;}
	.st29{fill:#848484;}
	.st30{fill:#040505;}
	.st31{fill-rule:evenodd;clip-rule:evenodd;fill:#2D2D2D;}
	.st32{fill-rule:evenodd;clip-rule:evenodd;fill:#989898;}
	.st33{fill:#4B4B4B;}
	.st34{fill:#373737;}
	.st35{fill:#1E1E1E;}
	.st36{clip-path:url(#SVGID_00000118361758080732032980000013052331022436266914_);}
	.st37{fill:#B29020;}
	.st38{clip-path:url(#SVGID_00000126315359222509982520000001032834222407670702_);}
	.st39{fill-rule:evenodd;clip-rule:evenodd;fill:#333333;}
	.st40{fill-rule:evenodd;clip-rule:evenodd;fill:#FFFFFF;}
	.st41{fill:#333333;}
	.st42{fill:#E3E3E3;}
	.st43{fill:#C7C7C7;}
	.st44{fill:#828282;}
	.st45{fill:#5D5D5D;}
	.st46{fill:#B7B7B7;}
	.st47{fill:#C1C1C1;}
	.st48{fill:#D9D9D9;}
	.st49{fill:#B2B2B2;}
	.st50{fill:#1D1D1D;}
	.st51{fill-rule:evenodd;clip-rule:evenodd;fill:#A8A8A8;}
	.st52{fill:#5C5C5C;}
	.st53{fill:#202020;}
	.st54{fill:#221F1F;}
	.st55{fill:#231F20;}
	.st56{fill:none;stroke:#221F1F;stroke-width:0.1371;}
	.st57{fill:#1D1D1B;}
	.st58{fill:#7A7A7A;}
	.st59{fill:none;stroke:#DBDBDB;stroke-width:0.4653;stroke-miterlimit:10;}
	.st60{clip-path:url(#SVGID_00000091737198070806187830000007932438230172321975_);fill:#B6B6B6;}
	.st61{clip-path:url(#SVGID_00000178890716090510465870000017109179038774426549_);}
	.st62{clip-path:url(#SVGID_00000098914641606121405170000011799537181121391262_);}
	.st63{fill:#A0A0A0;}
	.st64{fill-rule:evenodd;clip-rule:evenodd;fill:#D2B356;}
	.st65{fill:#9E9E9E;}
	.st66{clip-path:url(#SVGID_00000074415398071282462830000014525668293162616201_);}
	.st67{clip-path:url(#SVGID_00000080894777528324227620000005014386460961895567_);}
	.st68{clip-path:url(#SVGID_00000178911600208827373680000011851778423215096972_);}
	.st69{fill:#212121;}
</style>
<g id="Capa_2">
</g>
<g id="Capa_7" class="st1">
	<rect x="-508.51" y="-26.98" class="st2" width="884.26" height="136.12"/>
</g>
<g id="Capa_1">
</g>
<g id="lineas-logos">
</g>
<g id="marco-logos" class="st1">
</g>
<g id="logos">
	<g>
		<path class="st65" d="M13.54,2.88H5.27c-0.57,0-1.03,0.46-1.03,1.03v8.27c0,0.57,0.46,1.03,1.03,1.03h8.27
			c0.57,0,1.03-0.46,1.03-1.03V3.92C14.57,3.35,14.11,2.88,13.54,2.88L13.54,2.88z M9.41,5.99c1.14,0,2.07,0.93,2.07,2.07
			c0,1.14-0.93,2.07-2.07,2.07c-1.14,0-2.07-0.93-2.07-2.07C7.34,6.91,8.27,5.99,9.41,5.99L9.41,5.99z M5.53,12.19
			c-0.15,0-0.26-0.1-0.26-0.26V7.54h1.09C6.3,7.69,6.3,7.9,6.3,8.05c0,1.71,1.4,3.1,3.1,3.1c1.71,0,3.1-1.4,3.1-3.1
			c0-0.15,0-0.36-0.05-0.52h1.09v4.39c0,0.15-0.1,0.26-0.26,0.26H5.53z M13.54,5.21c0,0.15-0.1,0.26-0.26,0.26h-1.03
			c-0.15,0-0.26-0.1-0.26-0.26V4.18c0-0.15,0.1-0.26,0.26-0.26h1.03c0.15,0,0.26,0.1,0.26,0.26V5.21z M13.54,5.21"/>
	</g>
</g>
<g id="Capa_6">
</g>
</svg>
