<?xml version="1.0" encoding="utf-8"?>
<!-- Generator: Adobe Illustrator 27.9.0, SVG Export Plug-In . SVG Version: 6.00 Build 0)  -->
<svg version="1.1" xmlns="http://www.w3.org/2000/svg" xmlns:xlink="http://www.w3.org/1999/xlink" x="0px" y="0px"
	 viewBox="0 0 126.08 75.06" style="enable-background:new 0 0 126.08 75.06;" xml:space="preserve">
<style type="text/css">
	.st0{fill:#F0F0F0;}
	.st1{display:none;}
	.st2{display:inline;fill:#1C1824;}
	.st3{fill:none;stroke:#D4D4D4;stroke-width:2.3506;stroke-miterlimit:10;}
	.st4{fill:none;stroke:#E3E3E3;stroke-width:0.5;stroke-miterlimit:10;}
	.st5{fill:none;stroke:#FFFFFE;stroke-width:0.8855;stroke-miterlimit:10;}
	.st6{fill:#FFFFFE;}
	.st7{fill:#16C0FE;}
	.st8{fill:#0000D7;}
	.st9{fill:#FFDE00;}
	.st10{fill:#6B6B6B;}
	.st11{fill:#696969;}
	.st12{fill:none;stroke:#474747;stroke-width:0.348;stroke-miterlimit:10;}
	.st13{fill:none;stroke:#474747;stroke-width:0.4442;stroke-miterlimit:10;}
	.st14{fill:none;stroke:#D2B356;stroke-width:5.9189;stroke-miterlimit:10;}
	.st15{fill:#D2B356;}
	.st16{fill:#FFFFFF;}
	.st17{fill:none;stroke:#000000;stroke-width:0.4956;stroke-miterlimit:10;}
	.st18{fill:none;stroke:#000000;stroke-width:1.6303;stroke-miterlimit:10;}
	.st19{fill:none;stroke:#A8A8A8;stroke-width:0.5;stroke-miterlimit:10;}
	.st20{display:inline;fill:none;stroke:#DBDBDB;stroke-width:0.4653;stroke-miterlimit:10;}
	.st21{fill:#303334;}
	.st22{clip-path:url(#SVGID_00000024702357453968349410000004103605936880802720_);fill:#B6B6B6;}
	.st23{fill-rule:evenodd;clip-rule:evenodd;fill:#303334;}
	.st24{fill:#262626;}
	.st25{fill:#424242;}
	.st26{fill:#595959;}
	.st27{fill:#A3A3A3;}
	.st28{fill:#606060;}
	.st29{fill:#848484;}
	.st30{fill:#040505;}
	.st31{fill-rule:evenodd;clip-rule:evenodd;fill:#2D2D2D;}
	.st32{fill-rule:evenodd;clip-rule:evenodd;fill:#989898;}
	.st33{fill:#4B4B4B;}
	.st34{fill:#373737;}
	.st35{fill:#1E1E1E;}
	.st36{clip-path:url(#SVGID_00000113312689661219720660000015300809188246058133_);}
	.st37{fill:#B29020;}
	.st38{clip-path:url(#SVGID_00000104679741245037306260000017207387142461532300_);}
	.st39{fill-rule:evenodd;clip-rule:evenodd;fill:#333333;}
	.st40{fill-rule:evenodd;clip-rule:evenodd;fill:#FFFFFF;}
	.st41{fill:#333333;}
	.st42{fill:#E3E3E3;}
	.st43{fill:#C7C7C7;}
	.st44{fill:#828282;}
	.st45{fill:#5D5D5D;}
	.st46{fill:#B7B7B7;}
	.st47{fill:#C1C1C1;}
	.st48{fill:#D9D9D9;}
	.st49{fill:#B2B2B2;}
	.st50{fill:#1D1D1D;}
	.st51{fill-rule:evenodd;clip-rule:evenodd;fill:#A8A8A8;}
	.st52{fill:#5C5C5C;}
	.st53{fill:#202020;}
	.st54{fill:#221F1F;}
	.st55{fill:#231F20;}
	.st56{fill:none;stroke:#221F1F;stroke-width:0.1371;}
	.st57{fill:#1D1D1B;}
	.st58{fill:#7A7A7A;}
	.st59{fill:none;stroke:#DBDBDB;stroke-width:0.4653;stroke-miterlimit:10;}
	.st60{clip-path:url(#SVGID_00000028306413762695446130000007892972228980938644_);fill:#B6B6B6;}
	.st61{clip-path:url(#SVGID_00000180339158680174807960000007079847857672348565_);}
	.st62{clip-path:url(#SVGID_00000137115599813832177550000017207393685022035360_);}
	.st63{fill:#A0A0A0;}
	.st64{fill-rule:evenodd;clip-rule:evenodd;fill:#D2B356;}
	.st65{fill:#9E9E9E;}
	.st66{clip-path:url(#SVGID_00000103230233110760037940000016771622858909169796_);}
	.st67{clip-path:url(#SVGID_00000166653997774244848580000012256190814360537729_);}
	.st68{clip-path:url(#SVGID_00000154391869380377509090000010321210556612901036_);}
	.st69{fill:#212121;}
</style>
<g id="Capa_2">
</g>
<g id="Capa_7" class="st1">
</g>
<g id="Capa_1">
</g>
<g id="lineas-logos">
</g>
<g id="marco-logos" class="st1">
</g>
<g id="logos">
	<rect x="-0.07" y="-0.42" class="st59" width="126.08" height="75.06"/>
	<g>
		<g>
			<g>
				<g>
					<path class="st21" d="M73.6,28.24h0.45v3.55h2.23v0.41H73.6V28.24z"/>
					<path class="st21" d="M77.39,30.23v-0.01c0-1.09,0.82-2.05,2.03-2.05c1.21,0,2.02,0.95,2.02,2.04v0.01
						c0,1.09-0.82,2.05-2.03,2.05C78.2,32.27,77.39,31.32,77.39,30.23z M80.97,30.23v-0.01c0-0.9-0.66-1.64-1.56-1.64
						c-0.91,0-1.55,0.73-1.55,1.63v0.01c0,0.9,0.66,1.64,1.56,1.64C80.32,31.86,80.97,31.13,80.97,30.23z"/>
					<path class="st21" d="M82.88,30.23v-0.01c0-1.09,0.8-2.05,1.99-2.05c0.67,0,1.08,0.19,1.48,0.53l-0.29,0.34
						c-0.31-0.27-0.65-0.45-1.21-0.45c-0.88,0-1.51,0.74-1.51,1.63v0.01c0,0.95,0.61,1.65,1.57,1.65c0.45,0,0.87-0.18,1.14-0.4
						v-0.99h-1.21v-0.4h1.64v1.58c-0.37,0.33-0.92,0.61-1.59,0.61C83.65,32.27,82.88,31.36,82.88,30.23z"/>
					<path class="st21" d="M88.22,28.24h0.45v3.97h-0.45V28.24z M88.83,27.15l0.45,0.2l-0.65,0.53h-0.36L88.83,27.15z"/>
					<path class="st21" d="M90.25,31.62l0.28-0.33c0.41,0.37,0.81,0.56,1.36,0.56c0.53,0,0.88-0.28,0.88-0.67v-0.01
						c0-0.37-0.2-0.58-1.03-0.75c-0.91-0.2-1.33-0.49-1.33-1.14v-0.01c0-0.62,0.55-1.08,1.3-1.08c0.58,0,0.99,0.16,1.39,0.49
						l-0.26,0.35c-0.37-0.3-0.74-0.43-1.14-0.43c-0.52,0-0.84,0.28-0.84,0.64v0.01c0,0.37,0.2,0.58,1.08,0.77
						c0.88,0.19,1.29,0.52,1.29,1.12v0.01c0,0.68-0.57,1.12-1.35,1.12C91.24,32.26,90.73,32.05,90.25,31.62z"/>
					<path class="st21" d="M95.78,28.65h-1.33v-0.41h3.12v0.41h-1.33v3.55h-0.45V28.65z"/>
					<path class="st21" d="M99.12,28.24h0.45v3.97h-0.45V28.24z"/>
					<path class="st21" d="M101.24,30.23v-0.01c0-1.12,0.84-2.05,2.01-2.05c0.72,0,1.15,0.25,1.55,0.63l-0.31,0.33
						c-0.33-0.32-0.71-0.54-1.25-0.54c-0.88,0-1.54,0.71-1.54,1.63v0.01c0,0.92,0.66,1.64,1.54,1.64c0.54,0,0.9-0.21,1.28-0.57
						l0.29,0.29c-0.41,0.42-0.87,0.7-1.59,0.7C102.08,32.27,101.24,31.37,101.24,30.23z"/>
					<path class="st21" d="M107.74,28.21h0.42l1.81,3.99h-0.48l-0.46-1.05h-2.16l-0.47,1.05h-0.46L107.74,28.21z M108.85,30.75
						l-0.9-2.02l-0.91,2.02H108.85z"/>
					<path class="st21" d="M73.87,34.1h0.45v3.97h-0.45V34.1z"/>
					<path class="st21" d="M76.16,34.1h0.42l2.5,3.18V34.1h0.44v3.97h-0.36l-2.56-3.25v3.25h-0.44V34.1z"/>
					<path class="st21" d="M82.36,34.51h-1.33V34.1h3.12v0.41h-1.33v3.55h-0.45V34.51z"/>
					<path class="st21" d="M85.67,34.1h2.87v0.41h-2.42v1.35h2.16v0.41h-2.16v1.39h2.45v0.41h-2.89V34.1z"/>
					<path class="st21" d="M89.97,36.09v-0.01c0-1.09,0.8-2.05,1.99-2.05c0.67,0,1.08,0.19,1.48,0.53l-0.29,0.34
						c-0.31-0.27-0.65-0.45-1.21-0.45c-0.88,0-1.51,0.74-1.51,1.63v0.01c0,0.95,0.61,1.65,1.57,1.65c0.45,0,0.87-0.18,1.14-0.4
						v-0.99h-1.21v-0.4h1.64v1.58c-0.37,0.33-0.92,0.61-1.59,0.61C90.74,38.13,89.97,37.22,89.97,36.09z"/>
					<path class="st21" d="M95.26,34.1h1.7c0.49,0,0.88,0.15,1.13,0.4c0.19,0.19,0.31,0.47,0.31,0.78v0.01
						c0,0.66-0.45,1.04-1.08,1.16l1.22,1.62h-0.55l-1.15-1.54h-1.13v1.54h-0.45V34.1z M96.93,36.12c0.59,0,1.02-0.31,1.02-0.82
						v-0.01c0-0.49-0.37-0.78-1.01-0.78h-1.22v1.61H96.93z"/>
					<path class="st21" d="M101.51,34.07h0.42l1.81,3.99h-0.48l-0.46-1.05h-2.16l-0.47,1.05H99.7L101.51,34.07z M102.61,36.61
						l-0.9-2.02l-0.91,2.02H102.61z"/>
					<path class="st21" d="M105.2,34.1h0.45v3.55h2.23v0.41h-2.68V34.1z"/>
					<path class="st21" d="M73.83,39.96h1.38c1.25,0,2.11,0.86,2.11,1.97v0.01c0,1.12-0.86,1.98-2.11,1.98h-1.38V39.96z M75.2,43.51
						c1,0,1.64-0.68,1.64-1.56v-0.01c0-0.88-0.64-1.57-1.64-1.57h-0.93v3.14H75.2z"/>
					<path class="st21" d="M78.15,39.96h2.87v0.41h-2.42v1.35h2.16v0.41h-2.16v1.39h2.45v0.41h-2.89V39.96z"/>
					<path class="st21" d="M83.47,41.95v-0.01c0-1.09,0.8-2.05,1.99-2.05c0.67,0,1.08,0.19,1.48,0.53l-0.29,0.34
						c-0.31-0.27-0.65-0.45-1.21-0.45c-0.88,0-1.51,0.74-1.51,1.63v0.01c0,0.95,0.61,1.65,1.57,1.65c0.45,0,0.87-0.18,1.14-0.4V42.2
						h-1.21v-0.4h1.64v1.58c-0.37,0.33-0.92,0.61-1.59,0.61C84.24,43.99,83.47,43.08,83.47,41.95z"/>
					<path class="st21" d="M88.42,39.96h1.71c0.49,0,0.88,0.15,1.13,0.4c0.19,0.19,0.31,0.47,0.31,0.78v0.01
						c0,0.66-0.45,1.04-1.08,1.16l1.22,1.62h-0.55l-1.15-1.54h-1.13v1.54h-0.45V39.96z M90.09,41.98c0.59,0,1.02-0.31,1.02-0.82
						v-0.01c0-0.49-0.37-0.78-1.01-0.78h-1.22v1.61H90.09z"/>
					<path class="st21" d="M94.33,39.93h0.42l1.81,3.99h-0.48l-0.46-1.05h-2.16l-0.47,1.05h-0.46L94.33,39.93z M95.43,42.47
						l-0.9-2.02l-0.91,2.02H95.43z"/>
					<path class="st21" d="M97.68,39.96h0.42l2.5,3.18v-3.18h0.44v3.97h-0.36l-2.56-3.25v3.25h-0.44V39.96z"/>
					<path class="st21" d="M102.5,39.96h2.87v0.41h-2.42v1.35h2.16v0.41h-2.16v1.39h2.45v0.41h-2.89V39.96z"/>
					<path class="st21" d="M106.63,39.96h0.45v3.55h2.23v0.41h-2.68V39.96z"/>
					<path class="st21" d="M110.48,39.96h2.87v0.41h-2.42v1.35h2.16v0.41h-2.16v1.39h2.45v0.41h-2.89V39.96z"/>
					<path class="st21" d="M114.36,43.34l0.28-0.33c0.41,0.37,0.81,0.56,1.36,0.56c0.53,0,0.88-0.28,0.88-0.67v-0.01
						c0-0.37-0.2-0.58-1.03-0.75c-0.91-0.2-1.33-0.49-1.33-1.14v-0.01c0-0.62,0.55-1.08,1.3-1.08c0.58,0,0.99,0.16,1.39,0.49
						l-0.26,0.35c-0.37-0.3-0.74-0.43-1.14-0.43c-0.52,0-0.84,0.28-0.84,0.64v0.01c0,0.37,0.2,0.58,1.08,0.77
						c0.88,0.19,1.29,0.52,1.29,1.12v0.01c0,0.68-0.57,1.12-1.35,1.12C115.35,43.98,114.83,43.77,114.36,43.34z"/>
				</g>
			</g>
		</g>
		<g>
			<g>
				<path class="st21" d="M18.42,38.29h2.35c1.41,0,2.35,0.75,2.35,1.99v0.02c0,1.35-1.13,2.05-2.46,2.05h-1.52v2.21h-0.71V38.29z
					 M20.68,41.7c1.04,0,1.72-0.55,1.72-1.38v-0.02c0-0.9-0.67-1.36-1.68-1.36h-1.58v2.76H20.68z"/>
				<path class="st21" d="M27.8,38.25h0.66l2.86,6.31h-0.76l-0.73-1.66h-3.41l-0.74,1.66h-0.73L27.8,38.25z M29.54,42.27l-1.42-3.2
					l-1.43,3.2H29.54z"/>
				<path class="st21" d="M33.63,38.29h0.72l2.28,3.42l2.28-3.42h0.72v6.27h-0.71v-5.08l-2.28,3.36H36.6l-2.28-3.35v5.07h-0.69
					V38.29z"/>
				<path class="st21" d="M42.24,43.65l0.44-0.52c0.65,0.59,1.28,0.89,2.15,0.89c0.84,0,1.4-0.45,1.4-1.07v-0.02
					c0-0.58-0.31-0.91-1.63-1.19c-1.44-0.31-2.1-0.78-2.1-1.81v-0.02c0-0.98,0.87-1.71,2.06-1.71c0.91,0,1.57,0.26,2.2,0.77
					l-0.41,0.55c-0.58-0.47-1.16-0.68-1.81-0.68c-0.81,0-1.33,0.45-1.33,1.01v0.02c0,0.59,0.32,0.92,1.7,1.22
					c1.4,0.3,2.04,0.81,2.04,1.77v0.02c0,1.07-0.9,1.77-2.14,1.77C43.81,44.65,42.99,44.32,42.24,43.65z"/>
				<path class="st21" d="M51.96,38.25h0.66l2.86,6.31h-0.76l-0.73-1.66h-3.41l-0.74,1.66H49.1L51.96,38.25z M53.7,42.27l-1.42-3.2
					l-1.43,3.2H53.7z"/>
			</g>
		</g>
		<g>
			<g>
				<path class="st21" d="M50.11,30.32C50.11,30.32,50.11,30.32,50.11,30.32c-0.01,0-0.01,0-0.02,0h-1.06c-0.16,0-0.3-0.13-0.3-0.3
					v-0.7c0-0.53-0.44-0.97-0.97-0.97h-0.2c-0.12,0-0.24-0.08-0.28-0.19c-0.28-0.8-1.1-1.99-2.68-1.99c-1.59,0-2.41,1.19-2.69,1.99
					c-0.04,0.12-0.15,0.19-0.28,0.19h-2.22c-0.36,0-0.64,0.27-0.67,0.62l0,0.4c0,0.16-0.13,0.3-0.3,0.29l-2.26,0
					c-0.23,0-0.37,0.25-0.25,0.45l1.87,3.08c0.05,0.09,0.15,0.14,0.25,0.14h16.95c0.1,0,0.2-0.05,0.25-0.14l3.09-5.08
					c0.13-0.21-0.04-0.48-0.29-0.45l-7.3,0.82c-0.12,0.01-0.22,0.1-0.25,0.22L50.11,30.32z M44.61,26.93c0.72,0,1.2,0.33,1.51,0.69
					c0.17,0.2,0.04,0.5-0.22,0.5h-2.59c-0.26,0-0.39-0.3-0.22-0.5C43.4,27.26,43.88,26.93,44.61,26.93"/>
			</g>
		</g>
		<path class="st21" d="M36.83,62.84c-16.38,0-29.23-15.38-24.88-32.46c2.1-8.25,8.23-14.95,16.32-17.62
			c11.86-3.91,23.92,0.65,30.21,10.41c0.04,0.07,0.02,0.16-0.05,0.21l-1.71,1.09c-0.07,0.04-0.15,0.02-0.2-0.04
			c-4.53-7.02-12.34-11.09-20.75-10.72c-12.42,0.55-22.33,10.91-22.36,23.34C13.38,49.99,23.9,60.53,36.83,60.53
			c12.91,0,23.42-10.5,23.42-23.42c0-0.68-0.03-1.36-0.09-2.04c-0.01-0.14,0.09-0.26,0.23-0.28l1.79-0.17
			c0.15-0.01,0.28,0.09,0.29,0.24c0.06,0.75,0.1,1.5,0.1,2.25C62.56,51.3,51.02,62.84,36.83,62.84z"/>
	</g>
</g>
<g id="Capa_6">
</g>
</svg>
