<?xml version="1.0" encoding="utf-8"?>
<!-- Generator: Adobe Illustrator 27.9.0, SVG Export Plug-In . SVG Version: 6.00 Build 0)  -->
<svg version="1.1" xmlns="http://www.w3.org/2000/svg" xmlns:xlink="http://www.w3.org/1999/xlink" x="0px" y="0px"
	 viewBox="0 0 126.08 75.06" style="enable-background:new 0 0 126.08 75.06;" xml:space="preserve">
<style type="text/css">
	.st0{fill:#F0F0F0;}
	.st1{display:none;}
	.st2{display:inline;fill:#1C1824;}
	.st3{fill:none;stroke:#D4D4D4;stroke-width:2.3506;stroke-miterlimit:10;}
	.st4{fill:none;stroke:#E3E3E3;stroke-width:0.5;stroke-miterlimit:10;}
	.st5{fill:none;stroke:#FFFFFE;stroke-width:0.8855;stroke-miterlimit:10;}
	.st6{fill:#FFFFFE;}
	.st7{fill:#16C0FE;}
	.st8{fill:#0000D7;}
	.st9{fill:#FFDE00;}
	.st10{fill:#6B6B6B;}
	.st11{fill:#696969;}
	.st12{fill:none;stroke:#474747;stroke-width:0.348;stroke-miterlimit:10;}
	.st13{fill:none;stroke:#474747;stroke-width:0.4442;stroke-miterlimit:10;}
	.st14{fill:none;stroke:#D2B356;stroke-width:5.9189;stroke-miterlimit:10;}
	.st15{fill:#D2B356;}
	.st16{fill:#FFFFFF;}
	.st17{fill:none;stroke:#000000;stroke-width:0.4956;stroke-miterlimit:10;}
	.st18{fill:none;stroke:#000000;stroke-width:1.6303;stroke-miterlimit:10;}
	.st19{fill:none;stroke:#A8A8A8;stroke-width:0.5;stroke-miterlimit:10;}
	.st20{display:inline;fill:none;stroke:#DBDBDB;stroke-width:0.4653;stroke-miterlimit:10;}
	.st21{fill:#303334;}
	.st22{clip-path:url(#SVGID_00000008130428155388701150000003133676781953825422_);fill:#B6B6B6;}
	.st23{fill-rule:evenodd;clip-rule:evenodd;fill:#303334;}
	.st24{fill:#262626;}
	.st25{fill:#424242;}
	.st26{fill:#595959;}
	.st27{fill:#A3A3A3;}
	.st28{fill:#606060;}
	.st29{fill:#848484;}
	.st30{fill:#040505;}
	.st31{fill-rule:evenodd;clip-rule:evenodd;fill:#2D2D2D;}
	.st32{fill-rule:evenodd;clip-rule:evenodd;fill:#989898;}
	.st33{fill:#4B4B4B;}
	.st34{fill:#373737;}
	.st35{fill:#1E1E1E;}
	.st36{clip-path:url(#SVGID_00000096749414069713304850000005579121217277417871_);}
	.st37{fill:#B29020;}
	.st38{clip-path:url(#SVGID_00000000938453362991185760000003461049859294617741_);}
	.st39{fill-rule:evenodd;clip-rule:evenodd;fill:#333333;}
	.st40{fill-rule:evenodd;clip-rule:evenodd;fill:#FFFFFF;}
	.st41{fill:#333333;}
	.st42{fill:#E3E3E3;}
	.st43{fill:#C7C7C7;}
	.st44{fill:#828282;}
	.st45{fill:#5D5D5D;}
	.st46{fill:#B7B7B7;}
	.st47{fill:#C1C1C1;}
	.st48{fill:#D9D9D9;}
	.st49{fill:#B2B2B2;}
	.st50{fill:#1D1D1D;}
	.st51{fill-rule:evenodd;clip-rule:evenodd;fill:#A8A8A8;}
	.st52{fill:#5C5C5C;}
	.st53{fill:#202020;}
	.st54{fill:#221F1F;}
	.st55{fill:#231F20;}
	.st56{fill:none;stroke:#221F1F;stroke-width:0.1371;}
	.st57{fill:#1D1D1B;}
	.st58{fill:#7A7A7A;}
	.st59{fill:none;stroke:#DBDBDB;stroke-width:0.4653;stroke-miterlimit:10;}
	.st60{clip-path:url(#SVGID_00000155849700658296973830000017007767951766763697_);fill:#B6B6B6;}
	.st61{clip-path:url(#SVGID_00000061461945262744830620000004164648170333458596_);}
	.st62{clip-path:url(#SVGID_00000049914877683416084080000006111850910971687823_);}
	.st63{fill:#A0A0A0;}
	.st64{fill-rule:evenodd;clip-rule:evenodd;fill:#D2B356;}
	.st65{fill:#9E9E9E;}
	.st66{clip-path:url(#SVGID_00000183949426331615741060000010315595782700543112_);}
	.st67{clip-path:url(#SVGID_00000158006177776111632300000010315255738184296576_);}
	.st68{clip-path:url(#SVGID_00000181779768340351319120000000613952135710903435_);}
	.st69{fill:#212121;}
</style>
<g id="Capa_2">
</g>
<g id="Capa_7" class="st1">
</g>
<g id="Capa_1">
</g>
<g id="lineas-logos">
</g>
<g id="marco-logos" class="st1">
</g>
<g id="logos">
	<rect x="0.06" y="-0.13" class="st59" width="126.08" height="75.06"/>
	<g>
		<g>
			<path class="st42" d="M56.68,16.48l0.09,0.09c0.11,0.11,0.21,0.22,0.32,0.34l0.09,0.1c0.07,0.08,0.15,0.17,0.22,0.25l0.1,0.12
				c0.08,0.1,0.15,0.18,0.21,0.26l0.11,0.14c0.07,0.09,0.14,0.18,0.2,0.27l0.08,0.11c0.09,0.13,0.19,0.26,0.28,0.39l0.05,0.08
				c0.07,0.11,0.14,0.21,0.21,0.32l0.09,0.14c0.01,0.01,0.01,0.02,0.02,0.04l1.53-6.52h-9.94c0.02,0.01,0.04,0.01,0.06,0.02
				c0.09,0.03,0.19,0.06,0.28,0.09c0.07,0.02,0.12,0.04,0.17,0.06c0.1,0.03,0.19,0.07,0.29,0.11l0.15,0.06
				c0.14,0.05,0.28,0.11,0.42,0.17l0.12,0.05c0.1,0.05,0.21,0.09,0.31,0.14l0.16,0.08c0.09,0.04,0.17,0.08,0.26,0.13l0.17,0.09
				c0.09,0.05,0.17,0.09,0.26,0.14l0.15,0.08c0.12,0.07,0.24,0.14,0.36,0.21l0.1,0.06c0.11,0.07,0.22,0.13,0.33,0.2l0.13,0.08
				c0.1,0.07,0.18,0.12,0.26,0.17c0.05,0.04,0.1,0.07,0.16,0.11c0.08,0.06,0.16,0.11,0.24,0.17c0.06,0.04,0.1,0.07,0.14,0.1
				c0.1,0.07,0.19,0.14,0.29,0.22l0.08,0.07c0.12,0.09,0.24,0.19,0.35,0.29l0.12,0.11c0.08,0.07,0.16,0.13,0.23,0.2l0.14,0.12
				c0.07,0.07,0.15,0.14,0.22,0.2l0.13,0.12C56.52,16.32,56.6,16.4,56.68,16.48z"/>
			<path class="st42" d="M35.31,15.92c0.13-0.12,0.25-0.23,0.38-0.34l0.03-0.03c0.12-0.1,0.25-0.21,0.37-0.31l0.1-0.08
				c0.13-0.1,0.27-0.21,0.4-0.31l0.05-0.04c0.12-0.09,0.25-0.18,0.37-0.26l0.1-0.07c0.14-0.09,0.28-0.19,0.42-0.27l0.07-0.04
				c0.13-0.08,0.25-0.16,0.38-0.23l0.09-0.05c0.15-0.08,0.29-0.16,0.44-0.24l0.08-0.04c0.13-0.07,0.26-0.13,0.4-0.2l0.09-0.04
				c0.15-0.07,0.3-0.14,0.46-0.21l0.09-0.04c0.14-0.06,0.27-0.12,0.41-0.17l0.08-0.03c0.16-0.06,0.31-0.12,0.47-0.17l0.1-0.03
				c0.11-0.04,0.22-0.07,0.33-0.11H31.02v10.02c0.04-0.12,0.08-0.24,0.12-0.36l0.04-0.11c0.06-0.16,0.11-0.32,0.18-0.48
				c0.06-0.16,0.13-0.32,0.2-0.47l0.05-0.11c0.07-0.15,0.14-0.31,0.21-0.46l0.03-0.06c0.07-0.14,0.14-0.27,0.21-0.41l0.06-0.11
				c0.08-0.15,0.16-0.29,0.24-0.44l0.05-0.08c0.07-0.13,0.15-0.25,0.23-0.38l0.06-0.09c0.09-0.14,0.18-0.28,0.28-0.42l0.06-0.09
				c0.08-0.12,0.17-0.24,0.26-0.36l0.05-0.07c0.1-0.14,0.2-0.27,0.31-0.4l0.07-0.09c0.1-0.12,0.2-0.24,0.3-0.36l0.04-0.04
				c0.11-0.13,0.23-0.26,0.34-0.38l0.08-0.09c0.12-0.13,0.24-0.25,0.37-0.38c0.12-0.12,0.25-0.24,0.38-0.36L35.31,15.92z"/>
			<path class="st43" d="M45.7,12.6c-7.86,0-14.38,6.31-14.67,14.13l27.33-6.89C55.72,15.37,50.9,12.6,45.7,12.6z"/>
			
				<rect x="30.53" y="27.3" transform="matrix(0.0174 -0.9998 0.9998 0.0174 2.7273 57.3729)" class="st16" width="0.05" height="0"/>
			<polygon class="st43" points="60.39,15.35 59.4,19.58 60.39,19.33 			"/>
			<polygon class="st44" points="60.39,42.1 60.39,35.28 33.53,42.1 			"/>
			<rect x="31.02" y="42.82" class="st45" width="18.05" height="18.24"/>
			<rect x="49.81" y="42.82" class="st46" width="10.58" height="18.24"/>
			<polygon class="st47" points="45.61,31.37 31.02,27.69 31.02,42 59.23,34.83 			"/>
			<polygon class="st16" points="30.56,27.1 30.55,27.1 30.55,27.11 30.59,27.11 			"/>
			<polygon class="st48" points="55.48,33.11 58.42,20.56 32.12,27.2 45.79,30.67 			"/>
			<polygon class="st49" points="56.18,33.29 60.39,34.35 60.39,20.07 59.21,20.37 			"/>
		</g>
		<g>
			<g>
				<path class="st50" d="M65.19,47.12h0.35v1.4h1.82v-1.4h0.35v3.15h-0.35v-1.42h-1.82v1.42h-0.35V47.12z"/>
				<path class="st50" d="M68.74,48.7L68.74,48.7c0-0.88,0.65-1.64,1.61-1.64s1.6,0.75,1.6,1.62v0.01c0,0.87-0.65,1.63-1.61,1.63
					C69.38,50.32,68.74,49.57,68.74,48.7z M71.58,48.7L71.58,48.7c0-0.72-0.52-1.31-1.24-1.31c-0.72,0-1.23,0.58-1.23,1.29v0.01
					c0,0.71,0.52,1.3,1.24,1.3S71.58,49.41,71.58,48.7z"/>
				<path class="st50" d="M73.47,47.44h-1.06v-0.33h2.47v0.33h-1.06v2.82h-0.36V47.44z"/>
				<path class="st50" d="M75.73,47.12H78v0.32h-1.92v1.07h1.72v0.32h-1.72v1.1h1.94v0.32h-2.3V47.12z"/>
				<path class="st50" d="M78.92,47.12h0.35v2.82h1.77v0.33h-2.13V47.12z"/>
				<path class="st50" d="M82.6,47.12H83l1.12,2.71l1.12-2.71h0.38l-1.35,3.17h-0.31L82.6,47.12z"/>
				<path class="st50" d="M86.46,47.12h0.36v3.15h-0.36V47.12z"/>
				<path class="st50" d="M87.74,47.12h0.35v2.82h1.77v0.33h-2.13V47.12z"/>
				<path class="st50" d="M90.61,47.12h0.35v2.82h1.77v0.33h-2.13V47.12z"/>
				<path class="st50" d="M94.74,47.09h0.33l1.43,3.17h-0.38l-0.37-0.83h-1.71l-0.37,0.83H93.3L94.74,47.09z M95.61,49.11l-0.71-1.6
					l-0.72,1.6H95.61z"/>
				<path class="st50" d="M66.62,52.45h0.33l1.43,3.17h-0.38l-0.37-0.83h-1.71l-0.37,0.83h-0.36L66.62,52.45z M67.5,54.47l-0.71-1.6
					l-0.72,1.6H67.5z"/>
				<path class="st50" d="M69.55,52.47h1.35c0.39,0,0.7,0.12,0.89,0.31c0.15,0.15,0.24,0.37,0.24,0.62v0.01
					c0,0.52-0.36,0.83-0.85,0.92l0.97,1.29h-0.44l-0.91-1.22h-0.9v1.22h-0.35V52.47z M70.87,54.07c0.47,0,0.81-0.24,0.81-0.65v-0.01
					c0-0.39-0.3-0.62-0.8-0.62h-0.97v1.28H70.87z"/>
				<path class="st50" d="M73.05,54.05L73.05,54.05c0-0.87,0.63-1.64,1.58-1.64c0.53,0,0.86,0.15,1.17,0.42l-0.23,0.27
					c-0.24-0.21-0.51-0.36-0.96-0.36c-0.7,0-1.2,0.59-1.2,1.29v0.01c0,0.75,0.48,1.31,1.24,1.31c0.36,0,0.69-0.14,0.91-0.31v-0.78
					h-0.96v-0.32h1.3v1.25c-0.29,0.26-0.73,0.48-1.26,0.48C73.66,55.67,73.05,54.95,73.05,54.05z"/>
				<path class="st50" d="M77.16,52.47h2.27v0.32h-1.92v1.07h1.72v0.32h-1.72v1.1h1.94v0.32h-2.3V52.47z"/>
				<path class="st50" d="M80.54,52.47h0.33l1.98,2.52v-2.52h0.35v3.15h-0.28l-2.03-2.58v2.58h-0.35V52.47z"/>
				<path class="st50" d="M85.37,52.8h-1.06v-0.33h2.47v0.33h-1.06v2.82h-0.36V52.8z"/>
				<path class="st50" d="M87.84,52.47h0.36v3.15h-0.36V52.47z"/>
				<path class="st50" d="M89.57,52.47h0.33l1.98,2.52v-2.52h0.35v3.15h-0.28l-2.03-2.58v2.58h-0.35V52.47z"/>
				<path class="st50" d="M94.74,52.45h0.33l1.43,3.17h-0.38l-0.37-0.83h-1.71l-0.37,0.83H93.3L94.74,52.45z M95.61,54.47l-0.71-1.6
					l-0.72,1.6H95.61z"/>
				<path class="st50" d="M65.19,57.82h1.35c0.39,0,0.7,0.12,0.89,0.31c0.15,0.15,0.24,0.37,0.24,0.62v0.01
					c0,0.52-0.36,0.83-0.85,0.92l0.97,1.29h-0.44l-0.91-1.22h-0.9v1.22h-0.35V57.82z M66.51,59.43c0.47,0,0.81-0.24,0.81-0.65v-0.01
					c0-0.39-0.3-0.62-0.8-0.62h-0.97v1.28H66.51z"/>
				<path class="st50" d="M69.49,59.4L69.49,59.4c0-0.88,0.65-1.64,1.61-1.64s1.6,0.75,1.6,1.62v0.01c0,0.87-0.65,1.63-1.61,1.63
					C70.14,61.02,69.49,60.27,69.49,59.4z M72.33,59.4L72.33,59.4c0-0.72-0.52-1.31-1.24-1.31s-1.23,0.58-1.23,1.29v0.01
					c0,0.71,0.52,1.3,1.24,1.3S72.33,60.12,72.33,59.4z"/>
				<path class="st50" d="M74.81,57.82h0.33l1.98,2.52v-2.52h0.35v3.15h-0.28l-2.03-2.58v2.58h-0.35V57.82z"/>
				<path class="st50" d="M79.56,60.73l2.04-2.59h-1.97v-0.32h2.45v0.24l-2.04,2.59h2.04v0.32h-2.52V60.73z"/>
				<path class="st50" d="M83.95,59.4L83.95,59.4c0-0.88,0.65-1.64,1.61-1.64s1.6,0.75,1.6,1.62v0.01c0,0.87-0.65,1.63-1.61,1.63
					C84.59,61.02,83.95,60.27,83.95,59.4z M86.78,59.4L86.78,59.4c0-0.72-0.52-1.31-1.24-1.31c-0.72,0-1.23,0.58-1.23,1.29v0.01
					c0,0.71,0.52,1.3,1.24,1.3S86.78,60.12,86.78,59.4z"/>
				<path class="st50" d="M89.26,57.82h0.33l1.98,2.52v-2.52h0.35v3.15h-0.28l-2.03-2.58v2.58h-0.35V57.82z"/>
				<path class="st50" d="M94.16,57.82h2.27v0.32h-1.92v1.07h1.72v0.32h-1.72v1.1h1.94v0.32h-2.3V57.82z"/>
			</g>
		</g>
		<g>
			<g>
				<path class="st50" d="M66.67,12.7h2.03v4.8h5.51v-4.8h2.03v11.54H74.2v-4.86H68.7v4.86h-2.03V12.7z"/>
				<path class="st50" d="M83.48,12.7h2.24l3.48,8.87l3.46-8.87h2.19l-4.8,11.62h-1.78L83.48,12.7z"/>
				<path class="st50" d="M71.75,29.42h1.88l5.08,11.62h-2.14l-1.17-2.79h-5.46l-1.19,2.79h-2.08L71.75,29.42z M74.65,36.46
					l-1.99-4.61l-1.98,4.61H74.65z"/>
				<path class="st50" d="M84.97,29.5h5.14c1.45,0,2.59,0.43,3.33,1.15c0.61,0.63,0.96,1.48,0.96,2.49v0.03
					c0,1.9-1.14,3.03-2.75,3.49l3.12,4.37h-2.39l-2.83-4.02H87v4.02h-2.03V29.5z M89.96,35.22c1.45,0,2.37-0.76,2.37-1.93v-0.03
					c0-1.24-0.89-1.91-2.39-1.91H87v3.87H89.96z"/>
			</g>
		</g>
		<rect x="65.14" y="43.99" class="st50" width="31.29" height="0.42"/>
	</g>
</g>
<g id="Capa_6">
</g>
</svg>
