<?xml version="1.0" encoding="utf-8"?>
<!-- Generator: Adobe Illustrator 27.9.0, SVG Export Plug-In . SVG Version: 6.00 Build 0)  -->
<svg version="1.1" xmlns="http://www.w3.org/2000/svg" xmlns:xlink="http://www.w3.org/1999/xlink" x="0px" y="0px"
	 viewBox="0 0 126.08 75.06" style="enable-background:new 0 0 126.08 75.06;" xml:space="preserve">
<style type="text/css">
	.st0{fill:#F0F0F0;}
	.st1{display:none;}
	.st2{display:inline;fill:#1C1824;}
	.st3{fill:none;stroke:#D4D4D4;stroke-width:2.3506;stroke-miterlimit:10;}
	.st4{fill:none;stroke:#E3E3E3;stroke-width:0.5;stroke-miterlimit:10;}
	.st5{fill:none;stroke:#FFFFFE;stroke-width:0.8855;stroke-miterlimit:10;}
	.st6{fill:#FFFFFE;}
	.st7{fill:#16C0FE;}
	.st8{fill:#0000D7;}
	.st9{fill:#FFDE00;}
	.st10{fill:#6B6B6B;}
	.st11{fill:#696969;}
	.st12{fill:none;stroke:#474747;stroke-width:0.348;stroke-miterlimit:10;}
	.st13{fill:none;stroke:#474747;stroke-width:0.4442;stroke-miterlimit:10;}
	.st14{fill:none;stroke:#D2B356;stroke-width:5.9189;stroke-miterlimit:10;}
	.st15{fill:#D2B356;}
	.st16{fill:#FFFFFF;}
	.st17{fill:none;stroke:#000000;stroke-width:0.4956;stroke-miterlimit:10;}
	.st18{fill:none;stroke:#000000;stroke-width:1.6303;stroke-miterlimit:10;}
	.st19{fill:none;stroke:#A8A8A8;stroke-width:0.5;stroke-miterlimit:10;}
	.st20{display:inline;fill:none;stroke:#DBDBDB;stroke-width:0.4653;stroke-miterlimit:10;}
	.st21{fill:#303334;}
	.st22{clip-path:url(#SVGID_00000165949933076091884310000009308836192044256649_);fill:#B6B6B6;}
	.st23{fill-rule:evenodd;clip-rule:evenodd;fill:#303334;}
	.st24{fill:#262626;}
	.st25{fill:#424242;}
	.st26{fill:#595959;}
	.st27{fill:#A3A3A3;}
	.st28{fill:#606060;}
	.st29{fill:#848484;}
	.st30{fill:#040505;}
	.st31{fill-rule:evenodd;clip-rule:evenodd;fill:#2D2D2D;}
	.st32{fill-rule:evenodd;clip-rule:evenodd;fill:#989898;}
	.st33{fill:#4B4B4B;}
	.st34{fill:#373737;}
	.st35{fill:#1E1E1E;}
	.st36{clip-path:url(#SVGID_00000155839868744740404700000012653767450176126126_);}
	.st37{fill:#B29020;}
	.st38{clip-path:url(#SVGID_00000061436265524428444960000011224020454199264154_);}
	.st39{fill-rule:evenodd;clip-rule:evenodd;fill:#333333;}
	.st40{fill-rule:evenodd;clip-rule:evenodd;fill:#FFFFFF;}
	.st41{fill:#333333;}
	.st42{fill:#E3E3E3;}
	.st43{fill:#C7C7C7;}
	.st44{fill:#828282;}
	.st45{fill:#5D5D5D;}
	.st46{fill:#B7B7B7;}
	.st47{fill:#C1C1C1;}
	.st48{fill:#D9D9D9;}
	.st49{fill:#B2B2B2;}
	.st50{fill:#1D1D1D;}
	.st51{fill-rule:evenodd;clip-rule:evenodd;fill:#A8A8A8;}
	.st52{fill:#5C5C5C;}
	.st53{fill:#202020;}
	.st54{fill:#221F1F;}
	.st55{fill:#231F20;}
	.st56{fill:none;stroke:#221F1F;stroke-width:0.1371;}
	.st57{fill:#1D1D1B;}
	.st58{fill:#7A7A7A;}
	.st59{fill:none;stroke:#DBDBDB;stroke-width:0.4653;stroke-miterlimit:10;}
	.st60{clip-path:url(#SVGID_00000126323907552260378340000016027453710194149264_);fill:#B6B6B6;}
	.st61{clip-path:url(#SVGID_00000043459555387843922820000005779617908108962209_);}
	.st62{clip-path:url(#SVGID_00000030460310742295701750000000940778402573038731_);}
	.st63{fill:#A0A0A0;}
	.st64{fill-rule:evenodd;clip-rule:evenodd;fill:#D2B356;}
	.st65{fill:#9E9E9E;}
	.st66{clip-path:url(#SVGID_00000101794353664785154350000003264821346527375264_);}
	.st67{clip-path:url(#SVGID_00000175311501147462703350000010583849679658712458_);}
	.st68{clip-path:url(#SVGID_00000165235131033617319470000008242181877239123111_);}
	.st69{fill:#212121;}
</style>
<g id="Capa_2">
</g>
<g id="Capa_7" class="st1">
</g>
<g id="Capa_1">
</g>
<g id="lineas-logos">
</g>
<g id="marco-logos" class="st1">
</g>
<g id="logos">
	<rect x="-0.24" y="-0.25" class="st59" width="126.08" height="75.06"/>
	<g>
		<g id="T33X7n_00000078743026220532382420000014721445885899136914_">
			<path class="st21" d="M76.4,35.24c0.44-1.51,0.84-3.1,1.38-4.65c0.39-1.12,0.02-1.71-0.98-2.17c-4.16-1.91-8.18-1.74-11.85,1.02
				c-3.67,2.76-5.03,6.46-4.26,10.97c0.85,4.97,5.29,8.84,10.36,9.08c5.18,0.26,10.05-3.24,11.38-8.13c0.54-2,1.11-4,1.69-5.98
				c1.44-4.97,2.88-9.94,4.34-14.91c0.35-1.2,0.22-1.38-0.99-1.38c-1.21-0.01-2.46,0.03-3.69,0c-0.8-0.03-1.25,0.2-1.48,1.05
				c-1.45,5.17-2.92,10.33-4.43,15.48c-0.51,1.76-0.92,3.6-1.69,5.23c-1.2,2.53-4.22,3.38-6.82,2.19c-2.28-1.04-3.49-3.89-2.68-6.31
				c0.89-2.67,3.51-4.19,6.2-3.38C74.06,33.71,75.11,34.53,76.4,35.24z M42.75,35.47c0.19-0.36,0.35-0.74,0.5-1.12
				c0.36-1.21,0.69-2.43,1.03-3.65c0.41-1.46,0.33-1.62-1.04-2.31c-5.52-2.79-12.25-0.57-15.03,4.95c-1.38,2.74-1.58,5.93-0.54,8.82
				c1.4,4,5.48,7.04,9.77,7.34c0.99,0.07,1.62-0.19,1.82-1.26c0.15-0.79,0.48-1.54,0.68-2.31c0.23-0.86,0.41-1.74,0.56-2.37
				c-1.58-0.16-3.02-0.13-4.37-0.49c-1.54-0.41-2.44-1.7-2.92-3.18c-0.78-2.32,0.21-4.86,2.34-6.05
				C37.25,32.87,39.68,32.33,42.75,35.47z M57.37,43.16c-3.9,0.64-5.78-0.03-7.04-2.29c-1.08-1.95-0.92-4.47,0.62-5.98
				c2.88-2.83,5.76-2.15,8.4,0.36c0.18-0.14,0.28-0.18,0.31-0.24c0.31-0.98,0.58-1.98,0.9-2.96c1-3.03,0.86-3.31-2.19-4.31
				c-0.4-0.15-0.8-0.26-1.21-0.35c-7.6-1.26-13.76,4.14-13.42,11.81c0.22,5.39,5.32,10.31,10.68,10.27c0.41,0,1.08-0.2,1.17-0.46
				c0.64-1.86,1.17-3.76,1.78-5.83L57.37,43.16z M86.17,33.57c0.68-0.15,1.12-0.22,1.54-0.35c1.6-0.5,3.05-0.15,4.34,0.82
				c2.11,1.58,2.63,3.74,1.74,6.59c-0.73,2.34-1.41,4.7-2.09,7.06c-0.18,0.62-0.46,1.38,0.66,1.39c1.46,0.02,2.92,0.04,4.38-0.02
				c0.31,0,0.81-0.29,0.87-0.54c0.88-3.25,2.07-6.46,2.46-9.79c0.69-6.11-4.73-11.66-10.88-11.63c-0.77,0-1.23,0.26-1.44,1
				c-0.5,1.74-1,3.46-1.58,5.48V33.57z"/>
			<path class="st21" d="M76.4,35.24c-1.28-0.71-2.34-1.54-3.54-1.9c-2.68-0.81-5.3,0.71-6.2,3.38c-0.81,2.42,0.4,5.27,2.68,6.31
				c2.6,1.19,5.62,0.33,6.82-2.19c0.78-1.64,1.18-3.48,1.69-5.23c1.5-5.15,2.98-10.32,4.43-15.48c0.23-0.84,0.68-1.08,1.48-1.05
				c1.23,0.05,2.46,0,3.69,0c1.23,0,1.34,0.18,0.99,1.38c-1.44,4.97-2.88,9.94-4.34,14.91c-0.58,1.99-1.15,3.98-1.69,5.98
				c-1.32,4.89-6.2,8.38-11.38,8.13c-5.07-0.25-9.51-4.12-10.36-9.08c-0.77-4.49,0.62-8.24,4.26-10.97
				c3.65-2.72,7.69-2.93,11.85-1.02c1,0.46,1.37,1.05,0.98,2.17C77.24,32.14,76.84,33.73,76.4,35.24z"/>
			<path class="st21" d="M42.75,35.47c-3.08-3.14-5.5-2.6-7.2-1.63c-2.14,1.19-3.12,3.73-2.34,6.05c0.48,1.48,1.38,2.77,2.92,3.18
				c1.34,0.36,2.79,0.33,4.37,0.49c-0.15,0.64-0.33,1.51-0.56,2.37c-0.21,0.78-0.53,1.54-0.68,2.31c-0.21,1.07-0.83,1.32-1.82,1.26
				c-4.29-0.31-8.37-3.35-9.77-7.34c-2.09-5.82,0.93-12.22,6.75-14.31c2.89-1.04,6.08-0.84,8.82,0.54c1.37,0.7,1.45,0.86,1.04,2.31
				c-0.34,1.23-0.67,2.44-1.03,3.65C43.1,34.73,42.94,35.1,42.75,35.47z"/>
			<path class="st21" d="M57.37,43.17c-0.62,2.08-1.14,3.98-1.78,5.85c-0.09,0.26-0.77,0.46-1.17,0.46
				c-5.36,0.03-10.46-4.9-10.68-10.29c-0.33-7.67,5.85-13.08,13.43-11.78c0.41,0.09,0.82,0.21,1.21,0.35
				c3.05,0.98,3.19,1.26,2.19,4.31c-0.31,0.98-0.6,1.97-0.9,2.96c-0.02,0.06-0.11,0.1-0.31,0.24c-2.65-2.5-5.52-3.19-8.4-0.36
				c-1.54,1.51-1.7,4.03-0.62,5.98C51.58,43.15,53.47,43.81,57.37,43.17z"/>
			<path class="st21" d="M86.17,33.58c0.58-2.02,1.09-3.74,1.58-5.46c0.21-0.74,0.67-1,1.44-1c6.15-0.03,11.57,5.52,10.88,11.63
				c-0.38,3.31-1.57,6.54-2.46,9.79c-0.07,0.25-0.57,0.53-0.87,0.54c-1.46,0.06-2.92,0.04-4.38,0.02c-1.12,0-0.84-0.77-0.66-1.39
				c0.68-2.36,1.36-4.72,2.09-7.06c0.89-2.86,0.37-5.01-1.74-6.59c-1.3-0.97-2.74-1.32-4.34-0.82
				C87.29,33.36,86.85,33.43,86.17,33.58z"/>
		</g>
		<g>
			<path class="st21" d="M27.27,53.76L27.27,53.76c-0.01-0.48,0.37-0.88,0.85-0.89c0.02,0,0.03,0,0.05,0
				c0.25-0.01,0.5,0.08,0.68,0.27l-0.24,0.28c-0.11-0.12-0.27-0.19-0.44-0.2c-0.28,0.01-0.51,0.24-0.5,0.52c0,0.01,0,0.01,0,0.02
				l0,0c-0.02,0.28,0.2,0.53,0.48,0.54c0.01,0,0.01,0,0.02,0c0.17,0,0.34-0.08,0.45-0.2l0.24,0.24c-0.18,0.21-0.44,0.32-0.72,0.31
				c-0.48,0.01-0.88-0.38-0.88-0.86C27.27,53.78,27.27,53.77,27.27,53.76z"/>
			<path class="st21" d="M29.17,52.89h1.31v0.34h-0.93v0.35h0.82v0.34h-0.82v0.36h0.93v0.34h-1.31V52.89z"/>
			<path class="st21" d="M30.82,52.89h0.35l0.81,1.06v-1.06h0.38v1.73h-0.32l-0.84-1.1v1.1h-0.38V52.89z"/>
			<path class="st21" d="M33.18,53.24h-0.53v-0.35h1.43v0.35h-0.53v1.38h-0.38L33.18,53.24z"/>
			<path class="st21" d="M34.38,52.89h0.79c0.18-0.01,0.37,0.05,0.5,0.17c0.1,0.11,0.15,0.25,0.15,0.39l0,0
				c0.01,0.24-0.14,0.46-0.37,0.54l0.42,0.63h-0.44l-0.37-0.55h-0.3v0.55h-0.38L34.38,52.89z M35.14,53.73
				c0.18,0,0.29-0.1,0.29-0.24l0,0c0-0.16-0.11-0.25-0.29-0.25h-0.38v0.5L35.14,53.73z"/>
			<path class="st21" d="M36.09,53.76L36.09,53.76c0-0.51,0.41-0.92,0.92-0.92c0.51,0,0.92,0.41,0.92,0.92l0,0
				c0,0.51-0.41,0.92-0.92,0.92C36.5,54.68,36.09,54.27,36.09,53.76z M37.53,53.76L37.53,53.76c0.01-0.29-0.22-0.53-0.51-0.54
				c-0.01,0-0.01,0-0.02,0c-0.29,0-0.52,0.23-0.52,0.52c0,0.01,0,0.02,0,0.02l0,0c-0.01,0.29,0.22,0.53,0.51,0.54
				c0.01,0,0.01,0,0.02,0c0.29,0,0.52-0.23,0.52-0.52C37.53,53.77,37.53,53.77,37.53,53.76L37.53,53.76z"/>
			<path class="st21" d="M39.01,52.89h0.67c0.54,0,0.92,0.37,0.92,0.86l0,0c0,0.49-0.38,0.87-0.92,0.87h-0.67V52.89z M39.68,54.27
				c0.27,0.02,0.5-0.19,0.52-0.46c0-0.02,0-0.04,0-0.05l0,0c0.01-0.27-0.2-0.51-0.47-0.52c-0.02,0-0.03,0-0.05,0h-0.29v1.04H39.68z"
				/>
			<path class="st21" d="M40.94,52.89h1.31v0.34h-0.93v0.35h0.81v0.34h-0.82v0.36h0.94v0.34h-1.32L40.94,52.89z"/>
			<path class="st21" d="M43.26,53.76L43.26,53.76c-0.01-0.48,0.36-0.89,0.85-0.9c0.02,0,0.04,0,0.06,0
				c0.26-0.01,0.5,0.08,0.68,0.27l-0.25,0.28c-0.11-0.12-0.27-0.19-0.44-0.2c-0.28,0.01-0.51,0.24-0.5,0.52c0,0.01,0,0.01,0,0.02
				l0,0c-0.02,0.28,0.2,0.53,0.48,0.54c0.01,0,0.01,0,0.02,0c0.17,0,0.34-0.08,0.45-0.2l0.24,0.24c-0.18,0.21-0.44,0.32-0.71,0.31
				c-0.48,0.01-0.88-0.37-0.9-0.85C43.26,53.78,43.26,53.77,43.26,53.76z"/>
			<path class="st21" d="M45.05,53.76L45.05,53.76c0-0.51,0.41-0.92,0.92-0.92c0.51,0,0.92,0.41,0.92,0.92l0,0
				c0,0.51-0.41,0.92-0.92,0.92C45.46,54.68,45.05,54.27,45.05,53.76z M46.49,53.76L46.49,53.76c0.01-0.29-0.22-0.53-0.51-0.54
				c-0.01,0-0.01,0-0.02,0c-0.29,0-0.52,0.23-0.52,0.52c0,0.01,0,0.02,0,0.02l0,0c-0.01,0.29,0.22,0.53,0.51,0.54
				c0.01,0,0.01,0,0.02,0c0.29,0,0.52-0.24,0.51-0.53C46.48,53.77,46.48,53.76,46.49,53.76L46.49,53.76z"/>
			<path class="st21" d="M47.22,52.89h0.35l0.81,1.06v-1.06h0.38v1.73h-0.32l-0.84-1.1v1.1h-0.38V52.89z"/>
			<path class="st21" d="M49.05,54.37l0.22-0.27c0.14,0.13,0.32,0.21,0.52,0.21c0.16,0,0.25-0.06,0.25-0.16l0,0
				c0-0.1-0.06-0.15-0.35-0.22c-0.35-0.09-0.57-0.18-0.57-0.53l0,0c0-0.31,0.25-0.52,0.6-0.52c0.23,0,0.46,0.07,0.64,0.22l-0.2,0.29
				c-0.13-0.1-0.29-0.16-0.45-0.17c-0.15,0-0.22,0.07-0.22,0.15l0,0c0,0.11,0.07,0.15,0.37,0.23c0.35,0.09,0.55,0.22,0.55,0.52l0,0
				c0,0.34-0.26,0.54-0.64,0.54C49.51,54.64,49.25,54.54,49.05,54.37z"/>
			<path class="st21" d="M50.77,52.89h0.38v1.73h-0.38V52.89z"/>
			<path class="st21" d="M51.51,53.76L51.51,53.76c0-0.49,0.39-0.89,0.88-0.89c0.01,0,0.02,0,0.02,0c0.25-0.01,0.49,0.07,0.68,0.24
				l-0.24,0.29c-0.12-0.12-0.28-0.18-0.45-0.18c-0.29,0.01-0.51,0.25-0.5,0.54l0,0c-0.02,0.29,0.2,0.53,0.48,0.55
				c0.01,0,0.03,0,0.04,0c0.13,0,0.25-0.03,0.36-0.1v-0.25H52.4v-0.33h0.75v0.75c-0.2,0.18-0.47,0.28-0.74,0.28
				c-0.48,0.02-0.88-0.34-0.91-0.82C51.51,53.81,51.51,53.78,51.51,53.76z"/>
			<path class="st21" d="M53.52,52.89h0.35l0.81,1.06v-1.06h0.38v1.73h-0.32l-0.84-1.1v1.1h-0.38V52.89z"/>
			<path class="st21" d="M56.07,52.88h0.35l0.74,1.75h-0.4l-0.16-0.39h-0.73l-0.16,0.39h-0.39L56.07,52.88z M56.47,53.9l-0.23-0.56
				l-0.23,0.56H56.47z"/>
			<path class="st21" d="M57.61,53.24h-0.53v-0.35h1.43v0.35h-0.53v1.38h-0.38L57.61,53.24z"/>
			<path class="st21" d="M59.18,52.88h0.35l0.74,1.75h-0.4l-0.16-0.39h-0.73l-0.16,0.39h-0.39L59.18,52.88z M59.58,53.9l-0.23-0.56
				l-0.23,0.56H59.58z"/>
			<path class="st21" d="M60.54,52.89h0.79c0.18-0.01,0.37,0.05,0.5,0.17c0.1,0.11,0.15,0.25,0.15,0.39l0,0
				c0.01,0.24-0.14,0.46-0.37,0.54l0.42,0.62h-0.44l-0.37-0.55h-0.29v0.56h-0.38L60.54,52.89z M61.3,53.73
				c0.18,0,0.29-0.1,0.29-0.24l0,0c0-0.16-0.11-0.25-0.3-0.25h-0.37v0.5L61.3,53.73z"/>
			<path class="st21" d="M62.34,52.89h0.38v1.73h-0.38V52.89z"/>
			<path class="st21" d="M63.08,53.76L63.08,53.76c0-0.49,0.4-0.9,0.9-0.89c0.01,0,0.02,0,0.03,0c0.49-0.02,0.9,0.37,0.92,0.86
				c0,0.01,0,0.02,0,0.03l0,0c-0.02,0.51-0.45,0.9-0.96,0.88C63.48,54.62,63.1,54.23,63.08,53.76L63.08,53.76z M64.52,53.76
				L64.52,53.76c0.01-0.29-0.22-0.53-0.51-0.54c-0.01,0-0.01,0-0.02,0c-0.29,0-0.52,0.23-0.52,0.51c0,0.01,0,0.02,0,0.03l0,0
				c-0.01,0.29,0.22,0.53,0.51,0.54c0,0,0.01,0,0.01,0c0.29,0,0.52-0.23,0.52-0.52C64.52,53.77,64.52,53.77,64.52,53.76z"/>
			<path class="st21" d="M65.13,54.37l0.22-0.27c0.14,0.13,0.32,0.21,0.52,0.21c0.16,0,0.25-0.06,0.25-0.16l0,0
				c0-0.1-0.06-0.15-0.35-0.22c-0.35-0.09-0.57-0.18-0.57-0.53l0,0c0-0.31,0.25-0.52,0.61-0.52c0.23,0,0.46,0.07,0.64,0.22
				l-0.2,0.29c-0.13-0.1-0.29-0.16-0.45-0.17c-0.15,0-0.22,0.07-0.22,0.15l0,0c0,0.11,0.07,0.15,0.37,0.23
				c0.35,0.09,0.55,0.22,0.55,0.52l0,0c0,0.34-0.26,0.54-0.64,0.54C65.59,54.65,65.33,54.55,65.13,54.37z"/>
			<path class="st21" d="M67.37,52.89h0.67c0.54,0,0.92,0.37,0.92,0.86l0,0c0,0.48-0.4,0.87-0.88,0.87c-0.01,0-0.03,0-0.04,0h-0.67
				V52.89z M68.05,54.28c0.27,0.02,0.5-0.19,0.52-0.46c0-0.02,0-0.04,0-0.06l0,0c0.01-0.27-0.2-0.51-0.47-0.52
				c-0.02,0-0.03,0-0.05,0h-0.29v1.04H68.05z"/>
			<path class="st21" d="M69.32,52.89h0.38v1.73h-0.38V52.89z"/>
			<path class="st21" d="M70.14,52.89h0.79c0.19-0.01,0.37,0.05,0.51,0.18c0.1,0.11,0.15,0.25,0.15,0.39l0,0
				c0.01,0.24-0.14,0.46-0.37,0.54l0.42,0.62h-0.44l-0.37-0.55h-0.3v0.55h-0.38L70.14,52.89z M70.9,53.73c0.19,0,0.29-0.1,0.29-0.24
				l0,0c0-0.16-0.11-0.25-0.3-0.25h-0.38v0.5L70.9,53.73z"/>
			<path class="st21" d="M71.93,52.89h1.31v0.34H72.3v0.35h0.82v0.34H72.3v0.36h0.94v0.34h-1.31L71.93,52.89z"/>
			<path class="st21" d="M73.5,53.76L73.5,53.76c-0.01-0.48,0.37-0.88,0.85-0.89c0.02,0,0.03,0,0.05,0c0.26-0.01,0.5,0.08,0.68,0.27
				l-0.24,0.28c-0.11-0.12-0.27-0.19-0.44-0.2c-0.28,0.01-0.51,0.24-0.5,0.52c0,0.01,0,0.01,0,0.02l0,0
				c-0.02,0.28,0.2,0.53,0.48,0.54c0.01,0,0.01,0,0.02,0c0.17,0,0.34-0.07,0.45-0.2l0.24,0.24c-0.18,0.21-0.44,0.32-0.71,0.31
				c-0.48,0.01-0.88-0.37-0.89-0.86C73.5,53.78,73.5,53.77,73.5,53.76z"/>
			<path class="st21" d="M75.81,53.24h-0.53v-0.35h1.43v0.35h-0.52v1.38h-0.38L75.81,53.24z"/>
			<path class="st21" d="M76.86,53.76L76.86,53.76c0-0.51,0.41-0.92,0.92-0.92c0.51,0,0.92,0.41,0.92,0.92l0,0
				c0,0.51-0.41,0.92-0.92,0.92C77.27,54.67,76.86,54.26,76.86,53.76z M78.3,53.76L78.3,53.76c0.01-0.29-0.22-0.53-0.51-0.54
				c-0.01,0-0.01,0-0.02,0c-0.29,0-0.52,0.23-0.52,0.52c0,0.01,0,0.02,0,0.02l0,0c-0.01,0.29,0.22,0.53,0.51,0.54
				c0.01,0,0.01,0,0.02,0c0.29,0,0.52-0.23,0.52-0.51C78.3,53.77,78.3,53.76,78.3,53.76L78.3,53.76z"/>
			<path class="st21" d="M78.9,54.36l0.22-0.27c0.14,0.13,0.33,0.2,0.52,0.21c0.16,0,0.25-0.06,0.25-0.16l0,0
				c0-0.1-0.06-0.15-0.35-0.22c-0.35-0.09-0.57-0.19-0.57-0.53l0,0c0-0.31,0.25-0.52,0.61-0.52c0.23,0,0.46,0.07,0.64,0.22
				l-0.2,0.29c-0.13-0.1-0.29-0.16-0.45-0.17c-0.15,0-0.22,0.07-0.22,0.15l0,0c0,0.11,0.07,0.15,0.37,0.23
				c0.35,0.09,0.55,0.22,0.55,0.52l0,0c0,0.34-0.26,0.54-0.64,0.54C79.37,54.64,79.11,54.54,78.9,54.36z"/>
			<path class="st21" d="M81.35,52.89h0.67c0.54,0,0.92,0.37,0.92,0.86l0,0c0,0.48-0.39,0.87-0.88,0.87c-0.01,0-0.03,0-0.04,0h-0.67
				L81.35,52.89z M82.02,54.28c0.27,0.02,0.5-0.19,0.52-0.46c0-0.02,0-0.04,0-0.06l0,0c0.02-0.27-0.19-0.51-0.46-0.53
				c-0.02,0-0.04,0-0.06,0h-0.29v1.05H82.02z"/>
			<path class="st21" d="M83.28,52.89h1.31v0.34h-0.93v0.35h0.82v0.34h-0.82v0.36h0.94v0.34h-1.31L83.28,52.89z"/>
			<path class="st21" d="M85.68,52.89h0.38v0.68h0.7v-0.68h0.38v1.73h-0.38v-0.69h-0.7v0.69h-0.38V52.89z"/>
			<path class="st21" d="M88.15,52.87h0.35l0.74,1.75h-0.4l-0.16-0.39h-0.73l-0.16,0.39h-0.39L88.15,52.87z M88.55,53.89l-0.23-0.56
				l-0.23,0.56H88.55z"/>
			<path class="st21" d="M89.32,53.76L89.32,53.76c-0.01-0.48,0.37-0.88,0.85-0.89c0.02,0,0.03,0,0.05,0
				c0.25-0.01,0.5,0.08,0.68,0.26l-0.24,0.28c-0.11-0.12-0.27-0.19-0.44-0.2c-0.28,0.01-0.51,0.24-0.5,0.52c0,0.01,0,0.01,0,0.02
				l0,0c-0.02,0.28,0.2,0.53,0.48,0.54c0.01,0,0.01,0,0.02,0c0.17,0,0.34-0.08,0.45-0.2l0.24,0.24c-0.18,0.21-0.44,0.32-0.71,0.31
				c-0.48,0.01-0.88-0.37-0.89-0.86C89.32,53.78,89.32,53.77,89.32,53.76z"/>
			<path class="st21" d="M91.24,52.89h0.38v1.73h-0.38V52.89z"/>
			<path class="st21" d="M92.05,52.89h1.31v0.34h-0.93v0.35h0.82v0.34h-0.82v0.36h0.94v0.34h-1.32L92.05,52.89z"/>
			<path class="st21" d="M93.71,52.89h0.35l0.81,1.07v-1.07h0.38v1.73h-0.32l-0.84-1.1v1.1h-0.37V52.89z"/>
			<path class="st21" d="M95.66,52.89h0.67c0.54,0,0.92,0.37,0.92,0.86l0,0c0,0.49-0.38,0.87-0.92,0.87h-0.67V52.89z M96.34,54.28
				c0.27,0.02,0.5-0.19,0.52-0.46c0-0.02,0-0.04,0-0.06l0,0c0.01-0.27-0.2-0.51-0.47-0.52c-0.02,0-0.03,0-0.05,0h-0.29v1.04H96.34z"
				/>
			<path class="st21" d="M98.07,52.87h0.35l0.74,1.75h-0.4l-0.16-0.39h-0.73l-0.16,0.39h-0.39L98.07,52.87z M98.47,53.89l-0.23-0.56
				l-0.23,0.56H98.47z"/>
		</g>
	</g>
</g>
<g id="Capa_6">
</g>
</svg>
