<?xml version="1.0" encoding="utf-8"?>
<!-- Generator: Adobe Illustrator 27.9.0, SVG Export Plug-In . SVG Version: 6.00 Build 0)  -->
<svg version="1.1" xmlns="http://www.w3.org/2000/svg" xmlns:xlink="http://www.w3.org/1999/xlink" x="0px" y="0px"
	 viewBox="0 0 126.08 75.06" style="enable-background:new 0 0 126.08 75.06;" xml:space="preserve">
<style type="text/css">
	.st0{fill:#F0F0F0;}
	.st1{display:none;}
	.st2{display:inline;fill:#1C1824;}
	.st3{fill:none;stroke:#D4D4D4;stroke-width:2.3506;stroke-miterlimit:10;}
	.st4{fill:none;stroke:#E3E3E3;stroke-width:0.5;stroke-miterlimit:10;}
	.st5{fill:none;stroke:#FFFFFE;stroke-width:0.8855;stroke-miterlimit:10;}
	.st6{fill:#FFFFFE;}
	.st7{fill:#16C0FE;}
	.st8{fill:#0000D7;}
	.st9{fill:#FFDE00;}
	.st10{fill:#6B6B6B;}
	.st11{fill:#696969;}
	.st12{fill:none;stroke:#474747;stroke-width:0.348;stroke-miterlimit:10;}
	.st13{fill:none;stroke:#474747;stroke-width:0.4442;stroke-miterlimit:10;}
	.st14{fill:none;stroke:#D2B356;stroke-width:5.9189;stroke-miterlimit:10;}
	.st15{fill:#D2B356;}
	.st16{fill:#FFFFFF;}
	.st17{fill:none;stroke:#000000;stroke-width:0.4956;stroke-miterlimit:10;}
	.st18{fill:none;stroke:#000000;stroke-width:1.6303;stroke-miterlimit:10;}
	.st19{fill:none;stroke:#A8A8A8;stroke-width:0.5;stroke-miterlimit:10;}
	.st20{display:inline;fill:none;stroke:#DBDBDB;stroke-width:0.4653;stroke-miterlimit:10;}
	.st21{fill:#303334;}
	.st22{clip-path:url(#SVGID_00000003788925881438575320000015167918406061964946_);fill:#B6B6B6;}
	.st23{fill-rule:evenodd;clip-rule:evenodd;fill:#303334;}
	.st24{fill:#262626;}
	.st25{fill:#424242;}
	.st26{fill:#595959;}
	.st27{fill:#A3A3A3;}
	.st28{fill:#606060;}
	.st29{fill:#848484;}
	.st30{fill:#040505;}
	.st31{fill-rule:evenodd;clip-rule:evenodd;fill:#2D2D2D;}
	.st32{fill-rule:evenodd;clip-rule:evenodd;fill:#989898;}
	.st33{fill:#4B4B4B;}
	.st34{fill:#373737;}
	.st35{fill:#1E1E1E;}
	.st36{clip-path:url(#SVGID_00000170967502642772221990000017533375371148966847_);}
	.st37{fill:#B29020;}
	.st38{clip-path:url(#SVGID_00000036952819158695595080000014693484084382188974_);}
	.st39{fill-rule:evenodd;clip-rule:evenodd;fill:#333333;}
	.st40{fill-rule:evenodd;clip-rule:evenodd;fill:#FFFFFF;}
	.st41{fill:#333333;}
	.st42{fill:#E3E3E3;}
	.st43{fill:#C7C7C7;}
	.st44{fill:#828282;}
	.st45{fill:#5D5D5D;}
	.st46{fill:#B7B7B7;}
	.st47{fill:#C1C1C1;}
	.st48{fill:#D9D9D9;}
	.st49{fill:#B2B2B2;}
	.st50{fill:#1D1D1D;}
	.st51{fill-rule:evenodd;clip-rule:evenodd;fill:#A8A8A8;}
	.st52{fill:#5C5C5C;}
	.st53{fill:#202020;}
	.st54{fill:#221F1F;}
	.st55{fill:#231F20;}
	.st56{fill:none;stroke:#221F1F;stroke-width:0.1371;}
	.st57{fill:#1D1D1B;}
	.st58{fill:#7A7A7A;}
	.st59{fill:none;stroke:#DBDBDB;stroke-width:0.4653;stroke-miterlimit:10;}
	.st60{clip-path:url(#SVGID_00000065795788148435544600000016241008563092337833_);fill:#B6B6B6;}
	.st61{clip-path:url(#SVGID_00000061456487451356900430000008412301874906023093_);}
	.st62{clip-path:url(#SVGID_00000170257621387220463850000007530948384747343778_);}
	.st63{fill:#A0A0A0;}
	.st64{fill-rule:evenodd;clip-rule:evenodd;fill:#D2B356;}
	.st65{fill:#9E9E9E;}
	.st66{clip-path:url(#SVGID_00000111155364282416119010000015484724241052596104_);}
	.st67{clip-path:url(#SVGID_00000150089366716598418070000002839905558398142909_);}
	.st68{clip-path:url(#SVGID_00000083785716634922818730000003902818698624966560_);}
	.st69{fill:#212121;}
</style>
<g id="Capa_2">
</g>
<g id="Capa_7" class="st1">
</g>
<g id="Capa_1">
</g>
<g id="lineas-logos">
</g>
<g id="marco-logos" class="st1">
</g>
<g id="logos">
	<rect x="-0.22" y="-0.25" class="st59" width="126.08" height="75.06"/>
	<g>
		<g>
			<path class="st21" d="M72.5,31.21h3.17v0.67h-2.42V33h2.15v0.67h-2.15v1.15h2.45v0.67H72.5V31.21z"/>
			<path class="st21" d="M76.32,34.87l0.45-0.54c0.41,0.36,0.82,0.56,1.35,0.56c0.47,0,0.76-0.21,0.76-0.54v-0.01
				c0-0.31-0.17-0.47-0.97-0.65c-0.91-0.22-1.43-0.49-1.43-1.28V32.4c0-0.73,0.61-1.24,1.46-1.24c0.62,0,1.12,0.19,1.55,0.54
				l-0.4,0.57c-0.39-0.29-0.77-0.44-1.16-0.44c-0.44,0-0.7,0.23-0.7,0.51v0.01c0,0.33,0.2,0.48,1.02,0.67
				c0.91,0.22,1.38,0.54,1.38,1.25v0.01c0,0.8-0.63,1.28-1.53,1.28C77.45,35.56,76.83,35.33,76.32,34.87z"/>
			<path class="st21" d="M80.33,33.37v-0.01c0-1.22,0.91-2.21,2.21-2.21c0.79,0,1.27,0.28,1.68,0.67l-0.48,0.56
				c-0.34-0.32-0.71-0.53-1.2-0.53c-0.82,0-1.41,0.67-1.41,1.51v0.01c0,0.84,0.59,1.52,1.41,1.52c0.53,0,0.86-0.21,1.23-0.56
				l0.48,0.49c-0.45,0.47-0.94,0.76-1.74,0.76C81.26,35.57,80.33,34.6,80.33,33.37z"/>
			<path class="st21" d="M84.97,33.68v-2.47h0.75v2.44c0,0.8,0.41,1.22,1.08,1.22c0.67,0,1.08-0.4,1.08-1.19v-2.47h0.75v2.43
				c0,1.28-0.72,1.92-1.84,1.92C85.68,35.56,84.97,34.92,84.97,33.68z"/>
			<path class="st21" d="M89.67,31.21h3.17v0.67h-2.42V33h2.15v0.67h-2.15v1.15h2.45v0.67h-3.21V31.21z"/>
			<path class="st21" d="M93.77,31.21h0.75v3.6h2.25v0.69h-3V31.21z"/>
			<path class="st21" d="M99.07,31.18h0.7l1.88,4.31h-0.8l-0.43-1.03H98.4l-0.44,1.03h-0.77L99.07,31.18z M100.15,33.8l-0.74-1.71
				l-0.73,1.71H100.15z"/>
		</g>
		<g>
			<path class="st21" d="M72.5,38.35h1.6c1.35,0,2.28,0.92,2.28,2.13v0.01c0,1.21-0.93,2.14-2.28,2.14h-1.6V38.35z M74.1,41.95
				c0.9,0,1.49-0.61,1.49-1.44V40.5c0-0.84-0.59-1.46-1.49-1.46h-0.84v2.91H74.1z"/>
			<path class="st21" d="M77.29,38.35h3.17v0.67h-2.42v1.11h2.15v0.67h-2.15v1.15h2.45v0.67h-3.21V38.35z"/>
			<path class="st21" d="M83.22,38.35h3.17v0.67h-2.42v1.11h2.15v0.67h-2.15v1.15h2.45v0.67h-3.21V38.35z"/>
			<path class="st21" d="M87.32,38.35h1.6c1.35,0,2.28,0.92,2.28,2.13v0.01c0,1.21-0.93,2.14-2.28,2.14h-1.6V38.35z M88.92,41.95
				c0.9,0,1.49-0.61,1.49-1.44V40.5c0-0.84-0.59-1.46-1.49-1.46h-0.84v2.91H88.92z"/>
			<path class="st21" d="M92.04,40.82v-2.47h0.75v2.44c0,0.8,0.41,1.22,1.08,1.22c0.67,0,1.08-0.4,1.08-1.19v-2.47h0.75v2.43
				c0,1.28-0.72,1.92-1.84,1.92C92.75,42.7,92.04,42.06,92.04,40.82z"/>
			<path class="st21" d="M96.55,40.51V40.5c0-1.22,0.91-2.21,2.21-2.21c0.79,0,1.27,0.28,1.68,0.67l-0.48,0.56
				c-0.34-0.32-0.71-0.53-1.2-0.53c-0.82,0-1.41,0.67-1.41,1.51v0.01c0,0.84,0.59,1.52,1.41,1.52c0.53,0,0.86-0.21,1.23-0.56
				l0.48,0.49c-0.45,0.47-0.94,0.76-1.74,0.76C97.48,42.71,96.55,41.74,96.55,40.51z"/>
			<path class="st21" d="M102.77,38.32h0.7l1.88,4.31h-0.8l-0.43-1.03h-2.02l-0.44,1.03h-0.77L102.77,38.32z M103.85,40.94
				l-0.74-1.71l-0.73,1.71H103.85z"/>
			<path class="st21" d="M105.64,40.51V40.5c0-1.22,0.91-2.21,2.21-2.21c0.79,0,1.27,0.28,1.68,0.67l-0.48,0.56
				c-0.34-0.32-0.71-0.53-1.2-0.53c-0.82,0-1.41,0.67-1.41,1.51v0.01c0,0.84,0.59,1.52,1.41,1.52c0.53,0,0.86-0.21,1.23-0.56
				l0.48,0.49c-0.45,0.47-0.94,0.76-1.74,0.76C106.57,42.71,105.64,41.74,105.64,40.51z"/>
			<path class="st21" d="M110.38,38.35h0.75v4.28h-0.75V38.35z"/>
			<path class="st21" d="M112.09,40.51V40.5c0-1.21,0.93-2.21,2.25-2.21s2.23,1,2.23,2.2v0.01c0,1.21-0.93,2.21-2.25,2.21
				C113.01,42.71,112.09,41.71,112.09,40.51z M115.78,40.51V40.5c0-0.83-0.61-1.52-1.46-1.52c-0.85,0-1.44,0.68-1.44,1.51v0.01
				c0,0.83,0.61,1.52,1.46,1.52S115.78,41.34,115.78,40.51z M114.71,37.05l0.67,0.29l-0.78,0.59h-0.58L114.71,37.05z"/>
			<path class="st21" d="M117.48,38.35h0.7l2.29,2.96v-2.96h0.74v4.28h-0.63l-2.36-3.05v3.05h-0.74V38.35z"/>
		</g>
		<rect x="67.59" y="30.94" class="st21" width="0.71" height="11.96"/>
		<g>
			<g>
				<polygon class="st21" points="7.03,32.24 7.16,32.31 6.92,32.77 6.79,32.7 				"/>
				<path class="st21" d="M8.47,31.18l-0.05-0.04l0.05-0.08c0.02-0.03,0.02-0.05,0.02-0.07c-0.01-0.01-0.03-0.03-0.06-0.04
					l-0.41-0.13L7.74,31.2c0.05,0.07,0.09,0.13,0.13,0.19c0.04,0.06,0.08,0.11,0.12,0.17C8,31.58,8.02,31.59,8.03,31.6
					c0.02,0,0.03-0.01,0.05-0.03l0.07-0.08l0.05,0.04l-0.28,0.37l-0.05-0.04c0.02-0.03,0.03-0.05,0.04-0.07
					c0.01-0.02,0.01-0.04,0.01-0.05c0-0.02-0.01-0.03-0.01-0.05c-0.01-0.02-0.02-0.04-0.04-0.07c-0.06-0.09-0.12-0.19-0.18-0.29
					c-0.07-0.1-0.13-0.19-0.18-0.28l-0.36-0.56l0.1-0.13l1.29,0.41c0.03,0.01,0.05,0.02,0.07,0.02c0.02,0,0.03,0,0.05,0
					c0.02-0.01,0.03-0.02,0.04-0.03c0.01-0.01,0.03-0.03,0.05-0.05l0.05,0.04L8.47,31.18z M7.34,30.6L7.34,30.6
					c0.05,0.09,0.11,0.17,0.17,0.26c0.06,0.09,0.12,0.18,0.18,0.27l0.25-0.33L7.34,30.6z"/>
				<path class="st21" d="M8.12,29.35l0.04,0.04l-0.07,0.09c-0.02,0.02-0.02,0.04-0.02,0.05c0,0.01,0.02,0.02,0.04,0.03
					c0.08,0.04,0.16,0.08,0.25,0.12c0.09,0.04,0.17,0.08,0.26,0.12l0.53,0.25l0.01,0l-0.27-0.59c-0.05-0.1-0.09-0.19-0.13-0.28
					c-0.04-0.08-0.07-0.15-0.1-0.19c-0.01-0.02-0.02-0.03-0.03-0.03c-0.01,0-0.03,0-0.05,0.02l-0.09,0.07l-0.04-0.04l0.33-0.33
					l0.04,0.04c-0.02,0.02-0.03,0.04-0.05,0.06c-0.01,0.02-0.02,0.03-0.02,0.04c0,0.01,0,0.03,0,0.05c0,0.02,0.01,0.04,0.02,0.06
					c0.02,0.06,0.05,0.13,0.1,0.23c0.04,0.1,0.09,0.21,0.14,0.32l0.33,0.71l-0.11,0.11l-0.65-0.31c-0.1-0.05-0.2-0.1-0.3-0.14
					c-0.1-0.05-0.19-0.09-0.28-0.13c-0.03-0.01-0.05-0.02-0.07-0.02c-0.02,0-0.03-0.01-0.05,0c-0.01,0.01-0.03,0.01-0.05,0.02
					c-0.02,0.01-0.03,0.03-0.06,0.05l-0.04-0.04L8.12,29.35z"/>
				<path class="st21" d="M9.6,29.37l0.05-0.04c0.09,0.08,0.19,0.13,0.28,0.15c0.1,0.02,0.18,0,0.26-0.06
					c0.08-0.06,0.12-0.12,0.13-0.19c0.01-0.07-0.01-0.15-0.07-0.22c-0.03-0.04-0.06-0.07-0.1-0.08c-0.04-0.02-0.08-0.03-0.12-0.03
					c-0.04,0-0.08,0-0.12,0.01c-0.04,0-0.07,0.01-0.09,0.02L9.8,28.92c-0.06,0.02-0.11,0.03-0.17,0.04
					c-0.05,0.01-0.11,0.01-0.16,0.01c-0.05-0.01-0.09-0.02-0.14-0.04c-0.04-0.02-0.08-0.05-0.11-0.1c-0.04-0.06-0.07-0.11-0.08-0.17
					c-0.01-0.06-0.01-0.11,0.01-0.17c0.02-0.05,0.04-0.1,0.08-0.15c0.04-0.05,0.08-0.09,0.13-0.13c0.06-0.04,0.12-0.08,0.18-0.1
					c0.06-0.03,0.12-0.04,0.16-0.04l0.18,0.24l-0.05,0.04c-0.15-0.15-0.3-0.17-0.44-0.06c-0.07,0.05-0.11,0.11-0.12,0.18
					c-0.01,0.07,0.01,0.13,0.06,0.19c0.04,0.05,0.09,0.08,0.16,0.09c0.07,0.01,0.14,0,0.21-0.02l0.07-0.02
					c0.06-0.02,0.12-0.03,0.18-0.04c0.06-0.01,0.11-0.01,0.16,0c0.05,0.01,0.1,0.02,0.14,0.05c0.04,0.03,0.09,0.06,0.12,0.11
					c0.03,0.04,0.06,0.09,0.07,0.15c0.02,0.05,0.02,0.11,0.01,0.17c-0.01,0.06-0.03,0.11-0.07,0.18c-0.04,0.06-0.1,0.12-0.17,0.17
					c-0.06,0.05-0.13,0.08-0.2,0.11c-0.07,0.03-0.14,0.04-0.21,0.03L9.6,29.37z"/>
				<path class="st21" d="M11.3,28.57c0.01,0.03,0.02,0.05,0.04,0.06c0.01,0.01,0.02,0.02,0.04,0.02c0.02,0,0.04,0,0.07-0.01
					c0.03-0.01,0.07-0.03,0.12-0.05l0.03,0.06l-0.61,0.29l-0.03-0.06c0.05-0.03,0.09-0.05,0.11-0.06c0.03-0.02,0.05-0.03,0.06-0.05
					c0.01-0.01,0.01-0.03,0.01-0.05c0-0.02-0.01-0.04-0.03-0.06l-0.51-1.08l-0.11,0.05c-0.06,0.03-0.1,0.05-0.13,0.08
					c-0.03,0.02-0.05,0.05-0.07,0.08c-0.01,0.03-0.02,0.06-0.01,0.1c0,0.04,0.02,0.08,0.04,0.14l-0.06,0.03l-0.15-0.32l1.1-0.52
					l0.15,0.32l-0.06,0.03c-0.03-0.05-0.06-0.09-0.08-0.12c-0.02-0.03-0.05-0.05-0.08-0.06c-0.03-0.01-0.06-0.01-0.1,0
					c-0.04,0.01-0.09,0.03-0.14,0.05l-0.11,0.05L11.3,28.57z"/>
				<path class="st21" d="M12.32,27.77l0.02,0.49c0,0.03,0,0.05,0.01,0.07c0,0.02,0.01,0.03,0.02,0.04
					c0.01,0.01,0.03,0.01,0.06,0.01c0.03,0,0.06,0.01,0.11,0.01l0,0.06l-0.59,0.02l0-0.06c0.05-0.01,0.08-0.01,0.11-0.02
					c0.02,0,0.04-0.01,0.06-0.02c0.01-0.01,0.02-0.02,0.02-0.04c0-0.02,0-0.04,0-0.07l-0.04-1.07c0-0.03,0-0.05,0-0.07
					c0-0.02-0.01-0.03-0.02-0.04c-0.02-0.01-0.03-0.01-0.06-0.02c-0.02,0-0.06-0.01-0.11-0.01l0-0.06l0.61-0.02
					c0.09,0,0.17,0,0.24,0.02c0.06,0.02,0.12,0.04,0.16,0.07c0.04,0.03,0.07,0.07,0.09,0.11c0.02,0.04,0.03,0.09,0.03,0.14
					c0,0.1-0.03,0.18-0.09,0.25c-0.06,0.06-0.15,0.11-0.24,0.13v0.01c0.06,0.01,0.1,0.03,0.14,0.05c0.04,0.02,0.06,0.05,0.09,0.08
					c0.02,0.03,0.04,0.07,0.05,0.11c0.01,0.04,0.02,0.09,0.03,0.13c0.01,0.04,0.02,0.07,0.02,0.1c0.01,0.03,0.02,0.06,0.04,0.09
					c0.02,0.02,0.04,0.04,0.07,0.06c0.03,0.02,0.06,0.02,0.1,0.03l0,0.06l-0.17,0.01c-0.06,0-0.11-0.01-0.16-0.04
					c-0.04-0.02-0.07-0.07-0.09-0.14c-0.01-0.03-0.01-0.05-0.02-0.08c-0.01-0.03-0.01-0.06-0.02-0.09
					c-0.01-0.03-0.01-0.06-0.02-0.09c-0.01-0.03-0.01-0.05-0.01-0.06c-0.02-0.07-0.06-0.12-0.1-0.14c-0.05-0.02-0.1-0.04-0.16-0.03
					L12.32,27.77z M12.48,27.69c0.1,0,0.18-0.03,0.24-0.08c0.05-0.05,0.08-0.13,0.07-0.25c0-0.06-0.02-0.11-0.04-0.15
					c-0.02-0.04-0.05-0.07-0.08-0.09c-0.03-0.02-0.07-0.04-0.11-0.04c-0.04-0.01-0.08-0.01-0.12-0.01c-0.04,0-0.06,0-0.08,0.01
					c-0.02,0-0.04,0.01-0.05,0.02c-0.01,0.01-0.02,0.02-0.02,0.03c0,0.01,0,0.03,0,0.06l0.02,0.52L12.48,27.69z"/>
				<path class="st21" d="M14.18,28.89l0.03-0.05l0.09,0.03c0.03,0.01,0.06,0.01,0.07,0c0.01-0.01,0.02-0.03,0.02-0.06l0.05-0.43
					l-0.42-0.21c-0.06,0.06-0.11,0.11-0.16,0.16c-0.05,0.05-0.09,0.1-0.14,0.15c-0.02,0.02-0.03,0.04-0.03,0.05
					c0,0.01,0.02,0.03,0.04,0.04l0.09,0.06l-0.02,0.05l-0.42-0.2l0.03-0.05c0.03,0.01,0.06,0.02,0.08,0.03c0.02,0,0.04,0.01,0.06,0
					c0.02-0.01,0.03-0.01,0.05-0.03c0.02-0.01,0.04-0.03,0.06-0.05c0.08-0.07,0.16-0.15,0.25-0.24c0.09-0.09,0.17-0.16,0.24-0.23
					l0.47-0.47l0.14,0.07l-0.15,1.34c0,0.03,0,0.05,0,0.07c0,0.02,0,0.03,0.01,0.05c0.01,0.01,0.02,0.03,0.04,0.04
					c0.02,0.01,0.04,0.02,0.06,0.04l-0.03,0.06L14.18,28.89z M14.52,27.67L14.52,27.67c-0.08,0.07-0.15,0.14-0.23,0.22
					c-0.08,0.08-0.15,0.16-0.23,0.24l0.38,0.18L14.52,27.67z"/>
				<path class="st21" d="M15.35,29.36c-0.03,0.04-0.05,0.07-0.06,0.09c-0.01,0.02-0.01,0.04,0.01,0.06
					c0.01,0.02,0.03,0.04,0.06,0.07c0.03,0.03,0.06,0.06,0.1,0.09c0.04,0.04,0.08,0.06,0.12,0.09c0.04,0.02,0.07,0.03,0.11,0.04
					c0.04,0,0.08-0.01,0.12-0.02c0.04-0.02,0.09-0.05,0.14-0.1l0.05,0.04L15.73,30l-0.85-0.69l0.04-0.05
					c0.04,0.03,0.07,0.05,0.09,0.06c0.02,0.01,0.04,0.02,0.06,0.02c0.01,0,0.03,0,0.04-0.02c0.01-0.01,0.03-0.03,0.05-0.05
					l0.67-0.83c0.02-0.02,0.03-0.04,0.04-0.05c0.01-0.01,0.01-0.03,0.01-0.04c-0.01-0.02-0.01-0.03-0.03-0.05
					c-0.02-0.02-0.04-0.04-0.08-0.08l0.04-0.05l0.47,0.38l-0.04,0.05c-0.04-0.03-0.07-0.05-0.09-0.06
					c-0.02-0.01-0.04-0.02-0.06-0.02c-0.02,0-0.03,0-0.04,0.01c-0.01,0.01-0.03,0.03-0.05,0.05L15.35,29.36z"/>
				<path class="st21" d="M16.39,30.41c-0.02,0.02-0.04,0.04-0.05,0.05c-0.01,0.01-0.01,0.03-0.01,0.04c0,0.01,0.01,0.03,0.03,0.05
					c0.02,0.02,0.04,0.05,0.07,0.09l-0.04,0.04l-0.4-0.43l0.04-0.04c0.03,0.03,0.06,0.06,0.08,0.07c0.02,0.02,0.04,0.03,0.05,0.03
					c0.01,0,0.03,0,0.04-0.01c0.02-0.01,0.03-0.03,0.05-0.05l0.78-0.73c0.02-0.02,0.04-0.04,0.05-0.05
					c0.01-0.01,0.01-0.03,0.01-0.04c0-0.02-0.01-0.03-0.02-0.05c-0.01-0.02-0.04-0.05-0.07-0.09l0.04-0.04l0.41,0.43l-0.04,0.04
					c-0.04-0.03-0.06-0.05-0.08-0.07c-0.02-0.02-0.04-0.03-0.05-0.03c-0.02,0-0.03,0-0.05,0.01c-0.01,0.01-0.03,0.02-0.05,0.04
					L16.39,30.41z"/>
				<path class="st21" d="M17.01,30.74l0.04,0.05c-0.08,0.09-0.13,0.19-0.15,0.28c-0.02,0.1,0,0.18,0.06,0.26
					c0.06,0.08,0.12,0.12,0.19,0.13c0.08,0.01,0.15-0.01,0.22-0.07c0.04-0.03,0.07-0.06,0.08-0.1c0.02-0.04,0.02-0.08,0.03-0.12
					c0-0.04,0-0.08-0.01-0.11c-0.01-0.04-0.01-0.07-0.02-0.09l-0.01-0.04c-0.02-0.05-0.03-0.11-0.04-0.17
					c-0.01-0.06-0.01-0.11-0.01-0.16c0.01-0.05,0.02-0.09,0.04-0.14c0.02-0.04,0.05-0.08,0.1-0.11c0.06-0.04,0.11-0.07,0.17-0.08
					c0.06-0.01,0.11-0.01,0.16,0.01c0.05,0.02,0.11,0.04,0.15,0.08c0.05,0.04,0.09,0.08,0.13,0.13c0.04,0.06,0.08,0.12,0.1,0.18
					c0.03,0.06,0.04,0.12,0.04,0.16l-0.24,0.18l-0.04-0.05c0.15-0.15,0.17-0.3,0.06-0.44c-0.05-0.07-0.11-0.11-0.18-0.12
					c-0.07-0.01-0.13,0.01-0.2,0.06c-0.05,0.04-0.08,0.09-0.09,0.16c-0.01,0.07,0,0.14,0.03,0.21l0.02,0.07
					c0.02,0.06,0.03,0.12,0.04,0.18c0.01,0.06,0.01,0.11,0,0.16c-0.01,0.05-0.02,0.1-0.05,0.14c-0.03,0.04-0.06,0.09-0.11,0.12
					c-0.05,0.03-0.09,0.06-0.14,0.07c-0.05,0.01-0.11,0.02-0.17,0.01c-0.06-0.01-0.12-0.03-0.18-0.07
					c-0.06-0.04-0.12-0.09-0.17-0.17c-0.04-0.06-0.08-0.13-0.11-0.2c-0.03-0.08-0.04-0.15-0.03-0.21L17.01,30.74z"/>
				<polygon class="st21" points="18.59,32.92 18.46,32.99 18.22,32.53 18.35,32.46 				"/>
				<path class="st21" d="M11.22,46.4l-0.06-0.03c0.03-0.12,0.04-0.22,0.02-0.32c-0.02-0.09-0.08-0.16-0.17-0.21
					c-0.08-0.04-0.16-0.06-0.23-0.04c-0.07,0.02-0.13,0.07-0.17,0.15c-0.02,0.04-0.03,0.09-0.03,0.13c0,0.04,0.01,0.08,0.03,0.12
					c0.02,0.04,0.03,0.07,0.05,0.1c0.02,0.03,0.04,0.06,0.06,0.08l0.02,0.03c0.04,0.04,0.07,0.09,0.11,0.13
					c0.03,0.05,0.06,0.09,0.07,0.14c0.02,0.05,0.02,0.09,0.02,0.14c0,0.05-0.02,0.1-0.04,0.15c-0.03,0.06-0.07,0.11-0.12,0.14
					c-0.05,0.03-0.1,0.05-0.15,0.06c-0.06,0.01-0.11,0-0.17-0.01c-0.06-0.01-0.12-0.03-0.17-0.06c-0.06-0.03-0.12-0.07-0.17-0.12
					c-0.05-0.05-0.09-0.09-0.1-0.13l0.14-0.26l0.06,0.03c-0.07,0.2-0.03,0.34,0.13,0.43c0.08,0.04,0.15,0.05,0.21,0.03
					c0.07-0.02,0.12-0.07,0.15-0.14c0.03-0.06,0.03-0.12,0.01-0.18c-0.02-0.06-0.06-0.12-0.11-0.18l-0.05-0.05
					c-0.04-0.05-0.08-0.1-0.12-0.15c-0.03-0.05-0.06-0.1-0.07-0.15c-0.02-0.05-0.02-0.1-0.02-0.15c0.01-0.05,0.02-0.1,0.05-0.16
					c0.03-0.05,0.06-0.09,0.1-0.13c0.04-0.04,0.09-0.06,0.15-0.08c0.06-0.02,0.12-0.02,0.19-0.01c0.07,0.01,0.15,0.04,0.23,0.08
					c0.07,0.03,0.13,0.08,0.19,0.14c0.06,0.05,0.1,0.11,0.12,0.17L11.22,46.4z"/>
				<path class="st21" d="M9.59,45.03c0.02-0.02,0.03-0.04,0.04-0.06c0.01-0.02,0.01-0.03,0-0.05c-0.01-0.02-0.02-0.04-0.04-0.06
					c-0.02-0.02-0.05-0.06-0.09-0.1l0.04-0.05l0.52,0.44l-0.04,0.05c-0.04-0.03-0.08-0.06-0.11-0.08c-0.03-0.02-0.05-0.03-0.06-0.03
					c-0.02-0.01-0.03,0-0.05,0.01c-0.01,0.01-0.03,0.03-0.05,0.05l-0.77,0.91l0.09,0.08c0.05,0.04,0.09,0.07,0.12,0.09
					c0.03,0.02,0.07,0.03,0.1,0.03c0.03,0,0.06-0.01,0.09-0.03c0.03-0.02,0.07-0.05,0.11-0.09l0.05,0.04l-0.23,0.27l-0.93-0.79
					l0.23-0.27l0.05,0.04c-0.03,0.05-0.06,0.09-0.07,0.12c-0.01,0.03-0.02,0.07-0.02,0.1c0,0.03,0.02,0.06,0.04,0.09
					c0.03,0.03,0.06,0.07,0.11,0.11l0.1,0.08L9.59,45.03z"/>
				<path class="st21" d="M7.65,44.88l0.05-0.04l0.08,0.08c0.02,0.02,0.04,0.02,0.05,0.02c0.01,0,0.02-0.02,0.04-0.04
					c0.05-0.08,0.1-0.16,0.14-0.24c0.05-0.08,0.1-0.17,0.15-0.25l0.29-0.5l0,0l-0.61,0.22c-0.11,0.04-0.2,0.08-0.29,0.11
					c-0.09,0.03-0.15,0.06-0.19,0.08c-0.02,0.01-0.03,0.02-0.03,0.03c-0.01,0.01,0,0.03,0.01,0.05l0.07,0.1l-0.05,0.04l-0.3-0.36
					l0.05-0.04c0.02,0.02,0.04,0.04,0.05,0.05c0.02,0.01,0.03,0.02,0.04,0.03c0.01,0.01,0.03,0.01,0.04,0.01
					c0.02,0,0.04-0.01,0.07-0.01c0.06-0.02,0.14-0.04,0.24-0.08c0.1-0.03,0.21-0.07,0.33-0.12l0.73-0.26l0.1,0.12l-0.36,0.62
					c-0.06,0.1-0.11,0.19-0.17,0.29c-0.05,0.1-0.1,0.18-0.15,0.27C8.02,45.06,8,45.09,8,45.1c0,0.02-0.01,0.03,0,0.05
					C8,45.17,8,45.19,8.01,45.2c0.01,0.02,0.02,0.03,0.04,0.06L8.01,45.3L7.65,44.88z"/>
				<path class="st21" d="M6.41,43.16c-0.06-0.11-0.11-0.21-0.13-0.31c-0.02-0.1-0.03-0.19-0.01-0.28c0.02-0.09,0.06-0.17,0.12-0.24
					c0.06-0.07,0.14-0.14,0.23-0.19c0.14-0.08,0.26-0.13,0.38-0.13c0.12-0.01,0.21,0.01,0.3,0.05c0.09,0.04,0.16,0.1,0.22,0.17
					c0.06,0.07,0.12,0.15,0.17,0.23l0.34,0.57l-0.05,0.03c-0.03-0.04-0.05-0.07-0.06-0.09c-0.02-0.02-0.03-0.03-0.05-0.04
					c-0.01-0.01-0.03-0.01-0.04,0c-0.02,0.01-0.04,0.02-0.06,0.03L6.84,43.5c-0.02,0.01-0.04,0.03-0.06,0.04
					c-0.01,0.01-0.02,0.02-0.02,0.04c0,0.02,0,0.04,0.01,0.06c0.01,0.02,0.02,0.06,0.05,0.1l-0.05,0.03L6.41,43.16z M7.6,42.81
					c0.04-0.02,0.06-0.04,0.08-0.06c0.02-0.02,0.03-0.04,0.03-0.06c0-0.02,0-0.04-0.01-0.07c-0.01-0.03-0.03-0.06-0.05-0.1
					c-0.05-0.08-0.1-0.14-0.15-0.19c-0.06-0.06-0.12-0.09-0.19-0.11c-0.07-0.02-0.15-0.02-0.24-0.01c-0.09,0.02-0.2,0.06-0.31,0.13
					c-0.08,0.05-0.15,0.1-0.2,0.15c-0.06,0.06-0.1,0.12-0.12,0.19c-0.03,0.07-0.04,0.14-0.02,0.22c0.01,0.08,0.04,0.17,0.1,0.27
					c0.03,0.05,0.05,0.09,0.07,0.11c0.02,0.03,0.03,0.05,0.05,0.06c0.02,0.01,0.03,0.01,0.05,0.01c0.02-0.01,0.04-0.01,0.06-0.03
					L7.6,42.81z"/>
				<path class="st21" d="M6.77,41.05c0.03-0.01,0.05-0.02,0.06-0.03c0.01-0.01,0.02-0.02,0.03-0.04c0-0.01,0-0.03-0.01-0.06
					c-0.01-0.03-0.02-0.06-0.03-0.1l0.06-0.02l0.23,0.54l-0.06,0.02c-0.02-0.04-0.04-0.07-0.05-0.1c-0.01-0.02-0.02-0.04-0.04-0.04
					c-0.01-0.01-0.03-0.01-0.04-0.01c-0.02,0.01-0.04,0.01-0.07,0.02l-0.98,0.41c-0.03,0.01-0.05,0.02-0.06,0.03
					c-0.01,0.01-0.02,0.02-0.03,0.03c0,0.02,0,0.04,0,0.06c0.01,0.02,0.02,0.06,0.03,0.11l-0.06,0.02l-0.23-0.54l0.06-0.02
					c0.02,0.04,0.04,0.07,0.05,0.1c0.01,0.02,0.03,0.04,0.04,0.05c0.01,0.01,0.03,0.01,0.05,0.01c0.02,0,0.04-0.01,0.06-0.02
					L6.77,41.05z"/>
				<path class="st21" d="M5.08,40.07c-0.03-0.12-0.04-0.22-0.03-0.31c0.01-0.09,0.04-0.17,0.09-0.25c0.1-0.15,0.26-0.26,0.5-0.32
					c0.11-0.03,0.22-0.04,0.32-0.04c0.1,0.01,0.19,0.03,0.26,0.07c0.08,0.04,0.15,0.1,0.2,0.17c0.06,0.07,0.1,0.17,0.13,0.29
					C6.59,39.8,6.6,39.9,6.58,40c-0.01,0.09-0.04,0.18-0.09,0.25c-0.05,0.07-0.11,0.13-0.2,0.19c-0.08,0.05-0.18,0.1-0.3,0.13
					c-0.12,0.03-0.22,0.04-0.32,0.04c-0.1-0.01-0.19-0.03-0.26-0.07c-0.08-0.04-0.15-0.1-0.2-0.18C5.15,40.28,5.11,40.19,5.08,40.07
					 M5.15,40.05c0.02,0.09,0.06,0.16,0.12,0.21c0.06,0.05,0.12,0.08,0.19,0.1c0.08,0.02,0.15,0.02,0.23,0.01
					c0.08-0.01,0.16-0.02,0.24-0.04c0.07-0.02,0.15-0.05,0.22-0.08c0.07-0.03,0.14-0.08,0.2-0.12c0.06-0.05,0.1-0.11,0.13-0.18
					c0.03-0.07,0.03-0.15,0-0.24c-0.02-0.09-0.06-0.16-0.12-0.21c-0.06-0.05-0.12-0.08-0.2-0.1c-0.07-0.02-0.15-0.02-0.23-0.01
					c-0.08,0.01-0.16,0.02-0.24,0.04c-0.08,0.02-0.15,0.05-0.23,0.08c-0.08,0.03-0.14,0.08-0.2,0.13c-0.06,0.05-0.1,0.11-0.12,0.18
					C5.13,39.88,5.13,39.96,5.15,40.05"/>
				<path class="st21" d="M5.57,38.22l0.49-0.03c0.03,0,0.05-0.01,0.07-0.01c0.02,0,0.03-0.01,0.04-0.03
					c0.01-0.01,0.01-0.03,0.01-0.06c0-0.02,0-0.06,0-0.11l0.06-0.01l0.04,0.59l-0.06,0.01c-0.01-0.05-0.01-0.08-0.02-0.11
					c0-0.02-0.01-0.04-0.02-0.05c-0.01-0.01-0.02-0.02-0.04-0.02c-0.02,0-0.04,0-0.07,0l-1.07,0.07c-0.03,0-0.05,0-0.07,0.01
					c-0.02,0-0.03,0.01-0.04,0.02c-0.01,0.01-0.01,0.03-0.01,0.06c0,0.02,0,0.06,0,0.11l-0.06,0l-0.04-0.61
					c-0.01-0.09,0-0.17,0.01-0.24c0.01-0.06,0.04-0.12,0.07-0.16c0.03-0.04,0.07-0.07,0.11-0.09c0.04-0.02,0.09-0.03,0.14-0.04
					c0.1-0.01,0.18,0.02,0.25,0.08c0.07,0.06,0.11,0.14,0.14,0.24h0.01c0.01-0.06,0.02-0.1,0.05-0.14c0.02-0.04,0.05-0.07,0.08-0.09
					c0.03-0.02,0.07-0.04,0.11-0.05c0.04-0.01,0.08-0.02,0.13-0.03c0.03-0.01,0.07-0.02,0.1-0.03c0.03-0.01,0.06-0.02,0.08-0.04
					c0.02-0.02,0.04-0.04,0.06-0.07c0.02-0.03,0.02-0.06,0.02-0.1l0.06,0l0.01,0.17c0.01,0.06-0.01,0.12-0.03,0.16
					c-0.02,0.04-0.07,0.07-0.14,0.09C6.02,37.73,6,37.73,5.97,37.74c-0.03,0.01-0.06,0.02-0.09,0.03c-0.03,0.01-0.06,0.01-0.08,0.02
					c-0.03,0.01-0.05,0.01-0.06,0.02c-0.07,0.02-0.12,0.06-0.14,0.1c-0.02,0.05-0.03,0.1-0.03,0.17L5.57,38.22z M5.49,38.06
					c-0.01-0.1-0.04-0.18-0.09-0.23c-0.05-0.05-0.14-0.07-0.25-0.07c-0.06,0-0.11,0.02-0.15,0.04c-0.04,0.02-0.07,0.05-0.09,0.08
					c-0.02,0.03-0.04,0.07-0.04,0.11c-0.01,0.04-0.01,0.08-0.01,0.12c0,0.03,0.01,0.06,0.01,0.08c0.01,0.02,0.01,0.04,0.02,0.05
					c0.01,0.01,0.02,0.02,0.03,0.02c0.02,0,0.04,0,0.06,0l0.52-0.04L5.49,38.06z"/>
				<path class="st21" d="M4.81,36.36l0.06,0.01l0,0.11c0,0.03,0.01,0.04,0.02,0.05c0.01,0.01,0.03,0.01,0.06,0
					c0.09-0.02,0.18-0.04,0.27-0.06c0.09-0.02,0.19-0.04,0.28-0.07l0.56-0.14l0.01,0l-0.58-0.29c-0.1-0.05-0.19-0.09-0.28-0.13
					c-0.08-0.04-0.15-0.07-0.19-0.09c-0.02-0.01-0.03-0.01-0.04-0.01c-0.01,0-0.02,0.02-0.03,0.05l-0.02,0.11L4.86,35.9l0.05-0.46
					l0.06,0.01c0,0.03,0,0.05,0,0.07c0,0.02,0,0.04,0.01,0.05C4.98,35.58,4.99,35.59,5,35.6c0.01,0.01,0.03,0.02,0.06,0.04
					c0.05,0.03,0.12,0.07,0.22,0.12c0.1,0.05,0.2,0.1,0.31,0.16l0.7,0.35l-0.02,0.15l-0.7,0.16c-0.11,0.02-0.22,0.05-0.32,0.08
					c-0.11,0.03-0.21,0.05-0.3,0.08c-0.03,0.01-0.05,0.02-0.07,0.02c-0.02,0.01-0.03,0.02-0.04,0.03c-0.01,0.01-0.02,0.03-0.02,0.05
					c0,0.02-0.01,0.04-0.02,0.07L4.75,36.9L4.81,36.36z"/>
				<path class="st21" d="M6.4,35.35l-0.06-0.02c0.01-0.05,0.02-0.1,0.02-0.12c0-0.03-0.03-0.06-0.07-0.07
					c-0.03-0.02-0.07-0.03-0.11-0.05c-0.04-0.02-0.08-0.03-0.14-0.05l-0.8-0.26c-0.03-0.01-0.05-0.02-0.07-0.02
					c-0.02,0-0.03,0-0.05,0.01c-0.01,0.01-0.02,0.02-0.04,0.05c-0.01,0.02-0.03,0.06-0.04,0.1L5.01,34.9l0.13-0.41
					c0.1-0.01,0.2-0.01,0.3-0.03c0.1-0.01,0.2-0.02,0.31-0.04l0.61-0.06v0L5.9,33.95c-0.08-0.07-0.15-0.14-0.23-0.2
					c-0.07-0.07-0.15-0.13-0.23-0.2l0.13-0.4l0.06,0.02c-0.01,0.05-0.02,0.08-0.02,0.11c0,0.03,0,0.05,0,0.06
					c0.01,0.01,0.02,0.02,0.03,0.03c0.02,0.01,0.04,0.02,0.06,0.02l1.02,0.33c0.03,0.01,0.05,0.02,0.07,0.02
					c0.02,0,0.03,0,0.04-0.01c0.01-0.01,0.02-0.02,0.03-0.05c0.01-0.02,0.03-0.06,0.04-0.1l0.06,0.02l-0.18,0.56l-0.06-0.02
					c0.01-0.05,0.02-0.08,0.02-0.11c0-0.03,0-0.05,0-0.06c0-0.01-0.01-0.03-0.03-0.03c-0.02-0.01-0.04-0.01-0.07-0.02l-1.02-0.33
					l0,0.01l1.02,0.91l-0.02,0.05l-1.35,0.14l0,0l0.8,0.26c0.05,0.02,0.1,0.03,0.14,0.04C6.26,35,6.3,35.01,6.33,35.01
					c0.05,0.01,0.08,0,0.1-0.02c0.02-0.03,0.04-0.07,0.07-0.13l0.06,0.02L6.4,35.35z"/>
				<path class="st21" d="M19.84,33.78l-0.06,0.02l-0.05-0.1c-0.01-0.02-0.02-0.04-0.03-0.04c-0.01,0-0.03,0.01-0.05,0.02
					c-0.07,0.05-0.15,0.11-0.22,0.17c-0.08,0.06-0.15,0.12-0.23,0.18l-0.45,0.36l0,0l0.65,0.02c0.11,0,0.22,0.01,0.31,0.01
					c0.09,0,0.16,0,0.21,0c0.02,0,0.04,0,0.04-0.01c0.01-0.01,0.01-0.02,0.01-0.05l-0.03-0.11l0.06-0.02l0.15,0.44l-0.06,0.02
					c-0.01-0.03-0.02-0.05-0.03-0.06c-0.01-0.02-0.02-0.03-0.03-0.04c-0.01-0.01-0.03-0.02-0.04-0.02
					c-0.02-0.01-0.04-0.01-0.07-0.01c-0.06-0.01-0.14-0.01-0.25-0.02c-0.11-0.01-0.23-0.01-0.35-0.02l-0.78-0.03l-0.05-0.14
					l0.57-0.44c0.09-0.07,0.18-0.14,0.26-0.2c0.08-0.07,0.16-0.13,0.24-0.19c0.02-0.02,0.04-0.04,0.05-0.05
					c0.01-0.01,0.02-0.03,0.02-0.04c0-0.02,0-0.03,0-0.05c0-0.02-0.01-0.04-0.02-0.07l0.06-0.02L19.84,33.78z"/>
				<path class="st21" d="M20.27,35.38c-0.17,0.17-0.34,0.33-0.52,0.5c-0.17,0.16-0.34,0.33-0.51,0.5l0,0.01l0.74-0.11
					c0.11-0.02,0.19-0.04,0.26-0.06c0.04-0.01,0.07-0.03,0.07-0.06c0.01-0.03,0.01-0.08,0-0.15l0.06-0.01l0.08,0.5l-0.06,0.01
					c-0.01-0.05-0.03-0.09-0.04-0.12c-0.02-0.03-0.04-0.04-0.09-0.04c-0.07,0-0.16,0.01-0.26,0.02l-1.02,0.16l-0.02-0.14
					c0.19-0.18,0.37-0.36,0.56-0.54c0.19-0.18,0.37-0.36,0.56-0.55l0,0l-0.84,0.13c-0.06,0.01-0.1,0.02-0.14,0.03
					c-0.04,0.01-0.08,0.02-0.11,0.03c-0.04,0.01-0.07,0.04-0.07,0.06c-0.01,0.03-0.01,0.08,0,0.15l-0.06,0.01l-0.08-0.49l0.06-0.01
					c0.01,0.05,0.03,0.09,0.04,0.12c0.01,0.03,0.04,0.04,0.09,0.04c0.04,0,0.07,0,0.12-0.01c0.04-0.01,0.09-0.01,0.14-0.02
					l0.83-0.13c0.03-0.01,0.05-0.01,0.07-0.01c0.02,0,0.03-0.01,0.03-0.03c0.01-0.01,0.01-0.03,0.01-0.06c0-0.03,0-0.06,0-0.11
					l0.06-0.01L20.27,35.38z"/>
				<path class="st21" d="M19.18,37.34c-0.03,0-0.05,0-0.07,0.01c-0.02,0-0.03,0.01-0.04,0.02c-0.01,0.01-0.01,0.03-0.02,0.06
					c0,0.03-0.01,0.06-0.01,0.11h-0.06l-0.01-0.59l0.06,0c0.01,0.05,0.01,0.08,0.01,0.11c0.01,0.03,0.01,0.04,0.02,0.06
					c0.01,0.01,0.02,0.02,0.04,0.02c0.02,0,0.04,0,0.07,0l1.07-0.02c0.03,0,0.05,0,0.07,0c0.02,0,0.03-0.01,0.04-0.02
					c0.01-0.01,0.01-0.03,0.02-0.06c0-0.03,0.01-0.06,0.01-0.11l0.06,0l0.01,0.59l-0.06,0c0-0.05-0.01-0.08-0.01-0.11
					c0-0.03-0.01-0.04-0.02-0.06c-0.01-0.01-0.02-0.02-0.04-0.02c-0.02,0-0.04,0-0.07,0L19.18,37.34z"/>
				<path class="st21" d="M20.4,38.4l-0.06-0.01l0-0.11c0-0.03-0.01-0.04-0.02-0.05c-0.01-0.01-0.03-0.01-0.06,0
					c-0.09,0.02-0.18,0.04-0.27,0.06c-0.09,0.02-0.19,0.04-0.29,0.07l-0.56,0.14l0,0l0.58,0.29c0.1,0.05,0.19,0.1,0.28,0.13
					c0.08,0.04,0.15,0.07,0.19,0.08c0.02,0.01,0.03,0.01,0.04,0.01c0.01,0,0.02-0.02,0.03-0.05l0.02-0.11l0.06,0.01l-0.05,0.47
					l-0.06-0.01c0-0.03,0-0.05,0-0.07c0-0.02,0-0.03-0.01-0.05c-0.01-0.01-0.01-0.03-0.03-0.04c-0.01-0.01-0.03-0.02-0.05-0.04
					c-0.05-0.03-0.13-0.07-0.22-0.12c-0.1-0.05-0.2-0.1-0.31-0.16l-0.7-0.35l0.02-0.15l0.7-0.16c0.11-0.02,0.22-0.05,0.32-0.08
					c0.11-0.03,0.21-0.05,0.3-0.08C20.28,38.01,20.3,38,20.32,38c0.02-0.01,0.03-0.02,0.04-0.03c0.01-0.01,0.02-0.03,0.02-0.05
					c0-0.02,0.01-0.04,0.01-0.07l0.06,0.01L20.4,38.4z"/>
				<path class="st21" d="M19.94,40.66l-0.34-0.09l0.02-0.06c0.05,0.01,0.1,0.01,0.14,0.01c0.04,0,0.07-0.01,0.1-0.03
					c0.03-0.02,0.05-0.04,0.06-0.08c0.02-0.03,0.03-0.08,0.05-0.14l0.05-0.2c0.01-0.03,0.01-0.06,0.01-0.07
					c-0.01-0.01-0.03-0.02-0.06-0.03l-0.49-0.13l-0.08,0.29c-0.01,0.04-0.02,0.08-0.02,0.11c0,0.03,0.01,0.05,0.01,0.06
					c0.01,0.02,0.03,0.03,0.05,0.04c0.02,0.01,0.05,0.02,0.08,0.04l-0.02,0.06l-0.43-0.12l0.02-0.06c0.03,0,0.06,0.01,0.09,0.01
					c0.02,0,0.05,0,0.06-0.01c0.02-0.01,0.04-0.03,0.05-0.05c0.01-0.02,0.03-0.06,0.04-0.1l0.08-0.29l-0.45-0.12
					c-0.05-0.01-0.09-0.02-0.11-0.02c-0.02,0-0.04,0.01-0.06,0.03c-0.01,0.02-0.03,0.05-0.04,0.08c-0.01,0.03-0.03,0.08-0.04,0.12
					c-0.02,0.06-0.03,0.12-0.03,0.17c-0.01,0.05,0,0.09,0.01,0.12c0.01,0.04,0.03,0.07,0.07,0.09c0.03,0.03,0.08,0.06,0.14,0.09
					l-0.02,0.06l-0.35-0.12l0.29-1.08l0.06,0.02c-0.01,0.05-0.02,0.08-0.02,0.11c0,0.02,0,0.05,0,0.06c0,0.01,0.02,0.03,0.03,0.03
					c0.02,0.01,0.04,0.01,0.07,0.02l1.03,0.28c0.03,0.01,0.05,0.01,0.07,0.01c0.02,0,0.03,0,0.05-0.01
					c0.01-0.01,0.02-0.03,0.03-0.05c0.01-0.02,0.02-0.06,0.04-0.1l0.06,0.02L19.94,40.66z"/>
				<path class="st21" d="M18.9,41.22l-0.45-0.19c-0.03-0.01-0.05-0.02-0.07-0.02c-0.02,0-0.03,0-0.04,0.01
					c-0.01,0.01-0.03,0.02-0.04,0.05c-0.02,0.02-0.03,0.05-0.05,0.09l-0.06-0.02l0.23-0.54l0.06,0.02
					c-0.02,0.05-0.03,0.08-0.03,0.11c-0.01,0.02-0.01,0.04-0.01,0.06c0,0.02,0.01,0.03,0.03,0.03c0.02,0.01,0.04,0.02,0.06,0.03
					l0.98,0.42c0.03,0.01,0.05,0.02,0.06,0.03c0.02,0,0.03,0,0.04-0.01c0.01-0.01,0.03-0.02,0.04-0.04c0.01-0.02,0.03-0.05,0.05-0.1
					l0.06,0.02l-0.24,0.57c-0.04,0.09-0.08,0.15-0.12,0.21c-0.04,0.05-0.08,0.09-0.13,0.11c-0.05,0.02-0.09,0.03-0.14,0.03
					c-0.05,0-0.09-0.01-0.14-0.03c-0.09-0.04-0.16-0.1-0.19-0.19c-0.03-0.09-0.04-0.18-0.01-0.28l-0.01,0
					c-0.03,0.05-0.07,0.08-0.1,0.11c-0.04,0.02-0.08,0.04-0.11,0.04c-0.04,0.01-0.08,0.01-0.12,0c-0.04-0.01-0.08-0.02-0.13-0.03
					c-0.03-0.01-0.07-0.02-0.1-0.02c-0.03-0.01-0.06-0.01-0.09,0c-0.03,0.01-0.06,0.02-0.08,0.03c-0.03,0.02-0.05,0.04-0.07,0.08
					l-0.06-0.02l0.07-0.16c0.02-0.06,0.06-0.1,0.1-0.13c0.04-0.03,0.1-0.03,0.16-0.02c0.03,0,0.05,0.01,0.09,0.02
					c0.03,0.01,0.06,0.01,0.09,0.02c0.03,0.01,0.06,0.01,0.08,0.02c0.03,0.01,0.05,0.01,0.06,0.01c0.07,0.01,0.13,0,0.17-0.03
					c0.04-0.03,0.07-0.08,0.1-0.14L18.9,41.22z M18.9,41.4c-0.04,0.1-0.05,0.18-0.03,0.25c0.03,0.07,0.09,0.13,0.19,0.17
					c0.06,0.03,0.11,0.04,0.15,0.03c0.04,0,0.08-0.01,0.12-0.03c0.03-0.02,0.06-0.05,0.09-0.08c0.02-0.03,0.04-0.07,0.06-0.1
					c0.01-0.03,0.02-0.06,0.03-0.08c0.01-0.02,0.01-0.04,0.01-0.05c0-0.01-0.01-0.02-0.02-0.03c-0.01-0.01-0.03-0.02-0.05-0.03
					l-0.48-0.2L18.9,41.4z"/>
				<path class="st21" d="M18.18,42.18l-0.03,0.06c-0.11-0.04-0.22-0.05-0.32-0.03c-0.1,0.02-0.17,0.07-0.22,0.16
					c-0.05,0.08-0.06,0.16-0.04,0.23c0.02,0.07,0.06,0.13,0.14,0.18c0.04,0.02,0.08,0.04,0.13,0.04c0.04,0,0.08-0.01,0.12-0.02
					c0.04-0.01,0.07-0.03,0.1-0.05c0.03-0.02,0.06-0.04,0.08-0.05l0.03-0.02c0.05-0.04,0.09-0.07,0.14-0.1
					c0.05-0.03,0.1-0.05,0.14-0.07c0.05-0.01,0.1-0.02,0.14-0.01c0.05,0,0.1,0.02,0.14,0.05c0.06,0.03,0.11,0.08,0.14,0.12
					c0.03,0.05,0.05,0.1,0.05,0.16c0,0.05,0,0.11-0.02,0.17c-0.02,0.06-0.04,0.12-0.07,0.17c-0.04,0.06-0.08,0.12-0.13,0.16
					c-0.05,0.05-0.09,0.08-0.13,0.1l-0.26-0.15l0.03-0.06c0.2,0.08,0.34,0.04,0.43-0.11c0.05-0.08,0.06-0.15,0.04-0.21
					c-0.02-0.07-0.06-0.12-0.13-0.16c-0.06-0.03-0.12-0.04-0.18-0.02c-0.07,0.02-0.13,0.06-0.19,0.1l-0.05,0.04
					c-0.05,0.04-0.1,0.08-0.15,0.11c-0.05,0.03-0.1,0.05-0.15,0.06c-0.05,0.01-0.1,0.02-0.15,0.01c-0.05-0.01-0.1-0.03-0.16-0.06
					c-0.05-0.03-0.09-0.06-0.12-0.11c-0.03-0.04-0.06-0.09-0.07-0.15c-0.01-0.06-0.01-0.12,0-0.19c0.01-0.07,0.04-0.14,0.09-0.22
					c0.04-0.07,0.09-0.13,0.14-0.18c0.06-0.06,0.12-0.09,0.18-0.11L18.18,42.18z"/>
				<path class="st21" d="M17.09,43.44c-0.02-0.02-0.04-0.03-0.06-0.04c-0.02-0.01-0.03-0.01-0.04,0c-0.02,0.01-0.03,0.02-0.05,0.04
					c-0.02,0.02-0.04,0.05-0.07,0.08l-0.05-0.03L17.16,43l0.05,0.04c-0.03,0.04-0.04,0.07-0.05,0.09c-0.01,0.02-0.02,0.04-0.02,0.06
					c0,0.02,0.01,0.03,0.02,0.04c0.01,0.01,0.03,0.03,0.06,0.04l0.86,0.63c0.02,0.02,0.04,0.03,0.06,0.04
					c0.01,0.01,0.03,0.01,0.04,0.01c0.01-0.01,0.03-0.02,0.05-0.03c0.02-0.02,0.04-0.05,0.07-0.08l0.05,0.04l-0.35,0.48l-0.05-0.03
					c0.02-0.04,0.04-0.07,0.05-0.1c0.01-0.02,0.02-0.04,0.02-0.06c0-0.02-0.01-0.03-0.02-0.04c-0.01-0.01-0.03-0.03-0.05-0.04
					L17.09,43.44z"/>
				<path class="st21" d="M16.34,44.33c-0.02-0.02-0.04-0.03-0.06-0.04c-0.01-0.01-0.03-0.01-0.05-0.01
					c-0.02,0.01-0.03,0.02-0.06,0.04c-0.03,0.02-0.06,0.05-0.1,0.09l-0.05-0.04l0.46-0.5l0.04,0.04c-0.04,0.04-0.06,0.08-0.08,0.1
					c-0.02,0.03-0.03,0.05-0.03,0.06c0,0.02,0,0.03,0.01,0.05c0.01,0.01,0.03,0.03,0.05,0.05l0.88,0.8l0.08-0.09
					c0.04-0.04,0.07-0.08,0.1-0.12c0.02-0.03,0.03-0.07,0.03-0.1c0-0.03-0.01-0.06-0.03-0.09c-0.02-0.03-0.05-0.07-0.09-0.11
					l0.04-0.05l0.26,0.24l-0.82,0.9l-0.26-0.24l0.04-0.05c0.05,0.04,0.09,0.06,0.12,0.08c0.03,0.01,0.06,0.02,0.1,0.02
					c0.03,0,0.06-0.02,0.09-0.04c0.03-0.02,0.07-0.06,0.11-0.1l0.09-0.09L16.34,44.33z"/>
				<path class="st21" d="M15.1,45.21l0.04,0.05l-0.07,0.07c-0.02,0.02-0.04,0.05-0.03,0.06c0,0.02,0.02,0.03,0.05,0.05l0.36,0.23
					l0.37-0.3c-0.03-0.08-0.05-0.15-0.08-0.21c-0.02-0.06-0.05-0.13-0.08-0.19c-0.01-0.03-0.02-0.05-0.04-0.05
					c-0.01,0-0.03,0-0.06,0.02l-0.09,0.06l-0.04-0.05l0.36-0.29l0.04,0.05c-0.03,0.02-0.04,0.04-0.06,0.06
					c-0.01,0.02-0.02,0.03-0.02,0.05c-0.01,0.02-0.01,0.03,0,0.06c0.01,0.02,0.01,0.04,0.02,0.07c0.03,0.1,0.07,0.21,0.11,0.32
					c0.04,0.12,0.08,0.22,0.11,0.31l0.22,0.63l-0.12,0.1l-1.15-0.71c-0.02-0.01-0.04-0.03-0.06-0.03c-0.02-0.01-0.03-0.01-0.05-0.01
					c-0.02,0-0.03,0.01-0.05,0.02c-0.02,0.01-0.04,0.02-0.06,0.04l-0.04-0.05L15.1,45.21z M16.05,46.04L16.05,46.04
					c-0.03-0.1-0.06-0.2-0.1-0.3c-0.04-0.1-0.08-0.2-0.11-0.31l-0.33,0.26L16.05,46.04z"/>
				<path class="st21" d="M14.72,46.02l-0.06,0.03c-0.08-0.1-0.16-0.16-0.25-0.19c-0.09-0.03-0.18-0.03-0.27,0.02
					c-0.08,0.04-0.14,0.1-0.16,0.17c-0.03,0.07-0.01,0.15,0.03,0.23c0.02,0.04,0.05,0.07,0.09,0.1c0.04,0.02,0.07,0.04,0.11,0.05
					c0.04,0.01,0.08,0.01,0.11,0.01c0.04,0,0.07,0,0.1,0l0.04,0c0.06-0.01,0.11-0.01,0.17-0.01c0.05,0,0.11,0.01,0.15,0.02
					c0.05,0.01,0.09,0.03,0.13,0.06c0.04,0.03,0.07,0.07,0.1,0.12c0.03,0.06,0.05,0.12,0.05,0.18c0,0.06-0.01,0.11-0.04,0.16
					c-0.03,0.05-0.06,0.1-0.1,0.14c-0.04,0.04-0.09,0.08-0.15,0.1c-0.06,0.03-0.13,0.06-0.19,0.07c-0.07,0.02-0.12,0.02-0.17,0.01
					l-0.14-0.27l0.06-0.03c0.12,0.17,0.27,0.22,0.43,0.14c0.08-0.04,0.13-0.09,0.15-0.16c0.02-0.06,0.01-0.13-0.03-0.2
					c-0.03-0.06-0.08-0.09-0.14-0.11c-0.07-0.02-0.14-0.02-0.21-0.01l-0.07,0.01c-0.07,0.01-0.13,0.01-0.19,0.01
					c-0.06,0-0.11-0.01-0.16-0.02c-0.05-0.02-0.09-0.04-0.13-0.07c-0.04-0.03-0.07-0.08-0.1-0.13c-0.03-0.05-0.04-0.1-0.05-0.16
					c-0.01-0.05,0-0.11,0.02-0.16c0.02-0.05,0.05-0.11,0.1-0.16c0.05-0.05,0.11-0.1,0.19-0.14c0.07-0.03,0.14-0.06,0.22-0.08
					c0.08-0.02,0.15-0.02,0.21,0L14.72,46.02z"/>
				<polygon class="st21" points="12.28,46.86 12.29,46.71 12.81,46.73 12.8,46.88 				"/>
				<path class="st21" d="M15.37,42.8c-0.58-0.25-1.55-0.4-2.61-0.4c-1.02,0-1.98,0.14-2.56,0.38c-0.02,0.01-0.03,0.03-0.02,0.04
					c0,0.01,0.03,0.02,0.04,0.02h0c0.32-0.11,0.66-0.16,1.02-0.16c0.48,0,0.98,0.16,1.53,0.48c0,0,0.01,0.01,0.02,0.01l0.02-0.01
					c0.55-0.31,1.05-0.47,1.53-0.47c0.35,0,0.69,0.06,1.02,0.17c0.01,0,0.03-0.01,0.03-0.02C15.39,42.84,15.38,42.81,15.37,42.8"/>
				<path class="st21" d="M14.3,38.53c-0.52,0.26-1.29,0.66-1.59,1.13c-0.29-0.47-1.08-0.88-1.6-1.14c0,0,0,0.23-0.23,0.31
					c-0.21,0.08-0.57,0.04-0.57,0.04c0,0,1.71,0.58,1.71,2.12c0,0.45-0.04,1.17-0.39,1.48h0c0.42,0,0.8,0.16,1.1,0.42
					c0.3-0.25,0.66-0.4,1.06-0.41c-0.36-0.31-0.4-1.04-0.4-1.5c0-1.54,1.71-2.13,1.71-2.13c0,0-0.39,0.03-0.54-0.05
					C14.43,38.73,14.3,38.53,14.3,38.53"/>
				<path class="st21" d="M17.78,37.44l0.02-0.1l-0.09-0.03c-0.07-0.03-0.15-0.04-0.23-0.04c-0.04,0-0.07,0.01-0.11,0.01
					c0.08-0.12,0.13-0.27,0.14-0.42l0.01-0.1l-0.1-0.01c-0.03-0.01-0.06-0.01-0.1-0.01c0.13-0.16,0.2-0.36,0.19-0.56l-0.01-0.1
					l-0.1,0c-0.04,0-0.08,0.01-0.13,0.01c0.05-0.08,0.09-0.18,0.11-0.27c0.04-0.22-0.01-0.44-0.14-0.61l-0.06-0.08l-0.09,0.06
					c-0.02,0.02-0.04,0.04-0.07,0.06c0.04-0.13,0.05-0.27,0.03-0.41c-0.05-0.22-0.17-0.4-0.36-0.51l-0.09-0.05l-0.06,0.09
					c-0.02,0.04-0.04,0.08-0.06,0.11c-0.02-0.07-0.06-0.13-0.1-0.19l-0.06-0.08l-0.03,0.02c0.04-0.14,0.05-0.29,0.02-0.44l-0.02-0.1
					l-0.1,0.02c-0.08,0.01-0.16,0.04-0.23,0.08l0.01-0.03l-0.08-0.05c-0.11-0.07-0.24-0.11-0.38-0.11c-0.05,0-0.1,0.01-0.15,0.02
					c0.04-0.09,0.07-0.19,0.07-0.29l0.01-0.1l-0.1-0.02c-0.04-0.01-0.08-0.01-0.12-0.01c-0.17,0-0.33,0.06-0.46,0.17
					c0.01-0.21-0.07-0.42-0.21-0.57l-0.07-0.08l-0.08,0.07c-0.16,0.14-0.26,0.34-0.28,0.55c-0.02-0.02-0.04-0.04-0.06-0.05
					l-0.08-0.06l-0.05,0.06c-0.01-0.04-0.02-0.07-0.03-0.11l-0.04-0.1l-0.1,0.03c-0.07,0.02-0.14,0.06-0.2,0.1
					c0-0.05-0.01-0.1-0.01-0.15c-0.04-0.22-0.17-0.4-0.35-0.52l-0.09-0.05l-0.06,0.09c-0.1,0.15-0.15,0.32-0.14,0.5
					c-0.05-0.05-0.11-0.09-0.17-0.12l-0.09-0.04l-0.02,0.04c-0.01-0.03-0.01-0.06-0.02-0.09l-0.03-0.1l-0.1,0.03
					c-0.17,0.05-0.32,0.17-0.42,0.32c0,0,0-0.01,0-0.01c-0.04-0.22-0.17-0.4-0.35-0.52l-0.09-0.05l-0.06,0.09
					c-0.07,0.1-0.11,0.22-0.13,0.34c-0.01-0.05-0.02-0.09-0.04-0.14l-0.04-0.09l-0.1,0.04c-0.2,0.08-0.36,0.24-0.44,0.44
					c-0.01,0.02-0.01,0.05-0.02,0.07c0,0,0,0,0,0c-0.13-0.17-0.33-0.28-0.54-0.29l-0.1-0.01l-0.02,0.1
					c-0.02,0.11-0.01,0.21,0.01,0.32c-0.06-0.05-0.11-0.09-0.18-0.11l-0.1-0.04l-0.04,0.09c-0.04,0.09-0.06,0.18-0.07,0.28
					c-0.01-0.05-0.03-0.09-0.05-0.14l-0.05-0.09l-0.09,0.04c-0.19,0.09-0.35,0.26-0.41,0.47c-0.01,0.02-0.01,0.04-0.01,0.07
					c-0.04-0.08-0.09-0.15-0.16-0.21L8.9,33.66l-0.07,0.07c-0.1,0.1-0.16,0.22-0.2,0.35C8.61,34.04,8.59,34,8.56,33.97l-0.06-0.08
					l-0.08,0.06c-0.17,0.13-0.29,0.33-0.31,0.54c-0.02,0.13,0,0.26,0.05,0.38c-0.05-0.05-0.11-0.09-0.17-0.12l-0.09-0.05L7.83,34.8
					c-0.1,0.19-0.13,0.42-0.07,0.63c0.01,0.03,0.02,0.06,0.04,0.09c-0.03-0.02-0.05-0.03-0.08-0.05l-0.09-0.04l-0.05,0.09
					c-0.1,0.2-0.11,0.43-0.04,0.63c0.01,0.04,0.03,0.08,0.05,0.11c-0.06-0.01-0.12-0.03-0.18-0.03c-0.02,0-0.05,0-0.07,0l-0.1,0.01
					v0.1c0,0.22,0.09,0.43,0.24,0.58c0.03,0.03,0.07,0.06,0.11,0.09c-0.09,0.02-0.18,0.06-0.27,0.11l-0.08,0.05l0.04,0.09
					c0.05,0.1,0.12,0.19,0.21,0.26c-0.1,0.01-0.2,0.04-0.29,0.08l-0.08,0.05l0.04,0.09c0.08,0.2,0.24,0.36,0.44,0.44
					c0.02,0.01,0.05,0.01,0.07,0.02c-0.07,0.05-0.13,0.1-0.18,0.17l-0.06,0.08l0.07,0.06c0.1,0.1,0.23,0.17,0.37,0.2
					c-0.06,0.05-0.11,0.11-0.15,0.18l-0.05,0.08l0.08,0.06c0.13,0.1,0.29,0.16,0.45,0.16c0.05,0,0.1-0.01,0.15-0.01
					c0.04-0.01,0.09-0.02,0.13-0.04l-0.02,0.04l0.08,0.05c0.11,0.06,0.23,0.09,0.36,0.09c0.09,0,0.17-0.02,0.25-0.05
					c0.09-0.03,0.16-0.08,0.23-0.15c0,0.02,0,0.03,0,0.05l0,0.1l0.1,0.01c0.02,0,0.04,0,0.05,0c0.19,0,0.38-0.08,0.52-0.22
					c0.06-0.06,0.11-0.14,0.15-0.22c0.11,0.06,0.23,0.1,0.36,0.1c0.05,0,0.1-0.01,0.15-0.02c0.17-0.04,0.32-0.14,0.43-0.28
					l0.08-0.02c0.16-0.03,0.3-0.12,0.4-0.25c0.04,0.16,0.12,0.3,0.23,0.4l0.08,0.07l0.07-0.07c0.06-0.06,0.1-0.13,0.14-0.2
					c0.08,0.18,0.22,0.33,0.4,0.41l0.09,0.04l0.05-0.09c0.01-0.02,0.02-0.05,0.03-0.07l0.01,0.03l0.1-0.03
					c0.18-0.06,0.33-0.19,0.43-0.36c0.04,0.1,0.1,0.2,0.18,0.28l0.07,0.07l0.08-0.07c0.12-0.12,0.21-0.27,0.24-0.44
					c0.1,0.13,0.24,0.22,0.41,0.26l0.04,0.01c0.11,0.15,0.26,0.26,0.44,0.3c0.05,0.01,0.1,0.02,0.16,0.02
					c0.16,0,0.31-0.05,0.45-0.15l0.05-0.04c0.04,0.1,0.1,0.19,0.18,0.27c0.14,0.13,0.32,0.21,0.51,0.21c0.02,0,0.04,0,0.07,0
					l0.1-0.01l0-0.1c0-0.04,0-0.07-0.01-0.11c0.09,0.06,0.19,0.1,0.3,0.12c0.04,0.01,0.07,0.01,0.11,0.01
					c0.17,0,0.34-0.06,0.48-0.18l0.07-0.06l-0.05-0.08c-0.03-0.05-0.08-0.1-0.12-0.14c0.1,0,0.19-0.03,0.28-0.07
					c0.19-0.09,0.34-0.26,0.4-0.47l0.03-0.09l-0.09-0.04c-0.05-0.02-0.11-0.04-0.17-0.05C17.62,37.82,17.74,37.64,17.78,37.44
					 M9.87,37.82l-0.18,0.45l-0.18-0.45l-0.45-0.18l0.45-0.18l0.18-0.45l0.18,0.45l0.45,0.18L9.87,37.82z M11.78,34.61l-0.17,0.44
					l-0.17-0.44l-0.44-0.17l0.44-0.18l0.17-0.44l0.17,0.44l0.44,0.18L11.78,34.61z M14.51,37.01l-0.17,0.44l-0.18-0.44l-0.44-0.18
					l0.44-0.18l0.18-0.44l0.17,0.44l0.44,0.18L14.51,37.01z M14.93,34.67l-0.17,0.44l-0.17-0.44l-0.44-0.18l0.44-0.17l0.17-0.44
					l0.17,0.44l0.44,0.17L14.93,34.67z"/>
				<path class="st21" d="M31.76,34.62l0-0.14c-0.06,0.06-0.13,0.11-0.21,0.15c-0.08,0.03-0.16,0.05-0.25,0.05
					c-0.09,0-0.18-0.01-0.25-0.04c-0.07-0.03-0.13-0.07-0.18-0.12c-0.05-0.05-0.09-0.12-0.11-0.19c-0.03-0.07-0.04-0.16-0.04-0.25
					v-0.92c0-0.05-0.01-0.08-0.02-0.1c-0.01-0.02-0.03-0.04-0.05-0.06h0.46c-0.02,0.01-0.04,0.03-0.05,0.05
					c-0.02,0.02-0.02,0.06-0.02,0.1v0.82c0,0.06,0.01,0.12,0.01,0.18c0.01,0.06,0.03,0.11,0.05,0.16c0.03,0.05,0.06,0.09,0.11,0.11
					c0.04,0.03,0.1,0.05,0.17,0.05c0.06,0,0.11-0.01,0.15-0.03c0.05-0.02,0.09-0.04,0.12-0.08c0.03-0.03,0.06-0.06,0.08-0.1
					c0.02-0.04,0.03-0.07,0.03-0.11v-0.99c0-0.01,0-0.02,0-0.04c0-0.01-0.01-0.03-0.01-0.04c0-0.01-0.01-0.03-0.02-0.04
					c-0.01-0.01-0.02-0.03-0.04-0.04h0.45c-0.03,0.02-0.05,0.04-0.06,0.07c-0.01,0.03-0.01,0.06-0.01,0.08v1.3
					c0,0.04,0,0.07,0.01,0.1c0.01,0.03,0.03,0.05,0.06,0.07H31.76z"/>
				<path class="st21" d="M34.95,33c-0.02,0.01-0.04,0.03-0.05,0.06c-0.01,0.03-0.02,0.05-0.02,0.09v1.48h-0.13l-1.05-1.25v0.55
					v0.55c0,0.02,0.01,0.05,0.02,0.08c0.01,0.03,0.03,0.05,0.05,0.07h-0.33c0.03-0.02,0.05-0.05,0.06-0.07
					c0.01-0.02,0.01-0.05,0.01-0.08v-1.32c0-0.04,0-0.07-0.01-0.09c-0.01-0.02-0.03-0.04-0.05-0.06h0.31l0.94,1.12v-0.98
					c0-0.03-0.01-0.05-0.02-0.07c-0.01-0.02-0.03-0.04-0.05-0.06H34.95z"/>
				<path class="st21" d="M36.25,34.62c0.03-0.02,0.04-0.05,0.05-0.07c0.01-0.02,0.01-0.05,0.01-0.08v-1.32c0-0.03,0-0.06-0.01-0.08
					c-0.01-0.02-0.03-0.05-0.06-0.07h0.45c-0.03,0.02-0.05,0.04-0.06,0.07c-0.01,0.03-0.01,0.05-0.01,0.09v1.32
					c0,0.03,0.01,0.06,0.02,0.08c0.01,0.03,0.03,0.05,0.05,0.06H36.25z"/>
				<path class="st21" d="M39.38,33c-0.03,0.01-0.05,0.04-0.07,0.07c-0.02,0.03-0.04,0.07-0.05,0.11l-0.56,1.45h-0.1L38,33.17
					c-0.01-0.04-0.03-0.08-0.06-0.11c-0.02-0.03-0.05-0.05-0.07-0.06h0.45c-0.03,0.01-0.04,0.04-0.03,0.07
					c0,0.03,0.02,0.08,0.04,0.14l0.37,0.91l0.37-0.94c0.02-0.05,0.03-0.09,0.03-0.12c0-0.02-0.01-0.04-0.03-0.06H39.38z"/>
				<path class="st21" d="M41.71,34.62h-1.15c0.03-0.02,0.05-0.04,0.06-0.07c0.01-0.02,0.01-0.05,0.01-0.09v-1.3
					c0-0.04-0.01-0.07-0.01-0.09c-0.01-0.02-0.03-0.05-0.06-0.07h1.08l0.03,0.18c-0.03-0.01-0.06-0.02-0.1-0.03
					c-0.04,0-0.08,0-0.12,0h-0.5v0.54c0.04,0,0.09,0,0.14,0c0.05,0,0.1,0,0.15,0c0.05,0,0.1,0,0.15,0c0.05,0,0.09-0.01,0.14-0.01
					l0.03,0.2c-0.01-0.01-0.03-0.01-0.05-0.02c-0.02,0-0.04-0.01-0.06-0.01c-0.02,0-0.04-0.01-0.06-0.01c-0.02,0-0.04,0-0.05,0
					h-0.39v0.62c0.02,0,0.04,0.01,0.06,0.01c0.02,0,0.05,0.01,0.07,0.01c0.03,0,0.05,0,0.08,0c0.02,0,0.04,0,0.06,0h0.14
					c0.04,0,0.09,0,0.13-0.01c0.04,0,0.09-0.01,0.13-0.02c0.04-0.01,0.08-0.03,0.12-0.05L41.71,34.62z"/>
				<path class="st21" d="M44.51,34.6c-0.06,0.01-0.11,0.02-0.15,0.02c-0.04,0.01-0.09,0.01-0.15,0.01c-0.02,0-0.04,0-0.06,0
					c-0.02,0-0.03,0-0.05-0.01c-0.01,0-0.03-0.01-0.04-0.01c-0.01-0.01-0.03-0.02-0.05-0.03c-0.02-0.02-0.07-0.07-0.13-0.15
					c-0.06-0.09-0.14-0.21-0.25-0.38c-0.02-0.03-0.04-0.06-0.05-0.08c-0.02-0.02-0.04-0.04-0.06-0.06
					c-0.02-0.02-0.05-0.03-0.08-0.03c-0.03-0.01-0.06-0.01-0.1-0.01v0.6c0,0.03,0.01,0.06,0.02,0.08c0.01,0.03,0.03,0.05,0.06,0.07
					h-0.46c0.05-0.03,0.07-0.08,0.07-0.13v-1.33c0-0.03,0-0.06-0.01-0.09c-0.01-0.03-0.03-0.05-0.06-0.07h0.58
					c0.08,0,0.15,0.01,0.22,0.03c0.07,0.02,0.13,0.04,0.18,0.07c0.05,0.03,0.09,0.07,0.12,0.12c0.03,0.05,0.05,0.11,0.05,0.17
					c0,0.06-0.01,0.12-0.05,0.16c-0.03,0.05-0.07,0.09-0.11,0.12c-0.05,0.03-0.1,0.06-0.15,0.08c-0.06,0.02-0.11,0.03-0.16,0.04
					c0.05,0,0.09,0.01,0.13,0.04c0.04,0.03,0.09,0.06,0.13,0.11c0.04,0.05,0.08,0.1,0.12,0.15c0.04,0.06,0.08,0.12,0.12,0.17
					c0.04,0.05,0.07,0.1,0.1,0.13c0.03,0.04,0.06,0.07,0.09,0.1c0.03,0.03,0.06,0.05,0.09,0.06C44.45,34.58,44.48,34.59,44.51,34.6
					 M43.78,33.42c0-0.05-0.01-0.09-0.03-0.13c-0.02-0.03-0.05-0.06-0.08-0.09c-0.04-0.02-0.07-0.04-0.12-0.05
					c-0.04-0.01-0.09-0.01-0.14-0.01c-0.02,0-0.05,0-0.07,0.01v0.58c0.03,0.01,0.05,0.01,0.08,0.01c0.05,0,0.09-0.01,0.13-0.02
					c0.04-0.01,0.08-0.03,0.11-0.06c0.03-0.03,0.06-0.06,0.08-0.1C43.77,33.51,43.78,33.47,43.78,33.42"/>
				<path class="st21" d="M46.76,34.17c0,0.09-0.02,0.16-0.05,0.22c-0.03,0.06-0.08,0.11-0.14,0.16c-0.06,0.04-0.12,0.07-0.19,0.09
					c-0.07,0.02-0.15,0.03-0.22,0.03c-0.03,0-0.07,0-0.12-0.01c-0.05,0-0.1-0.01-0.15-0.02c-0.05-0.01-0.1-0.02-0.14-0.04
					c-0.04-0.02-0.08-0.04-0.1-0.06c-0.01-0.01-0.01-0.03-0.02-0.06c0-0.03-0.01-0.06-0.01-0.09v-0.1c0-0.03,0-0.05,0-0.08
					c0.03,0.05,0.07,0.09,0.1,0.13c0.04,0.03,0.08,0.07,0.12,0.09c0.04,0.03,0.09,0.04,0.14,0.06c0.05,0.01,0.1,0.02,0.16,0.02
					c0.04,0,0.08,0,0.12-0.01c0.04-0.01,0.07-0.02,0.1-0.04c0.03-0.02,0.06-0.05,0.07-0.08c0.02-0.03,0.03-0.07,0.03-0.12
					c0-0.06-0.02-0.11-0.06-0.16c-0.04-0.05-0.09-0.1-0.15-0.14c-0.06-0.05-0.12-0.09-0.19-0.14c-0.07-0.05-0.13-0.09-0.19-0.14
					c-0.06-0.05-0.11-0.1-0.15-0.16c-0.04-0.06-0.06-0.12-0.06-0.19c0-0.08,0.02-0.14,0.05-0.19c0.04-0.05,0.08-0.09,0.14-0.12
					c0.05-0.03,0.12-0.05,0.18-0.07c0.07-0.01,0.13-0.02,0.19-0.02c0.03,0,0.06,0,0.1,0.01c0.04,0,0.08,0.01,0.11,0.01
					c0.04,0.01,0.08,0.01,0.11,0.02c0.03,0.01,0.07,0.02,0.09,0.03l0.02,0.26c-0.04-0.05-0.1-0.09-0.17-0.13
					c-0.07-0.04-0.16-0.05-0.25-0.05c-0.03,0-0.06,0-0.1,0.01c-0.03,0.01-0.06,0.02-0.09,0.03c-0.03,0.01-0.05,0.03-0.06,0.06
					c-0.02,0.02-0.02,0.05-0.02,0.09c0,0.05,0.02,0.1,0.06,0.14c0.04,0.04,0.09,0.09,0.14,0.12c0.06,0.04,0.12,0.08,0.19,0.12
					c0.07,0.04,0.13,0.09,0.19,0.14c0.06,0.05,0.1,0.1,0.14,0.16C46.74,34.03,46.76,34.1,46.76,34.17"/>
				<path class="st21" d="M48.04,34.62c0.03-0.02,0.04-0.05,0.05-0.07c0.01-0.02,0.01-0.05,0.01-0.08v-1.32c0-0.03,0-0.06-0.01-0.08
					c-0.01-0.02-0.03-0.05-0.06-0.07h0.45c-0.03,0.02-0.05,0.04-0.06,0.07c-0.01,0.03-0.01,0.05-0.01,0.09v1.32
					c0,0.03,0.01,0.06,0.02,0.08c0.01,0.03,0.03,0.05,0.05,0.06H48.04z"/>
				<path class="st21" d="M51.35,33.84c0,0.12-0.02,0.23-0.06,0.33c-0.04,0.1-0.1,0.18-0.17,0.25c-0.07,0.07-0.16,0.12-0.26,0.16
					c-0.1,0.04-0.21,0.05-0.33,0.05H49.8c0.02-0.02,0.04-0.04,0.05-0.06c0.01-0.02,0.02-0.05,0.02-0.08v-1.32
					c0-0.04,0-0.08-0.02-0.1c-0.01-0.02-0.03-0.04-0.05-0.06h0.6c0.13,0,0.25,0.02,0.37,0.05c0.12,0.03,0.22,0.09,0.3,0.16
					c0.09,0.07,0.16,0.16,0.21,0.26C51.33,33.58,51.35,33.7,51.35,33.84 M51.02,33.82c0-0.1-0.01-0.2-0.04-0.28
					c-0.03-0.08-0.08-0.16-0.13-0.22c-0.06-0.06-0.13-0.1-0.22-0.14c-0.08-0.03-0.18-0.05-0.29-0.05c-0.03,0-0.05,0-0.08,0
					c-0.03,0-0.05,0-0.08,0.01v1.3c0.02,0,0.04,0.01,0.07,0.01c0.03,0,0.05,0,0.08,0.01c0.03,0,0.06,0,0.09,0c0.03,0,0.06,0,0.08,0
					c0.09,0,0.17-0.02,0.24-0.06c0.06-0.04,0.12-0.09,0.15-0.15c0.04-0.06,0.07-0.13,0.09-0.21C51.01,33.98,51.02,33.9,51.02,33.82"
					/>
				<path class="st21" d="M53.72,34.62c0.02-0.01,0.03-0.02,0.03-0.04c0-0.02,0-0.05-0.02-0.07l-0.18-0.41
					c-0.05,0-0.1-0.01-0.15-0.01c-0.06,0-0.11,0-0.16,0c-0.05,0-0.11,0-0.16,0c-0.05,0-0.11,0-0.16,0.01l-0.15,0.36
					c-0.02,0.05-0.03,0.08-0.03,0.1c0,0.02,0.01,0.04,0.03,0.05h-0.3c0.04-0.03,0.08-0.08,0.11-0.14l0.52-1.29
					c0.01-0.03,0.02-0.06,0.02-0.07c0.01-0.01,0.01-0.02,0.01-0.03c0-0.01-0.01-0.03-0.02-0.05C53.11,33.01,53.1,33,53.07,33h0.35
					l0.62,1.48c0.02,0.04,0.03,0.07,0.05,0.09c0.02,0.03,0.04,0.04,0.06,0.05H53.72z M53.24,33.32l-0.25,0.62
					c0.04,0,0.08,0.01,0.13,0.01c0.04,0,0.08,0,0.12,0c0.04,0,0.08,0,0.13,0c0.05,0,0.09,0,0.13-0.01L53.24,33.32z"/>
				<path class="st21" d="M56.88,33.84c0,0.12-0.02,0.23-0.06,0.33c-0.04,0.1-0.1,0.18-0.17,0.25c-0.07,0.07-0.16,0.12-0.26,0.16
					c-0.1,0.04-0.21,0.05-0.33,0.05h-0.74c0.03-0.02,0.04-0.04,0.05-0.06c0.01-0.02,0.01-0.05,0.01-0.08v-1.32
					c0-0.04-0.01-0.08-0.02-0.1c-0.01-0.02-0.03-0.04-0.05-0.06h0.6c0.13,0,0.25,0.02,0.37,0.05c0.12,0.03,0.22,0.09,0.31,0.16
					c0.09,0.07,0.16,0.16,0.21,0.26C56.85,33.58,56.88,33.7,56.88,33.84 M56.54,33.82c0-0.1-0.01-0.2-0.05-0.28
					c-0.03-0.08-0.07-0.16-0.13-0.22c-0.06-0.06-0.13-0.1-0.22-0.14c-0.08-0.03-0.18-0.05-0.29-0.05c-0.02,0-0.05,0-0.08,0
					c-0.03,0-0.05,0-0.08,0.01v1.3c0.02,0,0.04,0.01,0.07,0.01c0.02,0,0.05,0,0.08,0.01c0.03,0,0.06,0,0.09,0c0.03,0,0.06,0,0.08,0
					c0.09,0,0.17-0.02,0.23-0.06c0.06-0.04,0.12-0.09,0.16-0.15c0.04-0.06,0.07-0.13,0.09-0.21C56.53,33.98,56.54,33.9,56.54,33.82"
					/>
				<path class="st21" d="M28.56,42.66c0.08-0.03,0.13-0.09,0.13-0.16c0.01-0.07-0.02-0.16-0.07-0.27l-0.66-1.53
					c-0.18-0.02-0.38-0.03-0.58-0.03c-0.21,0-0.41-0.01-0.59-0.01c-0.19,0-0.39,0-0.59,0.01c-0.2,0.01-0.41,0.02-0.6,0.03
					l-0.56,1.36c-0.08,0.19-0.12,0.32-0.12,0.39c-0.01,0.08,0.03,0.15,0.12,0.21h-1.13c0.16-0.1,0.3-0.29,0.4-0.54l1.94-4.86
					c0.05-0.12,0.08-0.21,0.09-0.26c0.01-0.06,0.02-0.09,0.02-0.12c0-0.04-0.02-0.1-0.06-0.18c-0.04-0.08-0.1-0.13-0.18-0.14h1.31
					l2.34,5.55c0.06,0.14,0.13,0.26,0.21,0.36c0.08,0.1,0.15,0.16,0.22,0.19H28.56z M26.75,37.79l-0.94,2.35
					c0.16,0.01,0.32,0.02,0.47,0.02c0.16,0.01,0.31,0.01,0.46,0.01c0.14,0,0.3,0,0.48-0.01c0.18-0.01,0.34-0.01,0.5-0.02
					L26.75,37.79z"/>
				<path class="st21" d="M34.66,42.66l-0.01-0.54c-0.22,0.24-0.49,0.42-0.79,0.55c-0.3,0.13-0.61,0.19-0.93,0.19
					c-0.35,0-0.66-0.05-0.93-0.16c-0.27-0.1-0.5-0.25-0.68-0.45c-0.19-0.2-0.33-0.43-0.42-0.71c-0.1-0.28-0.15-0.59-0.15-0.93v-3.44
					c0-0.18-0.02-0.3-0.07-0.39c-0.05-0.08-0.11-0.15-0.19-0.21h1.72c-0.08,0.05-0.15,0.12-0.2,0.21c-0.05,0.09-0.08,0.22-0.08,0.39
					v3.1c0,0.22,0.02,0.44,0.05,0.66c0.03,0.22,0.1,0.42,0.19,0.6c0.09,0.18,0.23,0.32,0.39,0.43c0.17,0.11,0.39,0.17,0.66,0.17
					c0.21,0,0.4-0.04,0.58-0.11c0.18-0.08,0.33-0.17,0.45-0.29c0.13-0.12,0.23-0.25,0.3-0.39c0.07-0.14,0.11-0.28,0.11-0.42v-3.74
					c0-0.04,0-0.09-0.01-0.14c-0.01-0.05-0.02-0.1-0.03-0.15c-0.02-0.06-0.04-0.11-0.08-0.16c-0.04-0.05-0.09-0.1-0.15-0.15h1.7
					c-0.11,0.07-0.18,0.16-0.21,0.27c-0.03,0.11-0.05,0.22-0.05,0.32v4.89c0,0.13,0.02,0.25,0.06,0.37c0.03,0.11,0.1,0.2,0.21,0.26
					H34.66z"/>
				<path class="st21" d="M41.06,40.99c0,0.32-0.07,0.6-0.19,0.84c-0.13,0.23-0.3,0.43-0.51,0.58c-0.21,0.15-0.46,0.27-0.73,0.34
					c-0.27,0.07-0.56,0.11-0.85,0.11c-0.12,0-0.28-0.01-0.46-0.02c-0.18-0.02-0.37-0.04-0.55-0.08c-0.18-0.04-0.36-0.09-0.52-0.15
					c-0.16-0.06-0.29-0.14-0.38-0.24c-0.03-0.04-0.06-0.12-0.07-0.22c-0.01-0.1-0.02-0.21-0.02-0.33c0-0.12,0-0.24,0-0.36
					c0-0.12,0.01-0.21,0.01-0.28c0.13,0.18,0.26,0.34,0.39,0.48c0.14,0.14,0.28,0.25,0.44,0.35c0.16,0.1,0.32,0.17,0.51,0.21
					c0.18,0.05,0.38,0.07,0.6,0.07c0.15,0,0.3-0.02,0.45-0.05c0.15-0.03,0.28-0.09,0.39-0.16c0.12-0.07,0.21-0.17,0.27-0.29
					c0.07-0.12,0.1-0.26,0.1-0.43c0-0.21-0.07-0.4-0.22-0.58c-0.14-0.18-0.33-0.36-0.55-0.53c-0.22-0.17-0.46-0.35-0.71-0.52
					c-0.25-0.17-0.49-0.35-0.71-0.54c-0.22-0.19-0.4-0.39-0.55-0.6c-0.14-0.21-0.22-0.45-0.22-0.7c0-0.28,0.07-0.52,0.2-0.71
					c0.14-0.19,0.31-0.35,0.51-0.46c0.21-0.12,0.44-0.2,0.69-0.25c0.25-0.05,0.49-0.07,0.73-0.07c0.11,0,0.24,0.01,0.38,0.02
					c0.14,0.01,0.29,0.03,0.43,0.06c0.14,0.02,0.28,0.05,0.42,0.09c0.13,0.04,0.25,0.08,0.33,0.12l0.09,0.98
					c-0.16-0.19-0.38-0.35-0.66-0.49c-0.28-0.14-0.59-0.2-0.94-0.2c-0.12,0-0.24,0.01-0.36,0.03c-0.12,0.02-0.23,0.06-0.33,0.11
					c-0.1,0.05-0.18,0.12-0.24,0.21c-0.06,0.09-0.1,0.2-0.1,0.33c0,0.19,0.07,0.37,0.22,0.53c0.14,0.16,0.32,0.32,0.54,0.47
					c0.22,0.15,0.45,0.31,0.7,0.46c0.25,0.16,0.48,0.33,0.7,0.51c0.22,0.19,0.4,0.39,0.54,0.61C40.98,40.45,41.06,40.7,41.06,40.99"
					/>
				<path class="st21" d="M47.24,36.5c-0.05,0.08-0.11,0.17-0.18,0.25c-0.07,0.09-0.16,0.17-0.24,0.24
					c-0.09,0.07-0.18,0.13-0.26,0.18c-0.09,0.05-0.16,0.07-0.23,0.07c-0.03,0-0.11,0-0.24,0c-0.13,0-0.27-0.01-0.42-0.01
					c-0.15,0-0.3,0-0.44-0.01c-0.14,0-0.24-0.01-0.29-0.01v4.84c0,0.12,0.02,0.24,0.06,0.35c0.04,0.11,0.11,0.19,0.21,0.26h-1.71
					c0.11-0.08,0.18-0.16,0.21-0.26c0.03-0.1,0.05-0.21,0.05-0.33v-4.86h-1.57c-0.13,0-0.25,0.01-0.38,0.03
					c-0.13,0.02-0.25,0.06-0.36,0.12l0.27-0.81h4.26c0.21,0,0.43-0.01,0.64-0.02C46.81,36.53,47.03,36.51,47.24,36.5"/>
				<path class="st21" d="M53.64,42.66c-0.3,0-1.07,0-1.29,0c-0.32,0-0.55-0.05-0.71-0.17c-0.09-0.07-0.24-0.24-0.48-0.55
					c-0.23-0.32-0.55-0.8-0.93-1.44c-0.07-0.12-0.13-0.21-0.2-0.29c-0.07-0.08-0.15-0.15-0.23-0.21c-0.08-0.06-0.18-0.1-0.29-0.13
					c-0.11-0.03-0.23-0.04-0.37-0.04v2.24c0,0.11,0.02,0.22,0.07,0.32c0.05,0.11,0.12,0.2,0.21,0.27H47.7
					c0.17-0.13,0.26-0.3,0.26-0.51v-5c0-0.12-0.02-0.24-0.05-0.33c-0.03-0.1-0.1-0.18-0.21-0.26h2.18c0.29,0,0.58,0.03,0.84,0.09
					c0.26,0.06,0.49,0.15,0.69,0.27c0.2,0.12,0.35,0.28,0.46,0.46c0.11,0.19,0.17,0.4,0.17,0.65c0,0.24-0.06,0.44-0.17,0.61
					c-0.11,0.17-0.26,0.32-0.43,0.44c-0.17,0.12-0.37,0.22-0.58,0.29c-0.21,0.07-0.41,0.13-0.6,0.16c0.17-0.01,0.34,0.04,0.51,0.14
					c0.16,0.1,0.32,0.24,0.48,0.41c0.16,0.17,0.31,0.36,0.46,0.58c0.15,0.22,0.3,0.44,0.45,0.66c0.13,0.2,0.26,0.37,0.37,0.51
					c0.12,0.14,0.23,0.26,0.34,0.36C52.98,42.28,53.45,42.66,53.64,42.66 M50.78,38.15c0-0.19-0.04-0.35-0.12-0.49
					c-0.08-0.13-0.18-0.24-0.31-0.32c-0.13-0.08-0.27-0.14-0.44-0.18c-0.16-0.04-0.33-0.06-0.51-0.06c-0.09,0-0.18,0.01-0.27,0.02
					v2.17c0.1,0.02,0.2,0.02,0.3,0.02c0.16,0,0.33-0.03,0.48-0.08c0.16-0.05,0.3-0.13,0.43-0.23c0.13-0.1,0.23-0.22,0.3-0.37
					C50.74,38.5,50.78,38.34,50.78,38.15"/>
				<path class="st21" d="M58.07,42.66c0.08-0.03,0.13-0.09,0.13-0.16c0-0.07-0.02-0.16-0.07-0.27l-0.66-1.53
					c-0.18-0.02-0.38-0.03-0.59-0.03c-0.21,0-0.41-0.01-0.59-0.01c-0.19,0-0.39,0-0.59,0.01c-0.21,0.01-0.41,0.02-0.6,0.03
					l-0.56,1.36c-0.08,0.19-0.12,0.32-0.12,0.39c-0.01,0.08,0.04,0.15,0.12,0.21h-1.13c0.16-0.1,0.3-0.29,0.4-0.54l1.94-4.86
					c0.05-0.12,0.08-0.21,0.1-0.26c0.01-0.06,0.02-0.09,0.02-0.12c0-0.04-0.02-0.1-0.06-0.18c-0.04-0.08-0.1-0.13-0.18-0.14h1.31
					l2.34,5.55c0.06,0.14,0.13,0.26,0.21,0.36c0.08,0.1,0.15,0.16,0.22,0.19H58.07z M56.26,37.79l-0.93,2.35
					c0.16,0.01,0.32,0.02,0.48,0.02c0.16,0.01,0.31,0.01,0.46,0.01c0.14,0,0.3,0,0.48-0.01c0.18-0.01,0.34-0.01,0.5-0.02
					L56.26,37.79z"/>
				<path class="st21" d="M64.46,42.66h-4.37c0.09-0.08,0.16-0.16,0.19-0.24c0.04-0.08,0.05-0.19,0.05-0.33v-4.94
					c0-0.11-0.01-0.22-0.04-0.31c-0.03-0.09-0.1-0.19-0.22-0.28h1.71c-0.11,0.08-0.19,0.17-0.22,0.27
					c-0.03,0.11-0.04,0.21-0.04,0.31v4.89c0.14,0.02,0.3,0.03,0.48,0.04c0.19,0.01,0.34,0.01,0.46,0.01c0.19,0,0.38,0,0.57,0
					c0.19,0,0.38-0.01,0.57-0.03c0.19-0.02,0.37-0.05,0.54-0.09c0.18-0.04,0.34-0.09,0.48-0.16L64.46,42.66z"/>
			</g>
		</g>
	</g>
</g>
<g id="Capa_6">
</g>
</svg>
