<?xml version="1.0" encoding="utf-8"?>
<!-- Generator: Adobe Illustrator 27.9.0, SVG Export Plug-In . SVG Version: 6.00 Build 0)  -->
<svg version="1.1" xmlns="http://www.w3.org/2000/svg" xmlns:xlink="http://www.w3.org/1999/xlink" x="0px" y="0px"
	 viewBox="0 0 126.08 75.06" style="enable-background:new 0 0 126.08 75.06;" xml:space="preserve">
<style type="text/css">
	.st0{fill:#F0F0F0;}
	.st1{display:none;}
	.st2{display:inline;fill:#1C1824;}
	.st3{fill:none;stroke:#D4D4D4;stroke-width:2.3506;stroke-miterlimit:10;}
	.st4{fill:none;stroke:#E3E3E3;stroke-width:0.5;stroke-miterlimit:10;}
	.st5{fill:none;stroke:#FFFFFE;stroke-width:0.8855;stroke-miterlimit:10;}
	.st6{fill:#FFFFFE;}
	.st7{fill:#16C0FE;}
	.st8{fill:#0000D7;}
	.st9{fill:#FFDE00;}
	.st10{fill:#6B6B6B;}
	.st11{fill:#696969;}
	.st12{fill:none;stroke:#474747;stroke-width:0.348;stroke-miterlimit:10;}
	.st13{fill:none;stroke:#474747;stroke-width:0.4442;stroke-miterlimit:10;}
	.st14{fill:none;stroke:#D2B356;stroke-width:5.9189;stroke-miterlimit:10;}
	.st15{fill:#D2B356;}
	.st16{fill:#FFFFFF;}
	.st17{fill:none;stroke:#000000;stroke-width:0.4956;stroke-miterlimit:10;}
	.st18{fill:none;stroke:#000000;stroke-width:1.6303;stroke-miterlimit:10;}
	.st19{fill:none;stroke:#A8A8A8;stroke-width:0.5;stroke-miterlimit:10;}
	.st20{display:inline;fill:none;stroke:#DBDBDB;stroke-width:0.4653;stroke-miterlimit:10;}
	.st21{fill:#303334;}
	.st22{clip-path:url(#SVGID_00000161611997978135312890000000957011394281864359_);fill:#B6B6B6;}
	.st23{fill-rule:evenodd;clip-rule:evenodd;fill:#303334;}
	.st24{fill:#262626;}
	.st25{fill:#424242;}
	.st26{fill:#595959;}
	.st27{fill:#A3A3A3;}
	.st28{fill:#606060;}
	.st29{fill:#848484;}
	.st30{fill:#040505;}
	.st31{fill-rule:evenodd;clip-rule:evenodd;fill:#2D2D2D;}
	.st32{fill-rule:evenodd;clip-rule:evenodd;fill:#989898;}
	.st33{fill:#4B4B4B;}
	.st34{fill:#373737;}
	.st35{fill:#1E1E1E;}
	.st36{clip-path:url(#SVGID_00000080180817136875471800000017087492637484308635_);}
	.st37{fill:#B29020;}
	.st38{clip-path:url(#SVGID_00000102506760619755931360000010079659166416798601_);}
	.st39{fill-rule:evenodd;clip-rule:evenodd;fill:#333333;}
	.st40{fill-rule:evenodd;clip-rule:evenodd;fill:#FFFFFF;}
	.st41{fill:#333333;}
	.st42{fill:#E3E3E3;}
	.st43{fill:#C7C7C7;}
	.st44{fill:#828282;}
	.st45{fill:#5D5D5D;}
	.st46{fill:#B7B7B7;}
	.st47{fill:#C1C1C1;}
	.st48{fill:#D9D9D9;}
	.st49{fill:#B2B2B2;}
	.st50{fill:#1D1D1D;}
	.st51{fill-rule:evenodd;clip-rule:evenodd;fill:#A8A8A8;}
	.st52{fill:#5C5C5C;}
	.st53{fill:#202020;}
	.st54{fill:#221F1F;}
	.st55{fill:#231F20;}
	.st56{fill:none;stroke:#221F1F;stroke-width:0.1371;}
	.st57{fill:#1D1D1B;}
	.st58{fill:#7A7A7A;}
	.st59{fill:none;stroke:#DBDBDB;stroke-width:0.4653;stroke-miterlimit:10;}
	.st60{clip-path:url(#SVGID_00000105404936421715549720000015133349017008555449_);fill:#B6B6B6;}
	.st61{clip-path:url(#SVGID_00000151504221475704822310000016131007293919731898_);}
	.st62{clip-path:url(#SVGID_00000030447329694896803700000009906640247082866873_);}
	.st63{fill:#A0A0A0;}
	.st64{fill-rule:evenodd;clip-rule:evenodd;fill:#D2B356;}
	.st65{fill:#9E9E9E;}
	.st66{clip-path:url(#SVGID_00000000923854860641267870000015228988883460757146_);}
	.st67{clip-path:url(#SVGID_00000107551980955949226950000004122627572490945959_);}
	.st68{clip-path:url(#SVGID_00000127015602279265664160000011369073971912868014_);}
	.st69{fill:#212121;}
</style>
<g id="Capa_2">
</g>
<g id="Capa_7" class="st1">
</g>
<g id="Capa_1">
</g>
<g id="lineas-logos">
</g>
<g id="marco-logos" class="st1">
</g>
<g id="logos">
	<rect x="-0.23" class="st59" width="126.08" height="75.06"/>
	<g>
		<g>
			<g>
				<path class="st21" d="M43.37,35.87c2.52,0.18,4.51,2.39,4.51,4.98c0,2.62-2.09,4.94-4.71,4.98h-2.26
					c-2.62-0.04-4.71-2.36-4.71-4.98c0-2.59,1.99-4.79,4.51-4.98H43.37z M42.85,43.32c1.41,0,2.53-1.08,2.53-2.48
					c0-1.38-1.07-2.4-2.4-2.48h-1.86c-1.34,0.07-2.4,1.1-2.4,2.48c0,1.39,1.12,2.48,2.53,2.48H42.85z"/>
				<path class="st21" d="M63.86,45.83l0.01-0.01l5.62-7.56h-5.24v-2.4h9.86l-5.61,7.57h5.61v2.4H63.87H63.86z"/>
				<path class="st21" d="M50.36,45.83l0.01-0.01L56,38.26h-5.24v-2.4h9.86L55,43.42h5.61v2.4H50.37H50.36z"/>
				<path class="st21" d="M76.65,35.85h2.6v4.99c0,1.39,1.12,2.48,2.52,2.48h0.47c1.39,0,2.52-1.08,2.52-2.48v-4.98h2.59v4.98
					c0,2.62-2.09,4.94-4.7,4.98h-1.31c-2.6-0.04-4.7-2.36-4.7-4.98V35.85z"/>
				<path class="st21" d="M96.42,35.87c2.52,0.18,4.51,2.39,4.51,4.98c0,2.62-2.09,4.94-4.71,4.98h-2.26
					c-2.62-0.04-4.71-2.36-4.71-4.98c0-2.59,1.99-4.79,4.51-4.98H96.42z M95.9,43.32c1.41,0,2.53-1.08,2.53-2.48
					c0-1.38-1.07-2.4-2.4-2.48h-1.86c-1.34,0.07-2.4,1.1-2.4,2.48c0,1.39,1.12,2.48,2.53,2.48H95.9z"/>
				<path class="st21" d="M113.02,43.42v2.4h-9.34v-9.97h2.62v7.57H113.02z"/>
			</g>
		</g>
		<g>
			<g>
				<path class="st21" d="M38.94,30.88l0.02-0.06l0.02-0.06h0.07h0.07h0.09h0.07h0.07l0.02,0.06l0.02,0.06l1.02,2.78l0.05,0.13
					l0.05,0.13h-0.14h-0.14h-0.1h-0.07H40l-0.02-0.06l-0.02-0.06l-0.25-0.67h-1.08l-0.25,0.67l-0.02,0.06l-0.02,0.06h-0.07H38.2
					h-0.1h-0.14h-0.14l0.05-0.13l0.05-0.13L38.94,30.88z M39.17,31.66l-0.36,0.99h0.73L39.17,31.66z"/>
				<path class="st21" d="M42.11,30.96v-0.1v-0.1h0.1h0.1h0.1h0.1h0.1v0.1v0.1v2.49h1.45h0.1h0.1v0.1v0.1v0.1v0.1v0.1h-0.1h-0.1
					H42.3h-0.1h-0.1v-0.1v-0.1V30.96z"/>
				<path class="st21" d="M47.06,30.75c0.27,0,0.5,0.11,0.65,0.27c0.16,0.17,0.24,0.4,0.24,0.63c0,0.22-0.07,0.45-0.23,0.63
					c-0.01,0.01-0.02,0.02-0.03,0.03c0.22,0.17,0.36,0.42,0.38,0.69c0.01,0.23-0.07,0.47-0.25,0.65c-0.19,0.18-0.46,0.28-0.79,0.28
					h-0.99h-0.1h-0.1v-0.1v-0.1v-2.74v-0.05v-0.1v-0.1h0.1h0.1h0.99C47.02,30.75,47.05,30.75,47.06,30.75z M47.06,31.23
					c-0.02,0-0.01,0-0.04,0h-0.71v0.86h0.7c0.17,0,0.27-0.06,0.34-0.14c0.07-0.08,0.11-0.19,0.11-0.31c0-0.12-0.04-0.23-0.11-0.3
					C47.3,31.28,47.21,31.23,47.06,31.23z M46.31,32.58v0.86h0.7c0.24,0,0.38-0.07,0.46-0.14c0.08-0.08,0.11-0.17,0.11-0.27
					c-0.01-0.21-0.18-0.45-0.57-0.45H46.31z"/>
				<path class="st21" d="M50.59,30.88l0.02-0.06l0.02-0.06h0.07h0.07h0.09h0.07H51l0.02,0.06l0.02,0.06l1.02,2.78l0.05,0.13
					l0.05,0.13h-0.14h-0.14h-0.1h-0.07h-0.07l-0.02-0.06l-0.02-0.06l-0.25-0.67h-1.08l-0.25,0.67l-0.02,0.06l-0.02,0.06h-0.07h-0.07
					h-0.1h-0.14h-0.14l0.05-0.13l0.05-0.13L50.59,30.88z M50.82,31.66l-0.36,0.99h0.73L50.82,31.66z"/>
				<path class="st21" d="M53.96,30.77h0.1h0.05h0.05l0.03,0.04l0.03,0.04l1.39,2.08v-1.97v-0.1v-0.1h0.1h0.1h0.1h0.1h0.1v0.1v0.1
					v1.6v1.16v0.1v0.1h-0.1h-0.1h-0.1h-0.05h-0.05l-0.03-0.04l-0.03-0.04l-1.39-2.08v1.97v0.1v0.1h-0.1h-0.1h-0.1h-0.1h-0.1v-0.1
					v-0.1v-2.76v-0.1v-0.1h0.1H53.96z"/>
				<path class="st21" d="M59.2,30.73c0.85,0,1.51,0.73,1.51,1.59c0,0.87-0.67,1.59-1.51,1.59s-1.51-0.73-1.51-1.59
					C57.69,31.46,58.36,30.73,59.2,30.73z M59.2,31.21c-0.56,0-1.03,0.49-1.03,1.11c0,0.63,0.47,1.11,1.03,1.11
					c0.56,0,1.03-0.49,1.03-1.11C60.24,31.7,59.76,31.21,59.2,31.21z"/>
			</g>
		</g>
		<g>
			<path class="st21" d="M25.09,29.54c0,0-2.63,0.01-2.67,0.01c-0.56,0-0.86,0.2-1.18,0.77l-5.15,8.36
				c-1.45,2.54-1.83,4.36,0.34,6.47c0.14-0.21,5.25-8.95,6.41-10.99c0.62-1.09,1.41-1.48,2.62-1.46l1.3,0L25.09,29.54z"/>
			<path class="st21" d="M23.55,40.32c-0.74,1.14-2.71,4.82-3.09,5.5c0.11,0,0.21,0,0.25,0c3.48,0,3.51-0.05,4.96-2.56l2-3.37
				c0,0-2.53,0-3.44,0.02C24,39.94,23.72,40.05,23.55,40.32z"/>
			<path class="st21" d="M28.71,40.32c-0.74,1.14-2.71,4.82-3.09,5.5c0.11,0,0.21,0,0.25,0c3.48,0,3.51-0.05,4.96-2.56l2-3.37
				c0,0-2.53,0-3.44,0.02C29.16,39.94,28.89,40.05,28.71,40.32z"/>
			<path class="st21" d="M30.02,29.79c-0.15-0.25-0.3-0.25-0.34-0.25c-0.33,0-3.52-0.01-3.52-0.01s2.14,3.9,2.21,4.03
				c1.15,1.99,1.6,1.99,4.82,1.93C32.7,34.64,30.64,30.81,30.02,29.79z"/>
		</g>
	</g>
</g>
<g id="Capa_6">
</g>
</svg>
