<?xml version="1.0" encoding="utf-8"?>
<!-- Generator: Adobe Illustrator 27.9.0, SVG Export Plug-In . SVG Version: 6.00 Build 0)  -->
<svg version="1.1" xmlns="http://www.w3.org/2000/svg" xmlns:xlink="http://www.w3.org/1999/xlink" x="0px" y="0px"
	 viewBox="0 0 126.08 75.06" style="enable-background:new 0 0 126.08 75.06;" xml:space="preserve">
<style type="text/css">
	.st0{fill:#F0F0F0;}
	.st1{display:none;}
	.st2{display:inline;fill:#1C1824;}
	.st3{fill:none;stroke:#D4D4D4;stroke-width:2.3506;stroke-miterlimit:10;}
	.st4{fill:none;stroke:#E3E3E3;stroke-width:0.5;stroke-miterlimit:10;}
	.st5{fill:none;stroke:#FFFFFE;stroke-width:0.8855;stroke-miterlimit:10;}
	.st6{fill:#FFFFFE;}
	.st7{fill:#16C0FE;}
	.st8{fill:#0000D7;}
	.st9{fill:#FFDE00;}
	.st10{fill:#6B6B6B;}
	.st11{fill:#696969;}
	.st12{fill:none;stroke:#474747;stroke-width:0.348;stroke-miterlimit:10;}
	.st13{fill:none;stroke:#474747;stroke-width:0.4442;stroke-miterlimit:10;}
	.st14{fill:none;stroke:#D2B356;stroke-width:5.9189;stroke-miterlimit:10;}
	.st15{fill:#D2B356;}
	.st16{fill:#FFFFFF;}
	.st17{fill:none;stroke:#000000;stroke-width:0.4956;stroke-miterlimit:10;}
	.st18{fill:none;stroke:#000000;stroke-width:1.6303;stroke-miterlimit:10;}
	.st19{fill:none;stroke:#A8A8A8;stroke-width:0.5;stroke-miterlimit:10;}
	.st20{display:inline;fill:none;stroke:#DBDBDB;stroke-width:0.4653;stroke-miterlimit:10;}
	.st21{fill:#303334;}
	.st22{clip-path:url(#SVGID_00000181791789443310657360000012832093469727683716_);fill:#B6B6B6;}
	.st23{fill-rule:evenodd;clip-rule:evenodd;fill:#303334;}
	.st24{fill:#262626;}
	.st25{fill:#424242;}
	.st26{fill:#595959;}
	.st27{fill:#A3A3A3;}
	.st28{fill:#606060;}
	.st29{fill:#848484;}
	.st30{fill:#040505;}
	.st31{fill-rule:evenodd;clip-rule:evenodd;fill:#2D2D2D;}
	.st32{fill-rule:evenodd;clip-rule:evenodd;fill:#989898;}
	.st33{fill:#4B4B4B;}
	.st34{fill:#373737;}
	.st35{fill:#1E1E1E;}
	.st36{clip-path:url(#SVGID_00000168085691239454125130000017456806039424961436_);}
	.st37{fill:#B29020;}
	.st38{clip-path:url(#SVGID_00000096039462448400841930000008212661940735782789_);}
	.st39{fill-rule:evenodd;clip-rule:evenodd;fill:#333333;}
	.st40{fill-rule:evenodd;clip-rule:evenodd;fill:#FFFFFF;}
	.st41{fill:#333333;}
	.st42{fill:#E3E3E3;}
	.st43{fill:#C7C7C7;}
	.st44{fill:#828282;}
	.st45{fill:#5D5D5D;}
	.st46{fill:#B7B7B7;}
	.st47{fill:#C1C1C1;}
	.st48{fill:#D9D9D9;}
	.st49{fill:#B2B2B2;}
	.st50{fill:#1D1D1D;}
	.st51{fill-rule:evenodd;clip-rule:evenodd;fill:#A8A8A8;}
	.st52{fill:#5C5C5C;}
	.st53{fill:#202020;}
	.st54{fill:#221F1F;}
	.st55{fill:#231F20;}
	.st56{fill:none;stroke:#221F1F;stroke-width:0.1371;}
	.st57{fill:#1D1D1B;}
	.st58{fill:#7A7A7A;}
	.st59{fill:none;stroke:#DBDBDB;stroke-width:0.4653;stroke-miterlimit:10;}
	.st60{clip-path:url(#SVGID_00000114068143105950265580000008891004794113658541_);fill:#B6B6B6;}
	.st61{clip-path:url(#SVGID_00000111870873819604216450000004825785596401163687_);}
	.st62{clip-path:url(#SVGID_00000111901125442911809870000011366673015208110766_);}
	.st63{fill:#A0A0A0;}
	.st64{fill-rule:evenodd;clip-rule:evenodd;fill:#D2B356;}
	.st65{fill:#9E9E9E;}
	.st66{clip-path:url(#SVGID_00000005969118862531248080000013868463583308529063_);}
	.st67{clip-path:url(#SVGID_00000034804656554148428150000014341129651955053462_);}
	.st68{clip-path:url(#SVGID_00000075124440666741797100000017058229864622547077_);}
	.st69{fill:#212121;}
</style>
<g id="Capa_2">
</g>
<g id="Capa_7" class="st1">
</g>
<g id="Capa_1">
</g>
<g id="lineas-logos">
</g>
<g id="marco-logos" class="st1">
</g>
<g id="logos">
	<rect x="0.2" y="-0.18" class="st59" width="126.08" height="75.06"/>
	<g>
		<path class="st57" d="M46.34,19c1.59,0,3.57,0.53,5.2,2.21l-1.97,1.83c-0.81-0.85-1.93-1.38-3.23-1.38
			c-2.53,0-4.46,2.04-4.46,4.57c0,2.53,1.93,4.57,4.46,4.57c1.3,0,2.42-0.53,3.23-1.38l1.97,1.83c-1.63,1.68-3.61,2.21-5.2,2.21
			c-3.99,0-7.22-3.23-7.22-7.22C39.12,22.23,42.35,19,46.34,19"/>
		<path class="st57" d="M59.83,18.79l7.86,14.44h-3.19l-1.23-2.36h-6.97l-1.25,2.36h-3.19L59.83,18.79z M57.69,28.32h4.25l-2.1-4.01
			L57.69,28.32z"/>
		<path class="st57" d="M76.59,27.6l1.38,1.4c1.78,1.85,3.97,1.89,4.97,1.89v2.55c-2.59,0-4.8-0.26-7.01-2.55l-2.61-2.7h-1.83v5.03
			h-2.74V19.21h5.59c2.46,0,4.44,1.96,4.44,4.48C78.78,25.39,77.91,26.84,76.59,27.6 M71.49,21.78v3.85h2.59
			c1.08,0,1.95-0.85,1.95-1.93c0-1.08-0.87-1.91-1.95-1.91H71.49z M85.22,21.44c2.4,0,4.36,1.95,4.36,4.36
			c0,2.42-1.96,4.35-4.36,4.35c-2.42,0-4.36-1.93-4.36-4.35C80.86,23.4,82.79,21.44,85.22,21.44 M85.22,27.94
			c1.19,0,2.06-0.96,2.06-2.14c0-1.19-0.87-2.12-2.06-2.12s-2.04,0.93-2.04,2.12C83.18,26.99,84.03,27.94,85.22,27.94"/>
		<polygon class="st57" points="40.87,50.04 40.87,36.02 49.47,36.02 49.47,38.57 43.63,38.57 43.63,42.07 48.09,42.07 48.09,44.62 
			43.63,44.62 43.63,50.04 		"/>
		<path class="st57" d="M59.12,44.41l5.63,5.86c1.78,1.85,3.97,1.89,4.97,1.89v2.55c-2.59,0-4.8-0.25-7.01-2.55L55.85,45h-1.83v5.03
			h-2.74V36.02h5.59c2.46,0,4.44,1.95,4.44,4.48C61.31,42.2,60.43,43.65,59.12,44.41 M54.02,38.59v3.85h2.59
			c1.08,0,1.95-0.85,1.95-1.93c0-1.08-0.87-1.91-1.95-1.91H54.02z"/>
		<polygon class="st57" points="70.14,44.62 70.14,50.04 67.38,50.04 67.38,44.62 61.01,36.02 64.41,36.02 68.76,41.86 73.22,36.02 
			76.62,36.02 		"/>
		<path class="st57" d="M77.26,36.02h6.88c3.99,0,7.24,3.02,7.24,7.01s-3.25,7.01-7.24,7.01h-6.88V36.02z M80,47.49h4.14
			c2.53,0,4.48-1.93,4.48-4.46s-1.95-4.44-4.48-4.44H80V47.49z"/>
		<rect x="40.84" y="53.29" class="st57" width="19.66" height="1.39"/>
		<rect x="71.72" y="53.29" class="st57" width="19.66" height="1.39"/>
	</g>
</g>
<g id="Capa_6">
</g>
</svg>
