<?xml version="1.0" encoding="utf-8"?>
<!-- Generator: Adobe Illustrator 27.9.0, SVG Export Plug-In . SVG Version: 6.00 Build 0)  -->
<svg version="1.1" xmlns="http://www.w3.org/2000/svg" xmlns:xlink="http://www.w3.org/1999/xlink" x="0px" y="0px"
	 viewBox="0 0 126.08 75.06" style="enable-background:new 0 0 126.08 75.06;" xml:space="preserve">
<style type="text/css">
	.st0{fill:#F0F0F0;}
	.st1{display:none;}
	.st2{display:inline;fill:#1C1824;}
	.st3{fill:none;stroke:#D4D4D4;stroke-width:2.3506;stroke-miterlimit:10;}
	.st4{fill:none;stroke:#E3E3E3;stroke-width:0.5;stroke-miterlimit:10;}
	.st5{fill:none;stroke:#FFFFFE;stroke-width:0.8855;stroke-miterlimit:10;}
	.st6{fill:#FFFFFE;}
	.st7{fill:#16C0FE;}
	.st8{fill:#0000D7;}
	.st9{fill:#FFDE00;}
	.st10{fill:#6B6B6B;}
	.st11{fill:#696969;}
	.st12{fill:none;stroke:#474747;stroke-width:0.348;stroke-miterlimit:10;}
	.st13{fill:none;stroke:#474747;stroke-width:0.4442;stroke-miterlimit:10;}
	.st14{fill:none;stroke:#D2B356;stroke-width:5.9189;stroke-miterlimit:10;}
	.st15{fill:#D2B356;}
	.st16{fill:#FFFFFF;}
	.st17{fill:none;stroke:#000000;stroke-width:0.4956;stroke-miterlimit:10;}
	.st18{fill:none;stroke:#000000;stroke-width:1.6303;stroke-miterlimit:10;}
	.st19{fill:none;stroke:#A8A8A8;stroke-width:0.5;stroke-miterlimit:10;}
	.st20{display:inline;fill:none;stroke:#DBDBDB;stroke-width:0.4653;stroke-miterlimit:10;}
	.st21{fill:#303334;}
	.st22{clip-path:url(#SVGID_00000116919761461417304900000015922046640288511167_);fill:#B6B6B6;}
	.st23{fill-rule:evenodd;clip-rule:evenodd;fill:#303334;}
	.st24{fill:#262626;}
	.st25{fill:#424242;}
	.st26{fill:#595959;}
	.st27{fill:#A3A3A3;}
	.st28{fill:#606060;}
	.st29{fill:#848484;}
	.st30{fill:#040505;}
	.st31{fill-rule:evenodd;clip-rule:evenodd;fill:#2D2D2D;}
	.st32{fill-rule:evenodd;clip-rule:evenodd;fill:#989898;}
	.st33{fill:#4B4B4B;}
	.st34{fill:#373737;}
	.st35{fill:#1E1E1E;}
	.st36{clip-path:url(#SVGID_00000083809597106118889360000000846310126126866838_);}
	.st37{fill:#B29020;}
	.st38{clip-path:url(#SVGID_00000079450341642095161190000013544788487007407772_);}
	.st39{fill-rule:evenodd;clip-rule:evenodd;fill:#333333;}
	.st40{fill-rule:evenodd;clip-rule:evenodd;fill:#FFFFFF;}
	.st41{fill:#333333;}
	.st42{fill:#E3E3E3;}
	.st43{fill:#C7C7C7;}
	.st44{fill:#828282;}
	.st45{fill:#5D5D5D;}
	.st46{fill:#B7B7B7;}
	.st47{fill:#C1C1C1;}
	.st48{fill:#D9D9D9;}
	.st49{fill:#B2B2B2;}
	.st50{fill:#1D1D1D;}
	.st51{fill-rule:evenodd;clip-rule:evenodd;fill:#A8A8A8;}
	.st52{fill:#5C5C5C;}
	.st53{fill:#202020;}
	.st54{fill:#221F1F;}
	.st55{fill:#231F20;}
	.st56{fill:none;stroke:#221F1F;stroke-width:0.1371;}
	.st57{fill:#1D1D1B;}
	.st58{fill:#7A7A7A;}
	.st59{fill:none;stroke:#DBDBDB;stroke-width:0.4653;stroke-miterlimit:10;}
	.st60{clip-path:url(#SVGID_00000011012384133677088190000012083247565466192051_);fill:#B6B6B6;}
	.st61{clip-path:url(#SVGID_00000097486445548804410650000001093539999973621416_);}
	.st62{clip-path:url(#SVGID_00000116932603218595667860000007606881438813857176_);}
	.st63{fill:#A0A0A0;}
	.st64{fill-rule:evenodd;clip-rule:evenodd;fill:#D2B356;}
	.st65{fill:#9E9E9E;}
	.st66{clip-path:url(#SVGID_00000097497197246847607420000010599173699952298388_);}
	.st67{clip-path:url(#SVGID_00000001623632744737524650000010355040202450762886_);}
	.st68{clip-path:url(#SVGID_00000131326672322209440160000010222808224015045028_);}
	.st69{fill:#212121;}
</style>
<g id="Capa_2">
</g>
<g id="Capa_7" class="st1">
</g>
<g id="Capa_1">
</g>
<g id="lineas-logos">
</g>
<g id="marco-logos" class="st1">
</g>
<g id="logos">
	<rect x="-0.13" class="st59" width="126.08" height="75.06"/>
	<g>
		<g>
			<path class="st24" d="M60.25,65.34l0-2.55c1.6,0,2.19-0.08,2.46,1.88h0.17v-2.18l-4.35,0v0.3h0.75v5.61h-0.83v0.3h4.49V66.4
				h-0.23c-0.22,1.73-0.66,2-1.9,2h-0.57v-2.73h0.33c0.55,0.01,0.87,0.34,0.98,1.29h0.2l0-2.82h-0.2c0,0.01-0.04,1.21-1.01,1.2
				H60.25z"/>
			<path class="st24" d="M58.47,65.45h-2.46v0.28h0.84v2.02c-0.14,0.51-0.9,0.73-1.12,0.73c-1.57,0-1.46-2.3-1.46-2.91
				c0-0.56-0.06-2.91,1.46-2.91c1.07,0,1.63,1.06,1.85,2.01h0.17c0-0.39,0.01-2.26,0-2.26l-0.73,0.52c0.02,0-0.34-0.5-1.29-0.5
				c-1.85,0-2.53,1.85-2.53,3.14c0.01,1.18,0.55,3.19,2.53,3.19c0.62,0,1.06-0.31,1.29-0.67l0.78,0.62v-2.97h0.66V65.45z"/>
			<path class="st24" d="M87.18,66.4c-0.22,1.73-0.66,2-1.9,2h-0.07v-5.61H86v-0.3h-2.58v0.3h0.78v5.61h-0.62l-2.29-6.08h-0.34
				l-1.91,5.54c0-0.02-0.15,0.47-0.46,0.53c-0.29,0.01-0.27-0.14-0.27-0.19v-1.06c0-0.28-0.02-0.91-0.31-1.21
				c-0.32-0.33-0.88-0.35-0.87-0.36c0,0,1.41-0.29,1.41-1.63c0-0.94-0.65-1.41-1.75-1.45h-3.1v0.3h0.79v5.61H73.7v0.3h2.54v-0.3
				h-0.79v-2.7h1.06c1.84,0.15-0.31,3,2.09,3h1.52v-0.3c-0.09,0-0.64,0.02-0.68-0.37c-0.02-0.28,0.37-1.28,0.37-1.28h2.06l0.65,1.66
				h-0.72v0.3h5.62v-2.3H87.18z M76.46,65.38h-1.01v-2.6h1.29c0.76,0.11,0.79,0.99,0.79,1.27C77.53,64.72,77.25,65.38,76.46,65.38
				 M79.94,66.45l0.9-2.68l0.95,2.68H79.94z"/>
			<path class="st24" d="M70.64,62.78c1.6,0,2.19-0.08,2.47,1.89h0.17v-2.18h-6.35v0.3h0.17c0.23,0,0.76,0.02,0.79,0.49v3.58
				l-2.97-4.36h-1.62v0.3h0.27c0.32,0,0.77,0.02,0.79,0.49v4.59c0,0.45-0.67,0.62-0.95,0.62h0v0.22h2.19v-0.22
				c-0.28,0-0.96-0.17-0.96-0.62l0.01-4.04c1.18,1.68,3.4,4.88,3.42,4.88h0.11v-5.43c0.03-0.47,0.56-0.49,0.79-0.49h0.73v5.62h-0.83
				v0.3h4.49V66.4h-0.23c-0.22,1.73-0.66,2-1.9,2h-0.57v-2.73h0.33c0.55,0.01,0.87,0.34,0.98,1.29h0.2l0-2.82h-0.2
				c0,0.01-0.04,1.21-1.01,1.2h-0.31V62.78z"/>
			<polygon class="st24" points="90.23,62.78 90.23,62.48 87.7,62.48 87.7,62.78 88.49,62.78 88.5,68.39 87.7,68.39 87.7,68.69 
				90.23,68.69 90.23,68.39 89.44,68.39 89.44,62.78 			"/>
			<g>
				<polygon class="st24" points="42.67,66.4 41.95,66.22 41.95,66.42 42.67,66.61 				"/>
				<polygon class="st24" points="41.72,66.22 41,66.4 41,66.61 41.72,66.42 				"/>
				<polygon class="st24" points="42.67,66.87 41.95,66.69 41.95,66.9 42.67,67.08 				"/>
				<polygon class="st24" points="41.72,66.69 41,66.87 41,67.08 41.72,66.9 				"/>
				<polygon class="st24" points="42.67,67.34 41.95,67.16 41.95,67.37 42.67,67.55 				"/>
				<polygon class="st24" points="41.72,67.16 41,67.34 41,67.55 41.72,67.37 				"/>
				<path class="st24" d="M49.47,68.21l0.26-0.1l0,0c0.32-0.13,0.37-0.21,0.35-0.43v-0.99c0.26,0.68,0.5,1.17,1,1.17
					c0.06,0,0.13-0.01,0.21-0.02l0.17-0.04l-0.12-0.13c-0.08-0.09-0.12-0.16-0.17-0.25c-0.02-0.03-0.04-0.07-0.06-0.11
					c-0.11-0.18-0.38-0.24-0.6-0.14c-0.1-0.2-0.2-0.46-0.33-0.78l-0.03-0.06c-0.09-0.22-0.19-0.44-0.31-0.64
					c-0.09-0.14-0.17-0.27-0.27-0.38c-0.25-0.3-0.58-0.48-0.99-0.55c-0.28-0.05-0.48-0.06-0.73-0.07c-0.05,0-0.11-0.01-0.17-0.01
					c-0.12-0.01-0.36-0.03-0.6-0.05c-0.16-0.01-0.32-0.03-0.44-0.03c0.01-0.04,0.02-0.08,0.02-0.12c0-0.06-0.01-0.11-0.02-0.15h1.64
					c0.42,0,0.72-0.19,0.89-0.55c0.42,0,0.72-0.19,0.89-0.56h0.07c0.43,0,0.73-0.2,0.91-0.58l0.06-0.14h-5.48
					c-0.36,0-0.66,0.23-0.77,0.59l-0.01,0.05c-0.09-0.27-0.26-0.51-0.49-0.64c-0.3-0.18-0.64-0.24-0.92-0.16
					c-0.09,0.03-0.18,0.07-0.25,0.11c-0.06,0.04-0.15,0.11-0.21,0.19c-0.07,0.09-0.14,0.21-0.19,0.31l0,0
					c-0.03,0.03-0.05,0.05-0.07,0.08l-0.07,0.12l0,0.01c-0.08,0.18-0.18,0.3-0.25,0.39c-0.07,0.08-0.07,0.16-0.06,0.21
					c0.01,0.06,0.04,0.11,0.08,0.14l-0.01,0.01c-0.02,0.04-0.03,0.08-0.03,0.12c0,0.14,0.12,0.24,0.27,0.24
					c0.11,0,0.2-0.05,0.3-0.12c0.04-0.03,0.15-0.1,0.18-0.1l0.05,0.01c0.03,0.01,0.05,0.05,0.05,0.08c0,0.1-0.11,0.19-0.26,0.2
					l-0.19,0.02c-0.22,0.01-0.26,0.12-0.26,0.14c-0.02,0.08,0.03,0.15,0.08,0.19l0.02,0.02l0.04,0.03l-0.25,0.4
					c-0.17-0.16-0.37-0.26-0.54-0.26c-0.11,0-0.2,0.03-0.27,0.1c-0.02,0.02-0.04,0.04-0.06,0.07c-0.19,0-0.34,0.1-0.41,0.21
					c-0.08,0.12-0.05,0.34,0.06,0.5l-0.6,0.16l0,2.82h10.95v-0.54H49.47z M50.94,67.42c0.02,0.04,0.04,0.07,0.06,0.1
					c0.03,0.05,0.05,0.09,0.08,0.14c-0.19,0-0.34-0.1-0.47-0.31C50.73,67.31,50.88,67.34,50.94,67.42 M48.56,64.97
					c0.36,0.06,0.65,0.22,0.87,0.48c0.05,0.06,0.1,0.13,0.15,0.2c-0.64-0.08-0.85-0.16-1.2-0.71
					C48.43,64.95,48.49,64.96,48.56,64.97 M48.28,64.14h-1.15c0.11-0.09,0.2-0.2,0.27-0.35h1.55C48.8,64.03,48.59,64.14,48.28,64.14
					 M49.17,63.59h-1.15c0.11-0.09,0.2-0.21,0.27-0.36h1.55C49.7,63.48,49.48,63.59,49.17,63.59 M49.24,62.71h1.54
					c-0.14,0.22-0.35,0.32-0.65,0.32h-1.15C49.09,62.95,49.17,62.84,49.24,62.71 M43.13,62.77c0.04-0.05,0.1-0.1,0.17-0.14
					c0.06-0.04,0.13-0.07,0.2-0.09c0.12-0.04,0.26-0.03,0.41,0l-0.44,0.27c-0.05,0-0.1-0.01-0.15-0.01c-0.08,0-0.15,0.01-0.22,0.02
					L43.13,62.77 M42.66,64.56c0-0.02,0.02-0.04,0.06-0.04l0.02,0l0.01,0c0,0,0.06,0,0.15,0l0.09-0.01c0.22-0.03,0.4-0.17,0.4-0.35
					c0-0.06-0.04-0.16-0.09-0.22c-0.05-0.06-0.12-0.08-0.19-0.08c-0.09,0-0.18,0.06-0.29,0.13c-0.08,0.05-0.14,0.09-0.18,0.09
					c-0.04,0-0.07-0.03-0.07-0.05l0-0.01l0.12-0.17l-0.1-0.06c-0.03-0.01-0.07-0.05-0.07-0.07l0.02-0.04
					c0.05-0.06,0.11-0.14,0.18-0.24c0.02-0.02,0.04-0.03,0.07-0.03c0.05,0,0.09,0.04,0.09,0.09c0,0.03,0.04,0.06,0.08,0.06
					c0.05,0,0.07-0.03,0.1-0.06c0,0,0.11-0.1,0.05-0.15c-0.07-0.05-0.32,0.05-0.27-0.17l0.03-0.05C42.91,63.1,43.05,63,43.32,63
					c0.05,0,0.1,0,0.16,0.01l0.04,0l0.57-0.35l0.01,0.04l0,0c0.03,0.18-0.08,0.39-0.26,0.49l-0.06,0.04l0.04,0.26
					c-0.15,0.04-0.25,0.15-0.25,0.29c0,0.05,0.01,0.1,0.03,0.18c0.02,0.08,0.03,0.17,0.04,0.27c0,0.16-0.2,0.41-0.6,0.44
					c-0.15,0.01-0.31-0.02-0.36-0.05L42.66,64.56 M41.26,65.38c0.05-0.07,0.15-0.13,0.29-0.11l0.09,0.02l0.03-0.08
					c0.01-0.03,0.02-0.05,0.04-0.06c0.03-0.03,0.07-0.04,0.13-0.04c0.14,0,0.31,0.1,0.46,0.25c0.1,0.11,0.18,0.25,0.24,0.37
					l0.13-0.18c-0.04-0.08-0.08-0.13-0.14-0.22l0.31-0.49c0.05,0.01,0.09,0.02,0.13,0.02c0.02,0,0.06,0,0.08,0
					c0.39-0.02,0.8-0.23,0.81-0.63l0-0.01c0-0.11-0.03-0.21-0.04-0.3c-0.01-0.06-0.02-0.11-0.02-0.14c0-0.05,0.07-0.11,0.16-0.11
					h0.12l-0.06-0.34c0.2-0.14,0.32-0.39,0.3-0.61c0.22,0.16,0.37,0.44,0.4,0.74c0.01,0.09-0.01,0.21-0.04,0.33l-0.01,0.05l0,0
					c-0.05,0.2-0.12,0.41-0.16,0.51l-0.03,0.08l0.08,0.04c0.16,0.09,0.25,0.15,0.25,0.36c0,0.24-0.21,0.42-0.42,0.46l-0.24,0.05
					l0.21,0.14c0.08,0.05,0.12,0.14,0.12,0.23c0,0.15-0.13,0.28-0.29,0.28H44.1l-0.02,0.07c-0.09,0.29-0.18,0.43-0.5,0.45
					c0.01-0.09,0.03-0.17,0.03-0.29c0-0.03,0-0.1,0-0.13l-0.01-0.23l-0.16,0.16c-0.07,0.07-0.18,0.12-0.31,0.14v-0.23l-1.28-0.33
					l-0.46,0.12C41.26,65.61,41.24,65.43,41.26,65.38 M40.86,68.21l0.98-0.25l0.98,0.25H40.86z M42.92,68.03l-1.08-0.28l-1.08,0.28
					v-1.94l1.08-0.28l1.08,0.28V68.03z M43.41,67.65c-0.09,0.14-0.11,0.33-0.03,0.56h-0.26v-1.84c0.09-0.01,0.19-0.04,0.28-0.09
					c0,0.09-0.02,0.16-0.03,0.25l-0.01,0.06l-0.02,0.12h0.12c0.21,0,0.36-0.03,0.48-0.1v0.79c0,0.03-0.02,0.05-0.05,0.05h-0.03
					C43.66,67.44,43.5,67.52,43.41,67.65 M45.87,67.7c-0.08,0.09-0.16,0.25-0.11,0.51H44.3l0.01-0.01c0.17-0.01,0.29-0.04,0.37-0.13
					c0.09-0.09,0.1-0.22,0.09-0.31c0-0.01,0.02-0.04,0.09-0.08l0.11-0.05l-0.06-0.1c-0.12-0.19-0.07-0.6-0.02-0.82
					c0.48,0,0.79-0.1,1.11-0.2c0.08-0.03,0.17-0.06,0.26-0.08l0,0c0,0,0.1-0.03,0.23-0.06l0.46,0.76l0,0.01
					c0.05,0.08,0.05,0.13-0.03,0.22l-0.23,0.25l-0.38-0.07l0,0C46.16,67.51,45.98,67.57,45.87,67.7 M45.97,68.21
					c-0.04-0.16-0.02-0.29,0.05-0.38c0.07-0.08,0.19-0.11,0.27-0.1l0.43,0.08l0.01,0h0.05l0.3-0.33l0,0
					c0.09-0.1,0.19-0.26,0.05-0.46l-0.42-0.69c0.07-0.01,0.15-0.02,0.22-0.02c0,0,0.21,0,0.44,0.13c0.03,0.06,0.07,0.15,0.12,0.24
					c0.09,0.17,0.19,0.39,0.22,0.48c0.03,0.08,0,0.16-0.07,0.23l-0.77,0.81H45.97z M48.66,68.21h-1.5l0.64-0.68
					c0.12-0.13,0.16-0.28,0.11-0.43c-0.03-0.09-0.12-0.28-0.22-0.47c0.25,0.12,0.63,0.23,1.43,0.3c0.1,0.01,0.13,0.05,0.15,0.13
					l0.04,0.35l-0.42,0.09c-0.13,0.03-0.23,0.11-0.28,0.24C48.55,67.88,48.57,68.05,48.66,68.21 M48.89,68.2
					c-0.1-0.14-0.14-0.28-0.1-0.39c0.02-0.06,0.07-0.1,0.13-0.11l0.59-0.13l-0.05-0.53l0-0.01c-0.03-0.12-0.09-0.28-0.33-0.3
					c-1.09-0.09-1.34-0.25-1.61-0.42l0,0l0-0.01l0,0l-0.01-0.01c-0.29-0.19-0.57-0.18-0.58-0.18c-0.31,0-0.69,0.12-0.72,0.13
					c-0.09,0.03-0.18,0.06-0.27,0.08c-0.34,0.11-0.63,0.2-1.13,0.19l-0.08,0l-0.02,0.08c-0.02,0.07-0.16,0.62-0.02,0.96
					c-0.12,0.09-0.12,0.2-0.12,0.21c0,0.11-0.02,0.15-0.04,0.17C44.48,68,44.3,68,44.13,68h-0.05l-0.03,0.04
					c-0.1,0.14-0.33,0.17-0.47,0.13c-0.06-0.19-0.06-0.33,0-0.42c0.07-0.1,0.22-0.11,0.28-0.11h0.03c0.14,0,0.25-0.11,0.25-0.25
					v-0.98c0.05-0.07,0.08-0.15,0.11-0.24c0.23-0.03,0.42-0.23,0.42-0.47c0-0.1-0.03-0.19-0.08-0.27c0.22-0.1,0.41-0.32,0.41-0.6
					c0-0.28-0.15-0.41-0.28-0.49c0.04-0.11,0.1-0.3,0.15-0.5l0.19-0.68c0.09-0.27,0.31-0.45,0.58-0.45h3.37
					c-0.14,0.22-0.35,0.32-0.65,0.32h-1.93v0h-0.11l-0.05,0.1l-0.05,0.1h0.2v0h1.63c-0.15,0.25-0.36,0.36-0.67,0.36h-1.21v0h-0.12
					l-0.05,0.1l-0.05,0.1h0.21v0h0.98c-0.15,0.24-0.36,0.35-0.66,0.35h-0.62v0h-0.1l-0.05,0.1l-0.05,0.1h0.2v0h0.55
					c0,0,0.03,0.03,0.03,0.15c0,0.15-0.13,0.28-0.29,0.28c-0.07,0-0.13-0.02-0.27-0.08l-0.01-0.01l-0.15,0.14l0.09,0.04
					c0.15,0.07,0.23,0.1,0.34,0.1c0.14,0,0.26-0.06,0.35-0.15c0.13,0.01,0.33,0.02,0.54,0.04c0.24,0.02,0.49,0.04,0.61,0.05
					c0.06,0,0.11,0.01,0.17,0.01c0.1,0,0.19,0.01,0.28,0.02c0.46,0.75,0.69,0.84,1.59,0.95c0.06,0.11,0.11,0.22,0.17,0.33v1.48
					l0,0.01c0.01,0.07,0.01,0.09-0.01,0.11c-0.03,0.04-0.14,0.09-0.22,0.12L48.89,68.2L48.89,68.2z"/>
			</g>
		</g>
		<g>
			<polygon class="st16" points="70.38,59.2 89.4,59.2 89.4,40.16 91.13,38.44 91.13,9.02 39.23,9.02 39.23,60.92 68.64,60.92 			
				"/>
			<path class="st16" d="M72.24,28.79v-0.67h-5.29v0.67h0.33c0.54,0,0.89,0.1,1.09,0.29c0.15,0.15,0.22,0.37,0.22,0.68v8.67
				c0,0.92-0.14,1.5-0.45,1.82c-0.2,0.2-0.48,0.29-0.86,0.29c-0.39,0-0.75-0.19-1.22-0.43c-0.11-0.06-0.22-0.11-0.33-0.17
				c-0.07-0.04-0.19-0.06-0.36-0.06c-0.23,0-0.44,0.08-0.58,0.22c-0.13,0.13-0.2,0.31-0.2,0.51c0,0.54,0.68,0.91,1.65,0.92
				c1.25,0,2.24-0.36,2.95-1.06c0.96-0.96,1.43-2.53,1.43-4.81v-5.9c0-0.58,0.22-0.97,1.31-0.97H72.24z"/>
			<path class="st16" d="M75.4,33.03l1.39-3.04l1.39,3.04H75.4z M83.25,37.53c-0.84,0-1.05-0.37-1.43-1.19l-3.69-8.23h-2.2
				l0.13,0.22c0.06,0.1,0.08,0.19,0.08,0.24c0,0.07-0.03,0.23-0.18,0.52l-3.32,7.31c-0.37,0.8-0.51,1.1-1.65,1.12h-0.14v0.73h4.51
				v-0.74l-0.22,0.01c-0.2,0.01-0.38,0.03-0.53,0.03c-0.47,0-0.77-0.07-0.91-0.21c-0.06-0.06-0.09-0.14-0.09-0.24
				c0-0.04,0.01-0.18,0.14-0.48L75,33.98l3.59,0.01c0.21,0.45,1.21,2.64,1.21,2.64c0.13,0.3,0.16,0.47,0.16,0.51
				c0,0.09-0.03,0.15-0.08,0.2c-0.14,0.14-0.47,0.21-1.02,0.21c-0.17,0-0.39-0.01-0.62-0.03l-0.19-0.01v0.74h5.54v-0.73H83.25z"/>
			<path class="st16" d="M59.86,33.03l1.4-3.04l1.38,3.04H59.86z M63.32,37.56c-0.17,0-0.37-0.01-0.59-0.03l-0.22-0.01v0.74h5.54
				v-0.73h-0.34c-0.84,0-1.04-0.37-1.43-1.19l-3.68-8.23h-2.2l0.13,0.22c0.06,0.1,0.09,0.19,0.09,0.24c0,0.07-0.04,0.23-0.18,0.53
				l-2.88,6.35c-0.68,1.32-2.18,2.05-4.23,2.05c-1.45,0-2.68-0.47-3.55-1.34c-0.84-0.85-1.29-2-1.29-3.4c0-1.15,0.5-2.24,1.37-2.97
				c0.82-0.68,1.99-1.07,3.2-1.07c1.83,0,3.19,0.8,4.05,2.37l0.04,0.08l0.72-0.02l-0.19-2.58l-0.16,0.03
				c-0.13,0.03-0.24,0.04-0.35,0.04c-0.16,0-0.32-0.03-0.5-0.06c-0.06-0.02-0.13-0.03-0.19-0.04c-1.28-0.27-2.5-0.54-3.59-0.57
				c-2.07-0.06-3.87,0.71-5.23,2.22c-0.84,0.95-1.29,2.04-1.29,3.17c0,1.49,0.74,2.75,2.08,3.66c1.22,0.83,2.76,1.23,4.7,1.23h6.68
				v-0.74l-0.21,0.01c-0.19,0.01-0.38,0.03-0.53,0.03c-0.47,0-0.78-0.07-0.91-0.21c-0.06-0.06-0.09-0.13-0.09-0.23
				c0-0.04,0.01-0.18,0.14-0.48l1.24-2.65h3.58c0.21,0.46,1.21,2.65,1.21,2.64c0.13,0.3,0.16,0.47,0.16,0.51
				c0,0.09-0.02,0.16-0.08,0.21C64.2,37.49,63.86,37.56,63.32,37.56"/>
			<path class="st16" d="M69.01,18.87l1.39,3.05l-2.78,0L69.01,18.87z M67.58,26.4l-0.21,0.02c-0.2,0.01-0.39,0.02-0.54,0.02
				c-0.47,0-0.77-0.07-0.91-0.2c-0.06-0.06-0.09-0.14-0.09-0.24c0-0.05,0.02-0.18,0.14-0.48l1.24-2.64h3.59
				c0.21,0.45,1.2,2.64,1.2,2.64c0.13,0.3,0.16,0.47,0.16,0.51c0,0.09-0.02,0.15-0.08,0.21c-0.14,0.14-0.47,0.2-1.02,0.2
				c-0.17,0-0.38-0.01-0.6-0.02l-0.22-0.02v0.74h5.54v-0.74h-0.33c-0.84,0-1.04-0.36-1.43-1.18l-3.68-8.23h-2.2l0.13,0.22
				c0.06,0.1,0.08,0.19,0.08,0.24c0,0.07-0.03,0.23-0.18,0.52l-2.99,6.61c-0.01,0.02-0.68,1.79-2.22,1.79H60.6
				c-0.48,0-0.76-0.07-0.91-0.21c-0.14-0.14-0.19-0.36-0.19-0.78v-6.59c0-0.6,0.24-0.98,1.41-0.98c0.15,0,0.32,0,0.49,0.02
				l0.15,0.01v-0.72h-5.76v0.71h0.33c0.54,0,0.89,0.09,1.09,0.29c0.15,0.15,0.22,0.37,0.22,0.68v6.66c0,0.31-0.07,0.52-0.21,0.67
				c-0.2,0.2-0.54,0.29-1.09,0.29h-0.33v0.74h11.79V26.4z"/>
			<path class="st16" d="M48.61,44c-0.13-0.43-0.27-0.64-0.45-0.64c-0.32,0-0.74,0.84-0.74,2c0,0.26,0.06,0.39,0.16,0.39
				c0.17,0,0.46-0.3,0.85-0.87L48.61,44z M47.08,46.53c-0.34,0-0.62-0.35-0.62-0.97c0-0.71,0.31-1.3,0.9-1.95
				c0.39-0.43,0.74-0.63,0.97-0.63c0.18,0,0.29,0.07,0.44,0.25l0.3-1.42l0.02-0.15c0-0.07-0.03-0.12-0.08-0.12
				c-0.05,0-0.13,0.02-0.28,0.07l-0.09-0.21c0.79-0.33,1.23-0.51,1.33-0.51c0.08,0,0.14,0.06,0.14,0.12c0,0.05-0.01,0.14-0.03,0.24
				l-0.92,4.46l-0.01,0.09l0.05,0.07c0.08,0,0.24-0.14,0.44-0.42l0.15,0.13c-0.46,0.64-0.88,0.95-1.2,0.95
				c-0.23,0-0.36-0.15-0.36-0.44c0-0.14,0.03-0.38,0.09-0.7C47.76,46.14,47.36,46.53,47.08,46.53"/>
			<path class="st16" d="M52.14,43.6c0-0.19-0.09-0.3-0.23-0.3c-0.26,0-0.49,0.45-0.69,1.36C51.8,44.53,52.14,44.08,52.14,43.6
				 M51.1,46.55c-0.61,0-0.93-0.37-0.93-1.09c0-0.59,0.24-1.21,0.68-1.71c0.45-0.5,0.93-0.76,1.37-0.76c0.44,0,0.73,0.26,0.73,0.63
				c0,0.58-0.59,0.96-1.78,1.27c-0.03,0.17-0.04,0.31-0.04,0.43c0,0.45,0.21,0.7,0.6,0.7c0.24,0,0.54-0.13,0.9-0.36l0.11,0.14
				C52.11,46.29,51.6,46.55,51.1,46.55"/>
			<path class="st16" d="M57.24,43.51h-0.06c-0.79,0-1.41,0.79-1.41,1.7c0,0.33,0.16,0.55,0.33,0.55c0.16,0,0.29-0.12,0.47-0.28
				l0.32-0.29L57.24,43.51z M56.39,45.95c-0.4,0.36-0.66,0.56-0.89,0.56c-0.3,0-0.52-0.27-0.52-0.78c0-0.85,0.43-1.62,1.25-2.22
				c0.44-0.33,1.01-0.51,1.62-0.51c0.12,0,0.25,0.01,0.39,0.01l-0.58,2.65c-0.02,0.09-0.02,0.17-0.02,0.19l0.06,0.08
				c0.06,0,0.24-0.13,0.53-0.4l0.14,0.14c-0.59,0.55-0.95,0.87-1.26,0.87c-0.26,0-0.38-0.16-0.38-0.52c0-0.12,0.02-0.25,0.05-0.44
				L56.39,45.95z"/>
			<path class="st16" d="M61.25,43.92c0-0.1-0.04-0.15-0.12-0.15c-0.18,0-0.49,0.4-1.06,1.14l-0.23,1.09
				c-0.09,0.41-0.09,0.49-0.42,0.49h-0.31c-0.17,0-0.25-0.05-0.25-0.12c0-0.07,0.01-0.17,0.04-0.3l0.88-4.19
				c0.02-0.07,0.03-0.12,0.03-0.16c0-0.1-0.04-0.16-0.09-0.16c-0.06,0-0.15,0.01-0.27,0.06l-0.07-0.2c0.83-0.32,1.29-0.5,1.42-0.5
				c0.05,0,0.09,0.05,0.09,0.11c0,0.01-0.01,0.05-0.02,0.13l-0.69,3.24c0.7-0.92,1.29-1.38,1.71-1.38c0.26,0,0.39,0.17,0.39,0.5
				c0,0.11-0.02,0.25-0.05,0.38l-0.47,1.8c-0.01,0.06-0.02,0.12-0.02,0.17l0.07,0.1c0.08,0,0.27-0.16,0.54-0.51l0.16,0.14
				c-0.49,0.65-0.9,0.97-1.34,0.97c-0.26,0-0.37-0.12-0.37-0.42c0-0.18,0.05-0.38,0.1-0.62l0.33-1.36
				C61.24,44.05,61.25,43.97,61.25,43.92"/>
			<path class="st16" d="M64.23,46.22c0.33,0,0.82-0.75,0.82-1.78c0-0.69-0.17-1.06-0.46-1.06c-0.37,0-0.79,0.72-0.79,1.86
				C63.8,45.87,63.97,46.22,64.23,46.22 M63.65,43.62c0.47-0.41,0.98-0.62,1.41-0.62c0.6,0,0.94,0.41,0.94,1.17
				c0,0.55-0.16,1.01-0.48,1.44c-0.47,0.61-1.15,0.98-1.77,0.98c-0.59,0-0.91-0.42-0.91-1.19C62.84,44.71,63.12,44.08,63.65,43.62"
				/>
			<path class="st16" d="M66.4,44.06c0.52-0.74,0.96-1.08,1.23-1.08c0.17,0,0.22,0.1,0.22,0.34c0,0.26-0.06,0.76-0.19,1.51h0.03
				c0.49-1.21,0.81-1.83,1.29-1.83c0.19,0,0.3,0.12,0.3,0.32c0,0.43-0.15,0.66-0.44,0.66c-0.06,0-0.12,0-0.2,0
				c-0.44,0-0.75,0.73-1.06,2.17l-0.04,0.2c-0.03,0.11-0.1,0.16-0.24,0.16h-0.42c-0.18,0-0.25-0.04-0.25-0.15l0.01-0.06l0.29-1.72
				c0.07-0.39,0.1-0.62,0.1-0.68c0-0.09-0.01-0.13-0.04-0.13c-0.08,0-0.2,0.14-0.4,0.42L66.4,44.06z"/>
			<path class="st16" d="M69.21,44.06c0.52-0.74,0.97-1.08,1.23-1.08c0.17,0,0.22,0.1,0.22,0.34c0,0.26-0.06,0.76-0.19,1.51h0.03
				c0.48-1.21,0.81-1.83,1.28-1.83c0.2,0,0.3,0.12,0.3,0.32c0,0.43-0.16,0.66-0.44,0.66c-0.05,0-0.13,0-0.2,0
				c-0.43,0-0.76,0.73-1.06,2.17l-0.05,0.2c-0.03,0.11-0.09,0.16-0.24,0.16h-0.41c-0.18,0-0.25-0.04-0.25-0.15l0.01-0.06l0.29-1.72
				c0.07-0.39,0.1-0.62,0.1-0.68c0-0.09-0.01-0.13-0.04-0.13c-0.08,0-0.2,0.14-0.41,0.42L69.21,44.06z"/>
			<path class="st16" d="M73.02,46.22c0.34,0,0.82-0.75,0.82-1.78c0-0.69-0.17-1.06-0.46-1.06c-0.37,0-0.79,0.72-0.79,1.86
				C72.59,45.87,72.76,46.22,73.02,46.22 M72.44,43.62c0.47-0.41,0.98-0.62,1.41-0.62c0.6,0,0.93,0.41,0.93,1.17
				c0,0.55-0.16,1.01-0.48,1.44c-0.47,0.61-1.15,0.98-1.76,0.98c-0.6,0-0.91-0.42-0.91-1.19C71.63,44.71,71.92,44.08,72.44,43.62"/>
			<path class="st16" d="M46.04,53.63c0.42-0.05,0.61-0.1,0.8-0.38c0.1-0.15,0.27-0.51,0.46-1.08c0.11-0.33,0.13-0.68,0.13-1.08
				c0-1.26-0.18-1.91-0.39-1.91c-0.1,0-0.23,0.12-0.37,0.3l-0.2-0.08c0.34-0.6,0.77-0.91,1.12-0.91c0.46,0,0.74,0.71,0.74,2.05
				c0,0.26-0.02,0.67-0.05,1.2c0.48-1.08,0.8-1.78,0.8-2.19c0-0.26-0.17-0.34-0.17-0.54c0-0.3,0.23-0.52,0.55-0.52
				c0.31,0,0.51,0.2,0.51,0.46c0,0.51-0.54,1.19-1.22,2.35c-0.71,1.23-0.99,1.97-0.99,2.12c0,0.15,0.12,0.17,0.4,0.22l-0.04,0.22
				h-2.14L46.04,53.63z"/>
			<path class="st16" d="M51.66,51.05c0.24,0,0.4,0.18,0.64,0.38c0.16,0.13,0.32,0.19,0.44,0.19c0.15,0,0.24-0.08,0.24-0.23
				c0-0.18-0.17-0.35-0.44-0.63c-0.41-0.43-0.69-0.73-0.69-1.16c0-0.59,0.63-1.1,1.33-1.1c0.42,0,0.68,0.22,0.68,0.54
				c0,0.28-0.18,0.47-0.43,0.47c-0.19,0-0.32-0.09-0.42-0.27c-0.09-0.16-0.12-0.35-0.31-0.35c-0.12,0-0.2,0.09-0.2,0.24
				c0,0.26,0.25,0.48,0.58,0.87c0.24,0.28,0.47,0.49,0.47,0.9c0,0.65-0.59,1.17-1.51,1.17c-0.53,0-0.8-0.2-0.8-0.53
				C51.23,51.24,51.4,51.05,51.66,51.05"/>
			<path class="st16" d="M55.81,49.11c0-0.2-0.09-0.3-0.23-0.3c-0.26,0-0.49,0.45-0.69,1.36C55.47,50.03,55.81,49.6,55.81,49.11
				 M54.77,52.05c-0.61,0-0.93-0.37-0.93-1.09c0-0.59,0.24-1.21,0.68-1.71c0.45-0.5,0.93-0.76,1.36-0.76c0.45,0,0.73,0.26,0.73,0.63
				c0,0.58-0.59,0.96-1.78,1.27c-0.03,0.17-0.04,0.31-0.04,0.43c0,0.46,0.21,0.71,0.6,0.71c0.24,0,0.53-0.12,0.9-0.36l0.11,0.14
				C55.77,51.79,55.26,52.05,54.77,52.05"/>
			<path class="st16" d="M56.46,53.04c0,0.32,0.4,0.58,1.07,0.58c0.58,0,0.89-0.13,0.89-0.28c0-0.25-0.59-0.35-1.27-1
				C56.69,52.48,56.46,52.76,56.46,53.04 M58.02,51.08c0.15,0,0.24-0.11,0.34-0.32c0.2-0.44,0.3-0.91,0.3-1.35
				c0-0.45-0.1-0.66-0.34-0.66c-0.3,0-0.71,0.66-0.71,1.6C57.62,50.83,57.78,51.08,58.02,51.08 M56.68,50.24
				c0-0.44,0.25-0.91,0.71-1.29c0.39-0.31,0.88-0.49,1.41-0.49c0.29,0,0.62,0.04,1.01,0.11v0.49c-0.1-0.02-0.21-0.03-0.32-0.03h-0.1
				c0.1,0.2,0.16,0.42,0.16,0.66c0,0.63-0.42,1.18-1.2,1.52c-0.41,0.18-0.71,0.18-0.71,0.35c0,0.09,0.2,0.27,0.62,0.52
				c0.56,0.34,0.98,0.54,0.98,0.95c0,0.47-0.72,0.84-1.88,0.84c-1.14,0-1.8-0.3-1.8-0.63c0-0.34,0.49-0.69,1.44-1.1
				c-0.03-0.07-0.05-0.14-0.05-0.2c0-0.24,0.17-0.44,0.51-0.56C56.97,51.17,56.68,50.75,56.68,50.24"/>
			<path class="st16" d="M60.32,52.08c-0.22,0-0.32-0.12-0.32-0.37c0-0.1,0.02-0.28,0.08-0.54l0.31-1.55
				c0.03-0.16,0.05-0.25,0.05-0.29c0-0.07-0.03-0.1-0.07-0.1c-0.06,0-0.18,0.15-0.39,0.43l-0.16-0.12c0.48-0.67,0.8-1.02,1.25-1.02
				c0.24,0,0.38,0.13,0.38,0.4c0,0.12-0.05,0.34-0.11,0.67l-0.27,1.23c-0.02,0.11-0.02,0.19-0.02,0.22c0,0.1,0.03,0.15,0.09,0.15
				c0.13,0,0.59-0.49,1.09-1.53l0.14-0.63c0.09-0.41,0.09-0.49,0.43-0.49h0.28c0.17,0,0.25,0.05,0.25,0.11
				c0,0.09-0.03,0.19-0.04,0.32L62.87,51c-0.01,0.09-0.03,0.15-0.03,0.19c0,0.08,0.03,0.11,0.07,0.11c0.11,0,0.25-0.15,0.48-0.43
				l0.15,0.14c-0.56,0.71-1.06,1.05-1.4,1.05c-0.19,0-0.3-0.12-0.3-0.34c0-0.12,0.02-0.25,0.05-0.4l0.17-0.91
				C61.31,51.55,60.66,52.08,60.32,52.08"/>
			<path class="st16" d="M63.65,49.56c0.53-0.73,0.97-1.08,1.23-1.08c0.17,0,0.22,0.1,0.22,0.34c0,0.26-0.06,0.76-0.2,1.51h0.03
				c0.49-1.21,0.81-1.84,1.29-1.84c0.2,0,0.3,0.12,0.3,0.33c0,0.43-0.16,0.66-0.44,0.66c-0.06,0-0.12-0.01-0.21-0.01
				c-0.43,0-0.75,0.73-1.06,2.17l-0.04,0.2c-0.02,0.11-0.09,0.16-0.24,0.16h-0.42c-0.17,0-0.25-0.04-0.25-0.15l0.01-0.07l0.29-1.71
				c0.07-0.39,0.1-0.62,0.1-0.68c0-0.09-0.01-0.13-0.04-0.13c-0.08,0-0.2,0.14-0.4,0.41L63.65,49.56z"/>
			<path class="st16" d="M67.45,51.73c0.34,0,0.82-0.75,0.82-1.78c0-0.69-0.17-1.06-0.46-1.06c-0.37,0-0.79,0.73-0.79,1.86
				C67.03,51.38,67.19,51.73,67.45,51.73 M66.88,49.13c0.47-0.41,0.99-0.62,1.41-0.62c0.6,0,0.94,0.42,0.94,1.17
				c0,0.54-0.16,1.01-0.48,1.43c-0.47,0.62-1.15,0.97-1.76,0.97c-0.59,0-0.91-0.41-0.91-1.19C66.07,50.21,66.34,49.59,66.88,49.13"
				/>
			<polygon class="st25" points="90.23,38.27 90.23,10.11 40.55,10.11 40.55,59.79 68.71,59.79 			"/>
			<path class="st16" d="M72.49,28.76v-0.68h-5.32v0.68h0.33c0.54,0,0.9,0.1,1.09,0.29c0.15,0.15,0.22,0.37,0.22,0.68v8.71
				c0,0.93-0.15,1.51-0.46,1.83c-0.2,0.2-0.48,0.3-0.86,0.3c-0.39,0-0.76-0.19-1.22-0.43c-0.11-0.06-0.22-0.11-0.34-0.17
				c-0.08-0.04-0.19-0.06-0.37-0.06c-0.23,0-0.44,0.08-0.58,0.22c-0.13,0.13-0.2,0.31-0.2,0.51c0,0.54,0.68,0.92,1.66,0.92
				c1.25,0,2.24-0.36,2.96-1.07c0.97-0.96,1.43-2.55,1.43-4.83v-5.93c0-0.59,0.22-0.98,1.31-0.98H72.49z"/>
			<path class="st16" d="M75.67,33.02l1.4-3.06l1.39,3.06H75.67z M83.56,37.53c-0.84,0-1.05-0.37-1.43-1.19l-3.7-8.27h-2.21
				l0.13,0.22c0.06,0.1,0.08,0.19,0.08,0.24c0,0.08-0.03,0.23-0.18,0.53l-3.33,7.35c-0.37,0.81-0.51,1.11-1.66,1.12l-0.14,0v0.74
				h4.53v-0.75l-0.22,0.01c-0.2,0.01-0.39,0.02-0.54,0.02c-0.47,0-0.77-0.07-0.91-0.21c-0.06-0.06-0.09-0.14-0.09-0.24
				c0-0.04,0.01-0.18,0.14-0.48l1.24-2.66h3.6c0.21,0.46,1.21,2.66,1.21,2.66c0.13,0.3,0.16,0.47,0.16,0.52
				c0,0.09-0.02,0.15-0.08,0.21c-0.14,0.14-0.48,0.21-1.03,0.21c-0.18,0-0.39-0.01-0.62-0.03l-0.19-0.01v0.75h5.56v-0.74H83.56z"/>
			<path class="st16" d="M60.05,33.01l1.4-3.06l1.39,3.06H60.05z M63.53,37.56c-0.17,0-0.37-0.01-0.59-0.02l-0.22-0.01v0.75h5.56
				v-0.74h-0.34c-0.84,0-1.05-0.37-1.43-1.19l-3.7-8.27H60.6l0.13,0.22c0.06,0.1,0.08,0.19,0.08,0.24c0,0.08-0.03,0.23-0.18,0.53
				l-2.9,6.38c-0.68,1.33-2.19,2.06-4.25,2.06c-1.46,0-2.69-0.47-3.57-1.35c-0.85-0.85-1.29-2.01-1.29-3.41
				c0-1.16,0.5-2.25,1.37-2.99c0.83-0.68,2-1.07,3.22-1.07c1.84,0,3.21,0.8,4.07,2.38l0.04,0.08l0.72-0.02l-0.2-2.6l-0.16,0.03
				c-0.13,0.03-0.24,0.04-0.35,0.04c-0.17,0-0.33-0.03-0.5-0.06c-0.06-0.01-0.13-0.02-0.19-0.04c-1.29-0.27-2.51-0.53-3.6-0.57
				c-2.07-0.06-3.89,0.71-5.25,2.24c-0.85,0.95-1.29,2.05-1.29,3.18c0,1.49,0.74,2.77,2.09,3.68c1.22,0.83,2.77,1.24,4.73,1.24h6.71
				v-0.75l-0.22,0.01c-0.2,0.01-0.38,0.02-0.54,0.02c-0.47,0-0.78-0.07-0.91-0.21c-0.06-0.06-0.09-0.14-0.09-0.24
				c0-0.04,0.01-0.18,0.14-0.48l1.25-2.66l3.6,0c0.21,0.46,1.21,2.66,1.21,2.66c0.13,0.3,0.16,0.47,0.16,0.52
				c0,0.09-0.02,0.15-0.08,0.21C64.41,37.49,64.08,37.56,63.53,37.56"/>
			<path class="st16" d="M69.25,18.78l1.39,3.06l-2.79,0L69.25,18.78z M67.81,26.35l-0.21,0.01c-0.2,0.01-0.39,0.02-0.54,0.02
				c-0.47,0-0.77-0.07-0.91-0.21c-0.06-0.06-0.09-0.14-0.09-0.24c0-0.05,0.02-0.18,0.14-0.48l1.24-2.66l3.6,0
				c0.21,0.46,1.21,2.66,1.21,2.66c0.13,0.3,0.16,0.47,0.16,0.52c0,0.09-0.03,0.15-0.08,0.21c-0.14,0.14-0.48,0.21-1.03,0.21
				c-0.17,0-0.38-0.01-0.59-0.02l-0.22-0.01v0.75h5.56v-0.74h-0.34c-0.84,0-1.05-0.37-1.43-1.19l-3.7-8.27h-2.21l0.13,0.22
				c0.06,0.1,0.08,0.19,0.08,0.24c0,0.08-0.03,0.23-0.18,0.53l-3.01,6.64c-0.01,0.02-0.68,1.8-2.23,1.8H60.8
				c-0.48,0-0.76-0.06-0.91-0.21c-0.14-0.14-0.19-0.36-0.19-0.79v-6.62c0-0.61,0.24-0.99,1.42-0.99c0.15,0,0.32,0,0.49,0.01
				l0.16,0.01v-0.73h-5.79v0.71h0.34c0.54,0,0.89,0.1,1.09,0.29c0.15,0.15,0.22,0.37,0.22,0.68v6.69c0,0.31-0.07,0.53-0.22,0.67
				c-0.2,0.2-0.55,0.29-1.1,0.29h-0.34v0.74h11.84V26.35z"/>
			<polygon class="st26" points="70.36,58.14 88.58,58.14 88.58,39.92 			"/>
			<path class="st16" d="M48.75,44.04c-0.13-0.43-0.27-0.64-0.45-0.64c-0.32,0-0.74,0.85-0.74,2.01c0,0.26,0.06,0.39,0.17,0.39
				c0.17,0,0.46-0.3,0.85-0.88L48.75,44.04z M47.21,46.58c-0.34,0-0.62-0.35-0.62-0.98c0-0.71,0.31-1.31,0.9-1.96
				c0.39-0.43,0.74-0.63,0.98-0.63c0.18,0,0.29,0.07,0.44,0.25l0.3-1.43l0.02-0.15c0-0.07-0.03-0.12-0.08-0.12s-0.13,0.02-0.27,0.07
				l-0.09-0.21c0.79-0.33,1.23-0.51,1.33-0.51c0.08,0,0.14,0.05,0.14,0.12c0,0.05-0.01,0.14-0.03,0.24l-0.92,4.48l-0.02,0.09
				l0.05,0.07c0.08,0,0.24-0.13,0.45-0.42l0.15,0.13c-0.46,0.64-0.88,0.96-1.21,0.96c-0.23,0-0.36-0.15-0.36-0.44
				c0-0.14,0.03-0.38,0.1-0.71C47.9,46.19,47.49,46.58,47.21,46.58"/>
			<path class="st16" d="M52.3,43.63c0-0.2-0.09-0.31-0.23-0.31c-0.27,0-0.49,0.45-0.69,1.37C51.96,44.56,52.3,44.12,52.3,43.63
				 M51.26,46.59c-0.62,0-0.94-0.37-0.94-1.09c0-0.6,0.24-1.21,0.69-1.72c0.45-0.5,0.93-0.76,1.37-0.76c0.45,0,0.73,0.26,0.73,0.63
				c0,0.59-0.6,0.97-1.79,1.28c-0.03,0.17-0.04,0.31-0.04,0.43c0,0.46,0.21,0.71,0.6,0.71c0.24,0,0.54-0.13,0.9-0.36l0.11,0.14
				C52.26,46.33,51.75,46.59,51.26,46.59"/>
			<path class="st16" d="M57.42,43.54h-0.06c-0.79,0-1.42,0.8-1.42,1.71c0,0.34,0.16,0.55,0.33,0.55c0.16,0,0.29-0.12,0.47-0.28
				l0.32-0.29L57.42,43.54z M56.57,45.99c-0.4,0.37-0.67,0.56-0.89,0.56c-0.31,0-0.52-0.27-0.52-0.79c0-0.85,0.43-1.62,1.25-2.24
				c0.45-0.33,1.01-0.51,1.63-0.51c0.12,0,0.26,0.01,0.4,0.02l-0.58,2.67c-0.02,0.09-0.02,0.16-0.02,0.19l0.06,0.09
				c0.06,0,0.24-0.13,0.52-0.4l0.15,0.14c-0.6,0.55-0.96,0.87-1.27,0.87c-0.27,0-0.38-0.16-0.38-0.52c0-0.12,0.02-0.26,0.05-0.45
				L56.57,45.99z"/>
			<path class="st16" d="M61.45,43.95c0-0.1-0.04-0.15-0.12-0.15c-0.18,0-0.49,0.4-1.07,1.14l-0.23,1.09
				c-0.09,0.42-0.09,0.49-0.42,0.49h-0.31c-0.17,0-0.25-0.06-0.25-0.12c0-0.07,0.01-0.17,0.04-0.31l0.89-4.21
				c0.02-0.07,0.02-0.13,0.02-0.17c0-0.1-0.03-0.16-0.09-0.16c-0.06,0-0.16,0.02-0.27,0.05l-0.07-0.2c0.84-0.32,1.3-0.5,1.43-0.5
				c0.05,0,0.1,0.05,0.1,0.11c0,0.01-0.01,0.05-0.02,0.13l-0.7,3.25c0.71-0.92,1.3-1.38,1.72-1.38c0.26,0,0.39,0.17,0.39,0.49
				c0,0.12-0.02,0.25-0.05,0.38l-0.47,1.8c-0.02,0.06-0.02,0.12-0.02,0.17c0,0.06,0.03,0.1,0.07,0.1c0.09,0,0.27-0.16,0.54-0.51
				l0.17,0.14c-0.49,0.65-0.9,0.98-1.35,0.98c-0.27,0-0.38-0.13-0.38-0.42c0-0.18,0.05-0.39,0.1-0.63l0.33-1.37
				C61.44,44.08,61.45,44,61.45,43.95"/>
			<path class="st16" d="M64.45,46.26c0.34,0,0.82-0.75,0.82-1.79c0-0.7-0.17-1.07-0.46-1.07c-0.37,0-0.79,0.73-0.79,1.87
				C64.02,45.92,64.18,46.26,64.45,46.26 M63.87,43.65c0.47-0.41,0.99-0.62,1.42-0.62c0.6,0,0.94,0.42,0.94,1.18
				c0,0.55-0.16,1.01-0.49,1.44c-0.47,0.62-1.15,0.98-1.77,0.98c-0.6,0-0.92-0.42-0.92-1.2C63.05,44.74,63.34,44.12,63.87,43.65"/>
			<path class="st16" d="M66.62,44.09c0.53-0.74,0.97-1.09,1.23-1.09c0.17,0,0.23,0.1,0.23,0.34c0,0.26-0.06,0.77-0.2,1.52h0.03
				c0.49-1.22,0.81-1.84,1.29-1.84c0.2,0,0.3,0.12,0.3,0.33c0,0.43-0.16,0.67-0.45,0.67c-0.05,0-0.12-0.01-0.2-0.01
				c-0.44,0-0.76,0.73-1.07,2.18l-0.05,0.2c-0.02,0.11-0.09,0.16-0.24,0.16h-0.42c-0.18,0-0.25-0.04-0.25-0.15l0.01-0.06l0.29-1.72
				c0.07-0.39,0.1-0.62,0.1-0.68c0-0.09-0.01-0.13-0.04-0.13c-0.08,0-0.2,0.14-0.41,0.42L66.62,44.09z"/>
			<path class="st16" d="M69.45,44.09c0.52-0.74,0.97-1.09,1.23-1.09c0.17,0,0.23,0.1,0.23,0.34c0,0.26-0.06,0.77-0.2,1.52h0.03
				c0.49-1.22,0.82-1.84,1.29-1.84c0.2,0,0.3,0.12,0.3,0.33c0,0.43-0.16,0.67-0.45,0.67c-0.05,0-0.13-0.01-0.2-0.01
				c-0.44,0-0.76,0.73-1.07,2.18l-0.05,0.2c-0.02,0.11-0.09,0.16-0.24,0.16h-0.42c-0.18,0-0.25-0.04-0.25-0.15l0.01-0.06l0.29-1.72
				c0.07-0.39,0.1-0.62,0.1-0.68c0-0.09-0.01-0.13-0.04-0.13c-0.08,0-0.2,0.14-0.41,0.42L69.45,44.09z"/>
			<path class="st16" d="M73.28,46.26c0.34,0,0.82-0.75,0.82-1.79c0-0.7-0.17-1.07-0.46-1.07c-0.37,0-0.79,0.73-0.79,1.87
				C72.85,45.92,73.01,46.26,73.28,46.26 M72.7,43.65c0.47-0.41,0.99-0.62,1.42-0.62c0.6,0,0.94,0.42,0.94,1.18
				c0,0.55-0.16,1.01-0.49,1.44c-0.47,0.62-1.15,0.98-1.77,0.98c-0.6,0-0.92-0.42-0.92-1.2C71.88,44.74,72.17,44.12,72.7,43.65"/>
			<path class="st16" d="M46.17,53.71c0.43-0.05,0.62-0.1,0.81-0.38c0.1-0.16,0.28-0.52,0.46-1.09c0.11-0.33,0.13-0.68,0.13-1.08
				c0-1.27-0.18-1.93-0.39-1.93c-0.1,0-0.23,0.12-0.37,0.31l-0.2-0.09c0.34-0.6,0.78-0.92,1.12-0.92c0.46,0,0.75,0.71,0.75,2.06
				c0,0.27-0.02,0.67-0.06,1.21c0.49-1.09,0.81-1.79,0.81-2.2c0-0.27-0.16-0.34-0.16-0.54c0-0.31,0.23-0.53,0.55-0.53
				c0.31,0,0.52,0.2,0.52,0.47c0,0.52-0.55,1.19-1.23,2.36c-0.71,1.23-1,1.98-1,2.13c0,0.14,0.13,0.16,0.41,0.22l-0.04,0.22h-2.15
				L46.17,53.71z"/>
			<path class="st16" d="M51.82,51.12c0.24,0,0.41,0.18,0.64,0.38c0.16,0.13,0.32,0.2,0.45,0.2c0.15,0,0.23-0.08,0.23-0.23
				c0-0.18-0.17-0.35-0.44-0.64c-0.41-0.43-0.7-0.74-0.7-1.17c0-0.59,0.63-1.1,1.33-1.1c0.42,0,0.69,0.22,0.69,0.54
				c0,0.27-0.18,0.47-0.44,0.47c-0.2,0-0.32-0.09-0.42-0.28c-0.09-0.17-0.12-0.35-0.31-0.35c-0.13,0-0.2,0.09-0.2,0.24
				c0,0.26,0.24,0.48,0.58,0.87c0.24,0.28,0.47,0.49,0.47,0.91c0,0.65-0.6,1.18-1.52,1.18c-0.53,0-0.81-0.2-0.81-0.53
				C51.38,51.31,51.56,51.12,51.82,51.12"/>
			<path class="st16" d="M55.99,49.16c0-0.2-0.08-0.31-0.23-0.31c-0.27,0-0.49,0.45-0.69,1.37C55.64,50.1,55.99,49.66,55.99,49.16
				 M54.95,52.13c-0.62,0-0.94-0.37-0.94-1.09c0-0.6,0.24-1.21,0.69-1.72c0.45-0.5,0.93-0.76,1.37-0.76c0.45,0,0.73,0.26,0.73,0.63
				c0,0.59-0.6,0.97-1.79,1.28c-0.03,0.17-0.04,0.31-0.04,0.43c0,0.46,0.21,0.71,0.6,0.71c0.24,0,0.54-0.13,0.9-0.36l0.11,0.14
				C55.95,51.87,55.44,52.13,54.95,52.13"/>
			<path class="st16" d="M56.63,53.12c0,0.32,0.4,0.58,1.08,0.58c0.58,0,0.89-0.14,0.89-0.29c0-0.25-0.59-0.35-1.28-1
				C56.88,52.55,56.63,52.83,56.63,53.12 M58.21,51.15c0.15,0,0.24-0.11,0.35-0.32c0.2-0.44,0.31-0.91,0.31-1.36
				c0-0.45-0.1-0.66-0.34-0.66c-0.3,0-0.71,0.66-0.71,1.62C57.8,50.89,57.97,51.15,58.21,51.15 M56.86,50.3
				c0-0.44,0.25-0.92,0.71-1.29c0.39-0.31,0.89-0.49,1.43-0.49c0.29,0,0.63,0.04,1.01,0.11v0.49c-0.1-0.02-0.21-0.03-0.32-0.03h-0.1
				c0.1,0.2,0.17,0.42,0.17,0.67c0,0.64-0.42,1.19-1.2,1.53c-0.42,0.18-0.71,0.18-0.71,0.34c0,0.09,0.2,0.28,0.62,0.53
				c0.57,0.35,0.98,0.54,0.98,0.96c0,0.47-0.72,0.84-1.88,0.84c-1.15,0-1.81-0.3-1.81-0.63c0-0.35,0.49-0.7,1.44-1.11
				c-0.03-0.07-0.05-0.14-0.05-0.2c0-0.24,0.17-0.44,0.51-0.56C57.15,51.24,56.86,50.82,56.86,50.3"/>
			<path class="st16" d="M60.52,52.15c-0.22,0-0.32-0.13-0.32-0.38c0-0.1,0.02-0.28,0.08-0.54l0.31-1.56
				c0.03-0.16,0.05-0.25,0.05-0.29c0-0.07-0.03-0.1-0.07-0.1c-0.05,0-0.18,0.15-0.39,0.43l-0.16-0.12c0.48-0.67,0.81-1.03,1.25-1.03
				c0.24,0,0.38,0.13,0.38,0.4c0,0.12-0.05,0.34-0.12,0.67l-0.27,1.24c-0.02,0.11-0.03,0.19-0.03,0.23c0,0.09,0.04,0.15,0.09,0.15
				c0.13,0,0.6-0.49,1.1-1.53l0.14-0.63c0.09-0.41,0.09-0.49,0.43-0.49h0.28c0.16,0,0.25,0.05,0.25,0.11c0,0.09-0.02,0.2-0.05,0.32
				l-0.4,2.04c-0.02,0.09-0.03,0.16-0.03,0.19c0,0.08,0.03,0.12,0.07,0.12c0.11,0,0.25-0.15,0.49-0.43l0.15,0.14
				c-0.56,0.71-1.07,1.06-1.4,1.06c-0.2,0-0.3-0.12-0.3-0.34c0-0.12,0.02-0.25,0.05-0.4l0.17-0.91
				C61.51,51.62,60.86,52.15,60.52,52.15"/>
			<path class="st16" d="M63.86,49.62c0.53-0.74,0.97-1.09,1.23-1.09c0.17,0,0.23,0.1,0.23,0.35c0,0.26-0.06,0.77-0.2,1.52h0.03
				c0.48-1.21,0.82-1.84,1.29-1.84c0.2,0,0.3,0.12,0.3,0.33c0,0.43-0.16,0.67-0.45,0.67c-0.06,0-0.13-0.01-0.21-0.01
				c-0.44,0-0.76,0.73-1.07,2.18l-0.05,0.2c-0.02,0.11-0.09,0.16-0.24,0.16h-0.42c-0.18,0-0.25-0.04-0.25-0.15l0.01-0.06l0.29-1.73
				c0.07-0.39,0.1-0.62,0.1-0.68c0-0.09-0.01-0.13-0.04-0.13c-0.08,0-0.2,0.14-0.41,0.42L63.86,49.62z"/>
			<path class="st16" d="M67.69,51.8c0.34,0,0.82-0.75,0.82-1.79c0-0.7-0.17-1.07-0.46-1.07c-0.37,0-0.79,0.73-0.79,1.87
				C67.26,51.45,67.42,51.8,67.69,51.8 M67.11,49.19c0.47-0.41,0.99-0.62,1.42-0.62c0.6,0,0.94,0.42,0.94,1.18
				c0,0.55-0.16,1.01-0.48,1.44c-0.47,0.62-1.15,0.98-1.77,0.98c-0.6,0-0.92-0.41-0.92-1.2C66.29,50.27,66.57,49.65,67.11,49.19"/>
		</g>
	</g>
</g>
<g id="Capa_6">
</g>
</svg>
