<?xml version="1.0" encoding="utf-8"?>
<!-- Generator: Adobe Illustrator 27.9.0, SVG Export Plug-In . SVG Version: 6.00 Build 0)  -->
<svg version="1.1" xmlns="http://www.w3.org/2000/svg" xmlns:xlink="http://www.w3.org/1999/xlink" x="0px" y="0px"
	 viewBox="0 0 126.08 75.06" style="enable-background:new 0 0 126.08 75.06;" xml:space="preserve">
<style type="text/css">
	.st0{fill:#F0F0F0;}
	.st1{display:none;}
	.st2{display:inline;fill:#1C1824;}
	.st3{fill:none;stroke:#D4D4D4;stroke-width:2.3506;stroke-miterlimit:10;}
	.st4{fill:none;stroke:#E3E3E3;stroke-width:0.5;stroke-miterlimit:10;}
	.st5{fill:none;stroke:#FFFFFE;stroke-width:0.8855;stroke-miterlimit:10;}
	.st6{fill:#FFFFFE;}
	.st7{fill:#16C0FE;}
	.st8{fill:#0000D7;}
	.st9{fill:#FFDE00;}
	.st10{fill:#6B6B6B;}
	.st11{fill:#696969;}
	.st12{fill:none;stroke:#474747;stroke-width:0.348;stroke-miterlimit:10;}
	.st13{fill:none;stroke:#474747;stroke-width:0.4442;stroke-miterlimit:10;}
	.st14{fill:none;stroke:#D2B356;stroke-width:5.9189;stroke-miterlimit:10;}
	.st15{fill:#D2B356;}
	.st16{fill:#FFFFFF;}
	.st17{fill:none;stroke:#000000;stroke-width:0.4956;stroke-miterlimit:10;}
	.st18{fill:none;stroke:#000000;stroke-width:1.6303;stroke-miterlimit:10;}
	.st19{fill:none;stroke:#A8A8A8;stroke-width:0.5;stroke-miterlimit:10;}
	.st20{display:inline;fill:none;stroke:#DBDBDB;stroke-width:0.4653;stroke-miterlimit:10;}
	.st21{fill:#303334;}
	.st22{clip-path:url(#SVGID_00000134942754012704125380000001719335143479902344_);fill:#B6B6B6;}
	.st23{fill-rule:evenodd;clip-rule:evenodd;fill:#303334;}
	.st24{fill:#262626;}
	.st25{fill:#424242;}
	.st26{fill:#595959;}
	.st27{fill:#A3A3A3;}
	.st28{fill:#606060;}
	.st29{fill:#848484;}
	.st30{fill:#040505;}
	.st31{fill-rule:evenodd;clip-rule:evenodd;fill:#2D2D2D;}
	.st32{fill-rule:evenodd;clip-rule:evenodd;fill:#989898;}
	.st33{fill:#4B4B4B;}
	.st34{fill:#373737;}
	.st35{fill:#1E1E1E;}
	.st36{clip-path:url(#SVGID_00000005260890430791304180000000661906742010775991_);}
	.st37{fill:#B29020;}
	.st38{clip-path:url(#SVGID_00000173155089903829785890000014786926540646825373_);}
	.st39{fill-rule:evenodd;clip-rule:evenodd;fill:#333333;}
	.st40{fill-rule:evenodd;clip-rule:evenodd;fill:#FFFFFF;}
	.st41{fill:#333333;}
	.st42{fill:#E3E3E3;}
	.st43{fill:#C7C7C7;}
	.st44{fill:#828282;}
	.st45{fill:#5D5D5D;}
	.st46{fill:#B7B7B7;}
	.st47{fill:#C1C1C1;}
	.st48{fill:#D9D9D9;}
	.st49{fill:#B2B2B2;}
	.st50{fill:#1D1D1D;}
	.st51{fill-rule:evenodd;clip-rule:evenodd;fill:#A8A8A8;}
	.st52{fill:#5C5C5C;}
	.st53{fill:#202020;}
	.st54{fill:#221F1F;}
	.st55{fill:#231F20;}
	.st56{fill:none;stroke:#221F1F;stroke-width:0.1371;}
	.st57{fill:#1D1D1B;}
	.st58{fill:#7A7A7A;}
	.st59{fill:none;stroke:#DBDBDB;stroke-width:0.4653;stroke-miterlimit:10;}
	.st60{clip-path:url(#SVGID_00000106108388925196906280000009148171408333494422_);fill:#B6B6B6;}
	.st61{clip-path:url(#SVGID_00000043430520913986021870000014245496506702125200_);}
	.st62{clip-path:url(#SVGID_00000080902824801047573570000012779183497559714184_);}
	.st63{fill:#A0A0A0;}
	.st64{fill-rule:evenodd;clip-rule:evenodd;fill:#D2B356;}
	.st65{fill:#9E9E9E;}
	.st66{clip-path:url(#SVGID_00000176034558984823120180000011288581524563279531_);}
	.st67{clip-path:url(#SVGID_00000158738075133684715560000011280141423221667229_);}
	.st68{clip-path:url(#SVGID_00000014613013494452065880000016530309581506193071_);}
	.st69{fill:#212121;}
</style>
<g id="Capa_2">
</g>
<g id="Capa_7" class="st1">
</g>
<g id="Capa_1">
</g>
<g id="lineas-logos">
</g>
<g id="marco-logos" class="st1">
</g>
<g id="logos">
	<rect class="st59" width="126.08" height="75.06"/>
	<g>
		<g>
			<path class="st21" d="M94.4,35.05v-3.69h4.15c1.21,0,2.65,0.31,2.65,1.78v0.06c0,1.22-0.99,1.84-2.95,1.84H94.4z M99.46,43.3
				H94.4v-3.86h4.91c2.01,0,3.03,0.64,3.03,1.9v0.06C102.34,42.66,101.38,43.3,99.46,43.3 M104.02,36.8
				c1.56-1.05,2.33-2.48,2.33-4.36v-0.06c0-1.49-0.5-2.7-1.51-3.71c-1.26-1.25-3.2-1.91-5.61-1.91h-9.89l0,21.12h10.12
				c5.1,0,8.04-2.17,8.04-5.94v-0.06C107.5,39.46,106.42,37.87,104.02,36.8"/>
			<path class="st21" d="M82.69,37.33v0.06c0,3.46-2.37,5.79-5.89,5.79h-3.18v-11.7h3.18C80.32,31.48,82.69,33.83,82.69,37.33
				 M76.81,26.77h-8.36l0,21.12l8.35,0c3.18,0,6.06-1.08,8.13-3.05c2.03-1.93,3.14-4.6,3.14-7.51v-0.06
				C88.08,31.18,83.34,26.77,76.81,26.77"/>
			<path class="st21" d="M63.8,26.73c1.43,0,2.59,1.15,2.59,2.57v18.58h-5.18V26.73H63.8z"/>
			<path class="st21" d="M46.82,34.4c-0.74-0.03-0.88,0.42,0.24,0.65C48.63,35.38,47.56,34.43,46.82,34.4 M44.49,32.67
				c-2.23-0.72-0.76,1.05,0.3,1.17C45.85,33.95,46.07,33.17,44.49,32.67 M37.93,31.06c-0.65,0.34,0.51,1.84,3.49,1.92
				C44.39,33.06,40.55,29.69,37.93,31.06 M43.64,52.77c0.94-1.73,2.97-4.25,7.33-9.34c6.51-7.6-12.78-5.05-16.09-10.8
				c-2.72-4.74,7.41-8.15,13.53-10.79c3.98,2.61,6.87,6.82,7.61,11.88C57.3,42.37,51.88,50.45,43.64,52.77 M39.77,40.52
				c-2.73,4.4,6.04,4.46,1.98,12.68c-0.12,0.02-0.24,0.04-0.36,0.06c-9.47,1.38-18.26-5.13-19.65-14.54
				c-0.65-4.46,0.47-8.77,2.85-12.22C24.16,36.42,42.32,36.41,39.77,40.52"/>
		</g>
	</g>
</g>
<g id="Capa_6">
</g>
</svg>
