<?xml version="1.0" encoding="utf-8"?>
<!-- Generator: Adobe Illustrator 27.9.0, SVG Export Plug-In . SVG Version: 6.00 Build 0)  -->
<svg version="1.1" xmlns="http://www.w3.org/2000/svg" xmlns:xlink="http://www.w3.org/1999/xlink" x="0px" y="0px"
	 viewBox="0 0 126.08 75.06" style="enable-background:new 0 0 126.08 75.06;" xml:space="preserve">
<style type="text/css">
	.st0{fill:#F0F0F0;}
	.st1{display:none;}
	.st2{display:inline;fill:#1C1824;}
	.st3{fill:none;stroke:#D4D4D4;stroke-width:2.3506;stroke-miterlimit:10;}
	.st4{fill:none;stroke:#E3E3E3;stroke-width:0.5;stroke-miterlimit:10;}
	.st5{fill:none;stroke:#FFFFFE;stroke-width:0.8855;stroke-miterlimit:10;}
	.st6{fill:#FFFFFE;}
	.st7{fill:#16C0FE;}
	.st8{fill:#0000D7;}
	.st9{fill:#FFDE00;}
	.st10{fill:#6B6B6B;}
	.st11{fill:#696969;}
	.st12{fill:none;stroke:#474747;stroke-width:0.348;stroke-miterlimit:10;}
	.st13{fill:none;stroke:#474747;stroke-width:0.4442;stroke-miterlimit:10;}
	.st14{fill:none;stroke:#D2B356;stroke-width:5.9189;stroke-miterlimit:10;}
	.st15{fill:#D2B356;}
	.st16{fill:#FFFFFF;}
	.st17{fill:none;stroke:#000000;stroke-width:0.4956;stroke-miterlimit:10;}
	.st18{fill:none;stroke:#000000;stroke-width:1.6303;stroke-miterlimit:10;}
	.st19{fill:none;stroke:#A8A8A8;stroke-width:0.5;stroke-miterlimit:10;}
	.st20{display:inline;fill:none;stroke:#DBDBDB;stroke-width:0.4653;stroke-miterlimit:10;}
	.st21{fill:#303334;}
	.st22{clip-path:url(#SVGID_00000067929075644687826900000004454369323690031517_);fill:#B6B6B6;}
	.st23{fill-rule:evenodd;clip-rule:evenodd;fill:#303334;}
	.st24{fill:#262626;}
	.st25{fill:#424242;}
	.st26{fill:#595959;}
	.st27{fill:#A3A3A3;}
	.st28{fill:#606060;}
	.st29{fill:#848484;}
	.st30{fill:#040505;}
	.st31{fill-rule:evenodd;clip-rule:evenodd;fill:#2D2D2D;}
	.st32{fill-rule:evenodd;clip-rule:evenodd;fill:#989898;}
	.st33{fill:#4B4B4B;}
	.st34{fill:#373737;}
	.st35{fill:#1E1E1E;}
	.st36{clip-path:url(#SVGID_00000004541088704303119830000003514680087558284428_);}
	.st37{fill:#B29020;}
	.st38{clip-path:url(#SVGID_00000145051964666533650930000016194460395734911416_);}
	.st39{fill-rule:evenodd;clip-rule:evenodd;fill:#333333;}
	.st40{fill-rule:evenodd;clip-rule:evenodd;fill:#FFFFFF;}
	.st41{fill:#333333;}
	.st42{fill:#E3E3E3;}
	.st43{fill:#C7C7C7;}
	.st44{fill:#828282;}
	.st45{fill:#5D5D5D;}
	.st46{fill:#B7B7B7;}
	.st47{fill:#C1C1C1;}
	.st48{fill:#D9D9D9;}
	.st49{fill:#B2B2B2;}
	.st50{fill:#1D1D1D;}
	.st51{fill-rule:evenodd;clip-rule:evenodd;fill:#A8A8A8;}
	.st52{fill:#5C5C5C;}
	.st53{fill:#202020;}
	.st54{fill:#221F1F;}
	.st55{fill:#231F20;}
	.st56{fill:none;stroke:#221F1F;stroke-width:0.1371;}
	.st57{fill:#1D1D1B;}
	.st58{fill:#7A7A7A;}
	.st59{fill:none;stroke:#DBDBDB;stroke-width:0.4653;stroke-miterlimit:10;}
	.st60{clip-path:url(#SVGID_00000106830769352253275120000015189261548216461237_);fill:#B6B6B6;}
	.st61{clip-path:url(#SVGID_00000005231906923537848020000002014311754925392050_);}
	.st62{clip-path:url(#SVGID_00000101787838600862435100000008748801076923795379_);}
	.st63{fill:#A0A0A0;}
	.st64{fill-rule:evenodd;clip-rule:evenodd;fill:#D2B356;}
	.st65{fill:#9E9E9E;}
	.st66{clip-path:url(#SVGID_00000034771350001605682380000011999928738021605550_);}
	.st67{clip-path:url(#SVGID_00000132054155078883723950000000970221954168804254_);}
	.st68{clip-path:url(#SVGID_00000125587965603855748510000003770266000594971070_);}
	.st69{fill:#212121;}
</style>
<g id="Capa_2">
</g>
<g id="Capa_7" class="st1">
</g>
<g id="Capa_1">
</g>
<g id="lineas-logos">
</g>
<g id="marco-logos" class="st1">
</g>
<g id="logos">
	<rect x="0.04" y="-0.18" class="st59" width="126.08" height="75.06"/>
	<g>
		<path class="st57" d="M105.35,33.59h0.66v7.22h-0.66V33.59z M106.88,30.73h1.03L106,32.8h-0.43L106.88,30.73z"/>
		<path class="st57" d="M107.8,39.15c0-1.38,1.17-2.41,4.97-3.04v-0.44c0-1.1-0.58-1.65-1.57-1.65c-1.2,0-2,0.47-2.81,1.2
			l-0.39-0.41c0.89-0.83,1.82-1.36,3.21-1.36c1.5,0,2.22,0.85,2.22,2.19v3.4c0,0.88,0.06,1.42,0.21,1.79h-0.7
			c-0.1-0.3-0.17-0.66-0.17-1.07c-0.88,0.76-1.84,1.2-2.93,1.2C108.51,40.94,107.8,40.25,107.8,39.15z M112.77,39.09V36.6
			c-3.52,0.62-4.31,1.49-4.31,2.5c0,0.81,0.54,1.25,1.43,1.25C110.96,40.36,111.94,39.89,112.77,39.09z"/>
		<g>
			<g>
				<path class="st57" d="M27.87,37.18c0-2.53,1.25-3.81,3.12-3.81c0.78,0,1.55,0.32,2.09,0.92v-3.66h1.69v8.39
					c0,0.88,0.06,1.42,0.22,1.79h-1.75c-0.1-0.21-0.17-0.62-0.17-0.99c-0.54,0.62-1.24,1.1-2.33,1.1
					C29.09,40.92,27.87,39.71,27.87,37.18z M33.09,38.61v-2.93c-0.45-0.59-1.11-0.91-1.72-0.91c-1.28,0-1.8,0.83-1.8,2.45
					c0,1.54,0.66,2.31,1.75,2.31C32.01,39.53,32.69,39.09,33.09,38.61z"/>
				<path class="st57" d="M35.89,37.17c0-2.78,1.97-3.8,3.48-3.8c1.64,0,3.21,0.98,3.21,3.95v0.4h-4.99c0.07,1.32,0.88,1.9,1.95,1.9
					c0.95,0,1.5-0.32,2.05-0.85l0.89,0.88c-0.76,0.84-1.76,1.32-3.07,1.32C37.59,40.96,35.89,39.85,35.89,37.17z M41.03,36.45
					c-0.1-1.11-0.65-1.71-1.66-1.71c-0.83,0-1.58,0.47-1.75,1.71H41.03z"/>
				<path class="st57" d="M43.7,33.51h1.69v1.2h0.03c0.45-0.73,1.24-1.33,2.63-1.33h0.11l-0.06,1.55c-0.08-0.01-0.36-0.03-0.45-0.03
					c-1.09,0-1.78,0.51-2.26,1.29v4.62H43.7V33.51z"/>
				<path class="st57" d="M48.43,37.17c0-2.78,1.97-3.8,3.48-3.8c1.64,0,3.21,0.98,3.21,3.95v0.4h-4.99c0.07,1.32,0.88,1.9,1.95,1.9
					c0.95,0,1.5-0.32,2.05-0.85l0.89,0.88c-0.76,0.84-1.76,1.32-3.07,1.32C50.12,40.96,48.43,39.85,48.43,37.17z M53.56,36.45
					c-0.1-1.11-0.65-1.71-1.66-1.71c-0.83,0-1.58,0.47-1.75,1.71H53.56z"/>
				<path class="st57" d="M56,37.17c0-2.79,1.89-3.8,3.51-3.8c1.82,0,2.59,1,3.03,2.13l-1.43,0.51c-0.29-0.83-0.81-1.22-1.62-1.22
					c-0.96,0-1.78,0.63-1.78,2.38c0,1.55,0.63,2.41,1.75,2.41c0.77,0,1.31-0.23,1.71-1.27l1.4,0.51c-0.52,1.17-1.39,2.15-3.15,2.15
					C57.72,40.96,56,39.83,56,37.17z"/>
				<path class="st57" d="M63.55,30.63h1.71v3.87c0.47-0.5,1.35-1.13,2.67-1.13c1.28,0,2.11,0.76,2.11,2.2v5.24h-1.71V36
					c0-0.81-0.34-1.18-1.09-1.18c-0.74,0-1.36,0.39-1.98,0.95v5.05h-1.71V30.63z"/>
				<path class="st57" d="M71.06,37.17c0-2.7,1.78-3.8,3.56-3.8c1.78,0,3.56,1.1,3.56,3.8c0,2.67-1.79,3.8-3.56,3.8
					C72.85,40.96,71.06,39.83,71.06,37.17z M76.48,37.17c0-1.36-0.58-2.35-1.86-2.35c-1.22,0-1.86,0.88-1.86,2.35
					c0,1.39,0.56,2.38,1.86,2.38C75.85,39.55,76.48,38.67,76.48,37.17z"/>
				<path class="st57" d="M78.14,33.59h0.66v1.2c0.8-0.76,1.73-1.35,2.79-1.35c1.5,0,2.19,0.83,2.19,2.13v5.24h-0.66v-5.16
					c0-1.1-0.48-1.64-1.58-1.64c-1,0-1.84,0.52-2.74,1.38v5.42h-0.66V33.59z"/>
				<path class="st57" d="M85.25,37.21c0-2.33,1.39-3.77,3.18-3.77c1.78,0,3.18,1.44,3.18,3.77c0,2.3-1.4,3.76-3.18,3.76
					S85.25,39.5,85.25,37.21z M90.94,37.19c0-1.68-0.88-3.18-2.52-3.18c-1.55,0-2.52,1.38-2.52,3.18c0,1.69,0.87,3.19,2.52,3.19
					C89.98,40.39,90.94,39.02,90.94,37.19z"/>
				<path class="st57" d="M93.13,33.59h0.66v1.2c0.8-0.76,1.65-1.35,2.71-1.35c1.22,0,1.8,0.56,2.01,1.36
					c0.83-0.76,1.75-1.36,2.79-1.36c1.49,0,2.09,0.83,2.09,2.13v5.24h-0.66v-5.16c0-1.1-0.4-1.64-1.5-1.64
					c-0.95,0-1.75,0.52-2.64,1.38v5.42h-0.66v-5.16c0-1.1-0.39-1.64-1.5-1.64c-0.94,0-1.75,0.52-2.64,1.38v5.42h-0.66V33.59z"/>
				<g>
					<path class="st57" d="M29.25,44.89h0.38l1.29,3.13h-0.36l-0.39-0.96h-1.47l-0.39,0.96h-0.34L29.25,44.89z M30.05,46.79
						l-0.62-1.55h-0.01l-0.62,1.55H30.05z"/>
					<path class="st57" d="M32.49,44.9h1.26c0.82,0,1.23,0.29,1.23,0.78c0,0.42-0.31,0.65-0.69,0.72v0.01
						c0.45,0.07,0.81,0.31,0.81,0.76c0,0.49-0.4,0.85-1.24,0.85h-1.37V44.9z M33.72,46.28c0.58,0,0.92-0.18,0.92-0.56
						c0-0.38-0.28-0.55-0.91-0.55h-0.9v1.11H33.72z M33.86,47.75c0.62,0,0.9-0.21,0.9-0.59c0-0.42-0.39-0.61-1.01-0.61h-0.91v1.2
						H33.86z"/>
					<path class="st57" d="M36.59,46.45c0-0.98,0.64-1.62,1.53-1.62c0.89,0,1.53,0.64,1.53,1.62c0,0.98-0.64,1.62-1.53,1.62
						C37.23,48.07,36.59,47.43,36.59,46.45z M39.31,46.45c0-0.85-0.5-1.34-1.18-1.34c-0.69,0-1.18,0.5-1.18,1.34
						c0,0.85,0.5,1.35,1.18,1.35C38.81,47.8,39.31,47.3,39.31,46.45z"/>
					<path class="st57" d="M41.17,46.44c0-0.98,0.64-1.6,1.52-1.6c0.69,0,1.14,0.33,1.32,0.95l-0.33,0.07
						c-0.17-0.51-0.45-0.75-0.99-0.75c-0.63,0-1.16,0.44-1.16,1.32c0,0.87,0.48,1.37,1.17,1.37c0.61,0,1.01-0.37,1.01-1h-0.88v-0.26
						h1.22v1.46h-0.31v-0.48h-0.01c-0.16,0.27-0.48,0.53-1.05,0.53C41.71,48.07,41.17,47.38,41.17,46.44z"/>
					<path class="st57" d="M46.79,44.89h0.38l1.29,3.13h-0.36l-0.39-0.96h-1.47l-0.39,0.96H45.5L46.79,44.89z M47.59,46.79
						l-0.62-1.55h-0.01l-0.62,1.55H47.59z"/>
					<path class="st57" d="M50.03,44.9h0.92c1.18,0,1.81,0.53,1.81,1.55c0,1.03-0.64,1.56-1.81,1.56h-0.92V44.9z M51,47.74
						c0.9,0,1.41-0.39,1.41-1.29c0-0.88-0.51-1.27-1.42-1.27h-0.61v2.57H51z"/>
					<path class="st57" d="M54.27,46.45c0-0.98,0.64-1.62,1.53-1.62s1.53,0.64,1.53,1.62c0,0.98-0.64,1.62-1.53,1.62
						S54.27,47.43,54.27,46.45z M56.99,46.45c0-0.85-0.5-1.34-1.18-1.34c-0.69,0-1.18,0.5-1.18,1.34c0,0.85,0.5,1.35,1.18,1.35
						C56.49,47.8,56.99,47.3,56.99,46.45z"/>
					<path class="st57" d="M58.8,47.25l0.31-0.1c0.16,0.43,0.53,0.66,1.04,0.66c0.55,0,0.9-0.21,0.9-0.56c0-0.32-0.18-0.49-0.95-0.7
						c-0.78-0.21-1.18-0.39-1.18-0.9c0-0.45,0.47-0.8,1.13-0.8c0.68,0,1.08,0.3,1.25,0.71L61,45.67c-0.18-0.4-0.5-0.56-0.96-0.56
						c-0.49,0-0.78,0.22-0.78,0.51c0,0.35,0.24,0.47,1.01,0.68c0.76,0.21,1.13,0.42,1.13,0.93c0,0.52-0.54,0.85-1.26,0.85
						C59.45,48.07,58.97,47.75,58.8,47.25z"/>
					<path class="st57" d="M65.15,44.9h1.22c0.81,0,1.26,0.29,1.26,0.84c0,0.5-0.34,0.76-0.87,0.84l0.92,1.43h-0.39l-0.89-1.4h-0.9
						v1.4h-0.34V44.9z M66.35,46.35c0.6,0,0.94-0.15,0.94-0.6c0-0.43-0.33-0.58-0.94-0.58H65.5v1.18H66.35z"/>
					<path class="st57" d="M69.38,44.9h2.17v0.28h-1.82v1.06h1.36v0.27h-1.36v1.24h1.93v0.27h-2.28V44.9z"/>
					<path class="st57" d="M72.93,46.44c0-0.94,0.6-1.6,1.51-1.6c0.74,0,1.15,0.37,1.32,0.95l-0.33,0.07
						c-0.16-0.49-0.43-0.75-0.99-0.75c-0.7,0-1.16,0.52-1.16,1.32c0,0.86,0.46,1.37,1.17,1.37c0.54,0,0.88-0.27,1.04-0.79l0.33,0.06
						c-0.18,0.61-0.65,1-1.38,1C73.52,48.07,72.93,47.43,72.93,46.44z"/>
					<path class="st57" d="M78.35,44.89h0.38l1.29,3.13h-0.36l-0.39-0.96h-1.47l-0.39,0.96h-0.34L78.35,44.89z M79.15,46.79
						l-0.62-1.55h-0.01l-0.62,1.55H79.15z"/>
					<path class="st57" d="M81.59,44.9h0.35v2.84h1.78v0.27h-2.13V44.9z"/>
					<path class="st57" d="M84.94,46.44c0-0.94,0.6-1.6,1.51-1.6c0.74,0,1.15,0.37,1.32,0.95l-0.33,0.07
						c-0.16-0.49-0.43-0.75-0.99-0.75c-0.7,0-1.16,0.52-1.16,1.32c0,0.86,0.46,1.37,1.17,1.37c0.54,0,0.88-0.27,1.04-0.79l0.33,0.06
						c-0.18,0.61-0.65,1-1.38,1C85.54,48.07,84.94,47.43,84.94,46.44z"/>
					<path class="st57" d="M89.41,46.96V44.9h0.35v2.01c0,0.51,0.3,0.89,0.98,0.89c0.67,0,0.97-0.36,0.97-0.88V44.9h0.35v2.05
						c0,0.62-0.44,1.11-1.33,1.11C89.83,48.07,89.41,47.58,89.41,46.96z"/>
					<path class="st57" d="M93.89,44.9h0.35v2.84h1.78v0.27h-2.13V44.9z"/>
					<path class="st57" d="M98.6,44.89h0.38l1.29,3.13H99.9l-0.39-0.96h-1.47l-0.39,0.96h-0.34L98.6,44.89z M99.4,46.79l-0.62-1.55
						h-0.01l-0.62,1.55H99.4z"/>
					<path class="st57" d="M101.84,44.9h0.37l2.01,2.57h0.01V44.9h0.33v3.11h-0.31l-2.07-2.65h-0.01v2.65h-0.33V44.9z"/>
					<path class="st57" d="M106.43,44.9h0.92c1.18,0,1.81,0.53,1.81,1.55c0,1.03-0.64,1.56-1.81,1.56h-0.92V44.9z M107.4,47.74
						c0.9,0,1.41-0.39,1.41-1.29c0-0.88-0.51-1.27-1.42-1.27h-0.61v2.57H107.4z"/>
					<path class="st57" d="M110.67,46.45c0-0.98,0.64-1.62,1.53-1.62c0.89,0,1.53,0.64,1.53,1.62c0,0.98-0.64,1.62-1.53,1.62
						C111.32,48.07,110.67,47.43,110.67,46.45z M113.39,46.45c0-0.85-0.5-1.34-1.18-1.34c-0.69,0-1.18,0.5-1.18,1.34
						c0,0.85,0.5,1.35,1.18,1.35C112.89,47.8,113.39,47.3,113.39,46.45z"/>
				</g>
			</g>
			<g>
				<path class="st57" d="M115.09,32.19c0-1.27,0.56-2.49,1.58-3.43l0.05-0.05l-0.33-0.37l-0.05,0.04c-1.35,1.13-1.98,2.34-1.98,3.8
					c0,1.46,0.63,2.67,1.98,3.8l0.05,0.04l0.34-0.36l-0.05-0.05C115.64,34.68,115.09,33.49,115.09,32.19z"/>
				<polygon class="st57" points="119.22,29.69 118.6,29.69 118.6,31.45 116.86,31.45 116.86,32.06 118.6,32.06 118.6,33.81 
					119.22,33.81 119.22,32.06 120.96,32.06 120.96,31.45 119.22,31.45 				"/>
				<path class="st57" d="M121.48,28.39l-0.05-0.04l-0.33,0.37l0.05,0.05c1.02,0.94,1.59,2.16,1.59,3.43c0,1.29-0.55,2.48-1.59,3.43
					l-0.05,0.05l0.34,0.36l0.05-0.04c1.35-1.14,1.99-2.35,1.99-3.8C123.47,30.74,122.83,29.53,121.48,28.39z"/>
			</g>
		</g>
	</g>
	<g>
		<circle class="st57" cx="14.35" cy="39.56" r="10.5"/>
		<g>
			<path class="st16" d="M9.15,36.16h2.31c2.3,0,4.03,0.98,4.03,3.73c0,2.83-1.76,3.81-4.03,3.81H9.15V36.16z M11.57,42.35
				c1.64,0,2.26-0.73,2.26-2.44c0-1.61-0.63-2.36-2.28-2.36H10.8v4.8H11.57z"/>
			<g>
				<path class="st16" d="M16.03,37.31c0-0.62,0.27-1.22,0.77-1.68l0.02-0.02l-0.16-0.18l-0.02,0.02c-0.66,0.56-0.97,1.15-0.97,1.86
					c0,0.72,0.31,1.31,0.97,1.86l0.02,0.02l0.17-0.18L16.81,39C16.3,38.53,16.03,37.95,16.03,37.31z"/>
				<polygon class="st16" points="18.05,36.09 17.75,36.09 17.75,36.95 16.9,36.95 16.9,37.25 17.75,37.25 17.75,38.11 18.05,38.11 
					18.05,37.25 18.9,37.25 18.9,36.95 18.05,36.95 				"/>
				<path class="st16" d="M19.16,35.45l-0.02-0.02l-0.16,0.18l0.02,0.02c0.5,0.46,0.78,1.06,0.78,1.68c0,0.63-0.27,1.22-0.78,1.68
					l-0.03,0.02l0.17,0.18l0.02-0.02c0.66-0.56,0.97-1.15,0.97-1.86S19.82,36.01,19.16,35.45z"/>
			</g>
		</g>
	</g>
</g>
<g id="Capa_6">
</g>
</svg>
