<?xml version="1.0" encoding="utf-8"?>
<!-- Generator: Adobe Illustrator 27.9.0, SVG Export Plug-In . SVG Version: 6.00 Build 0)  -->
<svg version="1.1" xmlns="http://www.w3.org/2000/svg" xmlns:xlink="http://www.w3.org/1999/xlink" x="0px" y="0px"
	 viewBox="0 0 19.18 15.42" style="enable-background:new 0 0 19.18 15.42;" xml:space="preserve">
<style type="text/css">
	.st0{fill:#F0F0F0;}
	.st1{display:none;}
	.st2{display:inline;fill:#1C1824;}
	.st3{fill:none;stroke:#D4D4D4;stroke-width:2.3506;stroke-miterlimit:10;}
	.st4{fill:none;stroke:#E3E3E3;stroke-width:0.5;stroke-miterlimit:10;}
	.st5{fill:none;stroke:#FFFFFE;stroke-width:0.8855;stroke-miterlimit:10;}
	.st6{fill:#FFFFFE;}
	.st7{fill:#16C0FE;}
	.st8{fill:#0000D7;}
	.st9{fill:#FFDE00;}
	.st10{fill:#6B6B6B;}
	.st11{fill:#696969;}
	.st12{fill:none;stroke:#474747;stroke-width:0.348;stroke-miterlimit:10;}
	.st13{fill:none;stroke:#474747;stroke-width:0.4442;stroke-miterlimit:10;}
	.st14{fill:none;stroke:#D2B356;stroke-width:5.9189;stroke-miterlimit:10;}
	.st15{fill:#D2B356;}
	.st16{fill:#FFFFFF;}
	.st17{fill:none;stroke:#000000;stroke-width:0.4956;stroke-miterlimit:10;}
	.st18{fill:none;stroke:#000000;stroke-width:1.6303;stroke-miterlimit:10;}
	.st19{fill:none;stroke:#A8A8A8;stroke-width:0.5;stroke-miterlimit:10;}
	.st20{display:inline;fill:none;stroke:#DBDBDB;stroke-width:0.4653;stroke-miterlimit:10;}
	.st21{fill:#303334;}
	.st22{clip-path:url(#SVGID_00000068649612787350474350000010492557452530657454_);fill:#B6B6B6;}
	.st23{fill-rule:evenodd;clip-rule:evenodd;fill:#303334;}
	.st24{fill:#262626;}
	.st25{fill:#424242;}
	.st26{fill:#595959;}
	.st27{fill:#A3A3A3;}
	.st28{fill:#606060;}
	.st29{fill:#848484;}
	.st30{fill:#040505;}
	.st31{fill-rule:evenodd;clip-rule:evenodd;fill:#2D2D2D;}
	.st32{fill-rule:evenodd;clip-rule:evenodd;fill:#989898;}
	.st33{fill:#4B4B4B;}
	.st34{fill:#373737;}
	.st35{fill:#1E1E1E;}
	.st36{clip-path:url(#SVGID_00000075869882089096401970000013962044521485279888_);}
	.st37{fill:#B29020;}
	.st38{clip-path:url(#SVGID_00000063600704319693402910000007202857790315518654_);}
	.st39{fill-rule:evenodd;clip-rule:evenodd;fill:#333333;}
	.st40{fill-rule:evenodd;clip-rule:evenodd;fill:#FFFFFF;}
	.st41{fill:#333333;}
	.st42{fill:#E3E3E3;}
	.st43{fill:#C7C7C7;}
	.st44{fill:#828282;}
	.st45{fill:#5D5D5D;}
	.st46{fill:#B7B7B7;}
	.st47{fill:#C1C1C1;}
	.st48{fill:#D9D9D9;}
	.st49{fill:#B2B2B2;}
	.st50{fill:#1D1D1D;}
	.st51{fill-rule:evenodd;clip-rule:evenodd;fill:#A8A8A8;}
	.st52{fill:#5C5C5C;}
	.st53{fill:#202020;}
	.st54{fill:#221F1F;}
	.st55{fill:#231F20;}
	.st56{fill:none;stroke:#221F1F;stroke-width:0.1371;}
	.st57{fill:#1D1D1B;}
	.st58{fill:#7A7A7A;}
	.st59{fill:none;stroke:#DBDBDB;stroke-width:0.4653;stroke-miterlimit:10;}
	.st60{clip-path:url(#SVGID_00000111172566581191725270000016484472261738360498_);fill:#B6B6B6;}
	.st61{clip-path:url(#SVGID_00000008830856239768393430000011148575471227210665_);}
	.st62{clip-path:url(#SVGID_00000084506449347059749080000008705082172563524269_);}
	.st63{fill:#A0A0A0;}
	.st64{fill-rule:evenodd;clip-rule:evenodd;fill:#D2B356;}
	.st65{fill:#9E9E9E;}
	.st66{clip-path:url(#SVGID_00000177484777680836219750000000983420488190387087_);}
	.st67{clip-path:url(#SVGID_00000010303895684861036290000009029023769796650637_);}
	.st68{clip-path:url(#SVGID_00000012458315544348943440000002575535791744840123_);}
	.st69{fill:#212121;}
</style>
<g id="Capa_2">
</g>
<g id="Capa_7" class="st1">
	<rect x="-455.17" y="-26.98" class="st2" width="884.26" height="136.12"/>
</g>
<g id="Capa_1">
</g>
<g id="lineas-logos">
</g>
<g id="marco-logos" class="st1">
</g>
<g id="logos">
	<g>
		<path class="st65" d="M7.38,7.89h4.14v0.33c0,0.75-0.09,1.42-0.27,2c-0.17,0.54-0.47,1.04-0.88,1.51
			c-0.93,1.05-2.12,1.57-3.55,1.57c-1.4,0-2.6-0.51-3.61-1.52c-1-1.02-1.5-2.24-1.5-3.66c0-1.45,0.51-2.69,1.53-3.7
			c1.02-1.02,2.26-1.53,3.72-1.53c0.78,0,1.52,0.16,2.2,0.48c0.65,0.32,1.29,0.84,1.92,1.56L10,5.96c-0.82-1.1-1.82-1.64-3.01-1.64
			c-1.06,0-1.95,0.37-2.67,1.1c-0.72,0.72-1.08,1.62-1.08,2.7c0,1.12,0.4,2.04,1.2,2.76c0.75,0.67,1.56,1.01,2.44,1.01
			c0.75,0,1.41-0.25,2.01-0.75c0.59-0.51,0.92-1.11,0.99-1.82h-2.5V7.89z"/>
	</g>
	<g>
		<path class="st65" d="M13.33,7.85h1.53V6.32h1.42v1.53h1.52v1.42h-1.52v1.53h-1.42V9.27h-1.53V7.85z"/>
	</g>
</g>
<g id="Capa_6">
</g>
</svg>
