<?xml version="1.0" encoding="utf-8"?>
<!-- Generator: Adobe Illustrator 27.9.0, SVG Export Plug-In . SVG Version: 6.00 Build 0)  -->
<svg version="1.1" xmlns="http://www.w3.org/2000/svg" xmlns:xlink="http://www.w3.org/1999/xlink" x="0px" y="0px"
	 viewBox="0 0 126.08 75.06" style="enable-background:new 0 0 126.08 75.06;" xml:space="preserve">
<style type="text/css">
	.st0{fill:#F0F0F0;}
	.st1{display:none;}
	.st2{display:inline;fill:#1C1824;}
	.st3{fill:none;stroke:#D4D4D4;stroke-width:2.3506;stroke-miterlimit:10;}
	.st4{fill:none;stroke:#E3E3E3;stroke-width:0.5;stroke-miterlimit:10;}
	.st5{fill:none;stroke:#FFFFFE;stroke-width:0.8855;stroke-miterlimit:10;}
	.st6{fill:#FFFFFE;}
	.st7{fill:#16C0FE;}
	.st8{fill:#0000D7;}
	.st9{fill:#FFDE00;}
	.st10{fill:#6B6B6B;}
	.st11{fill:#696969;}
	.st12{fill:none;stroke:#474747;stroke-width:0.348;stroke-miterlimit:10;}
	.st13{fill:none;stroke:#474747;stroke-width:0.4442;stroke-miterlimit:10;}
	.st14{fill:none;stroke:#D2B356;stroke-width:5.9189;stroke-miterlimit:10;}
	.st15{fill:#D2B356;}
	.st16{fill:#FFFFFF;}
	.st17{fill:none;stroke:#000000;stroke-width:0.4956;stroke-miterlimit:10;}
	.st18{fill:none;stroke:#000000;stroke-width:1.6303;stroke-miterlimit:10;}
	.st19{fill:none;stroke:#A8A8A8;stroke-width:0.5;stroke-miterlimit:10;}
	.st20{display:inline;fill:none;stroke:#DBDBDB;stroke-width:0.4653;stroke-miterlimit:10;}
	.st21{fill:#303334;}
	.st22{clip-path:url(#SVGID_00000181071173687148967000000017925936275002809757_);fill:#B6B6B6;}
	.st23{fill-rule:evenodd;clip-rule:evenodd;fill:#303334;}
	.st24{fill:#262626;}
	.st25{fill:#424242;}
	.st26{fill:#595959;}
	.st27{fill:#A3A3A3;}
	.st28{fill:#606060;}
	.st29{fill:#848484;}
	.st30{fill:#040505;}
	.st31{fill-rule:evenodd;clip-rule:evenodd;fill:#2D2D2D;}
	.st32{fill-rule:evenodd;clip-rule:evenodd;fill:#989898;}
	.st33{fill:#4B4B4B;}
	.st34{fill:#373737;}
	.st35{fill:#1E1E1E;}
	.st36{clip-path:url(#SVGID_00000103244297860525716010000016208644743957281198_);}
	.st37{fill:#B29020;}
	.st38{clip-path:url(#SVGID_00000042000763341418475460000018262159244485311660_);}
	.st39{fill-rule:evenodd;clip-rule:evenodd;fill:#333333;}
	.st40{fill-rule:evenodd;clip-rule:evenodd;fill:#FFFFFF;}
	.st41{fill:#333333;}
	.st42{fill:#E3E3E3;}
	.st43{fill:#C7C7C7;}
	.st44{fill:#828282;}
	.st45{fill:#5D5D5D;}
	.st46{fill:#B7B7B7;}
	.st47{fill:#C1C1C1;}
	.st48{fill:#D9D9D9;}
	.st49{fill:#B2B2B2;}
	.st50{fill:#1D1D1D;}
	.st51{fill-rule:evenodd;clip-rule:evenodd;fill:#A8A8A8;}
	.st52{fill:#5C5C5C;}
	.st53{fill:#202020;}
	.st54{fill:#221F1F;}
	.st55{fill:#231F20;}
	.st56{fill:none;stroke:#221F1F;stroke-width:0.1371;}
	.st57{fill:#1D1D1B;}
	.st58{fill:#7A7A7A;}
	.st59{fill:none;stroke:#DBDBDB;stroke-width:0.4653;stroke-miterlimit:10;}
	.st60{clip-path:url(#SVGID_00000070103527718823546470000001128168924992799140_);fill:#B6B6B6;}
	.st61{clip-path:url(#SVGID_00000011020354313451768570000004712824034066492346_);}
	.st62{clip-path:url(#SVGID_00000129921791800371707000000007016128750030212542_);}
	.st63{fill:#A0A0A0;}
	.st64{fill-rule:evenodd;clip-rule:evenodd;fill:#D2B356;}
	.st65{fill:#9E9E9E;}
	.st66{clip-path:url(#SVGID_00000022557124882252378100000007051113896429250721_);}
	.st67{clip-path:url(#SVGID_00000091017005526041929310000016011733354830089864_);}
	.st68{clip-path:url(#SVGID_00000036220016816099677670000010718581961971002788_);}
	.st69{fill:#212121;}
</style>
<g id="Capa_2">
</g>
<g id="Capa_7" class="st1">
</g>
<g id="Capa_1">
</g>
<g id="lineas-logos">
</g>
<g id="marco-logos" class="st1">
</g>
<g id="logos">
	<rect x="-0.07" y="-0.13" class="st59" width="126.08" height="75.06"/>
	<rect x="31.12" y="4.19" class="st16" width="65.41" height="65.41"/>
	<g>
		<rect x="34.14" y="7.17" class="st21" width="59.53" height="59.54"/>
		<path class="st51" d="M75.24,19.38c1.67,1.44,3.23,3.05,4.87,4.52h0.07c-1.66-2.09-3.16-4.31-4.93-6.24V19.38z M75.24,35.11v-1.97
			c2.22-1.13,4.21-2.63,6.19-4.14l-5.28-3.79c-0.3-0.15-0.59-0.28-0.91-0.41v-2.66c2.81,1.55,5.45,3.48,7.85,5.64
			c0.22-0.15,0.41-0.3,0.63-0.46c-0.18,0.18-0.35,0.36-0.53,0.55c0.15,0.15,0.31,0.28,0.46,0.41l5.53,6.26v0.07l-7.37-5.31
			C79.77,31.41,77.72,33.5,75.24,35.11 M70.72,16.39c0.15,0.07,0.29,0.13,0.44,0.2c1.49,0.74,2.82,1.71,4.07,2.78v-1.72
			c-0.93-1.02-1.92-1.95-3.05-2.76c-0.48-0.33-0.98-0.65-1.47-0.96V16.39z M75.24,22.13v2.66c-1.47-0.63-2.98-1.16-4.52-1.59v-3.16
			C72.27,20.63,73.78,21.33,75.24,22.13 M75.24,33.13c-0.46,0.23-0.93,0.44-1.41,0.65c-0.89,0.35-1.8,0.65-2.73,0.88
			c1.09-2.04,1.57-4.35,1.22-6.66c-0.22-1.57-0.78-3.04-1.61-4.33v4.6c0.53,1.74,0.55,3.66,0,5.47v3.78
			c1.36-0.6,2.67-1.29,3.93-2.02c0.2-0.11,0.4-0.25,0.6-0.38V33.13z M61.06,14.49c3.25,0.2,6.62,0.58,9.65,1.9v-2.47
			c-2.88-1.76-6.14-3.01-9.46-3.2c-0.07,0-0.15,0-0.23-0.02v3.78H61.06z M70.72,20.04v3.16c-0.13-0.05-0.26-0.08-0.4-0.12
			c0.13,0.18,0.27,0.38,0.4,0.58v4.6c-0.51-1.67-1.49-3.21-2.9-4.37c-1.87-1.53-4.36-2.22-6.79-2.1v-3.64
			c3.08,0.06,6.15,0.63,9.04,1.66C70.29,19.89,70.5,19.95,70.72,20.04 M70.72,33.73v3.78c-2.55,1.13-5.25,1.94-8.01,2.2
			c-0.56,0.07-1.11,0.08-1.67,0.1V36.1c0.45-0.05,0.9-0.08,1.33-0.13c2.65-0.23,5.31-0.51,7.88-1.09c0.08-0.16,0.18-0.31,0.25-0.47
			C70.57,34.18,70.63,33.95,70.72,33.73 M61.03,32.55h0.04c2.6,0,4.64-2.4,4.77-4.9v-0.74c-0.06-0.7-0.2-1.38-0.53-1.99
			c-0.96-1.64-2.47-2.12-4.24-2.12c1.64,0.48,2.93,1.44,3,3.28c0,1.77-1.42,2.85-3,2.92h-0.04V32.55z M61.03,22.82l0.04-0.02v-0.07
			h-0.04V22.82z M61.03,10.71c-3.79-0.2-7.6,1.08-10.93,2.88c-3.56,1.92-6.01,5.18-8.74,8.05c3.08-2.32,5.88-4.97,9.49-6.28
			c3.26-1.16,6.74-1.16,10.18-0.88V10.71z M61.03,18.15v3.64c-3.39,0.15-6.75,1.84-8.34,4.9c-1.29,2.45-1.43,5.38-0.33,7.9
			c0.25,0.61,0.63,1.17,1.04,1.71c2.5,0.21,5.08,0.05,7.63-0.2v3.71c-3.59,0.05-7.22-0.83-10.59-2.07
			c-3.68-1.37-6.61-4.02-9.75-6.34c3.34,1.7,6.56,3.81,10.3,4.57c0.58,0.12,1.16,0.2,1.74,0.26c-0.36-0.4-0.71-0.81-0.98-1.29
			c-2.72-4.44-1.54-9.99,1.87-13.45c-3.54,0.43-6.96,1.5-10.07,3.64l-4.92,4.41L43,24.37C48,20.02,54.54,18,61.03,18.15
			 M61.03,22.73c-1.41,0.08-2.62,0.28-3.62,1.44c-0.76,0.88-1.09,1.84-1.16,2.87v0.54c0.13,2.1,1.49,4.14,3.67,4.75
			c0.4,0.13,0.78,0.2,1.11,0.22V29c-0.4,0-0.78-0.07-1.17-0.27c-1.29-0.47-1.9-1.97-1.64-3.26c0.33-1.55,1.47-2.24,2.81-2.65V22.73z
			"/>
		<path class="st40" d="M49.37,46.2h-1.5l0,13.23c0,0.27,0.07,0.48,0.22,0.68c0.17,0.2,0.33,0.3,0.53,0.3h2.58
			c0.2,0,0.37-0.1,0.51-0.3c0.16-0.2,0.23-0.43,0.23-0.68v-1.92h-1.51v0.94h-1.06v-4.59h2.57v-1.95h-2.57V46.2z"/>
		<rect x="44.65" y="46.2" class="st40" width="1.51" height="2.22"/>
		<rect x="44.65" y="49.43" class="st40" width="1.51" height="10.98"/>
		<path class="st40" d="M82.42,49.43h-2.56c-0.2,0-0.38,0.1-0.53,0.28c-0.15,0.2-0.23,0.43-0.23,0.7v9.02
			c0,0.27,0.08,0.48,0.23,0.68c0.15,0.2,0.33,0.3,0.53,0.3h2.56c0.2,0,0.38-0.1,0.53-0.3c0.15-0.2,0.23-0.41,0.23-0.68v-2.47h-1.52
			v1.49h-1.04v-7.09h1.04v1.49h1.52v-2.47c0-0.25-0.08-0.48-0.23-0.68C82.8,49.53,82.62,49.43,82.42,49.43"/>
		<rect x="75.88" y="46.2" class="st40" width="1.52" height="2.22"/>
		<path class="st40" d="M71.69,46.2h-1.51v13.23c0,0.27,0.07,0.48,0.23,0.68c0.15,0.2,0.31,0.3,0.51,0.3l2.58,0
			c0.2,0,0.36-0.1,0.51-0.3c0.17-0.2,0.23-0.43,0.23-0.68v-2h-1.51v1.03h-1.06v-4.59h2.57v-1.95h-2.57V46.2z"/>
		<rect x="75.88" y="49.43" class="st40" width="1.52" height="10.98"/>
		<path class="st40" d="M87.37,58.45h-0.53v1.95h1.28c0.2,0,0.38-0.1,0.53-0.3c0.15-0.2,0.23-0.41,0.23-0.68v-9.02
			c0-0.26-0.08-0.5-0.23-0.7c-0.15-0.18-0.33-0.28-0.53-0.28h-1.28v1.94h0.53V58.45z M86.84,58.45h-0.53v-7.09h0.53v-1.94h-1.29
			c-0.2,0-0.38,0.1-0.53,0.28c-0.15,0.2-0.21,0.43-0.21,0.7v9.02c0,0.27,0.06,0.48,0.21,0.68c0.15,0.2,0.33,0.3,0.53,0.3h1.29V58.45
			z M66.53,60.41v-1.95h0.51v-7.09h-0.51v-1.94h1.28c0.2,0,0.38,0.1,0.53,0.28c0.15,0.2,0.23,0.43,0.23,0.7v9.02
			c0,0.27-0.08,0.48-0.23,0.68c-0.15,0.2-0.33,0.3-0.53,0.3H66.53z M66.53,49.43v1.94H66v7.09h0.53v1.95H66v4.34h-1.52V50.41
			c0-0.26,0.08-0.5,0.23-0.7c0.15-0.18,0.33-0.28,0.53-0.28H66.53z M60.81,60.41v-1.95h0.53V48.14h-0.53V46.2h1.29
			c0.2,0,0.38,0.08,0.53,0.28c0.15,0.2,0.22,0.43,0.22,0.68v12.27c0,0.27-0.07,0.48-0.22,0.68c-0.15,0.2-0.33,0.3-0.53,0.3H60.81z
			 M60.81,46.2v1.94H60.3v10.32h0.51v1.95h-1.26c-0.2,0-0.38-0.1-0.53-0.3c-0.15-0.2-0.23-0.41-0.23-0.68V47.16
			c0-0.25,0.08-0.48,0.23-0.68c0.15-0.2,0.33-0.28,0.53-0.28H60.81z"/>
		<path class="st40" d="M43,55.8c0-0.2-0.03-0.4-0.13-0.56c-0.2-0.25-0.66-0.36-0.66-0.42c0-0.03,0.1-0.08,0.1-0.08
			c0.43,0,0.61-0.46,0.69-0.71v-0.16V46.2h-1.5v6.69h-1.04V46.2h-1.52v14.21h1.52v-4.06h0.28c0.2,0,0.38,0.1,0.53,0.3
			c0.15,0.18,0.23,0.41,0.23,0.68v2.1c0,0.27,0.08,0.48,0.23,0.68c0.15,0.2,0.31,0.3,0.53,0.3h0.76L43,55.8z"/>
	</g>
</g>
<g id="Capa_6">
</g>
</svg>
