<?xml version="1.0" encoding="utf-8"?>
<!-- Generator: Adobe Illustrator 27.9.0, SVG Export Plug-In . SVG Version: 6.00 Build 0)  -->
<svg version="1.1" xmlns="http://www.w3.org/2000/svg" xmlns:xlink="http://www.w3.org/1999/xlink" x="0px" y="0px"
	 viewBox="0 0 126.08 75.06" style="enable-background:new 0 0 126.08 75.06;" xml:space="preserve">
<style type="text/css">
	.st0{fill:#F0F0F0;}
	.st1{display:none;}
	.st2{display:inline;fill:#1C1824;}
	.st3{fill:none;stroke:#D4D4D4;stroke-width:2.3506;stroke-miterlimit:10;}
	.st4{fill:none;stroke:#E3E3E3;stroke-width:0.5;stroke-miterlimit:10;}
	.st5{fill:none;stroke:#FFFFFE;stroke-width:0.8855;stroke-miterlimit:10;}
	.st6{fill:#FFFFFE;}
	.st7{fill:#16C0FE;}
	.st8{fill:#0000D7;}
	.st9{fill:#FFDE00;}
	.st10{fill:#6B6B6B;}
	.st11{fill:#696969;}
	.st12{fill:none;stroke:#474747;stroke-width:0.348;stroke-miterlimit:10;}
	.st13{fill:none;stroke:#474747;stroke-width:0.4442;stroke-miterlimit:10;}
	.st14{fill:none;stroke:#D2B356;stroke-width:5.9189;stroke-miterlimit:10;}
	.st15{fill:#D2B356;}
	.st16{fill:#FFFFFF;}
	.st17{fill:none;stroke:#000000;stroke-width:0.4956;stroke-miterlimit:10;}
	.st18{fill:none;stroke:#000000;stroke-width:1.6303;stroke-miterlimit:10;}
	.st19{fill:none;stroke:#A8A8A8;stroke-width:0.5;stroke-miterlimit:10;}
	.st20{display:inline;fill:none;stroke:#DBDBDB;stroke-width:0.4653;stroke-miterlimit:10;}
	.st21{fill:#303334;}
	.st22{clip-path:url(#SVGID_00000091705351052851281630000008116330820540730529_);fill:#B6B6B6;}
	.st23{fill-rule:evenodd;clip-rule:evenodd;fill:#303334;}
	.st24{fill:#262626;}
	.st25{fill:#424242;}
	.st26{fill:#595959;}
	.st27{fill:#A3A3A3;}
	.st28{fill:#606060;}
	.st29{fill:#848484;}
	.st30{fill:#040505;}
	.st31{fill-rule:evenodd;clip-rule:evenodd;fill:#2D2D2D;}
	.st32{fill-rule:evenodd;clip-rule:evenodd;fill:#989898;}
	.st33{fill:#4B4B4B;}
	.st34{fill:#373737;}
	.st35{fill:#1E1E1E;}
	.st36{clip-path:url(#SVGID_00000039111979373121395650000002140805229271432380_);}
	.st37{fill:#B29020;}
	.st38{clip-path:url(#SVGID_00000003075335481859895690000010805797109915640755_);}
	.st39{fill-rule:evenodd;clip-rule:evenodd;fill:#333333;}
	.st40{fill-rule:evenodd;clip-rule:evenodd;fill:#FFFFFF;}
	.st41{fill:#333333;}
	.st42{fill:#E3E3E3;}
	.st43{fill:#C7C7C7;}
	.st44{fill:#828282;}
	.st45{fill:#5D5D5D;}
	.st46{fill:#B7B7B7;}
	.st47{fill:#C1C1C1;}
	.st48{fill:#D9D9D9;}
	.st49{fill:#B2B2B2;}
	.st50{fill:#1D1D1D;}
	.st51{fill-rule:evenodd;clip-rule:evenodd;fill:#A8A8A8;}
	.st52{fill:#5C5C5C;}
	.st53{fill:#202020;}
	.st54{fill:#221F1F;}
	.st55{fill:#231F20;}
	.st56{fill:none;stroke:#221F1F;stroke-width:0.1371;}
	.st57{fill:#1D1D1B;}
	.st58{fill:#7A7A7A;}
	.st59{fill:none;stroke:#DBDBDB;stroke-width:0.4653;stroke-miterlimit:10;}
	.st60{clip-path:url(#SVGID_00000137822362505469241880000012817780157130125728_);fill:#B6B6B6;}
	.st61{clip-path:url(#SVGID_00000142894004250441456210000009728285321769686968_);}
	.st62{clip-path:url(#SVGID_00000113318251883347847010000010801291416867477686_);}
	.st63{fill:#A0A0A0;}
	.st64{fill-rule:evenodd;clip-rule:evenodd;fill:#D2B356;}
	.st65{fill:#9E9E9E;}
	.st66{clip-path:url(#SVGID_00000180356566683441061310000005445979868479228042_);}
	.st67{clip-path:url(#SVGID_00000179614333386687515100000007134815640000461998_);}
	.st68{clip-path:url(#SVGID_00000173153997554093989590000009304399673482368137_);}
	.st69{fill:#212121;}
</style>
<g id="Capa_2">
</g>
<g id="Capa_7" class="st1">
</g>
<g id="Capa_1">
</g>
<g id="lineas-logos">
</g>
<g id="marco-logos" class="st1">
</g>
<g id="logos">
	<rect x="-0.32" y="-0.25" class="st59" width="126.08" height="75.06"/>
	<g>
		<path class="st23" d="M47.43,53.26h1.32c0.52,0,0.71,0.18,0.71,0.61c0,0.42-0.2,0.6-0.71,0.6h-1.32V53.26L47.43,53.26z
			 M45.38,57.68h2.05v-1.8h2.2c1.45,0,1.98-0.86,1.98-1.97c0-1.29-0.54-2.01-1.99-2.01h-4.23V57.68L45.38,57.68z"/>
		<polygon class="st23" points="52.29,51.9 57.81,51.9 57.81,53.31 54.34,53.31 54.34,54.09 57.56,54.09 57.56,55.5 54.34,55.5 
			54.34,56.27 57.81,56.27 57.81,57.68 52.29,57.68 52.29,51.9 		"/>
		<path class="st23" d="M60.72,53.26h1.32c0.52,0,0.71,0.18,0.71,0.61c0,0.42-0.2,0.6-0.71,0.6h-1.32V53.26L60.72,53.26z
			 M58.67,57.68h2.05v-1.8h2.2c1.46,0,1.98-0.86,1.98-1.97c0-1.29-0.54-2.01-1.99-2.01h-4.23V57.68L58.67,57.68z"/>
		<path class="st23" d="M66.88,55.23c-1-0.17-1.42-0.82-1.42-1.63c0-1.5,1.32-1.9,3-1.9c2.31,0,3.27,0.67,3.34,1.89h-2.39
			c0-0.23-0.12-0.38-0.31-0.46c-0.18-0.09-0.41-0.12-0.64-0.12c-0.61,0-0.82,0.17-0.82,0.41c0,0.16,0.07,0.27,0.27,0.3l2.45,0.4
			c1.03,0.17,1.67,0.7,1.67,1.68c0,1.41-1.03,2.07-3.34,2.07c-1.58,0-3.3-0.24-3.31-1.94h2.47c0.01,0.19,0.07,0.32,0.22,0.41
			c0.15,0.08,0.38,0.12,0.7,0.12c0.64,0,0.82-0.19,0.82-0.47c0-0.17-0.09-0.34-0.37-0.39L66.88,55.23L66.88,55.23z"/>
		<polygon class="st23" points="72.71,51.9 74.76,51.9 74.76,57.68 72.71,57.68 72.71,51.9 		"/>
		<path class="st23" d="M82.36,55.43c-0.13,0.76-0.36,1.38-0.87,1.8c-0.5,0.42-1.29,0.66-2.54,0.66c-1.24,0-3.55-0.1-3.55-3.09
			c0-2.99,2.31-3.09,3.55-3.09c1.24,0,3.14,0.18,3.41,2.47h-2.31c-0.06-0.41-0.31-1.01-1.1-1.01c-0.84,0-1.37,0.46-1.37,1.63
			c0,1.17,0.52,1.63,1.27,1.63c0.65,0,1.03-0.3,1.2-0.99H82.36L82.36,55.43z"/>
		<path class="st23" d="M85.05,54.79c0-1.17,0.53-1.63,1.37-1.63c0.84,0,1.37,0.46,1.37,1.63c0,1.17-0.53,1.63-1.37,1.63
			C85.58,56.43,85.05,55.97,85.05,54.79L85.05,54.79z M82.86,54.79c0,2.99,2.31,3.09,3.55,3.09c1.24,0,3.55-0.1,3.55-3.09
			c0-2.99-2.31-3.09-3.55-3.09C85.17,51.7,82.86,51.8,82.86,54.79L82.86,54.79z"/>
		<path class="st23" d="M42.28,51.96c0.13-2.77-2.26-5.89-5.51-6.28l0.01-0.04c3.21,0,5.67,2.97,5.67,5.32
			c0,0.49-0.04,0.79-0.11,1.01L42.28,51.96L42.28,51.96z M42.09,52.31c-0.21,0.26-0.48,0.52-0.8,0.77
			c-0.58-3.33-3.03-6.24-4.76-7.09l-0.04,0.03c1.74,1.43,3.82,4.2,4.62,7.2c-0.39,0.28-0.83,0.55-1.33,0.76
			c-1.64-1.87-3.17-5.49-3.67-7.78l-0.05,0.02c0.01,2.22,1.59,6,3.52,7.84c-0.43,0.17-0.89,0.3-1.37,0.38
			c-1.85-0.73-3.16-3.07-3.16-5.47c0-1.57,0.48-2.54,0.57-2.73l-0.04-0.02c-0.11,0.17-0.81,1.14-0.81,2.83
			c0,2.71,1.34,4.79,3.11,5.44c-0.61,0.07-1.25,0.05-1.9-0.09l-0.01,0.04c0.19,0.07,0.83,0.34,1.82,0.34c2.22,0,3.73-1.38,4.33-2.43
			L42.09,52.31L42.09,52.31z"/>
		<path class="st23" d="M37.57,44.67c-1.69,0-3.66,1.22-3.66,2.33c0,0.43,0.39,0.79,1.21,0.79c1.89,0,3.65-1.3,3.65-2.31
			C38.77,44.95,38.26,44.67,37.57,44.67L37.57,44.67z M38.25,45.45c0,0.85-1.64,1.89-3,1.89c-0.6,0-0.93-0.24-0.93-0.63
			c0-0.86,1.65-1.89,2.94-1.89C38.09,44.83,38.25,45.25,38.25,45.45L38.25,45.45z"/>
		<path class="st23" d="M33.24,47.51C33.19,47.6,33,47.97,33,48.35c0,0.71,0.71,1.36,2.03,1.36c2.53,0,5.44-1.86,5.44-3.58
			c0-0.77-0.73-1.2-1.24-1.28l-0.01,0.03c0.16,0.05,0.74,0.32,0.74,1.01c0,1.37-2.58,3.25-5.14,3.25c-0.98,0-1.6-0.48-1.6-1.19
			c0-0.22,0.05-0.37,0.06-0.41L33.24,47.51L33.24,47.51z"/>
		<path class="st23" d="M41.51,46.25c0.07,0.05,0.49,0.4,0.49,1.05c0,2.24-3.5,4.43-6.6,4.43c-1.85,0-2.69-0.91-2.65-1.72h0.03
			c0.07,0.42,0.67,1.17,2.29,1.17c3.1,0,6.56-2.27,6.56-4.27c0-0.34-0.09-0.55-0.15-0.65L41.51,46.25L41.51,46.25z"/>
		<path class="st23" d="M42.68,48.34c0.01,0.05,0.09,0.26,0.09,0.6c0,2.49-3.54,4.61-6.63,4.61c-1.59,0-2.41-0.77-2.59-1.08
			l0.03-0.02c0.44,0.38,1.3,0.68,2.31,0.68c2.72,0,6.78-2.07,6.75-4.77L42.68,48.34L42.68,48.34z"/>
	</g>
	<g>
		<g>
			<path class="st21" d="M99.61,24.39l-3.93,1.59l3.96,1.59c0.21,0.08,0.35,0.15,0.43,0.19c0.08,0.04,0.15,0.11,0.22,0.21
				c0.07,0.1,0.1,0.23,0.1,0.39c0,0.12-0.03,0.23-0.08,0.34c-0.05,0.1-0.12,0.18-0.2,0.24c-0.08,0.06-0.17,0.09-0.25,0.09
				c-0.06,0-0.12-0.01-0.19-0.03c-0.07-0.02-0.13-0.04-0.2-0.07c-0.07-0.03-0.13-0.06-0.2-0.09l-3.83-1.7
				c-0.15-0.06-0.29-0.12-0.42-0.18c-0.13-0.06-0.25-0.13-0.35-0.21c-0.1-0.08-0.18-0.19-0.25-0.32c-0.06-0.13-0.1-0.29-0.1-0.49
				c0-0.19,0.03-0.35,0.09-0.49c0.06-0.13,0.15-0.24,0.25-0.32c0.1-0.08,0.22-0.15,0.35-0.21c0.13-0.06,0.27-0.12,0.42-0.18
				l3.8-1.67c0.07-0.03,0.14-0.06,0.2-0.09c0.07-0.03,0.14-0.06,0.22-0.08c0.08-0.02,0.14-0.03,0.2-0.03c0.14,0,0.26,0.07,0.37,0.2
				c0.11,0.13,0.17,0.29,0.17,0.49c0,0.24-0.06,0.41-0.19,0.51C100.09,24.19,99.89,24.29,99.61,24.39z"/>
			<path class="st21" d="M95.31,32.46l3.74-1.12H95c-0.22,0-0.39-0.06-0.5-0.18c-0.11-0.12-0.17-0.28-0.17-0.48
				c0-0.19,0.06-0.35,0.17-0.47c0.11-0.12,0.28-0.18,0.51-0.18h4.64c0.26,0,0.43,0.08,0.52,0.24c0.09,0.16,0.13,0.37,0.13,0.65v0.44
				c0,0.26-0.02,0.46-0.06,0.58c-0.04,0.12-0.11,0.21-0.22,0.27c-0.1,0.06-0.27,0.12-0.51,0.2l-3.21,1.02l3.21,1.02
				c0.23,0.07,0.4,0.14,0.51,0.2c0.1,0.06,0.18,0.15,0.22,0.27c0.04,0.12,0.06,0.31,0.06,0.58v0.44c0,0.27-0.04,0.49-0.13,0.65
				c-0.09,0.16-0.26,0.24-0.52,0.24H95c-0.22,0-0.39-0.06-0.5-0.18c-0.11-0.12-0.17-0.28-0.17-0.48c0-0.19,0.06-0.34,0.17-0.46
				c0.11-0.12,0.28-0.18,0.5-0.18h4.05l-3.74-1.12c-0.24-0.07-0.42-0.13-0.53-0.18c-0.11-0.05-0.22-0.13-0.31-0.26
				c-0.09-0.12-0.14-0.3-0.14-0.52c0-0.17,0.03-0.31,0.09-0.42c0.06-0.11,0.14-0.2,0.23-0.27c0.09-0.06,0.2-0.11,0.31-0.15
				C95.07,32.54,95.19,32.5,95.31,32.46z"/>
		</g>
		<g>
			<path class="st21" d="M37.4,35.15l-0.81-1.79h-6.93l-0.81,1.83c-0.32,0.71-0.59,1.2-0.81,1.45c-0.22,0.25-0.59,0.37-1.1,0.37
				c-0.43,0-0.82-0.13-1.15-0.4c-0.33-0.27-0.5-0.57-0.5-0.91c0-0.19,0.04-0.4,0.12-0.6c0.08-0.21,0.21-0.5,0.38-0.87l4.36-9.27
				c0.12-0.27,0.27-0.59,0.45-0.96c0.17-0.37,0.36-0.68,0.56-0.93c0.2-0.25,0.46-0.45,0.78-0.6c0.32-0.15,0.72-0.23,1.19-0.23
				c0.48,0,0.88,0.08,1.2,0.23c0.32,0.15,0.58,0.35,0.78,0.59c0.2,0.24,0.36,0.5,0.5,0.77c0.14,0.28,0.31,0.64,0.52,1.1l4.45,9.21
				c0.35,0.7,0.52,1.21,0.52,1.53c0,0.33-0.16,0.63-0.49,0.91c-0.33,0.28-0.73,0.41-1.19,0.41c-0.27,0-0.5-0.04-0.7-0.12
				c-0.19-0.08-0.36-0.19-0.49-0.33c-0.13-0.14-0.27-0.35-0.42-0.64C37.64,35.62,37.51,35.37,37.4,35.15z M30.56,31.19h5.09
				l-2.57-5.89L30.56,31.19z"/>
			<path class="st58" d="M43,33.99l3.81-4.66l-3.21-4.15c-0.3-0.4-0.53-0.75-0.68-1.04c-0.15-0.29-0.23-0.57-0.23-0.83
				c0-0.27,0.15-0.52,0.44-0.73c0.29-0.22,0.65-0.33,1.06-0.33c0.48,0,0.85,0.12,1.12,0.36c0.27,0.24,0.64,0.68,1.11,1.32l2.56,3.47
				l2.73-3.47c0.22-0.29,0.42-0.54,0.58-0.75c0.16-0.21,0.31-0.38,0.46-0.52c0.15-0.14,0.31-0.24,0.49-0.31
				c0.18-0.07,0.39-0.1,0.63-0.1c0.43,0,0.79,0.11,1.06,0.33c0.28,0.22,0.41,0.48,0.41,0.77c0,0.43-0.3,1.03-0.9,1.77l-3.36,4.21
				l3.62,4.66c0.33,0.41,0.56,0.75,0.71,1.02c0.15,0.27,0.22,0.52,0.22,0.76c0,0.23-0.07,0.43-0.2,0.62
				c-0.13,0.19-0.32,0.34-0.56,0.45c-0.24,0.11-0.51,0.17-0.81,0.17c-0.33,0-0.6-0.06-0.83-0.17c-0.22-0.11-0.41-0.25-0.55-0.42
				c-0.14-0.17-0.4-0.5-0.78-0.98l-3-3.95l-3.19,4.07c-0.25,0.32-0.42,0.55-0.53,0.68c-0.1,0.13-0.23,0.26-0.38,0.38
				c-0.15,0.12-0.32,0.22-0.52,0.29c-0.2,0.07-0.44,0.11-0.71,0.11c-0.42,0-0.77-0.11-1.04-0.32c-0.28-0.21-0.41-0.53-0.41-0.93
				C42.15,35.27,42.43,34.68,43,33.99z"/>
			<path class="st21" d="M58.03,30.86V24c0-0.58,0.16-1.02,0.47-1.31c0.31-0.29,0.73-0.44,1.24-0.44c0.53,0,0.96,0.15,1.27,0.44
				c0.31,0.29,0.47,0.73,0.47,1.31v7.02c0,0.8,0.11,1.47,0.32,2c0.21,0.54,0.59,0.95,1.13,1.25c0.54,0.3,1.3,0.44,2.28,0.44
				c1.35,0,2.3-0.3,2.86-0.9c0.56-0.6,0.84-1.51,0.84-2.73V24c0-0.59,0.16-1.03,0.47-1.32c0.31-0.29,0.72-0.43,1.24-0.43
				c0.52,0,0.94,0.14,1.26,0.43c0.32,0.29,0.48,0.73,0.48,1.32v6.86c0,1.12-0.13,2.05-0.39,2.79c-0.26,0.75-0.75,1.4-1.47,1.97
				c-0.62,0.48-1.34,0.83-2.16,1.05c-0.82,0.22-1.78,0.33-2.88,0.33c-1.31,0-2.44-0.12-3.38-0.36c-0.95-0.24-1.72-0.6-2.31-1.1
				c-0.6-0.5-1.04-1.13-1.31-1.91C58.17,32.87,58.03,31.94,58.03,30.86z"/>
			<path class="st21" d="M81.87,34.61l-2.73-9.09v9.85c0,0.55-0.15,0.95-0.44,1.23c-0.29,0.27-0.68,0.41-1.16,0.41
				c-0.47,0-0.85-0.13-1.14-0.4c-0.29-0.27-0.44-0.68-0.44-1.23V24.08c0-0.62,0.19-1.04,0.58-1.26c0.39-0.22,0.91-0.33,1.57-0.33
				h1.07c0.64,0,1.11,0.05,1.4,0.15c0.29,0.1,0.51,0.27,0.65,0.53c0.14,0.25,0.3,0.67,0.48,1.24l2.48,7.82l2.48-7.82
				c0.18-0.57,0.34-0.98,0.48-1.24c0.14-0.25,0.35-0.43,0.65-0.53c0.29-0.1,0.76-0.15,1.4-0.15h1.07c0.66,0,1.18,0.11,1.57,0.33
				c0.39,0.22,0.58,0.64,0.58,1.26v11.29c0,0.55-0.15,0.95-0.44,1.23c-0.29,0.27-0.68,0.41-1.17,0.41c-0.46,0-0.83-0.14-1.13-0.41
				c-0.29-0.27-0.44-0.68-0.44-1.23v-9.85l-2.73,9.09c-0.18,0.59-0.32,1.02-0.44,1.3c-0.11,0.28-0.32,0.53-0.62,0.75
				c-0.3,0.23-0.72,0.34-1.26,0.34c-0.4,0-0.74-0.07-1.02-0.22c-0.28-0.15-0.5-0.33-0.65-0.56c-0.16-0.23-0.28-0.48-0.37-0.75
				C82.05,35.2,81.96,34.91,81.87,34.61z"/>
		</g>
	</g>
</g>
<g id="Capa_6">
</g>
</svg>
