<?xml version="1.0" encoding="utf-8"?>
<!-- Generator: Adobe Illustrator 27.9.0, SVG Export Plug-In . SVG Version: 6.00 Build 0)  -->
<svg version="1.1" xmlns="http://www.w3.org/2000/svg" xmlns:xlink="http://www.w3.org/1999/xlink" x="0px" y="0px"
	 viewBox="0 0 126.08 75.06" style="enable-background:new 0 0 126.08 75.06;" xml:space="preserve">
<style type="text/css">
	.st0{fill:#F0F0F0;}
	.st1{display:none;}
	.st2{display:inline;fill:#1C1824;}
	.st3{fill:none;stroke:#D4D4D4;stroke-width:2.3506;stroke-miterlimit:10;}
	.st4{fill:none;stroke:#E3E3E3;stroke-width:0.5;stroke-miterlimit:10;}
	.st5{fill:none;stroke:#FFFFFE;stroke-width:0.8855;stroke-miterlimit:10;}
	.st6{fill:#FFFFFE;}
	.st7{fill:#16C0FE;}
	.st8{fill:#0000D7;}
	.st9{fill:#FFDE00;}
	.st10{fill:#6B6B6B;}
	.st11{fill:#696969;}
	.st12{fill:none;stroke:#474747;stroke-width:0.348;stroke-miterlimit:10;}
	.st13{fill:none;stroke:#474747;stroke-width:0.4442;stroke-miterlimit:10;}
	.st14{fill:none;stroke:#D2B356;stroke-width:5.9189;stroke-miterlimit:10;}
	.st15{fill:#D2B356;}
	.st16{fill:#FFFFFF;}
	.st17{fill:none;stroke:#000000;stroke-width:0.4956;stroke-miterlimit:10;}
	.st18{fill:none;stroke:#000000;stroke-width:1.6303;stroke-miterlimit:10;}
	.st19{fill:none;stroke:#A8A8A8;stroke-width:0.5;stroke-miterlimit:10;}
	.st20{display:inline;fill:none;stroke:#DBDBDB;stroke-width:0.4653;stroke-miterlimit:10;}
	.st21{fill:#303334;}
	.st22{clip-path:url(#SVGID_00000179609996963586984140000010167933246212737674_);fill:#B6B6B6;}
	.st23{fill-rule:evenodd;clip-rule:evenodd;fill:#303334;}
	.st24{fill:#262626;}
	.st25{fill:#424242;}
	.st26{fill:#595959;}
	.st27{fill:#A3A3A3;}
	.st28{fill:#606060;}
	.st29{fill:#848484;}
	.st30{fill:#040505;}
	.st31{fill-rule:evenodd;clip-rule:evenodd;fill:#2D2D2D;}
	.st32{fill-rule:evenodd;clip-rule:evenodd;fill:#989898;}
	.st33{fill:#4B4B4B;}
	.st34{fill:#373737;}
	.st35{fill:#1E1E1E;}
	.st36{clip-path:url(#SVGID_00000018230062018011838140000018150749194526037427_);}
	.st37{fill:#B29020;}
	.st38{clip-path:url(#SVGID_00000153668430374189782130000011356996830943672202_);}
	.st39{fill-rule:evenodd;clip-rule:evenodd;fill:#333333;}
	.st40{fill-rule:evenodd;clip-rule:evenodd;fill:#FFFFFF;}
	.st41{fill:#333333;}
	.st42{fill:#E3E3E3;}
	.st43{fill:#C7C7C7;}
	.st44{fill:#828282;}
	.st45{fill:#5D5D5D;}
	.st46{fill:#B7B7B7;}
	.st47{fill:#C1C1C1;}
	.st48{fill:#D9D9D9;}
	.st49{fill:#B2B2B2;}
	.st50{fill:#1D1D1D;}
	.st51{fill-rule:evenodd;clip-rule:evenodd;fill:#A8A8A8;}
	.st52{fill:#5C5C5C;}
	.st53{fill:#202020;}
	.st54{fill:#221F1F;}
	.st55{fill:#231F20;}
	.st56{fill:none;stroke:#221F1F;stroke-width:0.1371;}
	.st57{fill:#1D1D1B;}
	.st58{fill:#7A7A7A;}
	.st59{fill:none;stroke:#DBDBDB;stroke-width:0.4653;stroke-miterlimit:10;}
	.st60{clip-path:url(#SVGID_00000023961626676586862340000010540904548670456240_);fill:#B6B6B6;}
	.st61{clip-path:url(#SVGID_00000173870170296666126210000004156824235330701483_);}
	.st62{clip-path:url(#SVGID_00000119832903043094846430000009071424286122366083_);}
	.st63{fill:#A0A0A0;}
	.st64{fill-rule:evenodd;clip-rule:evenodd;fill:#D2B356;}
	.st65{fill:#9E9E9E;}
	.st66{clip-path:url(#SVGID_00000103226344939763791200000000053055222889920919_);}
	.st67{clip-path:url(#SVGID_00000086652285960472192420000012817160861931538356_);}
	.st68{clip-path:url(#SVGID_00000096059472246866326530000003978744947866378925_);}
	.st69{fill:#212121;}
</style>
<g id="Capa_2">
</g>
<g id="Capa_7" class="st1">
</g>
<g id="Capa_1">
</g>
<g id="lineas-logos">
</g>
<g id="marco-logos" class="st1">
</g>
<g id="logos">
	<rect x="-0.26" y="-0.25" class="st59" width="126.08" height="75.06"/>
	<g>
		<g id="I5aRIo_00000054251541881396648770000008180684981651188128_">
			<g>
				<g>
					<path class="st21" d="M93.35,34.31c-0.17-0.21-0.28-0.37-0.42-0.51c-3.6-3.47-7.68-6.2-12.29-8.13
						c-7.29-3.06-14.91-4.22-22.79-3.98c-6.82,0.21-13.47,1.36-20,3.28c-0.56,0.16-1.11,0.37-1.77,0.59
						c1.87,4.29,3.67,8.42,5.5,12.6c0.5-0.25,0.82-0.42,1.15-0.58c9.46-4.68,19.34-7.43,30.01-6.67c5.3,0.38,10.31,1.77,14.95,4.38
						c1.09,0.62,2.15,1.29,3.27,1.96C91.78,36.23,92.55,35.28,93.35,34.31z"/>
					<path class="st21" d="M93.35,34.31c-0.79,0.97-1.57,1.92-2.39,2.94c-1.11-0.67-2.18-1.35-3.27-1.96
						c-4.64-2.61-9.65-4-14.95-4.38c-10.67-0.76-20.55,2-30.01,6.67c-0.33,0.16-0.65,0.33-1.15,0.58c-1.83-4.18-3.63-8.32-5.5-12.6
						c0.66-0.22,1.21-0.42,1.77-0.59c6.53-1.91,13.18-3.07,20-3.28c7.88-0.24,15.5,0.92,22.79,3.98c4.61,1.93,8.69,4.67,12.29,8.13
						C93.07,33.94,93.18,34.1,93.35,34.31z"/>
				</g>
			</g>
		</g>
		<g>
			<path class="st21" d="M36.1,47.16c-0.28-0.21-0.58-0.38-0.9-0.51c-0.33-0.13-0.65-0.23-0.99-0.32c-0.33-0.08-0.63-0.17-0.9-0.25
				c-0.27-0.08-0.49-0.18-0.66-0.31c-0.17-0.13-0.26-0.3-0.26-0.53c0-0.15,0.04-0.29,0.13-0.43c0.09-0.13,0.23-0.24,0.42-0.33
				c0.19-0.08,0.45-0.13,0.77-0.13c0.36,0,0.73,0.06,1.11,0.18c0.38,0.12,0.77,0.32,1.15,0.58l0.7-2.07
				c-0.4-0.29-0.85-0.51-1.37-0.66c-0.52-0.15-1.04-0.22-1.58-0.22c-0.8,0-1.47,0.15-2,0.44c-0.54,0.29-0.94,0.68-1.2,1.16
				c-0.26,0.48-0.4,1.02-0.4,1.6c0,0.53,0.08,0.97,0.25,1.32c0.17,0.35,0.39,0.63,0.66,0.85c0.27,0.22,0.58,0.39,0.91,0.52
				c0.33,0.13,0.66,0.24,0.98,0.32c0.32,0.08,0.62,0.17,0.9,0.25c0.28,0.09,0.5,0.2,0.67,0.33c0.17,0.13,0.26,0.3,0.26,0.52
				c0,0.17-0.04,0.32-0.13,0.44c-0.09,0.12-0.23,0.22-0.42,0.28c-0.19,0.07-0.45,0.1-0.78,0.1c-0.47,0-0.95-0.09-1.43-0.28
				c-0.48-0.18-0.9-0.42-1.26-0.7l-0.76,2.08c0.38,0.31,0.88,0.57,1.5,0.77c0.62,0.2,1.26,0.3,1.94,0.3c0.81,0,1.48-0.15,2.02-0.44
				c0.54-0.29,0.94-0.68,1.21-1.17c0.27-0.49,0.4-1.02,0.4-1.59c0-0.52-0.09-0.95-0.26-1.3C36.6,47.66,36.38,47.38,36.1,47.16z"/>
			<path class="st21" d="M40.96,44.48c-0.5,0-1,0.08-1.5,0.24c-0.5,0.16-0.93,0.38-1.29,0.67l0.73,1.81
				c0.22-0.19,0.48-0.34,0.8-0.47c0.31-0.12,0.62-0.18,0.93-0.18c0.47,0,0.81,0.12,1.02,0.35c0.19,0.21,0.29,0.5,0.31,0.87h-1.25
				c-0.65,0-1.18,0.09-1.59,0.28c-0.42,0.18-0.72,0.45-0.92,0.8c-0.2,0.35-0.3,0.76-0.3,1.23c0,0.43,0.09,0.83,0.27,1.19
				c0.18,0.36,0.45,0.64,0.8,0.85c0.35,0.21,0.78,0.31,1.28,0.31c0.55,0,1-0.13,1.33-0.4c0.23-0.18,0.4-0.42,0.53-0.72v1h2.06v-4.26
				c0-1.22-0.28-2.12-0.85-2.69C42.78,44.77,41.98,44.48,40.96,44.48z M41.54,50.51c-0.2,0.15-0.42,0.22-0.67,0.22
				c-0.26,0-0.46-0.07-0.61-0.22c-0.15-0.15-0.22-0.33-0.22-0.56c0-0.25,0.07-0.43,0.22-0.57c0.14-0.13,0.39-0.2,0.75-0.2h0.96v0.65
				C41.88,50.14,41.74,50.36,41.54,50.51z"/>
			<path class="st21" d="M51.32,44.85c-0.4-0.25-0.84-0.37-1.33-0.37c-0.53,0-1,0.14-1.42,0.43c-0.21,0.15-0.4,0.33-0.57,0.54v-0.85
				h-2.12v7.69h2.21v-3.7c0-0.43,0.05-0.78,0.16-1.05c0.11-0.26,0.26-0.46,0.45-0.59c0.19-0.13,0.41-0.19,0.65-0.19
				c0.31,0,0.56,0.13,0.74,0.38c0.18,0.25,0.27,0.65,0.27,1.2v3.95h2.23v-4.39c0-0.79-0.11-1.44-0.34-1.94
				C52.03,45.47,51.71,45.09,51.32,44.85z"/>
			<polygon class="st21" points="65.64,42.38 62.84,48.11 59.98,42.38 58.08,42.38 58.08,52.3 60.2,52.3 60.2,47.19 62.29,51.32 
				63.31,51.32 65.41,47.04 65.43,52.3 67.55,52.3 67.54,42.38 			"/>
			<path class="st21" d="M72.08,44.48c-0.5,0-1,0.08-1.5,0.24c-0.5,0.16-0.93,0.38-1.29,0.67l0.73,1.81
				c0.22-0.19,0.48-0.34,0.8-0.47c0.31-0.12,0.62-0.18,0.93-0.18c0.47,0,0.81,0.12,1.02,0.35c0.19,0.21,0.29,0.5,0.31,0.87h-1.25
				c-0.65,0-1.18,0.09-1.59,0.28c-0.42,0.18-0.72,0.45-0.92,0.8c-0.2,0.35-0.3,0.76-0.3,1.23c0,0.43,0.09,0.83,0.27,1.19
				c0.18,0.36,0.45,0.64,0.8,0.85c0.35,0.21,0.78,0.31,1.28,0.31c0.55,0,1-0.13,1.33-0.4c0.23-0.18,0.4-0.42,0.53-0.72v1h2.06v-4.26
				c0-1.22-0.28-2.12-0.85-2.69C73.9,44.77,73.1,44.48,72.08,44.48z M72.67,50.51c-0.2,0.15-0.42,0.22-0.67,0.22
				c-0.26,0-0.46-0.07-0.61-0.22c-0.15-0.15-0.22-0.33-0.22-0.56c0-0.25,0.07-0.43,0.22-0.57c0.14-0.13,0.39-0.2,0.75-0.2h0.96v0.65
				C73.01,50.14,72.86,50.36,72.67,50.51z"/>
			<path class="st21" d="M79.12,45.54v-0.93H77v7.69h2.21v-3.53c0-0.67,0.14-1.15,0.42-1.45c0.28-0.3,0.64-0.45,1.1-0.45
				c0.08,0,0.16,0,0.23,0.01c0.08,0,0.17,0.02,0.27,0.04v-2.44c-0.6,0-1.11,0.15-1.52,0.44C79.48,45.08,79.28,45.29,79.12,45.54z"/>
			<path class="st21" d="M85.59,50.34c-0.2,0-0.36-0.08-0.48-0.23c-0.12-0.15-0.18-0.37-0.18-0.67v-2.54h1.45v-2.01h-1.45v-2.01
				h-2.21v2.01h-0.92v2.01h0.92v2.58c0,0.98,0.23,1.72,0.68,2.2c0.45,0.49,1.08,0.73,1.89,0.73c0.3,0,0.58-0.04,0.85-0.11
				c0.27-0.07,0.5-0.19,0.71-0.35l-0.56-1.87C86.07,50.26,85.84,50.34,85.59,50.34z"/>
			<polygon class="st21" points="87.94,43.7 89.94,43.7 91.29,42.03 88.65,42.03 			"/>
			<rect x="87.96" y="44.61" class="st21" width="2.21" height="7.69"/>
			<path class="st21" d="M98.29,45.97c-0.23-0.5-0.54-0.87-0.94-1.12c-0.4-0.25-0.84-0.37-1.33-0.37c-0.53,0-1,0.14-1.42,0.43
				c-0.21,0.15-0.4,0.33-0.57,0.54v-0.85H91.9v7.69h2.21v-3.7c0-0.43,0.05-0.78,0.16-1.05c0.11-0.26,0.26-0.46,0.45-0.59
				c0.19-0.13,0.41-0.19,0.65-0.19c0.31,0,0.56,0.13,0.74,0.38c0.18,0.25,0.27,0.65,0.27,1.2v3.95h2.23v-4.39
				C98.63,47.12,98.52,46.47,98.29,45.97z"/>
		</g>
	</g>
</g>
<g id="Capa_6">
</g>
</svg>
