<?xml version="1.0" encoding="utf-8"?>
<!-- Generator: Adobe Illustrator 27.9.0, SVG Export Plug-In . SVG Version: 6.00 Build 0)  -->
<svg version="1.1" xmlns="http://www.w3.org/2000/svg" xmlns:xlink="http://www.w3.org/1999/xlink" x="0px" y="0px"
	 viewBox="0 0 126.08 75.06" style="enable-background:new 0 0 126.08 75.06;" xml:space="preserve">
<style type="text/css">
	.st0{fill:#F0F0F0;}
	.st1{display:none;}
	.st2{display:inline;fill:#1C1824;}
	.st3{fill:none;stroke:#D4D4D4;stroke-width:2.3506;stroke-miterlimit:10;}
	.st4{fill:none;stroke:#E3E3E3;stroke-width:0.5;stroke-miterlimit:10;}
	.st5{fill:none;stroke:#FFFFFE;stroke-width:0.8855;stroke-miterlimit:10;}
	.st6{fill:#FFFFFE;}
	.st7{fill:#16C0FE;}
	.st8{fill:#0000D7;}
	.st9{fill:#FFDE00;}
	.st10{fill:#6B6B6B;}
	.st11{fill:#696969;}
	.st12{fill:none;stroke:#474747;stroke-width:0.348;stroke-miterlimit:10;}
	.st13{fill:none;stroke:#474747;stroke-width:0.4442;stroke-miterlimit:10;}
	.st14{fill:none;stroke:#D2B356;stroke-width:5.9189;stroke-miterlimit:10;}
	.st15{fill:#D2B356;}
	.st16{fill:#FFFFFF;}
	.st17{fill:none;stroke:#000000;stroke-width:0.4956;stroke-miterlimit:10;}
	.st18{fill:none;stroke:#000000;stroke-width:1.6303;stroke-miterlimit:10;}
	.st19{fill:none;stroke:#A8A8A8;stroke-width:0.5;stroke-miterlimit:10;}
	.st20{display:inline;fill:none;stroke:#DBDBDB;stroke-width:0.4653;stroke-miterlimit:10;}
	.st21{fill:#303334;}
	.st22{clip-path:url(#SVGID_00000020382033014876652120000012053712741107915168_);fill:#B6B6B6;}
	.st23{fill-rule:evenodd;clip-rule:evenodd;fill:#303334;}
	.st24{fill:#262626;}
	.st25{fill:#424242;}
	.st26{fill:#595959;}
	.st27{fill:#A3A3A3;}
	.st28{fill:#606060;}
	.st29{fill:#848484;}
	.st30{fill:#040505;}
	.st31{fill-rule:evenodd;clip-rule:evenodd;fill:#2D2D2D;}
	.st32{fill-rule:evenodd;clip-rule:evenodd;fill:#989898;}
	.st33{fill:#4B4B4B;}
	.st34{fill:#373737;}
	.st35{fill:#1E1E1E;}
	.st36{clip-path:url(#SVGID_00000096738588796371980500000009635113821520131262_);}
	.st37{fill:#B29020;}
	.st38{clip-path:url(#SVGID_00000035526260633710798590000008396390572843430275_);}
	.st39{fill-rule:evenodd;clip-rule:evenodd;fill:#333333;}
	.st40{fill-rule:evenodd;clip-rule:evenodd;fill:#FFFFFF;}
	.st41{fill:#333333;}
	.st42{fill:#E3E3E3;}
	.st43{fill:#C7C7C7;}
	.st44{fill:#828282;}
	.st45{fill:#5D5D5D;}
	.st46{fill:#B7B7B7;}
	.st47{fill:#C1C1C1;}
	.st48{fill:#D9D9D9;}
	.st49{fill:#B2B2B2;}
	.st50{fill:#1D1D1D;}
	.st51{fill-rule:evenodd;clip-rule:evenodd;fill:#A8A8A8;}
	.st52{fill:#5C5C5C;}
	.st53{fill:#202020;}
	.st54{fill:#221F1F;}
	.st55{fill:#231F20;}
	.st56{fill:none;stroke:#221F1F;stroke-width:0.1371;}
	.st57{fill:#1D1D1B;}
	.st58{fill:#7A7A7A;}
	.st59{fill:none;stroke:#DBDBDB;stroke-width:0.4653;stroke-miterlimit:10;}
	.st60{clip-path:url(#SVGID_00000026853413827662432420000000818800092363013566_);fill:#B6B6B6;}
	.st61{clip-path:url(#SVGID_00000072238128709427101840000010246573951191652771_);}
	.st62{clip-path:url(#SVGID_00000088819866211833575190000003122342714655321482_);}
	.st63{fill:#A0A0A0;}
	.st64{fill-rule:evenodd;clip-rule:evenodd;fill:#D2B356;}
	.st65{fill:#9E9E9E;}
	.st66{clip-path:url(#SVGID_00000174566557029586169740000006096560086104737726_);}
	.st67{clip-path:url(#SVGID_00000165940496914605577190000003961381584859988132_);}
	.st68{clip-path:url(#SVGID_00000163030958741047256900000005093814729558838944_);}
	.st69{fill:#212121;}
</style>
<g id="Capa_2">
</g>
<g id="Capa_7" class="st1">
</g>
<g id="Capa_1">
</g>
<g id="lineas-logos">
</g>
<g id="marco-logos" class="st1">
</g>
<g id="logos">
	<rect x="-0.07" y="-0.42" class="st59" width="126.08" height="75.06"/>
	<g>
		<path class="st21" d="M36.37,30.74h-4.22l-0.63,1.91h-4.17l4.63-12.66h4.58l4.61,12.66h-4.19L36.37,30.74z M35.4,27.76l-1.14-3.52
			l-1.14,3.52H35.4z"/>
		<polygon class="st21" points="52.81,19.99 52.81,23.14 47.83,23.14 47.83,24.89 51.41,24.89 51.41,27.88 47.83,27.88 47.83,32.66 
			43.86,32.66 43.86,19.99 		"/>
		<polygon class="st21" points="64.88,19.99 64.88,23.14 59.91,23.14 59.91,24.89 63.48,24.89 63.48,27.88 59.91,27.88 59.91,32.66 
			55.94,32.66 55.94,19.99 		"/>
		<path class="st21" d="M74.34,30.74h-4.22l-0.63,1.91h-4.17l4.63-12.66h4.58l4.61,12.66h-4.19L74.34,30.74z M73.37,27.76
			l-1.14-3.52l-1.14,3.52H73.37z"/>
		<path class="st21" d="M87.84,32.66l-2.4-4.54v4.54h-3.97V19.99h5.9c1.03,0,1.9,0.18,2.63,0.55c0.73,0.36,1.27,0.86,1.64,1.48
			c0.36,0.63,0.55,1.33,0.55,2.12c0,0.85-0.24,1.6-0.71,2.25c-0.47,0.66-1.15,1.13-2.03,1.41l2.75,4.85H87.84z M85.45,25.47h1.57
			c0.38,0,0.67-0.09,0.86-0.26c0.19-0.17,0.29-0.44,0.29-0.81c0-0.33-0.1-0.6-0.3-0.79c-0.2-0.19-0.48-0.29-0.85-0.29h-1.57V25.47z"
			/>
		<rect x="95.61" y="19.99" class="st21" width="3.97" height="12.66"/>
		<path class="st21" d="M105.02,49.06H22.11c-1.57,0-2.85-1.28-2.85-2.85V34.76h88.61v11.45C107.87,47.79,106.59,49.06,105.02,49.06
			"/>
		<path class="st21" d="M104.72,29.09h-0.46v2.09c0,1.74-1.41,3.15-3.15,3.15h6.76v-2.09C107.87,30.5,106.46,29.09,104.72,29.09"/>
		<path class="st21" d="M22.41,29.09h0.46v2.09c0,1.74,1.41,3.15,3.15,3.15h-6.76v-2.09C19.26,30.5,20.67,29.09,22.41,29.09"/>
		<path class="st21" d="M23.08,54.59v-1.77c0-0.47,0.12-0.81,0.37-1.03c0.25-0.22,0.58-0.33,0.99-0.33c0.41,0,0.75,0.11,1,0.33
			c0.25,0.22,0.38,0.56,0.38,1.03v1.77c0,0.47-0.13,0.81-0.38,1.03c-0.25,0.22-0.58,0.33-1,0.33c-0.41,0-0.75-0.11-0.99-0.33
			C23.21,55.41,23.08,55.06,23.08,54.59 M23.73,54.59c0,0.52,0.24,0.79,0.72,0.79c0.23,0,0.41-0.06,0.54-0.2
			c0.13-0.13,0.19-0.33,0.19-0.59v-1.77c0-0.26-0.06-0.46-0.19-0.59c-0.13-0.13-0.3-0.2-0.54-0.2c-0.48,0-0.72,0.26-0.72,0.79V54.59
			z"/>
		<path class="st21" d="M27.32,55.7v-4.04c0-0.06,0.02-0.11,0.07-0.15c0.05-0.04,0.11-0.06,0.18-0.06h1.19
			c0.41,0,0.73,0.11,0.97,0.32c0.24,0.22,0.36,0.56,0.36,1.02v0.05c0,0.46-0.13,0.8-0.38,1.02c-0.25,0.22-0.58,0.33-1,0.33h-0.76
			v1.51c0,0.07-0.03,0.12-0.09,0.16c-0.06,0.04-0.14,0.06-0.23,0.06c-0.09,0-0.16-0.02-0.23-0.06
			C27.35,55.82,27.32,55.77,27.32,55.7 M27.97,53.69h0.76c0.23,0,0.41-0.07,0.54-0.2c0.13-0.13,0.19-0.33,0.19-0.59v-0.07
			c0-0.26-0.06-0.46-0.19-0.59c-0.13-0.13-0.3-0.2-0.54-0.2h-0.76V53.69z"/>
		<path class="st21" d="M31.07,51.76c0-0.08,0.02-0.15,0.05-0.21c0.04-0.06,0.09-0.09,0.16-0.09h2.53c0.07,0,0.12,0.03,0.16,0.09
			c0.04,0.06,0.05,0.13,0.05,0.2c0,0.09-0.02,0.16-0.06,0.22c-0.04,0.06-0.09,0.09-0.16,0.09h-0.94v3.65c0,0.06-0.03,0.12-0.1,0.16
			c-0.06,0.04-0.14,0.06-0.23,0.06c-0.09,0-0.17-0.02-0.23-0.06c-0.06-0.04-0.09-0.09-0.09-0.16v-3.65h-0.94
			c-0.06,0-0.12-0.03-0.16-0.09C31.09,51.91,31.07,51.84,31.07,51.76"/>
		<path class="st21" d="M35.26,55.7v-4.04c0-0.07,0.03-0.12,0.09-0.16c0.06-0.03,0.14-0.05,0.23-0.05c0.09,0,0.17,0.02,0.23,0.05
			c0.06,0.03,0.09,0.09,0.09,0.16v4.04c0,0.07-0.03,0.12-0.09,0.16c-0.06,0.04-0.14,0.06-0.23,0.06c-0.08,0-0.16-0.02-0.23-0.06
			C35.29,55.82,35.26,55.77,35.26,55.7"/>
		<path class="st21" d="M37.45,55.7v-3.92c0-0.11,0.03-0.19,0.09-0.24c0.06-0.05,0.14-0.08,0.23-0.08c0.12,0,0.21,0.03,0.29,0.08
			c0.08,0.05,0.15,0.15,0.22,0.29l0.85,1.62l0.87-1.62c0.07-0.14,0.15-0.24,0.22-0.29c0.07-0.05,0.17-0.08,0.29-0.08
			c0.09,0,0.17,0.03,0.23,0.08c0.06,0.05,0.09,0.13,0.09,0.24v3.92c0,0.07-0.03,0.12-0.09,0.16c-0.06,0.04-0.14,0.06-0.23,0.06
			c-0.09,0-0.16-0.02-0.23-0.06c-0.06-0.04-0.1-0.09-0.1-0.16v-2.93l-0.82,1.51c-0.06,0.1-0.14,0.15-0.24,0.15
			c-0.1,0-0.17-0.05-0.22-0.15l-0.82-1.55v2.96c0,0.07-0.03,0.12-0.09,0.16c-0.06,0.04-0.14,0.06-0.23,0.06
			c-0.08,0-0.16-0.02-0.23-0.06C37.49,55.82,37.45,55.77,37.45,55.7"/>
		<path class="st21" d="M42.39,55.7v-4.04c0-0.07,0.03-0.12,0.09-0.16c0.06-0.03,0.14-0.05,0.23-0.05c0.09,0,0.17,0.02,0.23,0.05
			c0.06,0.03,0.09,0.09,0.09,0.16v4.04c0,0.07-0.03,0.12-0.09,0.16c-0.06,0.04-0.14,0.06-0.23,0.06c-0.08,0-0.16-0.02-0.23-0.06
			C42.42,55.82,42.39,55.77,42.39,55.7"/>
		<path class="st21" d="M44.29,55.73c0-0.08,0.02-0.15,0.07-0.23l1.89-3.47H44.6c-0.07,0-0.12-0.03-0.16-0.08
			c-0.04-0.06-0.06-0.12-0.06-0.2c0-0.08,0.02-0.14,0.05-0.2c0.04-0.06,0.09-0.09,0.16-0.09h2.27c0.14,0,0.21,0.06,0.21,0.18
			c0,0.07-0.02,0.15-0.07,0.24l-1.89,3.46h1.85c0.06,0,0.12,0.03,0.16,0.09c0.04,0.06,0.06,0.13,0.06,0.2c0,0.07-0.02,0.14-0.06,0.2
			c-0.04,0.06-0.09,0.09-0.16,0.09h-2.47C44.36,55.92,44.29,55.85,44.29,55.73"/>
		<path class="st21" d="M48.11,55.65c0-0.02,0-0.04,0.01-0.05l1.21-3.95c0.05-0.15,0.2-0.22,0.43-0.22c0.24,0,0.39,0.07,0.44,0.2
			l1.21,3.95c0.01,0.03,0.01,0.04,0.01,0.06c0,0.08-0.05,0.14-0.14,0.2c-0.09,0.06-0.2,0.08-0.3,0.08c-0.13,0-0.21-0.04-0.24-0.13
			l-0.25-0.87h-1.5l-0.25,0.87c-0.03,0.09-0.1,0.13-0.23,0.13c-0.1,0-0.19-0.03-0.27-0.08C48.15,55.79,48.11,55.72,48.11,55.65
			 M49.13,54.4h1.21l-0.61-2.09L49.13,54.4z"/>
		<path class="st21" d="M52.6,55.71v-4.04c0-0.06,0.03-0.11,0.08-0.15c0.05-0.04,0.12-0.06,0.2-0.06h1.08c0.41,0,0.75,0.11,1,0.33
			c0.25,0.22,0.38,0.56,0.38,1.03v1.74c0,0.47-0.13,0.81-0.38,1.03c-0.25,0.22-0.58,0.33-1,0.33h-1.08c-0.08,0-0.15-0.02-0.2-0.06
			C52.62,55.82,52.6,55.77,52.6,55.71 M53.24,55.34h0.72c0.48,0,0.73-0.26,0.73-0.79v-1.74c0-0.52-0.24-0.79-0.73-0.79h-0.72V55.34z
			"/>
		<path class="st21" d="M56.79,54.59v-1.77c0-0.47,0.12-0.81,0.37-1.03c0.25-0.22,0.58-0.33,0.99-0.33c0.41,0,0.75,0.11,1,0.33
			c0.25,0.22,0.38,0.56,0.38,1.03v1.77c0,0.47-0.13,0.81-0.38,1.03c-0.25,0.22-0.58,0.33-1,0.33c-0.41,0-0.75-0.11-0.99-0.33
			C56.92,55.41,56.79,55.06,56.79,54.59 M57.44,54.59c0,0.52,0.24,0.79,0.72,0.79c0.23,0,0.41-0.06,0.54-0.2
			c0.13-0.13,0.19-0.33,0.19-0.59v-1.77c0-0.26-0.06-0.46-0.19-0.59c-0.13-0.13-0.3-0.2-0.54-0.2c-0.48,0-0.72,0.26-0.72,0.79V54.59
			z"/>
		<path class="st21" d="M61.03,55.7v-4.04c0-0.06,0.02-0.11,0.06-0.15c0.04-0.04,0.09-0.06,0.15-0.06h1.16c0.93,0,1.4,0.41,1.4,1.24
			c0,0.34-0.08,0.61-0.23,0.81c-0.15,0.2-0.36,0.33-0.63,0.39l0.85,1.61c0.02,0.03,0.02,0.06,0.02,0.09c0,0.08-0.04,0.16-0.13,0.23
			c-0.08,0.07-0.17,0.1-0.27,0.1c-0.11,0-0.19-0.06-0.26-0.19L62.29,54h-0.62v1.71c0,0.07-0.03,0.12-0.09,0.16
			c-0.06,0.04-0.14,0.06-0.23,0.06c-0.09,0-0.16-0.02-0.22-0.06C61.06,55.82,61.03,55.77,61.03,55.7 M61.67,53.48h0.73
			c0.5,0,0.76-0.24,0.76-0.73s-0.25-0.73-0.76-0.73h-0.73V53.48z"/>
		<path class="st21" d="M65.18,55.7v-4.03c0-0.06,0.03-0.12,0.09-0.16c0.06-0.04,0.12-0.06,0.2-0.06h2.17
			c0.07,0,0.12,0.03,0.16,0.09c0.04,0.06,0.05,0.12,0.05,0.2c0,0.08-0.02,0.15-0.06,0.21c-0.04,0.06-0.09,0.09-0.16,0.09h-1.81v1.4
			h0.94c0.07,0,0.12,0.03,0.16,0.08c0.04,0.05,0.06,0.11,0.06,0.19c0,0.06-0.02,0.12-0.05,0.17c-0.04,0.05-0.09,0.08-0.16,0.08
			h-0.94v1.4h1.81c0.06,0,0.12,0.03,0.16,0.09c0.04,0.06,0.06,0.13,0.06,0.21c0,0.07-0.02,0.14-0.05,0.2
			c-0.04,0.06-0.09,0.09-0.16,0.09h-2.17c-0.08,0-0.14-0.02-0.2-0.06C65.21,55.82,65.18,55.77,65.18,55.7"/>
		<path class="st21" d="M68.89,55.25c0-0.08,0.03-0.15,0.09-0.23c0.06-0.08,0.12-0.12,0.2-0.12c0.04,0,0.1,0.03,0.16,0.08
			c0.06,0.05,0.13,0.11,0.19,0.17c0.06,0.06,0.15,0.12,0.28,0.17c0.12,0.05,0.26,0.08,0.42,0.08c0.23,0,0.42-0.06,0.56-0.17
			c0.14-0.11,0.21-0.27,0.21-0.48c0-0.2-0.07-0.36-0.2-0.49c-0.14-0.13-0.3-0.24-0.49-0.31c-0.19-0.08-0.39-0.16-0.58-0.25
			c-0.2-0.09-0.36-0.22-0.5-0.4c-0.14-0.18-0.2-0.4-0.2-0.67c0-0.21,0.04-0.4,0.13-0.56c0.08-0.16,0.2-0.28,0.34-0.36
			c0.14-0.09,0.29-0.15,0.45-0.19c0.16-0.04,0.32-0.06,0.5-0.06c0.11,0,0.22,0.01,0.34,0.02c0.12,0.01,0.24,0.04,0.36,0.07
			c0.12,0.03,0.22,0.08,0.29,0.14c0.08,0.06,0.12,0.13,0.12,0.21c0,0.08-0.02,0.15-0.07,0.23c-0.05,0.08-0.11,0.12-0.2,0.12
			c-0.04,0-0.1-0.02-0.16-0.06c-0.07-0.04-0.16-0.08-0.28-0.12c-0.12-0.04-0.25-0.06-0.4-0.06c-0.23,0-0.42,0.05-0.55,0.14
			c-0.14,0.09-0.21,0.23-0.21,0.42c0,0.12,0.04,0.23,0.11,0.32c0.07,0.09,0.17,0.16,0.28,0.22c0.12,0.06,0.24,0.11,0.39,0.17
			c0.14,0.06,0.28,0.12,0.42,0.19c0.14,0.07,0.27,0.16,0.38,0.25c0.12,0.1,0.21,0.23,0.28,0.4c0.07,0.17,0.11,0.36,0.11,0.58
			c0,0.42-0.13,0.74-0.38,0.96c-0.25,0.22-0.59,0.33-1.01,0.33c-0.37,0-0.69-0.08-0.95-0.23C69.02,55.58,68.89,55.41,68.89,55.25"/>
		<path class="st21" d="M74.9,54.59v-1.77c0-0.47,0.13-0.81,0.37-1.03c0.25-0.22,0.58-0.33,0.98-0.33c0.41,0,0.75,0.1,1,0.31
			c0.25,0.21,0.38,0.47,0.38,0.8c0,0.13-0.02,0.22-0.07,0.27c-0.05,0.05-0.13,0.07-0.25,0.07c-0.21,0-0.32-0.07-0.32-0.21
			c-0.02-0.44-0.26-0.65-0.71-0.65c-0.49,0-0.73,0.26-0.73,0.79v1.77c0,0.52,0.25,0.79,0.74,0.79c0.15,0,0.27-0.02,0.37-0.06
			c0.1-0.04,0.17-0.1,0.21-0.19c0.04-0.08,0.07-0.15,0.09-0.21c0.02-0.06,0.03-0.14,0.04-0.23c0.01-0.14,0.12-0.21,0.32-0.21
			c0.12,0,0.2,0.02,0.25,0.07c0.05,0.05,0.08,0.14,0.08,0.27c0,0.34-0.13,0.61-0.38,0.82c-0.26,0.21-0.59,0.32-1.01,0.32
			c-0.4,0-0.73-0.11-0.98-0.33C75.03,55.41,74.9,55.06,74.9,54.59"/>
		<path class="st21" d="M78.67,55.65c0-0.02,0-0.04,0.01-0.05l1.21-3.95c0.05-0.15,0.2-0.22,0.43-0.22c0.24,0,0.39,0.07,0.44,0.2
			l1.21,3.95c0.01,0.03,0.01,0.04,0.01,0.06c0,0.08-0.05,0.14-0.14,0.2c-0.09,0.06-0.2,0.08-0.3,0.08c-0.13,0-0.21-0.04-0.24-0.13
			l-0.25-0.87h-1.5l-0.25,0.87c-0.03,0.09-0.1,0.13-0.23,0.13c-0.1,0-0.19-0.03-0.27-0.08C78.72,55.79,78.67,55.72,78.67,55.65
			 M79.7,54.4h1.21l-0.61-2.09L79.7,54.4z M79.87,50.64c0-0.07,0.03-0.13,0.09-0.16l0.76-0.38c0.03-0.01,0.05-0.01,0.07-0.01
			c0.06,0,0.11,0.03,0.15,0.08c0.04,0.05,0.06,0.11,0.06,0.17c0,0.08-0.03,0.14-0.1,0.16l-0.74,0.37c-0.02,0.01-0.05,0.02-0.07,0.02
			c-0.06,0-0.11-0.03-0.15-0.08C79.89,50.76,79.87,50.7,79.87,50.64"/>
		<path class="st21" d="M83.16,55.7v-4.04c0-0.06,0.02-0.11,0.06-0.15c0.04-0.04,0.09-0.06,0.15-0.06h1.16c0.93,0,1.4,0.41,1.4,1.24
			c0,0.34-0.08,0.61-0.23,0.81c-0.15,0.2-0.36,0.33-0.63,0.39l0.85,1.61c0.02,0.03,0.02,0.06,0.02,0.09c0,0.08-0.04,0.16-0.13,0.23
			c-0.08,0.07-0.17,0.1-0.27,0.1c-0.11,0-0.19-0.06-0.26-0.19L84.42,54H83.8v1.71c0,0.07-0.03,0.12-0.09,0.16
			c-0.06,0.04-0.14,0.06-0.23,0.06c-0.09,0-0.16-0.02-0.22-0.06C83.19,55.82,83.16,55.77,83.16,55.7 M83.8,53.48h0.73
			c0.5,0,0.76-0.24,0.76-0.73s-0.25-0.73-0.76-0.73H83.8V53.48z"/>
		<path class="st21" d="M87.31,55.7v-4.03c0-0.14,0.11-0.21,0.32-0.21c0.11,0,0.21,0.03,0.27,0.08c0.07,0.05,0.14,0.15,0.21,0.29
			l1.35,2.64v-2.8c0-0.07,0.03-0.12,0.09-0.16c0.06-0.03,0.14-0.05,0.23-0.05c0.09,0,0.17,0.02,0.23,0.05
			c0.06,0.03,0.09,0.09,0.09,0.16v4.04c0,0.07-0.03,0.12-0.09,0.16c-0.06,0.04-0.14,0.06-0.23,0.06c-0.17,0-0.3-0.08-0.38-0.24
			l-1.46-2.77v2.8c0,0.07-0.03,0.12-0.09,0.16c-0.06,0.04-0.14,0.06-0.23,0.06c-0.08,0-0.16-0.02-0.23-0.06
			C87.35,55.82,87.31,55.77,87.31,55.7"/>
		<path class="st21" d="M91.67,55.7v-4.04c0-0.07,0.03-0.12,0.09-0.16c0.06-0.03,0.14-0.05,0.23-0.05c0.09,0,0.17,0.02,0.23,0.05
			c0.06,0.03,0.09,0.09,0.09,0.16v4.04c0,0.07-0.03,0.12-0.09,0.16c-0.06,0.04-0.14,0.06-0.23,0.06c-0.08,0-0.16-0.02-0.23-0.06
			C91.71,55.82,91.67,55.77,91.67,55.7"/>
		<path class="st21" d="M93.83,54.59v-1.77c0-0.47,0.13-0.81,0.37-1.03c0.25-0.22,0.58-0.33,0.98-0.33c0.41,0,0.75,0.1,1,0.31
			c0.25,0.21,0.38,0.47,0.38,0.8c0,0.13-0.02,0.22-0.07,0.27c-0.05,0.05-0.13,0.07-0.25,0.07c-0.21,0-0.32-0.07-0.32-0.21
			c-0.02-0.44-0.26-0.65-0.71-0.65c-0.49,0-0.73,0.26-0.73,0.79v1.77c0,0.52,0.25,0.79,0.74,0.79c0.15,0,0.27-0.02,0.37-0.06
			c0.1-0.04,0.17-0.1,0.21-0.19c0.04-0.08,0.07-0.15,0.09-0.21c0.02-0.06,0.03-0.14,0.04-0.23c0.01-0.14,0.12-0.21,0.32-0.21
			c0.12,0,0.2,0.02,0.25,0.07c0.05,0.05,0.08,0.14,0.08,0.27c0,0.34-0.13,0.61-0.38,0.82c-0.26,0.21-0.59,0.32-1.01,0.32
			c-0.4,0-0.73-0.11-0.98-0.33C93.95,55.41,93.83,55.06,93.83,54.59"/>
		<path class="st21" d="M97.87,54.59v-1.77c0-0.47,0.12-0.81,0.37-1.03c0.25-0.22,0.58-0.33,0.99-0.33s0.75,0.11,1,0.33
			c0.25,0.22,0.38,0.56,0.38,1.03v1.77c0,0.47-0.13,0.81-0.38,1.03c-0.25,0.22-0.58,0.33-1,0.33s-0.75-0.11-0.99-0.33
			C97.99,55.41,97.87,55.06,97.87,54.59 M98.52,54.59c0,0.52,0.24,0.79,0.72,0.79c0.23,0,0.41-0.06,0.54-0.2
			c0.13-0.13,0.19-0.33,0.19-0.59v-1.77c0-0.26-0.06-0.46-0.19-0.59c-0.13-0.13-0.3-0.2-0.54-0.2c-0.48,0-0.72,0.26-0.72,0.79V54.59
			z"/>
		<path class="st21" d="M101.88,55.25c0-0.08,0.03-0.15,0.09-0.23c0.06-0.08,0.12-0.12,0.2-0.12c0.04,0,0.1,0.03,0.16,0.08
			c0.06,0.05,0.13,0.11,0.19,0.17c0.06,0.06,0.15,0.12,0.28,0.17c0.12,0.05,0.26,0.08,0.42,0.08c0.23,0,0.42-0.06,0.56-0.17
			c0.14-0.11,0.21-0.27,0.21-0.48c0-0.2-0.07-0.36-0.2-0.49c-0.14-0.13-0.3-0.24-0.49-0.31c-0.19-0.08-0.39-0.16-0.58-0.25
			c-0.2-0.09-0.36-0.22-0.5-0.4c-0.14-0.18-0.2-0.4-0.2-0.67c0-0.21,0.04-0.4,0.13-0.56c0.08-0.16,0.2-0.28,0.34-0.36
			c0.14-0.09,0.29-0.15,0.45-0.19c0.16-0.04,0.32-0.06,0.5-0.06c0.11,0,0.22,0.01,0.34,0.02c0.12,0.01,0.24,0.04,0.36,0.07
			c0.12,0.03,0.22,0.08,0.29,0.14c0.08,0.06,0.12,0.13,0.12,0.21c0,0.08-0.02,0.15-0.07,0.23c-0.05,0.08-0.11,0.12-0.2,0.12
			c-0.04,0-0.1-0.02-0.16-0.06c-0.07-0.04-0.16-0.08-0.28-0.12c-0.12-0.04-0.25-0.06-0.4-0.06c-0.23,0-0.42,0.05-0.55,0.14
			c-0.14,0.09-0.21,0.23-0.21,0.42c0,0.12,0.04,0.23,0.11,0.32c0.07,0.09,0.17,0.16,0.28,0.22c0.12,0.06,0.24,0.11,0.39,0.17
			c0.14,0.06,0.28,0.12,0.42,0.19c0.14,0.07,0.27,0.16,0.38,0.25c0.12,0.1,0.21,0.23,0.28,0.4c0.07,0.17,0.11,0.36,0.11,0.58
			c0,0.42-0.13,0.74-0.38,0.96c-0.25,0.22-0.59,0.33-1.01,0.33c-0.37,0-0.69-0.08-0.95-0.23C102.01,55.58,101.88,55.41,101.88,55.25
			"/>
	</g>
</g>
<g id="Capa_6">
</g>
</svg>
