<?xml version="1.0" encoding="utf-8"?>
<!-- Generator: Adobe Illustrator 27.9.0, SVG Export Plug-In . SVG Version: 6.00 Build 0)  -->
<svg version="1.1" xmlns="http://www.w3.org/2000/svg" xmlns:xlink="http://www.w3.org/1999/xlink" x="0px" y="0px"
	 viewBox="0 0 126.08 75.06" style="enable-background:new 0 0 126.08 75.06;" xml:space="preserve">
<style type="text/css">
	.st0{fill:#F0F0F0;}
	.st1{display:none;}
	.st2{display:inline;fill:#1C1824;}
	.st3{fill:none;stroke:#D4D4D4;stroke-width:2.3506;stroke-miterlimit:10;}
	.st4{fill:none;stroke:#E3E3E3;stroke-width:0.5;stroke-miterlimit:10;}
	.st5{fill:none;stroke:#FFFFFE;stroke-width:0.8855;stroke-miterlimit:10;}
	.st6{fill:#FFFFFE;}
	.st7{fill:#16C0FE;}
	.st8{fill:#0000D7;}
	.st9{fill:#FFDE00;}
	.st10{fill:#6B6B6B;}
	.st11{fill:#696969;}
	.st12{fill:none;stroke:#474747;stroke-width:0.348;stroke-miterlimit:10;}
	.st13{fill:none;stroke:#474747;stroke-width:0.4442;stroke-miterlimit:10;}
	.st14{fill:none;stroke:#D2B356;stroke-width:5.9189;stroke-miterlimit:10;}
	.st15{fill:#D2B356;}
	.st16{fill:#FFFFFF;}
	.st17{fill:none;stroke:#000000;stroke-width:0.4956;stroke-miterlimit:10;}
	.st18{fill:none;stroke:#000000;stroke-width:1.6303;stroke-miterlimit:10;}
	.st19{fill:none;stroke:#A8A8A8;stroke-width:0.5;stroke-miterlimit:10;}
	.st20{display:inline;fill:none;stroke:#DBDBDB;stroke-width:0.4653;stroke-miterlimit:10;}
	.st21{fill:#303334;}
	.st22{clip-path:url(#SVGID_00000011010150408527759410000012838450415458834847_);fill:#B6B6B6;}
	.st23{fill-rule:evenodd;clip-rule:evenodd;fill:#303334;}
	.st24{fill:#262626;}
	.st25{fill:#424242;}
	.st26{fill:#595959;}
	.st27{fill:#A3A3A3;}
	.st28{fill:#606060;}
	.st29{fill:#848484;}
	.st30{fill:#040505;}
	.st31{fill-rule:evenodd;clip-rule:evenodd;fill:#2D2D2D;}
	.st32{fill-rule:evenodd;clip-rule:evenodd;fill:#989898;}
	.st33{fill:#4B4B4B;}
	.st34{fill:#373737;}
	.st35{fill:#1E1E1E;}
	.st36{clip-path:url(#SVGID_00000062188657247218596790000011389222212884495255_);}
	.st37{fill:#B29020;}
	.st38{clip-path:url(#SVGID_00000156554270003688248250000004251558848865039246_);}
	.st39{fill-rule:evenodd;clip-rule:evenodd;fill:#333333;}
	.st40{fill-rule:evenodd;clip-rule:evenodd;fill:#FFFFFF;}
	.st41{fill:#333333;}
	.st42{fill:#E3E3E3;}
	.st43{fill:#C7C7C7;}
	.st44{fill:#828282;}
	.st45{fill:#5D5D5D;}
	.st46{fill:#B7B7B7;}
	.st47{fill:#C1C1C1;}
	.st48{fill:#D9D9D9;}
	.st49{fill:#B2B2B2;}
	.st50{fill:#1D1D1D;}
	.st51{fill-rule:evenodd;clip-rule:evenodd;fill:#A8A8A8;}
	.st52{fill:#5C5C5C;}
	.st53{fill:#202020;}
	.st54{fill:#221F1F;}
	.st55{fill:#231F20;}
	.st56{fill:none;stroke:#221F1F;stroke-width:0.1371;}
	.st57{fill:#1D1D1B;}
	.st58{fill:#7A7A7A;}
	.st59{fill:none;stroke:#DBDBDB;stroke-width:0.4653;stroke-miterlimit:10;}
	.st60{clip-path:url(#SVGID_00000028311177387785126960000010478220241546467494_);fill:#B6B6B6;}
	.st61{clip-path:url(#SVGID_00000139254638814229265620000000381280388256595391_);}
	.st62{clip-path:url(#SVGID_00000098187954479816478520000002482476027259023010_);}
	.st63{fill:#A0A0A0;}
	.st64{fill-rule:evenodd;clip-rule:evenodd;fill:#D2B356;}
	.st65{fill:#9E9E9E;}
	.st66{clip-path:url(#SVGID_00000107568268243894964370000016237362776838107788_);}
	.st67{clip-path:url(#SVGID_00000003069721746178014930000006937133653218753185_);}
	.st68{clip-path:url(#SVGID_00000088848366006132388270000014478702879593595817_);}
	.st69{fill:#212121;}
</style>
<g id="Capa_2">
</g>
<g id="Capa_7" class="st1">
</g>
<g id="Capa_1">
</g>
<g id="lineas-logos">
</g>
<g id="marco-logos" class="st1">
</g>
<g id="logos">
	<rect x="0.2" y="-0.13" class="st59" width="126.08" height="75.06"/>
	<g>
		<path class="st30" d="M45.03,47.72c-2.68,0-3.94-1.92-3.94-4.04c0-2.13,1.25-4.04,3.94-4.04c2.7,0,3.94,1.89,3.94,4.04
			C48.97,45.8,47.71,47.72,45.03,47.72 M45.03,41.1c-1.73,0-2.52,1.21-2.52,2.58c0,1.36,0.8,2.58,2.52,2.58
			c1.71,0,2.51-1.23,2.51-2.58C47.55,42.3,46.76,41.1,45.03,41.1"/>
		<path class="st30" d="M54.2,47.72c-2.16,0-3.9-1.4-3.9-4.04c0-2.68,1.78-4.04,3.9-4.04c1,0,3.32,0.58,3.32,1.65
			c0,0.42-0.32,0.72-0.7,0.72c-0.13,0-0.24-0.04-0.34-0.11c-0.52-0.33-1.27-0.8-2.24-0.8c-1.87,0-2.51,1.4-2.51,2.63
			c0,1.13,0.65,2.55,2.49,2.55c0.91,0,1.85-0.44,2.38-0.79c0.1-0.07,0.22-0.11,0.34-0.11c0.38,0,0.7,0.3,0.7,0.72
			C57.63,47.25,55.08,47.72,54.2,47.72"/>
		<path class="st30" d="M63.71,41.43h-1.87v2.09c0,2.16,1.21,2.78,1.21,2.78c0.18,0.13,0.29,0.32,0.29,0.64
			c0,0.47-0.43,0.71-0.81,0.71c-0.69,0-2.11-1.31-2.11-4.19v-2.02h-1.57c-0.34,0-0.65-0.34-0.65-0.72v-0.08
			c0-0.4,0.3-0.72,0.65-0.72h1.57v-2.24c0-0.42,0.32-0.72,0.65-0.72h0.13c0.33,0,0.65,0.3,0.65,0.72v2.24h1.87
			c0.36,0,0.65,0.33,0.65,0.72v0.08C64.36,41.09,64.07,41.43,63.71,41.43"/>
		<path class="st30" d="M69.19,47.72c-2.68,0-3.94-1.92-3.94-4.04c0-2.13,1.24-4.04,3.94-4.04c2.71,0,3.94,1.89,3.94,4.04
			C73.13,45.8,71.87,47.72,69.19,47.72 M69.19,41.1c-1.73,0-2.51,1.21-2.51,2.58c0,1.36,0.8,2.58,2.51,2.58
			c1.71,0,2.52-1.23,2.52-2.58C71.7,42.3,70.92,41.1,69.19,41.1"/>
		<path class="st30" d="M78.92,47.72c-0.88,0-1.66-0.35-2.26-0.92v3.16c0,0.38-0.29,0.72-0.65,0.72h-0.08
			c-0.36,0-0.65-0.32-0.65-0.72v-9.36c0-0.41,0.29-0.72,0.65-0.72h0.08c0.35,0,0.65,0.32,0.65,0.72v0.1
			c0.66-0.65,1.49-1.06,2.26-1.06c2.71,0,3.94,1.89,3.94,4.04C82.86,45.8,81.6,47.72,78.92,47.72 M78.92,41.1
			c-1.04,0-1.87,0.61-2.26,1.45c0,0-0.15,0.51-0.15,1.17c0,0.34,0.04,0.71,0.15,1.09c0.39,0.85,1.22,1.45,2.26,1.45
			c1.72,0,2.52-1.23,2.52-2.58C81.44,42.3,80.65,41.1,78.92,41.1"/>
		<path class="st30" d="M90.45,47.64h-0.08c-0.35,0-0.65-0.32-0.65-0.72v-0.31c-0.48,0.66-1.12,1.11-1.94,1.11
			c-2.38,0-3.28-1.41-3.28-3.22v-3.9c0-0.41,0.29-0.72,0.65-0.72h0.08c0.36,0,0.65,0.32,0.65,0.72v3.9c0,1.2,0.46,1.69,1.92,1.69
			c0.95,0,1.93-0.88,1.93-1.69v-3.9c0-0.4,0.3-0.72,0.65-0.72h0.08c0.36,0,0.65,0.32,0.65,0.72v6.31
			C91.1,47.33,90.81,47.64,90.45,47.64"/>
		<path class="st30" d="M96.56,47.72c-1.89,0-3.99-0.58-3.99-1.61c0-0.78,0.69-0.78,0.69-0.78c0.11,0,0.22,0.03,0.32,0.09
			c1.14,0.72,2.39,0.83,2.98,0.83c0.69,0,1.85-0.24,1.85-1.09c0-0.62-0.61-0.85-1.04-0.86l-2.04-0.07
			c-1.66-0.06-2.49-1.06-2.49-2.24c0-1.13,0.75-2.33,3.21-2.33c1.46,0,3.07,0.59,3.07,1.41c0,0.45-0.34,0.72-0.69,0.72
			c-0.15,0-0.27-0.09-0.41-0.16c-0.52-0.25-1.16-0.54-2.2-0.54c-0.72,0-1.63,0.25-1.63,0.93c0,0.59,0.75,0.79,1.22,0.8l1.78,0.07
			c1.57,0.06,2.58,0.73,2.58,2.33C99.79,46.59,98.82,47.72,96.56,47.72"/>
		<path class="st31" d="M46,33.97l0.59-1.31c-2.72,1.75-4.81,1.15-5.97,0.62c-0.66-0.33-1.15-0.67-1.37-0.86
			c-2.24-1.89-1.57-4.05-0.33-5.92c1.51-2.28,1.11-5.38-1.03-7.19c-2.3-1.94-5.75-1.65-7.69,0.66c-1.94,2.3-1.65,5.74,0.66,7.69
			c0.63,0.53,1.34,0.89,2.09,1.09c2.85,0.77,5.38,3.52,2.72,6.67c-1.37,1.63-2.48,1.4-4.13,1.27c-1.69-0.13-3.43,0.53-4.61,1.92
			c-1.94,2.3-1.65,5.75,0.66,7.69c2.31,1.94,5.75,1.65,7.69-0.66c1.18-1.4,1.53-3.22,1.12-4.86c-0.38-1.5-0.57-2.73,0.64-4.16
			c1.18-1.4,2.7-1.58,4.09-1.36c0.95,0.15,2.5,0.26,2.5,0.26"/>
		<path class="st32" d="M40.73,35.22c6.74,0.8,6.7-7.2,6.7-11.43c-0.01-9.17,10-6.48,7.93,2.72C54.13,31.96,47.72,38.17,40.73,35.22
			"/>
	</g>
</g>
<g id="Capa_6">
</g>
</svg>
