<?xml version="1.0" encoding="utf-8"?>
<!-- Generator: Adobe Illustrator 27.9.0, SVG Export Plug-In . SVG Version: 6.00 Build 0)  -->
<svg version="1.1" xmlns="http://www.w3.org/2000/svg" xmlns:xlink="http://www.w3.org/1999/xlink" x="0px" y="0px"
	 viewBox="0 0 126.08 75.06" style="enable-background:new 0 0 126.08 75.06;" xml:space="preserve">
<style type="text/css">
	.st0{fill:#F0F0F0;}
	.st1{display:none;}
	.st2{display:inline;fill:#1C1824;}
	.st3{fill:none;stroke:#D4D4D4;stroke-width:2.3506;stroke-miterlimit:10;}
	.st4{fill:none;stroke:#E3E3E3;stroke-width:0.5;stroke-miterlimit:10;}
	.st5{fill:none;stroke:#FFFFFE;stroke-width:0.8855;stroke-miterlimit:10;}
	.st6{fill:#FFFFFE;}
	.st7{fill:#16C0FE;}
	.st8{fill:#0000D7;}
	.st9{fill:#FFDE00;}
	.st10{fill:#6B6B6B;}
	.st11{fill:#696969;}
	.st12{fill:none;stroke:#474747;stroke-width:0.348;stroke-miterlimit:10;}
	.st13{fill:none;stroke:#474747;stroke-width:0.4442;stroke-miterlimit:10;}
	.st14{fill:none;stroke:#D2B356;stroke-width:5.9189;stroke-miterlimit:10;}
	.st15{fill:#D2B356;}
	.st16{fill:#FFFFFF;}
	.st17{fill:none;stroke:#000000;stroke-width:0.4956;stroke-miterlimit:10;}
	.st18{fill:none;stroke:#000000;stroke-width:1.6303;stroke-miterlimit:10;}
	.st19{fill:none;stroke:#A8A8A8;stroke-width:0.5;stroke-miterlimit:10;}
	.st20{display:inline;fill:none;stroke:#DBDBDB;stroke-width:0.4653;stroke-miterlimit:10;}
	.st21{fill:#303334;}
	.st22{clip-path:url(#SVGID_00000034062451647781902070000010163853465772446361_);fill:#B6B6B6;}
	.st23{fill-rule:evenodd;clip-rule:evenodd;fill:#303334;}
	.st24{fill:#262626;}
	.st25{fill:#424242;}
	.st26{fill:#595959;}
	.st27{fill:#A3A3A3;}
	.st28{fill:#606060;}
	.st29{fill:#848484;}
	.st30{fill:#040505;}
	.st31{fill-rule:evenodd;clip-rule:evenodd;fill:#2D2D2D;}
	.st32{fill-rule:evenodd;clip-rule:evenodd;fill:#989898;}
	.st33{fill:#4B4B4B;}
	.st34{fill:#373737;}
	.st35{fill:#1E1E1E;}
	.st36{clip-path:url(#SVGID_00000123431119202152106150000011937425947836499621_);}
	.st37{fill:#B29020;}
	.st38{clip-path:url(#SVGID_00000080889404945547471290000013587210452587059634_);}
	.st39{fill-rule:evenodd;clip-rule:evenodd;fill:#333333;}
	.st40{fill-rule:evenodd;clip-rule:evenodd;fill:#FFFFFF;}
	.st41{fill:#333333;}
	.st42{fill:#E3E3E3;}
	.st43{fill:#C7C7C7;}
	.st44{fill:#828282;}
	.st45{fill:#5D5D5D;}
	.st46{fill:#B7B7B7;}
	.st47{fill:#C1C1C1;}
	.st48{fill:#D9D9D9;}
	.st49{fill:#B2B2B2;}
	.st50{fill:#1D1D1D;}
	.st51{fill-rule:evenodd;clip-rule:evenodd;fill:#A8A8A8;}
	.st52{fill:#5C5C5C;}
	.st53{fill:#202020;}
	.st54{fill:#221F1F;}
	.st55{fill:#231F20;}
	.st56{fill:none;stroke:#221F1F;stroke-width:0.1371;}
	.st57{fill:#1D1D1B;}
	.st58{fill:#7A7A7A;}
	.st59{fill:none;stroke:#DBDBDB;stroke-width:0.4653;stroke-miterlimit:10;}
	.st60{clip-path:url(#SVGID_00000172428338612556712480000011066082444727463834_);fill:#B6B6B6;}
	.st61{clip-path:url(#SVGID_00000110472178849557641900000012732025328337395866_);}
	.st62{clip-path:url(#SVGID_00000016755022610508215540000016029237036746783142_);}
	.st63{fill:#A0A0A0;}
	.st64{fill-rule:evenodd;clip-rule:evenodd;fill:#D2B356;}
	.st65{fill:#9E9E9E;}
	.st66{clip-path:url(#SVGID_00000090291297841595950600000003280492431910384043_);}
	.st67{clip-path:url(#SVGID_00000114785737591272790780000000631739031921922975_);}
	.st68{clip-path:url(#SVGID_00000026858494397260740490000013059724200855839647_);}
	.st69{fill:#212121;}
</style>
<g id="Capa_2">
</g>
<g id="Capa_7" class="st1">
</g>
<g id="Capa_1">
</g>
<g id="lineas-logos">
</g>
<g id="marco-logos" class="st1">
</g>
<g id="logos">
	<rect x="0.05" y="-0.13" class="st59" width="126.08" height="75.06"/>
	<g>
		<path class="st21" d="M44.45,37.55c0,3.19,1.66,4.92,4.38,4.92c1.33,0,2.51-0.47,3.53-1.25l-0.4-0.59
			c-0.92,0.66-1.92,1.11-3.17,1.11c-2.08,0-3.5-1.4-3.5-4.19c0-2.84,1.33-7.15,5.23-7.15c1.14,0,1.96,0.33,2.63,0.99l0.5-0.52
			c-0.83-0.83-1.85-1.21-3.15-1.21C46.04,29.67,44.45,34.36,44.45,37.55"/>
		<path class="st21" d="M57.61,24.75l-0.81,0.12L54.63,40.3c-0.21,1.51,0.43,2.18,1.63,2.18c0.4,0,0.85-0.12,1.21-0.26l-0.19-0.64
			c-0.31,0.12-0.62,0.21-0.95,0.21c-0.81,0-1.04-0.47-0.92-1.4L57.61,24.75z"/>
		<path class="st21" d="M62.65,24.87c-0.4,0-0.66,0.26-0.71,0.59c-0.05,0.4,0.19,0.71,0.62,0.71c0.4,0,0.66-0.26,0.71-0.62
			C63.31,25.18,63.1,24.87,62.65,24.87"/>
		<polygon class="st21" points="59.86,42.24 60.66,42.24 62.41,29.93 61.61,29.93 		"/>
		<path class="st21" d="M64.56,37.55c0,3.19,1.66,4.92,4.38,4.92c1.33,0,2.51-0.47,3.53-1.25l-0.4-0.59
			c-0.92,0.66-1.92,1.11-3.17,1.11c-2.08,0-3.5-1.4-3.5-4.19c0-2.84,1.33-7.15,5.23-7.15c1.14,0,1.96,0.33,2.63,0.99l0.5-0.52
			c-0.83-0.83-1.85-1.21-3.15-1.21C66.15,29.67,64.56,34.36,64.56,37.55"/>
		<path class="st21" d="M83.15,29.54c-1.35,0-2.56,0.45-3.86,1.9l0.07-1.62h-1.68L75.22,47.4l2.01-0.26l0.66-4.96
			c0.83,0.28,1.56,0.43,2.46,0.43c4.85,0,6.58-4.7,6.58-8.19C86.93,31.27,85.51,29.54,83.15,29.54 M80.45,41.01
			c-0.92,0-1.51-0.12-2.3-0.43L79.19,33c0.95-1,1.99-1.88,3.36-1.88c1.37,0,2.32,0.85,2.32,3.14
			C84.87,37.07,83.71,41.01,80.45,41.01"/>
		<path class="st21" d="M99.36,30.6c-1.59-0.78-2.84-1.07-4.35-1.07c-4.8,0-6.58,4.85-6.58,8.27c0,2.9,1.37,4.8,3.95,4.8
			c1.49,0,2.79-0.86,3.74-2.14c0.12,1.4,0.88,1.95,2.08,2.14l0.57-1.38c-0.5-0.19-0.8-0.45-0.8-1.16c0-0.17,0.02-0.36,0.05-0.57
			L99.36,30.6z M96.21,38.61c-0.99,1.38-2.01,2.4-3.38,2.4c-1.47,0-2.3-1.02-2.3-3.21c0-2.8,1.23-6.67,4.52-6.67
			c0.92,0,1.49,0.12,2.2,0.45L96.21,38.61z"/>
		<path class="st21" d="M107.24,29.54c-4.8,0-6.58,4.85-6.58,8.27c0,2.9,1.37,4.8,3.95,4.8c1.49,0,2.79-0.86,3.6-1.9l-0.97,6.7
			l2.01-0.24l2.34-16.56C110,29.82,108.75,29.54,107.24,29.54 M108.44,38.61c-0.99,1.38-2.01,2.4-3.38,2.4
			c-1.47,0-2.3-1.02-2.3-3.21c0-2.8,1.23-6.67,4.52-6.67c0.92,0,1.49,0.12,2.2,0.45L108.44,38.61z"/>
		<path class="st21" d="M112.52,42.07c-1.23,0-2.22,1-2.22,2.22c0,1.23,1,2.22,2.22,2.22c1.23,0,2.23-1,2.23-2.22
			C114.75,43.07,113.75,42.07,112.52,42.07 M112.52,46.16c-1.03,0-1.86-0.83-1.86-1.86c0-1.03,0.83-1.86,1.86-1.86
			c1.03,0,1.86,0.84,1.86,1.86C114.39,45.33,113.55,46.16,112.52,46.16"/>
		<path class="st21" d="M113.14,44.57c-0.07-0.07-0.15-0.14-0.25-0.2c0.2-0.03,0.36-0.1,0.46-0.22c0.1-0.11,0.15-0.26,0.15-0.43
			c0-0.14-0.03-0.26-0.1-0.37c-0.07-0.11-0.16-0.18-0.27-0.22c-0.11-0.04-0.29-0.06-0.54-0.06h-0.99v2.32h0.47v-0.97h0.09
			c0.11,0,0.19,0.01,0.24,0.03c0.05,0.02,0.1,0.05,0.14,0.1c0.04,0.05,0.13,0.16,0.25,0.34l0.34,0.51h0.56l-0.28-0.45
			C113.29,44.76,113.2,44.64,113.14,44.57 M112.42,44.06h-0.35v-0.59h0.37c0.19,0,0.3,0,0.34,0.01c0.08,0.01,0.13,0.04,0.18,0.09
			c0.04,0.05,0.06,0.11,0.06,0.19c0,0.07-0.02,0.13-0.05,0.17c-0.03,0.05-0.08,0.08-0.13,0.1
			C112.78,44.05,112.64,44.06,112.42,44.06"/>
		<path class="st33" d="M24.95,41.78l0.01,0.01l0.01,0.01L25,41.83l0.52,0.6v-5.27c0-0.95,0.71-1.74,1.62-1.86v-1.82l-3.69-1.79
			v0.53c0,0.46-0.37,0.83-0.83,0.83c-0.46,0-0.83-0.37-0.83-0.83v-1.33l-2.95-1.43l0,10.36l3.64,1.81c0.32-0.24,0.71-0.38,1.14-0.38
			C24.12,41.23,24.6,41.43,24.95,41.78 M23.24,37.24v2.6c0,0.2-0.15,0.35-0.34,0.35c-0.07,0-0.13-0.02-0.2-0.05l-0.78-0.44
			c-0.16-0.09-0.27-0.27-0.27-0.44v-2.91l-0.47-0.26c-0.2-0.11-0.34-0.34-0.35-0.55c-0.01-0.15,0.05-0.28,0.17-0.35l1.11-0.76
			c0.06-0.04,0.14-0.07,0.22-0.07c0.19,0,0.38,0.13,0.5,0.33l1.19,2.05c0.1,0.18,0.12,0.37,0.03,0.51
			c-0.07,0.12-0.19,0.19-0.33,0.19c-0.08,0-0.16-0.02-0.24-0.07L23.24,37.24z"/>
		<path class="st33" d="M27.72,32.35c0.02,0.01,0.03,0.01,0.05,0.01c0.02,0,0.03,0,0.05-0.01l2.25-1.1l0.65-0.32l0.81-0.4l1.27-0.62
			l3.08-1.51l-3.58-1.83l-8.12,4.07L27.72,32.35z"/>
		<polygon class="st33" points="27.78,24.24 25.21,25.54 23.36,26.48 19.6,28.39 22.32,29.72 30.49,25.63 		"/>
		<path class="st33" d="M29.28,37.16v1.3c0.05-0.01,0.11-0.01,0.17-0.01c0.6,0,1.15,0.28,1.51,0.76c0.17-0.05,0.35-0.08,0.54-0.08
			c0.67,0,1.27,0.35,1.61,0.91c0.14-0.03,0.29-0.05,0.44-0.05c0.57,0,1.07,0.26,1.42,0.66l1.66-0.83c0.02-0.01,0.03-0.03,0.03-0.05
			l0-10.24c0-0.04-0.03-0.05-0.05-0.05c-0.01,0-0.01,0-0.02,0.01L33,31.23l-0.72,0.35l-3.84,1.88c-0.02,0.01-0.03,0.03-0.03,0.05
			v2.06C28.93,35.91,29.28,36.49,29.28,37.16 M33.23,34.3v-0.17l0.04-0.02c-0.03-0.05-0.04-0.11-0.04-0.17V33.7v-0.17l0.05-0.03
			c-0.03-0.06-0.05-0.12-0.05-0.19v-1.1v-0.19l0.17-0.07l0,0l2.5-1.26l0.4-0.2v0.45v1.19v0.01v0.28v0.34v0.01v0.25v0.34
			c0,0.14-0.08,0.27-0.2,0.33l-2.34,1.17c-0.05,0.03-0.11,0.04-0.17,0.04c-0.2,0-0.37-0.17-0.37-0.37V34.3z"/>
		<path class="st34" d="M36.31,32.77v-0.34v-0.28v-0.01v-1.19V30.5l-0.4,0.2l-2.5,1.26l0,0l-0.17,0.07v0.19v1.1
			c0,0.07,0.02,0.14,0.05,0.19l-0.05,0.03v0.17v0.24c0,0.06,0.01,0.12,0.04,0.17l-0.04,0.02v0.17v0.24c0,0.2,0.17,0.37,0.37,0.37
			c0.06,0,0.11-0.01,0.17-0.04l2.34-1.17c0.13-0.06,0.2-0.19,0.2-0.33v-0.34V32.77L36.31,32.77z M33.51,33.7l2.53-1.27v0.34
			c0,0.04-0.02,0.07-0.05,0.08l-2.34,1.17c-0.01,0.01-0.03,0.01-0.04,0.01c-0.05,0-0.09-0.04-0.09-0.09V33.7z M33.51,34.54V34.3
			l2.53-1.27v0.34c0,0.04-0.02,0.07-0.05,0.08l-2.34,1.17c-0.01,0.01-0.03,0.01-0.04,0.01C33.55,34.63,33.51,34.59,33.51,34.54
			 M33.51,32.22c0,0,2.53-1.27,2.53-1.27l0,1.19c0,0.04-0.02,0.07-0.05,0.08l-2.34,1.17c-0.01,0.01-0.03,0.01-0.04,0.01
			c-0.05,0-0.09-0.04-0.09-0.09V32.22z"/>
		<path class="st34" d="M24.02,36.74l-1.19-2.05c-0.12-0.2-0.31-0.33-0.5-0.33c-0.08,0-0.15,0.02-0.22,0.07L21,35.19
			c-0.11,0.08-0.17,0.2-0.17,0.35c0.01,0.21,0.15,0.44,0.35,0.55l0.47,0.26v2.91c0,0.17,0.11,0.35,0.27,0.44l0.78,0.44
			c0.06,0.04,0.13,0.05,0.2,0.05c0.19,0,0.34-0.15,0.34-0.35v-2.6l0.24,0.14c0.08,0.04,0.16,0.07,0.24,0.07
			c0.14,0,0.26-0.07,0.33-0.19C24.13,37.11,24.12,36.92,24.02,36.74 M23.72,37.17c-0.03,0-0.06-0.01-0.1-0.03l-0.65-0.37v3.07
			c0,0.05-0.03,0.08-0.07,0.08c-0.02,0-0.04-0.01-0.06-0.02l-0.78-0.44c-0.07-0.04-0.13-0.13-0.13-0.2v-3.07l-0.61-0.34
			c-0.18-0.1-0.27-0.36-0.16-0.43l1.11-0.76c0.02-0.01,0.04-0.02,0.06-0.02c0.08,0,0.19,0.08,0.26,0.19l1.19,2.05
			C23.87,37.04,23.83,37.17,23.72,37.17"/>
		<path class="st34" d="M27.31,33.25l-4.13-2.01v0.97c0,0.3-0.25,0.55-0.55,0.55c-0.3,0-0.55-0.25-0.55-0.55v-1.5l-3.22-1.57
			c-0.03-0.01-0.06-0.02-0.09-0.02c-0.1,0-0.19,0.08-0.19,0.19l0,10.54c0,0.07,0.04,0.14,0.11,0.17l3.58,1.78
			c0.01-0.01,0.02-0.02,0.03-0.03c0.03-0.03,0.06-0.04,0.08-0.07c0.04-0.03,0.08-0.07,0.12-0.1l-3.64-1.81l0-10.36l2.95,1.43v1.33
			c0,0.46,0.37,0.83,0.83,0.83c0.46,0,0.83-0.37,0.83-0.83v-0.53l3.69,1.79v1.82c0.05-0.01,0.09-0.01,0.14-0.01
			c0.04,0,0.08-0.01,0.12-0.01c0.01,0,0.01,0,0.02,0v-1.84C27.42,33.35,27.37,33.28,27.31,33.25"/>
		<path class="st34" d="M36.24,28.26l-3.93-2.01l-8.74,4.38l4.03,1.96c0.05,0.03,0.11,0.04,0.17,0.04c0.06,0,0.12-0.01,0.17-0.04
			l2.25-1.1l0.65-0.32l0.81-0.39l1.27-0.62l3.31-1.62C36.35,28.48,36.35,28.32,36.24,28.26 M31.54,30.53l-0.81,0.4l-0.65,0.32
			l-2.25,1.1c-0.02,0.01-0.03,0.01-0.05,0.01c-0.02,0-0.04,0-0.05-0.01l-3.53-1.72l8.12-4.07l3.58,1.83l-3.08,1.51L31.54,30.53z"/>
		<path class="st34" d="M27.84,23.96c-0.02-0.01-0.04-0.02-0.07-0.02c-0.02,0-0.05,0.01-0.07,0.02l-2.62,1.33l-1.85,0.94l-3.99,2.03
			c-0.11,0.06-0.11,0.21,0,0.27l3.08,1.5c0.02-0.01,0.03-0.02,0.05-0.03l8.72-4.37L27.84,23.96z M19.6,28.39l3.76-1.91l1.85-0.94
			l2.57-1.31l2.71,1.39l-8.17,4.09L19.6,28.39z"/>
		<path class="st34" d="M36.91,29.53c0-0.19-0.16-0.33-0.33-0.33c-0.05,0-0.1,0.01-0.14,0.03l-3.55,1.74l-0.72,0.35l-3.84,1.88
			c-0.11,0.05-0.18,0.17-0.18,0.29v1.91c0.05,0.02,0.09,0.05,0.14,0.08c0.05,0.02,0.09,0.05,0.14,0.07v-2.06
			c0-0.02,0.01-0.04,0.03-0.05l3.84-1.88L33,31.23l3.55-1.74c0.01,0,0.01-0.01,0.02-0.01c0.02,0,0.05,0.02,0.05,0.05l0,10.24
			c0,0.02-0.01,0.04-0.03,0.05l-1.66,0.83c0.03,0.04,0.06,0.07,0.09,0.11c0.03,0.04,0.05,0.07,0.08,0.11l1.61-0.81
			c0.11-0.06,0.18-0.17,0.18-0.29L36.91,29.53z"/>
		<path class="st35" d="M22.64,43.99c0.59,1.04,1.24,2.03,1.81,2.89l0.01,0.01l0.01,0.02c0.42,0.63,0.81,1.23,1.1,1.73
			c0.24,0.4,0.81,1.62,0.93,1.86l0,0.01c0.05,0.11,0.16,0.18,0.28,0.18h6.61c0.13,0,0.25-0.09,0.29-0.21
			c0.12-0.38,1.19-3.75,1.19-5.03v-3.57c0-0.74-0.6-1.34-1.33-1.34c-0.18,0-0.36,0.04-0.52,0.11l-0.2,0.09l-0.08-0.21
			c-0.2-0.51-0.69-0.84-1.23-0.84c-0.2,0-0.4,0.05-0.58,0.13l-0.19,0.09l-0.1-0.19C30.39,39.28,29.94,39,29.44,39
			c-0.15,0-0.29,0.02-0.43,0.07l-0.29,0.1v-0.3v-1.71c0-0.74-0.6-1.34-1.33-1.34s-1.33,0.6-1.33,1.34v6.16v0.58l-0.38-0.43
			l-1.11-1.27l-0.02-0.02c-0.25-0.25-0.59-0.39-0.94-0.39h-0.01c-0.36,0-0.69,0.14-0.94,0.39C22.24,42.6,22.23,43.27,22.64,43.99
			 M23.11,42.6c0.13-0.13,0.31-0.2,0.5-0.21c0.19,0,0.37,0.07,0.5,0.2l0.01,0.01l0.01,0.01l2.01,2.3c0.06,0.07,0.14,0.11,0.23,0.11
			c0.04,0,0.07-0.01,0.11-0.02c0.12-0.05,0.2-0.16,0.2-0.29v-7.55c0-0.4,0.32-0.73,0.72-0.73c0.39,0,0.72,0.33,0.72,0.73v4.88
			c0,0.17,0.14,0.31,0.31,0.31c0.17,0,0.31-0.14,0.31-0.31v-1.69c0-0.4,0.32-0.73,0.72-0.73c0.4,0,0.72,0.33,0.72,0.73v2.38
			c0,0.17,0.14,0.31,0.31,0.31s0.31-0.14,0.31-0.31v-1.69c0-0.4,0.32-0.73,0.72-0.73s0.72,0.32,0.72,0.73v2.38
			c0,0.17,0.14,0.31,0.31,0.31c0.17,0,0.31-0.14,0.31-0.31v-1.3l0-0.22c0-0.4,0.32-0.73,0.72-0.73c0.39,0,0.72,0.33,0.72,0.73v3.57
			c0,1.03-0.87,3.91-1.05,4.47l-0.05,0.15h-0.16H27.1h-0.14l-0.06-0.12c-0.22-0.46-0.62-1.28-0.81-1.61
			c-0.3-0.52-0.7-1.13-1.13-1.78l0-0.01c-0.57-0.86-1.21-1.84-1.79-2.86C22.83,43.08,22.95,42.76,23.11,42.6"/>
	</g>
</g>
<g id="Capa_6">
</g>
</svg>
