<?xml version="1.0" encoding="utf-8"?>
<!-- Generator: Adobe Illustrator 27.9.0, SVG Export Plug-In . SVG Version: 6.00 Build 0)  -->
<svg version="1.1" xmlns="http://www.w3.org/2000/svg" xmlns:xlink="http://www.w3.org/1999/xlink" x="0px" y="0px"
	 viewBox="0 0 126.08 75.06" style="enable-background:new 0 0 126.08 75.06;" xml:space="preserve">
<style type="text/css">
	.st0{fill:#F0F0F0;}
	.st1{display:none;}
	.st2{display:inline;fill:#1C1824;}
	.st3{fill:none;stroke:#D4D4D4;stroke-width:2.3506;stroke-miterlimit:10;}
	.st4{fill:none;stroke:#E3E3E3;stroke-width:0.5;stroke-miterlimit:10;}
	.st5{fill:none;stroke:#FFFFFE;stroke-width:0.8855;stroke-miterlimit:10;}
	.st6{fill:#FFFFFE;}
	.st7{fill:#16C0FE;}
	.st8{fill:#0000D7;}
	.st9{fill:#FFDE00;}
	.st10{fill:#6B6B6B;}
	.st11{fill:#696969;}
	.st12{fill:none;stroke:#474747;stroke-width:0.348;stroke-miterlimit:10;}
	.st13{fill:none;stroke:#474747;stroke-width:0.4442;stroke-miterlimit:10;}
	.st14{fill:none;stroke:#D2B356;stroke-width:5.9189;stroke-miterlimit:10;}
	.st15{fill:#D2B356;}
	.st16{fill:#FFFFFF;}
	.st17{fill:none;stroke:#000000;stroke-width:0.4956;stroke-miterlimit:10;}
	.st18{fill:none;stroke:#000000;stroke-width:1.6303;stroke-miterlimit:10;}
	.st19{fill:none;stroke:#A8A8A8;stroke-width:0.5;stroke-miterlimit:10;}
	.st20{display:inline;fill:none;stroke:#DBDBDB;stroke-width:0.4653;stroke-miterlimit:10;}
	.st21{fill:#303334;}
	.st22{clip-path:url(#SVGID_00000086655780676654167150000015939591489057474480_);fill:#B6B6B6;}
	.st23{fill-rule:evenodd;clip-rule:evenodd;fill:#303334;}
	.st24{fill:#262626;}
	.st25{fill:#424242;}
	.st26{fill:#595959;}
	.st27{fill:#A3A3A3;}
	.st28{fill:#606060;}
	.st29{fill:#848484;}
	.st30{fill:#040505;}
	.st31{fill-rule:evenodd;clip-rule:evenodd;fill:#2D2D2D;}
	.st32{fill-rule:evenodd;clip-rule:evenodd;fill:#989898;}
	.st33{fill:#4B4B4B;}
	.st34{fill:#373737;}
	.st35{fill:#1E1E1E;}
	.st36{clip-path:url(#SVGID_00000166633844716303060310000009200734084262423691_);}
	.st37{fill:#B29020;}
	.st38{clip-path:url(#SVGID_00000175316829859222834060000014822851356878879374_);}
	.st39{fill-rule:evenodd;clip-rule:evenodd;fill:#333333;}
	.st40{fill-rule:evenodd;clip-rule:evenodd;fill:#FFFFFF;}
	.st41{fill:#333333;}
	.st42{fill:#E3E3E3;}
	.st43{fill:#C7C7C7;}
	.st44{fill:#828282;}
	.st45{fill:#5D5D5D;}
	.st46{fill:#B7B7B7;}
	.st47{fill:#C1C1C1;}
	.st48{fill:#D9D9D9;}
	.st49{fill:#B2B2B2;}
	.st50{fill:#1D1D1D;}
	.st51{fill-rule:evenodd;clip-rule:evenodd;fill:#A8A8A8;}
	.st52{fill:#5C5C5C;}
	.st53{fill:#202020;}
	.st54{fill:#221F1F;}
	.st55{fill:#231F20;}
	.st56{fill:none;stroke:#221F1F;stroke-width:0.1371;}
	.st57{fill:#1D1D1B;}
	.st58{fill:#7A7A7A;}
	.st59{fill:none;stroke:#DBDBDB;stroke-width:0.4653;stroke-miterlimit:10;}
	.st60{clip-path:url(#SVGID_00000039107505858447713140000004791867455928873143_);fill:#B6B6B6;}
	.st61{clip-path:url(#SVGID_00000129887982797551481460000011668896829691492016_);}
	.st62{clip-path:url(#SVGID_00000041978786354658460360000004953159409900029568_);}
	.st63{fill:#A0A0A0;}
	.st64{fill-rule:evenodd;clip-rule:evenodd;fill:#D2B356;}
	.st65{fill:#9E9E9E;}
	.st66{clip-path:url(#SVGID_00000065791800289757080820000013930875058153960373_);}
	.st67{clip-path:url(#SVGID_00000111165944965901974250000013504178252995364258_);}
	.st68{clip-path:url(#SVGID_00000070099970449353453710000008592367518091879054_);}
	.st69{fill:#212121;}
</style>
<g id="Capa_2">
</g>
<g id="Capa_7" class="st1">
</g>
<g id="Capa_1">
</g>
<g id="lineas-logos">
</g>
<g id="marco-logos" class="st1">
</g>
<g id="logos">
	<rect x="-0.12" class="st59" width="126.08" height="75.06"/>
	<g>
		<path class="st23" d="M28.62,25.72c-0.27-0.06-0.59-0.13-0.86-0.25c-0.13-0.06-0.26-0.14-0.35-0.16c-0.36-0.1-0.77-0.29-1.1-0.38
			c-0.29-0.04-0.66-0.07-1.02-0.04c-0.53-0.08-0.77-0.2-1.29,0.04c-0.24,0.1-0.79,0.36-1.15,0.27c-0.79-0.2-1.12,0.23-1.24,0.43
			c-0.14,0.22-0.44,0.33-0.55,0.48c-0.34,0.14-0.74,0.32-0.86,0.46c-0.12,0.15-0.35,0.07-0.45,0.2c0,0.15-0.22,0.36-0.44,0.48
			c-0.07,0.03-0.18,0.1-0.26,0.15c-0.09,0.03-0.18,0.08-0.21,0.11c-0.19,0.3-0.47,0.77-0.52,1.36c-0.12,0.28-0.28,0.7-0.28,1.33
			c-0.15,0.36-0.11,0.52-0.05,0.7c0.09,0.36,0.14,0.68,0.37,1c0.16,0.99-0.09,1.37,0.8,1.94c0.62,0.26,0.21,0.69,0.71,0.99
			c0.35,0.08,0.43,0.36,0.27,0.96c-0.04,0.36,0.16,0.87,0.25,1.35c-0.08,0.27-0.74,0.74-0.69,1.74c-0.24,0.4-0.24,0.8-0.27,1.12
			c-0.03,0.35-0.47,0.29-0.99,0.35c-0.26,0.05-0.57,0.13-0.78,0.18c-0.46,0.11-0.84,0.25-1.22,0.56c-0.33,0.15-0.7,0.33-0.82,0.45
			c-0.06,0.05,0.01,0.49-0.02,0.73c-0.03,0.12,0.02,0.31,0.22,0.55c0.06,0.28,0.21,0.5,0.4,0.5l0.26-0.05
			c0.22,0.09,1.34,1.37,1.9,1.51c0.27,0.14,1.29,1.42,1.75,1.65c0.79,0.35,1.71,1.13,2.46,1.18c0.32,0.28,0.54,0.63,0.88,0.83
			c0.31,0.17,0.79,0.18,0.92,0.17c0.16,0.08,0.01,0.15-0.2,0.24c-0.31,0.01-0.79,0.27-1.1,0.47c-0.24,0.16-0.96,0.44-1.35,0.63
			c-0.02,0.3,0.64,0.24,1.17,0.33c0.19,0.01,0.65-0.56,0.65-0.56c0.56-0.33,0.79-0.45,1.15-0.62c0.45-0.19,1.64,0.32,2.41,0.93
			c0.44,0.34,0.38,0.59,0.89,0.19c0.21-0.13,0.37-0.42-0.08-0.38c-0.18-0.08-0.37-0.21-0.57-0.32c-0.27-0.18-1.73-0.77-2.29-0.9
			c-0.08-0.03-0.02-0.12,0-0.15c0.45,0.2,1.07,0.44,1.74,0.46c0.27,0.09,0.78,0.25,1.2,0.15c1.27-0.36,1.05,0.35,1.9,0.13
			c0.87-0.22,1.84-1,1.95-1.95c-0.15-0.28,0.53-0.05,1.17-0.12c0.3-0.08,0.61-0.31,1.04-0.31c0.3,0,0.49-0.37,1.1-0.37
			c0.18,0,0.37-0.17,0.13-0.27c-0.51-0.22-1.01-0.41-1.5-0.2c-0.33-0.12-0.71-0.05-0.87-0.06c0.09-0.04,0.13-0.17,0.43-0.15
			c0.18,0-0.02-0.21,0.42-0.25c0.18,0.14,0.43,0.09,0.6-0.24c-0.2-0.24-0.16-0.28,0.32-0.31c0.17-0.01,0.63-0.13,1.25-0.75
			c0.12-0.08,0.37-0.42,0.62-0.7c0.36-0.2,0.51-0.45,0.58-0.56c0.02-0.04,0.11-0.27,0.19-0.35c0.17-0.15,0.5-0.34,0.35-0.49
			c-0.26,0-0.49,0.27-0.74,0.24c-0.47-0.08-0.69,0.07-1.01,0.25c-0.2,0.1-0.4,0.2-0.57,0.25c-0.28,0.35-0.77,0.45-0.83,0.85
			c-0.2,0.31-0.39,0.44-0.39,0.2c0-0.28,0.41-0.69,0.29-0.88c-0.12,0.01-0.17,0.05-0.22,0.2c-0.12,0.53-0.42,0.54-0.41,0.32
			c0.24-0.19,0.37-0.86,0.38-1.3c0.01-0.26-0.08-0.36-0.14-0.46c-0.01-0.24,0.03-0.44,0.06-0.5c-0.01-0.07-0.12-0.37-0.22-0.08
			c0,0.2-0.21,0.62-0.38,0.94c-0.47,0.41-0.4,0.82-0.55,0.86c-0.09-0.14-0.76-0.52-1.19-1.15c-0.43-0.62-0.96-1.06-1.19-1.39
			c-0.06,0-0.18-0.11-0.23-0.21c-0.21-0.1-0.24-0.46-1.73-0.67c-0.62,0-0.93-0.13-0.93-0.81c0-0.29,0.33-0.51,0.67-0.51
			c0.6-0.02,1.48-0.5,1.06-1.28c-0.72-0.72,0.42-0.44,0.05-1.24c-0.03-0.05,0-0.18,0.05-0.22c0.18-0.17,0.37-0.37,0.06-0.88
			c-0.08-0.48,0.06-0.68,0.39-0.66c1.02,0.07,1.11-0.31,0.91-1.01c-0.14-0.23-0.37-0.57-0.45-0.87c-0.12-0.43-0.47-0.97-0.61-1.16
			c-0.17-0.26,0.28-0.65,0.22-1.22c0.02-0.35-0.24-0.97-0.24-1.36c0-0.33-0.06-0.6-0.22-0.79c0.21-0.56-0.2-1.23-0.37-1.44
			C29.16,26.04,28.75,25.68,28.62,25.72 M33.82,45.02c0.15-0.01,0.25,0.09,0.23,0.17c-0.69,0.21-0.78,0.06-0.67-0.19
			c0.14-0.34,0.64-0.72,0.72-0.38c-0.02,0.1-0.28,0.16-0.39,0.23l-0.06,0.12C33.71,44.96,33.76,45.02,33.82,45.02 M26.94,42.17
			c-0.18,0-0.42,0.3-0.33,0.4c0.11,0.05,0.26-0.09,0.28-0.19C26.91,42.31,27.01,42.19,26.94,42.17 M26.35,42.2
			c-0.07,0.05-0.08,0.09-0.08,0.21c0.05,0,0.18-0.08,0.28-0.12c0.07-0.05,0.06-0.15,0-0.15C26.55,42.15,26.38,42.13,26.35,42.2
			 M26.35,42.09c0.09-0.02,0.06-0.1-0.03-0.11c-0.12-0.08-0.22,0.03-0.22,0.15C26.14,42.16,26.26,42.15,26.35,42.09 M27.22,42.53
			c0.02-0.03-0.07-0.06-0.13-0.05c-0.12,0.04-0.36,0.18-0.38,0.27l0.06,0.11C26.89,42.93,27.22,42.63,27.22,42.53 M26.15,41.62
			c-0.01-0.05-0.23,0.06-0.22,0.16l0.06,0.06c0.05,0,0.15-0.04,0.2-0.12L26.15,41.62 M18.6,41.5c-0.08,0.13-0.4,0.08-0.64,0.16
			c-0.29,0.08-0.9,0.23-1.23,0.33c-0.38,0.12-0.7,0.48-0.85,0.46c-0.35-0.05-0.25-0.41,0.45-0.55c0.18-0.03,0.34-0.18,0.34-0.23
			c-0.03-0.16-0.32-0.07-0.41,0.01c-0.23,0.23-0.38,0.2-0.38,0.16c0-0.04,0.16-0.18,0.35-0.23c0.09-0.07,0.25-0.18,0.33-0.2
			c0.17-0.19,0.35-0.31,0.71-0.43c0.41-0.12,0.86-0.22,1.33-0.22c0.36-0.05,0.68-0.06,0.85-0.16c0.22,0.05,0.19,0.26,0.33,0.39
			l-0.17,0.18c0.01,0.1,0.27,0.08,0.25,0.2c-0.04,0.24-0.54,0.19-0.8,0.04C18.5,41.08,18.6,41.44,18.6,41.5 M20.5,40.41
			c0.43,0.19,0.47,0.94-0.53,0.39c-0.24-0.15-0.42-0.39-0.25-0.72c-0.18-0.91,0.15-1.02,0.23-0.38
			C19.99,39.94,20.48,40.11,20.5,40.41 M21.89,39.74c0.13,0.45,0.56,0.88,0.35,1.32c-0.18,0.38-0.52,0.15-0.52-0.56
			c0-0.2-0.18-0.37-0.29-0.48c-0.12-0.1-0.27-0.17-0.34-0.22c-0.12-0.09-0.27-0.28-0.17-0.42c0.03-0.36,0.22-0.64,0.35-0.45
			C21.4,39.15,21.78,39.46,21.89,39.74 M21.88,40.45c-0.2,0,0.02,0.34,0.1,0.47C22.07,40.85,22.05,40.53,21.88,40.45 M21.1,41.56
			c-0.04,0.03-0.21,0.13-0.27,0.16c-0.76,0.38-0.74-0.35-0.36-0.56C20.72,41.02,21.12,41.13,21.1,41.56 M33.83,44.29
			c-0.29,0.18-0.59,0.45-0.69,0.76c-0.22,0.66-0.76,1.43-1.15,0.33c-0.02-0.1,0-0.26-0.17-0.41c-0.24-0.25-0.5-0.62-0.58-1.04
			c-0.06-0.2-0.13-0.39-0.3-0.57c-0.05-0.06-0.22-0.15-0.2-0.35c-0.17-0.26-0.39-0.54-0.65-0.76c-0.42-0.35-0.99-1.38-0.3-0.7
			c0.08,0.04,0.06-0.36-0.01-0.42c-0.13-0.13-0.33-0.13-0.39-0.18c-0.28-0.16,0-0.18,0.09-0.15c0.02,0,0.16-0.01,0.11-0.07
			c-0.35-0.11-0.91-0.31-1.21-0.6c-0.56-0.09-0.71-0.46-0.13-0.27c0.73,0.22,1.56-0.04,2.77,1.54c0.82,1.07,1.48,1.61,1.72,1.8
			c0.13,0.12,0.97,0.51,0.97,0.73C33.89,43.95,33.83,44.23,33.83,44.29 M33.04,44.88c0.01-0.1-0.01-0.15-0.08-0.14
			c-0.17,0-0.33,0.5-0.33,0.62C32.74,45.36,33.04,45,33.04,44.88 M32.72,44.54c-0.12-0.06-0.38,0.31-0.38,0.42l0.06,0.06
			C32.52,45.03,32.94,44.66,32.72,44.54 M31.68,43.15c-0.2-0.12-0.18-0.36-0.33-0.43c-0.11,0-0.35-0.18-0.46-0.39
			c-0.37-0.17-1-1-0.99-0.65c0,0.18,0.25,0.4,0.38,0.56c0.34,0.42,0.94,0.74,1.13,1.21c0.17,0.38,0.57,1.07,0.74,1.23
			c0.16,0.06,0.2-0.01,0.24-0.04c0.11-0.05,0.17-0.22,0.08-0.28c-0.4,0-0.09-0.21-0.09-0.38c-0.01,0-0.2-0.01-0.2-0.1
			c0-0.18-0.11-0.3-0.22-0.24c-0.07-0.15-0.1-0.26-0.25-0.28C31.64,43.34,31.68,43.19,31.68,43.15 M17.12,42.7
			c-0.67,0.71-1.35,0.09-0.57-0.28c0.17-0.08,0.55-0.21,0.87-0.34c0.46-0.18,0.94-0.37,1.26-0.21c0.04,0.07-0.44,0.19-0.66,0.27
			C17.57,42.17,17.4,42.42,17.12,42.7 M22.12,41.45c0.41,0.12,0.79,0.27,1.05,0.5c0.24,0.18,0.51,0.3,0.76,0.41
			c0.43,0.19,1,0.75,1.2,1.1c0.4,0.35,0.56,0.49,0.68,0.83c-0.23,0-0.51-0.23-0.72-0.51c-0.3-0.23-0.67-0.43-0.71-0.76
			c-0.03-0.29-0.27-0.43-0.38-0.27c0,0.06,0.11,0.23,0.17,0.28c-0.17,0.06-0.69-0.39-0.9-0.64c-0.19-0.11-0.47-0.47-0.71-0.57
			c-0.35-0.07-1.22-0.32-1.23-0.38C21.29,41.22,22.12,41.45,22.12,41.45 M24.02,47.49c-0.09-0.13-0.24-0.12-0.31-0.07
			c-0.02,0.08,0.04,0.21,0.28,0.31c0.15,0.05,0.29,0.41,0.35,0.2C24.41,47.81,24.13,47.61,24.02,47.49 M24.66,47.56
			c-0.06-0.06-0.13-0.15-0.19-0.2c-0.08-0.11-0.21-0.24-0.31-0.18c-0.12,0.08-0.06,0.16,0.04,0.23c0.24,0.11,0.42,0.62,0.59,0.68
			l0.1-0.1C24.95,47.88,24.76,47.66,24.66,47.56 M22.57,45.19c0.08,0.12,0.11,0.15,0.15,0.21c0.06,0.1,0.1,0.24,0.13,0.27
			c-0.01,0.08-0.15,0.14-0.18,0.03c-0.05-0.22-0.29-0.23-0.29-0.39C22.08,44.85,22.6,45.05,22.57,45.19 M23.07,44.08
			c-0.08-0.08-0.31-0.29-0.43-0.46c-0.35-0.56-0.66-1.7-0.99-1.32c0,0.06,0.05,0.12,0.13,0.22c0.23,0.36,0.49,0.93,0.71,1.5
			c0.28,0.48,0.44,1.09,0.53,1.51c0.24,0.84,0.77,1.05-0.19,1.16c-0.03,0-0.19,0.05-0.16,0.15c0.35,0.36,0.91,0.12,0.99-0.06
			c0.2,0.19,0.23-0.01,0.24-0.06c0.02-0.1-0.06-0.18-0.22-0.21c-0.06-0.02-0.19-0.43-0.29-0.63c-0.01-0.03-0.05-0.1,0-0.15
			l0.13,0.13c0.12,0.07,0.22,0.01,0.12-0.15c-0.02-0.04-0.12-0.13-0.2-0.21c-0.36-0.39-0.73-1.46-0.01-0.47
			c0.18,0.24,0.22,0.63,0.57,0.8C24.45,45.8,23.26,44.46,23.07,44.08 M23.62,43.64c-0.05-0.05-0.12-0.14-0.23-0.26
			c-0.6-0.81-1.02-1.26-1.32-1.14c-0.05,0.05,0,0.12,0.05,0.13c0.36,0.08,0.9,1.09,1.14,1.28c0.18,0.13,0.68,0.92,0.96,0.92
			l0.1-0.09c0.04-0.04-0.07-0.13-0.14-0.19C24.01,44.15,23.78,43.86,23.62,43.64 M24.67,44.88c-0.06-0.13-0.23-0.27-0.33-0.14
			c0.06,0.13,0.16,0.26,0.19,0.37C24.7,45.27,24.91,45.19,24.67,44.88 M25.26,45.28c-0.09-0.09-0.23-0.13-0.36-0.03
			c0,0.12,0.05,0.17,0.13,0.2c0.19,0.04,0.35,0.18,0.46,0.29c0.13,0.1,0.29-0.04,0.25-0.19C25.71,45.48,25.56,45.36,25.26,45.28
			 M28.12,45.72c-0.06,0,0.04,0.24,0.14,0.24C28.44,45.92,28.29,45.59,28.12,45.72 M27.01,47.12c-0.75,0.02-1.01-0.09-1.46-0.28
			c-0.29-0.13-0.61-0.27-0.81-0.44c-0.19-0.17-0.29-0.2-0.35-0.05c0,0.13,0.12,0.25,0.46,0.36c0.82,0.84,1.65,1.16,1.98,1.16
			c0.16,0.07,0.22-0.19,0.03-0.17c-0.12,0-0.56-0.3-0.67-0.42c0.66,0.03,1.74,0.52,2.54,0.31c0.43-0.1,1.01-0.72,1.22-0.9
			c0.12-0.11,0.27-0.24,0.32-0.31c0.05-0.09,0.24-0.47,0.06-0.33c-0.18,0.15-1.14,1.1-1.49,1.17c-0.22,0.04-0.42,0.14-0.64,0.14
			l-0.23-0.03C27.69,47.32,27.29,47.12,27.01,47.12 M30.79,46.56c-0.23-0.11-0.04,0.22,0.02,0.28
			C31.01,46.79,30.89,46.67,30.79,46.56 M30.64,46.71c-0.11-0.09-0.19-0.07-0.23,0.02c0,0.17,0.12,0.34,0.28,0.34
			C30.88,47.09,30.7,46.77,30.64,46.71 M31.2,48.03c-0.25,0.57-0.83,0.87-1.25,0.94c-0.41,0.23-0.48-0.11-0.62-0.19
			c-0.19-0.04-0.58-0.09-0.8,0c-0.77,0.34-1.79-0.01-2.45-0.15c-0.42-0.08-0.7-0.26-1.04-0.35c-0.15-0.03-0.29,0.1-0.42,0.06
			c-0.19-0.06-0.52-0.01-0.94-0.08c-0.28-0.03-0.63-0.52-0.78-0.65c-0.12-0.09-0.3-0.21-0.39-0.28c-0.15-0.11-0.17-0.38-0.19-0.57
			c-0.01-0.06-0.01-0.35-0.01-0.4c-0.02-0.23-0.17-0.45-0.17-0.66c0-0.17-0.11-0.41-0.11-0.56c0-0.1-0.11-0.31-0.11-0.4
			c0-0.23-0.08-0.6-0.08-0.72c0-0.23-0.21-0.64-0.21-1.01c0-0.33-0.14-0.8-0.37-1.03c0-0.19-0.05-0.27,0.4-0.15
			c0.69,0.21,0.85,0.23,2.05,1.29c0.48,0.37,1.06,0.63,1.49,1.11c0.31,0.19,0.69,0.37,0.94,0.45c0.37,0.14,2.15,0.88,2.15,0.43
			c0.01-0.4-0.98-0.24-1.76-0.58c-0.54-0.22-0.65-0.84-1.02-1.05c-0.1-0.05-0.25-0.16-0.34-0.24c0.06-0.01,0.15-0.06,0.2-0.03
			c0.2,0.1,0.5,0.27,0.82,0.4c0.11,0.04,0.28,0.08,0.36,0.14c0.3,0.19,0.73,0.31,1.02,0.4c0.17,0.03,0.4,0.19,0.43,0.28
			c0.15,0.5,0.45,0.14,0.45-0.36c0-0.1,0.09-0.34,0.09-0.63c0-0.13-0.06-0.39-0.11-0.66c0.07-0.31-0.05-0.81-0.23-1
			c-0.37-0.39,0.37-0.22,0.25-0.33c-0.37-0.28-0.59-0.38-0.76-0.45c-0.23-0.18-0.13-0.52,0.43-0.09c0.57,0.02,1.07,0.46,1.09,1.04
			c0.01,0.16,0.41,0.69,0.41,1.03c0,0.34-0.13,0.15-0.29-0.08c-0.15-0.37-0.25-1.18-0.45-0.78c0,0.44,0.34,0.79,0.31,1.26
			c0.09,0.32,0.02,0.74-0.01,1.02c-0.02,0.12-0.12,0.34-0.08,0.62c-0.07,0.17-0.19,0.23-0.18,0.48c0,0,0.04,0.08,0.02,0.16
			c-0.09,0.18-0.06,0.38-0.06,0.6c0.05,0.24-0.18,0.26-0.17,0.01c-0.01-0.33-0.2-0.41-0.29-0.23c0.06,0.12,0.06,0.24-0.04,0.34
			c-0.15-0.2-0.2-0.08-0.39,0c-0.16-0.27-0.26-0.16-0.36-0.05c-0.05-0.1-0.04-0.15-0.04-0.21l-0.19-0.01
			c-0.27-0.01-0.49-0.22-0.82-0.21c-0.24-0.14-0.57-0.36-0.67-0.14c0,0.4,1.72,0.77,2.06,0.85c0.54,0.17,0.98,0.08,1.08-0.05
			c0.08-0.09,0.12-0.18,0.08-0.28c-0.05-0.21-0.05-0.29-0.03-0.43c0.34-0.7,0.46-1.45,0.5-1.64c0.08-0.12,0.24-0.08,0.2,0.23
			c0.04,0.17-0.02,0.89-0.13,1.12c0.01,0.23,0.09,0.28,0.1,0.28c0.17-0.02,0.25-0.28,0.23-1.22c-0.01-0.39-0.03-0.61-0.03-1.05
			c-0.04-0.22-0.06-0.47-0.12-0.66c-0.28-0.85,0.1-0.62,0.34-0.24c0.25,0.41,0.28,1.07,0.2,1.47c0.07,0.35,0.35,0.17,0.28-0.02
			c-0.34-0.9,0.23-0.82,0.18,0.1c0.03,0.25,0,0.46-0.05,0.63c-0.18,0.63,0.22,0.9,0.28-0.46c0.48,0.57,0.24,0.94,0.12,1.17
			c-0.03,0.11-0.08,0.21-0.08,0.25c-0.02,0.05-0.09,0.1-0.14,0.12c0.02,0.16,0.2,0.26,0.2,0.37c0,0.16-0.1,0.19-0.26-0.04l0.01,0.28
			c0.17,0.29,0.16,0.59,0.02,0.85c0.06,0.06,0.17,0.05,0.23-0.02c0-0.28,0.15-0.79,0.2-1.04c0.07-0.24,0.11-0.53,0.12-0.68
			c0.02-0.47,0.34-0.85,0.34,0.23c0,0.27-0.11,0.67-0.23,1.04C31.58,47.38,31.43,47.78,31.2,48.03 M20.8,43.91
			c-0.12-0.06-0.17-0.04-0.21,0.03c0,0.17,0.27,0.27,0.4,0.27C21.02,44.09,20.9,44,20.8,43.91 M20.98,44.43
			c-0.1-0.07-0.25-0.25-0.28-0.08c0,0.17,0.13,0.39,0.29,0.39C21.1,44.62,21.09,44.48,20.98,44.43 M20.75,44.85
			c-0.17,0-0.09,0.49,0.19,0.38C21,45.09,20.92,44.83,20.75,44.85 M20.92,45.54c0.02-0.16-0.06-0.14-0.16-0.12
			c-0.06,0-0.15,0.04-0.23,0.12c0,0.1,0,0.27,0.06,0.4C20.64,45.88,20.92,45.6,20.92,45.54 M20.93,43.89
			c0.12,0.03,0.4,0.21,0.48,0.33c0.06,0.12,0.26,0.23,0.26,0.49c0,0.05,0.05,0.3,0.05,0.34c0,0.05-0.18,0-0.4-0.03
			c-0.1-0.03-0.14,0.2,0.05,0.23c0.05,0.01,0.37,0.16,0.42,0.17c0.08,0.02,0.21,0.19,0.02,0.19c-0.04,0-0.23-0.07-0.27-0.14
			c-0.04-0.05-0.17-0.1-0.22,0c-0.06,0.1,0.09,0.24,0.26,0.28c0,0,0.1,0.03,0.13,0.04c0.04,0.02,0.17,0.14,0.17,0.14
			c0.04,0,0.04,0.08,0.06,0.1c-0.14,0.03-0.37-0.1-0.44-0.1c-0.13,0-0.34,0.08-0.03,0.22c0,0,0.14,0.08,0.28,0.08
			c0.17,0,0.27,0.1,0.24,0.19c-0.01,0.08-0.24,0-0.24-0.01c0-0.03-0.23-0.14-0.28-0.15c-0.01,0-0.13-0.09-0.2,0.02
			c0.03,0.08,0.22,0.18,0.32,0.23c0.05,0.03,0.29,0.16,0.32,0.17c0.04,0.03,0.07,0.13,0.1,0.15c-0.15,0.07-0.21-0.13-0.4-0.18
			c-0.02,0-0.27-0.08-0.4-0.08c-0.12,0-0.26-0.06-0.36-0.06c-0.07,0-0.14-0.08-0.21-0.08c-0.01,0-0.24-0.05-0.24-0.05
			c-0.12-0.07-0.29-0.24-0.43-0.34c-0.12-0.09-0.27-0.23-0.31-0.28c-0.06-0.04-0.3-0.32-0.34-0.36c-0.03-0.04-0.18-0.03-0.18-0.22
			c0-0.04-0.13-0.26-0.13-0.26c-0.09-0.09-0.34-0.35-0.61-0.43c-0.17-0.05-0.44-0.3-0.57-0.39c-0.02-0.02-0.24-0.29-0.26-0.31
			c-0.04-0.03-0.26-0.16-0.27-0.17c-0.24-0.15-0.19-0.54,0.21-0.81c0.23-0.16,0.36-0.2,0.42-0.42c0.05-0.17,0.51,0.05,0.89,0.18
			c0.13-0.09-0.17-0.27-0.27-0.28c-0.14-0.03-0.14-0.33,0.13-0.22c0.44,0.17,0.59-0.07,0.67-0.11c0.41,0.13,0.56,0.39,1.12,0.39
			c0-0.03,0.14-0.2-0.53-0.33c-0.44-0.2-0.33-0.52,0.16-0.32c0.17,0.28,0.6,0.2,0.77,0.32c0.23,0.16,0.43,0.56,0.57,1.44
			c0.08,0.2,0.13,0.4,0.13,0.54c-0.04,0-0.16-0.12-0.16-0.12c-0.05-0.19-0.05-0.4-0.05-0.48l-0.06-0.16c-0.03,0-0.17-0.12-0.26-0.12
			c-0.04,0-0.11-0.04-0.16,0.03c0.03,0.06,0.12,0.12,0.12,0.12c0.03,0.05,0.19,0.26,0.22,0.34c0,0-0.07,0.05-0.17,0.05
			c-0.02,0-0.16-0.14-0.16-0.14c-0.13-0.15-0.38-0.3-0.73-0.44c-0.47-0.47-0.62-0.04-0.2,0.13c0,0,0.37,0.28,0.54,0.37
			C20.62,43.62,20.87,43.89,20.93,43.89 M27.69,43.2c0.17,0,0.36-0.24,0.45-0.05c-0.21,0.06-0.55,0.31-0.81,0.48
			c-0.15,0.22-0.29,0.17-0.38,0.08c-0.02-0.05,0.13-0.13,0.08-0.22l-0.15-0.01c-0.31,0.15-0.41-0.06,0.11-0.34
			c0.34-0.18,0.69-0.55,0.91-0.55c0.43,0,0.22,0.37-0.1,0.4C27.72,43,27.64,43.15,27.69,43.2 M28.31,43.77
			c0,0.22-0.36,0.27-0.58,0.23c-0.46-0.1-0.43-0.11,0.07-0.45C27.97,43.42,28.54,43.23,28.31,43.77 M28.49,40.48
			c0.35,0.39-0.17,0.23-0.34,0.12c-0.06-0.04-0.24-0.02-0.29-0.03c-0.29-0.04-0.26-0.28-0.08-0.36
			C27.95,40.16,28.39,40.35,28.49,40.48 M28.49,34.1c0.22-0.22,0.31-0.18,0.45-0.09c0.18,0.05,0.46,0.15,0.43,0.59
			c0.03,0.3,0.41,0.56-0.08,0.87c-0.14-0.01-0.16-0.21-0.37-0.09c-0.08,0.09-0.2,0.15-0.35,0.15c-0.08,0-0.2-0.19-0.37-0.17
			c-0.12,0.12-0.23,0.35-0.29,0.46l0.1,0.1c0.17-0.08,0.27-0.26,0.59-0.15c0.48-0.16,0.68,0.01,0.7,0.17
			c0.03,0.18-0.07,0.27-0.2,0.21c-0.03,0-0.24-0.18-0.35-0.05c0,0.09-0.07,0.27-0.16,0.45c0.07,0,0.19,0.04,0.28,0.13
			c0.03,0.09,0.12,0.23,0.22,0.36c0.21,0.22,0.25,0.88-0.51,0.94c-0.14,0-0.39,0.01-0.66,0.01c-0.18,0.1-0.33-0.01-0.47-0.01
			c-0.13,0.21-0.16,0.08-0.33,0.08c0,0.07,0.03,0.19-0.03,0.21c-0.06,0-0.19-0.06-0.29-0.12c-0.21,0.12-0.56,0.14-0.81,0.08
			c-0.04-0.14-0.19-0.11-0.29-0.02c-0.05-0.06-0.02-0.16-0.13-0.2c-0.06,0-0.12,0.05-0.17,0.05c-0.06-0.09-0.09-0.24-0.2-0.09
			c0,0.17,0.16,0.33,0.25,0.17c0.05,0.04,0.14,0.21,0.37,0.23c0.15,0.21,0.45,0.39,0.64,0.4c-0.04,0.2,0.4,0.17,0.46,0.28
			c-0.11,0.04-0.17,0.11-0.11,0.21c-0.07,0.07-0.04,0.19-0.02,0.24c0.02,0.06,0.15,0.09,0.26,0.09c0,0-0.32,0-0.16,0.19
			c0.07,0.07,0.38,0.03,0.38,0.12c-0.04,0.08-0.23,0-0.29,0.11c-0.04,0.07,0.05,0.17,0.16,0.16c0.21,0,0.18,0.14,0.08,0.11
			c-0.08-0.02-0.24-0.04-0.3,0.07L27,40.47c0.13,0,0.22-0.02,0.24,0.05c0.04,0.05-0.19,0.01-0.24,0.12
			c-0.04,0.2,0.24,0.16,0.24,0.23c-0.07,0-0.12,0.05-0.18,0.05c-0.06,0.17,0.21,0.13,0.18,0.23c-0.03,0.1-0.22,0-0.24,0.1
			c0,0.09,0.07,0.13,0.25,0.23c0.03,0.11-0.18,0.09-0.23,0.12c-0.04,0.05-0.05,0.21,0.09,0.22c0.01,0-0.12,0.13,0.04,0.26
			c0.14,0.06,0.61,0.53,0.6,0.05c-0.45,0-0.46-0.77-0.18-0.88c0.13-0.04,0.25,0.1,0.27,0.18c0.08,0.2,0.27,0.56,0.24,0.69
			c0,0.09-0.1,0.26-0.47,0.35c-0.25,0.06-0.51,0.55-0.88,0.51c-0.48,0.43-0.57,0.4-0.92,0.22l-0.68-0.34
			c-0.49-0.45-1.08-0.77-1.58-0.98c-0.43-0.17-0.85-0.55-1.04-0.62c0.04-0.19,0.04-0.49,0.01-0.7c-0.03-0.27-0.2-0.65-0.37-0.96
			c-0.41-0.5-1.13-0.88-0.92-1.46c0.07-0.17-0.01-0.88-0.03-1.02c0.02-0.19,0.24-0.1,0.36-0.2v-0.05c-0.59-0.06-1.02-0.18-0.82-1.2
			c0-0.2-0.09-0.4-0.14-0.58c0.08,0,0.15,0.12,0.21,0.35c0.13,0.05,0.14-0.19,0.13-0.38c0.17,0.02,0.25,0.12,0.28,0.38
			c0,0.05-0.08,0.15-0.05,0.28c0.03,0.03,0.1,0.04,0.17,0c-0.03-0.19,0.08-0.17,0.2-0.05c0.5,0.22,0.25,0.34,0.25,0.5
			c0.06,0.05,0.15,0.03,0.19-0.03c0.08-0.11,0.33-0.36,0.58-0.6c0.05-0.44,0.42-0.7,0.65-0.72l0.06-0.08
			c-0.27-0.06-0.43-0.08-0.49-0.4c-0.02-0.15-0.08-0.29-0.16-0.39c-0.25-0.32-0.62-0.49-0.62-0.93c-0.08-0.26-0.08-0.66-0.06-1.14
			c0.02-0.31,0.3-0.73,0.57-0.76c0.26-0.11,0.51-0.25,0.8-0.09c0.16,0.09,0.44,0.48,0.3,0.9c-0.17,0.58-0.09,1,0.5,1.03
			c0.21,0.05,0.35-0.09,0.45-0.15c0.21-0.03,0.29-0.08,0.47-0.31c0.67-0.22,0.78-0.72,0.61-1.48c-0.01-0.37,0.24-0.27,0.23-0.5
			c0.1-0.15,0.23-0.27,0.36-0.31c0.21-0.03,0.43-0.13,0.63-0.35c0.23-0.53,0.51-0.51,0.62-0.53c0.48-0.06,0.46-0.66,1.02-0.99
			c0.83-0.83,1.04-0.71,1.04,0.19c0,0.34,0.16,0.85,0.21,1c0.13,0.3-0.06,0.65-0.19,1.17c-0.07,0.28,0.42,0.68,0.47,0.99
			c0.14,0.72,1.43,2.07,0.17,2.15c-0.2-0.09-0.54-0.12-0.64,0c-0.18,0.2-0.63,0.13-0.69-0.26c0.01-0.05,0-0.12,0.03-0.2
			c0.31-0.39-0.36-0.45-0.23,0c0.08,0.21-0.28,0.57-0.28,0.77L28.49,34.1 M22.51,29.89c0.13,0.14,0.32,0.24,0.42,0.29
			c0.18,0.09-0.03,0.19-0.3,0.06c-0.19-0.09-0.52-0.33-0.61-0.45c-0.03-0.04-0.02-0.08,0.04-0.11
			C22.26,29.7,22.33,29.84,22.51,29.89 M20.54,35.81c0.02,0.26-0.07,0.51-0.12,0.38c-0.07-0.31-0.12-0.61,0-0.89
			C20.52,35.26,20.56,35.46,20.54,35.81 M22.23,35.64c-0.09,0.06-0.17,0.15-0.31,0.05c-0.7-0.35-0.32-0.48,0.02-0.3
			C22.2,35.43,22.34,35.51,22.23,35.64 M20,34.05c0,0.1,0.01,0.25,0.02,0.33c0.15,0.44-0.22,0.43-0.36-0.26
			c0.03-0.13,0.14-0.31-0.05-0.41c-0.08-0.04-0.22,0.05-0.42-0.05c-0.27-0.28-0.56-0.7-0.56-1.11c0.01-0.61,0.06-0.66-0.18-1.29
			c0.04-0.19,0.25-0.12,0.5,0.22c0.02,0.04,0.1,0.2,0.12,0.29c0,0.08,0.02,0.22,0.14,0.22c0.03,0,0.1-0.02,0.15,0.03
			c0.02,0.02,0.03,0.2,0.06,0.22c0.05-0.14,0.17-0.2,0.18-0.08c0.06,0.16,0.02,0.32,0.12,0.4c0.07-0.04,0.08-0.15,0.08-0.21
			c0.27-0.01,0.28,0.78,0.13,0.84c-0.23,0.08-0.61,0.01-0.5-0.56c0.06-0.35-0.13-0.29-0.16-0.2c-0.04,0.15,0,0.62,0.4,0.98
			C19.91,33.44,20,33.77,20,34.05 M20.39,33.9c-0.05,0.2-0.04,0.39,0.06,0.5c0.09,0.11,0.03,0.33-0.05,0.33
			c-0.34-0.04-0.23-0.59-0.28-0.85C20.04,33.52,20.39,33.45,20.39,33.9 M19.22,30.15c0.04,0,0.07,0.05,0.07,0.11
			c0,0.06-0.03,0.1-0.07,0.1c-0.03,0-0.06-0.04-0.06-0.1C19.16,30.21,19.19,30.15,19.22,30.15 M18.6,30.47
			c0.04,0.14,0.23,0.44,0.01,0.49c-0.54-0.24-0.26-1.33-0.03-0.83C18.52,30.25,18.6,30.35,18.6,30.47 M19.11,28.37
			c-0.06,0.19-0.08,0.43-0.02,0.58c0.27,0.59,0.39,0.85,0.07,0.87c-0.01,0-0.11-0.12-0.16-0.12c-0.07,0.11-0.04,0.24,0,0.31
			c0.04,0.12-0.09,0.16-0.19,0.16c-0.18-0.06-0.46-0.95-0.1-0.95c0.18,0.02-0.02-0.53,0.02-0.84c0.04-0.34,0.19-0.66,0.52-0.75
			c0.15-0.04,0.18-0.17,0.37-0.18c0.08,0,0.26,0.1,0.04,0.2c-0.07,0.02-0.23,0.2-0.15,0.24c0.28,0.14,0.01,0.57-0.07,0.88
			c-0.03,0.14-0.02,0.21-0.12,0.18c-0.2-0.05-0.13-0.58,0.01-0.76c0.12-0.16,0.08-0.28,0-0.17C19.22,28.14,19.17,28.26,19.11,28.37
			 M25.51,31.48c0.07,0.53-0.19,0.75-0.17,0.54c0.02-0.33-0.02-0.45-0.12-0.82c-0.04-0.16,0-0.38,0.02-0.5
			c0.05-0.17,0.15-0.08,0.15,0.13C25.39,31.02,25.51,31.39,25.51,31.48 M24.08,32.07c0.02,0.25-0.34,0.34-0.15,0.07
			c0,0-0.05,0-0.05-0.02c-0.05,0.03-0.09,0.06-0.16,0.04C23.66,31.8,24.14,31.71,24.08,32.07 M23.79,31.36
			c-0.09-0.16-0.15-0.13-0.17,0.02c0.05,0.08,0.05,0.16,0.16,0.19C23.94,31.47,23.81,31.34,23.79,31.36 M24.32,30.35
			c-0.15-0.12-0.2-0.07-0.17,0.03c0.05,0.07,0.04,0.09,0.15,0.14C24.47,30.41,24.34,30.34,24.32,30.35 M25.58,29.41
			c-0.18,0.04-0.18,0.12-0.06,0.15c0.08,0,0.1,0.02,0.19-0.05C25.71,29.32,25.58,29.38,25.58,29.41 M21.55,32.39
			c-0.16,0-0.17,0.06-0.06,0.15c0.09,0,0.09,0.01,0.18-0.05C21.67,32.36,21.55,32.38,21.55,32.39 M21.52,32.05
			c-0.15,0-0.15,0.05-0.05,0.12c0.07,0,0.07,0.02,0.15-0.03C21.61,32.02,21.52,32.05,21.52,32.05 M24.45,30.08
			c-0.18,0-0.18,0.07-0.06,0.16c0.09,0,0.1,0.01,0.2-0.05C24.58,30.05,24.45,30.07,24.45,30.08 M24.15,27.27h-0.14v0.02h-0.01
			c-0.01,0.03-0.04,0.09-0.04,0.13l0.05,0.07h0.01v0.01h0.01h0.06c0.01,0.01,0.19,0.02,0.19,0l0.01-0.01h0.01l0.01-0.01
			c0-0.02,0-0.1-0.02-0.1c0-0.01-0.02-0.02-0.02-0.03l-0.01-0.01c-0.03,0-0.01-0.04-0.04-0.04c0-0.01-0.01,0-0.01-0.01
			C24.2,27.28,24.19,27.26,24.15,27.27 M22,33.53c0.39,0.4,0.26,0.49-0.13,0.32c-0.12-0.05-0.27-0.26-0.27-0.52
			c0-0.27-0.12-0.42-0.2-0.5c-0.06-0.07,0.03-0.14,0.03-0.14C21.91,32.57,21.72,33.23,22,33.53 M21.29,34.26
			c-0.05-0.11-0.08-0.2-0.08-0.32V33.7c-0.05-0.5-0.46-0.83-0.55-0.62c0.13,0.46,0.07,0.4,0.21,0.45c0.06,0,0.13-0.04,0.03-0.19
			c0.03-0.08,0.13-0.04,0.13,0.1c0,0.1,0.09,0.3,0.06,0.43c-0.05,0.29-0.14,0.19-0.23,0.05c-0.08-0.05-0.05,0.19-0.01,0.28
			c0.13,0.29,0.52,0.58,0.82,0.58c0-0.03,0.03-0.09,0.05-0.13c0.04-0.05,0.11-0.09,0.11-0.16C21.64,34.45,21.4,34.37,21.29,34.26
			 M21.04,28.03c0,0.17-0.09,0.84,0.16,1.07c0.39,0.45-0.02,0.51-0.28,0.21c-0.14-0.17-0.23-0.47-0.18-0.66
			c0.05-0.18,0-0.34-0.09-0.28c-0.1,0.37-0.16,0.96,0.27,1.16c0.23,0.09,0.17,0.28,0.08,0.28c-0.4,0-0.53-0.43-0.53-0.54
			c-0.06-0.08-0.18-0.06-0.18,0.05c0.01,0.06,0.12,0.12,0.12,0.17c0.05,0.18,0.12,0.31,0.3,0.37c0.1,0.03,0.1,0.18,0.1,0.26
			c-0.01,0.17-0.15,0.26-0.21,0.26c-0.18-0.03-0.19,0.13-0.12,0.29c0.2,0.03,0.16,0.35,0.32,0.36c0.07,0,0.14-0.21-0.02-0.23
			c-0.19-0.02-0.04-0.38,0.26,0.04c0.08,0.08,0.2,0.25,0.39,0.41c0.04,0.02-0.01,0.15,0.03,0.2c0.03,0.04,0.01,0.1,0.15,0.14
			c0.28,0.1,0.12,0.37-0.22,0.22c-0.14-0.07-0.4-0.27-0.48-0.4c0-0.13-0.27-0.1-0.26,0.01c-0.05,0.13,0.71,0.34,0.28,0.82
			c0.12,0.17,0.13,0.42,0.35,0.67c0.29,0.31,0.22,0.35,0.2,0.57c-0.17,0.09-0.13,0.26-0.05,0.37c0.15,0,0.21,0.17,0.36,0.21
			c0.13,0.02,0.45,0.03,0.54,0.08c0.19,0.07,0.16,0.27-0.15,0.54c0.03,0.03,0.08,0.08,0.09,0.1c0.09,0.06,0.3-0.02,0.38,0
			c0.22-0.02-0.05,0.48-0.3,0.54c-0.24,0.06-0.64-0.3-0.67-0.3c-0.32-0.06-0.5-0.18-0.74-0.18c-0.12-0.04-0.2-0.14-0.25-0.28
			c-0.08-0.23-0.25-0.52-0.08-0.84c0.02-0.01-0.05-0.5-0.19-0.42c-0.23,0.15-0.31,0.02-0.29-0.12c0-0.18,0.03-0.42,0.01-0.5
			c-0.06-0.35-0.03-0.35,0.27-0.09c-0.07-1.04-1.27-0.34-1.54-1.69c-0.04-0.33,0.1-0.4,0.19,0.08c0.1,0.19,0.22,0.4,0.28,0.4
			c0.14,0.02,0.05-0.15,0.02-0.19c-0.39-0.38-0.1-0.86,0.06-0.23c0.05,0.05,0.11,0.15,0.19,0.14c0.11-0.03,0.02-0.16-0.02-0.2
			c-0.06-0.04-0.17-0.24-0.15-0.43c0.01-0.12-0.04-0.25-0.02-0.31c0.15-0.01,0.21,0.14,0.27,0.14c0.12,0,0-0.18-0.02-0.21
			c-0.31-0.42,0.03-0.33,0.17-0.05c0.02,0.04,0.04,0.15,0.08,0.21c0.2,0.2,0.32,0.63,0.32,0.67c0.16,0.21,0.13-0.18,0.1-0.26
			c-0.15-0.89-1.11-0.9-0.64-2.31c0.06-0.2,0.16-0.35,0.16-0.4c0.05-0.4,0.3-0.42,0.16,0c-0.02,0.09-0.17,0.36-0.1,0.55
			c0.04,0.03,0.23-0.25,0.24-0.53c0.01-0.14,0.13-0.34,0.1-0.49c-0.14-0.73,0.44-0.86,0.44-0.01c0.04,0.09,0.16-0.07,0.17-0.34
			C21.04,26.98,21.05,27.54,21.04,28.03 M23.8,29.34c0,0.04,0.04,0.14,0.12,0.15c0.07,0.01,0.31,0.2,0.39,0.24
			c0.15,0.07,0.16,0.16-0.05,0.14c0,0-0.08-0.06-0.19-0.1c-0.12-0.05-0.21-0.1-0.34-0.14c-0.13-0.02-0.14,0.05-0.06,0.1
			c0.05,0,0.22,0.18,0.27,0.23c-0.02,0.05-0.06,0.12-0.1,0.12c-0.14,0-0.38-0.06-0.56-0.05c-0.23,0.01-0.57,0.02-0.7-0.17
			c-0.16-0.21-0.28-0.28-0.44-0.33c-0.16-0.05-0.17-0.24-0.15-0.3c0.04-0.28-0.07-0.29-0.2-0.28c-0.12,0-0.06,0.14,0,0.22
			c0.06,0.08,0.06,0.1,0.03,0.32c0.01,0.43,0.1,0.64,0.61,0.82c0.11,0.02,0.31,0.16,0.46,0.16c0.17,0,0.37-0.15,0.51-0.21
			c0.29-0.1,0.71,0.15,0.77,0.42c0.02,0.12-0.01,0.2-0.1,0.21c-0.1,0.02-0.12-0.19-0.29-0.13c0.31,0.44,0.05,0.45-0.09,0.22
			c-0.01-0.02-0.05-0.04-0.12-0.01c0,0.11-0.12,0.13-0.16,0.01c-0.26-0.3-0.94-0.12-1.12,0.05c-0.14,0.08-0.25,0.36-0.4,0.33
			c-0.32-0.17-0.82-0.56-0.89-0.77c-0.22-0.44,0.15-0.44,0.35,0.06c0.11-0.05-0.08-0.49-0.14-0.66c0.23-0.23,0.47,0.38,0.76,0.38
			c0.03-0.09-0.07-0.22-0.26-0.31c-0.19-0.09-0.12-0.41-0.12-0.59c0.01-0.14-0.01-0.22-0.04-0.27c-0.55-0.29-0.32-0.96-0.4-1.78
			c-0.04-0.57-0.42-0.62-0.24-0.8c0.12-0.09,0.4,0.3,0.51,0.73c0.07,0.24,0.07,0.61,0.09,0.89c0,0,0.01,0.33,0.44,0.6
			c0.19,0.12,0.36,0.58,0.64,0.58c0.03-0.05,0.02-0.08-0.08-0.16c-0.13-0.06-0.18-0.12-0.14-0.17c0.06-0.06,0.14-0.04,0.19-0.04
			c-0.02-0.28,0.13-0.31,0.41-0.31c0-0.44,0.48-0.16,0.56,0.21C23.55,29.15,23.8,29.06,23.8,29.34 M26.5,30.02
			c-0.33,0.12-1.06,0.25-1.19,0.33c-0.36,0.19-0.35,0.3-0.38,0.58c0.17,0.16,0.16,0.33,0.16,0.49c0.09,0.33,0.09,0.79-0.06,0.77
			c-0.12-0.12-0.18-0.01-0.19,0.03c-0.02,0.08-0.09,0.2-0.14,0.22c-0.04,0.02-0.09-0.01-0.16-0.01c-0.08,0.01-0.08,0.24-0.18,0.27
			c0,0-0.53,0.12-0.53-0.23c-0.01-0.05,0.01-0.1,0.18-0.1c0.14,0,0.32-0.23,0.2-0.5c-0.19-0.44,0.02-0.67,0.18-0.93
			c0.09-0.46,0.38-0.76,0.62-0.97c0.18-0.16,0.8-0.25,1.06-0.49c0.16-0.05,0.27-0.07,0.28,0.05c-0.01,0.07-0.08,0.13-0.02,0.19
			c0.11,0.02,0.27-0.14,0.27-0.14C26.85,29.56,26.64,29.84,26.5,30.02 M27.42,28.97c0,0-0.1,0-0.05,0.15
			c0.02,0.06-0.03,0.09-0.13,0.13c-0.17,0.06-1.07,0.08-1.04-0.08c0.04-0.19,0.46-0.57,0.63-0.57c0.06-0.02,0.12-0.13,0.05-0.24
			c0.19-0.59,0.87-0.56,1.21-0.56c0.32,0,0.3,0.11,0.27,0.13c0,0-0.24,0.04-0.32,0.08c-0.06,0.05-0.1,0.26-0.24,0.3
			c0,0.05-0.06,0.2-0.18,0.3C27.68,28.75,27.53,28.95,27.42,28.97 M25.18,28.31c0.15,0,0.3,0.07,0.28,0.21
			c0.52,0.25-0.06,0.33-0.49,0.18c-0.12-0.03-0.29-0.04-0.42-0.13c-0.1-0.04-0.16-0.1-0.22-0.21c-0.07-0.06-0.22-0.11-0.23,0.01
			c0.23,0.57,1.17,0.57,1.6,0.56c0.2,0,0.41-0.33,0.5-0.17c-0.02,0.22-0.18,0.32-0.49,0.33c-0.06,0-0.22,0.17-0.37,0.17
			c-0.21,0-0.4-0.02-0.47,0.03c-0.03,0-0.07,0.11-0.03,0.12c0.2,0.05,0.11,0.22,0.01,0.22c-0.36,0-0.76-0.03-0.89-0.37
			c-0.33-0.78-0.77-0.66-0.39-1.18c0.19-0.04,0.2-0.15,0.05-0.16c-0.26-0.27,0.1-0.33,0.24-0.25c0.21,0.04,0.4,0.46,0.47,0.28
			C24.33,27.44,25.18,28.31,25.18,28.31 M27.4,27.46c0,0.61-0.63,0.39-0.6,0.09c0.01-0.09-0.08-0.15-0.19-0.2
			c-0.1-0.06-0.31-0.16-0.19-0.23C26.65,26.94,27.4,27.02,27.4,27.46 M26.73,27.87c0.09,0.4-0.08,0.42-0.21,0.34
			c-0.09-0.08-0.24-0.16-0.31-0.12l0.06,0.12c-0.01,0.06-0.07,0.1-0.14,0.1c-1.04,0.01-1.71-0.83-1.69-0.94
			c0.01-0.06,0.08-0.06,0.18,0.05c0.23,0.24,0.79,0.5,1.11,0.5c0.03-0.07,0.14-0.2-0.41-0.21c-0.14-0.06-0.2-0.12-0.25-0.18
			c-0.07-0.03-0.16-0.05-0.2-0.09c-0.18-0.18-0.11-0.27,0.09-0.11c0.11,0.08,0.2,0.17,0.39,0.23c0.13,0.04,0.23,0.09,0.36-0.02
			C26.37,27.11,26.73,27.53,26.73,27.87 M26.89,26.09c-0.07-0.02-0.14-0.03-0.23,0.02c0.02,0.08,0.26,0.21,0.41,0.16
			C27.07,26.17,26.96,26.09,26.89,26.09 M27.51,26.56c-0.1,0.06-0.27-0.08-0.47-0.08c-0.22,0-0.42,0.01-0.5,0.08
			c0,0.01,0,0.06,0.17,0.06c0.23,0,0.46,0.03,0.46,0.12c0,0.06-0.18,0.1-0.37,0.13c-0.15,0.17-0.77,0.21-0.99,0.09
			c-0.18-0.12-0.27-0.08-0.24,0c0.06,0.07,0.17,0.09,0.25,0.16c0.18,0.13-0.12,0.13-0.44-0.05c-0.03-0.07-0.2,0.01-0.06,0.03
			c0.09,0,0.23,0.32-0.14,0.23c-0.17-0.08-0.43-0.26-0.53-0.31c-0.29-0.17-0.35-0.6,0.02-0.6c0.18,0,0.35,0,0.46-0.29
			c0.02-0.06,0.1-0.11,0.24-0.08c0.13,0.02,0.25,0.01,0.38,0c0.15-0.02,0.31-0.17,0.44-0.21c0.46-0.14,0.8-0.05,0.85,0.11
			c-0.02,0.08,0.38,0.03,0.4,0.25c-0.06,0-0.07-0.02-0.2,0.01c-0.05,0.03-0.02,0.09,0.03,0.14C27.44,26.35,27.62,26.44,27.51,26.56
			 M22.34,27.19c-0.11-0.1-0.24-0.3-0.3-0.38c-0.06-0.08-0.12-0.15-0.15-0.08c-0.01,0.14,0.13,0.25,0.11,0.4
			C21.97,27.51,22.55,27.72,22.34,27.19 M25.28,25.41l-0.01,0.01c0,0.03-0.07,0.06-0.02,0.13l0.06,0.08c0.01,0.01,0.2,0.01,0.2,0.01
			c0,0.01,0.13,0.04,0.14,0.04c0.07-0.03,0.04-0.07-0.03-0.13C25.54,25.56,25.48,25.41,25.28,25.41 M24.13,26.92
			c0,0.35-0.37,0.37-0.66,0.37c-0.1,0.07,0.18,0.18,0.05,0.3c-0.13,0.13-0.39,0.18-0.52,0.09c-0.48-0.3-0.56,0.17-0.24,0.35
			c0.06,0.03,0.06,0.17-0.07,0.13c-0.14-0.02-0.39-0.27-0.53-0.47c-0.24,0.05,0.4,0.5,0.31,0.63c0.29-0.01,0.37,0.17,0.08,0.17
			c-0.05,0-0.18,0.02-0.26-0.01c0.06,0.05-0.16,0.04-0.1,0.08c0.22,0.23,0,0.37-0.35-0.02c-0.04,0-0.24-0.28-0.25-0.6
			c-0.01-0.3,0.14-0.85-0.44-1.5c-0.04-0.07,0.13,0,0.13,0c0.09,0.08,0.18,0.2,0.26,0.35c0.08,0.09,0.14,0.19,0.15,0.34
			c0.07,0.2,0.16,0.4,0.27,0.51c0-0.03,0.2-0.04,0.1-0.12c-0.2-0.17-0.22-0.51-0.32-0.71c-0.2-0.36-0.38-0.53-0.23-0.67
			c0.18-0.17,0.43,0.08,0.51,0.3c0.34-0.07,0.06-0.31-0.13-0.4c-0.13-0.19,0.63-0.14,0.75-0.01c0.17,0.21,0.17,0.37,0.34,0.36
			c0.17,0.02,0.03-0.17,0.06-0.19c0.11-0.07,0.49-0.08,0.62,0.04c-0.04,0.08-0.27,0.08-0.35,0.06c-0.14-0.05-0.18,0.08-0.16,0.09
			c0.17,0.14,0.37,0.16,0.62,0.01c0.42-0.3,0.26-0.46,0.38-0.68c0.24-0.36,0.7-0.38,0.9-0.19c0.07-0.03,0.08-0.08,0.07-0.12
			c-0.07-0.11-0.5-0.09-0.5-0.18c0.14-0.17,0.5,0,0.8,0l0.36,0.01c0.31-0.03,0.5,0,0.59,0.12c0.12,0.14-0.04,0.23-0.3,0.28
			c-0.49,0.38-0.8,0.25-1.16,0.11c0,0-0.1,0.01-0.08,0.03c0.03,0.05-0.04,0.23-0.27,0.05c-0.02,0-0.06,0.01-0.09,0.02
			c-0.01,0.01-0.05,0.06-0.05,0.09c0,0.15-0.09,0.54-0.24,0.6C23.87,26.65,23.92,26.65,24.13,26.92 M24,25.73
			c-0.16,0.27-0.4,0.31-0.76,0.31c-0.19,0-0.78-0.28-1.05-0.31c-0.08,0-0.12-0.06-0.12-0.11c-0.01-0.12,0.29-0.15,0.71-0.15
			c0.16,0,0.36,0.01,0.52,0.01c0.48-0.16,0.44,0.02,0.44,0.08c0.02,0.04,0.13,0.04,0.16-0.03C24.08,25.14,24.25,25.21,24,25.73
			 M29,26.64c-0.03,0.15-0.16,0.31-0.28,0.32c-0.21,0.04-0.18,0.11-0.18,0.21c0.09,0.06,0.12,0.02,0.25,0
			c0.1-0.02,0.2-0.14,0.2-0.15c0-0.02,0.06-0.1,0.06-0.15c0-0.04,0-0.1,0-0.14C29.05,26.56,29,26.66,29,26.64 M28.01,26.22
			c-0.05-0.08,0.12-0.18,0.15-0.1c0.02,0.04,0.16,0.24,0.25,0.1c0.05-0.1,0.21,0.06,0.25,0.11l0.12-0.05
			c0.05-0.05,0.01-0.09-0.12-0.15c-0.34-0.81,1.29,0.58,0.38,1.3c-0.12-0.08-0.26,0.08-0.33,0.13c-0.28,0.08-0.65,0.08-0.81,0.08
			c-0.17,0-0.29-0.13-0.23-0.17c0.12-0.08,0.4-0.55,0.4-0.77C28.07,26.47,28.12,26.3,28.01,26.22 M29.29,28.8
			c-0.23-0.04-0.36,0.01-0.29,0.07c0.02,0.02,0.17,0.05,0.23,0.05C29.26,28.97,29.43,28.83,29.29,28.8 M29.29,28.56
			c-0.13-0.04-0.23-0.03-0.35-0.01l-0.01,0.11c0.16,0.03,0.3,0.03,0.44,0L29.29,28.56 M29.3,28.03c-0.06-0.06-0.1-0.06-0.19-0.01
			c-0.07,0.06-0.22,0.11-0.22,0.34c0.04,0.04,0.22,0.11,0.34,0.06l0.09-0.08C29.32,28.28,29.3,28.15,29.3,28.03 M28.87,31.26
			c0.15-0.03,0.34-0.06,0.05-0.3c0.22-0.19,0.12-0.35-0.05-0.36c-0.08-0.05-0.18-0.02-0.21,0.15c-0.17-0.05-0.47-0.14-0.68-0.05
			c-0.07,0.03-0.34,0.16-0.5,0.16c-0.14,0-0.25,0.06-0.3,0.13c0,0.06-0.55,0.51-0.61,0.51c-0.04,0.14,0.04,0.19,0.12,0.33
			c0.19,0.04,0.54-0.15,0.29-0.19c-0.13,0-0.21-0.03-0.26-0.03c0.2-0.09,0.31-0.25,0.46-0.48c0.17-0.06,0.17,0.16,0.41-0.16
			c0.21-0.07,0.57-0.04,0.91,0.15c-0.51,0-0.74,0.1-1.03,0.39c1.46-0.3,0.93,0.08,0.77,0.13c-0.17,0.01-0.59,0.04-0.77,0.23v0.04
			c0.28-0.04,0.72-0.09,0.67,0.14c-0.04,0.11,0.07,0.25-0.09,0.32c-0.22,0.12,0.45,0.56,0.47-0.28c0-0.14,0.15-0.36,0.27-0.36
			c0.14,0,0.16-0.08,0.14-0.2C28.99,31.41,28.97,31.34,28.87,31.26 M22.97,32.12c0,0.16-0.01,0.26-0.06,0.3
			c-0.08,0.06-0.21,0.12-0.27,0.17c-0.09,0.08-0.17-0.08-0.12-0.37c0.01-0.04,0.06-0.15,0.06-0.2c0.03-0.49,0.28-0.35,0.39-0.01
			V32.12 M22.55,31.65c-0.14,0.43-0.16,1.01-0.09,1.08c0.07,0.24,0.22,0.35,0.34,0.49c0.1,0.11,0.06,0.29,0.35,0.29
			c0.07-0.12,0.07-0.18-0.04-0.33c-0.06-0.02-0.17-0.05-0.24-0.08c-0.03-0.07,0.05-0.29,0.1-0.38c0.12-0.26,0.21-0.3,0.21-0.66
			c0-0.19-0.09-0.58-0.39-0.58L22.55,31.65 M25.07,38.04c0.17-0.21,0-0.29-0.16-0.34C24.77,37.82,24.96,38.05,25.07,38.04
			 M24.67,37.59c-0.17-0.06-0.11,0.28,0.06,0.28C24.73,37.82,24.73,37.59,24.67,37.59 M24.33,37.37c-0.11,0,0.06,0.32,0.06,0.32
			C24.49,37.72,24.56,37.34,24.33,37.37 M24,37.17c0,0.12,0.07,0.35,0.19,0.35c0.04,0,0.08-0.08,0-0.18
			C24.19,37.2,24.08,37.04,24,37.17 M23.46,36.41c-0.22-0.29-0.14,0.13-0.07,0.23c0.02,0.02,0.14,0.02,0.17,0.07
			c0,0,0.01,0.17,0.07,0.2c0.13,0.07,0.22,0.22,0.24,0.26c0.1-0.1,0.08-0.24-0.17-0.38c-0.01-0.13-0.09-0.2-0.18-0.23
			C23.49,36.55,23.47,36.45,23.46,36.41 M23.08,35.98c-0.05,0.12,0.04,0.21,0.11,0.29C23.25,36.12,23.25,35.89,23.08,35.98
			 M35.11,28.75c0-0.17-0.33-0.25-0.42-0.25c-0.12,0.21,0.31,0.76,0.59,0.76C35.33,29.24,35.17,28.79,35.11,28.75 M37.47,38.54
			c0-0.1,0.09-0.27,0.07-0.45c-0.1-0.05-0.23,0.18-0.32,0.27c-0.14,0.16-0.28,0.29-0.28,0.41C36.93,39.05,37.21,39.19,37.47,38.54
			 M37,34.85c-0.1-0.38-0.18-1.03-0.53-1.27c-0.21-0.16-0.56-0.57-0.6-0.49c0,0.29,0.05,0.61,0.13,0.93
			c-0.07,0.59-0.01,1.29,0.38,1.7c0.09,0.09-0.04,0.22,0.02,0.31c0,0.17,0.11,0.01,0.31,0.02c-0.04,0.24,0.07,0.43,0.13,0.5
			c0.03,0.01,0.14-0.06,0.13-0.19c-0.04-0.33,0.03-0.68,0.09-0.87C37.17,35.19,37.04,34.92,37,34.85 M38.65,35.79
			c0.2-0.24,0.39-0.94,0.35-1.7c0-0.18,0.21-0.51,0.17-0.63c0.11-0.12,0.17-0.34,0-0.5c0.06-0.06,0.15-0.1,0.15-0.22
			c-0.03-0.12-0.18-0.14-0.27-0.05c-0.04,0.17-0.25,0.4-0.36,0.62c-0.19,0.15-0.46,0.18-0.51,0.32c-0.08,0.15-0.17,0.62-0.41,0.84
			c-0.28,0.25-0.29,0.78-0.3,1.12c-0.45,0.46-0.28,1.25-0.52,1.77c0.25,0.37,0.35-0.52,0.52-0.69c0.21,0.01,0.08,0.36-0.16,0.72
			c-0.2,0.34-0.44,0.85-0.36,0.92c0.23,0.08,0.45-0.41,0.63-0.53c0.11-0.08,0.18-0.14,0.26-0.25c0.09-0.17,0.48-0.33,0.62-0.55
			c0.09-0.4,0.33-0.46,0.2-0.72C38.71,36.1,38.72,36,38.65,35.79 M36.44,36.92c-0.05-0.67-0.57-1.17-0.65-1.47
			c-0.05-0.04-0.1,0.2-0.05,0.37c0,0.15-0.07,0.35,0,0.82c0.02,0.19-0.15,0.62-0.08,0.78c-0.13,0.27,0.26,0.57,0.15,0.85
			c0.02,0.19,0.06,0.4,0.1,0.51c0.09,0.05,0.2-0.13,0.09-0.49c-0.05-0.28,0.3,0.01,0.33,0.4c0,0.28-0.15,0.64-0.06,0.88
			c0.2,0.05,0.32-0.56,0.36-1.1C36.75,38.23,36.75,37.13,36.44,36.92 M38.09,40.02c0.1-0.19,0.24-0.64,0.22-1.03
			c0.53-0.9,0.39-0.87,0.16-0.79c-0.26,0.18-0.52,0.55-0.62,0.65c-0.21,0.25-0.87,0.39-1.14,0.77c-0.21,0.26-0.51,0.97-0.57,1.39
			c-0.02,0.16-0.2,0.31-0.27,0.37c0.04,0.14,0.12,0.13,0.27,0c0.22,0.02,0.09,0.22,0.04,0.37c-0.1,0.31-0.67,0.44-0.74,0.63
			l0.03,0.15c0.33,0,0.72-0.51,1.07-0.68c0.16-0.1,0.34-0.4,0.71-0.65C37.74,40.25,38.06,40.36,38.09,40.02 M35.6,40.67
			c0.12-0.4,0.31-1.02,0.06-1.48c0-0.5-0.22-1.06-0.36-0.92c-0.04,0.17-0.07,0.19-0.13,0.27c0.06,0.14,0,0.38-0.11,0.64
			c-0.09,0.19-0.26,0.43-0.29,0.63c-0.18,0.23-0.21,0.57-0.23,0.81c-0.01,0.18-0.12,0.4-0.12,0.52c0.02,0.46,0.13,0.9,0.06,1.31
			c0.08,0.08,0.16-0.06,0.2-0.06c0.17,0,0.03,0.12,0.01,0.43c0.02,0.02,0.1,0.1,0.17,0.04c-0.05-0.26,0.25-0.64,0.56-0.9
			c0.09-0.08,0.19-0.57,0.14-0.82C35.6,40.95,35.6,40.79,35.6,40.67 M38.14,31.44c0.2-0.32,0.17-0.81,0.07-1.24
			c-0.24-0.35-0.32-0.84-0.42-0.91c-0.1-0.08-0.26,0.85-0.61,1.23c-0.14,0.35-0.21,0.64-0.21,0.69c0,0.19-0.02,0.38-0.04,0.54
			c-0.11,0.18-0.03,0.3-0.01,0.4c0.37,0.9-0.23,1.14-0.17,0.17c0.05-0.71-0.31-1.6-0.88-2.04c-0.19-0.14-0.27-0.35-0.52-0.49
			c-0.04-0.06-0.09-0.18-0.12-0.23c-0.16-0.11-0.16-0.03-0.22-0.03c-0.04,0.01-0.06,0.18,0.1,0.26c0.09,0.05,0.15,0.22,0.23,0.37
			c0.06,0.44,0.17,0.56,0.15,1.12c0.11,0.49,0.26,0.85,0.48,1.14c0.23,0,0.29,0.73,0.35,0.76c0.2,0.1,0.16-0.03,0.27-0.18
			c0,0,0.07,0.01,0.11,0.06c-0.04,0.23,0.07,0.4,0.21,0.45c0.05,0.01,0,0.17,0,0.26c0.05,0.08,0.15,0.14,0.21,0.17
			c0.1,0,0.17-0.22,0.1-0.46c-0.04-0.23,0.25-0.28,0.11,0.35c-0.05,0.23-0.1,0.52-0.05,0.75c0.19,0.05,0.19-0.63,0.48-0.92
			c0.23-0.22,0.34-0.7,0.37-0.87C38.2,32.33,38.2,31.87,38.14,31.44 M36.5,28.18c0-0.5-0.27-0.62-0.62-1.2
			c-0.06-0.17-0.16-0.19-0.19-0.09c0,0.23-0.13,0.68-0.18,0.86c-0.04,0.4,0,1.19,0.18,1.47c0.09,0.14,0.33,0.6,0.41,0.73
			c0.08,0.06,0.18,0.04,0.18-0.08c0-0.1,0.15,0.05,0.18,0.17c0.06,0.54,0.16,0.61,0.27,0.66c0.09,0.08,0.17-0.21,0.07-0.62
			c0.12-0.48,0.32-0.93-0.12-1.42C36.64,28.51,36.57,28.35,36.5,28.18 M35.25,27.23c0.16-0.05,0.16-0.25-0.05-0.56
			c-0.17-0.42-0.42-0.42-0.52-0.35c0,0.17,0.26,0.38,0.29,0.63c-0.02,0.06-0.15,0.07-0.22-0.01c-0.14-0.23-0.43-0.55-0.73-0.67
			c-0.05-0.04-0.09-0.19-0.21-0.18c-0.07,0-0.11,0.07-0.15,0.17c0,0.08,0.13,0.24,0.16,0.44c0.06,0.34,0.26,0.72,0.42,0.83
			c0.04,0.05,0.15,0.13,0.15,0.13s0.05,0.09,0.18,0.23c0.02,0.03,0.18,0.17,0.32,0.2c0.22,0.05,0.21,0.38,0.44,0.31
			c0.05-0.02,0.05-0.2-0.04-0.36C35.28,27.81,35.25,27.51,35.25,27.23 M33.45,25.85c0-0.14-0.24-0.35-0.74-0.35
			c-0.21-0.04-0.41-0.17-0.48-0.08c0,0.12,0.19,0.21,0.23,0.38c0.04,0.16,0.15,0.33,0.31,0.44c0.37,0.09,0.58,0.38,0.7,0.38
			c0.08-0.03,0.06-0.28,0-0.39C33.55,26.12,33.51,25.96,33.45,25.85 M20.93,38.54c0,0.4-0.31,0.85-0.17,1.25
			c0.05,0.15,0.36,0.28,0.6,0.42c0.23,0.06,0.24,0.93,0.2,0.83c-0.03-0.05-0.17-0.7-0.29-0.45c0.34,0.78-0.26,0.72-0.22,0.47
			c0.08-0.44-0.17-0.65-0.39-0.85c-0.09-0.17-0.19-0.28-0.28-0.31c-0.91-0.81-0.2-1.96-0.06-2.3c0.3-0.77,0.79-0.76,0.62,0.15
			C20.99,37.93,20.99,38.37,20.93,38.54 M11.95,30.34c-0.04-0.07-0.13-0.12-0.22-0.04c-0.05,0.02-0.07,0.17-0.06,0.28l0.13,0.05
			C11.83,30.64,12.01,30.53,11.95,30.34 M15.08,43.4c0-0.06-0.05-0.24-0.12-0.32c-0.03-0.08-0.19-0.07-0.27,0.01
			c0,0.18,0.17,0.39,0.17,0.51c0.06,0,0.1,0.05,0.1,0.11c0.18,0,0.22,0.43,0.39,0.43C15.48,43.85,15.17,43.66,15.08,43.4
			 M13.23,41.19c-0.04-0.09-0.49-0.39-0.86-0.55c-0.18-0.08-0.31-0.33-0.39-0.41c-0.13-0.18-0.38-0.19-0.49-0.21
			c-0.18-0.02-0.29-0.09-0.32,0.01c0.06,0.29,0,0.64,0.22,0.84c0.28,0.27,0.55,0.5,0.7,1.02c0.04,0.15,0.12,0.25,0.17,0.3
			c0.13,0.11,0.44,0.28,0.64,0.46c0.15,0.13,0.63,0.31,0.72,0.2c0.06-0.08-0.04-0.15-0.07-0.2c-0.06-0.19,0.13-0.22,0.29,0.05
			c0.05,0.05,0.09,0.15,0.17,0.19c0.12,0.04,0.2,0.09,0.32,0.09c0.01-0.17-0.34-0.48-0.58-0.79C13.51,41.9,13.58,41.45,13.23,41.19
			 M12.57,38.4c-0.05-0.12,0.02-0.39-0.12-0.4c-0.23,0,0.07,0.89,0.13,1C12.72,38.99,12.69,38.82,12.57,38.4 M13.23,37.66
			c0.12-0.2,0.25-0.57-0.13-0.43c0,0.06-0.03,0.21-0.03,0.27L13,37.7C13,37.98,13.23,37.92,13.23,37.66 M13.16,38.74
			c0-0.12,0.01-0.29-0.17-0.36C12.53,38.61,13.01,39.53,13.16,38.74 M14.51,39.21c-0.04-0.66-0.39-0.83-0.29-1.52
			c-0.66,0.05-0.8,0.92-0.76,1.41c-0.03,0.31-0.26,0.6-0.31,1c0,0.11,0.06,0.32,0.07,0.56c0.05,0.26,0.37,0.41,0.43,0.68
			c0.12,0.48,0.43,1.08,0.65,1.08c0.06-0.38-0.24-0.76-0.32-1.12c-0.07-0.3,0.05-0.44,0.1-0.26c0.04,0.1,0.16,0.33,0.3,0.63
			c0.04,0.08,0.14,1.05,0.33,1.1c0.13-0.01,0.18-0.33,0.11-0.65c0.21-0.13,0.01-0.65,0-1.14C15.11,40.19,14.48,39.93,14.51,39.21
			 M12.67,39.46c-0.37-0.3-0.3-0.57-0.55-0.71c-0.26-0.15-0.56-0.43-0.7-0.54C11.35,38.17,11.24,38,11.19,38
			c0,0.15-0.08,0.35,0.02,0.45c0.02,0.01,0.11,0.08,0.14,0.13c0.04,0.03,0.08,0.1,0.08,0.14c0,0.15-0.02,0.37,0.01,0.46
			c0.07,0.2,0.21,0.37,0.33,0.51c0.12,0.15,0.27,0.36,0.38,0.36c0.14-0.01,0.28-0.08,0.31-0.04c0.14,0.11,0.12,0.27,0.31,0.31
			c0.21-0.01-0.04-0.31-0.04-0.38C12.79,39.78,12.73,39.63,12.67,39.46 M13.5,34c0.07-0.44,0.34-0.55,0.26-1.04
			c-0.1-0.02-0.23,0.19-0.28,0.19c-0.03,0.04-0.28,0.24-0.33,0.24c-0.13,0.09-0.37,0.53-0.58,0.67c-0.13,0.12-0.45,0.58-0.38,0.95
			c-0.19,0.29-0.24,0.73-0.14,1.09c0.11,0.3,0.12,0.65,0.06,1.02c0.02,0.07,0.17,0.24,0.23-0.04c0-0.17-0.07-0.46,0.05-0.58
			c0.02,0.01,0.15,0.05,0.1,0.19c-0.14,0.36-0.04,0.59,0.07,0.89c0.09,0.01,0.17-0.21,0.21-0.38c0.04-0.29,0.35-0.59,0.41-0.83
			c0.08-0.36,0.15-0.79,0.1-1.14C13.27,34.89,13.66,34.65,13.5,34 M11.71,35.88c0-0.28-0.16-0.78-0.52-0.96
			c-0.23-0.12-0.32-0.37-0.46-0.47c-0.19-0.15-0.36-0.2-0.45-0.15c-0.02,0.14,0.16,0.45,0.14,0.65c0.15,0.25,0.13,0.52,0.13,0.83
			c0,0.34,0.21,0.53,0.36,0.79c0.03,0.04,0.07,0.33,0.22,0.5c0.25,0.29,0.49,0.84,0.67,0.84c0-0.42,0.2-0.11,0.23,0.24
			c0.01,0.09,0.08,0.18,0.1,0.21c0.26-0.24-0.09-1.07-0.19-1.45C12.01,36.36,11.86,36.02,11.71,35.88 M13.6,31.28
			c0-0.24-0.01-0.5,0-0.73c0.01-0.17,0.1-0.32,0.07-0.41c-0.23-0.11-0.47,0.41-0.72,0.71c-0.43,0.49-0.78,1.29-0.8,1.57
			c0.02,0.03,0.04,0.11,0.04,0.18c0,0.07,0,0.2,0,0.31c0,0.12,0,0.27,0.06,0.4c0.07,0.15,0.02,0.35,0.03,0.51
			c0.05,0.04,0.09-0.08,0.24-0.27c0.15-0.18,0.28-0.45,0.36-0.7C13.3,32.5,13.55,31.92,13.6,31.28 M11.73,31.78
			c0-0.68-0.34-1.39-0.85-1.88c-0.14,0.33,0.09,0.91,0.02,1.12c-0.16,0.46-0.34,0.97-0.02,1.69c0.05,0.12,0.15,0.88,0.41,1.14
			c0.06,0.05,0.09,0.35-0.04,0.36c-0.35,0.02,0.3,0.65,0.55,0.8c0.14,0.03-0.04-0.38-0.1-0.81c-0.03-0.23,0.17-0.14,0.13,0.1
			c0.04,0.07,0.08,0.17,0.14,0.26c0.28-0.02-0.13-0.98-0.05-1.22C12.12,32.62,11.73,31.8,11.73,31.78 M13.53,28.98
			c-0.11-1.1,0.08-1.48,0-1.48c-0.07,0-0.18,0.17-0.38,0.34c-0.22,0.21-0.55,0.5-0.74,0.82c-0.16,0.24-0.09,0.48-0.21,0.81
			c-0.04,0.14-0.13,0.29-0.07,0.45c0.09,0.4-0.15,1.04,0,1.29c0.15,0.15,0.26-0.37,0.33-0.59c0.05-0.16,0.3-0.27,0.01,0.32
			c0.27,0.04,0.35-0.23,0.45-0.61c0.09-0.09,0.23-0.26,0.22-0.47C13.37,29.54,13.53,29.09,13.53,28.98 M14.07,26.88
			c0-0.1-0.01-0.49-0.18-0.49c-0.04,0.16-0.21,0.35-0.28,0.5c-0.07,0.18-0.09,0.46,0.17,0.48C13.9,27.37,14.08,27.19,14.07,26.88
			 M16.76,43.85c-0.1-0.28-0.86-0.42-1.07-0.71c-0.07-0.14-0.21-0.16-0.27-0.04c0,0.18,0.22,0.22,0.22,0.78
			c0,0.21,0.16,0.47,0.22,0.52c0.43,0.3,0.75,1.2,1.04,1.2c0.16-0.09-0.02-0.3-0.06-0.5c0.15-0.03,0.24,0.12,0.31,0.27
			c0.14,0.26,0.38,0.42,0.51,0.54c0.07,0.04,0.09-0.08,0.09-0.15c0.04-0.4-0.24-1.01-0.46-1.26C17.07,44.25,16.84,44.04,16.76,43.85
			 M22.57,47.93c-0.37-0.03-0.42-0.41-1.02-0.42c-0.16,0-0.31-0.19-0.43-0.22c-0.17-0.05-0.61,0.08-0.93-0.09
			c-0.47-0.28-1.37,0.06-1.48,0.15c0,0.4-1.18,0.17-1.13,0.63c0.24,0.16,0.2-0.11,0.92-0.01c0.26,0.12,0.48,0.21,0.9,0.29
			c0.31,0.34,1.2,0.55,1.52,0.46c0.42-0.13,1.39,0,1.62-0.28c0.06-0.19-0.38-0.19-0.55-0.13c-0.05,0-0.17-0.03-0.12-0.13
			c0.17,0.02,0.4-0.01,0.62,0.02C22.76,48.24,22.85,47.93,22.57,47.93 M18.93,47.12c0-0.04,0.06-0.03,0.07-0.08
			c0.01-0.06-0.03-0.23-0.03-0.23c-0.03-0.05-0.11-0.16-0.19-0.18c-0.07-0.01-0.2-0.09-0.26-0.12c-0.07-0.04-0.41-0.37-0.45-0.37
			c-0.31-0.09-0.82-0.17-0.88-0.11c-0.04,0.15,0.07,0.24,0.16,0.29c0.15,0.1,0.47,0.14,0.61,0.16c0.09,0.01,0.13,0.16-0.05,0.16
			c-0.11,0-0.31-0.08-0.46-0.08c-0.18,0-0.45-0.07-0.55-0.12c-0.15-0.04-0.68,0.08-0.73,0.13c-0.14,0.1-0.21,0-0.3,0.13
			c-0.06-0.03-0.24,0.03-0.34,0.07c-0.05,0.03-0.07,0.08-0.11,0.13c0.13,0.02,0.29,0.05,0.4,0.05c0.05,0,0.16,0,0.21,0.04
			c0.42,0.4,0.86,0.6,1.56,0.44c0,0,0.09,0.03,0.41-0.06c0.14-0.04,0.37-0.25,0.48-0.28C18.69,47.03,18.93,47.12,18.93,47.12
			 M19.18,45.82c-0.27-0.3-0.59-0.64-0.82-0.75c-0.13-0.05-0.24-0.14-0.24-0.14c-0.08-0.08-0.47-0.21-0.39-0.1
			c0,0-0.01,0.05,0.02,0.16c0.06,0.11,0.24,0.37,0.34,0.64c0.03,0.08,0.27,0.19,0.37,0.33c0.05,0.06,0.25,0.29,0.33,0.38
			c0.06,0.08,0.16,0.27,0.31,0.36c0.14,0.07,0.36,0.11,0.47,0.11c0.07,0,0.07,0.08,0.15,0.09c0.15,0.02,0.29,0.05,0.43,0.05
			c0-0.04,0-0.14-0.06-0.22c-0.08-0.12-0.28-0.27-0.4-0.37C19.48,46.2,19.25,45.9,19.18,45.82 M16.09,45.68
			c-0.06,0.05-0.09,0.14-0.03,0.22c0.06,0.04,0.14,0.06,0.2,0.08c0,0.03,0.1,0.08,0.1,0.17c0.09,0.05,0.19,0.1,0.29,0.1
			c0.05,0,0.1-0.03,0.15-0.06c0.01-0.08,0.01-0.17-0.05-0.25c-0.04-0.11-0.27-0.14-0.36-0.2C16.34,45.67,16.26,45.62,16.09,45.68
			 M15.08,44.15c-0.3-0.37-1.03-0.71-1.52-0.86c-0.41-0.06-0.89,0-1.29,0.04c-0.07,0.01-0.23-0.08-0.31-0.01l0.05,0.21
			c0.13,0.11,0.16,0.1,0.56,0.26c0.4,0.17,0.43,0.58,0.7,0.7c0.55,0.32,1.09,0.8,1.19,0.87c0.17,0.13,0.52,0.04,0.76,0.06
			c0.19,0.13,0.44,0.07,0.61,0.22l0.13-0.09c-0.06-0.09-0.38-0.31-0.63-0.42c-0.34-0.14-0.34-0.39-0.3-0.34
			c0.18-0.02,0.63,0.36,0.99,0.45C16.2,44.92,15.05,44.52,15.08,44.15 M14.91,27.41c0.52-0.39,1.12-1.26,0-0.68
			c-0.13,0.67-0.3,0.05-0.58,0.34c-0.18,0.26-0.48,0.67-0.4,1.03c0.04,0.2-0.25,0.64-0.16,0.96c0.16,0.03,0.19-0.35,0.43-0.53
			C14.52,28.26,14.96,27.8,14.91,27.41 M15.71,25.93c0.09-0.1,0.16-0.2,0.22-0.28c0.05-0.08,0.13-0.18,0.18-0.23
			c0.4-0.4-0.22-0.19-0.85,0.12c-0.1,0.09-0.63,0.43-0.69,0.8c-0.01,0.17-0.18,0.45,0.4,0.17C15.1,26.43,15.71,26.16,15.71,25.93"/>
		<path class="st23" d="M48,41.82l-1.36-3.66l-1.38,3.66H48 M44.76,43.18l-1.08,2.81H42.2l3.77-9.64h1.36l3.76,9.64h-1.53
			l-1.06-2.81H44.76 M53,45.98h-1.31V38.7h1.26v0.83c0.27-0.33,0.57-0.57,0.9-0.72c0.33-0.15,0.7-0.23,1.13-0.23
			c0.95,0,1.69,0.28,2.2,0.84c0.51,0.56,0.76,1.37,0.76,2.41v4.15h-1.32v-3.86c0-0.77-0.14-1.35-0.43-1.72
			c-0.29-0.37-0.73-0.56-1.33-0.56c-0.65,0-1.13,0.22-1.42,0.66C53.14,40.94,53,41.66,53,42.68V45.98 M59.91,42.3
			c0,0.74,0.24,1.35,0.73,1.85c0.49,0.5,1.08,0.75,1.79,0.75c0.64,0,1.21-0.25,1.7-0.75c0.49-0.5,0.74-1.09,0.74-1.76
			c0-0.71-0.24-1.33-0.73-1.84c-0.49-0.51-1.07-0.76-1.74-0.76c-0.69,0-1.28,0.24-1.76,0.73C60.16,41,59.91,41.6,59.91,42.3
			 M64.81,45.98v-0.89c-0.33,0.35-0.71,0.61-1.12,0.79c-0.41,0.18-0.85,0.27-1.32,0.27c-1.09,0-2-0.37-2.73-1.1
			c-0.72-0.73-1.08-1.65-1.08-2.74c0-0.51,0.09-1,0.27-1.46c0.18-0.46,0.44-0.86,0.77-1.21c0.37-0.38,0.77-0.67,1.2-0.85
			c0.44-0.18,0.93-0.28,1.49-0.28c0.49,0,0.95,0.09,1.37,0.26c0.42,0.18,0.81,0.44,1.16,0.8v-3.24h1.31v9.64H64.81 M68.97,45.98
			h-1.31V38.7h1.23v0.84c0.22-0.32,0.47-0.56,0.75-0.72c0.28-0.16,0.61-0.24,0.98-0.24v1.37c-0.59,0.04-1.01,0.22-1.26,0.52
			c-0.26,0.3-0.38,0.79-0.38,1.46V45.98 M72.5,42.34c0,0.73,0.23,1.34,0.69,1.82c0.46,0.49,1.04,0.73,1.72,0.73
			c0.67,0,1.24-0.24,1.7-0.73c0.45-0.49,0.68-1.1,0.68-1.83c0-0.74-0.23-1.35-0.68-1.83c-0.46-0.48-1.03-0.72-1.71-0.72
			c-0.68,0-1.25,0.25-1.71,0.73C72.73,40.99,72.5,41.6,72.5,42.34 M71.14,42.35c0-0.52,0.09-1,0.26-1.45
			c0.17-0.45,0.43-0.85,0.77-1.21c0.37-0.39,0.78-0.69,1.24-0.91c0.46-0.21,0.93-0.32,1.43-0.32c0.53,0,1.02,0.09,1.47,0.28
			c0.45,0.19,0.86,0.47,1.23,0.84c0.36,0.37,0.63,0.78,0.83,1.24c0.19,0.46,0.29,0.93,0.29,1.42c0,0.5-0.09,0.98-0.27,1.46
			c-0.18,0.47-0.43,0.89-0.75,1.24c-0.37,0.41-0.79,0.71-1.25,0.92c-0.46,0.21-0.95,0.31-1.47,0.31c-0.53,0-1.02-0.1-1.48-0.29
			c-0.45-0.19-0.85-0.48-1.21-0.85c-0.34-0.36-0.61-0.77-0.8-1.25C71.24,43.33,71.14,42.84,71.14,42.35 M73.98,37.77l1.35-2.3h1.33
			l-1.89,2.3H73.98 M84.25,42.31c0-0.89-0.12-1.53-0.37-1.93c-0.25-0.4-0.65-0.6-1.19-0.6c-0.56,0-0.98,0.2-1.24,0.6
			c-0.27,0.41-0.4,1.03-0.4,1.88v3.73h-1.25V38.7h1.17v0.85c0.24-0.32,0.51-0.57,0.82-0.73c0.31-0.16,0.65-0.24,1.05-0.24
			c0.53,0,0.97,0.1,1.32,0.3c0.35,0.2,0.64,0.52,0.86,0.95c0.23-0.42,0.52-0.74,0.9-0.94c0.37-0.21,0.83-0.31,1.36-0.31
			c0.82,0,1.49,0.27,1.98,0.8c0.5,0.54,0.74,1.25,0.74,2.15v4.45h-1.32v-4.24c0-0.62-0.13-1.11-0.41-1.45
			c-0.27-0.35-0.65-0.52-1.14-0.52c-0.57,0-0.98,0.18-1.22,0.55c-0.25,0.37-0.37,0.99-0.37,1.85v3.81h-1.27V42.31 M92.53,42.3
			c0,0.74,0.24,1.35,0.73,1.85c0.49,0.5,1.08,0.75,1.79,0.75c0.64,0,1.21-0.25,1.7-0.75c0.49-0.5,0.74-1.09,0.74-1.76
			c0-0.71-0.24-1.33-0.73-1.84c-0.49-0.51-1.07-0.76-1.74-0.76c-0.69,0-1.28,0.24-1.76,0.73C92.78,41,92.53,41.6,92.53,42.3
			 M97.43,45.98v-0.89c-0.33,0.35-0.71,0.61-1.12,0.79c-0.41,0.18-0.85,0.27-1.32,0.27c-1.09,0-2-0.37-2.73-1.1
			c-0.72-0.73-1.09-1.65-1.09-2.74c0-0.51,0.09-1,0.27-1.46c0.18-0.46,0.44-0.86,0.78-1.21c0.37-0.38,0.76-0.67,1.2-0.85
			c0.44-0.18,0.93-0.28,1.49-0.28c0.5,0,0.96,0.09,1.38,0.26c0.42,0.18,0.8,0.44,1.14,0.8V38.7h1.33v7.28H97.43 M107.18,43.5
			c-0.3,0.88-0.76,1.54-1.36,2c-0.6,0.45-1.33,0.68-2.19,0.68c-0.54,0-1.03-0.1-1.47-0.28c-0.44-0.19-0.84-0.47-1.2-0.84
			c-0.34-0.36-0.61-0.77-0.8-1.25c-0.19-0.47-0.29-0.96-0.29-1.45c0-0.51,0.09-0.98,0.26-1.43c0.17-0.44,0.43-0.85,0.77-1.21
			c0.38-0.4,0.8-0.71,1.26-0.91c0.47-0.21,0.97-0.31,1.5-0.31c0.83,0,1.56,0.23,2.17,0.69c0.61,0.46,1.06,1.11,1.34,1.94h-1.44
			c-0.23-0.45-0.53-0.78-0.88-1c-0.36-0.22-0.8-0.33-1.3-0.33c-0.65,0-1.2,0.24-1.65,0.73c-0.45,0.49-0.68,1.1-0.68,1.81
			c0,0.73,0.23,1.34,0.69,1.82c0.46,0.49,1.03,0.73,1.71,0.73c0.46,0,0.87-0.12,1.24-0.36c0.37-0.24,0.66-0.58,0.87-1.02H107.18
			 M109.42,42.34c0,0.73,0.23,1.34,0.69,1.82c0.46,0.49,1.03,0.73,1.72,0.73c0.67,0,1.24-0.24,1.7-0.73
			c0.46-0.49,0.68-1.1,0.68-1.83c0-0.74-0.23-1.35-0.68-1.83c-0.46-0.48-1.03-0.72-1.71-0.72c-0.68,0-1.25,0.25-1.71,0.73
			C109.65,40.99,109.42,41.6,109.42,42.34 M108.07,42.35c0-0.52,0.09-1,0.26-1.45c0.17-0.45,0.43-0.85,0.77-1.21
			c0.37-0.39,0.78-0.69,1.24-0.91c0.46-0.21,0.94-0.32,1.43-0.32c0.53,0,1.02,0.09,1.47,0.28c0.45,0.19,0.86,0.47,1.23,0.84
			c0.36,0.37,0.63,0.78,0.82,1.24c0.19,0.46,0.29,0.93,0.29,1.42c0,0.5-0.09,0.98-0.27,1.46c-0.18,0.47-0.43,0.89-0.75,1.24
			c-0.37,0.41-0.79,0.71-1.25,0.92c-0.46,0.21-0.95,0.31-1.47,0.31c-0.53,0-1.03-0.1-1.48-0.29c-0.45-0.19-0.85-0.48-1.21-0.85
			c-0.34-0.36-0.6-0.77-0.8-1.25C108.16,43.33,108.07,42.84,108.07,42.35"/>
	</g>
</g>
<g id="Capa_6">
</g>
</svg>
