<?xml version="1.0" encoding="utf-8"?>
<!-- Generator: Adobe Illustrator 27.9.0, SVG Export Plug-In . SVG Version: 6.00 Build 0)  -->
<svg version="1.1" xmlns="http://www.w3.org/2000/svg" xmlns:xlink="http://www.w3.org/1999/xlink" x="0px" y="0px"
	 viewBox="0 0 126.08 75.06" style="enable-background:new 0 0 126.08 75.06;" xml:space="preserve">
<style type="text/css">
	.st0{fill:#F0F0F0;}
	.st1{display:none;}
	.st2{display:inline;fill:#1C1824;}
	.st3{fill:none;stroke:#D4D4D4;stroke-width:2.3506;stroke-miterlimit:10;}
	.st4{fill:none;stroke:#E3E3E3;stroke-width:0.5;stroke-miterlimit:10;}
	.st5{fill:none;stroke:#FFFFFE;stroke-width:0.8855;stroke-miterlimit:10;}
	.st6{fill:#FFFFFE;}
	.st7{fill:#16C0FE;}
	.st8{fill:#0000D7;}
	.st9{fill:#FFDE00;}
	.st10{fill:#6B6B6B;}
	.st11{fill:#696969;}
	.st12{fill:none;stroke:#474747;stroke-width:0.348;stroke-miterlimit:10;}
	.st13{fill:none;stroke:#474747;stroke-width:0.4442;stroke-miterlimit:10;}
	.st14{fill:none;stroke:#D2B356;stroke-width:5.9189;stroke-miterlimit:10;}
	.st15{fill:#D2B356;}
	.st16{fill:#FFFFFF;}
	.st17{fill:none;stroke:#000000;stroke-width:0.4956;stroke-miterlimit:10;}
	.st18{fill:none;stroke:#000000;stroke-width:1.6303;stroke-miterlimit:10;}
	.st19{fill:none;stroke:#A8A8A8;stroke-width:0.5;stroke-miterlimit:10;}
	.st20{display:inline;fill:none;stroke:#DBDBDB;stroke-width:0.4653;stroke-miterlimit:10;}
	.st21{fill:#303334;}
	.st22{clip-path:url(#SVGID_00000165944226514294589070000000766962144734979982_);fill:#B6B6B6;}
	.st23{fill-rule:evenodd;clip-rule:evenodd;fill:#303334;}
	.st24{fill:#262626;}
	.st25{fill:#424242;}
	.st26{fill:#595959;}
	.st27{fill:#A3A3A3;}
	.st28{fill:#606060;}
	.st29{fill:#848484;}
	.st30{fill:#040505;}
	.st31{fill-rule:evenodd;clip-rule:evenodd;fill:#2D2D2D;}
	.st32{fill-rule:evenodd;clip-rule:evenodd;fill:#989898;}
	.st33{fill:#4B4B4B;}
	.st34{fill:#373737;}
	.st35{fill:#1E1E1E;}
	.st36{clip-path:url(#SVGID_00000070118445149477520660000005699899129513644190_);}
	.st37{fill:#B29020;}
	.st38{clip-path:url(#SVGID_00000026164904587455094660000008665230063721280166_);}
	.st39{fill-rule:evenodd;clip-rule:evenodd;fill:#333333;}
	.st40{fill-rule:evenodd;clip-rule:evenodd;fill:#FFFFFF;}
	.st41{fill:#333333;}
	.st42{fill:#E3E3E3;}
	.st43{fill:#C7C7C7;}
	.st44{fill:#828282;}
	.st45{fill:#5D5D5D;}
	.st46{fill:#B7B7B7;}
	.st47{fill:#C1C1C1;}
	.st48{fill:#D9D9D9;}
	.st49{fill:#B2B2B2;}
	.st50{fill:#1D1D1D;}
	.st51{fill-rule:evenodd;clip-rule:evenodd;fill:#A8A8A8;}
	.st52{fill:#5C5C5C;}
	.st53{fill:#202020;}
	.st54{fill:#221F1F;}
	.st55{fill:#231F20;}
	.st56{fill:none;stroke:#221F1F;stroke-width:0.1371;}
	.st57{fill:#1D1D1B;}
	.st58{fill:#7A7A7A;}
	.st59{fill:none;stroke:#DBDBDB;stroke-width:0.4653;stroke-miterlimit:10;}
	.st60{clip-path:url(#SVGID_00000142171814223374093300000005093660764817094044_);fill:#B6B6B6;}
	.st61{clip-path:url(#SVGID_00000011012961226477330030000007527916311545984152_);}
	.st62{clip-path:url(#SVGID_00000124146695354204612580000017716579524033337230_);}
	.st63{fill:#A0A0A0;}
	.st64{fill-rule:evenodd;clip-rule:evenodd;fill:#D2B356;}
	.st65{fill:#9E9E9E;}
	.st66{clip-path:url(#SVGID_00000044174794234380405700000009119006211245205942_);}
	.st67{clip-path:url(#SVGID_00000054983945806631523320000018380103466192246689_);}
	.st68{clip-path:url(#SVGID_00000080909477174301338170000012173886641911527820_);}
	.st69{fill:#212121;}
</style>
<g id="Capa_2">
</g>
<g id="Capa_7" class="st1">
</g>
<g id="Capa_1">
</g>
<g id="lineas-logos">
</g>
<g id="marco-logos" class="st1">
</g>
<g id="logos">
	<rect x="0.11" y="-0.42" class="st59" width="126.08" height="75.06"/>
	<g>
		<g>
			<path class="st21" d="M61.23,36.71c-0.04,0.15-0.12,0.31-0.24,0.47c-0.12,0.17-0.52,0.25-1.19,0.25h-0.33v0.98h11.4l0.17-4.08
				h-1.01c-0.1,0.64-0.23,1.16-0.4,1.58c-0.17,0.41-0.42,0.75-0.77,1c-0.35,0.25-0.66,0.4-0.94,0.45c-0.28,0.05-0.66,0.07-1.16,0.07
				h-1.35c-0.47,0-0.78-0.06-0.94-0.18c-0.15-0.12-0.25-0.23-0.3-0.33c-0.04-0.1-0.07-0.25-0.07-0.45v-4
				c0.68-0.16,1.24-0.4,1.68-0.74c0.82-0.63,1.32-1.27,1.5-1.91c0.18-0.64,0.28-1.12,0.32-1.45c0.03-0.32,0.05-0.64,0.05-0.95v-5.45
				c0-0.45,0.03-0.81,0.08-1.08c0.05-0.26,0.18-0.44,0.36-0.52c0.19-0.09,0.32-0.13,0.41-0.15c0.09-0.01,0.34-0.04,0.76-0.09v-0.98
				h-4.96v0.98c0.59,0,1,0.04,1.21,0.11c0.21,0.07,0.38,0.19,0.49,0.34c0.11,0.15,0.17,0.38,0.17,0.69v4.1h-6.8v-3.53
				c0-0.36,0.01-0.63,0.04-0.8c0.03-0.18,0.1-0.34,0.19-0.47c0.1-0.13,0.19-0.22,0.27-0.27c0.08-0.04,0.23-0.07,0.45-0.1l0.85-0.07
				v-0.98h-6.17v0.98c0.18,0,0.39,0.01,0.6,0.04c0.22,0.02,0.41,0.08,0.57,0.17c0.16,0.09,0.26,0.21,0.31,0.39
				c0.05,0.17,0.07,0.41,0.07,0.72v5.79c0,0.69,0.03,1.22,0.08,1.59c0.06,0.37,0.2,0.84,0.43,1.4c0.24,0.57,0.77,1.12,1.62,1.65
				c0.67,0.43,1.53,0.68,2.57,0.77v3.5C61.29,36.37,61.27,36.56,61.23,36.71z M64.11,27.76c0-0.57,0.09-0.95,0.25-1.13
				c0.17-0.18,0.53-0.28,1.09-0.28h0.73v0.69c0,0.68-0.05,1.28-0.16,1.79c-0.1,0.52-0.35,0.98-0.72,1.37
				c-0.35,0.37-0.75,0.61-1.19,0.75V27.76z M61.12,30.88c-0.49-0.19-0.87-0.45-1.14-0.79c-0.27-0.34-0.43-0.69-0.5-1.05
				c-0.07-0.36-0.1-0.75-0.1-1.15v-1.53c0.38,0,0.83,0.01,0.97,0.02c0.18,0.01,0.36,0.06,0.54,0.14c0.17,0.08,0.28,0.2,0.33,0.37
				c0.05,0.17,0.07,0.34,0.07,0.53v3.53C61.23,30.92,61.17,30.91,61.12,30.88z M83.9,35.9v-0.74h-1.26l0,0.74H83.9z M31.27,42.73
				h25.17c2.13,1.04,4.48,1.58,6.85,1.58c2.3,0,4.63-0.52,6.82-1.58H95.3v-0.87H71.66c0.45-0.29,0.89-0.59,1.3-0.91h4.56v-0.72h0.02
				h1.24v-0.74h1.33v0.72h1.24v0.74h3.84v-0.72h1.27v-0.74h1.33v0.72h1.24v0.74h3.71v-0.72h1.27v-0.74h0.91v-0.72h0.33v-0.74h-1.26
				v0.72h-1.24v0.74h-1.24v0.72h-1.2v-0.7l-1.29,0v-0.76H87.8v-0.72h-1.26v0.72h-1.27v0.74h-1.3v0.72h-1.33v-0.7h-1.29v-0.76h-1.23
				v-0.72h-1.26v0.72H77.6v0.73h-1.3v0.74h-2.46c0.49-0.45,0.95-0.92,1.38-1.42h1.17v-0.72h1.23l0-0.77l1.3,0v-0.7h1.25v0.72h1.3
				v0.74h1.27v0.72h1.26v-0.72h1.23v-0.76l1.29,0v-0.7h1.25v0.72h1.3v0.74h1.27v0.72h1.25v-0.72h1.23l0-0.76l1.28,0v-0.7h0.87
				l0-2.22h-0.88v-0.7h-1.27v-0.76h-1.23v-0.72h-1.25v0.72h-1.27v0.74h-1.31v0.72h-1.26v-0.7h-1.28v-0.76h-1.23v-0.72h-1.26v0.72
				h-0.01l-1.26,0v0.74h-1.31v0.72H78.9v-0.7h-0.81c0.13-0.39,0.24-0.78,0.34-1.17v0.29h1.69v-0.72h1.23v-0.76l1.29,0v-0.7h1.33
				v0.72h1.3v0.74h1.27v0.72h1.26v-0.72h1.23v-0.76h1.29v-0.7h1.2v0.72h1.24v0.74h1.24v0.72h1.26v-0.74h-0.33v-0.72h-0.91v-0.74
				h-1.27v-0.72h-3.71v0.74H87.8v0.72h-1.33v-0.74H85.2v-0.72h-3.84v0.74h-1.24v0.72h-1.45c0.14-0.81,0.22-1.62,0.23-2.45h16.37
				v-0.87H78.89c-0.1-2.48-0.8-4.97-2.14-7.25c-2.91-4.95-8.13-7.71-13.48-7.71c-2.69,0-5.42,0.7-7.91,2.16
				c-4.74,2.79-7.46,7.69-7.68,12.8H31.23v0.87h16.43c0.01,0.82,0.09,1.64,0.23,2.45H46.4v-0.72h-1.24v-0.74h-3.84v0.72h-1.27v0.74
				h-1.33v-0.72h-1.24v-0.74h-3.71v0.72H32.5v0.74h-0.91v0.72h-0.33v0.74h1.26v-0.72h1.24v-0.74H35v-0.72h1.2v0.7h1.29v0.76h1.23
				v0.72h1.26v-0.72h1.27v-0.74h1.3v-0.72h1.32v0.7l1.29,0v0.76h1.23v0.72h1.69v-0.47c0.11,0.45,0.23,0.9,0.38,1.35h-0.85v0.7h-1.26
				v-0.72h-1.31v-0.74l-1.26,0h-0.01v-0.72h-1.26v0.72H41.3l0,0.76h-1.27v0.7h-1.26v-0.72h-1.3v-0.74H36.2v-0.72h-1.26v0.72h-1.23
				v0.76h-1.27v0.7h-0.88l0,2.22h0.87v0.7l1.28,0v0.76h1.23v0.72h1.26v-0.72h1.27v-0.74h1.3v-0.72h1.24l0,0.7l1.29,0v0.76h1.23v0.72
				h1.26v-0.72h1.27v-0.74h1.3v-0.72h1.25v0.7l1.3,0l0,0.77h1.23v0.72h1.22c0.43,0.51,0.89,0.98,1.37,1.42h-2.51v-0.74h-1.31v-0.73
				h-1.27v-0.72H46.4v0.72h-1.23v0.76h-1.29v0.7h-1.32v-0.72h-1.3v-0.74h-1.27v-0.72h-1.26v0.72h-1.23v0.76l-1.29,0v0.7H35v-0.72
				h-1.24v-0.74h-1.24v-0.72h-1.26v0.74h0.33v0.72h0.91v0.74h1.27v0.72h3.71v-0.74h1.24v-0.72h1.33v0.74h1.27v0.72h3.84v-0.74h1.24
				v-0.72h1.33v0.74h1.24H49v0.72h4.62c0.41,0.32,0.84,0.63,1.28,0.91H31.27V42.73z M87.75,35.12h1.23v-0.72h1.27v-0.74h1.33v0.72
				h1.22l0,0.74h0.88v0.74h-0.87v0.74h-1.23v0.72h-1.33v-0.74h-1.27v-0.72h-1.23V35.12z M80.04,35.11l1.34,0v-0.72h1.27v-0.74h1.33
				v0.72l1.23,0.01v0.72h1.28v0.74h-1.27v0.74h-1.24v0.72h-1.33v-0.74h-1.27v-0.72h-1.35V35.11z M38.77,35.85h-1.23v0.72h-1.27v0.74
				h-1.33v-0.72h-1.23v-0.74h-0.87v-0.74h0.88v-0.74h1.22v-0.72h1.33v0.74h1.27v0.72h1.23V35.85z M46.48,35.85h-1.35v0.72h-1.27
				v0.74h-1.33v-0.72h-1.24l0-0.74h-1.27v-0.74h1.28v-0.72l1.23-0.01v-0.72h1.33v0.74h1.27v0.72l1.34,0V35.85z M76.38,37.32h-0.07
				c0.02-0.03,0.05-0.07,0.07-0.1V37.32z M78.78,35.11v0.74h-1.16v0.74h-0.87c0.33-0.56,0.61-1.13,0.87-1.72v0.24H78.78z
				 M48.9,36.59v-0.74h-1.16v-0.74h1.16v-0.32c0.26,0.61,0.56,1.22,0.91,1.8H48.9z M50.14,37.32v-0.19
				c0.04,0.06,0.08,0.13,0.12,0.19H50.14z M50.56,36.17c-1.38-2.35-2.04-4.93-2.04-7.47c0-5.06,2.6-9.99,7.28-12.74
				c2.35-1.38,4.93-2.04,7.47-2.04c5.06,0,9.98,2.6,12.74,7.28c1.38,2.35,2.04,4.92,2.04,7.47c0,5.06-2.6,9.98-7.28,12.73
				c-2.35,1.38-4.93,2.04-7.47,2.04C58.24,43.44,53.31,40.84,50.56,36.17z M42.62,35.9h1.26v-0.74h-1.26V35.9z M91.53,35.16h-1.25
				v0.74h1.25V35.16z M34.99,35.9h1.26v-0.74h-1.26V35.9z"/>
		</g>
		<rect x="31.16" y="54.5" class="st21" width="64.18" height="0.38"/>
		<path class="st21" d="M31.26,45.33c0.43,0,1.07,0.03,1.67,0.03c0.65,0,1.22-0.03,1.7-0.03c0.04,0.06,0.04,0.34,0,0.41
			c-0.19,0.02-0.39,0.07-0.51,0.09c-0.27,0.05-0.35,0.25-0.36,0.58c-0.02,0.76,0,1.55,0,2.11c0,0.36,0.02,0.97,0.07,1.36
			c0.1,0.74,0.61,1.22,1.66,1.22c0.7,0,1.49-0.21,1.59-1.68c0.05-0.79,0.05-2.42,0.01-2.91c-0.03-0.38-0.1-0.59-0.44-0.66
			c-0.16-0.05-0.42-0.09-0.67-0.12c-0.03-0.07-0.02-0.33,0.02-0.41c0.42,0,0.88,0.03,1.36,0.03c0.86,0,1.1-0.03,1.33-0.03
			c0.05,0.06,0.05,0.35,0,0.41c-0.16,0.03-0.32,0.05-0.46,0.09c-0.25,0.06-0.35,0.22-0.38,0.75c-0.02,0.35-0.06,1.75-0.09,2.46
			c-0.07,2.2-1.19,2.88-2.83,2.88c-1.93,0-2.56-0.95-2.68-1.99c-0.07-0.78-0.06-2.5-0.07-3.56c-0.01-0.26-0.08-0.44-0.35-0.53
			c-0.14-0.04-0.37-0.09-0.57-0.12C31.22,45.66,31.21,45.39,31.26,45.33"/>
		<path class="st21" d="M41.76,45.88L41.76,45.88c-0.03,0.03-0.07,0.12-0.07,0.16c-0.02,0.26-0.02,1.17-0.02,2.36
			c0,0.03,0.03,0.08,0.07,0.08c0.44,0.01,0.95-0.02,1.13-0.13c0.29-0.14,0.5-0.41,0.5-1.08c0-0.88-0.51-1.46-1.3-1.46
			C41.99,45.82,41.83,45.84,41.76,45.88 M39.31,45.33c0.26,0,1.11,0.03,1.52,0.03c0.9,0,1.5-0.03,2.04-0.03
			c1.31,0,2.03,0.7,2.03,1.65c0,0.81-0.53,1.31-1.22,1.59c-0.02,0-0.02,0.06-0.01,0.08c0.2,0.4,1.15,1.74,1.66,2.24
			c0.36,0.35,0.44,0.39,0.99,0.45c0.01,0.03-0.04,0.4-0.1,0.43c-0.6,0.05-1.73-0.01-2.15-0.21c-0.27-0.14-0.48-0.35-0.54-0.45
			c-0.43-0.52-0.89-1.34-1.24-1.89c-0.07-0.13-0.16-0.18-0.31-0.18c-0.07-0.01-0.23-0.01-0.26-0.01c-0.02,0-0.05,0.05-0.05,0.07
			c0,0.64,0.01,1.25,0.02,1.66c0.01,0.28,0.07,0.42,0.3,0.49c0.21,0.05,0.3,0.06,0.58,0.1c0.05,0.02,0.04,0.4-0.02,0.41
			c-0.21,0-0.76-0.03-1.6-0.03c-0.87,0-1.36,0.03-1.61,0.03c-0.04-0.04-0.07-0.37-0.01-0.41c0.18-0.02,0.37-0.05,0.51-0.08
			c0.22-0.05,0.3-0.19,0.31-0.51c0.02-0.34,0.03-1.68,0.03-2.33c0-1.02,0-1.7-0.02-2.14c-0.01-0.26-0.11-0.4-0.3-0.44
			c-0.13-0.03-0.35-0.07-0.55-0.11C39.23,45.66,39.26,45.36,39.31,45.33z"/>
		<path class="st21" d="M46.69,45.33c0.37,0,0.85,0.03,1.59,0.03c1.07,0,1.41-0.03,1.66-0.03c0.03,0.05,0.04,0.35,0,0.41
			c-0.22,0.03-0.43,0.06-0.58,0.11c-0.23,0.08-0.24,0.25-0.25,0.52c-0.02,0.34-0.01,1.01-0.01,1.92c0,1.17-0.01,2.05,0.01,2.45
			c0.01,0.19,0.03,0.42,0.32,0.51c0.13,0.04,0.41,0.08,0.63,0.12c0.04,0.06,0,0.37-0.06,0.41c-0.39-0.01-0.81-0.03-1.63-0.03
			c-0.96,0-1.3,0.03-1.7,0.03c-0.06-0.04-0.05-0.37,0-0.41c0.22-0.03,0.38-0.05,0.5-0.08c0.28-0.06,0.35-0.15,0.38-0.56
			c0.02-0.33,0.02-1.67,0.02-2.41c0-1.12,0-1.58-0.03-2.03c-0.01-0.22-0.08-0.37-0.26-0.42c-0.21-0.06-0.37-0.09-0.6-0.12
			C46.63,45.68,46.64,45.38,46.69,45.33"/>
		<path class="st21" d="M50.89,45.33c0.44,0,1.11,0.03,1.62,0.03h2.18c0.41,0,1.01-0.01,1.39-0.07c0.02,0.01,0.03,0.02,0.04,0.05
			c-0.07,0.34-0.12,1-0.15,1.62c-0.06,0.05-0.4,0.06-0.45,0.03c-0.06-0.38-0.12-0.57-0.2-0.74c-0.09-0.23-0.3-0.28-0.43-0.3
			c-0.3-0.02-1.32-0.02-1.49,0c-0.05,0.01-0.11,0.14-0.11,0.19c-0.01,0.67,0,1.27,0,1.98c0,0.04,0.04,0.08,0.07,0.08
			c0.28,0,0.97,0.01,1.32-0.01c0.2-0.01,0.3-0.11,0.36-0.35c0.03-0.11,0.05-0.26,0.08-0.4c0.06-0.03,0.42-0.02,0.5,0.03
			c-0.02,0.24-0.06,0.71-0.06,1.03c0,0.3,0.01,0.8,0.02,1.09c-0.06,0.04-0.41,0.05-0.47,0.01l-0.11-0.44
			c-0.06-0.16-0.15-0.25-0.35-0.29c-0.19-0.02-0.97-0.02-1.28-0.02c-0.04,0-0.09,0.07-0.09,0.1v1.77c0,0.18,0.11,0.31,0.23,0.35
			c0.2,0.04,0.74,0.07,1.36,0.07c0.42,0,0.58-0.03,0.81-0.33c0.2-0.24,0.4-0.58,0.56-0.95c0.07-0.01,0.39,0.1,0.44,0.17
			c-0.05,0.25-0.31,1.19-0.5,1.56c-0.04,0.08-0.11,0.17-0.56,0.17c-0.85,0-1.88-0.04-3.08-0.04c-0.56,0-1.37,0.03-1.94,0.03
			c-0.03-0.1-0.03-0.35,0-0.41c0.39-0.04,0.65-0.09,0.8-0.14c0.18-0.04,0.3-0.16,0.31-0.5c0.03-0.61,0.02-1.23,0.02-2.48
			c0-0.77,0-1.58-0.02-1.97c-0.02-0.3-0.12-0.37-0.31-0.43c-0.17-0.05-0.36-0.07-0.57-0.09C50.83,45.68,50.85,45.37,50.89,45.33"/>
		<path class="st21" d="M57.13,45.33c0.37,0,0.84,0.03,1.56,0.03c0.34,0,0.69-0.01,0.86-0.02c0.06,0.17,0.18,0.33,0.4,0.6
			c0.83,1.07,2.32,2.95,3.01,3.75c0.02,0,0.03-0.01,0.05-0.01c-0.01-1.32,0-2.5-0.06-3.22c-0.03-0.36-0.14-0.53-0.47-0.61
			c-0.22-0.05-0.4-0.07-0.65-0.11c-0.04-0.04-0.03-0.39,0-0.41c0.25,0,0.74,0.03,1.45,0.03c0.67,0,1.09-0.03,1.31-0.03
			c0.03,0.04,0.03,0.37,0,0.41c-0.15,0.02-0.27,0.04-0.42,0.09c-0.3,0.09-0.42,0.19-0.46,0.66c-0.07,0.9-0.1,2.48-0.1,3.84
			c0,0.48,0.01,1.09,0.02,1.48c-0.18-0.03-0.91-0.01-1.1,0.01c-0.69-0.92-2.89-3.84-3.67-4.83c-0.04-0.03-0.06,0-0.06,0.01
			c-0.01,1.16,0,3.11,0.03,3.56c0.02,0.45,0.18,0.62,0.48,0.69c0.18,0.04,0.36,0.07,0.63,0.12c0.04,0.04,0.04,0.34-0.01,0.41
			c-0.41,0-0.91-0.03-1.38-0.03c-0.52,0-1.06,0.03-1.43,0.03c-0.05-0.05-0.03-0.38,0-0.41c0.24-0.04,0.42-0.06,0.63-0.14
			c0.23-0.08,0.32-0.28,0.35-0.61c0.06-0.55,0.11-2.62,0.11-4.02c0-0.25-0.12-0.58-0.38-0.68c-0.19-0.06-0.39-0.13-0.67-0.16
			C57.09,45.71,57.1,45.36,57.13,45.33"/>
		<path class="st21" d="M67.4,49.07c0.01,0,0.01,0.12,0.01,0.13c-0.02,0.17-0.15,0.72-0.2,0.74c-0.08,0.03-2.05,0.07-2.27,0.07
			c-0.01,0-0.02-0.11-0.02-0.12c0.01-0.2,0.12-0.77,0.17-0.77C65.64,49.13,67.12,49.07,67.4,49.07"/>
		<path class="st21" d="M67.91,45.33c0.48,0,0.78,0.03,1.65,0.03c0.78,0,1.17-0.02,1.59-0.03c0.04,0.05,0.03,0.35,0,0.41
			c-0.29,0.04-0.42,0.06-0.53,0.09c-0.23,0.07-0.27,0.17-0.28,0.44c-0.01,0.17-0.02,0.78-0.02,1.87c0,1.08,0.01,2.35,0.03,2.62
			c0.01,0.2,0.13,0.29,0.21,0.33c0.23,0.06,0.84,0.06,1.35,0.06c0.2,0,0.4-0.09,0.6-0.37c0.21-0.32,0.51-0.88,0.69-1.27
			c0.06-0.03,0.41,0.07,0.44,0.16c-0.03,0.25-0.4,1.53-0.66,1.96c-0.02,0.09-0.15,0.15-0.59,0.15c-0.88,0-2.08-0.05-2.92-0.05
			c-0.89,0-1.29,0.03-1.64,0.03c-0.04-0.07-0.04-0.36,0-0.41c0.35-0.04,0.42-0.05,0.63-0.09c0.2-0.07,0.27-0.19,0.3-0.42
			c0.02-0.24,0.04-1.44,0.04-2.36c0-1.24,0-1.8-0.02-2.21c-0.01-0.22-0.07-0.37-0.31-0.43c-0.13-0.04-0.38-0.06-0.59-0.09
			C67.84,45.66,67.87,45.36,67.91,45.33"/>
		<path class="st21" d="M78.84,51.08L78.84,51.08c0.47-0.46,0.64-1.37,0.64-2.27c0-1.08-0.28-2.2-0.93-2.76
			c-0.3-0.25-0.59-0.37-0.99-0.37c-0.28,0-0.58,0.07-0.78,0.23c-0.59,0.42-0.79,1.31-0.79,2.3c0,0.94,0.26,2.16,1,2.8
			c0.3,0.24,0.62,0.39,1.06,0.39C78.32,51.4,78.63,51.29,78.84,51.08 M75.14,50.96c-0.66-0.69-0.89-1.62-0.89-2.42
			c0-0.85,0.25-1.82,1.07-2.47c0.6-0.55,1.47-0.91,2.52-0.91c2.21,0,3.37,1.51,3.37,3.27c0,0.79-0.2,1.57-0.64,2.14
			c-0.7,0.92-1.75,1.34-2.84,1.34C76.52,51.92,75.71,51.55,75.14,50.96z"/>
		<path class="st21" d="M87.34,51.64c-0.06,0.13-0.21,0.16-0.64,0.16l-3.66-0.06c-0.3,0.01-0.74,0.01-0.97,0.03
			c-0.03-0.03-0.05-0.24-0.04-0.29c0.75-0.99,3.1-4.77,3.48-5.51c0.01-0.03-0.01-0.06-0.03-0.06c-0.39-0.01-1.64,0-2.08,0.06
			c-0.16,0.02-0.35,0.09-0.53,0.38c-0.13,0.23-0.27,0.58-0.45,1c-0.05,0.03-0.43-0.09-0.45-0.14c0.15-0.69,0.27-1.35,0.34-1.95
			c0.03-0.01,0.18-0.06,0.22-0.04c0.2,0.12,0.46,0.14,0.95,0.14h2.07c0.61,0,1.44-0.02,1.86-0.03c0.02,0.01,0.04,0.21,0.03,0.26
			c-0.35,0.62-2.41,4.07-3.27,5.45c-0.01,0.02-0.01,0.07,0.02,0.08c0.19,0.04,1.06,0.08,1.95,0.08c0.19,0,0.35-0.07,0.54-0.24
			c0.22-0.22,0.51-0.75,0.77-1.31c0.07-0.03,0.4,0.08,0.46,0.15C87.84,50.13,87.55,51.24,87.34,51.64"/>
		<path class="st21" d="M91.19,46.92L91.19,46.92c-0.2,0.57-0.46,1.41-0.64,1.91c-0.01,0.03,0,0.07,0.03,0.09
			c0.12,0.01,0.32,0.01,0.61,0.01c0.35,0,0.59,0,0.68-0.01c0.02,0,0.03-0.04,0.03-0.05c-0.08-0.28-0.44-1.36-0.66-1.94
			C91.23,46.92,91.2,46.91,91.19,46.92 M89.25,50.49c0.6-1.39,1.39-3.58,1.67-4.34c0.08-0.22,0.2-0.61,0.23-0.81
			c0.17,0.02,0.37,0.02,0.56,0.02c0.22,0,0.4,0,0.56-0.02c0.05,0.18,0.13,0.46,0.2,0.65c0.37,1.02,1.18,3.31,1.55,4.26
			c0.36,0.89,0.41,0.98,1.22,1.1c0.03,0.05,0,0.37-0.04,0.41c-0.27,0-0.72-0.03-1.58-0.03c-0.85,0-1.24,0.03-1.63,0.03
			c-0.03-0.06-0.04-0.36-0.01-0.41c0.23-0.04,0.44-0.08,0.54-0.14c0.09-0.07,0.11-0.17,0.09-0.21c-0.06-0.32-0.32-1.01-0.45-1.34
			c-0.01-0.03-0.06-0.07-0.12-0.07c-0.18-0.01-0.55,0-0.83,0c-0.42,0-0.68-0.01-0.82,0c-0.04,0-0.1,0.05-0.12,0.1
			c-0.18,0.52-0.37,1.04-0.37,1.2c0,0.16,0.04,0.29,0.3,0.35c0.18,0.04,0.34,0.07,0.53,0.1c0.03,0.05,0.01,0.36-0.03,0.41
			c-0.29,0-0.71-0.03-1.36-0.03c-0.4,0-0.87,0.03-1.25,0.03c-0.04-0.06-0.04-0.34,0-0.41C88.83,51.24,88.98,51.13,89.25,50.49z"/>
		<path class="st21" d="M33.46,58.3c-0.17,0.28-0.36,0.49-0.57,0.63c-0.21,0.15-0.44,0.22-0.68,0.22c-0.36,0-0.65-0.14-0.89-0.41
			c-0.24-0.28-0.36-0.62-0.36-1.04c0-0.46,0.14-0.85,0.44-1.16c0.29-0.31,0.65-0.46,1.08-0.46c0.25,0,0.46,0.05,0.63,0.15
			c0.16,0.1,0.25,0.23,0.25,0.38c0,0.08-0.02,0.13-0.07,0.18c-0.05,0.05-0.11,0.07-0.19,0.07c-0.11,0-0.22-0.08-0.34-0.25
			c-0.02-0.03-0.04-0.06-0.05-0.07c-0.06-0.08-0.12-0.13-0.19-0.17c-0.07-0.04-0.15-0.06-0.23-0.06c-0.24,0-0.45,0.1-0.6,0.31
			c-0.16,0.21-0.24,0.48-0.24,0.8c0,0.36,0.1,0.66,0.31,0.91c0.2,0.25,0.45,0.37,0.75,0.37c0.15,0,0.3-0.04,0.44-0.12
			c0.14-0.08,0.28-0.21,0.42-0.38L33.46,58.3z"/>
		<path class="st21" d="M36.43,58.37L36.43,58.37v-0.71l-0.03,0.01c-0.67,0.26-1.01,0.49-1.01,0.66c0,0.14,0.03,0.25,0.1,0.34
			c0.07,0.09,0.15,0.14,0.26,0.14c0.09,0,0.19-0.04,0.3-0.11C36.17,58.63,36.29,58.52,36.43,58.37 M36.43,58.56
			c-0.17,0.2-0.34,0.35-0.5,0.44c-0.16,0.1-0.32,0.14-0.47,0.14c-0.17,0-0.3-0.07-0.4-0.2c-0.1-0.14-0.15-0.32-0.15-0.56
			c0-0.23,0.44-0.5,1.33-0.8l0.18-0.06v-0.54c0-0.16-0.05-0.28-0.15-0.36c-0.1-0.08-0.24-0.12-0.43-0.12
			c-0.14,0-0.25,0.03-0.34,0.09c-0.09,0.06-0.14,0.13-0.14,0.21c0,0.02,0,0.04,0.01,0.06c0,0.02,0.01,0.04,0.02,0.06l-0.39,0.22
			c-0.02-0.04-0.03-0.08-0.03-0.11c-0.01-0.03-0.01-0.06-0.01-0.07c0-0.09,0.03-0.16,0.08-0.23c0.05-0.07,0.13-0.13,0.24-0.2
			l0.75-0.44c0.3,0.03,0.52,0.1,0.67,0.23c0.14,0.13,0.21,0.32,0.21,0.56v1.5c0,0.16,0.01,0.27,0.04,0.31
			c0.03,0.05,0.08,0.07,0.15,0.07c0.05,0,0.1-0.02,0.15-0.05c0.04-0.04,0.08-0.09,0.12-0.16l0.09,0.04
			c-0.04,0.19-0.11,0.33-0.21,0.43c-0.1,0.1-0.23,0.15-0.39,0.15c-0.14,0-0.25-0.05-0.32-0.14c-0.07-0.09-0.11-0.22-0.11-0.4V58.56z
			"/>
		<path class="st21" d="M39.73,56.87l0.22-0.29c0.13-0.16,0.25-0.28,0.36-0.36c0.11-0.08,0.22-0.11,0.34-0.11
			c0.12,0,0.21,0.03,0.28,0.09c0.07,0.06,0.1,0.14,0.1,0.24c0,0.09-0.02,0.16-0.07,0.22c-0.05,0.05-0.11,0.08-0.2,0.08
			c-0.05,0-0.12-0.02-0.22-0.06c-0.1-0.04-0.17-0.06-0.22-0.06c-0.08,0-0.16,0.04-0.24,0.11c-0.09,0.07-0.2,0.2-0.35,0.39v1.27
			c0,0.19,0.04,0.32,0.11,0.38c0.07,0.07,0.22,0.1,0.44,0.11v0.18c-0.08,0-0.19,0-0.34,0c-0.15,0-0.26,0-0.33,0
			c-0.05,0-0.14,0-0.26,0.01c-0.13,0.01-0.23,0.01-0.32,0.01c-0.06,0-0.1,0-0.13,0c-0.03,0-0.06,0-0.08-0.01v-0.15
			c0.17,0,0.28-0.03,0.33-0.08c0.06-0.06,0.09-0.17,0.09-0.33v-1.63c0-0.09-0.09-0.18-0.27-0.27c-0.05-0.02-0.09-0.04-0.13-0.06
			V56.4l0.18-0.07c0.35-0.13,0.59-0.22,0.72-0.26V56.87z"/>
		<path class="st21" d="M42.29,59.07l0-0.17c0.2-0.02,0.34-0.06,0.4-0.11c0.06-0.05,0.09-0.12,0.09-0.23v-1.64
			c0-0.11-0.03-0.19-0.08-0.24c-0.05-0.05-0.15-0.1-0.3-0.15v-0.12c0.13-0.04,0.26-0.09,0.4-0.14c0.14-0.06,0.28-0.12,0.43-0.19
			l0.04,0.03v0.57c0.22-0.18,0.42-0.32,0.6-0.41c0.18-0.09,0.36-0.13,0.52-0.13c0.14,0,0.27,0.03,0.39,0.08
			c0.12,0.06,0.21,0.13,0.28,0.23c0.05,0.07,0.08,0.14,0.1,0.23c0.02,0.08,0.03,0.21,0.03,0.38v0.13v1.42
			c0,0.11,0.03,0.19,0.08,0.24c0.05,0.04,0.16,0.07,0.31,0.07h0.05v0.17c-0.12-0.01-0.23-0.01-0.34-0.01c-0.11,0-0.22,0-0.32,0
			c-0.11,0-0.23,0-0.36,0c-0.13,0-0.27,0.01-0.42,0.01V58.9c0.21,0,0.35-0.02,0.41-0.07c0.06-0.05,0.09-0.15,0.09-0.31v-1.37
			c0-0.21-0.05-0.38-0.13-0.48c-0.09-0.11-0.22-0.16-0.4-0.16c-0.13,0-0.27,0.03-0.42,0.09c-0.15,0.06-0.31,0.16-0.46,0.28v1.71
			c0,0.12,0.03,0.2,0.09,0.24c0.06,0.04,0.18,0.07,0.37,0.07v0.17c-0.13-0.01-0.24-0.01-0.36-0.01c-0.11,0-0.21,0-0.31,0
			c-0.11,0-0.23,0-0.36,0C42.57,59.06,42.43,59.06,42.29,59.07"/>
		<path class="st21" d="M47.66,57.09L47.66,57.09h1.04c0.11,0,0.18-0.02,0.22-0.06c0.04-0.04,0.07-0.11,0.07-0.2
			c0-0.16-0.05-0.29-0.16-0.4c-0.11-0.11-0.25-0.16-0.42-0.16c-0.18,0-0.34,0.07-0.48,0.22C47.8,56.64,47.71,56.84,47.66,57.09
			 M49.56,58.43c-0.16,0.23-0.35,0.41-0.55,0.53c-0.2,0.12-0.41,0.18-0.64,0.18c-0.36,0-0.66-0.13-0.89-0.38
			c-0.23-0.25-0.34-0.59-0.34-0.99c0-0.47,0.13-0.87,0.4-1.2c0.27-0.33,0.59-0.49,0.97-0.49c0.3,0,0.55,0.1,0.74,0.29
			c0.19,0.19,0.28,0.44,0.28,0.75c0,0.05,0,0.08,0,0.11c0,0.02,0,0.04-0.01,0.06h-1.89c0,0.03-0.01,0.06-0.01,0.11
			c-0.01,0.05-0.01,0.09-0.01,0.11c0,0.35,0.1,0.64,0.3,0.88c0.2,0.24,0.45,0.36,0.73,0.36c0.14,0,0.27-0.03,0.4-0.1
			c0.13-0.07,0.27-0.17,0.41-0.31L49.56,58.43z"/>
		<path class="st21" d="M51.22,58.88c0-0.04-0.01-0.1-0.01-0.18c-0.01-0.21-0.02-0.36-0.04-0.44l0.18-0.03
			c0.07,0.23,0.17,0.41,0.29,0.53c0.13,0.12,0.28,0.18,0.45,0.18c0.16,0,0.29-0.05,0.39-0.14c0.11-0.09,0.16-0.21,0.16-0.35
			c0-0.22-0.17-0.43-0.52-0.64c-0.03-0.02-0.05-0.03-0.07-0.04c-0.29-0.18-0.49-0.33-0.59-0.46c-0.1-0.13-0.15-0.27-0.15-0.44
			c0-0.23,0.09-0.42,0.28-0.58c0.18-0.16,0.41-0.24,0.67-0.24c0.12,0,0.24,0.02,0.37,0.05c0.13,0.03,0.27,0.08,0.42,0.14
			c-0.01,0.16-0.01,0.29-0.01,0.39c0,0.1,0,0.18,0,0.24h-0.13c-0.08-0.23-0.16-0.39-0.26-0.48c-0.1-0.1-0.23-0.15-0.38-0.15
			c-0.15,0-0.27,0.04-0.37,0.13c-0.1,0.08-0.15,0.19-0.15,0.32c0,0.19,0.21,0.41,0.62,0.65l0.02,0.01c0.29,0.17,0.48,0.32,0.57,0.44
			c0.1,0.13,0.14,0.28,0.14,0.46c0,0.25-0.1,0.46-0.3,0.63c-0.2,0.17-0.44,0.25-0.74,0.25c-0.14,0-0.28-0.02-0.43-0.07
			C51.49,59.03,51.35,58.97,51.22,58.88"/>
		<path class="st21" d="M58.98,58.37L58.98,58.37v-0.71l-0.03,0.01c-0.67,0.26-1.01,0.49-1.01,0.66c0,0.14,0.04,0.25,0.1,0.34
			c0.07,0.09,0.15,0.14,0.26,0.14c0.09,0,0.19-0.04,0.3-0.11C58.73,58.63,58.85,58.52,58.98,58.37 M58.99,58.56
			c-0.17,0.2-0.34,0.35-0.5,0.44c-0.16,0.1-0.32,0.14-0.47,0.14c-0.17,0-0.3-0.07-0.4-0.2c-0.1-0.14-0.15-0.32-0.15-0.56
			c0-0.23,0.44-0.5,1.33-0.8l0.18-0.06v-0.54c0-0.16-0.05-0.28-0.15-0.36c-0.1-0.08-0.24-0.12-0.43-0.12
			c-0.14,0-0.25,0.03-0.34,0.09c-0.09,0.06-0.14,0.13-0.14,0.21c0,0.02,0,0.04,0.01,0.06c0,0.02,0.01,0.04,0.02,0.06l-0.39,0.22
			c-0.01-0.04-0.03-0.08-0.03-0.11c-0.01-0.03-0.01-0.06-0.01-0.07c0-0.09,0.03-0.16,0.08-0.23c0.05-0.07,0.13-0.13,0.24-0.2
			l0.75-0.44c0.3,0.03,0.52,0.1,0.67,0.23c0.14,0.13,0.21,0.32,0.21,0.56v1.5c0,0.16,0.01,0.27,0.04,0.31
			c0.03,0.05,0.08,0.07,0.15,0.07c0.05,0,0.1-0.02,0.15-0.05c0.05-0.04,0.08-0.09,0.12-0.16l0.1,0.04
			c-0.04,0.19-0.11,0.33-0.21,0.43c-0.1,0.1-0.23,0.15-0.39,0.15c-0.14,0-0.25-0.05-0.32-0.14c-0.07-0.09-0.11-0.22-0.11-0.4V58.56z
			"/>
		<path class="st21" d="M62.29,56.87l0.22-0.29c0.13-0.16,0.25-0.28,0.36-0.36c0.11-0.08,0.22-0.11,0.34-0.11
			c0.12,0,0.21,0.03,0.28,0.09c0.07,0.06,0.1,0.14,0.1,0.24c0,0.09-0.02,0.16-0.07,0.22c-0.05,0.05-0.11,0.08-0.2,0.08
			c-0.05,0-0.12-0.02-0.21-0.06c-0.1-0.04-0.17-0.06-0.23-0.06c-0.08,0-0.16,0.04-0.24,0.11c-0.09,0.07-0.2,0.2-0.35,0.39v1.27
			c0,0.19,0.03,0.32,0.11,0.38c0.07,0.07,0.22,0.1,0.43,0.11v0.18c-0.08,0-0.19,0-0.34,0c-0.15,0-0.26,0-0.33,0
			c-0.05,0-0.14,0-0.26,0.01c-0.13,0.01-0.23,0.01-0.32,0.01c-0.06,0-0.1,0-0.13,0c-0.03,0-0.06,0-0.08-0.01v-0.15
			c0.17,0,0.28-0.03,0.33-0.08c0.06-0.06,0.09-0.17,0.09-0.33v-1.63c0-0.09-0.09-0.18-0.27-0.27c-0.05-0.02-0.09-0.04-0.13-0.06
			V56.4l0.18-0.07c0.35-0.13,0.59-0.22,0.72-0.26V56.87z"/>
		<path class="st21" d="M66.88,57.08L66.88,57.08c0-0.24-0.07-0.44-0.21-0.6c-0.14-0.16-0.31-0.24-0.52-0.24
			c-0.18,0-0.32,0.07-0.44,0.2c-0.11,0.13-0.17,0.31-0.17,0.52c0,0.27,0.06,0.49,0.19,0.66c0.13,0.17,0.29,0.25,0.49,0.25
			c0.19,0,0.35-0.07,0.47-0.22C66.82,57.5,66.88,57.31,66.88,57.08 M66,59.28L66,59.28c-0.18,0.08-0.31,0.17-0.4,0.27
			c-0.09,0.1-0.13,0.21-0.13,0.34c0,0.22,0.08,0.39,0.25,0.53c0.17,0.14,0.39,0.21,0.66,0.21c0.3,0,0.54-0.07,0.72-0.22
			c0.18-0.15,0.28-0.34,0.28-0.58c0-0.19-0.06-0.34-0.19-0.44c-0.13-0.1-0.32-0.15-0.57-0.15c-0.04,0-0.13,0.01-0.27,0.02
			C66.22,59.27,66.1,59.28,66,59.28z M65.74,59.27c-0.2-0.04-0.35-0.12-0.46-0.24c-0.1-0.12-0.16-0.27-0.16-0.46v-0.05l0.7-0.54
			c-0.23-0.05-0.42-0.15-0.55-0.3c-0.13-0.15-0.2-0.33-0.2-0.54c0-0.3,0.11-0.55,0.33-0.76c0.22-0.21,0.49-0.31,0.81-0.31
			c0.13,0,0.27,0.02,0.42,0.06c0.15,0.04,0.31,0.11,0.49,0.2h0.76v0.3h-0.6c0.02,0.07,0.03,0.13,0.04,0.19
			c0.01,0.06,0.01,0.11,0.01,0.15c0,0.3-0.11,0.55-0.33,0.75c-0.22,0.2-0.5,0.3-0.83,0.3h-0.1c-0.15,0.05-0.27,0.12-0.35,0.21
			c-0.09,0.09-0.13,0.17-0.13,0.26c0,0.1,0.05,0.18,0.14,0.23c0.09,0.05,0.24,0.08,0.43,0.08c0.04,0,0.14-0.01,0.29-0.02
			c0.15-0.01,0.29-0.02,0.4-0.02c0.29,0,0.53,0.08,0.7,0.24c0.17,0.16,0.26,0.37,0.26,0.64c0,0.33-0.15,0.6-0.44,0.83
			c-0.29,0.22-0.66,0.33-1.1,0.33c-0.39,0-0.69-0.08-0.91-0.24c-0.22-0.16-0.33-0.38-0.33-0.67c0-0.03,0-0.06,0-0.08
			c0-0.02,0-0.03,0.01-0.05L65.74,59.27z"/>
		<path class="st21" d="M69.87,57.09L69.87,57.09h1.04c0.11,0,0.18-0.02,0.23-0.06c0.04-0.04,0.07-0.11,0.07-0.2
			c0-0.16-0.05-0.29-0.16-0.4c-0.11-0.11-0.25-0.16-0.42-0.16c-0.18,0-0.34,0.07-0.48,0.22C70.01,56.64,69.92,56.84,69.87,57.09
			 M71.76,58.43c-0.16,0.23-0.35,0.41-0.55,0.53c-0.2,0.12-0.41,0.18-0.64,0.18c-0.36,0-0.66-0.13-0.89-0.38
			c-0.23-0.25-0.34-0.59-0.34-0.99c0-0.47,0.13-0.87,0.4-1.2c0.27-0.33,0.59-0.49,0.97-0.49c0.3,0,0.55,0.1,0.74,0.29
			c0.19,0.19,0.28,0.44,0.28,0.75c0,0.05,0,0.08,0,0.11c0,0.02,0,0.04,0,0.06h-1.89c0,0.03-0.01,0.06-0.01,0.11
			c-0.01,0.05-0.01,0.09-0.01,0.11c0,0.35,0.1,0.64,0.3,0.88c0.2,0.24,0.45,0.36,0.73,0.36c0.14,0,0.27-0.03,0.4-0.1
			c0.13-0.07,0.27-0.17,0.41-0.31L71.76,58.43z"/>
		<path class="st21" d="M73.25,59.07l0-0.17c0.21-0.02,0.34-0.06,0.4-0.11c0.06-0.05,0.09-0.12,0.09-0.23v-1.64
			c0-0.11-0.03-0.19-0.08-0.24c-0.05-0.05-0.15-0.1-0.3-0.15v-0.12c0.13-0.04,0.26-0.09,0.4-0.14c0.14-0.06,0.28-0.12,0.42-0.19
			l0.04,0.03v0.57c0.22-0.18,0.42-0.32,0.6-0.41c0.18-0.09,0.36-0.13,0.52-0.13c0.14,0,0.27,0.03,0.39,0.08
			c0.12,0.06,0.21,0.13,0.28,0.23c0.05,0.07,0.08,0.14,0.1,0.23c0.02,0.08,0.03,0.21,0.03,0.38v0.13v1.42
			c0,0.11,0.03,0.19,0.08,0.24c0.05,0.04,0.16,0.07,0.31,0.07h0.05v0.17c-0.12-0.01-0.23-0.01-0.34-0.01c-0.11,0-0.22,0-0.32,0
			c-0.11,0-0.23,0-0.36,0c-0.13,0-0.27,0.01-0.42,0.01V58.9c0.21,0,0.35-0.02,0.41-0.07c0.06-0.05,0.09-0.15,0.09-0.31v-1.37
			c0-0.21-0.04-0.38-0.13-0.48c-0.09-0.11-0.22-0.16-0.4-0.16c-0.13,0-0.27,0.03-0.43,0.09c-0.15,0.06-0.31,0.16-0.46,0.28v1.71
			c0,0.12,0.03,0.2,0.09,0.24c0.06,0.04,0.18,0.07,0.37,0.07v0.17c-0.13-0.01-0.24-0.01-0.36-0.01c-0.11,0-0.21,0-0.31,0
			c-0.11,0-0.23,0-0.36,0C73.53,59.06,73.39,59.06,73.25,59.07"/>
		<path class="st21" d="M79.93,58.5c-0.06,0.2-0.16,0.36-0.29,0.48c-0.14,0.12-0.29,0.17-0.47,0.17c-0.25,0-0.43-0.07-0.53-0.21
			c-0.1-0.14-0.16-0.39-0.16-0.74v-1.4c0-0.12-0.02-0.19-0.07-0.22c-0.05-0.03-0.17-0.04-0.36-0.05v-0.14
			c0.16-0.12,0.3-0.24,0.44-0.36c0.14-0.12,0.28-0.25,0.42-0.4l0.07,0.01c0,0.04,0,0.07-0.01,0.12c0,0.04,0,0.1,0,0.18v0.29h0.88
			v0.28h-0.89v1.53c0,0.26,0.03,0.44,0.09,0.55c0.06,0.11,0.16,0.16,0.29,0.16c0.11,0,0.2-0.03,0.28-0.08
			c0.08-0.05,0.14-0.13,0.19-0.24L79.93,58.5z"/>
		<path class="st21" d="M82.35,56.07v2.51c0,0.12,0.03,0.2,0.09,0.25c0.06,0.05,0.18,0.07,0.37,0.08l0,0.16
			c-0.03,0-0.07,0-0.12-0.01c-0.26-0.01-0.45-0.02-0.56-0.02c-0.1,0-0.22,0-0.34,0.01c-0.13,0-0.27,0.01-0.44,0.02l0-0.17
			c0.21-0.02,0.34-0.06,0.4-0.11c0.06-0.05,0.09-0.12,0.09-0.23v-1.64c0-0.11-0.03-0.19-0.08-0.24c-0.05-0.05-0.15-0.1-0.3-0.15
			v-0.12c0.09-0.03,0.33-0.11,0.69-0.26L82.35,56.07z"/>
		<path class="st21" d="M84.18,59.07l0-0.17c0.21-0.02,0.34-0.06,0.4-0.11c0.06-0.05,0.09-0.12,0.09-0.23v-1.64
			c0-0.11-0.03-0.19-0.08-0.24c-0.05-0.05-0.15-0.1-0.3-0.15v-0.12c0.13-0.04,0.26-0.09,0.4-0.14c0.14-0.06,0.28-0.12,0.42-0.19
			l0.04,0.03v0.57c0.22-0.18,0.42-0.32,0.6-0.41c0.18-0.09,0.36-0.13,0.52-0.13c0.14,0,0.27,0.03,0.39,0.08
			c0.12,0.06,0.21,0.13,0.28,0.23c0.05,0.07,0.08,0.14,0.1,0.23c0.02,0.08,0.03,0.21,0.03,0.38v0.13v1.42
			c0,0.11,0.03,0.19,0.08,0.24c0.05,0.04,0.16,0.07,0.31,0.07h0.05v0.17c-0.12-0.01-0.23-0.01-0.34-0.01c-0.11,0-0.22,0-0.32,0
			c-0.11,0-0.23,0-0.36,0c-0.13,0-0.27,0.01-0.42,0.01V58.9c0.21,0,0.35-0.02,0.41-0.07c0.06-0.05,0.09-0.15,0.09-0.31v-1.37
			c0-0.21-0.04-0.38-0.13-0.48c-0.09-0.11-0.22-0.16-0.4-0.16c-0.13,0-0.27,0.03-0.42,0.09c-0.15,0.06-0.31,0.16-0.46,0.28v1.71
			c0,0.12,0.03,0.2,0.09,0.24c0.06,0.04,0.18,0.07,0.37,0.07v0.17c-0.13-0.01-0.24-0.01-0.36-0.01c-0.11,0-0.21,0-0.31,0
			c-0.11,0-0.23,0-0.36,0C84.46,59.06,84.33,59.06,84.18,59.07"/>
		<path class="st21" d="M90.47,58.37L90.47,58.37v-0.71l-0.03,0.01c-0.67,0.26-1.01,0.49-1.01,0.66c0,0.14,0.03,0.25,0.1,0.34
			c0.07,0.09,0.15,0.14,0.26,0.14c0.09,0,0.19-0.04,0.3-0.11C90.21,58.63,90.34,58.52,90.47,58.37 M90.48,58.56
			c-0.17,0.2-0.34,0.35-0.5,0.44c-0.16,0.1-0.32,0.14-0.47,0.14c-0.17,0-0.3-0.07-0.4-0.2c-0.1-0.14-0.15-0.32-0.15-0.56
			c0-0.23,0.44-0.5,1.33-0.8l0.18-0.06v-0.54c0-0.16-0.05-0.28-0.15-0.36c-0.1-0.08-0.24-0.12-0.43-0.12
			c-0.14,0-0.25,0.03-0.34,0.09c-0.09,0.06-0.14,0.13-0.14,0.21c0,0.02,0,0.04,0.01,0.06c0,0.02,0.01,0.04,0.02,0.06l-0.39,0.22
			c-0.01-0.04-0.03-0.08-0.03-0.11c-0.01-0.03-0.01-0.06-0.01-0.07c0-0.09,0.02-0.16,0.08-0.23c0.05-0.07,0.13-0.13,0.24-0.2
			l0.75-0.44c0.3,0.03,0.52,0.1,0.67,0.23c0.14,0.13,0.21,0.32,0.21,0.56v1.5c0,0.16,0.01,0.27,0.04,0.31
			c0.03,0.05,0.08,0.07,0.15,0.07c0.05,0,0.1-0.02,0.15-0.05c0.04-0.04,0.08-0.09,0.12-0.16l0.1,0.04
			c-0.04,0.19-0.11,0.33-0.21,0.43c-0.1,0.1-0.23,0.15-0.39,0.15c-0.14,0-0.25-0.05-0.32-0.14c-0.07-0.09-0.11-0.22-0.11-0.4V58.56z
			"/>
		<path class="st21" d="M92.96,58.88c0-0.04-0.01-0.1-0.01-0.18c-0.01-0.21-0.02-0.36-0.04-0.44l0.17-0.03
			c0.07,0.23,0.17,0.41,0.29,0.53c0.13,0.12,0.27,0.18,0.45,0.18c0.16,0,0.29-0.05,0.39-0.14c0.11-0.09,0.16-0.21,0.16-0.35
			c0-0.22-0.17-0.43-0.52-0.64c-0.03-0.02-0.05-0.03-0.07-0.04c-0.29-0.18-0.49-0.33-0.59-0.46c-0.1-0.13-0.15-0.27-0.15-0.44
			c0-0.23,0.09-0.42,0.28-0.58c0.18-0.16,0.41-0.24,0.67-0.24c0.12,0,0.24,0.02,0.37,0.05c0.13,0.03,0.27,0.08,0.42,0.14
			c-0.01,0.16-0.01,0.29-0.02,0.39c0,0.1,0,0.18,0,0.24h-0.13c-0.07-0.23-0.16-0.39-0.26-0.48c-0.1-0.1-0.23-0.15-0.38-0.15
			c-0.15,0-0.27,0.04-0.37,0.13c-0.1,0.08-0.15,0.19-0.15,0.32c0,0.19,0.21,0.41,0.62,0.65l0.02,0.01c0.29,0.17,0.48,0.32,0.58,0.44
			c0.1,0.13,0.14,0.28,0.14,0.46c0,0.25-0.1,0.46-0.3,0.63c-0.2,0.17-0.44,0.25-0.74,0.25c-0.14,0-0.29-0.02-0.43-0.07
			C93.24,59.03,93.1,58.97,92.96,58.88"/>
	</g>
</g>
<g id="Capa_6">
</g>
</svg>
