<?xml version="1.0" encoding="utf-8"?>
<!-- Generator: Adobe Illustrator 27.9.0, SVG Export Plug-In . SVG Version: 6.00 Build 0)  -->
<svg version="1.1" xmlns="http://www.w3.org/2000/svg" xmlns:xlink="http://www.w3.org/1999/xlink" x="0px" y="0px"
	 viewBox="0 0 126.08 75.06" style="enable-background:new 0 0 126.08 75.06;" xml:space="preserve">
<style type="text/css">
	.st0{fill:#F0F0F0;}
	.st1{display:none;}
	.st2{display:inline;fill:#1C1824;}
	.st3{fill:none;stroke:#D4D4D4;stroke-width:2.3506;stroke-miterlimit:10;}
	.st4{fill:none;stroke:#E3E3E3;stroke-width:0.5;stroke-miterlimit:10;}
	.st5{fill:none;stroke:#FFFFFE;stroke-width:0.8855;stroke-miterlimit:10;}
	.st6{fill:#FFFFFE;}
	.st7{fill:#16C0FE;}
	.st8{fill:#0000D7;}
	.st9{fill:#FFDE00;}
	.st10{fill:#6B6B6B;}
	.st11{fill:#696969;}
	.st12{fill:none;stroke:#474747;stroke-width:0.348;stroke-miterlimit:10;}
	.st13{fill:none;stroke:#474747;stroke-width:0.4442;stroke-miterlimit:10;}
	.st14{fill:none;stroke:#D2B356;stroke-width:5.9189;stroke-miterlimit:10;}
	.st15{fill:#D2B356;}
	.st16{fill:#FFFFFF;}
	.st17{fill:none;stroke:#000000;stroke-width:0.4956;stroke-miterlimit:10;}
	.st18{fill:none;stroke:#000000;stroke-width:1.6303;stroke-miterlimit:10;}
	.st19{fill:none;stroke:#A8A8A8;stroke-width:0.5;stroke-miterlimit:10;}
	.st20{display:inline;fill:none;stroke:#DBDBDB;stroke-width:0.4653;stroke-miterlimit:10;}
	.st21{fill:#303334;}
	.st22{clip-path:url(#SVGID_00000019639269474034847950000003179614008478596001_);fill:#B6B6B6;}
	.st23{fill-rule:evenodd;clip-rule:evenodd;fill:#303334;}
	.st24{fill:#262626;}
	.st25{fill:#424242;}
	.st26{fill:#595959;}
	.st27{fill:#A3A3A3;}
	.st28{fill:#606060;}
	.st29{fill:#848484;}
	.st30{fill:#040505;}
	.st31{fill-rule:evenodd;clip-rule:evenodd;fill:#2D2D2D;}
	.st32{fill-rule:evenodd;clip-rule:evenodd;fill:#989898;}
	.st33{fill:#4B4B4B;}
	.st34{fill:#373737;}
	.st35{fill:#1E1E1E;}
	.st36{clip-path:url(#SVGID_00000155139184823150450080000010508506794572477608_);}
	.st37{fill:#B29020;}
	.st38{clip-path:url(#SVGID_00000181064427185297054390000002447528741156326284_);}
	.st39{fill-rule:evenodd;clip-rule:evenodd;fill:#333333;}
	.st40{fill-rule:evenodd;clip-rule:evenodd;fill:#FFFFFF;}
	.st41{fill:#333333;}
	.st42{fill:#E3E3E3;}
	.st43{fill:#C7C7C7;}
	.st44{fill:#828282;}
	.st45{fill:#5D5D5D;}
	.st46{fill:#B7B7B7;}
	.st47{fill:#C1C1C1;}
	.st48{fill:#D9D9D9;}
	.st49{fill:#B2B2B2;}
	.st50{fill:#1D1D1D;}
	.st51{fill-rule:evenodd;clip-rule:evenodd;fill:#A8A8A8;}
	.st52{fill:#5C5C5C;}
	.st53{fill:#202020;}
	.st54{fill:#221F1F;}
	.st55{fill:#231F20;}
	.st56{fill:none;stroke:#221F1F;stroke-width:0.1371;}
	.st57{fill:#1D1D1B;}
	.st58{fill:#7A7A7A;}
	.st59{fill:none;stroke:#DBDBDB;stroke-width:0.4653;stroke-miterlimit:10;}
	.st60{clip-path:url(#SVGID_00000160902113940880421500000006052331236073468853_);fill:#B6B6B6;}
	.st61{clip-path:url(#SVGID_00000034049497386336676770000017158008985768995206_);}
	.st62{clip-path:url(#SVGID_00000026121449213456615670000005076319248379193779_);}
	.st63{fill:#A0A0A0;}
	.st64{fill-rule:evenodd;clip-rule:evenodd;fill:#D2B356;}
	.st65{fill:#9E9E9E;}
	.st66{clip-path:url(#SVGID_00000048491025285259106570000008723012736213855152_);}
	.st67{clip-path:url(#SVGID_00000101816618459632075630000016544863448626430875_);}
	.st68{clip-path:url(#SVGID_00000043441834519322618430000006775702958097324200_);}
	.st69{fill:#212121;}
</style>
<g id="Capa_2">
</g>
<g id="Capa_7" class="st1">
</g>
<g id="Capa_1">
</g>
<g id="lineas-logos">
</g>
<g id="marco-logos" class="st1">
</g>
<g id="logos">
	<rect x="-0.17" y="-0.42" class="st59" width="126.08" height="75.06"/>
	<g>
		<g>
			<path class="st39" d="M39.83,37.11c0,6.45-5.23,11.68-11.68,11.68c-6.45,0-11.68-5.23-11.68-11.68c0-6.45,5.23-11.68,11.68-11.68
				C34.6,25.43,39.83,30.66,39.83,37.11z"/>
			<g>
				<path class="st40" d="M25.26,37.02c0.45,1.1,1.23,1.89,2.44,2.33c0.12-2.77,0.03-5.46,0.51-8.11c0.5,2.67,0.39,5.37,0.5,8.23
					c0.51-0.31,0.95-0.5,1.3-0.8c1.29-1.12,1.57-2.6,1.38-4.2c-0.24-2-1.2-3.69-2.4-5.26c-0.22-0.29-0.49-0.55-0.83-0.92
					c-0.14,0.2-0.22,0.33-0.31,0.44c-1.1,1.37-1.97,2.86-2.55,4.52C24.88,34.49,24.74,35.76,25.26,37.02z"/>
				<path class="st40" d="M22.43,42.51c0.23,0.59,0.71,1.04,1.3,1.31c0.7,0.32,1.41,0.35,2.14-0.01c-1.13-1.18-2.21-2.32-3.3-3.45
					c0.06-0.07,0.13-0.13,0.19-0.2c1.17,1.05,2.34,2.09,3.6,3.22c0.08-0.32,0.17-0.57,0.19-0.82c0.07-0.8-0.26-1.47-0.81-2
					c-1.19-1.14-2.68-1.46-4.31-1.55c0,0.22-0.03,0.37,0.01,0.51C21.76,40.51,22.05,41.53,22.43,42.51z"/>
				<path class="st40" d="M34.58,38.98c-1.15,0.14-2.24,0.46-3.24,1.05c-0.59,0.35-1.04,0.82-1.28,1.46
					c-0.24,0.64-0.24,1.27,0.09,1.95c1.19-1.11,2.21-2.3,3.45-3.25c0.05,0.05,0.11,0.11,0.16,0.16c-1.04,1.17-2.07,2.33-3.11,3.5
					c0.01,0.06,0.01,0.11,0.02,0.17c0.42,0.03,0.86,0.14,1.27,0.07c0.95-0.15,1.61-0.76,2.07-1.57c0.61-1.08,0.92-2.25,0.91-3.47
					c-0.09-0.05-0.11-0.07-0.14-0.08C34.71,38.97,34.64,38.97,34.58,38.98z"/>
				<path class="st40" d="M28.55,45.12c-0.03-1.32-0.16-2.61-0.16-3.93c0-0.29,0,0.37,0-0.81c0,0-0.29,0-0.66,0
					c0,1.77,0.01,3.21-0.01,4.83c0,0.37,0.09,0.49,0.43,0.48C28.51,45.68,28.56,45.47,28.55,45.12z"/>
			</g>
		</g>
		<g>
			<g>
				<path class="st41" d="M48.29,41.01c-0.15,0.35-0.36,0.65-0.63,0.89c-0.27,0.24-0.59,0.42-0.96,0.54
					c-0.37,0.12-0.78,0.18-1.22,0.18h-4.07V32.57h3.91c0.94,0,1.68,0.24,2.22,0.73c0.54,0.49,0.81,1.16,0.81,2.02
					c0,0.27-0.04,0.52-0.12,0.75c-0.08,0.23-0.18,0.44-0.31,0.62c-0.13,0.18-0.27,0.34-0.43,0.47c-0.16,0.13-0.32,0.22-0.49,0.29
					c0.2,0.08,0.39,0.18,0.57,0.32c0.18,0.14,0.34,0.3,0.48,0.49c0.14,0.19,0.25,0.41,0.34,0.66c0.09,0.25,0.13,0.54,0.13,0.86
					C48.51,40.25,48.44,40.65,48.29,41.01z M46.38,34.31c-0.3-0.24-0.7-0.37-1.19-0.37h-2.26v2.88h2.26c0.49,0,0.88-0.12,1.19-0.37
					c0.3-0.25,0.45-0.6,0.45-1.07C46.83,34.91,46.68,34.55,46.38,34.31z M46.56,38.61c-0.28-0.28-0.69-0.42-1.23-0.42h-2.4v3.06h2.4
					c0.54,0,0.95-0.14,1.23-0.43c0.28-0.29,0.42-0.66,0.42-1.11C46.99,39.26,46.85,38.9,46.56,38.61z"/>
				<path class="st41" d="M50.28,42.62V32.57h1.53v10.05H50.28z"/>
				<path class="st41" d="M60.78,38.9c-0.01,0.39-0.04,0.75-0.1,1.07c-0.06,0.32-0.15,0.62-0.28,0.89
					c-0.13,0.27-0.32,0.53-0.56,0.78c-0.35,0.35-0.74,0.61-1.19,0.8c-0.44,0.18-0.93,0.28-1.47,0.28c-0.54,0-1.02-0.09-1.46-0.28
					c-0.44-0.18-0.83-0.45-1.18-0.8c-0.24-0.24-0.43-0.5-0.57-0.78c-0.13-0.27-0.23-0.57-0.29-0.89c-0.06-0.32-0.1-0.68-0.11-1.07
					c-0.01-0.39-0.01-0.83-0.01-1.31c0-0.48,0.01-0.92,0.01-1.31c0.01-0.39,0.05-0.75,0.11-1.07c0.06-0.32,0.16-0.62,0.29-0.89
					c0.13-0.27,0.32-0.53,0.57-0.78c0.35-0.35,0.74-0.61,1.18-0.8c0.44-0.18,0.93-0.28,1.46-0.28c0.54,0,1.03,0.09,1.47,0.28
					c0.44,0.18,0.84,0.45,1.19,0.8c0.24,0.24,0.43,0.5,0.56,0.78c0.13,0.27,0.23,0.57,0.28,0.89c0.06,0.32,0.09,0.68,0.1,1.07
					c0.01,0.39,0.01,0.83,0.01,1.31C60.8,38.08,60.79,38.51,60.78,38.9z M59.25,36.33c-0.01-0.33-0.04-0.62-0.09-0.85
					c-0.04-0.23-0.1-0.42-0.18-0.58c-0.08-0.16-0.18-0.3-0.3-0.43c-0.18-0.19-0.4-0.34-0.66-0.45c-0.26-0.11-0.54-0.17-0.84-0.17
					c-0.3,0-0.58,0.06-0.84,0.17c-0.26,0.11-0.48,0.26-0.66,0.45c-0.12,0.13-0.22,0.28-0.3,0.43c-0.08,0.15-0.14,0.35-0.18,0.58
					c-0.04,0.23-0.07,0.51-0.08,0.85c-0.01,0.33-0.02,0.76-0.02,1.26c0,0.51,0.01,0.93,0.02,1.26c0.01,0.33,0.04,0.62,0.08,0.85
					c0.04,0.23,0.1,0.42,0.18,0.58c0.08,0.16,0.18,0.3,0.3,0.43c0.18,0.19,0.4,0.34,0.66,0.45c0.26,0.11,0.54,0.17,0.84,0.17
					c0.3,0,0.58-0.06,0.84-0.17c0.26-0.11,0.48-0.26,0.66-0.45c0.12-0.13,0.22-0.28,0.3-0.43c0.08-0.16,0.14-0.35,0.18-0.58
					c0.04-0.23,0.07-0.51,0.09-0.85c0.01-0.33,0.02-0.76,0.02-1.26C59.27,37.09,59.27,36.67,59.25,36.33z"/>
				<path class="st41" d="M69.44,41.01c-0.15,0.35-0.36,0.65-0.63,0.89c-0.27,0.24-0.59,0.42-0.96,0.54
					c-0.37,0.12-0.78,0.18-1.22,0.18h-4.07V32.57h3.91c0.94,0,1.68,0.24,2.22,0.73c0.54,0.49,0.81,1.16,0.81,2.02
					c0,0.27-0.04,0.52-0.12,0.75c-0.08,0.23-0.18,0.44-0.31,0.62c-0.13,0.18-0.27,0.34-0.43,0.47c-0.16,0.13-0.32,0.22-0.49,0.29
					c0.2,0.08,0.39,0.18,0.57,0.32c0.18,0.14,0.34,0.3,0.48,0.49c0.14,0.19,0.25,0.41,0.34,0.66c0.08,0.25,0.13,0.54,0.13,0.86
					C69.66,40.25,69.59,40.65,69.44,41.01z M67.53,34.31c-0.3-0.24-0.7-0.37-1.19-0.37h-2.26v2.88h2.26c0.49,0,0.88-0.12,1.19-0.37
					c0.3-0.25,0.45-0.6,0.45-1.07C67.98,34.91,67.83,34.55,67.53,34.31z M67.71,38.61c-0.28-0.28-0.69-0.42-1.23-0.42h-2.4v3.06h2.4
					c0.54,0,0.95-0.14,1.23-0.43c0.28-0.29,0.42-0.66,0.42-1.11C68.14,39.26,68,38.9,67.71,38.61z"/>
				<path class="st41" d="M77.2,42.62l-0.69-2.02h-3.97l-0.69,2.02h-1.62l3.69-10.05h1.23l3.69,10.05H77.2z M74.56,34.86L73,39.32
					h3.09L74.56,34.86z"/>
				<path class="st41" d="M86.01,40.94c-0.21,0.39-0.48,0.71-0.79,0.97c-0.32,0.26-0.67,0.46-1.07,0.59s-0.82,0.2-1.28,0.2
					c-0.53,0-1.01-0.09-1.46-0.28c-0.44-0.18-0.84-0.45-1.19-0.8c-0.24-0.24-0.43-0.5-0.56-0.78c-0.13-0.27-0.23-0.57-0.29-0.89
					c-0.06-0.32-0.1-0.68-0.11-1.07c-0.01-0.39-0.01-0.83-0.01-1.31c0-0.48,0.01-0.92,0.01-1.31c0.01-0.39,0.05-0.75,0.11-1.07
					c0.06-0.32,0.16-0.62,0.29-0.89c0.13-0.27,0.32-0.53,0.56-0.78c0.35-0.35,0.74-0.61,1.19-0.8c0.44-0.18,0.93-0.28,1.46-0.28
					c0.93,0,1.72,0.26,2.36,0.79c0.64,0.53,1.05,1.29,1.23,2.3H84.9c-0.12-0.51-0.35-0.92-0.68-1.24c-0.33-0.32-0.78-0.48-1.35-0.48
					c-0.3,0-0.58,0.05-0.83,0.16c-0.25,0.11-0.47,0.26-0.65,0.45c-0.12,0.13-0.22,0.27-0.3,0.43c-0.08,0.15-0.14,0.35-0.18,0.58
					c-0.04,0.23-0.07,0.52-0.09,0.85c-0.02,0.34-0.03,0.76-0.03,1.27c0,0.51,0.01,0.93,0.03,1.27c0.02,0.34,0.05,0.62,0.09,0.85
					c0.04,0.23,0.1,0.42,0.18,0.58c0.08,0.15,0.18,0.3,0.3,0.43c0.18,0.19,0.39,0.34,0.65,0.44c0.25,0.11,0.53,0.16,0.83,0.16
					c0.56,0,1.02-0.16,1.36-0.48c0.34-0.32,0.57-0.73,0.69-1.24h1.54C86.37,40.12,86.22,40.56,86.01,40.94z"/>
				<path class="st41" d="M91.11,33.94v8.68h-1.52v-8.68h-2.77v-1.37h7.06v1.37H91.11z"/>
				<path class="st41" d="M95.12,42.62V32.57h6.42v1.37h-4.9v2.94h4.18v1.36h-4.18v3.02h4.9v1.37H95.12z"/>
				<path class="st41" d="M108.69,42.62l-2.12-4.24h-1.91v4.24h-1.52V32.57h3.9c0.48,0,0.91,0.07,1.29,0.22
					c0.38,0.15,0.71,0.35,0.98,0.61c0.27,0.26,0.48,0.57,0.63,0.93c0.15,0.36,0.22,0.76,0.22,1.18c0,0.73-0.19,1.31-0.58,1.76
					c-0.39,0.45-0.86,0.75-1.43,0.91l2.32,4.45H108.69z M108.16,34.36c-0.32-0.28-0.73-0.42-1.24-0.42h-2.26v3.16h2.26
					c0.51,0,0.92-0.14,1.24-0.41c0.32-0.27,0.47-0.66,0.47-1.16C108.64,35.03,108.48,34.64,108.16,34.36z"/>
			</g>
		</g>
		<g>
			<path class="st41" d="M53.96,45.71h1.74v0.45h-1.24v0.47h1.09v0.45h-1.09v0.49h1.25v0.45h-1.76V45.71z"/>
			<path class="st41" d="M56.14,45.71h0.51v1.85h1.15v0.46h-1.66V45.71z"/>
			<path class="st41" d="M58.91,45.71h0.56l0.6,1.63l0.6-1.63h0.55l-0.93,2.33h-0.45L58.91,45.71z"/>
			<path class="st41" d="M62.01,45.7h0.47l0.99,2.33h-0.53l-0.21-0.52h-0.98l-0.21,0.52h-0.52L62.01,45.7z M62.55,47.06l-0.31-0.75
				l-0.31,0.75H62.55z"/>
			<path class="st41" d="M63.79,45.71h0.51v1.85h1.15v0.46h-1.66V45.71z"/>
			<path class="st41" d="M65.57,46.87L65.57,46.87c0-0.66,0.52-1.2,1.23-1.2c0.71,0,1.22,0.53,1.22,1.19v0.01
				c0,0.66-0.52,1.19-1.23,1.19C66.08,48.06,65.57,47.53,65.57,46.87z M67.49,46.87L67.49,46.87c0-0.4-0.29-0.73-0.7-0.73
				c-0.41,0-0.69,0.32-0.69,0.72v0.01c0,0.4,0.29,0.73,0.7,0.73C67.21,47.59,67.49,47.27,67.49,46.87z"/>
			<path class="st41" d="M68.44,45.71h1.06c0.29,0,0.52,0.08,0.67,0.23c0.13,0.13,0.2,0.31,0.2,0.53v0.01c0,0.37-0.2,0.61-0.49,0.72
				l0.56,0.83h-0.59l-0.5-0.74h-0.4v0.74h-0.51V45.71z M69.47,46.83c0.25,0,0.39-0.13,0.39-0.33V46.5c0-0.22-0.15-0.33-0.4-0.33
				h-0.51v0.66H69.47z"/>
			<path class="st41" d="M71.75,45.71h0.9c0.73,0,1.23,0.5,1.23,1.15v0.01c0,0.65-0.5,1.16-1.23,1.16h-0.9V45.71z M72.66,47.56
				c0.42,0,0.7-0.28,0.7-0.69v-0.01c0-0.41-0.28-0.7-0.7-0.7h-0.39v1.39H72.66z"/>
			<path class="st41" d="M74.3,45.71h1.74v0.45h-1.24v0.47h1.09v0.45h-1.09v0.49h1.25v0.45H74.3V45.71z"/>
			<path class="st41" d="M77.98,46.18h-0.7v-0.47h1.91v0.47h-0.7v1.84h-0.51V46.18z"/>
			<path class="st41" d="M79.51,47.03v-1.32h0.51v1.31c0,0.38,0.19,0.57,0.5,0.57c0.31,0,0.5-0.19,0.5-0.55v-1.32h0.51v1.3
				c0,0.7-0.39,1.04-1.01,1.04C79.89,48.06,79.51,47.71,79.51,47.03z"/>
			<path class="st41" d="M82.86,46.87L82.86,46.87c0-0.66,0.5-1.2,1.2-1.2c0.44,0,0.7,0.15,0.91,0.36l-0.32,0.37
				c-0.18-0.16-0.36-0.26-0.59-0.26c-0.39,0-0.67,0.32-0.67,0.72v0.01c0,0.4,0.27,0.73,0.67,0.73c0.26,0,0.43-0.11,0.61-0.27
				l0.32,0.33c-0.24,0.25-0.5,0.41-0.95,0.41C83.37,48.06,82.86,47.54,82.86,46.87z"/>
			<path class="st41" d="M86.16,45.7h0.47l0.99,2.33h-0.53l-0.21-0.52H85.9l-0.21,0.52h-0.52L86.16,45.7z M86.69,47.06l-0.31-0.75
				l-0.31,0.75H86.69z"/>
			<path class="st41" d="M87.94,45.71h0.55l0.61,0.98l0.61-0.98h0.55v2.31h-0.5v-1.51L89.1,47.5h-0.01l-0.64-0.98v1.5h-0.5V45.71z"
				/>
			<path class="st41" d="M90.77,45.71h0.94c0.55,0,0.88,0.33,0.88,0.8v0.01c0,0.53-0.42,0.81-0.93,0.81h-0.39v0.69h-0.51V45.71z
				 M91.68,46.88c0.25,0,0.4-0.15,0.4-0.35v-0.01c0-0.23-0.16-0.35-0.41-0.35h-0.39v0.71H91.68z"/>
			<path class="st41" d="M92.84,46.87L92.84,46.87c0-0.66,0.52-1.2,1.23-1.2c0.71,0,1.22,0.53,1.22,1.19v0.01
				c0,0.66-0.52,1.19-1.23,1.19C93.35,48.06,92.84,47.53,92.84,46.87z M94.77,46.87L94.77,46.87c0-0.4-0.29-0.73-0.7-0.73
				c-0.41,0-0.69,0.32-0.69,0.72v0.01c0,0.4,0.29,0.73,0.7,0.73C94.48,47.59,94.77,47.27,94.77,46.87z"/>
		</g>
	</g>
</g>
<g id="Capa_6">
</g>
</svg>
