<?xml version="1.0" encoding="utf-8"?>
<!-- Generator: Adobe Illustrator 27.9.0, SVG Export Plug-In . SVG Version: 6.00 Build 0)  -->
<svg version="1.1" xmlns="http://www.w3.org/2000/svg" xmlns:xlink="http://www.w3.org/1999/xlink" x="0px" y="0px"
	 viewBox="0 0 126.08 75.06" style="enable-background:new 0 0 126.08 75.06;" xml:space="preserve">
<style type="text/css">
	.st0{fill:#F0F0F0;}
	.st1{display:none;}
	.st2{display:inline;fill:#1C1824;}
	.st3{fill:none;stroke:#D4D4D4;stroke-width:2.3506;stroke-miterlimit:10;}
	.st4{fill:none;stroke:#E3E3E3;stroke-width:0.5;stroke-miterlimit:10;}
	.st5{fill:none;stroke:#FFFFFE;stroke-width:0.8855;stroke-miterlimit:10;}
	.st6{fill:#FFFFFE;}
	.st7{fill:#16C0FE;}
	.st8{fill:#0000D7;}
	.st9{fill:#FFDE00;}
	.st10{fill:#6B6B6B;}
	.st11{fill:#696969;}
	.st12{fill:none;stroke:#474747;stroke-width:0.348;stroke-miterlimit:10;}
	.st13{fill:none;stroke:#474747;stroke-width:0.4442;stroke-miterlimit:10;}
	.st14{fill:none;stroke:#D2B356;stroke-width:5.9189;stroke-miterlimit:10;}
	.st15{fill:#D2B356;}
	.st16{fill:#FFFFFF;}
	.st17{fill:none;stroke:#000000;stroke-width:0.4956;stroke-miterlimit:10;}
	.st18{fill:none;stroke:#000000;stroke-width:1.6303;stroke-miterlimit:10;}
	.st19{fill:none;stroke:#A8A8A8;stroke-width:0.5;stroke-miterlimit:10;}
	.st20{display:inline;fill:none;stroke:#DBDBDB;stroke-width:0.4653;stroke-miterlimit:10;}
	.st21{fill:#303334;}
	.st22{clip-path:url(#SVGID_00000147898956598176381570000007575012636916500640_);fill:#B6B6B6;}
	.st23{fill-rule:evenodd;clip-rule:evenodd;fill:#303334;}
	.st24{fill:#262626;}
	.st25{fill:#424242;}
	.st26{fill:#595959;}
	.st27{fill:#A3A3A3;}
	.st28{fill:#606060;}
	.st29{fill:#848484;}
	.st30{fill:#040505;}
	.st31{fill-rule:evenodd;clip-rule:evenodd;fill:#2D2D2D;}
	.st32{fill-rule:evenodd;clip-rule:evenodd;fill:#989898;}
	.st33{fill:#4B4B4B;}
	.st34{fill:#373737;}
	.st35{fill:#1E1E1E;}
	.st36{clip-path:url(#SVGID_00000093165614922000806560000001023788365436742069_);}
	.st37{fill:#B29020;}
	.st38{clip-path:url(#SVGID_00000152981905818180031500000000703098933556396442_);}
	.st39{fill-rule:evenodd;clip-rule:evenodd;fill:#333333;}
	.st40{fill-rule:evenodd;clip-rule:evenodd;fill:#FFFFFF;}
	.st41{fill:#333333;}
	.st42{fill:#E3E3E3;}
	.st43{fill:#C7C7C7;}
	.st44{fill:#828282;}
	.st45{fill:#5D5D5D;}
	.st46{fill:#B7B7B7;}
	.st47{fill:#C1C1C1;}
	.st48{fill:#D9D9D9;}
	.st49{fill:#B2B2B2;}
	.st50{fill:#1D1D1D;}
	.st51{fill-rule:evenodd;clip-rule:evenodd;fill:#A8A8A8;}
	.st52{fill:#5C5C5C;}
	.st53{fill:#202020;}
	.st54{fill:#221F1F;}
	.st55{fill:#231F20;}
	.st56{fill:none;stroke:#221F1F;stroke-width:0.1371;}
	.st57{fill:#1D1D1B;}
	.st58{fill:#7A7A7A;}
	.st59{fill:none;stroke:#DBDBDB;stroke-width:0.4653;stroke-miterlimit:10;}
	.st60{clip-path:url(#SVGID_00000121264871006307118780000017712075831460436649_);fill:#B6B6B6;}
	.st61{clip-path:url(#SVGID_00000042721920992448339410000017261569604391772040_);}
	.st62{clip-path:url(#SVGID_00000047027891784027706490000003394821442318370739_);}
	.st63{fill:#A0A0A0;}
	.st64{fill-rule:evenodd;clip-rule:evenodd;fill:#D2B356;}
	.st65{fill:#9E9E9E;}
	.st66{clip-path:url(#SVGID_00000098922039006450577280000011088970770450976408_);}
	.st67{clip-path:url(#SVGID_00000169517542494667543440000002730873523495802507_);}
	.st68{clip-path:url(#SVGID_00000060752772749441370610000003726628273197228460_);}
	.st69{fill:#212121;}
</style>
<g id="Capa_2">
</g>
<g id="Capa_7" class="st1">
</g>
<g id="Capa_1">
</g>
<g id="lineas-logos">
</g>
<g id="marco-logos" class="st1">
</g>
<g id="logos">
	<rect x="-0.07" y="-0.13" class="st59" width="126.08" height="75.06"/>
	<g>
		<g>
			<path d="M30.02,47.21h0.29l1.73,2.2v-2.2h0.3v2.74h-0.25l-1.77-2.25v2.25h-0.3V47.21z"/>
			<path d="M37.38,47.19h0.29l1.25,2.76h-0.33l-0.32-0.72h-1.49l-0.33,0.72h-0.32L37.38,47.19z M38.14,48.95l-0.62-1.4l-0.63,1.4
				H38.14z"/>
			<path d="M43.44,47.5h-0.92v-0.29h2.15v0.29h-0.92v2.46h-0.31V47.5z"/>
			<path d="M49.6,50c-0.17,0-0.32-0.03-0.46-0.08c-0.14-0.05-0.26-0.13-0.36-0.23c-0.1-0.1-0.18-0.23-0.23-0.37
				c-0.05-0.15-0.08-0.32-0.08-0.51v-1.59h0.31v1.58c0,0.3,0.07,0.53,0.22,0.69c0.15,0.16,0.35,0.24,0.62,0.24
				c0.25,0,0.45-0.08,0.6-0.23c0.15-0.15,0.22-0.38,0.22-0.68v-1.59h0.31v1.57c0,0.2-0.03,0.38-0.08,0.53
				c-0.05,0.15-0.13,0.28-0.23,0.38c-0.1,0.1-0.22,0.18-0.36,0.23C49.93,49.97,49.77,50,49.6,50z"/>
			<path d="M54.73,47.21h1.18c0.17,0,0.32,0.02,0.45,0.07c0.13,0.05,0.24,0.12,0.33,0.2c0.07,0.07,0.12,0.15,0.16,0.24
				c0.04,0.09,0.05,0.19,0.05,0.3v0.01c0,0.11-0.02,0.22-0.05,0.31c-0.04,0.09-0.09,0.17-0.15,0.24c-0.07,0.07-0.15,0.12-0.24,0.16
				c-0.09,0.04-0.19,0.07-0.3,0.09L57,49.95h-0.38l-0.8-1.07h-0.01h-0.78v1.07h-0.31V47.21z M55.88,48.61c0.1,0,0.2-0.01,0.28-0.04
				c0.09-0.03,0.16-0.06,0.22-0.11s0.11-0.11,0.15-0.18c0.04-0.07,0.05-0.15,0.05-0.24v-0.01c0-0.17-0.06-0.3-0.18-0.4
				c-0.12-0.1-0.3-0.14-0.52-0.14h-0.85v1.11H55.88z"/>
			<path d="M61.83,47.19h0.29l1.25,2.76h-0.33l-0.32-0.72h-1.49l-0.33,0.72h-0.32L61.83,47.19z M62.59,48.95l-0.62-1.4l-0.63,1.4
				H62.59z"/>
			<path d="M67.16,47.21h0.31v2.46h1.54v0.29h-1.85V47.21z"/>
			<path d="M77.27,47.21h1.17c0.16,0,0.3,0.02,0.42,0.06c0.12,0.04,0.22,0.1,0.3,0.18c0.12,0.12,0.18,0.27,0.18,0.44v0.01
				c0,0.09-0.01,0.17-0.04,0.24c-0.02,0.07-0.06,0.13-0.1,0.18c-0.04,0.05-0.09,0.09-0.14,0.13c-0.05,0.04-0.1,0.06-0.16,0.09
				c0.08,0.02,0.16,0.05,0.23,0.09c0.07,0.04,0.13,0.08,0.19,0.14s0.09,0.11,0.13,0.19c0.03,0.07,0.05,0.16,0.05,0.25v0.01
				c0,0.12-0.02,0.22-0.07,0.32c-0.05,0.09-0.11,0.17-0.2,0.24c-0.09,0.06-0.19,0.11-0.31,0.15c-0.12,0.03-0.26,0.05-0.41,0.05
				h-1.22V47.21z M78.39,48.43c0.19,0,0.34-0.04,0.46-0.12c0.12-0.08,0.17-0.2,0.17-0.36v-0.01c0-0.14-0.05-0.24-0.16-0.32
				s-0.25-0.12-0.45-0.12h-0.83v0.94H78.39z M78.5,49.68c0.21,0,0.37-0.04,0.49-0.13c0.12-0.09,0.18-0.21,0.18-0.36v-0.01
				c0-0.15-0.06-0.26-0.18-0.35c-0.12-0.08-0.3-0.12-0.54-0.12h-0.86v0.97H78.5z"/>
			<path d="M83.35,47.21h1.98v0.28h-1.67v0.94h1.5v0.28h-1.5v0.96h1.69v0.28h-2V47.21z"/>
			<path d="M89.23,47.21h1.98v0.28h-1.67v0.94h1.5v0.28h-1.5v0.96h1.69v0.28h-2V47.21z"/>
			<path d="M95.1,47.21h1.97v0.29h-1.66v0.98h1.48v0.28h-1.48v1.2H95.1V47.21z"/>
		</g>
		<g>
			<defs>
				<path id="SVGID_00000100369449372922981200000001237359641165469070_" d="M100.62,30.84c1.27,1.85,2.02,4.1,2.02,6.52
					c0,2.42-0.75,4.67-2.03,6.53h15.99V30.84H100.62z"/>
			</defs>
			<clipPath id="SVGID_00000144333174022828661430000011645106133892057246_">
				<use xlink:href="#SVGID_00000100369449372922981200000001237359641165469070_"  style="overflow:visible;"/>
			</clipPath>
			<g style="clip-path:url(#SVGID_00000144333174022828661430000011645106133892057246_);">
				<rect x="88.54" y="37.14" class="st37" width="1.01" height="0.6"/>
				<rect x="100.64" y="37.14" class="st37" width="1.01" height="0.6"/>
				<rect x="94.5" y="37.14" class="st37" width="1.01" height="0.6"/>
				<rect x="106.56" y="37.14" class="st37" width="1.01" height="0.6"/>
				<polygon points="84.02,32.88 84.4,32.88 84.4,33.48 85.4,33.48 85.4,34.06 86.47,34.06 86.47,33.46 87.49,33.46 87.49,32.88 
					90.57,32.88 90.57,33.48 91.57,33.48 91.57,34.06 92,34.06 92.05,34.06 92.47,34.06 92.47,33.48 93.48,33.48 93.48,32.88 
					96.56,32.88 96.56,33.46 97.58,33.46 97.58,34.06 98.65,34.06 98.65,33.48 99.65,33.48 99.65,32.88 102.63,32.88 102.63,33.46 
					103.65,33.46 103.65,34.06 103.83,34.06 104.38,34.06 104.56,34.06 104.56,33.46 105.58,33.46 105.58,32.88 108.56,32.88 
					108.56,33.48 109.56,33.48 109.56,34.06 110.63,34.06 110.63,33.46 111.65,33.46 111.65,32.88 114.74,32.88 114.74,33.48 
					115.74,33.48 115.74,34.06 116.21,34.06 116.21,35.24 115.74,35.24 115.74,34.66 114.75,34.66 114.75,34.04 113.71,34.04 
					113.71,33.48 112.64,33.48 112.64,34.06 111.59,34.06 111.59,34.66 110.57,34.66 110.57,35.24 109.56,35.24 109.56,34.66 
					108.57,34.66 108.57,34.04 107.53,34.04 107.53,33.48 106.57,33.48 106.57,34.06 105.57,34.06 105.57,34.66 104.65,34.66 
					104.65,35.24 104.57,35.24 103.64,35.24 103.56,35.24 103.56,34.66 102.64,34.66 102.64,34.06 101.64,34.06 101.64,33.48 
					100.68,33.48 100.68,34.04 99.64,34.04 99.64,34.66 98.65,34.66 98.65,35.24 97.64,35.24 97.64,34.66 96.62,34.66 96.62,34.06 
					95.57,34.06 95.57,33.48 94.5,33.48 94.5,34.04 93.46,34.04 93.46,34.66 92.47,34.66 92.47,35.24 92.05,35.24 92,35.24 
					91.57,35.24 91.57,34.66 90.58,34.66 90.58,34.04 89.55,34.04 89.55,33.48 88.48,33.48 88.48,34.06 87.43,34.06 87.43,34.66 
					86.41,34.66 86.41,35.24 85.4,35.24 85.4,34.66 84.41,34.66 84.41,34.04 84.02,34.04 				"/>
				<polygon points="84.02,41.8 84.02,40.64 84.41,40.64 84.41,40.02 85.4,40.02 85.4,39.44 86.41,39.44 86.41,40.02 87.43,40.02 
					87.43,40.62 88.48,40.62 88.48,41.2 89.55,41.2 89.55,40.64 90.58,40.64 90.58,40.02 91.57,40.02 91.57,39.44 92,39.44 
					92.05,39.44 92.47,39.44 92.47,40.02 93.46,40.02 93.46,40.64 94.5,40.64 94.5,41.2 95.57,41.2 95.57,40.62 96.62,40.62 
					96.62,40.02 97.64,40.02 97.64,39.44 98.65,39.44 98.65,40.02 99.64,40.02 99.64,40.64 100.68,40.64 100.68,41.2 101.64,41.2 
					101.64,40.62 102.64,40.62 102.64,40.02 103.56,40.02 103.56,39.44 103.64,39.44 104.57,39.44 104.65,39.44 104.65,40.02 
					105.57,40.02 105.57,40.62 106.57,40.62 106.57,41.2 107.53,41.2 107.53,40.64 108.57,40.64 108.57,40.02 109.56,40.02 
					109.56,39.44 110.57,39.44 110.57,40.02 111.59,40.02 111.59,40.62 112.64,40.62 112.64,41.2 113.71,41.2 113.71,40.64 
					114.75,40.64 114.75,40.02 115.74,40.02 115.74,39.44 116.21,39.44 116.21,40.62 115.74,40.62 115.74,41.2 114.74,41.2 
					114.74,41.8 111.65,41.8 111.65,41.22 110.63,41.22 110.63,40.62 109.56,40.62 109.56,41.2 108.56,41.2 108.56,41.8 
					105.58,41.8 105.58,41.22 104.56,41.22 104.56,40.62 104.38,40.62 103.83,40.62 103.65,40.62 103.65,41.22 102.63,41.22 
					102.63,41.8 99.65,41.8 99.65,41.2 98.65,41.2 98.65,40.62 97.58,40.62 97.58,41.22 96.56,41.22 96.56,41.8 93.48,41.8 
					93.48,41.2 92.47,41.2 92.47,40.62 92.05,40.62 92,40.62 91.57,40.62 91.57,41.2 90.57,41.2 90.57,41.8 87.49,41.8 87.49,41.22 
					86.47,41.22 86.47,40.62 85.4,40.62 85.4,41.2 84.4,41.2 84.4,41.8 				"/>
				<rect x="112.7" y="37.14" class="st37" width="1.01" height="0.6"/>
				<path d="M84.39,39.47v-0.6h1.05V38.3h1v0.56l1.04,0v0.61h0.99v0.58h1.01v-0.58h1.02v-0.6h1.05V38.3H92h0.05h0.45v0.58h1.05v0.6
					h1.02v0.58h1.01v-0.58h0.99v-0.61l1.04,0V38.3h1v0.58h1.05v0.6h1.02v0.58h1.01v-0.58h0.99l0-0.61l1.03,0V38.3h0.09h0.61h0.09
					v0.56l1.03,0l0,0.61h0.99v0.58h1.01v-0.58h1.02v-0.6h1.05V38.3h1v0.56l1.04,0v0.61h0.99v0.58h1.01v-0.58h1.02v-0.6h1.05V38.3
					h0.5v-1.79h-0.5v-0.58h-1.05v-0.59l-1.01,0h-0.01v-0.58h-1.01v0.58h-0.99v0.61h-1.03v0.56h-1.01v-0.58h-1.05v-0.6h-1.02v-0.58
					h-1.01v0.58h-0.99v0.61h-1.02v0.56h-0.1h-0.61h-0.1v-0.56h-1.02v-0.61h-0.99v-0.58h-1.01v0.58h-1.02v0.6h-1.05v0.58H97.6v-0.56
					h-1.03v-0.61h-0.99v-0.58h-1.01v0.58h-0.01l-1.01,0v0.59H92.5v0.58h-0.45H92h-0.45v-0.58H90.5v-0.59l-1.01,0h-0.01v-0.58h-1.01
					v0.58h-0.99v0.61h-1.03v0.56h-1.01v-0.58h-1.05v-0.6h-0.36v1.19h0.42v0.58h0.99v0.59h-0.99v0.58h-0.42v1.19H84.39z M110.61,37.1
					h1.03v-0.58l0.99-0.01v-0.58h1.07v0.59h1.02v0.58l1.08,0v0.59h-1.08v0.58h-1.02v0.6h-1.07V38.3h-1v-0.6h-1.02V37.1z
					 M104.83,37.11h0.71l0-0.6h0.98v-0.58h1.07v0.6h1.02v0.58h0.99v0.59h-0.99v0.58h-1.02v0.6h-1.07V38.3h-0.99v-0.6h-0.7V37.11z
					 M98.61,37.11h0.99v-0.58h1.02v-0.6h1.07v0.58h0.98l0,0.6h0.71v0.59h-0.7v0.6h-0.99v0.58h-1.07v-0.6H99.6V37.7h-0.99V37.11z
					 M92.41,37.1l1.08,0v-0.58h1.02v-0.59h1.07v0.58l0.99,0.01v0.58h1.03v0.59h-1.02v0.6h-1v0.58h-1.07v-0.6h-1.02V37.7h-1.08V37.1z
					 M86.45,37.1h1.03v-0.58l0.99-0.01v-0.58h1.07v0.59h1.02v0.58l1.08,0v0.59h-1.08v0.58h-1.02v0.6h-1.07V38.3h-1v-0.6h-1.02V37.1z
					"/>
				<polygon points="84.02,31.39 92,31.39 92.05,31.39 103.54,31.39 104.67,31.39 116.21,31.39 116.21,32.09 104.67,32.09 
					103.54,32.09 92.05,32.09 92,32.09 84.02,32.09 				"/>
				<polygon points="84.02,42.53 92,42.53 92.05,42.53 103.52,42.53 104.69,42.53 116.21,42.53 116.21,43.23 104.69,43.23 
					103.52,43.23 92.05,43.23 92,43.23 84.02,43.23 				"/>
			</g>
		</g>
		<g>
			<defs>
				<path id="SVGID_00000137830320242198423670000008615626515352018058_" d="M23.75,37.36c0-2.34,0.7-4.51,1.89-6.32H9.93v12.48
					h15.6C24.41,41.73,23.75,39.63,23.75,37.36z"/>
			</defs>
			<clipPath id="SVGID_00000153664909126068238310000013418804495433801349_">
				<use xlink:href="#SVGID_00000137830320242198423670000008615626515352018058_"  style="overflow:visible;"/>
			</clipPath>
			<g style="clip-path:url(#SVGID_00000153664909126068238310000013418804495433801349_);">
				<rect x="36.85" y="37.14" width="1.01" height="0.6"/>
				<rect x="24.74" y="37.14" width="1.01" height="0.6"/>
				<rect x="30.88" y="37.14" width="1.01" height="0.6"/>
				<rect x="18.82" y="37.14" width="1.01" height="0.6"/>
				<polygon points="42.37,32.88 41.99,32.88 41.99,33.48 40.99,33.48 40.99,34.06 39.92,34.06 39.92,33.46 38.9,33.46 38.9,32.88 
					35.82,32.88 35.82,33.48 34.82,33.48 34.82,34.06 34.39,34.06 34.34,34.06 33.92,34.06 33.92,33.48 32.92,33.48 32.92,32.88 
					29.83,32.88 29.83,33.46 28.81,33.46 28.81,34.06 27.74,34.06 27.74,33.48 26.74,33.48 26.74,32.88 23.76,32.88 23.76,33.46 
					22.74,33.46 22.74,34.06 22.56,34.06 22.01,34.06 21.83,34.06 21.83,33.46 20.81,33.46 20.81,32.88 17.83,32.88 17.83,33.48 
					16.83,33.48 16.83,34.06 15.76,34.06 15.76,33.46 14.74,33.46 14.74,32.88 11.66,32.88 11.66,33.48 10.65,33.48 10.65,34.06 
					10.18,34.06 10.18,35.24 10.65,35.24 10.65,34.66 11.65,34.66 11.65,34.04 12.68,34.04 12.68,33.48 13.75,33.48 13.75,34.06 
					14.8,34.06 14.8,34.66 15.82,34.66 15.82,35.24 16.83,35.24 16.83,34.66 17.82,34.66 17.82,34.04 18.86,34.04 18.86,33.48 
					19.82,33.48 19.82,34.06 20.82,34.06 20.82,34.66 21.74,34.66 21.74,35.24 21.82,35.24 22.75,35.24 22.83,35.24 22.83,34.66 
					23.75,34.66 23.75,34.06 24.75,34.06 24.75,33.48 25.71,33.48 25.71,34.04 26.75,34.04 26.75,34.66 27.74,34.66 27.74,35.24 
					28.75,35.24 28.75,34.66 29.77,34.66 29.77,34.06 30.82,34.06 30.82,33.48 31.89,33.48 31.89,34.04 32.93,34.04 32.93,34.66 
					33.92,34.66 33.92,35.24 34.34,35.24 34.39,35.24 34.82,35.24 34.82,34.66 35.81,34.66 35.81,34.04 36.85,34.04 36.85,33.48 
					37.91,33.48 37.91,34.06 38.96,34.06 38.96,34.66 39.98,34.66 39.98,35.24 40.99,35.24 40.99,34.66 41.98,34.66 41.98,34.04 
					42.37,34.04 				"/>
				<polygon points="42.37,41.8 42.37,40.64 41.98,40.64 41.98,40.02 40.99,40.02 40.99,39.44 39.98,39.44 39.98,40.02 38.96,40.02 
					38.96,40.62 37.91,40.62 37.91,41.2 36.85,41.2 36.85,40.64 35.81,40.64 35.81,40.02 34.82,40.02 34.82,39.44 34.39,39.44 
					34.34,39.44 33.92,39.44 33.92,40.02 32.93,40.02 32.93,40.64 31.89,40.64 31.89,41.2 30.82,41.2 30.82,40.62 29.77,40.62 
					29.77,40.02 28.75,40.02 28.75,39.44 27.74,39.44 27.74,40.02 26.75,40.02 26.75,40.64 25.71,40.64 25.71,41.2 24.75,41.2 
					24.75,40.62 23.75,40.62 23.75,40.02 22.83,40.02 22.83,39.44 22.75,39.44 21.82,39.44 21.74,39.44 21.74,40.02 20.82,40.02 
					20.82,40.62 19.82,40.62 19.82,41.2 18.86,41.2 18.86,40.64 17.82,40.64 17.82,40.02 16.83,40.02 16.83,39.44 15.82,39.44 
					15.82,40.02 14.8,40.02 14.8,40.62 13.75,40.62 13.75,41.2 12.68,41.2 12.68,40.64 11.65,40.64 11.65,40.02 10.65,40.02 
					10.65,39.44 10.18,39.44 10.18,40.62 10.65,40.62 10.65,41.2 11.66,41.2 11.66,41.8 14.74,41.8 14.74,41.22 15.76,41.22 
					15.76,40.62 16.83,40.62 16.83,41.2 17.83,41.2 17.83,41.8 20.81,41.8 20.81,41.22 21.83,41.22 21.83,40.62 22.01,40.62 
					22.56,40.62 22.74,40.62 22.74,41.22 23.76,41.22 23.76,41.8 26.74,41.8 26.74,41.2 27.74,41.2 27.74,40.62 28.81,40.62 
					28.81,41.22 29.83,41.22 29.83,41.8 32.92,41.8 32.92,41.2 33.92,41.2 33.92,40.62 34.34,40.62 34.39,40.62 34.82,40.62 
					34.82,41.2 35.82,41.2 35.82,41.8 38.9,41.8 38.9,41.22 39.92,41.22 39.92,40.62 40.99,40.62 40.99,41.2 41.99,41.2 41.99,41.8 
									"/>
				<rect x="12.68" y="37.14" width="1.01" height="0.6"/>
				<path d="M42.37,39.47v-1.19h-0.42V37.7h-0.99v-0.59h0.99v-0.58h0.42v-1.19H42v0.6h-1.05v0.58h-1.01v-0.56h-1.03v-0.61h-0.99
					v-0.58h-1.01v0.58h-0.01l-1.01,0v0.59h-1.05v0.58h-0.45h-0.05h-0.45v-0.58h-1.05v-0.59l-1.01,0h-0.01v-0.58h-1.01v0.58h-0.99
					v0.61h-1.03v0.56h-1.01v-0.58h-1.05v-0.6h-1.02v-0.58H24.7v0.58h-0.99v0.61h-1.02v0.56h-0.1h-0.61h-0.1v-0.56h-1.02v-0.61h-0.99
					v-0.58h-1.01v0.58h-1.02v0.6h-1.05v0.58h-1.01v-0.56h-1.03v-0.61h-0.99v-0.58h-1.01v0.58h-0.01l-1.01,0v0.59h-1.05v0.58h-0.5
					v1.79h0.5v0.58h1.05v0.6h1.02v0.58h1.01v-0.58h0.99v-0.61l1.04,0V38.3h1v0.58h1.05v0.6h1.02v0.58h1.01v-0.58h0.99l0-0.61l1.03,0
					V38.3h0.09h0.61h0.09v0.56l1.03,0l0,0.61h0.99v0.58h1.01v-0.58h1.02v-0.6h1.05V38.3h1v0.56l1.04,0v0.61h0.99v0.58h1.01v-0.58
					h1.02v-0.6h1.05V38.3h0.45h0.05h0.45v0.58h1.05v0.6h1.02v0.58h1.01v-0.58h0.99v-0.61l1.04,0V38.3h1v0.58H42v0.6H42.37z
					 M15.78,37.7h-1.02v0.6h-1v0.58h-1.07v-0.6h-1.02V37.7h-1.08V37.1l1.08,0v-0.58h1.02v-0.59h1.07v0.58l0.99,0.01v0.58h1.03V37.7z
					 M21.56,37.7h-0.7v0.6h-0.99v0.58H18.8v-0.6h-1.02V37.7h-0.99v-0.59h0.99v-0.58h1.02v-0.6h1.07v0.58h0.98l0,0.6h0.71V37.7z
					 M27.78,37.7h-0.99v0.58h-1.02v0.6H24.7V38.3h-0.99v-0.6h-0.7v-0.59h0.71l0-0.6h0.98v-0.58h1.07v0.6h1.02v0.58h0.99V37.7z
					 M33.98,37.7H32.9v0.58h-1.02v0.6h-1.07V38.3h-1v-0.6h-1.02V37.1h1.03v-0.58l0.99-0.01v-0.58h1.07v0.59h1.02v0.58l1.08,0V37.7z
					 M39.94,37.7h-1.02v0.6h-1v0.58h-1.07v-0.6h-1.02V37.7h-1.08V37.1l1.08,0v-0.58h1.02v-0.59h1.07v0.58l0.99,0.01v0.58h1.03V37.7z
					"/>
				<polygon points="42.37,31.39 34.39,31.39 34.34,31.39 22.85,31.39 21.72,31.39 10.18,31.39 10.18,32.09 21.72,32.09 
					22.85,32.09 34.34,32.09 34.39,32.09 42.37,32.09 				"/>
				<polygon points="42.37,42.53 34.39,42.53 34.34,42.53 22.87,42.53 21.7,42.53 10.18,42.53 10.18,43.23 21.7,43.23 22.87,43.23 
					34.34,43.23 34.39,43.23 42.37,43.23 				"/>
			</g>
		</g>
		<g>
			<path d="M27.82,37.21v-0.04c0-3.81,2.99-6.79,7.04-6.79c2.3,0,3.92,0.71,5.3,1.9l-2.13,2.56c-0.93-0.78-1.87-1.23-3.15-1.23
				c-1.88,0-3.34,1.59-3.34,3.58v0.04c0,2.11,1.47,3.62,3.55,3.62c0.88,0,1.55-0.19,2.09-0.54v-1.59h-2.58v-2.65h6.01v5.88
				c-1.38,1.14-3.3,2.02-5.67,2.02C30.86,43.96,27.82,41.16,27.82,37.21z"/>
			<path d="M42.17,37.21v-0.04c0-3.75,3.02-6.79,7.05-6.79s7.02,3,7.02,6.76v0.04c0,3.75-3.02,6.79-7.05,6.79
				C45.16,43.96,42.17,40.96,42.17,37.21z M52.55,37.21v-0.04c0-1.88-1.36-3.53-3.36-3.53c-1.98,0-3.3,1.6-3.3,3.49v0.04
				c0,1.88,1.36,3.53,3.34,3.53C51.22,40.7,52.55,39.09,52.55,37.21z"/>
			<path d="M60.76,33.81h-3.92v-3.17H68.3v3.17h-3.92v9.89h-3.62V33.81z"/>
			<path d="M69.88,30.64h3.62v9.89h6.33v3.17h-9.95V30.64z"/>
			<path d="M81.45,30.64h3.64V43.7h-3.64V30.64z"/>
			<path d="M87.48,30.64h5.6c3.3,0,5.43,1.7,5.43,4.59v0.04c0,3.08-2.37,4.7-5.62,4.7H91.1v3.73h-3.62V30.64z M92.82,37.13
				c1.29,0,2.07-0.67,2.07-1.7V35.4c0-1.12-0.78-1.72-2.09-1.72h-1.7v3.45H92.82z"/>
		</g>
	</g>
</g>
<g id="Capa_6">
</g>
</svg>
