<?xml version="1.0" encoding="utf-8"?>
<!-- Generator: Adobe Illustrator 27.9.0, SVG Export Plug-In . SVG Version: 6.00 Build 0)  -->
<svg version="1.1" xmlns="http://www.w3.org/2000/svg" xmlns:xlink="http://www.w3.org/1999/xlink" x="0px" y="0px"
	 viewBox="0 0 126.08 75.06" style="enable-background:new 0 0 126.08 75.06;" xml:space="preserve">
<style type="text/css">
	.st0{fill:#F0F0F0;}
	.st1{display:none;}
	.st2{display:inline;fill:#1C1824;}
	.st3{fill:none;stroke:#D4D4D4;stroke-width:2.3506;stroke-miterlimit:10;}
	.st4{fill:none;stroke:#E3E3E3;stroke-width:0.5;stroke-miterlimit:10;}
	.st5{fill:none;stroke:#FFFFFE;stroke-width:0.8855;stroke-miterlimit:10;}
	.st6{fill:#FFFFFE;}
	.st7{fill:#16C0FE;}
	.st8{fill:#0000D7;}
	.st9{fill:#FFDE00;}
	.st10{fill:#6B6B6B;}
	.st11{fill:#696969;}
	.st12{fill:none;stroke:#474747;stroke-width:0.348;stroke-miterlimit:10;}
	.st13{fill:none;stroke:#474747;stroke-width:0.4442;stroke-miterlimit:10;}
	.st14{fill:none;stroke:#D2B356;stroke-width:5.9189;stroke-miterlimit:10;}
	.st15{fill:#D2B356;}
	.st16{fill:#FFFFFF;}
	.st17{fill:none;stroke:#000000;stroke-width:0.4956;stroke-miterlimit:10;}
	.st18{fill:none;stroke:#000000;stroke-width:1.6303;stroke-miterlimit:10;}
	.st19{fill:none;stroke:#A8A8A8;stroke-width:0.5;stroke-miterlimit:10;}
	.st20{display:inline;fill:none;stroke:#DBDBDB;stroke-width:0.4653;stroke-miterlimit:10;}
	.st21{fill:#303334;}
	.st22{clip-path:url(#SVGID_00000011715176410859729830000017277000390878524837_);fill:#B6B6B6;}
	.st23{fill-rule:evenodd;clip-rule:evenodd;fill:#303334;}
	.st24{fill:#262626;}
	.st25{fill:#424242;}
	.st26{fill:#595959;}
	.st27{fill:#A3A3A3;}
	.st28{fill:#606060;}
	.st29{fill:#848484;}
	.st30{fill:#040505;}
	.st31{fill-rule:evenodd;clip-rule:evenodd;fill:#2D2D2D;}
	.st32{fill-rule:evenodd;clip-rule:evenodd;fill:#989898;}
	.st33{fill:#4B4B4B;}
	.st34{fill:#373737;}
	.st35{fill:#1E1E1E;}
	.st36{clip-path:url(#SVGID_00000114764548811857361560000008303308625484935602_);}
	.st37{fill:#B29020;}
	.st38{clip-path:url(#SVGID_00000182519489487416356750000012754488774193274279_);}
	.st39{fill-rule:evenodd;clip-rule:evenodd;fill:#333333;}
	.st40{fill-rule:evenodd;clip-rule:evenodd;fill:#FFFFFF;}
	.st41{fill:#333333;}
	.st42{fill:#E3E3E3;}
	.st43{fill:#C7C7C7;}
	.st44{fill:#828282;}
	.st45{fill:#5D5D5D;}
	.st46{fill:#B7B7B7;}
	.st47{fill:#C1C1C1;}
	.st48{fill:#D9D9D9;}
	.st49{fill:#B2B2B2;}
	.st50{fill:#1D1D1D;}
	.st51{fill-rule:evenodd;clip-rule:evenodd;fill:#A8A8A8;}
	.st52{fill:#5C5C5C;}
	.st53{fill:#202020;}
	.st54{fill:#221F1F;}
	.st55{fill:#231F20;}
	.st56{fill:none;stroke:#221F1F;stroke-width:0.1371;}
	.st57{fill:#1D1D1B;}
	.st58{fill:#7A7A7A;}
	.st59{fill:none;stroke:#DBDBDB;stroke-width:0.4653;stroke-miterlimit:10;}
	.st60{clip-path:url(#SVGID_00000140001618337988780700000003838851273469653124_);fill:#B6B6B6;}
	.st61{clip-path:url(#SVGID_00000031926486540648228440000002533343492570956459_);}
	.st62{clip-path:url(#SVGID_00000181769713437651516630000004948787536507225279_);}
	.st63{fill:#A0A0A0;}
	.st64{fill-rule:evenodd;clip-rule:evenodd;fill:#D2B356;}
	.st65{fill:#9E9E9E;}
	.st66{clip-path:url(#SVGID_00000106859245577405815550000001490837850870686376_);}
	.st67{clip-path:url(#SVGID_00000093163143139814624050000016589691816251562421_);}
	.st68{clip-path:url(#SVGID_00000001642076486791243480000003596686123130257316_);}
	.st69{fill:#212121;}
</style>
<g id="Capa_2">
</g>
<g id="Capa_7" class="st1">
</g>
<g id="Capa_1">
</g>
<g id="lineas-logos">
</g>
<g id="marco-logos" class="st1">
</g>
<g id="logos">
	<rect x="-0.53" y="-0.25" class="st59" width="126.08" height="75.06"/>
	<g>
		<path class="st21" d="M99.52,39.25c1.5,0,2.72-1.23,2.72-2.74c0-1.5-1.22-2.72-2.72-2.72h-0.99c-0.27,0-0.6,0.24-0.6,0.61v4.26
			c0,0.27,0.25,0.59,0.64,0.59H99.52z"/>
		<path class="st21" d="M107.6,38.77c-0.03-0.01-0.07-0.02-0.11,0.07c-2.42,5.87-9.12,4.95-9.12,4.95
			c-0.27-0.02-0.47,0.09-0.49,0.36v4.42c0.01,0.28-0.17,0.34-0.35,0.37c-4.31,0.15-5.41-2.73-5.43-4.71c0-0.54-0.03-0.93-0.03-1
			V31.78c0-0.27,0.21-0.37,0.38-0.37h2.31c0.66,0.01,0.83-0.06,1.21-0.42l1.88-2.04c0.2-0.26-0.13-0.23-0.13-0.23H87.5
			c-1.37,0-1.67,0.97-1.67,1.54v13.88c0.02,1.47-0.06,10.28,10.09,10.28h9.65c1.55,0,2.08-1.04,2.08-1.92V38.89
			C107.65,38.89,107.65,38.79,107.6,38.77"/>
		<path class="st21" d="M17.36,39.55v-9.17c0-0.66,0.41-1.1,1.08-1.1h3.55c2.52,0,4,1.5,4,3.7c0,2.16-1.5,3.68-4,3.68h-2.04
			c-0.07,0-0.1,0.03-0.1,0.1v2.79c0,0.79-0.52,1.32-1.23,1.32C17.89,40.86,17.36,40.34,17.36,39.55 M23.51,32.98
			c0-0.93-0.62-1.55-1.67-1.55h-1.89c-0.07,0-0.1,0.03-0.1,0.1v2.89c0,0.07,0.03,0.1,0.1,0.1h1.89
			C22.89,34.51,23.51,33.91,23.51,32.98"/>
		<path class="st21" d="M26.89,39.61v-5.88c0-0.78,0.49-1.25,1.18-1.25c0.56,0,1.01,0.32,1.15,0.91v0.02h0.02
			c0.37-0.54,1.13-1.01,2.06-1.01c0.37,0,0.64,0.07,0.86,0.17c0.42,0.2,0.62,0.56,0.62,0.96c0,0.69-0.47,1.2-1.17,1.2
			c-0.17,0-0.34-0.03-0.51-0.08c-0.17-0.05-0.42-0.08-0.61-0.08c-0.88,0-1.25,0.62-1.25,1.72v3.33c0,0.78-0.51,1.25-1.18,1.25
			C27.38,40.86,26.89,40.39,26.89,39.61"/>
		<path class="st21" d="M32.98,38.6c-0.19-0.59-0.27-1.13-0.27-1.93s0.08-1.33,0.27-1.93c0.49-1.5,1.76-2.35,3.55-2.35
			c1.79,0,3.06,0.84,3.55,2.35c0.19,0.59,0.27,1.13,0.27,1.93s-0.08,1.33-0.27,1.93c-0.49,1.5-1.76,2.35-3.55,2.35
			C34.74,40.95,33.47,40.1,32.98,38.6 M37.79,38.04c0.12-0.35,0.15-0.81,0.15-1.37c0-0.56-0.03-1.01-0.15-1.37
			c-0.19-0.57-0.61-0.91-1.27-0.91s-1.08,0.34-1.27,0.91c-0.12,0.35-0.15,0.81-0.15,1.37c0,0.56,0.03,1.01,0.15,1.37
			c0.19,0.57,0.61,0.91,1.27,0.91S37.61,38.62,37.79,38.04"/>
		<path class="st21" d="M42.93,39.41l-2.11-5.25c-0.08-0.2-0.12-0.37-0.12-0.56c0-0.64,0.51-1.11,1.17-1.11
			c0.54,0,0.89,0.29,1.1,0.83l1.57,4.27h0.03l1.5-4.27c0.19-0.54,0.56-0.83,1.08-0.83c0.66,0,1.15,0.47,1.15,1.11
			c0,0.19-0.03,0.35-0.12,0.56l-2.11,5.25c-0.44,1.08-0.79,1.45-1.57,1.45S43.37,40.49,42.93,39.41"/>
		<path class="st21" d="M49.02,30.43c0-0.74,0.59-1.33,1.33-1.33c0.74,0,1.33,0.59,1.33,1.33c0,0.74-0.59,1.33-1.33,1.33
			C49.61,31.76,49.02,31.17,49.02,30.43 M49.17,39.61v-5.88c0-0.78,0.49-1.25,1.18-1.25c0.68,0,1.18,0.47,1.18,1.25v5.88
			c0,0.78-0.51,1.25-1.18,1.25C49.66,40.86,49.17,40.39,49.17,39.61"/>
		<path class="st21" d="M57.92,39.61V35.9c0-0.89-0.44-1.49-1.28-1.49c-0.84,0-1.27,0.59-1.27,1.49v3.72c0,0.78-0.51,1.25-1.18,1.25
			c-0.69,0-1.18-0.47-1.18-1.25v-5.88c0-0.78,0.49-1.25,1.18-1.25c0.56,0,1,0.32,1.13,0.86h0.02c0.41-0.52,1.11-0.95,2.16-0.95
			c1.81,0,2.79,1.27,2.79,3.04v4.17c0,0.78-0.49,1.25-1.18,1.25C58.43,40.86,57.92,40.39,57.92,39.61"/>
		<path class="st21" d="M61.53,38.62c-0.17-0.49-0.27-1.08-0.27-1.94s0.1-1.45,0.27-1.94c0.49-1.52,1.76-2.33,3.48-2.33
			c1.13,0,2.04,0.37,2.57,0.89c0.34,0.34,0.47,0.61,0.47,0.95c0,0.59-0.44,1.01-1.03,1.01c-0.35,0-0.62-0.19-0.96-0.49
			c-0.27-0.25-0.57-0.37-1.01-0.37c-0.62,0-1.05,0.29-1.23,0.89c-0.1,0.32-0.15,0.71-0.15,1.39s0.05,1.06,0.15,1.38
			c0.19,0.61,0.61,0.9,1.23,0.9c0.44,0,0.74-0.12,1.01-0.37c0.34-0.3,0.61-0.49,0.96-0.49c0.59,0,1.03,0.42,1.03,1.01
			c0,0.34-0.14,0.61-0.47,0.95c-0.52,0.52-1.44,0.89-2.57,0.89C63.29,40.95,62.02,40.14,61.53,38.62"/>
		<path class="st21" d="M68.91,30.43c0-0.74,0.59-1.33,1.33-1.33c0.74,0,1.33,0.59,1.33,1.33c0,0.74-0.59,1.33-1.33,1.33
			C69.5,31.76,68.91,31.17,68.91,30.43 M69.06,39.61v-5.88c0-0.78,0.49-1.25,1.18-1.25c0.68,0,1.18,0.47,1.18,1.25v5.88
			c0,0.78-0.51,1.25-1.18,1.25C69.55,40.86,69.06,40.39,69.06,39.61"/>
		<path class="st21" d="M80.33,39.77c0,0.62-0.52,1.1-1.18,1.1c-0.4,0-0.74-0.15-0.96-0.46l-0.2-0.29h-0.02
			c-0.42,0.52-1.3,0.83-2.31,0.83c-2.09,0-3.11-0.95-3.11-2.5c0-1.81,1.35-2.63,3.38-2.63h1.47c0.07,0,0.1-0.03,0.1-0.1v-0.08
			c0-0.76-0.54-1.22-1.67-1.22c-0.51,0-1.01,0.12-1.32,0.24c-0.2,0.07-0.39,0.12-0.56,0.12c-0.56,0-0.95-0.37-0.95-0.95
			c0-0.35,0.17-0.73,0.61-0.95c0.54-0.27,1.37-0.47,2.5-0.47c2.47,0,3.65,1.25,3.65,3.29v2.23c0,0.39,0.03,0.57,0.15,0.78l0.22,0.37
			C80.26,39.29,80.33,39.53,80.33,39.77 M77.49,38.04v-0.56c0-0.07-0.03-0.1-0.1-0.1h-1.15c-1,0-1.45,0.3-1.45,0.93
			c0,0.57,0.41,0.86,1.18,0.86C76.96,39.17,77.49,38.8,77.49,38.04"/>
		<path class="st21" d="M58.82,45.26c0-0.46,0.25-0.75,0.68-0.75c0.36,0,0.6,0.24,0.83,0.64l4.01,6.63h0.06v-6.64
			c0-0.39,0.24-0.62,0.57-0.62c0.35,0,0.58,0.24,0.58,0.62v8.18c0,0.46-0.25,0.75-0.68,0.75c-0.36,0-0.61-0.24-0.84-0.64l-4.01-6.6
			h-0.04v6.62c0,0.39-0.24,0.62-0.57,0.62c-0.35,0-0.58-0.24-0.58-0.62V45.26z"/>
		<path class="st21" d="M67.33,45.13c0-0.33,0.21-0.55,0.55-0.55h4.85c0.37,0,0.61,0.25,0.61,0.57c0,0.33-0.23,0.58-0.61,0.58h-4.08
			c-0.06,0-0.08,0.03-0.08,0.08v2.77c0,0.06,0.03,0.08,0.08,0.08h3.41c0.37,0,0.61,0.25,0.61,0.57c0,0.33-0.24,0.58-0.61,0.58h-3.41
			c-0.06,0-0.08,0.03-0.08,0.08v2.87c0,0.05,0.03,0.08,0.08,0.08h4.08c0.37,0,0.61,0.25,0.61,0.57c0,0.33-0.23,0.58-0.61,0.58h-4.85
			c-0.35,0-0.55-0.22-0.55-0.55V45.13z"/>
		<path class="st21" d="M80.01,44.58c0.37,0,0.61,0.25,0.61,0.58c0,0.32-0.24,0.57-0.61,0.57h-2.17c-0.06,0-0.08,0.03-0.08,0.08
			v7.59c0,0.41-0.25,0.66-0.61,0.66c-0.37,0-0.62-0.25-0.62-0.66v-7.59c0-0.06-0.03-0.08-0.08-0.08h-2.17
			c-0.37,0-0.61-0.25-0.61-0.57c0-0.33,0.24-0.58,0.61-0.58H80.01z"/>
	</g>
</g>
<g id="Capa_6">
</g>
</svg>
