<?xml version="1.0" encoding="utf-8"?>
<!-- Generator: Adobe Illustrator 27.9.0, SVG Export Plug-In . SVG Version: 6.00 Build 0)  -->
<svg version="1.1" xmlns="http://www.w3.org/2000/svg" xmlns:xlink="http://www.w3.org/1999/xlink" x="0px" y="0px"
	 viewBox="0 0 126.08 75.06" style="enable-background:new 0 0 126.08 75.06;" xml:space="preserve">
<style type="text/css">
	.st0{fill:#F0F0F0;}
	.st1{display:none;}
	.st2{display:inline;fill:#1C1824;}
	.st3{fill:none;stroke:#D4D4D4;stroke-width:2.3506;stroke-miterlimit:10;}
	.st4{fill:none;stroke:#E3E3E3;stroke-width:0.5;stroke-miterlimit:10;}
	.st5{fill:none;stroke:#FFFFFE;stroke-width:0.8855;stroke-miterlimit:10;}
	.st6{fill:#FFFFFE;}
	.st7{fill:#16C0FE;}
	.st8{fill:#0000D7;}
	.st9{fill:#FFDE00;}
	.st10{fill:#6B6B6B;}
	.st11{fill:#696969;}
	.st12{fill:none;stroke:#474747;stroke-width:0.348;stroke-miterlimit:10;}
	.st13{fill:none;stroke:#474747;stroke-width:0.4442;stroke-miterlimit:10;}
	.st14{fill:none;stroke:#D2B356;stroke-width:5.9189;stroke-miterlimit:10;}
	.st15{fill:#D2B356;}
	.st16{fill:#FFFFFF;}
	.st17{fill:none;stroke:#000000;stroke-width:0.4956;stroke-miterlimit:10;}
	.st18{fill:none;stroke:#000000;stroke-width:1.6303;stroke-miterlimit:10;}
	.st19{fill:none;stroke:#A8A8A8;stroke-width:0.5;stroke-miterlimit:10;}
	.st20{display:inline;fill:none;stroke:#DBDBDB;stroke-width:0.4653;stroke-miterlimit:10;}
	.st21{fill:#303334;}
	.st22{clip-path:url(#SVGID_00000153703846670575645190000015655067007702232230_);fill:#B6B6B6;}
	.st23{fill-rule:evenodd;clip-rule:evenodd;fill:#303334;}
	.st24{fill:#262626;}
	.st25{fill:#424242;}
	.st26{fill:#595959;}
	.st27{fill:#A3A3A3;}
	.st28{fill:#606060;}
	.st29{fill:#848484;}
	.st30{fill:#040505;}
	.st31{fill-rule:evenodd;clip-rule:evenodd;fill:#2D2D2D;}
	.st32{fill-rule:evenodd;clip-rule:evenodd;fill:#989898;}
	.st33{fill:#4B4B4B;}
	.st34{fill:#373737;}
	.st35{fill:#1E1E1E;}
	.st36{clip-path:url(#SVGID_00000008141475078686925060000000590167243002315656_);}
	.st37{fill:#B29020;}
	.st38{clip-path:url(#SVGID_00000010308685572604514130000009883472791096841632_);}
	.st39{fill-rule:evenodd;clip-rule:evenodd;fill:#333333;}
	.st40{fill-rule:evenodd;clip-rule:evenodd;fill:#FFFFFF;}
	.st41{fill:#333333;}
	.st42{fill:#E3E3E3;}
	.st43{fill:#C7C7C7;}
	.st44{fill:#828282;}
	.st45{fill:#5D5D5D;}
	.st46{fill:#B7B7B7;}
	.st47{fill:#C1C1C1;}
	.st48{fill:#D9D9D9;}
	.st49{fill:#B2B2B2;}
	.st50{fill:#1D1D1D;}
	.st51{fill-rule:evenodd;clip-rule:evenodd;fill:#A8A8A8;}
	.st52{fill:#5C5C5C;}
	.st53{fill:#202020;}
	.st54{fill:#221F1F;}
	.st55{fill:#231F20;}
	.st56{fill:none;stroke:#221F1F;stroke-width:0.1371;}
	.st57{fill:#1D1D1B;}
	.st58{fill:#7A7A7A;}
	.st59{fill:none;stroke:#DBDBDB;stroke-width:0.4653;stroke-miterlimit:10;}
	.st60{clip-path:url(#SVGID_00000085220695970169493150000004539085621760589977_);fill:#B6B6B6;}
	.st61{clip-path:url(#SVGID_00000057834779667810531630000016593081649322986682_);}
	.st62{clip-path:url(#SVGID_00000046339730795156895870000001115812567020397979_);}
	.st63{fill:#A0A0A0;}
	.st64{fill-rule:evenodd;clip-rule:evenodd;fill:#D2B356;}
	.st65{fill:#9E9E9E;}
	.st66{clip-path:url(#SVGID_00000155107013641162400070000007044466614192742068_);}
	.st67{clip-path:url(#SVGID_00000116934207488667484750000002011905991074421935_);}
	.st68{clip-path:url(#SVGID_00000101797617053435205200000017035605203467559350_);}
	.st69{fill:#212121;}
</style>
<g id="Capa_2">
</g>
<g id="Capa_7" class="st1">
</g>
<g id="Capa_1">
</g>
<g id="lineas-logos">
</g>
<g id="marco-logos" class="st1">
</g>
<g id="logos">
	<rect x="-0.16" y="-0.42" class="st59" width="126.08" height="75.06"/>
	<g>
		<g>
			<path class="st21" d="M63.31,65.81c-15.76,0-28.59-12.83-28.59-28.59c0-15.76,12.83-28.59,28.59-28.59S91.9,21.45,91.9,37.22
				C91.9,52.98,79.07,65.81,63.31,65.81z M63.31,9.91C48.25,9.91,36,22.16,36,37.22c0,15.06,12.25,27.3,27.3,27.3
				s27.3-12.25,27.3-27.3C90.61,22.16,78.36,9.91,63.31,9.91z"/>
		</g>
		<g>
			<path class="st21" d="M63.31,56.1c-10.41,0-18.88-8.47-18.88-18.88s8.47-18.88,18.88-18.88c10.41,0,18.88,8.47,18.88,18.88
				S73.72,56.1,63.31,56.1z M63.31,19.18c-9.94,0-18.04,8.09-18.04,18.04c0,9.94,8.09,18.04,18.04,18.04
				c9.94,0,18.04-8.09,18.04-18.04C81.34,27.27,73.25,19.18,63.31,19.18z"/>
		</g>
		<g>
			<g>
				<polygon class="st21" points="74.98,31.69 67.21,31.69 67.21,31.69 67.21,33.39 67.21,48.72 68.77,48.72 68.77,33.39 
					70.33,33.39 70.33,43.13 71.88,43.13 71.88,33.39 73.42,33.39 73.42,39.47 74.97,39.47 74.97,33.39 74.98,33.39 				"/>
			</g>
			<g>
				<path class="st21" d="M60.99,37.22h4.67v-8.1h-4.67V37.22z M62.55,30.47h1.56v5.35h-1.56V30.47z"/>
			</g>
			<g>
				<polygon class="st21" points="51.64,33.39 51.64,33.39 51.64,39.47 53.2,39.47 53.2,33.39 54.73,33.39 54.73,43.13 56.29,43.13 
					56.29,33.39 57.85,33.39 57.85,48.72 59.41,48.72 59.41,33.39 59.41,31.69 59.41,31.69 51.64,31.69 				"/>
			</g>
		</g>
		<g>
			<polygon class="st21" points="86.09,34.74 86.76,36.45 88.59,36.56 87.17,37.73 87.64,39.51 86.09,38.52 84.54,39.51 85,37.73 
				83.58,36.56 85.42,36.45 			"/>
		</g>
		<g>
			<polygon class="st21" points="40.19,34.78 40.86,36.49 42.69,36.6 41.27,37.77 41.73,39.55 40.19,38.56 38.64,39.55 39.1,37.77 
				37.68,36.6 39.51,36.49 			"/>
		</g>
		<g>
			<g>
				<path class="st21" d="M42.08,50.47l1.56-1.02c0.45-0.29,0.87-0.23,1.15,0.21c0.29,0.44,0.17,0.85-0.27,1.14L44.21,51l-0.28-0.43
					l0.34-0.22c0.19-0.12,0.21-0.27,0.12-0.4c-0.09-0.14-0.23-0.18-0.42-0.05l-1.62,1.06c-0.19,0.12-0.21,0.26-0.12,0.4
					c0.09,0.14,0.22,0.18,0.41,0.05l0.44-0.29l0.28,0.43l-0.41,0.27c-0.45,0.29-0.87,0.23-1.15-0.21
					C41.52,51.17,41.63,50.77,42.08,50.47z"/>
			</g>
			<g>
				<path class="st21" d="M43.84,52.96l1.39-1.18c0.42-0.36,0.85-0.34,1.2,0.07c0.35,0.41,0.29,0.84-0.13,1.2l-1.39,1.18
					c-0.42,0.36-0.85,0.34-1.2-0.07C43.36,53.75,43.41,53.32,43.84,52.96z M44.53,53.83l1.44-1.22c0.19-0.16,0.19-0.3,0.08-0.44
					c-0.11-0.13-0.25-0.15-0.44,0.01l-1.44,1.22c-0.19,0.16-0.19,0.3-0.08,0.44C44.2,53.97,44.34,53.99,44.53,53.83z"/>
			</g>
			<g>
				<path class="st21" d="M47.75,53.36l0.6,0.54c0.42,0.38,0.42,0.74,0.06,1.13l-0.14,0.16c-0.24,0.26-0.48,0.35-0.72,0.26
					l-0.01,0.01c0.14,0.25,0.04,0.5-0.23,0.79l-0.41,0.45c-0.11,0.12-0.19,0.22-0.24,0.35l-0.41-0.37c0.04-0.09,0.06-0.14,0.25-0.35
					l0.43-0.47c0.22-0.24,0.22-0.38,0.04-0.55l-0.14-0.13l-1,1.1l-0.4-0.37L47.75,53.36z M47.3,54.96c0.15,0.14,0.3,0.15,0.49-0.05
					l0.18-0.2c0.17-0.18,0.18-0.32,0.04-0.45l-0.18-0.17l-0.67,0.73L47.3,54.96z"/>
			</g>
			<g>
				<path class="st21" d="M48.32,57.34l1.05-1.49c0.32-0.45,0.74-0.54,1.18-0.24c0.44,0.31,0.49,0.74,0.17,1.19l-1.05,1.49
					c-0.32,0.45-0.74,0.54-1.18,0.24C48.06,58.22,48,57.8,48.32,57.34z M49.21,58.01l1.09-1.55c0.14-0.2,0.11-0.34-0.03-0.44
					c-0.14-0.1-0.29-0.09-0.43,0.12l-1.09,1.55c-0.14,0.2-0.11,0.34,0.03,0.44C48.92,58.23,49.07,58.21,49.21,58.01z"/>
			</g>
			<g>
				<path class="st21" d="M52.2,56.75l0.61,0.32l-0.5,2.08l0.01,0l0.96-1.84l0.43,0.23l-1.61,3.07l-0.5-0.26l0.6-2.54l-0.01,0
					l-1.18,2.24l-0.43-0.23L52.2,56.75z"/>
			</g>
			<g>
				<path class="st21" d="M55.23,58.18l0.69,0.25l-0.67,3.45l-0.51-0.19l0.14-0.68l0,0.01l-0.58-0.21l-0.33,0.6l-0.47-0.17
					L55.23,58.18z M54.98,60.56l0.36-1.69l-0.01,0l-0.81,1.53L54.98,60.56z"/>
			</g>
			<g>
				<path class="st21" d="M57.8,59.5l-0.55-0.13l0.11-0.48l1.64,0.38l-0.11,0.48l-0.55-0.13l-0.67,2.89l-0.53-0.12L57.8,59.5z"/>
			</g>
			<g>
				<path class="st21" d="M60.07,59.45l1.48,0.16l-0.05,0.49L60.56,60l-0.1,0.91l0.74,0.08l-0.05,0.49L60.4,61.4l-0.12,1.06
					l0.94,0.1l-0.05,0.49l-1.48-0.16L60.07,59.45z"/>
			</g>
			<g>
				<path class="st21" d="M64.36,59.63l0.83-0.07c0.54-0.05,0.84,0.23,0.89,0.78l0.16,1.75c0.05,0.55-0.19,0.88-0.73,0.93
					l-0.83,0.07L64.36,59.63z M65.45,62.52c0.17-0.02,0.27-0.11,0.25-0.36l-0.16-1.8c-0.02-0.25-0.13-0.33-0.31-0.31l-0.28,0.02
					l0.22,2.47L65.45,62.52z"/>
			</g>
			<g>
				<path class="st21" d="M67.18,59.3l1.45-0.31l0.11,0.48l-0.92,0.2l0.19,0.9l0.73-0.16l0.1,0.48l-0.73,0.16l0.23,1.04l0.92-0.2
					l0.11,0.48l-1.45,0.31L67.18,59.3z"/>
			</g>
			<g>
				<path class="st21" d="M72.33,60.55l-0.73-1.67c-0.22-0.51-0.1-0.91,0.39-1.12c0.49-0.22,0.87-0.04,1.09,0.47l0.12,0.27
					l-0.47,0.21l-0.13-0.3c-0.1-0.23-0.24-0.27-0.4-0.2c-0.16,0.07-0.22,0.2-0.12,0.43l0.76,1.74c0.1,0.23,0.24,0.26,0.39,0.19
					c0.16-0.07,0.22-0.2,0.12-0.42l-0.27-0.62l-0.25,0.11l-0.2-0.45l0.72-0.32l0.46,1.04c0.22,0.51,0.1,0.91-0.39,1.12
					C72.93,61.24,72.55,61.06,72.33,60.55z"/>
			</g>
			<g>
				<path class="st21" d="M73.8,56.93l0.47-0.28l1.51,2.56l0.77-0.46l0.25,0.43l-1.24,0.73L73.8,56.93z"/>
			</g>
			<g>
				<path class="st21" d="M77.52,57.71l-1.11-1.45c-0.34-0.44-0.3-0.87,0.12-1.2c0.42-0.33,0.85-0.25,1.19,0.19l1.11,1.45
					c0.34,0.44,0.3,0.87-0.12,1.2C78.28,58.22,77.86,58.15,77.52,57.71z M78.42,57.06l-1.15-1.5c-0.15-0.2-0.29-0.2-0.43-0.1
					c-0.14,0.11-0.17,0.25-0.02,0.44l1.15,1.5c0.15,0.2,0.29,0.2,0.43,0.1C78.54,57.4,78.57,57.26,78.42,57.06z"/>
			</g>
			<g>
				<path class="st21" d="M78.11,53.82l0.57-0.57c0.4-0.4,0.76-0.38,1.13,0l0.15,0.15c0.25,0.25,0.33,0.5,0.23,0.74l0.01,0.01
					c0.25-0.13,0.5-0.01,0.77,0.27l0.43,0.43c0.12,0.12,0.21,0.2,0.34,0.26l-0.39,0.39c-0.08-0.04-0.14-0.07-0.34-0.27l-0.45-0.45
					c-0.23-0.23-0.37-0.24-0.54-0.06l-0.13,0.13l1.05,1.05l-0.39,0.38L78.11,53.82z M79.68,54.35c0.14-0.14,0.17-0.29-0.03-0.49
					l-0.19-0.19c-0.17-0.18-0.31-0.19-0.45-0.06l-0.18,0.17l0.7,0.7L79.68,54.35z"/>
			</g>
			<g>
				<path class="st21" d="M80.06,51.75l0.34-0.42l2.69,2.19l-0.34,0.42L80.06,51.75z"/>
			</g>
			<g>
				<path class="st21" d="M81.39,49.98l0.4-0.62l3.21,1.43l-0.3,0.46l-0.63-0.29l0.01,0.01l-0.34,0.52l0.51,0.45l-0.28,0.42
					L81.39,49.98z M83.66,50.76l-1.57-0.74l-0.01,0.01l1.3,1.14L83.66,50.76z"/>
			</g>
		</g>
		<g>
			<g>
				<path class="st21" d="M44.44,19.66l4.13,3.2l-0.53,0.68l-2.67-2.07c-0.11-0.08-0.22-0.18-0.33-0.29l1.38,3.07
					c0.07,0.15,0.05,0.28-0.04,0.4l-0.08,0.11c-0.09,0.12-0.22,0.17-0.38,0.14l-3.34-0.56c0.07,0.04,0.13,0.09,0.2,0.13
					c0.06,0.04,0.12,0.09,0.17,0.12l2.67,2.07l-0.53,0.68l-4.13-3.2l0.45-0.58c0.03-0.03,0.05-0.06,0.07-0.09
					c0.02-0.02,0.04-0.04,0.07-0.06c0.02-0.01,0.05-0.02,0.08-0.03c0.03,0,0.06,0,0.11,0.01l3.26,0.54
					c0.09,0.01,0.17,0.03,0.26,0.06c0.09,0.02,0.17,0.05,0.26,0.07c-0.05-0.08-0.1-0.16-0.14-0.24c-0.04-0.08-0.08-0.16-0.12-0.24
					l-1.34-3c-0.02-0.04-0.03-0.07-0.03-0.1c0-0.03,0-0.06,0.01-0.08c0.01-0.03,0.02-0.05,0.04-0.08c0.02-0.03,0.04-0.06,0.07-0.09
					L44.44,19.66z"/>
			</g>
			<g>
				<path class="st21" d="M52.08,17.1c0.22,0.31,0.37,0.64,0.45,0.98c0.08,0.34,0.1,0.67,0.04,1c-0.05,0.33-0.18,0.64-0.37,0.94
					c-0.19,0.3-0.45,0.56-0.78,0.79c-0.32,0.23-0.66,0.38-1,0.45c-0.34,0.08-0.68,0.08-1.01,0.02c-0.33-0.06-0.64-0.19-0.93-0.39
					c-0.29-0.19-0.55-0.45-0.77-0.76c-0.22-0.31-0.37-0.64-0.45-0.98c-0.08-0.34-0.1-0.68-0.04-1.01s0.18-0.64,0.37-0.94
					c0.19-0.3,0.45-0.56,0.77-0.78c0.22-0.15,0.44-0.27,0.67-0.35c0.23-0.08,0.45-0.14,0.68-0.15c0.22-0.02,0.45-0.01,0.67,0.03
					c0.22,0.04,0.43,0.11,0.63,0.21s0.39,0.23,0.57,0.39C51.77,16.71,51.93,16.89,52.08,17.1z M51.26,17.67
					c-0.16-0.24-0.34-0.42-0.54-0.57c-0.19-0.14-0.39-0.24-0.6-0.29c-0.21-0.05-0.42-0.05-0.63,0s-0.43,0.14-0.64,0.29
					c-0.21,0.15-0.37,0.31-0.49,0.5c-0.12,0.19-0.19,0.39-0.22,0.6s-0.01,0.43,0.06,0.67c0.07,0.23,0.18,0.46,0.35,0.7
					c0.16,0.24,0.34,0.42,0.54,0.57c0.19,0.14,0.39,0.24,0.6,0.29c0.21,0.05,0.42,0.05,0.64,0s0.43-0.14,0.64-0.29
					c0.21-0.15,0.37-0.31,0.49-0.5c0.12-0.19,0.19-0.38,0.22-0.6c0.03-0.21,0.01-0.43-0.06-0.66
					C51.54,18.14,51.43,17.91,51.26,17.67z"/>
			</g>
			<g>
				<path class="st21" d="M58.19,12.14l1.57,4.99l-0.82,0.26l-1.01-3.22c-0.04-0.13-0.08-0.27-0.11-0.42l-0.62,3.31
					c-0.03,0.16-0.12,0.26-0.26,0.31l-0.13,0.04c-0.15,0.05-0.28,0.01-0.39-0.1L54,14.93c0.03,0.07,0.06,0.15,0.09,0.22
					c0.03,0.07,0.05,0.14,0.07,0.2l1.01,3.22l-0.82,0.26l-1.57-4.99l0.7-0.22c0.04-0.01,0.08-0.02,0.11-0.03
					c0.03-0.01,0.06-0.01,0.09-0.01s0.05,0.01,0.08,0.02c0.03,0.01,0.05,0.04,0.08,0.06l2.37,2.3c0.06,0.06,0.12,0.13,0.18,0.19
					c0.06,0.07,0.12,0.14,0.17,0.21c0.01-0.1,0.01-0.19,0.02-0.28c0.01-0.09,0.02-0.18,0.04-0.26l0.61-3.23
					c0.01-0.04,0.02-0.07,0.03-0.1c0.01-0.03,0.03-0.05,0.05-0.07c0.02-0.02,0.05-0.03,0.08-0.04c0.03-0.01,0.06-0.02,0.11-0.04
					L58.19,12.14z"/>
			</g>
			<g>
				<path class="st21" d="M66.01,12.85c-0.03,0.05-0.06,0.08-0.1,0.11c-0.03,0.02-0.07,0.03-0.12,0.03c-0.05,0-0.1-0.02-0.16-0.06
					c-0.06-0.04-0.13-0.09-0.2-0.14c-0.08-0.05-0.17-0.1-0.28-0.14c-0.11-0.04-0.24-0.07-0.39-0.08c-0.14-0.01-0.25,0-0.36,0.03
					c-0.1,0.03-0.19,0.07-0.26,0.12c-0.07,0.05-0.13,0.12-0.16,0.2c-0.04,0.08-0.06,0.17-0.06,0.26c-0.01,0.12,0.02,0.23,0.09,0.31
					c0.06,0.09,0.15,0.16,0.26,0.22c0.11,0.06,0.24,0.12,0.38,0.18c0.14,0.05,0.29,0.11,0.44,0.17c0.15,0.06,0.29,0.13,0.43,0.2
					c0.14,0.08,0.27,0.17,0.37,0.28c0.11,0.11,0.19,0.24,0.25,0.4c0.06,0.16,0.09,0.34,0.07,0.56c-0.01,0.24-0.06,0.45-0.16,0.66
					c-0.09,0.2-0.22,0.38-0.38,0.52c-0.16,0.14-0.36,0.26-0.59,0.33c-0.23,0.08-0.49,0.11-0.78,0.09c-0.17-0.01-0.33-0.03-0.49-0.07
					s-0.31-0.1-0.46-0.16c-0.15-0.07-0.28-0.15-0.41-0.24c-0.13-0.09-0.24-0.19-0.33-0.3l0.31-0.45c0.03-0.03,0.06-0.06,0.1-0.08
					c0.04-0.02,0.08-0.03,0.12-0.03c0.06,0,0.12,0.03,0.19,0.08c0.07,0.05,0.15,0.11,0.24,0.18c0.09,0.07,0.2,0.13,0.33,0.18
					c0.13,0.06,0.28,0.09,0.46,0.1c0.28,0.01,0.49-0.04,0.65-0.16c0.16-0.12,0.24-0.31,0.26-0.55c0.01-0.14-0.02-0.25-0.09-0.34
					c-0.06-0.09-0.15-0.17-0.26-0.23c-0.11-0.06-0.24-0.12-0.38-0.17c-0.14-0.05-0.29-0.1-0.43-0.16c-0.15-0.06-0.29-0.12-0.43-0.2
					c-0.14-0.07-0.27-0.17-0.37-0.28c-0.11-0.11-0.19-0.25-0.25-0.42c-0.06-0.17-0.08-0.37-0.07-0.61c0.01-0.19,0.06-0.37,0.14-0.55
					c0.09-0.18,0.2-0.33,0.36-0.46c0.15-0.13,0.34-0.23,0.55-0.31c0.22-0.07,0.46-0.1,0.74-0.09c0.31,0.02,0.59,0.08,0.84,0.19
					c0.26,0.11,0.47,0.26,0.64,0.44L66.01,12.85z"/>
			</g>
			<g>
				<path class="st21" d="M70.05,12.68c0.34,0.09,0.62,0.21,0.85,0.35c0.23,0.14,0.4,0.31,0.52,0.49c0.12,0.19,0.2,0.39,0.22,0.61
					c0.03,0.22,0.01,0.45-0.06,0.68c-0.07,0.24-0.17,0.46-0.3,0.64c-0.14,0.18-0.3,0.33-0.51,0.43c-0.2,0.1-0.44,0.16-0.7,0.18
					c-0.27,0.02-0.57-0.02-0.89-0.11l-0.7-0.19l-0.47,1.78l-0.94-0.25l1.34-5.06L70.05,12.68z M69.38,15.22
					c0.17,0.05,0.33,0.06,0.47,0.06c0.14-0.01,0.26-0.04,0.37-0.1c0.11-0.06,0.2-0.14,0.27-0.24c0.07-0.1,0.13-0.23,0.17-0.37
					c0.04-0.14,0.05-0.26,0.03-0.38c-0.01-0.12-0.05-0.23-0.11-0.33c-0.06-0.1-0.15-0.19-0.27-0.26c-0.12-0.07-0.26-0.14-0.44-0.18
					l-0.7-0.19l-0.48,1.81L69.38,15.22z"/>
			</g>
			<g>
				<path class="st21" d="M77.08,18.69c-0.19,0.33-0.42,0.61-0.69,0.84c-0.27,0.22-0.57,0.38-0.88,0.48c-0.32,0.09-0.65,0.12-1,0.08
					c-0.35-0.04-0.7-0.16-1.04-0.36c-0.34-0.19-0.63-0.43-0.84-0.7c-0.22-0.28-0.37-0.58-0.46-0.9c-0.09-0.32-0.1-0.66-0.06-1
					c0.05-0.35,0.17-0.69,0.35-1.02s0.42-0.61,0.69-0.84c0.27-0.22,0.57-0.38,0.89-0.48c0.32-0.09,0.65-0.12,1-0.08
					c0.35,0.04,0.7,0.16,1.04,0.35c0.23,0.13,0.43,0.28,0.61,0.45c0.17,0.17,0.32,0.35,0.43,0.54c0.12,0.19,0.2,0.4,0.26,0.61
					c0.06,0.22,0.08,0.44,0.08,0.66c0,0.23-0.04,0.45-0.1,0.68C77.3,18.25,77.2,18.47,77.08,18.69z M76.21,18.21
					c0.14-0.25,0.23-0.49,0.28-0.73c0.04-0.24,0.04-0.46,0-0.67c-0.05-0.21-0.14-0.4-0.27-0.57c-0.14-0.17-0.32-0.32-0.54-0.45
					c-0.22-0.13-0.44-0.2-0.66-0.23c-0.22-0.03-0.43-0.01-0.63,0.06c-0.2,0.07-0.39,0.18-0.57,0.34c-0.18,0.16-0.34,0.37-0.48,0.62
					s-0.23,0.49-0.28,0.73C73,17.55,73,17.78,73.05,17.98c0.05,0.21,0.14,0.4,0.28,0.57c0.14,0.17,0.32,0.32,0.54,0.45
					c0.22,0.13,0.44,0.2,0.66,0.23c0.22,0.03,0.43,0.01,0.63-0.06c0.2-0.07,0.39-0.18,0.57-0.34
					C75.91,18.66,76.07,18.46,76.21,18.21z"/>
			</g>
			<g>
				<path class="st21" d="M79.42,24.45l-0.63-0.61c-0.12-0.12-0.16-0.25-0.13-0.39l0.37-1.97c0.01-0.07,0.01-0.14-0.01-0.19
					s-0.06-0.11-0.13-0.18l-0.3-0.29l-1.42,1.47l-0.7-0.67l3.62-3.77l1.15,1.1c0.26,0.25,0.45,0.48,0.58,0.71
					c0.13,0.23,0.21,0.45,0.24,0.66s0,0.41-0.07,0.59c-0.07,0.19-0.19,0.36-0.34,0.52c-0.12,0.13-0.26,0.23-0.4,0.31
					c-0.15,0.08-0.3,0.13-0.46,0.15c-0.16,0.02-0.32,0.02-0.49-0.01c-0.17-0.03-0.34-0.09-0.51-0.17c0.02,0.07,0.03,0.14,0.04,0.21
					c0,0.07,0,0.15-0.02,0.23L79.42,24.45z M79.51,20.74c0.13,0.13,0.26,0.22,0.39,0.28c0.13,0.06,0.25,0.09,0.37,0.1
					c0.12,0,0.23-0.02,0.34-0.07c0.11-0.05,0.21-0.12,0.3-0.22c0.18-0.19,0.26-0.4,0.23-0.62c-0.03-0.22-0.17-0.46-0.43-0.71
					l-0.45-0.43l-1.2,1.25L79.51,20.74z"/>
			</g>
			<g>
				<path class="st21" d="M85.42,25.47l-0.88-1.31l-3.67,2.48l-0.54-0.81L84,23.35l-0.88-1.31l0.66-0.45l2.31,3.42L85.42,25.47z"/>
			</g>
		</g>
	</g>
</g>
<g id="Capa_6">
</g>
</svg>
