<?xml version="1.0" encoding="utf-8"?>
<!-- Generator: Adobe Illustrator 27.9.0, SVG Export Plug-In . SVG Version: 6.00 Build 0)  -->
<svg version="1.1" xmlns="http://www.w3.org/2000/svg" xmlns:xlink="http://www.w3.org/1999/xlink" x="0px" y="0px"
	 viewBox="0 0 26.64 27.62" style="enable-background:new 0 0 26.64 27.62;" xml:space="preserve">
<style type="text/css">
	.st0{fill:#F0F0F0;}
	.st1{display:none;}
	.st2{display:inline;fill:#1C1824;}
	.st3{fill:none;stroke:#D4D4D4;stroke-width:2.3506;stroke-miterlimit:10;}
	.st4{fill:none;stroke:#E3E3E3;stroke-width:0.5;stroke-miterlimit:10;}
	.st5{fill:none;stroke:#FFFFFE;stroke-width:0.8855;stroke-miterlimit:10;}
	.st6{fill:#FFFFFE;}
	.st7{fill:#16C0FE;}
	.st8{fill:#0000D7;}
	.st9{fill:#FFDE00;}
	.st10{fill:#6B6B6B;}
	.st11{fill:#696969;}
	.st12{fill:none;stroke:#474747;stroke-width:0.348;stroke-miterlimit:10;}
	.st13{fill:none;stroke:#474747;stroke-width:0.4442;stroke-miterlimit:10;}
	.st14{fill:none;stroke:#D2B356;stroke-width:5.9189;stroke-miterlimit:10;}
	.st15{fill:#D2B356;}
	.st16{fill:#FFFFFF;}
	.st17{fill:none;stroke:#000000;stroke-width:0.4956;stroke-miterlimit:10;}
	.st18{fill:none;stroke:#000000;stroke-width:1.6303;stroke-miterlimit:10;}
	.st19{fill:none;stroke:#A8A8A8;stroke-width:0.5;stroke-miterlimit:10;}
	.st20{display:inline;fill:none;stroke:#DBDBDB;stroke-width:0.4653;stroke-miterlimit:10;}
	.st21{fill:#303334;}
	.st22{clip-path:url(#SVGID_00000096047853977968746760000004357660518917926563_);fill:#B6B6B6;}
	.st23{fill-rule:evenodd;clip-rule:evenodd;fill:#303334;}
	.st24{fill:#262626;}
	.st25{fill:#424242;}
	.st26{fill:#595959;}
	.st27{fill:#A3A3A3;}
	.st28{fill:#606060;}
	.st29{fill:#848484;}
	.st30{fill:#040505;}
	.st31{fill-rule:evenodd;clip-rule:evenodd;fill:#2D2D2D;}
	.st32{fill-rule:evenodd;clip-rule:evenodd;fill:#989898;}
	.st33{fill:#4B4B4B;}
	.st34{fill:#373737;}
	.st35{fill:#1E1E1E;}
	.st36{clip-path:url(#SVGID_00000018945916578120551310000011249829505134070965_);}
	.st37{fill:#B29020;}
	.st38{clip-path:url(#SVGID_00000018230215184871846320000005864948295851096201_);}
	.st39{fill-rule:evenodd;clip-rule:evenodd;fill:#333333;}
	.st40{fill-rule:evenodd;clip-rule:evenodd;fill:#FFFFFF;}
	.st41{fill:#333333;}
	.st42{fill:#E3E3E3;}
	.st43{fill:#C7C7C7;}
	.st44{fill:#828282;}
	.st45{fill:#5D5D5D;}
	.st46{fill:#B7B7B7;}
	.st47{fill:#C1C1C1;}
	.st48{fill:#D9D9D9;}
	.st49{fill:#B2B2B2;}
	.st50{fill:#1D1D1D;}
	.st51{fill-rule:evenodd;clip-rule:evenodd;fill:#A8A8A8;}
	.st52{fill:#5C5C5C;}
	.st53{fill:#202020;}
	.st54{fill:#221F1F;}
	.st55{fill:#231F20;}
	.st56{fill:none;stroke:#221F1F;stroke-width:0.1371;}
	.st57{fill:#1D1D1B;}
	.st58{fill:#7A7A7A;}
	.st59{fill:none;stroke:#DBDBDB;stroke-width:0.4653;stroke-miterlimit:10;}
	.st60{clip-path:url(#SVGID_00000075885390216305300150000004137947060186868397_);fill:#B6B6B6;}
	.st61{clip-path:url(#SVGID_00000063599056836261441750000007948293219962770320_);}
	.st62{clip-path:url(#SVGID_00000117649771469133094680000014660822901700111775_);}
	.st63{fill:#A0A0A0;}
	.st64{fill-rule:evenodd;clip-rule:evenodd;fill:#D2B356;}
	.st65{fill:#9E9E9E;}
	.st66{clip-path:url(#SVGID_00000133525299717294962540000012049280356092564630_);}
	.st67{clip-path:url(#SVGID_00000008118891795111179930000015921975559443197589_);}
	.st68{clip-path:url(#SVGID_00000144328876382074692530000007973349222503020171_);}
	.st69{fill:#212121;}
</style>
<g id="Capa_2">
</g>
<g id="Capa_7" class="st1">
	<rect x="-278.01" y="-19.27" class="st2" width="884.26" height="136.12"/>
</g>
<g id="Capa_1">
</g>
<g id="lineas-logos">
</g>
<g id="marco-logos" class="st1">
</g>
<g id="logos">
	<g>
		<path class="st64" d="M18.72,16.26c-0.25-0.14-1.47-0.79-1.7-0.89c-0.23-0.09-0.4-0.14-0.57,0.11c-0.18,0.25-0.68,0.8-0.84,0.96
			c-0.15,0.16-0.3,0.18-0.55,0.04c-0.25-0.14-1.05-0.43-1.99-1.33c-0.73-0.7-1.2-1.54-1.34-1.8c-0.14-0.26,0-0.39,0.13-0.51
			c0.12-0.11,0.26-0.29,0.4-0.43c0.13-0.14,0.18-0.25,0.27-0.41c0.09-0.17,0.05-0.31,0-0.44c-0.06-0.13-0.52-1.39-0.71-1.91
			c-0.19-0.51-0.41-0.44-0.55-0.44c-0.15,0-0.32-0.03-0.48-0.04c-0.17-0.01-0.45,0.05-0.69,0.29c-0.24,0.24-0.92,0.83-0.96,2.08
			c-0.05,1.24,0.81,2.48,0.93,2.65c0.12,0.17,1.64,2.87,4.17,3.98c2.53,1.11,2.55,0.77,3.01,0.75c0.47-0.02,1.52-0.56,1.75-1.14
			c0.23-0.58,0.25-1.09,0.19-1.2C19.13,16.46,18.97,16.39,18.72,16.26L18.72,16.26z M14.08,22.25c-1.67,0-3.23-0.5-4.53-1.36
			L6.37,21.9l1.03-3.06c-0.99-1.36-1.57-3.03-1.57-4.83c0-4.55,3.7-8.24,8.24-8.24c4.55,0,8.24,3.7,8.24,8.24
			C22.32,18.55,18.62,22.25,14.08,22.25L14.08,22.25z M14.08,4.1c-5.47,0-9.9,4.43-9.9,9.9c0,1.87,0.52,3.62,1.42,5.11l-1.79,5.31
			l5.48-1.75c1.42,0.78,3.05,1.23,4.79,1.23c5.47,0,9.9-4.43,9.9-9.9C23.98,8.54,19.55,4.1,14.08,4.1L14.08,4.1z"/>
	</g>
</g>
<g id="Capa_6">
</g>
</svg>
