<?xml version="1.0" encoding="utf-8"?>
<!-- Generator: Adobe Illustrator 27.9.0, SVG Export Plug-In . SVG Version: 6.00 Build 0)  -->
<svg version="1.1" xmlns="http://www.w3.org/2000/svg" xmlns:xlink="http://www.w3.org/1999/xlink" x="0px" y="0px"
	 viewBox="0 0 126.08 75.06" style="enable-background:new 0 0 126.08 75.06;" xml:space="preserve">
<style type="text/css">
	.st0{fill:#F0F0F0;}
	.st1{display:none;}
	.st2{display:inline;fill:#1C1824;}
	.st3{fill:none;stroke:#D4D4D4;stroke-width:2.3506;stroke-miterlimit:10;}
	.st4{fill:none;stroke:#E3E3E3;stroke-width:0.5;stroke-miterlimit:10;}
	.st5{fill:none;stroke:#FFFFFE;stroke-width:0.8855;stroke-miterlimit:10;}
	.st6{fill:#FFFFFE;}
	.st7{fill:#16C0FE;}
	.st8{fill:#0000D7;}
	.st9{fill:#FFDE00;}
	.st10{fill:#6B6B6B;}
	.st11{fill:#696969;}
	.st12{fill:none;stroke:#474747;stroke-width:0.348;stroke-miterlimit:10;}
	.st13{fill:none;stroke:#474747;stroke-width:0.4442;stroke-miterlimit:10;}
	.st14{fill:none;stroke:#D2B356;stroke-width:5.9189;stroke-miterlimit:10;}
	.st15{fill:#D2B356;}
	.st16{fill:#FFFFFF;}
	.st17{fill:none;stroke:#000000;stroke-width:0.4956;stroke-miterlimit:10;}
	.st18{fill:none;stroke:#000000;stroke-width:1.6303;stroke-miterlimit:10;}
	.st19{fill:none;stroke:#A8A8A8;stroke-width:0.5;stroke-miterlimit:10;}
	.st20{display:inline;fill:none;stroke:#DBDBDB;stroke-width:0.4653;stroke-miterlimit:10;}
	.st21{fill:#303334;}
	.st22{clip-path:url(#SVGID_00000068673732338162091560000015994998285427326594_);fill:#B6B6B6;}
	.st23{fill-rule:evenodd;clip-rule:evenodd;fill:#303334;}
	.st24{fill:#262626;}
	.st25{fill:#424242;}
	.st26{fill:#595959;}
	.st27{fill:#A3A3A3;}
	.st28{fill:#606060;}
	.st29{fill:#848484;}
	.st30{fill:#040505;}
	.st31{fill-rule:evenodd;clip-rule:evenodd;fill:#2D2D2D;}
	.st32{fill-rule:evenodd;clip-rule:evenodd;fill:#989898;}
	.st33{fill:#4B4B4B;}
	.st34{fill:#373737;}
	.st35{fill:#1E1E1E;}
	.st36{clip-path:url(#SVGID_00000129891910800711892710000012594191687450244764_);}
	.st37{fill:#B29020;}
	.st38{clip-path:url(#SVGID_00000053504316046067425770000002613665017787195577_);}
	.st39{fill-rule:evenodd;clip-rule:evenodd;fill:#333333;}
	.st40{fill-rule:evenodd;clip-rule:evenodd;fill:#FFFFFF;}
	.st41{fill:#333333;}
	.st42{fill:#E3E3E3;}
	.st43{fill:#C7C7C7;}
	.st44{fill:#828282;}
	.st45{fill:#5D5D5D;}
	.st46{fill:#B7B7B7;}
	.st47{fill:#C1C1C1;}
	.st48{fill:#D9D9D9;}
	.st49{fill:#B2B2B2;}
	.st50{fill:#1D1D1D;}
	.st51{fill-rule:evenodd;clip-rule:evenodd;fill:#A8A8A8;}
	.st52{fill:#5C5C5C;}
	.st53{fill:#202020;}
	.st54{fill:#221F1F;}
	.st55{fill:#231F20;}
	.st56{fill:none;stroke:#221F1F;stroke-width:0.1371;}
	.st57{fill:#1D1D1B;}
	.st58{fill:#7A7A7A;}
	.st59{fill:none;stroke:#DBDBDB;stroke-width:0.4653;stroke-miterlimit:10;}
	.st60{clip-path:url(#SVGID_00000106115521535740289840000007068448483747171517_);fill:#B6B6B6;}
	.st61{clip-path:url(#SVGID_00000101786798963419053770000012784740376548262576_);}
	.st62{clip-path:url(#SVGID_00000154411599038256265170000010811050961296735920_);}
	.st63{fill:#A0A0A0;}
	.st64{fill-rule:evenodd;clip-rule:evenodd;fill:#D2B356;}
	.st65{fill:#9E9E9E;}
	.st66{clip-path:url(#SVGID_00000098213598962290007380000010611690728465269143_);}
	.st67{clip-path:url(#SVGID_00000092420114772849975050000004333064297383402925_);}
	.st68{clip-path:url(#SVGID_00000173149135788953677690000002323434579157161358_);}
	.st69{fill:#212121;}
</style>
<g id="Capa_2">
</g>
<g id="Capa_7" class="st1">
</g>
<g id="Capa_1">
</g>
<g id="lineas-logos">
</g>
<g id="marco-logos" class="st1">
</g>
<g id="logos">
	<rect x="-0.18" class="st59" width="126.08" height="75.06"/>
	<path class="st21" d="M23,35.29c-0.03-0.68-0.22-1.36-0.58-1.98L19.3,27.9c-0.24-0.41-0.4-0.85-0.49-1.31l-0.13,0.23
		c-0.77,1.34-0.77,2.99,0,4.33l2.5,4.33c0.77,1.34,0.77,2.99,0,4.33l-0.13,0.23c-0.09-0.45-0.26-0.9-0.49-1.31l-2.29-3.97
		l-1.46-2.53c-0.24-0.41-0.4-0.86-0.49-1.31l-0.13,0.23c-0.77,1.34-0.77,2.98-0.01,4.32l0,0l2.51,4.35c0.77,1.34,0.77,2.99,0,4.33
		l-0.13,0.23c-0.09-0.45-0.26-0.9-0.49-1.31l-3.13-5.42c-0.42-0.73-0.61-1.54-0.58-2.35c-3.35,0.87-5.66,2.73-5.66,4.88
		c0,2.99,4.47,5.41,9.98,5.41c5.51,0,9.98-2.42,9.98-5.41C28.65,38.03,26.35,36.17,23,35.29 M37.81,37.71l-1.01-0.43
		c-1.31-0.56-2.04-1.12-2.04-2.09c0-0.99,0.75-1.63,2.38-1.63c0.86,0,2.06,0.17,3.07,0.54c0.19-0.54,0.32-1.12,0.37-1.87
		c-1.07-0.37-2.21-0.54-3.42-0.54c-3.03,0-4.51,1.37-4.51,3.5c0,1.98,1.2,2.98,2.96,3.74l0.95,0.41c1.76,0.77,2.47,1.27,2.47,2.36
		c0,1.1-0.97,1.67-2.71,1.67c-1.03,0-2.38-0.24-3.42-0.73c-0.21,0.6-0.32,1.12-0.35,1.89c1.05,0.49,2.3,0.71,3.83,0.71
		c3.18,0,4.81-1.48,4.81-3.63C41.17,39.78,40.18,38.72,37.81,37.71 M42.47,40.22c0,3.14,1.65,4.94,4.12,4.94
		c1.31,0,2.12-0.52,2.64-1.35l0.11,1.12h1.89v-9.35c-1.09-0.37-2.19-0.52-3.54-0.52C44.22,35.05,42.47,36.92,42.47,40.22
		 M49.16,42.8c-0.54,0.41-1.2,0.67-2,0.67c-1.83,0-2.6-1.35-2.6-3.26c0-2.1,0.99-3.4,3.12-3.4c0.58,0,1.05,0.04,1.48,0.11V42.8z
		 M57.21,35.05c-0.99,0-2.43,0.21-3.74,0.52v9.35h2.06v-7.97c0.56-0.09,1.14-0.15,1.63-0.15c2.06,0,2.54,0.71,2.54,2.19v5.93h2.06
		v-6.29C61.76,36.38,60.65,35.05,57.21,35.05 M68.94,37.13c0.09-0.54,0.15-1.12,0.19-1.76h-3.25v-3.54c-0.64,0-1.42,0.09-2.06,0.3
		v9.82c0,2.28,1.27,3.2,3.28,3.2c0.58,0,1.18-0.07,1.74-0.3c0.11-0.54,0.19-1.18,0.24-1.74c-0.45,0.17-1.01,0.28-1.61,0.28
		c-0.99,0-1.59-0.47-1.59-1.68v-4.58H68.94z M69.74,40.22c0,3.14,1.65,4.94,4.12,4.94c1.31,0,2.12-0.52,2.64-1.35l0.11,1.12h1.89
		v-9.35c-1.08-0.37-2.19-0.52-3.54-0.52C71.5,35.05,69.74,36.92,69.74,40.22 M76.44,42.8c-0.54,0.41-1.2,0.67-2,0.67
		c-1.83,0-2.6-1.35-2.6-3.26c0-2.1,0.99-3.4,3.12-3.4c0.58,0,1.05,0.04,1.48,0.11V42.8z M84.49,35.05c-0.99,0-2.43,0.21-3.74,0.52
		v9.35h2.06v-7.97c0.56-0.09,1.14-0.15,1.63-0.15c2.06,0,2.54,0.71,2.54,2.19v5.93h2.06v-6.29C89.04,36.38,87.93,35.05,84.49,35.05
		 M97.44,35.2c-0.49-0.09-0.99-0.15-1.53-0.15c-3.46,0-5.22,1.87-5.22,5.16c0,3.14,1.65,4.94,4.12,4.94c1.35,0,2.15-0.54,2.68-1.42
		l0.11,1.2h1.89v-13.1c-0.67,0-1.4,0.06-2.04,0.28V35.2z M97.44,42.76c-0.56,0.43-1.23,0.71-2.06,0.71c-1.83,0-2.6-1.35-2.6-3.26
		c0-2.13,0.97-3.4,3.01-3.4c0.54,0,1.1,0.07,1.65,0.19V42.76z M105.73,35.05c-3.28,0-4.57,2.21-4.57,5c0,3.2,1.67,5.11,5.11,5.11
		c1.1,0,2.1-0.17,3.03-0.6c0.13-0.62,0.24-1.33,0.32-1.87c-1.03,0.47-2.17,0.71-3.29,0.71c-1.83,0-2.81-0.81-3.07-2.47h6.57
		c0.08-0.54,0.11-1.01,0.11-1.59C109.94,36.98,108.66,35.05,105.73,35.05 M103.22,39.2c0.17-1.59,0.94-2.43,2.4-2.43
		c1.42,0,2.24,0.9,2.24,2.43H103.22z M111.71,35.58v9.35h2.06v-8.01c0.51-0.07,1.01-0.11,1.52-0.11c0.58,0,1.07,0.02,1.55,0.07
		c0.11-0.39,0.19-1.14,0.19-1.76c-0.45-0.06-1.16-0.07-1.8-0.07C114.07,35.05,112.59,35.28,111.71,35.58"/>
</g>
<g id="Capa_6">
</g>
</svg>
