<?xml version="1.0" encoding="utf-8"?>
<!-- Generator: Adobe Illustrator 27.9.0, SVG Export Plug-In . SVG Version: 6.00 Build 0)  -->
<svg version="1.1" xmlns="http://www.w3.org/2000/svg" xmlns:xlink="http://www.w3.org/1999/xlink" x="0px" y="0px"
	 viewBox="0 0 251.61 135.15" style="enable-background:new 0 0 251.61 135.15;" xml:space="preserve">
<style type="text/css">
	.st0{fill:#F0F0F0;}
	.st1{display:none;}
	.st2{display:inline;fill:#1C1824;}
	.st3{fill:none;stroke:#D4D4D4;stroke-width:2.3506;stroke-miterlimit:10;}
	.st4{fill:none;stroke:#E3E3E3;stroke-width:0.5;stroke-miterlimit:10;}
	.st5{fill:none;stroke:#FFFFFE;stroke-width:0.8855;stroke-miterlimit:10;}
	.st6{fill:#FFFFFE;}
	.st7{fill:#16C0FE;}
	.st8{fill:#0000D7;}
	.st9{fill:#FFDE00;}
	.st10{fill:#6B6B6B;}
	.st11{fill:#696969;}
	.st12{fill:none;stroke:#474747;stroke-width:0.348;stroke-miterlimit:10;}
	.st13{fill:none;stroke:#474747;stroke-width:0.4442;stroke-miterlimit:10;}
	.st14{fill:none;stroke:#D2B356;stroke-width:5.9189;stroke-miterlimit:10;}
	.st15{fill:#D2B356;}
	.st16{fill:#FFFFFF;}
	.st17{fill:none;stroke:#000000;stroke-width:0.4956;stroke-miterlimit:10;}
	.st18{fill:none;stroke:#000000;stroke-width:1.6303;stroke-miterlimit:10;}
	.st19{fill:none;stroke:#A8A8A8;stroke-width:0.5;stroke-miterlimit:10;}
	.st20{display:inline;fill:none;stroke:#DBDBDB;stroke-width:0.4653;stroke-miterlimit:10;}
	.st21{fill:#303334;}
	.st22{clip-path:url(#SVGID_00000048466084326799662650000001094353752818026906_);fill:#B6B6B6;}
	.st23{fill-rule:evenodd;clip-rule:evenodd;fill:#303334;}
	.st24{fill:#262626;}
	.st25{fill:#424242;}
	.st26{fill:#595959;}
	.st27{fill:#A3A3A3;}
	.st28{fill:#606060;}
	.st29{fill:#848484;}
	.st30{fill:#040505;}
	.st31{fill-rule:evenodd;clip-rule:evenodd;fill:#2D2D2D;}
	.st32{fill-rule:evenodd;clip-rule:evenodd;fill:#989898;}
	.st33{fill:#4B4B4B;}
	.st34{fill:#373737;}
	.st35{fill:#1E1E1E;}
	.st36{clip-path:url(#SVGID_00000085222713606950336020000013929553302347972247_);}
	.st37{fill:#B29020;}
	.st38{clip-path:url(#SVGID_00000160907248548514194190000010828894184118302891_);}
	.st39{fill-rule:evenodd;clip-rule:evenodd;fill:#333333;}
	.st40{fill-rule:evenodd;clip-rule:evenodd;fill:#FFFFFF;}
	.st41{fill:#333333;}
	.st42{fill:#E3E3E3;}
	.st43{fill:#C7C7C7;}
	.st44{fill:#828282;}
	.st45{fill:#5D5D5D;}
	.st46{fill:#B7B7B7;}
	.st47{fill:#C1C1C1;}
	.st48{fill:#D9D9D9;}
	.st49{fill:#B2B2B2;}
	.st50{fill:#1D1D1D;}
	.st51{fill-rule:evenodd;clip-rule:evenodd;fill:#A8A8A8;}
	.st52{fill:#5C5C5C;}
	.st53{fill:#202020;}
	.st54{fill:#221F1F;}
	.st55{fill:#231F20;}
	.st56{fill:none;stroke:#221F1F;stroke-width:0.1371;}
	.st57{fill:#1D1D1B;}
	.st58{fill:#7A7A7A;}
	.st59{fill:none;stroke:#DBDBDB;stroke-width:0.4653;stroke-miterlimit:10;}
	.st60{clip-path:url(#SVGID_00000062910383541714547570000013386179682067211951_);fill:#B6B6B6;}
	.st61{clip-path:url(#SVGID_00000148652307712487348720000013177092384854096532_);}
	.st62{clip-path:url(#SVGID_00000171688345991936169350000004808701481974652068_);}
	.st63{fill:#A0A0A0;}
	.st64{fill-rule:evenodd;clip-rule:evenodd;fill:#D2B356;}
	.st65{fill:#9E9E9E;}
	.st66{clip-path:url(#SVGID_00000171696441704324966850000002265454991490222763_);}
	.st67{clip-path:url(#SVGID_00000040575544366028558310000017657106741252004268_);}
	.st68{clip-path:url(#SVGID_00000083086816026327914350000014722799783814451342_);}
	.st69{fill:#212121;}
</style>
<g id="Capa_2">
</g>
<g id="Capa_7" class="st1">
</g>
<g id="Capa_1">
	<path class="st3" d="M128.71,68.58c0,3.63-2.93,6.57-6.56,6.57c-3.65,0-6.57-2.94-6.57-6.57c0-3.62,2.93-6.56,6.57-6.56
		C125.78,62.02,128.71,64.96,128.71,68.58z"/>
	<g>
		<line class="st4" x1="122.19" y1="18.69" x2="122.19" y2="121.75"/>
		<line class="st4" x1="173.66" y1="68.34" x2="70.6" y2="68.34"/>
	</g>
	<g>
		<line class="st4" x1="157.3" y1="33.24" x2="84.42" y2="106.11"/>
		<line class="st4" x1="158.59" y1="104.74" x2="85.71" y2="31.87"/>
	</g>
	<polyline class="st12" points="11.59,106.7 11.59,33.62 40.82,70.86 70.06,32.57 70.06,106.7 	"/>
	<polyline class="st12" points="233.28,32.57 233.28,106.7 174.46,32.57 174.46,106.7 	"/>
	<g>
		<g>
			<g>
				<g>
					<path d="M69.29,69.14c0-6.95,1.36-13.69,4.05-20.22c2.7-6.54,6.51-12.27,11.43-17.19c4.92-4.9,10.57-8.68,16.96-11.29
						c6.38-2.61,13.1-3.91,20.17-3.91c7.13,0,13.9,1.3,20.3,3.91c6.4,2.61,12.06,6.39,16.99,11.29c4.91,4.96,8.7,10.67,11.34,17.1
						c2.64,6.44,3.97,13.2,3.97,20.31c0,6.16-1.02,12.08-3.04,17.77c-2.02,5.7-4.96,10.88-8.84,15.57
						c-4.92,6-10.98,10.72-18.19,14.13c-7.21,3.42-14.72,5.14-22.52,5.14c-6.87,0-13.56-1.37-20.03-4.06
						c-6.48-2.7-12.18-6.52-17.1-11.42c-4.87-4.89-8.68-10.59-11.4-17.1C70.65,82.65,69.29,75.99,69.29,69.14z M71.46,69.2
						c0,6.55,1.29,12.93,3.9,19.14c2.61,6.22,6.26,11.68,10.95,16.4c4.72,4.69,10.21,8.33,16.44,10.94
						c6.22,2.6,12.61,3.91,19.2,3.91c6.6,0,13.01-1.31,19.22-3.89c6.21-2.57,11.74-6.22,16.54-10.96
						c4.73-4.68,8.34-10.07,10.86-16.2c2.52-6.13,3.77-12.56,3.77-19.34c0-6.86-1.26-13.38-3.77-19.56
						c-2.52-6.17-6.13-11.63-10.86-16.34c-4.77-4.76-10.21-8.37-16.31-10.88c-6.1-2.47-12.59-3.72-19.44-3.72
						c-5.89,0-11.56,0.98-16.98,2.9c-5.43,1.91-10.41,4.74-14.95,8.44c-5.82,4.84-10.37,10.72-13.65,17.65
						C73.09,54.61,71.46,61.78,71.46,69.2z"/>
				</g>
			</g>
		</g>
	</g>
	<path d="M128.71,68.58c0,3.63-2.93,6.57-6.56,6.57c-3.65,0-6.57-2.94-6.57-6.57c0-3.62,2.93-6.56,6.57-6.56
		C125.78,62.02,128.71,64.96,128.71,68.58z"/>
</g>
<g id="lineas-logos">
</g>
<g id="marco-logos" class="st1">
</g>
<g id="logos">
</g>
<g id="Capa_6">
</g>
</svg>
