<?xml version="1.0" encoding="utf-8"?>
<!-- Generator: Adobe Illustrator 27.9.0, SVG Export Plug-In . SVG Version: 6.00 Build 0)  -->
<svg version="1.1" xmlns="http://www.w3.org/2000/svg" xmlns:xlink="http://www.w3.org/1999/xlink" x="0px" y="0px"
	 viewBox="0 0 126.08 75.06" style="enable-background:new 0 0 126.08 75.06;" xml:space="preserve">
<style type="text/css">
	.st0{fill:#F0F0F0;}
	.st1{display:none;}
	.st2{display:inline;fill:#1C1824;}
	.st3{fill:none;stroke:#D4D4D4;stroke-width:2.3506;stroke-miterlimit:10;}
	.st4{fill:none;stroke:#E3E3E3;stroke-width:0.5;stroke-miterlimit:10;}
	.st5{fill:none;stroke:#FFFFFE;stroke-width:0.8855;stroke-miterlimit:10;}
	.st6{fill:#FFFFFE;}
	.st7{fill:#16C0FE;}
	.st8{fill:#0000D7;}
	.st9{fill:#FFDE00;}
	.st10{fill:#6B6B6B;}
	.st11{fill:#696969;}
	.st12{fill:none;stroke:#474747;stroke-width:0.348;stroke-miterlimit:10;}
	.st13{fill:none;stroke:#474747;stroke-width:0.4442;stroke-miterlimit:10;}
	.st14{fill:none;stroke:#D2B356;stroke-width:5.9189;stroke-miterlimit:10;}
	.st15{fill:#D2B356;}
	.st16{fill:#FFFFFF;}
	.st17{fill:none;stroke:#000000;stroke-width:0.4956;stroke-miterlimit:10;}
	.st18{fill:none;stroke:#000000;stroke-width:1.6303;stroke-miterlimit:10;}
	.st19{fill:none;stroke:#A8A8A8;stroke-width:0.5;stroke-miterlimit:10;}
	.st20{display:inline;fill:none;stroke:#DBDBDB;stroke-width:0.4653;stroke-miterlimit:10;}
	.st21{fill:#303334;}
	.st22{clip-path:url(#SVGID_00000051369582334768704250000004604057449310087049_);fill:#B6B6B6;}
	.st23{fill-rule:evenodd;clip-rule:evenodd;fill:#303334;}
	.st24{fill:#262626;}
	.st25{fill:#424242;}
	.st26{fill:#595959;}
	.st27{fill:#A3A3A3;}
	.st28{fill:#606060;}
	.st29{fill:#848484;}
	.st30{fill:#040505;}
	.st31{fill-rule:evenodd;clip-rule:evenodd;fill:#2D2D2D;}
	.st32{fill-rule:evenodd;clip-rule:evenodd;fill:#989898;}
	.st33{fill:#4B4B4B;}
	.st34{fill:#373737;}
	.st35{fill:#1E1E1E;}
	.st36{clip-path:url(#SVGID_00000034786817643994702790000009974553041940922300_);}
	.st37{fill:#B29020;}
	.st38{clip-path:url(#SVGID_00000116233212947276893820000016297282674187429545_);}
	.st39{fill-rule:evenodd;clip-rule:evenodd;fill:#333333;}
	.st40{fill-rule:evenodd;clip-rule:evenodd;fill:#FFFFFF;}
	.st41{fill:#333333;}
	.st42{fill:#E3E3E3;}
	.st43{fill:#C7C7C7;}
	.st44{fill:#828282;}
	.st45{fill:#5D5D5D;}
	.st46{fill:#B7B7B7;}
	.st47{fill:#C1C1C1;}
	.st48{fill:#D9D9D9;}
	.st49{fill:#B2B2B2;}
	.st50{fill:#1D1D1D;}
	.st51{fill-rule:evenodd;clip-rule:evenodd;fill:#A8A8A8;}
	.st52{fill:#5C5C5C;}
	.st53{fill:#202020;}
	.st54{fill:#221F1F;}
	.st55{fill:#231F20;}
	.st56{fill:none;stroke:#221F1F;stroke-width:0.1371;}
	.st57{fill:#1D1D1B;}
	.st58{fill:#7A7A7A;}
	.st59{fill:none;stroke:#DBDBDB;stroke-width:0.4653;stroke-miterlimit:10;}
	.st60{clip-path:url(#SVGID_00000087382453295970909120000009020937387744922533_);fill:#B6B6B6;}
	.st61{clip-path:url(#SVGID_00000046336539052779710370000008166483256850931843_);}
	.st62{clip-path:url(#SVGID_00000101815422698710907960000008383963132633470084_);}
	.st63{fill:#A0A0A0;}
	.st64{fill-rule:evenodd;clip-rule:evenodd;fill:#D2B356;}
	.st65{fill:#9E9E9E;}
	.st66{clip-path:url(#SVGID_00000167396698929564379080000018071509726562725292_);}
	.st67{clip-path:url(#SVGID_00000111178889282455988910000006730615292051048632_);}
	.st68{clip-path:url(#SVGID_00000085246455816170326710000008648181624566741642_);}
	.st69{fill:#212121;}
</style>
<g id="Capa_2">
</g>
<g id="Capa_7" class="st1">
</g>
<g id="Capa_1">
</g>
<g id="lineas-logos">
</g>
<g id="marco-logos" class="st1">
</g>
<g id="logos">
	<rect x="-0.17" y="-0.13" class="st59" width="126.08" height="75.06"/>
	<g>
		<rect x="11.12" y="48.12" class="st52" width="104.02" height="9.16"/>
		<g>
			<g>
				<path class="st53" d="M15.42,27.01h-2.43v3.21h-1.06v-9.55h3.49c1.04,0,1.81,0.25,2.3,0.76c0.5,0.51,0.75,1.28,0.75,2.32
					C18.47,25.92,17.45,27.01,15.42,27.01z M12.99,26.07h2.41c1.32,0,1.97-0.77,1.97-2.32c0-0.74-0.16-1.28-0.47-1.62
					c-0.31-0.34-0.81-0.52-1.5-0.52h-2.41V26.07z"/>
				<path class="st53" d="M21.17,26.57v3.66h-1.06v-9.55h3.53c1.01,0,1.77,0.23,2.28,0.7c0.51,0.47,0.77,1.2,0.77,2.19
					c0,1.47-0.58,2.4-1.75,2.77l1.83,3.88H25.6l-1.72-3.66H21.17z M23.66,25.63c1.3,0,1.95-0.67,1.95-2.01
					c0-1.34-0.65-2.01-1.96-2.01h-2.47v4.01H23.66z"/>
				<path class="st53" d="M35.77,25.52c0,1.7-0.27,2.93-0.81,3.7c-0.54,0.76-1.53,1.15-2.96,1.15c-1.43,0-2.42-0.39-2.96-1.17
					c-0.54-0.78-0.81-2.01-0.81-3.69c0-1.68,0.28-2.92,0.83-3.74c0.55-0.81,1.53-1.22,2.94-1.22c1.41,0,2.39,0.4,2.95,1.21
					C35.49,22.56,35.77,23.82,35.77,25.52z M29.31,25.49c0,1.4,0.18,2.4,0.55,3.01c0.37,0.61,1.08,0.92,2.13,0.92
					c1.05,0,1.76-0.3,2.12-0.9c0.36-0.6,0.54-1.6,0.54-3.01c0-1.41-0.19-2.43-0.57-3.08c-0.38-0.64-1.08-0.97-2.12-0.97
					c-1.03,0-1.74,0.32-2.11,0.96C29.5,23.07,29.31,24.09,29.31,25.49z"/>
				<path class="st53" d="M40.41,30.22h-1.06v-4.01l-3.05-5.53h1.2l2.37,4.47l2.37-4.47h1.2l-3.04,5.53V30.22z"/>
				<path class="st53" d="M44.75,30.22v-9.55h5.81v0.94h-4.75v3.3h3.92v0.92h-3.92v3.45h4.75v0.94H44.75z"/>
				<path class="st53" d="M58.04,30.07c-0.95,0.19-1.8,0.29-2.55,0.29c-0.75,0-1.36-0.1-1.83-0.31c-0.46-0.21-0.82-0.53-1.08-0.97
					c-0.25-0.44-0.43-0.94-0.52-1.5c-0.1-0.57-0.14-1.27-0.14-2.12c0-0.85,0.05-1.56,0.14-2.13c0.1-0.57,0.27-1.08,0.52-1.52
					c0.25-0.44,0.61-0.76,1.07-0.97c0.46-0.2,1.06-0.3,1.79-0.3c0.74,0,1.6,0.1,2.59,0.3L58,21.74c-0.93-0.17-1.76-0.25-2.48-0.25
					c-1.01,0-1.68,0.3-2.01,0.9c-0.33,0.6-0.49,1.63-0.49,3.08c0,0.73,0.03,1.31,0.09,1.75c0.06,0.44,0.18,0.84,0.35,1.19
					c0.17,0.35,0.43,0.61,0.77,0.76c0.34,0.15,0.83,0.23,1.48,0.23c0.65,0,1.41-0.08,2.3-0.25L58.04,30.07z"/>
				<path class="st53" d="M58.78,21.63v-0.95h6.9v0.95h-2.91v8.6h-1.05v-8.6H58.78z"/>
				<path class="st53" d="M73.92,25.52c0,1.7-0.27,2.93-0.81,3.7c-0.54,0.76-1.53,1.15-2.96,1.15c-1.43,0-2.42-0.39-2.96-1.17
					c-0.54-0.78-0.81-2.01-0.81-3.69c0-1.68,0.28-2.92,0.83-3.74c0.55-0.81,1.53-1.22,2.94-1.22c1.41,0,2.39,0.4,2.95,1.21
					C73.64,22.56,73.92,23.82,73.92,25.52z M67.46,25.49c0,1.4,0.18,2.4,0.55,3.01c0.37,0.61,1.08,0.92,2.13,0.92
					c1.05,0,1.76-0.3,2.12-0.9c0.36-0.6,0.54-1.6,0.54-3.01c0-1.41-0.19-2.43-0.57-3.08s-1.08-0.97-2.12-0.97s-1.74,0.32-2.11,0.96
					C67.65,23.07,67.46,24.09,67.46,25.49z"/>
			</g>
		</g>
		<g>
			<path class="st0" d="M15.6,53.96H15v1.07h-0.75v-3.68h1.35c0.87,0,1.31,0.43,1.31,1.28c0,0.43-0.11,0.76-0.33,0.99
				C16.36,53.84,16.03,53.96,15.6,53.96z M15,53.32h0.6c0.37,0,0.56-0.23,0.56-0.69c0-0.23-0.05-0.39-0.14-0.49
				c-0.09-0.1-0.23-0.15-0.42-0.15H15V53.32z"/>
			<path class="st0" d="M20.26,54.63c-0.23,0.3-0.62,0.46-1.18,0.46s-0.95-0.15-1.18-0.46c-0.23-0.3-0.34-0.78-0.34-1.43
				c0-0.65,0.11-1.13,0.34-1.45c0.23-0.32,0.62-0.47,1.18-0.47s0.95,0.16,1.18,0.47c0.23,0.32,0.34,0.8,0.34,1.45
				C20.6,53.85,20.48,54.33,20.26,54.63z M18.48,54.16c0.11,0.19,0.31,0.28,0.6,0.28c0.29,0,0.49-0.09,0.6-0.28
				c0.11-0.19,0.16-0.51,0.16-0.95s-0.05-0.77-0.16-0.97c-0.11-0.2-0.31-0.3-0.6-0.3c-0.29,0-0.49,0.1-0.6,0.3
				c-0.11,0.2-0.16,0.53-0.16,0.97S18.37,53.97,18.48,54.16z"/>
			<path class="st0" d="M24.05,54.63c-0.23,0.3-0.62,0.46-1.18,0.46s-0.95-0.15-1.18-0.46c-0.23-0.3-0.34-0.78-0.34-1.43
				c0-0.65,0.11-1.13,0.34-1.45c0.23-0.32,0.62-0.47,1.18-0.47s0.95,0.16,1.18,0.47c0.23,0.32,0.34,0.8,0.34,1.45
				C24.4,53.85,24.28,54.33,24.05,54.63z M22.27,54.16c0.11,0.19,0.31,0.28,0.6,0.28s0.49-0.09,0.6-0.28
				c0.11-0.19,0.16-0.51,0.16-0.95s-0.05-0.77-0.16-0.97c-0.11-0.2-0.31-0.3-0.6-0.3c-0.29,0-0.49,0.1-0.6,0.3
				c-0.11,0.2-0.16,0.53-0.16,0.97S22.17,53.97,22.27,54.16z"/>
			<path class="st0" d="M27.4,55.03h-2.09v-3.68h0.75v3.02h1.35V55.03z"/>
			<path class="st0" d="M30.83,55.03h-1.24v-3.68h1.24c0.32,0,0.58,0.03,0.78,0.1c0.21,0.07,0.37,0.18,0.48,0.33
				s0.19,0.33,0.24,0.54c0.04,0.21,0.07,0.48,0.07,0.81s-0.02,0.61-0.06,0.83c-0.04,0.22-0.11,0.41-0.22,0.58
				c-0.11,0.17-0.27,0.3-0.48,0.37C31.43,54.99,31.16,55.03,30.83,55.03z M31.62,53.57c0.01-0.12,0.01-0.28,0.01-0.48
				c0-0.2-0.01-0.37-0.02-0.49c-0.01-0.12-0.05-0.23-0.1-0.34s-0.13-0.17-0.24-0.21C31.16,52.02,31.01,52,30.83,52h-0.49v2.38h0.49
				c0.27,0,0.47-0.07,0.59-0.21C31.53,54.06,31.59,53.86,31.62,53.57z"/>
			<path class="st0" d="M33.32,55.03v-3.68h2.38V52h-1.63v0.86h1.31v0.64h-1.31v0.88h1.63v0.65H33.32z"/>
			<path class="st0" d="M38.05,55.03v-3.68h0.75v3.68H38.05z"/>
			<path class="st0" d="M39.87,55.03v-3.68h1.26l0.89,3.03h0.05v-3.03h0.75v3.68h-1.23L40.67,52h-0.05v3.03H39.87z"/>
			<path class="st0" d="M45.88,51.35h0.78l-0.86,3.68h-1.38l-0.86-3.68h0.78L45,54.38h0.24L45.88,51.35z"/>
			<path class="st0" d="M47.42,55.03v-3.68h2.38V52h-1.63v0.86h1.31v0.64h-1.31v0.88h1.63v0.65H47.42z"/>
			<path class="st0" d="M51.44,53.79v1.23h-0.75v-3.68h1.43c0.87,0,1.3,0.4,1.3,1.21c0,0.48-0.18,0.83-0.54,1.06l0.52,1.41h-0.82
				l-0.43-1.23H51.44z M52.53,52.99c0.09-0.11,0.13-0.25,0.13-0.43c0-0.18-0.05-0.32-0.14-0.42c-0.09-0.1-0.22-0.16-0.4-0.16h-0.68
				v1.17h0.69C52.31,53.15,52.44,53.1,52.53,52.99z"/>
			<path class="st0" d="M55.45,51.93c-0.39,0-0.59,0.13-0.59,0.39c0,0.12,0.05,0.2,0.15,0.27c0.1,0.06,0.33,0.15,0.68,0.27
				c0.36,0.12,0.61,0.25,0.76,0.39s0.22,0.37,0.22,0.67c0,0.39-0.12,0.68-0.35,0.88c-0.23,0.2-0.54,0.3-0.92,0.3
				c-0.28,0-0.63-0.04-1.03-0.13l-0.19-0.04l0.08-0.58c0.48,0.06,0.85,0.1,1.11,0.1c0.38,0,0.57-0.16,0.57-0.48
				c0-0.12-0.04-0.21-0.13-0.27c-0.09-0.06-0.26-0.14-0.53-0.21c-0.42-0.12-0.71-0.26-0.89-0.42c-0.17-0.16-0.26-0.39-0.26-0.68
				c0-0.37,0.11-0.64,0.34-0.82c0.22-0.18,0.53-0.27,0.92-0.27c0.27,0,0.61,0.04,1.02,0.11l0.19,0.04l-0.06,0.59
				C56.02,51.96,55.66,51.93,55.45,51.93z"/>
			<path class="st0" d="M60.08,54.63c-0.23,0.3-0.62,0.46-1.18,0.46s-0.95-0.15-1.18-0.46c-0.23-0.3-0.34-0.78-0.34-1.43
				c0-0.65,0.11-1.13,0.34-1.45c0.23-0.32,0.62-0.47,1.18-0.47s0.95,0.16,1.18,0.47c0.23,0.32,0.34,0.8,0.34,1.45
				C60.42,53.85,60.31,54.33,60.08,54.63z M58.3,54.16c0.11,0.19,0.31,0.28,0.6,0.28c0.29,0,0.49-0.09,0.6-0.28
				c0.11-0.19,0.16-0.51,0.16-0.95s-0.05-0.77-0.16-0.97s-0.31-0.3-0.6-0.3c-0.29,0-0.49,0.1-0.6,0.3c-0.11,0.2-0.16,0.53-0.16,0.97
				S58.19,53.97,58.3,54.16z"/>
			<path class="st0" d="M62.08,53.79v1.23h-0.75v-3.68h1.43c0.87,0,1.3,0.4,1.3,1.21c0,0.48-0.18,0.83-0.54,1.06l0.52,1.41h-0.82
				l-0.43-1.23H62.08z M63.17,52.99c0.09-0.11,0.13-0.25,0.13-0.43c0-0.18-0.05-0.32-0.14-0.42c-0.09-0.1-0.22-0.16-0.4-0.16h-0.68
				v1.17h0.69C62.95,53.15,63.08,53.1,63.17,52.99z"/>
			<path class="st0" d="M64.96,55.03v-3.68h2.38V52h-1.63v0.86h1.31v0.64h-1.31v0.88h1.63v0.65H64.96z"/>
			<path class="st0" d="M69.36,51.93c-0.39,0-0.59,0.13-0.59,0.39c0,0.12,0.05,0.2,0.15,0.27c0.1,0.06,0.33,0.15,0.68,0.27
				c0.36,0.12,0.61,0.25,0.76,0.39s0.22,0.37,0.22,0.67c0,0.39-0.12,0.68-0.35,0.88c-0.23,0.2-0.54,0.3-0.92,0.3
				c-0.28,0-0.63-0.04-1.03-0.13l-0.19-0.04l0.08-0.58c0.48,0.06,0.85,0.1,1.11,0.1c0.38,0,0.57-0.16,0.57-0.48
				c0-0.12-0.04-0.21-0.13-0.27c-0.09-0.06-0.26-0.14-0.53-0.21c-0.42-0.12-0.71-0.26-0.89-0.42c-0.17-0.16-0.26-0.39-0.26-0.68
				c0-0.37,0.11-0.64,0.34-0.82c0.22-0.18,0.53-0.27,0.92-0.27c0.27,0,0.61,0.04,1.02,0.11l0.19,0.04l-0.06,0.59
				C69.93,51.96,69.57,51.93,69.36,51.93z"/>
			<path class="st0" d="M72.9,55.03v-3.68h0.75v3.68H72.9z"/>
			<path class="st0" d="M74.72,55.03v-3.68h1.26l0.89,3.03h0.05v-3.03h0.75v3.68h-1.23L75.52,52h-0.05v3.03H74.72z"/>
			<path class="st0" d="M78.74,55.03v-3.68h1.27l0.65,2.68l0.65-2.68h1.27v3.68h-0.75v-2.85h-0.08l-0.72,2.68h-0.75l-0.72-2.68
				h-0.08v2.85H78.74z"/>
			<path class="st0" d="M86.2,54.63c-0.23,0.3-0.62,0.46-1.18,0.46s-0.95-0.15-1.18-0.46c-0.23-0.3-0.34-0.78-0.34-1.43
				c0-0.65,0.11-1.13,0.34-1.45c0.23-0.32,0.62-0.47,1.18-0.47s0.95,0.16,1.18,0.47c0.23,0.32,0.34,0.8,0.34,1.45
				C86.55,53.85,86.43,54.33,86.2,54.63z M84.42,54.16c0.11,0.19,0.31,0.28,0.6,0.28s0.49-0.09,0.6-0.28
				c0.11-0.19,0.16-0.51,0.16-0.95s-0.05-0.77-0.16-0.97s-0.31-0.3-0.6-0.3c-0.29,0-0.49,0.1-0.6,0.3c-0.11,0.2-0.16,0.53-0.16,0.97
				S84.32,53.97,84.42,54.16z"/>
			<path class="st0" d="M87.46,51.35h1.45c0.38,0,0.67,0.08,0.86,0.23c0.19,0.15,0.29,0.4,0.29,0.74c0,0.21-0.03,0.37-0.09,0.49
				c-0.06,0.12-0.17,0.23-0.31,0.32c0.16,0.07,0.28,0.17,0.36,0.3c0.08,0.13,0.12,0.31,0.12,0.54c0,0.36-0.1,0.62-0.31,0.8
				s-0.5,0.26-0.88,0.26h-1.47V51.35z M88.87,51.99H88.2v0.88h0.67c0.28,0,0.42-0.15,0.42-0.44C89.29,52.13,89.15,51.99,88.87,51.99
				z M88.89,53.49H88.2v0.9h0.68c0.16,0,0.28-0.03,0.36-0.1c0.08-0.06,0.12-0.18,0.12-0.36C89.36,53.64,89.2,53.49,88.89,53.49z"/>
			<path class="st0" d="M91.02,55.03v-3.68h0.75v3.68H91.02z"/>
			<path class="st0" d="M94.94,55.03h-2.09v-3.68h0.75v3.02h1.35V55.03z"/>
			<path class="st0" d="M95.67,55.03v-3.68h0.75v3.68H95.67z"/>
			<path class="st0" d="M97.18,55.03l0.83-3.68h1.42l0.83,3.68h-0.75l-0.15-0.67h-1.29l-0.15,0.67H97.18z M98.59,51.96l-0.37,1.75
				h1.01l-0.37-1.75H98.59z"/>
			<path class="st0" d="M101.76,53.79v1.23h-0.75v-3.68h1.43c0.87,0,1.3,0.4,1.3,1.21c0,0.48-0.18,0.83-0.54,1.06l0.52,1.41h-0.82
				l-0.43-1.23H101.76z M102.85,52.99c0.09-0.11,0.13-0.25,0.13-0.43c0-0.18-0.05-0.32-0.14-0.42c-0.09-0.1-0.22-0.16-0.4-0.16
				h-0.68v1.17h0.69C102.63,53.15,102.76,53.1,102.85,52.99z"/>
			<path class="st0" d="M104.64,55.03v-3.68h0.75v3.68H104.64z"/>
			<path class="st0" d="M109.01,54.63c-0.23,0.3-0.62,0.46-1.18,0.46s-0.95-0.15-1.18-0.46c-0.23-0.3-0.34-0.78-0.34-1.43
				c0-0.65,0.11-1.13,0.34-1.45c0.23-0.32,0.62-0.47,1.18-0.47s0.95,0.16,1.18,0.47c0.23,0.32,0.34,0.8,0.34,1.45
				C109.35,53.85,109.24,54.33,109.01,54.63z M107.23,54.16c0.11,0.19,0.31,0.28,0.6,0.28s0.49-0.09,0.6-0.28
				c0.11-0.19,0.16-0.51,0.16-0.95s-0.05-0.77-0.16-0.97s-0.31-0.3-0.6-0.3c-0.29,0-0.49,0.1-0.6,0.3c-0.11,0.2-0.16,0.53-0.16,0.97
				S107.12,53.97,107.23,54.16z"/>
			<path class="st0" d="M111.39,51.93c-0.39,0-0.59,0.13-0.59,0.39c0,0.12,0.05,0.2,0.15,0.27c0.1,0.06,0.33,0.15,0.68,0.27
				c0.36,0.12,0.61,0.25,0.76,0.39s0.22,0.37,0.22,0.67c0,0.39-0.12,0.68-0.35,0.88c-0.23,0.2-0.54,0.3-0.92,0.3
				c-0.28,0-0.63-0.04-1.03-0.13l-0.19-0.04l0.08-0.58c0.48,0.06,0.85,0.1,1.11,0.1c0.38,0,0.57-0.16,0.57-0.48
				c0-0.12-0.04-0.21-0.13-0.27c-0.09-0.06-0.26-0.14-0.53-0.21c-0.42-0.12-0.71-0.26-0.89-0.42c-0.17-0.16-0.26-0.39-0.26-0.68
				c0-0.37,0.11-0.64,0.34-0.82c0.22-0.18,0.53-0.27,0.92-0.27c0.27,0,0.61,0.04,1.02,0.11l0.19,0.04l-0.06,0.59
				C111.96,51.96,111.6,51.93,111.39,51.93z"/>
		</g>
		<path class="st53" d="M19.19,46.36v-4.8H16.5v4.8h-4.76V32.62h4.76v5.07h2.69v-5.07h4.76v13.75H19.19z"/>
		<path class="st53" d="M37.98,39.49c0,2.5-0.52,4.32-1.56,5.45c-1.04,1.13-2.7,1.69-4.98,1.69c-2.28,0-3.94-0.57-4.99-1.7
			c-1.05-1.14-1.57-2.95-1.57-5.45c0-2.5,0.52-4.31,1.56-5.44c1.04-1.13,2.7-1.69,4.99-1.69s3.95,0.56,4.99,1.69
			C37.46,35.17,37.98,36.99,37.98,39.49z M29.69,39.49c0,1.16,0.11,2,0.34,2.51c0.23,0.51,0.7,0.77,1.42,0.77
			c0.72,0,1.19-0.25,1.41-0.76c0.22-0.51,0.33-1.35,0.33-2.53c0-1.18-0.11-2.02-0.32-2.52c-0.21-0.5-0.68-0.75-1.41-0.75
			c-0.73,0-1.2,0.26-1.43,0.77S29.69,38.33,29.69,39.49z"/>
		<path class="st53" d="M44.85,42.81h-1.17v3.55h-4.76V32.62h5.79c2.12,0,3.64,0.35,4.55,1.06c0.92,0.7,1.37,2.01,1.37,3.92
			c0,1.91-0.51,3.27-1.52,4.09l1.35,4.68h-4.84L44.85,42.81z M44.83,39.06c0.67,0,1.01-0.45,1.01-1.34c0-0.9-0.38-1.34-1.13-1.34
			h-1.05v2.69H44.83z"/>
		<path class="st53" d="M51.58,46.36V32.62h7.08l1.07,5.25l0.88-5.25h7.28v13.75h-4.76v-7.08h-0.23l-1.19,6.93h-3.98l-1.17-6.93
			h-0.23v7.08H51.58z"/>
		<path class="st53" d="M69.12,46.36V32.62h4.76v13.75H69.12z"/>
		<path class="st53" d="M100.61,39.49c0,2.5-0.52,4.32-1.56,5.45c-1.04,1.13-2.7,1.69-4.97,1.69s-3.94-0.57-4.99-1.7
			c-1.05-1.14-1.57-2.95-1.57-5.45c0-2.5,0.52-4.31,1.56-5.44c1.04-1.13,2.7-1.69,4.99-1.69c2.28,0,3.95,0.56,4.99,1.69
			C100.09,35.17,100.61,36.99,100.61,39.49z M92.24,28.95h4.96l-2.24,2.79h-3.61L92.24,28.95z M92.33,39.49c0,1.16,0.11,2,0.34,2.51
			c0.23,0.51,0.7,0.77,1.42,0.77s1.19-0.25,1.41-0.76c0.22-0.51,0.33-1.35,0.33-2.53c0-1.18-0.11-2.02-0.32-2.52
			c-0.21-0.5-0.68-0.75-1.41-0.75s-1.2,0.26-1.43,0.77C92.44,37.49,92.33,38.33,92.33,39.49z"/>
		<path class="st53" d="M101.56,46.36V32.62h4.68l3.16,5.21h0.29v-5.21h4.76v13.75h-4.7l-3.12-5.6h-0.31v5.6H101.56z"/>
		<path class="st52" d="M89.13,30.12c-0.29-0.06-0.58-0.11-0.88-0.16l-0.07-0.01c-0.82-0.15-1.68-0.3-2.45-0.53
			c-0.14-0.04-0.27-0.09-0.4-0.13c-0.86-0.28-1.75-0.57-2.85-0.12c-0.89,0.37-1.53,1.06-2.01,2.17c-0.12,0.27-0.24,0.52-0.38,0.78
			c0.05-0.35,0.1-0.7,0.14-1.05c0.11-0.86,0.23-1.75,0.4-2.57c0.07-0.33,0.22-0.79,0.56-1.06c0.4-0.32,1.11-0.38,1.79-0.43
			c0.28-0.02,0.55-0.04,0.81-0.08c1.11-0.17,2.21-0.37,3.24-0.55l0.33-0.06l-0.28-1.21l-0.3,0.05c-1.02,0.18-2.1,0.37-3.22,0.54
			c-0.21,0.03-0.45,0.05-0.72,0.07c-0.82,0.06-1.74,0.14-2.41,0.68c-0.61,0.49-0.86,1.22-0.97,1.74c-0.18,0.87-0.3,1.78-0.42,2.67
			c-0.07,0.5-0.14,1.02-0.22,1.53c-1.03,0.14-1.83,0.4-2.39,0.8c-0.87,0.61-1.3,1.71-1.3,3.31c0,1.6,0.61,2.68,1.83,3.25l-0.32,0.29
			c-0.23,0.18-0.45,0.41-0.67,0.69c-0.22,0.28-0.33,0.5-0.33,0.67c0,0.75,0.27,1.32,0.81,1.69c-0.54,0.42-0.92,0.84-1.13,1.26
			c-0.21,0.42-0.32,0.9-0.32,1.45c0,1.34,0.6,2.21,1.81,2.6c1.05,0.36,2.53,0.54,4.43,0.54s3.36-0.39,4.38-1.16
			c1.02-0.78,1.54-1.86,1.54-3.25c0-1.39-0.31-2.35-0.94-2.88c-0.63-0.53-1.83-0.79-3.6-0.79c-1.78,0-2.66-0.08-2.66-0.23
			c0-0.09,0.03-0.18,0.09-0.27c0.27,0.05,0.56,0.07,0.86,0.07c1.99,0,3.39-0.27,4.22-0.82c0.83-0.55,1.24-1.64,1.24-3.26
			c0-0.24-0.07-0.55-0.2-0.93l1.06-2.06v-0.9l-4.18,0.07l-0.36-0.07c-0.51-0.08-0.95-0.12-1.34-0.15c0.07-0.14,0.13-0.27,0.19-0.42
			c0.36-0.82,0.8-1.32,1.39-1.56c0.7-0.29,1.26-0.11,2.06,0.16c0.13,0.04,0.27,0.09,0.41,0.13c0.84,0.26,1.73,0.41,2.6,0.57
			l0.03,0.01c0.3,0.05,0.6,0.11,0.89,0.16l0.34,0.07l0.12-1.23L89.13,30.12z M81.23,44.46c0.64,0,1.06,0.03,1.27,0.1
			c0.21,0.07,0.31,0.23,0.31,0.49c0,0.42-0.61,0.63-1.82,0.63c-1.22,0-1.82-0.17-1.82-0.51c0-0.45,0.07-0.74,0.22-0.87L81.23,44.46z
			 M82.03,36.13c0,0.37-0.08,0.62-0.25,0.77c-0.16,0.15-0.44,0.22-0.82,0.22c-0.38,0-0.66-0.07-0.82-0.22
			c-0.16-0.15-0.25-0.4-0.25-0.77c0-0.37,0.08-0.62,0.25-0.77c0.16-0.15,0.44-0.22,0.82-0.22c0.38,0,0.66,0.07,0.82,0.22
			C81.94,35.51,82.03,35.76,82.03,36.13z"/>
	</g>
</g>
<g id="Capa_6">
</g>
</svg>
