<?xml version="1.0" encoding="utf-8"?>
<!-- Generator: Adobe Illustrator 27.9.0, SVG Export Plug-In . SVG Version: 6.00 Build 0)  -->
<svg version="1.1" xmlns="http://www.w3.org/2000/svg" xmlns:xlink="http://www.w3.org/1999/xlink" x="0px" y="0px"
	 viewBox="0 0 126.08 75.06" style="enable-background:new 0 0 126.08 75.06;" xml:space="preserve">
<style type="text/css">
	.st0{fill:#F0F0F0;}
	.st1{display:none;}
	.st2{display:inline;fill:#1C1824;}
	.st3{fill:none;stroke:#D4D4D4;stroke-width:2.3506;stroke-miterlimit:10;}
	.st4{fill:none;stroke:#E3E3E3;stroke-width:0.5;stroke-miterlimit:10;}
	.st5{fill:none;stroke:#FFFFFE;stroke-width:0.8855;stroke-miterlimit:10;}
	.st6{fill:#FFFFFE;}
	.st7{fill:#16C0FE;}
	.st8{fill:#0000D7;}
	.st9{fill:#FFDE00;}
	.st10{fill:#6B6B6B;}
	.st11{fill:#696969;}
	.st12{fill:none;stroke:#474747;stroke-width:0.348;stroke-miterlimit:10;}
	.st13{fill:none;stroke:#474747;stroke-width:0.4442;stroke-miterlimit:10;}
	.st14{fill:none;stroke:#D2B356;stroke-width:5.9189;stroke-miterlimit:10;}
	.st15{fill:#D2B356;}
	.st16{fill:#FFFFFF;}
	.st17{fill:none;stroke:#000000;stroke-width:0.4956;stroke-miterlimit:10;}
	.st18{fill:none;stroke:#000000;stroke-width:1.6303;stroke-miterlimit:10;}
	.st19{fill:none;stroke:#A8A8A8;stroke-width:0.5;stroke-miterlimit:10;}
	.st20{display:inline;fill:none;stroke:#DBDBDB;stroke-width:0.4653;stroke-miterlimit:10;}
	.st21{fill:#303334;}
	.st22{clip-path:url(#SVGID_00000163787603614234629090000002814901324109178798_);fill:#B6B6B6;}
	.st23{fill-rule:evenodd;clip-rule:evenodd;fill:#303334;}
	.st24{fill:#262626;}
	.st25{fill:#424242;}
	.st26{fill:#595959;}
	.st27{fill:#A3A3A3;}
	.st28{fill:#606060;}
	.st29{fill:#848484;}
	.st30{fill:#040505;}
	.st31{fill-rule:evenodd;clip-rule:evenodd;fill:#2D2D2D;}
	.st32{fill-rule:evenodd;clip-rule:evenodd;fill:#989898;}
	.st33{fill:#4B4B4B;}
	.st34{fill:#373737;}
	.st35{fill:#1E1E1E;}
	.st36{clip-path:url(#SVGID_00000137842247006632640830000014095453274215433374_);}
	.st37{fill:#B29020;}
	.st38{clip-path:url(#SVGID_00000042708382913098246110000007042078003835803565_);}
	.st39{fill-rule:evenodd;clip-rule:evenodd;fill:#333333;}
	.st40{fill-rule:evenodd;clip-rule:evenodd;fill:#FFFFFF;}
	.st41{fill:#333333;}
	.st42{fill:#E3E3E3;}
	.st43{fill:#C7C7C7;}
	.st44{fill:#828282;}
	.st45{fill:#5D5D5D;}
	.st46{fill:#B7B7B7;}
	.st47{fill:#C1C1C1;}
	.st48{fill:#D9D9D9;}
	.st49{fill:#B2B2B2;}
	.st50{fill:#1D1D1D;}
	.st51{fill-rule:evenodd;clip-rule:evenodd;fill:#A8A8A8;}
	.st52{fill:#5C5C5C;}
	.st53{fill:#202020;}
	.st54{fill:#221F1F;}
	.st55{fill:#231F20;}
	.st56{fill:none;stroke:#221F1F;stroke-width:0.1371;}
	.st57{fill:#1D1D1B;}
	.st58{fill:#7A7A7A;}
	.st59{fill:none;stroke:#DBDBDB;stroke-width:0.4653;stroke-miterlimit:10;}
	.st60{clip-path:url(#SVGID_00000092447567540907589640000008904481504126555269_);fill:#B6B6B6;}
	.st61{clip-path:url(#SVGID_00000132780324960576471390000000916805065250881685_);}
	.st62{clip-path:url(#SVGID_00000133531075363475597860000010454673868351140011_);}
	.st63{fill:#A0A0A0;}
	.st64{fill-rule:evenodd;clip-rule:evenodd;fill:#D2B356;}
	.st65{fill:#9E9E9E;}
	.st66{clip-path:url(#SVGID_00000062184963603680293720000013389368995092574893_);}
	.st67{clip-path:url(#SVGID_00000054971371533083725550000003937052373134286769_);}
	.st68{clip-path:url(#SVGID_00000062909533967992622850000009075250860458295681_);}
	.st69{fill:#212121;}
</style>
<g id="Capa_2">
</g>
<g id="Capa_7" class="st1">
</g>
<g id="Capa_1">
</g>
<g id="lineas-logos">
</g>
<g id="marco-logos" class="st1">
</g>
<g id="logos">
	<rect x="0.01" y="-0.25" class="st59" width="126.08" height="75.06"/>
	<g>
		<path class="st16" d="M16.17,21.09v28.34v1.94c0,0,3.35,2.29,12.44,2.29s12.71-2.29,12.71-2.29v-3.06V21.09H16.17z"/>
		<path class="st27" d="M27.48,52.72c2.98-5.16,5.95-10.31,8.96-15.52c-0.19-0.01-0.32-0.02-0.45-0.02c-3.28,0-6.56,0-9.84,0
			c-2.84,0-5.68,0-8.52,0c-0.47,0-0.47,0-0.47-0.48c0-4.75,0-9.49,0-14.24c0-0.47,0-0.47,0.48-0.48c1.22,0,2.44,0,3.66,0
			c0.21,0,0.23,0.02,0.24,0.23c0,0.09,0,0.17,0,0.26c0,3.29,0,6.58,0,9.86c0,0.47,0,0.47,0.48,0.47c5.95,0,11.9,0,17.84,0
			c0.5,0,0.5,0,0.5,0.5c0,1.81,0,3.62,0,5.44c0,0.29-0.07,0.54-0.22,0.79c-0.79,1.36-1.57,2.72-2.35,4.08
			c-0.68,1.18-1.36,2.36-2.04,3.54c-0.26,0.45-0.52,0.9-0.77,1.35c-0.04,0.07-0.07,0.15-0.12,0.27c0.15,0.01,0.25,0.02,0.36,0.02
			c1.53,0,3.05,0,4.58,0c0.07,0,0.13,0,0.2,0c0.34,0,0.36,0.02,0.36,0.36c0,0.45,0,0.9,0,1.35c0,0.29-0.03,0.31-0.3,0.42
			c-1.19,0.47-2.41,0.83-3.66,1.1c-1.02,0.22-2.05,0.39-3.09,0.51c-1.01,0.12-2.02,0.22-3.04,0.23c-0.81,0.01-1.63,0.03-2.44,0.05
			c-0.1,0-0.2-0.01-0.3-0.02C27.51,52.77,27.49,52.74,27.48,52.72"/>
		<path class="st28" d="M34.19,38.45c-0.06,0.13-0.09,0.21-0.13,0.28c-1.25,2.18-2.51,4.35-3.76,6.53
			c-1.31,2.28-2.62,4.56-3.92,6.83c-0.09,0.15-0.18,0.29-0.26,0.45c-0.07,0.13-0.18,0.19-0.33,0.18c-0.3-0.02-0.59-0.04-0.89-0.07
			c-2.13-0.22-4.23-0.6-6.28-1.27c-0.4-0.13-0.79-0.3-1.19-0.43c-0.23-0.08-0.3-0.21-0.3-0.45c0.01-2.19,0-4.37,0-6.56
			c0-1.7,0-3.39,0-5.09c0-0.42,0-0.42,0.42-0.42c5.42,0,10.84,0,16.26,0C33.92,38.43,34.02,38.44,34.19,38.45"/>
		<path class="st29" d="M31.57,31.49c-2.77,0-5.55,0-8.32,0c-0.47,0-0.47,0-0.47-0.48c0-2.88,0-5.75,0-8.63c0-0.46,0-0.46,0.46-0.46
			c5.57,0,11.15,0,16.72,0c0.44,0,0.44,0,0.44,0.45c0,2.9,0,5.79,0,8.69c0,0.43,0,0.43-0.43,0.43
			C37.17,31.49,34.37,31.49,31.57,31.49"/>
		<path class="st21" d="M103.31,48.81c-0.13,0.02-0.22,0.03-0.31,0.03c-0.62,0-1.25,0-1.87,0c-0.24,0-0.39-0.08-0.47-0.32
			c-0.16-0.46-0.37-0.91-0.54-1.36c-0.07-0.19-0.18-0.27-0.38-0.27c-0.93,0.01-1.86,0.01-2.79,0c-0.2,0-0.31,0.06-0.39,0.26
			c-0.18,0.47-0.4,0.94-0.58,1.41c-0.08,0.2-0.18,0.29-0.4,0.29c-1.49-0.01-2.97-0.01-4.46,0c-0.19,0-0.32-0.07-0.43-0.22
			c-0.73-1-1.48-1.98-2.2-2.98c-0.16-0.22-0.34-0.32-0.6-0.29c-0.11,0.01-0.23,0-0.35,0.01c-0.11,0-0.18,0.06-0.18,0.18
			c0,0.08,0,0.15,0,0.23c0,0.87,0,1.74,0,2.62c0,0.09,0,0.17,0,0.26c0,0.13-0.08,0.19-0.2,0.2c-0.06,0.01-0.11,0.01-0.17,0.01
			c-0.55,0-1.09,0-1.64,0c-0.33,0-0.36-0.04-0.36-0.37c0-2.32,0-4.64,0-6.96c0-0.5,0-1,0-1.5c0-0.3,0.03-0.33,0.33-0.33
			c1.43,0,2.86-0.01,4.29,0.01c0.96,0.01,1.78,0.37,2.4,1.11c0.48,0.58,0.64,1.26,0.56,1.99c-0.1,0.98-0.62,1.69-1.48,2.16
			C91,45,90.94,45.04,90.88,45.08c0.08,0.23,2.19,3.12,2.54,3.48c0.04-0.07,0.08-0.13,0.11-0.19c0.75-1.79,1.5-3.59,2.25-5.38
			c0.44-1.04,0.89-2.08,1.33-3.12c0.07-0.17,0.17-0.23,0.35-0.23c0.59,0.01,1.19,0.01,1.78,0c0.2,0,0.29,0.08,0.36,0.25
			c0.74,1.78,1.48,3.56,2.23,5.33c0.46,1.11,0.92,2.21,1.38,3.32C103.24,48.61,103.26,48.68,103.31,48.81 M88.45,41.72L88.45,41.72
			c-0.26-0.01-0.52-0.01-0.78,0c-0.31,0-0.33,0.02-0.33,0.32c0,0.34,0,0.69,0,1.03c0,0.29,0.03,0.31,0.31,0.32c0.44,0,0.88,0,1.32,0
			c0.15,0,0.31,0,0.46-0.02c0.52-0.08,0.82-0.53,0.69-1.03c-0.1-0.36-0.39-0.6-0.81-0.62C89.02,41.71,88.73,41.72,88.45,41.72
			 M97.41,44.99c0.65-0.02,1.21,0.03,1.82-0.03c-0.29-0.77-0.56-1.49-0.87-2.2c-0.03,0-0.05,0-0.08,0
			C98,43.48,97.72,44.2,97.41,44.99"/>
		<path class="st21" d="M50.12,46.72h0.37c1.19,0,2.38,0,3.57,0c0.08,0,0.15,0,0.23,0c0.31,0,0.33,0.02,0.34,0.32
			c0,0.34,0,0.67,0,1.01c0,0.09,0,0.19,0.04,0.3c0.03-0.05,0.07-0.09,0.09-0.15c0.66-1.58,1.32-3.17,1.99-4.75
			c0.49-1.18,0.99-2.35,1.47-3.53c0.09-0.21,0.19-0.3,0.42-0.29c0.56,0.01,1.11,0.02,1.67,0c0.24-0.01,0.36,0.09,0.45,0.3
			c0.37,0.91,0.75,1.81,1.13,2.71c0.82,1.95,1.63,3.91,2.45,5.86c0.04,0.09,0.07,0.17,0.11,0.3c-0.13,0.02-0.22,0.04-0.31,0.04
			c-0.64,0-1.29,0-1.93,0c-0.21,0-0.33-0.08-0.41-0.28c-0.17-0.47-0.38-0.92-0.55-1.39c-0.07-0.2-0.19-0.28-0.41-0.28
			c-0.93,0.01-1.86,0.01-2.79,0c-0.19,0-0.3,0.07-0.37,0.25c-0.17,0.45-0.35,0.89-0.53,1.34c-0.14,0.36-0.15,0.37-0.52,0.36
			c-0.74-0.01-1.48-0.02-2.21-0.03c-0.46,0-0.92,0.02-1.38,0.02c-1.91,0-3.82,0-5.73,0c-0.46,0-0.46,0-0.47-0.46
			c0-0.33,0-0.65,0-0.98c0-0.18,0.05-0.33,0.17-0.47c1.3-1.6,2.59-3.2,3.89-4.81c0.07-0.09,0.14-0.18,0.24-0.32
			c-0.15-0.01-0.25-0.02-0.34-0.02c-1.08,0-2.17,0-3.25,0c-0.07,0-0.13,0-0.2,0c-0.29-0.01-0.32-0.03-0.32-0.31
			c0-0.49,0-0.98,0-1.47c0-0.28,0.03-0.31,0.32-0.31c2.24,0,4.49,0,6.73,0c0.29,0,0.32,0.03,0.32,0.31c0,0.36,0,0.73,0,1.09
			c0,0.19-0.07,0.35-0.19,0.5c-1.34,1.66-2.67,3.32-4,4.97C50.19,46.59,50.18,46.63,50.12,46.72 M60.31,44.94
			c-0.02-0.25-0.71-2.01-0.88-2.21c-0.29,0.74-0.57,1.46-0.85,2.19C58.84,45.01,60.07,45.01,60.31,44.94"/>
		<path class="st21" d="M68.96,32.62c0.11-0.17,0.19-0.3,0.27-0.42c0.62-0.93,1.25-1.86,1.86-2.8c0.13-0.2,0.28-0.28,0.52-0.27
			c0.56,0.01,1.11,0,1.67,0.01c0.31,0,0.35,0.04,0.35,0.35c0,2.83,0,5.66,0,8.48c0,0.33-0.03,0.36-0.37,0.36c-0.54,0-1.07,0-1.61,0
			c-0.38,0-0.39-0.01-0.39-0.38c0-1.56,0-3.13,0-4.69v-0.3c-0.02-0.01-0.05-0.01-0.07-0.02c-0.05,0.07-0.11,0.14-0.16,0.22
			c-0.4,0.61-0.81,1.21-1.21,1.82c-0.12,0.18-0.25,0.27-0.47,0.26c-0.25-0.01-0.5-0.01-0.75,0c-0.18,0.01-0.3-0.07-0.4-0.22
			c-0.42-0.63-0.86-1.25-1.29-1.87c-0.04-0.06-0.09-0.12-0.19-0.17c0,0.1-0.01,0.2-0.01,0.3c0,1.52,0,3.05,0,4.57
			c0,0.49,0,0.49-0.49,0.49c-0.52,0-1.04,0-1.55,0c-0.36,0-0.38-0.02-0.38-0.37c0-1.49,0-2.97,0-4.46v-3.88c0-0.08,0-0.15,0-0.23
			c0.01-0.2,0.04-0.25,0.23-0.25c0.65-0.01,1.3,0,1.96,0c0.17,0,0.26,0.1,0.34,0.23c0.65,0.99,1.3,1.99,1.96,2.98
			C68.83,32.42,68.88,32.49,68.96,32.62"/>
		<path class="st21" d="M69.3,43.13c0.08-0.11,0.14-0.19,0.2-0.28c0.62-0.94,1.26-1.88,1.87-2.83c0.16-0.25,0.34-0.34,0.63-0.33
			c0.5,0.02,1,0.01,1.5,0.01c0.47,0,0.47,0,0.47,0.48c0,0.49,0,0.98,0,1.47c0,2.24,0,4.49,0,6.73c0,0.47,0,0.47-0.49,0.47
			c-0.51,0-1.02,0-1.53,0c-0.33,0-0.36-0.04-0.36-0.37c0-1.48,0-2.95,0-4.43c0-0.2-0.02-0.39-0.04-0.65
			c-0.09,0.11-0.14,0.16-0.18,0.23c-0.4,0.6-0.8,1.19-1.19,1.8c-0.13,0.2-0.28,0.3-0.52,0.28c-0.25-0.02-0.5-0.01-0.75,0
			c-0.2,0.01-0.32-0.07-0.42-0.23c-0.41-0.6-0.82-1.2-1.24-1.8c-0.05-0.08-0.11-0.15-0.23-0.22c-0.01,0.09-0.02,0.17-0.02,0.26
			c0,1.53,0,3.07,0,4.6c0,0.11,0,0.21,0,0.32c0,0.13-0.07,0.19-0.19,0.21c-0.07,0.01-0.13,0.01-0.2,0.01c-0.5,0-1,0-1.5,0
			c-0.05,0-0.1,0-0.14,0c-0.31-0.02-0.35-0.06-0.35-0.36c0-0.9,0-1.8,0-2.7c0-1.88,0-3.76,0-5.64c0-0.44,0-0.44,0.45-0.44
			c0.55,0,1.09,0.01,1.64,0c0.22-0.01,0.35,0.07,0.47,0.26c0.64,0.98,1.29,1.95,1.93,2.93C69.17,42.95,69.23,43.02,69.3,43.13"/>
		<path class="st21" d="M94.17,33.73v-4.08c0-0.08,0-0.15,0-0.23c0.01-0.25,0.04-0.28,0.28-0.29c0.06,0,0.12,0,0.17,0
			c1.02,0,2.03-0.01,3.05,0c0.69,0.01,1.38,0.06,2.04,0.28c1.37,0.47,2.4,1.31,2.91,2.69c0.23,0.61,0.29,1.25,0.26,1.89
			c-0.02,0.55-0.12,1.09-0.35,1.59c-0.59,1.31-1.62,2.11-2.98,2.5c-0.56,0.16-1.15,0.23-1.73,0.23c-1.07,0.01-2.15,0-3.22,0
			c-0.02,0-0.04,0-0.06,0c-0.36,0-0.38-0.02-0.38-0.37c0-0.83,0-1.67,0-2.5V33.73z M96.59,33.71c0,0.4,0,0.8,0,1.21
			c0,0.34,0,0.69,0,1.03c0,0.19,0.04,0.24,0.21,0.24c0.59,0,1.19,0.06,1.78-0.07c1-0.23,1.66-0.82,1.82-1.9
			c0.01-0.06,0.02-0.11,0.03-0.17c0.06-0.63-0.03-1.23-0.37-1.77c-0.34-0.55-0.87-0.81-1.48-0.96c-0.55-0.13-1.11-0.07-1.66-0.08
			c-0.3,0-0.32,0.03-0.32,0.33C96.59,32.29,96.59,33,96.59,33.71"/>
		<path class="st21" d="M58.78,38.51c-2.04-0.07-3.51-0.96-4.39-2.75c-0.38-0.77-0.49-1.6-0.41-2.46c0.08-0.94,0.38-1.79,0.98-2.53
			c0.82-1.02,1.87-1.61,3.18-1.77c0.85-0.1,1.68-0.03,2.46,0.29c1.73,0.71,2.73,2.01,2.97,3.88c0.1,0.79,0.03,1.56-0.27,2.29
			c-0.72,1.75-2.01,2.78-3.91,3.01C59.17,38.48,58.95,38.49,58.78,38.51 M61.13,33.71c0.02-0.51-0.12-0.99-0.38-1.44
			c-0.62-1.05-1.95-1.4-3.04-0.87c-0.45,0.22-0.8,0.56-1.02,1.02c-0.31,0.66-0.38,1.35-0.21,2.05c0.21,0.88,0.75,1.49,1.63,1.73
			c0.91,0.25,1.71,0.04,2.36-0.65C60.96,35.03,61.15,34.41,61.13,33.71"/>
		<path class="st21" d="M74.66,44.26c-0.05-1.31,0.41-2.42,1.31-3.35c0.83-0.86,1.87-1.33,3.07-1.38c0.47-0.02,0.94-0.01,1.4,0.07
			c1.42,0.24,2.5,1.03,3.2,2.27c0.9,1.6,0.89,3.26-0.04,4.85c-0.74,1.27-1.88,2.03-3.34,2.24c-0.92,0.13-1.84,0.07-2.71-0.3
			c-1.53-0.65-2.46-1.8-2.83-3.42c-0.03-0.11-0.05-0.23-0.06-0.34C74.66,44.68,74.66,44.47,74.66,44.26 M81.8,44.26
			c0-0.06,0-0.14,0-0.21c0-1.17-0.99-2.4-2.4-2.33c-0.92,0.04-1.59,0.45-2.01,1.25c-0.39,0.74-0.4,1.53-0.12,2.31
			c0.14,0.39,0.37,0.73,0.7,1c0.48,0.41,1.04,0.54,1.66,0.51c0.54-0.02,1.01-0.22,1.4-0.58C81.58,45.68,81.84,45.03,81.8,44.26"/>
		<path class="st21" d="M103.56,33.72c0-1.39,0-2.78,0-4.17c0-0.42,0.01-0.43,0.44-0.43c2.03,0,4.07,0,6.1,0c0.04,0,0.08,0,0.12,0
			c0.26,0.01,0.31,0.05,0.31,0.3c0.01,0.51,0.01,1.02,0,1.52c0,0.25-0.05,0.29-0.31,0.3c-0.36,0.01-0.71,0-1.07,0
			c-0.91,0-1.82,0-2.73,0c-0.48,0-0.48,0-0.48,0.49c0,0.15,0,0.31,0,0.46c0.01,0.19,0.05,0.23,0.25,0.24c0.09,0.01,0.17,0,0.26,0
			c0.94,0,1.88,0,2.82,0c0.3,0,0.34,0.04,0.34,0.33c0,0.46,0.01,0.92,0,1.38c0,0.27-0.04,0.31-0.32,0.31c-0.87,0-1.75,0-2.62,0
			c-0.13,0-0.27,0-0.4,0c-0.3,0-0.32,0.02-0.32,0.31c0,0.36,0,0.73,0,1.09c0,0.3,0.02,0.32,0.34,0.32c1.29,0,2.57,0,3.86,0
			c0.09,0,0.17,0,0.26,0c0.2,0.01,0.25,0.05,0.25,0.24c0.01,0.55,0.01,1.09,0,1.64c0,0.19-0.05,0.22-0.25,0.24
			c-0.07,0.01-0.13,0-0.2,0c-2.06,0-4.13,0-6.19,0c-0.43,0-0.44,0-0.44-0.43C103.56,36.5,103.56,35.11,103.56,33.72"/>
		<path class="st21" d="M90.3,31.97c-0.1-0.04-0.16-0.05-0.2-0.08c-0.67-0.36-1.39-0.61-2.15-0.71c-0.4-0.05-0.8-0.04-1.2-0.03
			c-0.16,0.01-0.32,0.07-0.46,0.15c-0.31,0.19-0.29,0.56,0.03,0.73c0.09,0.05,0.19,0.08,0.29,0.12c0.49,0.16,0.99,0.31,1.48,0.48
			c0.69,0.23,1.35,0.53,1.94,0.99c0.57,0.45,0.83,1.05,0.86,1.75c0.06,1.34-0.65,2.36-1.98,2.84c-0.73,0.27-1.49,0.33-2.27,0.27
			c-0.5-0.04-0.99-0.1-1.47-0.24c-0.49-0.14-0.96-0.34-1.39-0.61c-0.13-0.08-0.19-0.18-0.19-0.33c0-0.66,0-1.32,0-1.98
			c0-0.05,0.02-0.1,0.04-0.18c0.06,0.03,0.11,0.05,0.14,0.07c0.8,0.61,1.71,0.94,2.69,1.08c0.38,0.05,0.77,0.03,1.15,0
			c0.18-0.01,0.38-0.09,0.54-0.18c0.32-0.19,0.37-0.6,0.08-0.85c-0.14-0.12-0.32-0.22-0.49-0.28c-0.49-0.17-0.99-0.3-1.48-0.46
			c-0.39-0.13-0.78-0.27-1.16-0.44c-0.45-0.2-0.81-0.54-1.13-0.92c-0.05-0.06-0.09-0.15-0.12-0.23c-0.25-0.6-0.32-1.22-0.18-1.86
			c0.15-0.72,0.58-1.24,1.21-1.6c0.46-0.26,0.95-0.39,1.47-0.47c1.22-0.17,2.39,0.01,3.52,0.49c0.45,0.19,0.45,0.2,0.45,0.67
			c0,0.48,0,0.96,0,1.44C90.32,31.72,90.31,31.82,90.3,31.97"/>
		<path class="st21" d="M83.71,38.29c-0.15,0.01-0.24,0.03-0.33,0.03c-0.63,0-1.27-0.01-1.9,0.01c-0.23,0-0.35-0.08-0.43-0.29
			c-0.17-0.46-0.37-0.91-0.54-1.36c-0.08-0.21-0.19-0.3-0.42-0.3c-0.92,0.01-1.84,0.01-2.76,0c-0.2,0-0.32,0.06-0.39,0.26
			c-0.17,0.46-0.36,0.91-0.54,1.36c-0.12,0.31-0.13,0.33-0.45,0.33c-0.61,0-1.23,0-1.84,0c-0.09,0-0.18-0.02-0.32-0.03
			c0.06-0.18,0.11-0.32,0.16-0.45c0.43-1.04,0.87-2.09,1.31-3.13c0.74-1.79,1.49-3.57,2.22-5.36c0.08-0.19,0.19-0.29,0.4-0.28
			c0.56,0.01,1.11,0.01,1.67,0c0.24-0.01,0.36,0.09,0.45,0.31c0.52,1.28,1.05,2.55,1.58,3.82c0.66,1.59,1.33,3.18,1.99,4.77
			C83.62,38.05,83.65,38.14,83.71,38.29 M79.61,34.4c-0.29-0.75-0.58-1.48-0.87-2.24c-0.19,0.33-0.84,2.08-0.85,2.26
			C78.12,34.49,79.32,34.49,79.61,34.4"/>
		<path class="st21" d="M47.42,33.72c0-1.37,0-2.74,0-4.11c0-0.09,0-0.17,0-0.26c0.01-0.18,0.05-0.22,0.23-0.22
			c0.63-0.01,1.27-0.01,1.9,0c0.19,0,0.23,0.05,0.24,0.25c0.01,0.1,0,0.19,0,0.29c0,2.01,0,4.03,0,6.04c0,0.51-0.03,0.5,0.51,0.5
			c1.11,0,2.23,0,3.34,0c0.08,0,0.15,0,0.23,0c0.24,0.01,0.29,0.05,0.29,0.29c0.01,0.52,0.01,1.04,0,1.55
			c0,0.23-0.05,0.27-0.27,0.28c-0.07,0-0.13,0-0.2,0c-1.94,0-3.88,0-5.81,0c-0.46,0-0.46,0-0.46-0.46
			C47.42,36.48,47.42,35.1,47.42,33.72"/>
		<path class="st28" d="M37.06,47.51c0.09-0.32,3.14-5.58,3.32-5.74c0.01,0.1,0.02,0.18,0.02,0.26c0,1.72,0,3.43,0,5.15
			c0,0.07,0.01,0.14-0.02,0.2c-0.03,0.06-0.09,0.11-0.15,0.14c-0.05,0.02-0.11,0.01-0.17,0.01c-0.92,0-1.84,0-2.76,0
			C37.23,47.53,37.16,47.52,37.06,47.51"/>
		<path class="st21" d="M49.25,24.96c0.08-0.09,0.14-0.15,0.2-0.23c0.34-0.45,0.68-0.9,1.02-1.36c0.1-0.14,0.22-0.21,0.39-0.19
			c0.11,0.01,0.18,0.07,0.19,0.18c0.01,0.08,0.01,0.15,0.01,0.23c0,1.01,0,2.01,0,3.02c0,0.06,0,0.12,0,0.17
			c0,0.14-0.07,0.21-0.22,0.21c-0.17,0-0.22-0.04-0.23-0.22c-0.01-0.08,0-0.15,0-0.23c0-0.76,0-1.51,0-2.27v-0.35
			c-0.1,0.1-0.15,0.16-0.2,0.22c-0.29,0.38-0.57,0.77-0.86,1.15c-0.2,0.26-0.34,0.27-0.54,0.01c-0.28-0.36-0.55-0.73-0.83-1.1
			c-0.06-0.08-0.13-0.16-0.23-0.29c-0.01,0.15-0.02,0.24-0.02,0.33c0,0.78,0,1.55,0,2.33c0,0.08,0,0.15,0,0.23
			c0,0.13-0.07,0.19-0.2,0.19c-0.14,0-0.2-0.05-0.21-0.21c-0.01-0.07,0-0.13,0-0.2c0-1,0-1.99,0-2.99c0-0.05,0-0.1,0-0.14
			c0.01-0.09-0.01-0.21,0.11-0.24c0.12-0.04,0.25-0.05,0.35,0.05c0.06,0.06,0.11,0.13,0.17,0.2c0.33,0.44,0.65,0.88,0.98,1.31
			C49.13,24.83,49.18,24.88,49.25,24.96"/>
		<path class="st21" d="M58.36,26.09v-0.31c0-0.73,0-1.46,0-2.18c0-0.08,0-0.15,0.01-0.23c0.01-0.13,0.09-0.18,0.21-0.18
			c0.11,0,0.18,0.05,0.19,0.17c0.01,0.07,0.01,0.13,0.01,0.2c0,1.02,0,2.05,0,3.07c0,0.03,0,0.06,0,0.09
			c-0.01,0.1,0.02,0.22-0.12,0.26c-0.13,0.04-0.25,0.02-0.34-0.09c-0.14-0.18-0.28-0.36-0.43-0.54c-0.55-0.71-1.1-1.43-1.65-2.14
			c-0.03-0.04-0.07-0.09-0.16-0.19c-0.01,0.15-0.02,0.24-0.02,0.32c0,0.74,0,1.48,0,2.21c0,0.08,0,0.15,0,0.23
			c0,0.14-0.07,0.21-0.21,0.21c-0.16,0-0.22-0.04-0.24-0.21c-0.01-0.07,0-0.13,0-0.2c0-1,0-1.99,0-2.99c0-0.05,0-0.1,0-0.14
			c0.01-0.09-0.01-0.22,0.11-0.24c0.1-0.02,0.23,0.01,0.32,0.05c0.07,0.03,0.12,0.12,0.17,0.19c0.65,0.84,1.3,1.68,1.95,2.52
			c0.04,0.05,0.07,0.11,0.1,0.17C58.3,26.13,58.33,26.11,58.36,26.09"/>
		<path class="st21" d="M71.62,27.06c-1.08-0.01-1.9-0.85-1.89-1.96c0.01-1.35,1.07-1.99,1.95-1.98c1.04,0.01,1.92,0.88,1.9,2.02
			C73.57,26.16,72.77,27.13,71.62,27.06 M73.11,25.1c0-0.07,0-0.13,0-0.2c-0.05-0.61-0.35-1.05-0.93-1.27
			c-0.55-0.21-1.08-0.12-1.52,0.3c-0.48,0.46-0.62,1.21-0.35,1.83c0.33,0.75,1.21,1.1,1.95,0.75C72.86,26.24,73.12,25.75,73.11,25.1
			"/>
		<path class="st21" d="M52.21,24.53c0,0.28,0,0.56,0,0.83c0,0.09,0,0.17,0.01,0.26c0.08,0.8,0.83,1.25,1.57,0.94
			c0.48-0.2,0.63-0.62,0.65-1.09c0.02-0.6,0.01-1.21,0.01-1.81c0-0.08,0-0.15,0-0.23c0.01-0.19,0.06-0.23,0.22-0.24
			c0.17-0.01,0.24,0.05,0.24,0.24c0.01,0.57,0.01,1.15,0,1.72c0,0.2-0.02,0.4-0.05,0.6c-0.1,0.66-0.51,1.16-1.13,1.26
			c-0.8,0.14-1.29-0.04-1.71-0.6c-0.2-0.26-0.26-0.58-0.27-0.9c-0.01-0.69-0.01-1.38,0-2.07c0-0.2,0.04-0.25,0.19-0.26
			c0.19-0.02,0.26,0.04,0.27,0.24C52.21,23.8,52.21,24.16,52.21,24.53L52.21,24.53z"/>
		<path class="st21" d="M65.44,25.1c0-0.53,0-1.05,0-1.58c0-0.3,0.03-0.33,0.33-0.33c0.44,0,0.88,0,1.32,0
			c0.13,0,0.27,0.02,0.4,0.05c0.5,0.12,0.79,0.51,0.79,1.03c0,0.5-0.29,0.89-0.78,1c-0.22,0.05-0.45,0.05-0.68,0.06
			c-0.21,0.01-0.42,0-0.63,0c-0.28,0.01-0.31,0.03-0.31,0.32c0,0.32,0,0.63,0,0.95c0,0.08,0,0.15-0.01,0.23
			c-0.01,0.12-0.08,0.16-0.2,0.16c-0.12,0-0.21-0.04-0.21-0.17c-0.01-0.08-0.01-0.15-0.01-0.23C65.44,26.09,65.44,25.59,65.44,25.1
			 M66.63,24.92L66.63,24.92c0.19-0.01,0.38,0.01,0.57-0.01c0.28-0.02,0.5-0.14,0.59-0.42c0.15-0.43-0.11-0.84-0.59-0.88
			c-0.37-0.03-0.75-0.02-1.12-0.01c-0.18,0-0.22,0.04-0.22,0.22c-0.01,0.29-0.01,0.57,0,0.86c0.01,0.19,0.04,0.23,0.24,0.23
			C66.28,24.92,66.46,24.92,66.63,24.92"/>
		<path class="st21" d="M63.59,23.81c-0.5-0.24-0.99-0.36-1.52-0.2c-0.29,0.09-0.52,0.27-0.71,0.51c-0.39,0.47-0.38,1.45-0.02,1.92
			c0.18,0.23,0.41,0.41,0.68,0.51c0.28,0.11,0.57,0.13,0.85,0.07c0.28-0.05,0.54-0.17,0.81-0.26c0.09,0.27,0.07,0.37-0.15,0.49
			c-0.11,0.06-0.23,0.11-0.35,0.14c-0.93,0.21-1.83-0.01-2.32-0.88c-0.36-0.65-0.37-1.33-0.03-1.98c0.34-0.67,0.93-0.99,1.69-1.01
			c0.32-0.01,0.63,0.03,0.92,0.17C63.67,23.41,63.7,23.5,63.59,23.81"/>
		<path class="st21" d="M64.65,25.1c0,0.54,0,1.07,0,1.61c0,0.11,0.02,0.24-0.14,0.28c-0.19,0.06-0.31-0.02-0.32-0.23
			c-0.01-0.21,0-0.42,0-0.63c0-0.87,0-1.74,0-2.61c0-0.12-0.03-0.26,0.13-0.31c0.2-0.06,0.32,0.03,0.32,0.26
			C64.65,24.01,64.65,24.55,64.65,25.1"/>
		<path class="st21" d="M69.14,25.09c0,0.55,0,1.09,0,1.64c0,0.22-0.07,0.28-0.24,0.27c-0.11-0.01-0.18-0.06-0.2-0.17
			c-0.01-0.09-0.02-0.19-0.02-0.29c0-0.97,0-1.93,0-2.9c0-0.08,0-0.15,0.01-0.23c0.03-0.17,0.08-0.22,0.24-0.22
			c0.15,0,0.21,0.05,0.21,0.24C69.15,23.98,69.14,24.54,69.14,25.09L69.14,25.09z"/>
		<path class="st21" d="M59.57,25.06c0-0.54,0-1.07,0-1.61c0-0.21,0.05-0.26,0.22-0.26c0.17,0,0.22,0.04,0.22,0.22
			c0,0.65-0.01,1.3-0.01,1.95c0,0.36,0.02,0.72,0.02,1.09c0,0.12-0.01,0.25-0.02,0.37c-0.01,0.14-0.11,0.19-0.24,0.18
			c-0.13-0.01-0.18-0.08-0.18-0.21c0-0.19,0-0.38,0-0.57C59.57,25.83,59.57,25.45,59.57,25.06L59.57,25.06z"/>
	</g>
</g>
<g id="Capa_6">
</g>
</svg>
